<?xml version="1.0" encoding="UTF-8" standalone="no"?>
<!DOCTYPE svg PUBLIC "-//W3C//DTD SVG 1.1//EN"
 "http://www.w3.org/Graphics/SVG/1.1/DTD/svg11.dtd">
<!-- Generated by graphviz version 2.43.0 (0)
 -->
<!-- Title: perl6&#45;type&#45;graph Pages: 1 -->
<svg width="326pt" height="404pt"
 viewBox="0.00 0.00 326.47 404.00" xmlns="http://www.w3.org/2000/svg" xmlns:xlink="http://www.w3.org/1999/xlink">
<g id="graph0" class="graph" transform="scale(1 1) rotate(0) translate(4 400)">
<title>perl6&#45;type&#45;graph</title>
<polygon fill="white" stroke="transparent" points="-4,4 -4,-400 322.47,-400 322.47,4 -4,4"/>
<!-- X::Syntax::Pod::BeginWithoutIdentifier -->
<g id="node1" class="node">
<title>X::Syntax::Pod::BeginWithoutIdentifier</title>
<g id="a_node1"><a xlink:href="/type/X::Syntax::Pod::BeginWithoutIdentifier" xlink:title="X::Syntax::Pod::BeginWithoutIdentifier">
<ellipse fill="none" stroke="#000000" cx="159.24" cy="-18" rx="159.47" ry="18"/>
<text text-anchor="middle" x="159.24" y="-14.3" font-family="FreeSans" font-size="14.00" fill="#000000">X::Syntax::Pod::BeginWithoutIdentifier</text>
</a>
</g>
</g>
<!-- Exception -->
<g id="node4" class="node">
<title>Exception</title>
<g id="a_node4"><a xlink:href="/type/Exception" xlink:title="Exception">
<ellipse fill="none" stroke="#000000" cx="121.24" cy="-234" rx="49.29" ry="18"/>
<text text-anchor="middle" x="121.24" y="-230.3" font-family="FreeSans" font-size="14.00" fill="#000000">Exception</text>
</a>
</g>
</g>
<!-- X::Syntax::Pod::BeginWithoutIdentifier&#45;&gt;Exception -->
<g id="edge1" class="edge">
<title>X::Syntax::Pod::BeginWithoutIdentifier&#45;&gt;Exception</title>
<path fill="none" stroke="#000000" d="M140.89,-36.06C124.22,-51.55 102.24,-72 102.24,-72 102.24,-72 102.24,-108 102.24,-108 102.24,-108 111.51,-169.01 117.1,-205.78"/>
<polygon fill="#000000" stroke="#000000" points="113.67,-206.52 118.63,-215.88 120.59,-205.47 113.67,-206.52"/>
</g>
<!-- X::Syntax -->
<g id="node6" class="node">
<title>X::Syntax</title>
<g id="a_node6"><a xlink:href="/type/X::Syntax" xlink:title="X::Syntax">
<ellipse fill="none" stroke="#6666ff" cx="159.24" cy="-90" rx="48.19" ry="18"/>
<text text-anchor="middle" x="159.24" y="-86.3" font-family="FreeSans" font-size="14.00" fill="#6666ff">X::Syntax</text>
</a>
</g>
</g>
<!-- X::Syntax::Pod::BeginWithoutIdentifier&#45;&gt;X::Syntax -->
<g id="edge6" class="edge">
<title>X::Syntax::Pod::BeginWithoutIdentifier&#45;&gt;X::Syntax</title>
<path fill="none" stroke="#6666ff" d="M159.24,-36.3C159.24,-44.02 159.24,-53.29 159.24,-61.89"/>
<polygon fill="#6666ff" stroke="#6666ff" points="155.74,-61.9 159.24,-71.9 162.74,-61.9 155.74,-61.9"/>
</g>
<!-- X::Pod -->
<g id="node7" class="node">
<title>X::Pod</title>
<g id="a_node7"><a xlink:href="/type/X::Pod" xlink:title="X::Pod">
<ellipse fill="none" stroke="#6666ff" cx="262.24" cy="-90" rx="37.09" ry="18"/>
<text text-anchor="middle" x="262.24" y="-86.3" font-family="FreeSans" font-size="14.00" fill="#6666ff">X::Pod</text>
</a>
</g>
</g>
<!-- X::Syntax::Pod::BeginWithoutIdentifier&#45;&gt;X::Pod -->
<g id="edge7" class="edge">
<title>X::Syntax::Pod::BeginWithoutIdentifier&#45;&gt;X::Pod</title>
<path fill="none" stroke="#6666ff" d="M184.17,-35.95C198.8,-45.89 217.37,-58.51 232.73,-68.95"/>
<polygon fill="#6666ff" stroke="#6666ff" points="231.11,-72.08 241.35,-74.81 235.05,-66.29 231.11,-72.08"/>
</g>
<!-- Mu -->
<g id="node2" class="node">
<title>Mu</title>
<g id="a_node2"><a xlink:href="/type/Mu" xlink:title="Mu">
<ellipse fill="none" stroke="#000000" cx="121.24" cy="-378" rx="27" ry="18"/>
<text text-anchor="middle" x="121.24" y="-374.3" font-family="FreeSans" font-size="14.00" fill="#000000">Mu</text>
</a>
</g>
</g>
<!-- Any -->
<g id="node3" class="node">
<title>Any</title>
<g id="a_node3"><a xlink:href="/type/Any" xlink:title="Any">
<ellipse fill="none" stroke="#000000" cx="121.24" cy="-306" rx="27" ry="18"/>
<text text-anchor="middle" x="121.24" y="-302.3" font-family="FreeSans" font-size="14.00" fill="#000000">Any</text>
</a>
</g>
</g>
<!-- Any&#45;&gt;Mu -->
<g id="edge2" class="edge">
<title>Any&#45;&gt;Mu</title>
<path fill="none" stroke="#000000" d="M121.24,-324.3C121.24,-332.02 121.24,-341.29 121.24,-349.89"/>
<polygon fill="#000000" stroke="#000000" points="117.74,-349.9 121.24,-359.9 124.74,-349.9 117.74,-349.9"/>
</g>
<!-- Exception&#45;&gt;Any -->
<g id="edge3" class="edge">
<title>Exception&#45;&gt;Any</title>
<path fill="none" stroke="#000000" d="M121.24,-252.3C121.24,-260.02 121.24,-269.29 121.24,-277.89"/>
<polygon fill="#000000" stroke="#000000" points="117.74,-277.9 121.24,-287.9 124.74,-277.9 117.74,-277.9"/>
</g>
<!-- X::Comp -->
<g id="node5" class="node">
<title>X::Comp</title>
<g id="a_node5"><a xlink:href="/type/X::Comp" xlink:title="X::Comp">
<ellipse fill="none" stroke="#6666ff" cx="194.24" cy="-162" rx="44.69" ry="18"/>
<text text-anchor="middle" x="194.24" y="-158.3" font-family="FreeSans" font-size="14.00" fill="#6666ff">X::Comp</text>
</a>
</g>
</g>
<!-- X::Comp&#45;&gt;Exception -->
<g id="edge4" class="edge">
<title>X::Comp&#45;&gt;Exception</title>
<path fill="none" stroke="#000000" d="M177.67,-178.88C168.13,-188.04 155.96,-199.71 145.36,-209.87"/>
<polygon fill="#000000" stroke="#000000" points="142.78,-207.49 137.99,-216.94 147.63,-212.54 142.78,-207.49"/>
</g>
<!-- X::Syntax&#45;&gt;Exception -->
<g id="edge5" class="edge">
<title>X::Syntax&#45;&gt;Exception</title>
<path fill="none" stroke="#000000" d="M153.12,-108.06C147.57,-123.55 140.24,-144 140.24,-144 140.24,-144 132.59,-179.83 126.99,-206.03"/>
<polygon fill="#000000" stroke="#000000" points="123.56,-205.33 124.9,-215.84 130.41,-206.79 123.56,-205.33"/>
</g>
<!-- X::Syntax&#45;&gt;X::Comp -->
<g id="edge8" class="edge">
<title>X::Syntax&#45;&gt;X::Comp</title>
<path fill="none" stroke="#6666ff" d="M167.71,-107.95C171.79,-116.11 176.78,-126.09 181.32,-135.18"/>
<polygon fill="#6666ff" stroke="#6666ff" points="178.24,-136.83 185.84,-144.21 184.5,-133.7 178.24,-136.83"/>
</g>
</g>
</svg>
