<?xml version="1.0" encoding="UTF-8" standalone="no"?>
<!DOCTYPE svg PUBLIC "-//W3C//DTD SVG 1.1//EN"
 "http://www.w3.org/Graphics/SVG/1.1/DTD/svg11.dtd">
<!-- Generated by graphviz version 2.43.0 (0)
 -->
<!-- Title: perl6&#45;type&#45;graph Pages: 1 -->
<svg width="322pt" height="260pt"
 viewBox="0.00 0.00 321.99 260.00" xmlns="http://www.w3.org/2000/svg" xmlns:xlink="http://www.w3.org/1999/xlink">
<g id="graph0" class="graph" transform="scale(1 1) rotate(0) translate(4 256)">
<title>perl6&#45;type&#45;graph</title>
<polygon fill="#ffffff" stroke="transparent" points="-4,4 -4,-256 317.99,-256 317.99,4 -4,4"/>
<!-- Uni -->
<g id="node1" class="node">
<title>Uni</title>
<g id="a_node1"><a xlink:href="/type/Uni" xlink:title="Uni">
<ellipse fill="none" stroke="#000000" cx="159.75" cy="-90" rx="27" ry="18"/>
<text text-anchor="middle" x="159.75" y="-86.3" font-family="FreeSans" font-size="14.00" fill="#000000">Uni</text>
</a>
</g>
</g>
<!-- Any -->
<g id="node3" class="node">
<title>Any</title>
<g id="a_node3"><a xlink:href="/type/Any" xlink:title="Any">
<ellipse fill="none" stroke="#000000" cx="65.75" cy="-162" rx="27" ry="18"/>
<text text-anchor="middle" x="65.75" y="-158.3" font-family="FreeSans" font-size="14.00" fill="#000000">Any</text>
</a>
</g>
</g>
<!-- Uni&#45;&gt;Any -->
<g id="edge1" class="edge">
<title>Uni&#45;&gt;Any</title>
<path fill="none" stroke="#000000" d="M142.07,-104.17C127.8,-114.79 107.52,-129.89 91.46,-141.85"/>
<polygon fill="#000000" stroke="#000000" points="88.96,-139.35 83.03,-148.13 93.14,-144.96 88.96,-139.35"/>
</g>
<!-- Positional -->
<g id="node4" class="node">
<title>Positional</title>
<g id="a_node4"><a xlink:href="/type/Positional" xlink:title="Positional">
<ellipse fill="none" stroke="#6666ff" cx="159.75" cy="-162" rx="48.99" ry="18"/>
<text text-anchor="middle" x="159.75" y="-158.3" font-family="FreeSans" font-size="14.00" fill="#6666ff">Positional</text>
</a>
</g>
</g>
<!-- Uni&#45;&gt;Positional -->
<g id="edge7" class="edge">
<title>Uni&#45;&gt;Positional</title>
<path fill="none" stroke="#6666ff" d="M159.75,-108.3C159.75,-116.02 159.75,-125.29 159.75,-133.89"/>
<polygon fill="#6666ff" stroke="#6666ff" points="156.25,-133.9 159.75,-143.9 163.25,-133.9 156.25,-133.9"/>
</g>
<!-- Stringy -->
<g id="node5" class="node">
<title>Stringy</title>
<g id="a_node5"><a xlink:href="/type/Stringy" xlink:title="Stringy">
<ellipse fill="none" stroke="#6666ff" cx="264.75" cy="-162" rx="38.19" ry="18"/>
<text text-anchor="middle" x="264.75" y="-158.3" font-family="FreeSans" font-size="14.00" fill="#6666ff">Stringy</text>
</a>
</g>
</g>
<!-- Uni&#45;&gt;Stringy -->
<g id="edge8" class="edge">
<title>Uni&#45;&gt;Stringy</title>
<path fill="none" stroke="#6666ff" d="M178.52,-103.51C194.23,-113.99 216.94,-129.13 235.11,-141.24"/>
<polygon fill="#6666ff" stroke="#6666ff" points="233.35,-144.27 243.61,-146.91 237.23,-138.45 233.35,-144.27"/>
</g>
<!-- Mu -->
<g id="node2" class="node">
<title>Mu</title>
<g id="a_node2"><a xlink:href="/type/Mu" xlink:title="Mu">
<ellipse fill="none" stroke="#000000" cx="65.75" cy="-234" rx="27" ry="18"/>
<text text-anchor="middle" x="65.75" y="-230.3" font-family="FreeSans" font-size="14.00" fill="#000000">Mu</text>
</a>
</g>
</g>
<!-- Any&#45;&gt;Mu -->
<g id="edge2" class="edge">
<title>Any&#45;&gt;Mu</title>
<path fill="none" stroke="#000000" d="M65.75,-180.3C65.75,-188.02 65.75,-197.29 65.75,-205.89"/>
<polygon fill="#000000" stroke="#000000" points="62.25,-205.9 65.75,-215.9 69.25,-205.9 62.25,-205.9"/>
</g>
<!-- NFKC -->
<g id="node6" class="node">
<title>NFKC</title>
<g id="a_node6"><a xlink:href="/type/NFKC" xlink:title="NFKC">
<ellipse fill="none" stroke="#000000" cx="35.75" cy="-18" rx="36" ry="18"/>
<text text-anchor="middle" x="35.75" y="-14.3" font-family="FreeSans" font-size="14.00" fill="#000000">NFKC</text>
</a>
</g>
</g>
<!-- NFKC&#45;&gt;Uni -->
<g id="edge3" class="edge">
<title>NFKC&#45;&gt;Uni</title>
<path fill="none" stroke="#000000" d="M58.78,-32C79.13,-43.49 108.89,-60.29 130.83,-72.68"/>
<polygon fill="#000000" stroke="#000000" points="129.28,-75.82 139.71,-77.69 132.72,-69.72 129.28,-75.82"/>
</g>
<!-- NFD -->
<g id="node7" class="node">
<title>NFD</title>
<g id="a_node7"><a xlink:href="/type/NFD" xlink:title="NFD">
<ellipse fill="none" stroke="#000000" cx="118.75" cy="-18" rx="29.5" ry="18"/>
<text text-anchor="middle" x="118.75" y="-14.3" font-family="FreeSans" font-size="14.00" fill="#000000">NFD</text>
</a>
</g>
</g>
<!-- NFD&#45;&gt;Uni -->
<g id="edge4" class="edge">
<title>NFD&#45;&gt;Uni</title>
<path fill="none" stroke="#000000" d="M128.26,-35.24C133.28,-43.81 139.54,-54.51 145.16,-64.1"/>
<polygon fill="#000000" stroke="#000000" points="142.21,-65.99 150.29,-72.85 148.26,-62.45 142.21,-65.99"/>
</g>
<!-- NFKD -->
<g id="node8" class="node">
<title>NFKD</title>
<g id="a_node8"><a xlink:href="/type/NFKD" xlink:title="NFKD">
<ellipse fill="none" stroke="#000000" cx="201.75" cy="-18" rx="36" ry="18"/>
<text text-anchor="middle" x="201.75" y="-14.3" font-family="FreeSans" font-size="14.00" fill="#000000">NFKD</text>
</a>
</g>
</g>
<!-- NFKD&#45;&gt;Uni -->
<g id="edge5" class="edge">
<title>NFKD&#45;&gt;Uni</title>
<path fill="none" stroke="#000000" d="M191.79,-35.59C186.65,-44.17 180.26,-54.81 174.55,-64.33"/>
<polygon fill="#000000" stroke="#000000" points="171.48,-62.64 169.34,-73.01 177.49,-66.24 171.48,-62.64"/>
</g>
<!-- NFC -->
<g id="node9" class="node">
<title>NFC</title>
<g id="a_node9"><a xlink:href="/type/NFC" xlink:title="NFC">
<ellipse fill="none" stroke="#000000" cx="284.75" cy="-18" rx="29.5" ry="18"/>
<text text-anchor="middle" x="284.75" y="-14.3" font-family="FreeSans" font-size="14.00" fill="#000000">NFC</text>
</a>
</g>
</g>
<!-- NFC&#45;&gt;Uni -->
<g id="edge6" class="edge">
<title>NFC&#45;&gt;Uni</title>
<path fill="none" stroke="#000000" d="M263.82,-30.72C243.3,-42.21 211.83,-59.83 188.86,-72.69"/>
<polygon fill="#000000" stroke="#000000" points="186.92,-69.77 179.91,-77.71 190.34,-75.88 186.92,-69.77"/>
</g>
</g>
</svg>
