<?xml version="1.0" encoding="UTF-8" standalone="no"?>
<!DOCTYPE svg PUBLIC "-//W3C//DTD SVG 1.1//EN"
 "http://www.w3.org/Graphics/SVG/1.1/DTD/svg11.dtd">
<!-- Generated by graphviz version 2.43.0 (0)
 -->
<!-- Title: perl6&#45;type&#45;graph Pages: 1 -->
<svg width="1813pt" height="1743pt"
 viewBox="0.00 0.00 1813.42 1743.15" xmlns="http://www.w3.org/2000/svg" xmlns:xlink="http://www.w3.org/1999/xlink">
<g id="graph0" class="graph" transform="scale(1 1) rotate(0) translate(4 1739.15)">
<title>perl6&#45;type&#45;graph</title>
<polygon fill="white" stroke="transparent" points="-4,4 -4,-1739.15 1809.42,-1739.15 1809.42,4 -4,4"/>
<!-- Metamodel::RoleContainer -->
<g id="node1" class="node">
<title>Metamodel::RoleContainer</title>
<g id="a_node1"><a xlink:href="/type/Metamodel::RoleContainer" xlink:title="Metamodel::RoleContainer">
<ellipse fill="none" stroke="#6666ff" cx="814.68" cy="-729.23" rx="115.88" ry="18"/>
<text text-anchor="middle" x="814.68" y="-725.53" font-family="FreeSans" font-size="14.00" fill="#6666ff">Metamodel::RoleContainer</text>
</a>
</g>
</g>
<!-- Mu -->
<g id="node2" class="node">
<title>Mu</title>
<g id="a_node2"><a xlink:href="/type/Mu" xlink:title="Mu">
<ellipse fill="none" stroke="#000000" cx="1778.42" cy="-985.49" rx="27" ry="18"/>
<text text-anchor="middle" x="1778.42" y="-981.79" font-family="FreeSans" font-size="14.00" fill="#000000">Mu</text>
</a>
</g>
</g>
<!-- Any -->
<g id="node3" class="node">
<title>Any</title>
<g id="a_node3"><a xlink:href="/type/Any" xlink:title="Any">
<ellipse fill="none" stroke="#000000" cx="1268.16" cy="-887.8" rx="27" ry="18"/>
<text text-anchor="middle" x="1268.16" y="-884.1" font-family="FreeSans" font-size="14.00" fill="#000000">Any</text>
</a>
</g>
</g>
<!-- Any&#45;&gt;Mu -->
<g id="edge1" class="edge">
<title>Any&#45;&gt;Mu</title>
<path fill="none" stroke="#000000" d="M1294.17,-892.78C1378.62,-908.95 1645.34,-960.01 1742.54,-978.62"/>
<polygon fill="#000000" stroke="#000000" points="1741.99,-982.07 1752.47,-980.52 1743.31,-975.2 1741.99,-982.07"/>
</g>
<!-- Metamodel::Naming -->
<g id="node4" class="node">
<title>Metamodel::Naming</title>
<g id="a_node4"><a xlink:href="/type/Metamodel::Naming" xlink:title="Metamodel::Naming">
<ellipse fill="none" stroke="#6666ff" cx="875.68" cy="-834.44" rx="90.18" ry="18"/>
<text text-anchor="middle" x="875.68" y="-830.74" font-family="FreeSans" font-size="14.00" fill="#6666ff">Metamodel::Naming</text>
</a>
</g>
</g>
<!-- Metamodel::Documenting -->
<g id="node5" class="node">
<title>Metamodel::Documenting</title>
<g id="a_node5"><a xlink:href="/type/Metamodel::Documenting" xlink:title="Metamodel::Documenting">
<ellipse fill="none" stroke="#6666ff" cx="1268.98" cy="-1095.35" rx="111.28" ry="18"/>
<text text-anchor="middle" x="1268.98" y="-1091.65" font-family="FreeSans" font-size="14.00" fill="#6666ff">Metamodel::Documenting</text>
</a>
</g>
</g>
<!-- Metamodel::Versioning -->
<g id="node6" class="node">
<title>Metamodel::Versioning</title>
<g id="a_node6"><a xlink:href="/type/Metamodel::Versioning" xlink:title="Metamodel::Versioning">
<ellipse fill="none" stroke="#6666ff" cx="472.81" cy="-554.11" rx="100.98" ry="18"/>
<text text-anchor="middle" x="472.81" y="-550.41" font-family="FreeSans" font-size="14.00" fill="#6666ff">Metamodel::Versioning</text>
</a>
</g>
</g>
<!-- Metamodel::Stashing -->
<g id="node7" class="node">
<title>Metamodel::Stashing</title>
<g id="a_node7"><a xlink:href="/type/Metamodel::Stashing" xlink:title="Metamodel::Stashing">
<ellipse fill="none" stroke="#6666ff" cx="1106.41" cy="-1139.53" rx="93.68" ry="18"/>
<text text-anchor="middle" x="1106.41" y="-1135.83" font-family="FreeSans" font-size="14.00" fill="#6666ff">Metamodel::Stashing</text>
</a>
</g>
</g>
<!-- Metamodel::AttributeContainer -->
<g id="node8" class="node">
<title>Metamodel::AttributeContainer</title>
<g id="a_node8"><a xlink:href="/type/Metamodel::AttributeContainer" xlink:title="Metamodel::AttributeContainer">
<ellipse fill="none" stroke="#6666ff" cx="1051.39" cy="-917.67" rx="129.98" ry="18"/>
<text text-anchor="middle" x="1051.39" y="-913.97" font-family="FreeSans" font-size="14.00" fill="#6666ff">Metamodel::AttributeContainer</text>
</a>
</g>
</g>
<!-- Metamodel::Finalization -->
<g id="node9" class="node">
<title>Metamodel::Finalization</title>
<g id="a_node9"><a xlink:href="/type/Metamodel::Finalization" xlink:title="Metamodel::Finalization">
<ellipse fill="none" stroke="#6666ff" cx="121.28" cy="-772.27" rx="103.98" ry="18"/>
<text text-anchor="middle" x="121.28" y="-768.57" font-family="FreeSans" font-size="14.00" fill="#6666ff">Metamodel::Finalization</text>
</a>
</g>
</g>
<!-- Metamodel::MethodContainer -->
<g id="node10" class="node">
<title>Metamodel::MethodContainer</title>
<g id="a_node10"><a xlink:href="/type/Metamodel::MethodContainer" xlink:title="Metamodel::MethodContainer">
<ellipse fill="none" stroke="#6666ff" cx="1101.44" cy="-797.57" rx="127.28" ry="18"/>
<text text-anchor="middle" x="1101.44" y="-793.87" font-family="FreeSans" font-size="14.00" fill="#6666ff">Metamodel::MethodContainer</text>
</a>
</g>
</g>
<!-- Metamodel::PrivateMethodContainer -->
<g id="node11" class="node">
<title>Metamodel::PrivateMethodContainer</title>
<g id="a_node11"><a xlink:href="/type/Metamodel::PrivateMethodContainer" xlink:title="Metamodel::PrivateMethodContainer">
<ellipse fill="none" stroke="#6666ff" cx="488.01" cy="-446.92" rx="154.87" ry="18"/>
<text text-anchor="middle" x="488.01" y="-443.22" font-family="FreeSans" font-size="14.00" fill="#6666ff">Metamodel::PrivateMethodContainer</text>
</a>
</g>
</g>
<!-- Metamodel::MultiMethodContainer -->
<g id="node12" class="node">
<title>Metamodel::MultiMethodContainer</title>
<g id="a_node12"><a xlink:href="/type/Metamodel::MultiMethodContainer" xlink:title="Metamodel::MultiMethodContainer">
<ellipse fill="none" stroke="#6666ff" cx="570.1" cy="-773.27" rx="146.47" ry="18"/>
<text text-anchor="middle" x="570.1" y="-769.57" font-family="FreeSans" font-size="14.00" fill="#6666ff">Metamodel::MultiMethodContainer</text>
</a>
</g>
</g>
<!-- Metamodel::MultipleInheritance -->
<g id="node13" class="node">
<title>Metamodel::MultipleInheritance</title>
<g id="a_node13"><a xlink:href="/type/Metamodel::MultipleInheritance" xlink:title="Metamodel::MultipleInheritance">
<ellipse fill="none" stroke="#6666ff" cx="711.62" cy="-402.88" rx="133.78" ry="18"/>
<text text-anchor="middle" x="711.62" y="-399.18" font-family="FreeSans" font-size="14.00" fill="#6666ff">Metamodel::MultipleInheritance</text>
</a>
</g>
</g>
<!-- Metamodel::DefaultParent -->
<g id="node14" class="node">
<title>Metamodel::DefaultParent</title>
<g id="a_node14"><a xlink:href="/type/Metamodel::DefaultParent" xlink:title="Metamodel::DefaultParent">
<ellipse fill="none" stroke="#6666ff" cx="966.83" cy="-1539.87" rx="113.18" ry="18"/>
<text text-anchor="middle" x="966.83" y="-1536.17" font-family="FreeSans" font-size="14.00" fill="#6666ff">Metamodel::DefaultParent</text>
</a>
</g>
</g>
<!-- Metamodel::C3MRO -->
<g id="node15" class="node">
<title>Metamodel::C3MRO</title>
<g id="a_node15"><a xlink:href="/type/Metamodel::C3MRO" xlink:title="Metamodel::C3MRO">
<ellipse fill="none" stroke="#6666ff" cx="93.6" cy="-1167.79" rx="92.08" ry="18"/>
<text text-anchor="middle" x="93.6" y="-1164.09" font-family="FreeSans" font-size="14.00" fill="#6666ff">Metamodel::C3MRO</text>
</a>
</g>
</g>
<!-- Metamodel::MROBasedMethodDispatch -->
<g id="node16" class="node">
<title>Metamodel::MROBasedMethodDispatch</title>
<g id="a_node16"><a xlink:href="/type/Metamodel::MROBasedMethodDispatch" xlink:title="Metamodel::MROBasedMethodDispatch">
<ellipse fill="none" stroke="#6666ff" cx="339.56" cy="-1261.46" rx="169.77" ry="18"/>
<text text-anchor="middle" x="339.56" y="-1257.76" font-family="FreeSans" font-size="14.00" fill="#6666ff">Metamodel::MROBasedMethodDispatch</text>
</a>
</g>
</g>
<!-- Metamodel::MROBasedTypeChecking -->
<g id="node17" class="node">
<title>Metamodel::MROBasedTypeChecking</title>
<g id="a_node17"><a xlink:href="/type/Metamodel::MROBasedTypeChecking" xlink:title="Metamodel::MROBasedTypeChecking">
<ellipse fill="none" stroke="#6666ff" cx="546.1" cy="-1474.67" rx="163.27" ry="18"/>
<text text-anchor="middle" x="546.1" y="-1470.97" font-family="FreeSans" font-size="14.00" fill="#6666ff">Metamodel::MROBasedTypeChecking</text>
</a>
</g>
</g>
<!-- Metamodel::Trusting -->
<g id="node18" class="node">
<title>Metamodel::Trusting</title>
<g id="a_node18"><a xlink:href="/type/Metamodel::Trusting" xlink:title="Metamodel::Trusting">
<ellipse fill="none" stroke="#6666ff" cx="91.64" cy="-961.74" rx="91.78" ry="18"/>
<text text-anchor="middle" x="91.64" y="-958.04" font-family="FreeSans" font-size="14.00" fill="#6666ff">Metamodel::Trusting</text>
</a>
</g>
</g>
<!-- Metamodel::BUILDPLAN -->
<g id="node19" class="node">
<title>Metamodel::BUILDPLAN</title>
<g id="a_node19"><a xlink:href="/type/Metamodel::BUILDPLAN" xlink:title="Metamodel::BUILDPLAN">
<ellipse fill="none" stroke="#6666ff" cx="312.6" cy="-1430.67" rx="109.68" ry="18"/>
<text text-anchor="middle" x="312.6" y="-1426.97" font-family="FreeSans" font-size="14.00" fill="#6666ff">Metamodel::BUILDPLAN</text>
</a>
</g>
</g>
<!-- Metamodel::Mixins -->
<g id="node20" class="node">
<title>Metamodel::Mixins</title>
<g id="a_node20"><a xlink:href="/type/Metamodel::Mixins" xlink:title="Metamodel::Mixins">
<ellipse fill="none" stroke="#6666ff" cx="797.16" cy="-1592.46" rx="85.29" ry="18"/>
<text text-anchor="middle" x="797.16" y="-1588.76" font-family="FreeSans" font-size="14.00" fill="#6666ff">Metamodel::Mixins</text>
</a>
</g>
</g>
<!-- Metamodel::BoolificationProtocol -->
<g id="node21" class="node">
<title>Metamodel::BoolificationProtocol</title>
<g id="a_node21"><a xlink:href="/type/Metamodel::BoolificationProtocol" xlink:title="Metamodel::BoolificationProtocol">
<ellipse fill="none" stroke="#6666ff" cx="564.73" cy="-1591.21" rx="139.18" ry="18"/>
<text text-anchor="middle" x="564.73" y="-1587.51" font-family="FreeSans" font-size="14.00" fill="#6666ff">Metamodel::BoolificationProtocol</text>
</a>
</g>
</g>
<!-- Metamodel::ClassHOW -->
<g id="node22" class="node">
<title>Metamodel::ClassHOW</title>
<g id="a_node22"><a xlink:href="/type/Metamodel::ClassHOW" xlink:title="Metamodel::ClassHOW">
<ellipse fill="none" stroke="#000000" cx="640.02" cy="-1051.37" rx="103.18" ry="18"/>
<text text-anchor="middle" x="640.02" y="-1047.67" font-family="FreeSans" font-size="14.00" fill="#000000">Metamodel::ClassHOW</text>
</a>
</g>
</g>
<!-- Metamodel::ClassHOW&#45;&gt;Metamodel::RoleContainer -->
<g id="edge15" class="edge">
<title>Metamodel::ClassHOW&#45;&gt;Metamodel::RoleContainer</title>
<path fill="none" stroke="#6666ff" d="M649.91,-1033.13C679.15,-979.2 765.31,-820.29 799.98,-756.34"/>
<polygon fill="#6666ff" stroke="#6666ff" points="803.21,-757.73 804.9,-747.27 797.06,-754.4 803.21,-757.73"/>
</g>
<!-- Metamodel::ClassHOW&#45;&gt;Any -->
<g id="edge2" class="edge">
<title>Metamodel::ClassHOW&#45;&gt;Any</title>
<path fill="none" stroke="#000000" d="M701.31,-1036.81C835.61,-1004.89 1143.96,-931.6 1143.96,-931.6 1143.96,-931.6 1197.57,-912.69 1234.35,-899.72"/>
<polygon fill="#000000" stroke="#000000" points="1235.95,-902.87 1244.22,-896.24 1233.62,-896.27 1235.95,-902.87"/>
</g>
<!-- Metamodel::ClassHOW&#45;&gt;Metamodel::Naming -->
<g id="edge6" class="edge">
<title>Metamodel::ClassHOW&#45;&gt;Metamodel::Naming</title>
<path fill="none" stroke="#6666ff" d="M659.31,-1033.62C701.27,-994.99 800.95,-903.24 848.94,-859.06"/>
<polygon fill="#6666ff" stroke="#6666ff" points="851.47,-861.49 856.46,-852.14 846.73,-856.34 851.47,-861.49"/>
</g>
<!-- Metamodel::ClassHOW&#45;&gt;Metamodel::Documenting -->
<g id="edge7" class="edge">
<title>Metamodel::ClassHOW&#45;&gt;Metamodel::Documenting</title>
<path fill="none" stroke="#6666ff" d="M736.23,-1058.1C849.33,-1066.01 1036.76,-1079.11 1156.48,-1087.48"/>
<polygon fill="#6666ff" stroke="#6666ff" points="1156.56,-1091 1166.78,-1088.2 1157.05,-1084.01 1156.56,-1091"/>
</g>
<!-- Metamodel::ClassHOW&#45;&gt;Metamodel::Versioning -->
<g id="edge8" class="edge">
<title>Metamodel::ClassHOW&#45;&gt;Metamodel::Versioning</title>
<path fill="none" stroke="#6666ff" d="M625.73,-1033.12C577.29,-971.22 422.26,-773.13 422.26,-773.13 422.26,-773.13 452.67,-641.35 466.32,-582.23"/>
<polygon fill="#6666ff" stroke="#6666ff" points="469.75,-582.94 468.58,-572.41 462.92,-581.36 469.75,-582.94"/>
</g>
<!-- Metamodel::ClassHOW&#45;&gt;Metamodel::Stashing -->
<g id="edge9" class="edge">
<title>Metamodel::ClassHOW&#45;&gt;Metamodel::Stashing</title>
<path fill="none" stroke="#6666ff" d="M710.1,-1064.62C795.92,-1080.84 940.8,-1108.23 1029.59,-1125.01"/>
<polygon fill="#6666ff" stroke="#6666ff" points="1029.12,-1128.49 1039.59,-1126.9 1030.42,-1121.61 1029.12,-1128.49"/>
</g>
<!-- Metamodel::ClassHOW&#45;&gt;Metamodel::AttributeContainer -->
<g id="edge10" class="edge">
<title>Metamodel::ClassHOW&#45;&gt;Metamodel::AttributeContainer</title>
<path fill="none" stroke="#6666ff" d="M689.23,-1035.38C764.65,-1010.87 908.65,-964.06 990.52,-937.45"/>
<polygon fill="#6666ff" stroke="#6666ff" points="991.76,-940.73 1000.19,-934.31 989.59,-934.07 991.76,-940.73"/>
</g>
<!-- Metamodel::ClassHOW&#45;&gt;Metamodel::Finalization -->
<g id="edge11" class="edge">
<title>Metamodel::ClassHOW&#45;&gt;Metamodel::Finalization</title>
<path fill="none" stroke="#6666ff" d="M607.96,-1034.12C517.89,-985.66 262.59,-848.3 162.38,-794.38"/>
<polygon fill="#6666ff" stroke="#6666ff" points="163.92,-791.24 153.46,-789.58 160.61,-797.4 163.92,-791.24"/>
</g>
<!-- Metamodel::ClassHOW&#45;&gt;Metamodel::MethodContainer -->
<g id="edge12" class="edge">
<title>Metamodel::ClassHOW&#45;&gt;Metamodel::MethodContainer</title>
<path fill="none" stroke="#6666ff" d="M671.37,-1034.13C752.66,-989.42 970.16,-869.78 1060.86,-819.89"/>
<polygon fill="#6666ff" stroke="#6666ff" points="1062.67,-822.89 1069.74,-815 1059.29,-816.76 1062.67,-822.89"/>
</g>
<!-- Metamodel::ClassHOW&#45;&gt;Metamodel::PrivateMethodContainer -->
<g id="edge13" class="edge">
<title>Metamodel::ClassHOW&#45;&gt;Metamodel::PrivateMethodContainer</title>
<path fill="none" stroke="#6666ff" d="M645.13,-1033.14C662.47,-971.3 717.93,-773.41 717.93,-773.41 717.93,-773.41 575.14,-554.24 575.14,-554.24 575.14,-554.24 535.12,-504.94 509.33,-473.17"/>
<polygon fill="#6666ff" stroke="#6666ff" points="511.81,-470.68 502.79,-465.12 506.38,-475.09 511.81,-470.68"/>
</g>
<!-- Metamodel::ClassHOW&#45;&gt;Metamodel::MultiMethodContainer -->
<g id="edge14" class="edge">
<title>Metamodel::ClassHOW&#45;&gt;Metamodel::MultiMethodContainer</title>
<path fill="none" stroke="#6666ff" d="M635.43,-1033.13C623.51,-985.69 591.46,-858.23 577.16,-801.35"/>
<polygon fill="#6666ff" stroke="#6666ff" points="580.53,-800.43 574.7,-791.58 573.75,-802.14 580.53,-800.43"/>
</g>
<!-- Metamodel::ClassHOW&#45;&gt;Metamodel::MultipleInheritance -->
<g id="edge16" class="edge">
<title>Metamodel::ClassHOW&#45;&gt;Metamodel::MultipleInheritance</title>
<path fill="none" stroke="#6666ff" d="M645.13,-1033.14C662.47,-971.3 717.93,-773.41 717.93,-773.41 717.93,-773.41 697.39,-729.14 697.39,-729.14 697.39,-729.14 706.93,-510.35 710.39,-431.1"/>
<polygon fill="#6666ff" stroke="#6666ff" points="713.9,-431.03 710.83,-420.88 706.9,-430.72 713.9,-431.03"/>
</g>
<!-- Metamodel::ClassHOW&#45;&gt;Metamodel::DefaultParent -->
<g id="edge17" class="edge">
<title>Metamodel::ClassHOW&#45;&gt;Metamodel::DefaultParent</title>
<path fill="none" stroke="#6666ff" d="M650.73,-1069.61C681.12,-1121.33 765.67,-1265.25 765.67,-1265.25 765.67,-1265.25 897.37,-1445.05 947.64,-1513.68"/>
<polygon fill="#6666ff" stroke="#6666ff" points="944.89,-1515.85 953.63,-1521.85 950.54,-1511.72 944.89,-1515.85"/>
</g>
<!-- Metamodel::ClassHOW&#45;&gt;Metamodel::C3MRO -->
<g id="edge18" class="edge">
<title>Metamodel::ClassHOW&#45;&gt;Metamodel::C3MRO</title>
<path fill="none" stroke="#6666ff" d="M574.38,-1065.36C471.5,-1087.28 273.02,-1129.56 166.08,-1152.35"/>
<polygon fill="#6666ff" stroke="#6666ff" points="165.07,-1148.98 156.02,-1154.49 166.53,-1155.83 165.07,-1148.98"/>
</g>
<!-- Metamodel::ClassHOW&#45;&gt;Metamodel::MROBasedMethodDispatch -->
<g id="edge19" class="edge">
<title>Metamodel::ClassHOW&#45;&gt;Metamodel::MROBasedMethodDispatch</title>
<path fill="none" stroke="#6666ff" d="M614.92,-1068.92C561.15,-1106.52 434.78,-1194.88 373.74,-1237.56"/>
<polygon fill="#6666ff" stroke="#6666ff" points="371.41,-1234.91 365.22,-1243.51 375.42,-1240.65 371.41,-1234.91"/>
</g>
<!-- Metamodel::ClassHOW&#45;&gt;Metamodel::MROBasedTypeChecking -->
<g id="edge20" class="edge">
<title>Metamodel::ClassHOW&#45;&gt;Metamodel::MROBasedTypeChecking</title>
<path fill="none" stroke="#6666ff" d="M635.99,-1069.56C621.23,-1136.05 570.17,-1366.2 552.32,-1446.65"/>
<polygon fill="#6666ff" stroke="#6666ff" points="548.87,-1446.03 550.12,-1456.55 555.7,-1447.54 548.87,-1446.03"/>
</g>
<!-- Metamodel::ClassHOW&#45;&gt;Metamodel::Trusting -->
<g id="edge21" class="edge">
<title>Metamodel::ClassHOW&#45;&gt;Metamodel::Trusting</title>
<path fill="none" stroke="#6666ff" d="M564.63,-1039.05C461.68,-1022.22 277.86,-992.18 172.25,-974.92"/>
<polygon fill="#6666ff" stroke="#6666ff" points="172.71,-971.45 162.28,-973.29 171.59,-978.35 172.71,-971.45"/>
</g>
<!-- Metamodel::ClassHOW&#45;&gt;Metamodel::BUILDPLAN -->
<g id="edge22" class="edge">
<title>Metamodel::ClassHOW&#45;&gt;Metamodel::BUILDPLAN</title>
<path fill="none" stroke="#6666ff" d="M629,-1069.29C597.75,-1120.11 510.79,-1261.53 510.79,-1261.53 510.79,-1261.53 395.9,-1359.58 341.07,-1406.37"/>
<polygon fill="#6666ff" stroke="#6666ff" points="338.77,-1403.73 333.43,-1412.88 343.31,-1409.06 338.77,-1403.73"/>
</g>
<!-- Metamodel::ClassHOW&#45;&gt;Metamodel::Mixins -->
<g id="edge23" class="edge">
<title>Metamodel::ClassHOW&#45;&gt;Metamodel::Mixins</title>
<path fill="none" stroke="#6666ff" d="M645.25,-1069.38C668.32,-1148.82 761.1,-1468.31 789.11,-1564.76"/>
<polygon fill="#6666ff" stroke="#6666ff" points="785.76,-1565.76 791.91,-1574.39 792.48,-1563.81 785.76,-1565.76"/>
</g>
<!-- Metamodel::ClassHOW&#45;&gt;Metamodel::BoolificationProtocol -->
<g id="edge24" class="edge">
<title>Metamodel::ClassHOW&#45;&gt;Metamodel::BoolificationProtocol</title>
<path fill="none" stroke="#6666ff" d="M643.06,-1069.57C656.62,-1150.61 710.83,-1474.77 710.83,-1474.77 710.83,-1474.77 637.92,-1532.88 595.11,-1567"/>
<polygon fill="#6666ff" stroke="#6666ff" points="592.88,-1564.3 587.24,-1573.27 597.24,-1569.78 592.88,-1564.3"/>
</g>
<!-- Metamodel::BaseType -->
<g id="node23" class="node">
<title>Metamodel::BaseType</title>
<g id="a_node23"><a xlink:href="/type/Metamodel::BaseType" xlink:title="Metamodel::BaseType">
<ellipse fill="none" stroke="#6666ff" cx="1277.22" cy="-1717.15" rx="99.38" ry="18"/>
<text text-anchor="middle" x="1277.22" y="-1713.45" font-family="FreeSans" font-size="14.00" fill="#6666ff">Metamodel::BaseType</text>
</a>
</g>
</g>
<!-- Metamodel::EnumHOW -->
<g id="node24" class="node">
<title>Metamodel::EnumHOW</title>
<g id="a_node24"><a xlink:href="/type/Metamodel::EnumHOW" xlink:title="Metamodel::EnumHOW">
<ellipse fill="none" stroke="#000000" cx="871.91" cy="-1265.37" rx="104.78" ry="18"/>
<text text-anchor="middle" x="871.91" y="-1261.67" font-family="FreeSans" font-size="14.00" fill="#000000">Metamodel::EnumHOW</text>
</a>
</g>
</g>
<!-- Metamodel::EnumHOW&#45;&gt;Metamodel::RoleContainer -->
<g id="edge30" class="edge">
<title>Metamodel::EnumHOW&#45;&gt;Metamodel::RoleContainer</title>
<path fill="none" stroke="#6666ff" d="M868.18,-1247.12C851.4,-1165.09 783.74,-834.39 783.74,-834.39 783.74,-834.39 797.21,-788.61 806.37,-757.47"/>
<polygon fill="#6666ff" stroke="#6666ff" points="809.83,-758.13 809.29,-747.55 803.11,-756.15 809.83,-758.13"/>
</g>
<!-- Metamodel::EnumHOW&#45;&gt;Any -->
<g id="edge3" class="edge">
<title>Metamodel::EnumHOW&#45;&gt;Any</title>
<path fill="none" stroke="#000000" d="M890.75,-1247.41C956.07,-1185.18 1172.64,-978.82 1244.65,-910.2"/>
<polygon fill="#000000" stroke="#000000" points="1247.49,-912.33 1252.32,-902.9 1242.66,-907.26 1247.49,-912.33"/>
</g>
<!-- Metamodel::EnumHOW&#45;&gt;Metamodel::Naming -->
<g id="edge25" class="edge">
<title>Metamodel::EnumHOW&#45;&gt;Metamodel::Naming</title>
<path fill="none" stroke="#6666ff" d="M872.07,-1247.13C872.66,-1179.67 874.72,-944.03 875.44,-862.47"/>
<polygon fill="#6666ff" stroke="#6666ff" points="878.94,-862.48 875.52,-852.45 871.94,-862.42 878.94,-862.48"/>
</g>
<!-- Metamodel::EnumHOW&#45;&gt;Metamodel::Stashing -->
<g id="edge26" class="edge">
<title>Metamodel::EnumHOW&#45;&gt;Metamodel::Stashing</title>
<path fill="none" stroke="#6666ff" d="M904.02,-1248.13C946.04,-1225.59 1019.69,-1186.07 1065.61,-1161.43"/>
<polygon fill="#6666ff" stroke="#6666ff" points="1067.53,-1164.37 1074.68,-1156.56 1064.22,-1158.2 1067.53,-1164.37"/>
</g>
<!-- Metamodel::EnumHOW&#45;&gt;Metamodel::AttributeContainer -->
<g id="edge27" class="edge">
<title>Metamodel::EnumHOW&#45;&gt;Metamodel::AttributeContainer</title>
<path fill="none" stroke="#6666ff" d="M881.31,-1247.16C910.87,-1189.89 1002.09,-1013.18 1037.31,-944.95"/>
<polygon fill="#6666ff" stroke="#6666ff" points="1040.61,-946.18 1042.09,-935.69 1034.39,-942.97 1040.61,-946.18"/>
</g>
<!-- Metamodel::EnumHOW&#45;&gt;Metamodel::MethodContainer -->
<g id="edge28" class="edge">
<title>Metamodel::EnumHOW&#45;&gt;Metamodel::MethodContainer</title>
<path fill="none" stroke="#6666ff" d="M874.42,-1247.16C884.27,-1175.59 919.8,-917.57 919.8,-917.57 919.8,-917.57 1013.4,-855.73 1066.22,-820.84"/>
<polygon fill="#6666ff" stroke="#6666ff" points="1068.23,-823.71 1074.64,-815.27 1064.37,-817.87 1068.23,-823.71"/>
</g>
<!-- Metamodel::EnumHOW&#45;&gt;Metamodel::MultiMethodContainer -->
<g id="edge29" class="edge">
<title>Metamodel::EnumHOW&#45;&gt;Metamodel::MultiMethodContainer</title>
<path fill="none" stroke="#6666ff" d="M861.09,-1247.13C830.39,-1195.41 744.96,-1051.49 744.96,-1051.49 744.96,-1051.49 630.94,-870.08 587.04,-800.23"/>
<polygon fill="#6666ff" stroke="#6666ff" points="589.85,-798.13 581.57,-791.52 583.93,-801.85 589.85,-798.13"/>
</g>
<!-- Metamodel::EnumHOW&#45;&gt;Metamodel::MROBasedMethodDispatch -->
<g id="edge32" class="edge">
<title>Metamodel::EnumHOW&#45;&gt;Metamodel::MROBasedMethodDispatch</title>
<path fill="none" stroke="#6666ff" d="M767.05,-1264.6C696.46,-1264.08 601.57,-1263.38 519.13,-1262.77"/>
<polygon fill="#6666ff" stroke="#6666ff" points="518.9,-1259.27 508.88,-1262.7 518.85,-1266.27 518.9,-1259.27"/>
</g>
<!-- Metamodel::EnumHOW&#45;&gt;Metamodel::MROBasedTypeChecking -->
<g id="edge33" class="edge">
<title>Metamodel::EnumHOW&#45;&gt;Metamodel::MROBasedTypeChecking</title>
<path fill="none" stroke="#6666ff" d="M844.69,-1282.85C786.14,-1320.46 648.23,-1409.06 582.35,-1451.38"/>
<polygon fill="#6666ff" stroke="#6666ff" points="580.45,-1448.44 573.93,-1456.79 584.24,-1454.33 580.45,-1448.44"/>
</g>
<!-- Metamodel::EnumHOW&#45;&gt;Metamodel::BUILDPLAN -->
<g id="edge34" class="edge">
<title>Metamodel::EnumHOW&#45;&gt;Metamodel::BUILDPLAN</title>
<path fill="none" stroke="#6666ff" d="M819.04,-1280.99C715.68,-1311.54 487.26,-1379.05 375.99,-1411.93"/>
<polygon fill="#6666ff" stroke="#6666ff" points="374.84,-1408.62 366.24,-1414.81 376.83,-1415.33 374.84,-1408.62"/>
</g>
<!-- Metamodel::EnumHOW&#45;&gt;Metamodel::Mixins -->
<g id="edge36" class="edge">
<title>Metamodel::EnumHOW&#45;&gt;Metamodel::Mixins</title>
<path fill="none" stroke="#6666ff" d="M867.78,-1283.42C855.4,-1337.59 818.5,-1499.05 803.55,-1564.47"/>
<polygon fill="#6666ff" stroke="#6666ff" points="800.08,-1563.94 801.27,-1574.47 806.91,-1565.5 800.08,-1563.94"/>
</g>
<!-- Metamodel::EnumHOW&#45;&gt;Metamodel::BoolificationProtocol -->
<g id="edge35" class="edge">
<title>Metamodel::EnumHOW&#45;&gt;Metamodel::BoolificationProtocol</title>
<path fill="none" stroke="#6666ff" d="M858.18,-1283.22C819.22,-1333.86 710.83,-1474.77 710.83,-1474.77 710.83,-1474.77 637.92,-1532.88 595.11,-1567"/>
<polygon fill="#6666ff" stroke="#6666ff" points="592.88,-1564.3 587.24,-1573.27 597.24,-1569.78 592.88,-1564.3"/>
</g>
<!-- Metamodel::EnumHOW&#45;&gt;Metamodel::BaseType -->
<g id="edge31" class="edge">
<title>Metamodel::EnumHOW&#45;&gt;Metamodel::BaseType</title>
<path fill="none" stroke="#6666ff" d="M888.05,-1283.36C951.03,-1353.56 1180.41,-1609.24 1254.19,-1691.48"/>
<polygon fill="#6666ff" stroke="#6666ff" points="1251.75,-1694 1261.03,-1699.1 1256.96,-1689.32 1251.75,-1694"/>
</g>
<!-- Metamodel::TypePretense -->
<g id="node25" class="node">
<title>Metamodel::TypePretense</title>
<g id="a_node25"><a xlink:href="/type/Metamodel::TypePretense" xlink:title="Metamodel::TypePretense">
<ellipse fill="none" stroke="#6666ff" cx="1542.72" cy="-245.23" rx="114.28" ry="18"/>
<text text-anchor="middle" x="1542.72" y="-241.53" font-family="FreeSans" font-size="14.00" fill="#6666ff">Metamodel::TypePretense</text>
</a>
</g>
</g>
<!-- Metamodel::RolePunning -->
<g id="node26" class="node">
<title>Metamodel::RolePunning</title>
<g id="a_node26"><a xlink:href="/type/Metamodel::RolePunning" xlink:title="Metamodel::RolePunning">
<ellipse fill="none" stroke="#6666ff" cx="1223" cy="-18" rx="109.68" ry="18"/>
<text text-anchor="middle" x="1223" y="-14.3" font-family="FreeSans" font-size="14.00" fill="#6666ff">Metamodel::RolePunning</text>
</a>
</g>
</g>
<!-- Metamodel::ParametricRoleHOW -->
<g id="node27" class="node">
<title>Metamodel::ParametricRoleHOW</title>
<g id="a_node27"><a xlink:href="/type/Metamodel::ParametricRoleHOW" xlink:title="Metamodel::ParametricRoleHOW">
<ellipse fill="none" stroke="#000000" cx="1117.45" cy="-516.4" rx="141.88" ry="18"/>
<text text-anchor="middle" x="1117.45" y="-512.7" font-family="FreeSans" font-size="14.00" fill="#000000">Metamodel::ParametricRoleHOW</text>
</a>
</g>
</g>
<!-- Metamodel::ParametricRoleHOW&#45;&gt;Metamodel::RoleContainer -->
<g id="edge44" class="edge">
<title>Metamodel::ParametricRoleHOW&#45;&gt;Metamodel::RoleContainer</title>
<path fill="none" stroke="#6666ff" d="M1092.16,-534.18C1037.7,-572.46 909.35,-662.68 848.21,-705.66"/>
<polygon fill="#6666ff" stroke="#6666ff" points="845.86,-703.04 839.69,-711.65 849.88,-708.76 845.86,-703.04"/>
</g>
<!-- Metamodel::ParametricRoleHOW&#45;&gt;Any -->
<g id="edge4" class="edge">
<title>Metamodel::ParametricRoleHOW&#45;&gt;Any</title>
<path fill="none" stroke="#000000" d="M1124.82,-534.56C1149.32,-594.93 1228.1,-789.07 1257.22,-860.82"/>
<polygon fill="#000000" stroke="#000000" points="1253.98,-862.15 1260.98,-870.1 1260.47,-859.52 1253.98,-862.15"/>
</g>
<!-- Metamodel::ParametricRoleHOW&#45;&gt;Metamodel::Naming -->
<g id="edge37" class="edge">
<title>Metamodel::ParametricRoleHOW&#45;&gt;Metamodel::Naming</title>
<path fill="none" stroke="#6666ff" d="M1103.76,-534.41C1063.11,-587.87 943.04,-745.83 895.44,-808.45"/>
<polygon fill="#6666ff" stroke="#6666ff" points="892.49,-806.55 889.22,-816.63 898.06,-810.79 892.49,-806.55"/>
</g>
<!-- Metamodel::ParametricRoleHOW&#45;&gt;Metamodel::Documenting -->
<g id="edge38" class="edge">
<title>Metamodel::ParametricRoleHOW&#45;&gt;Metamodel::Documenting</title>
<path fill="none" stroke="#6666ff" d="M1124.69,-534.41C1149.62,-596.47 1230.43,-797.59 1230.43,-797.59 1230.43,-797.59 1239.57,-887.62 1239.57,-887.62 1239.57,-887.62 1256.95,-1010.4 1264.99,-1067.17"/>
<polygon fill="#6666ff" stroke="#6666ff" points="1261.55,-1067.87 1266.42,-1077.28 1268.48,-1066.88 1261.55,-1067.87"/>
</g>
<!-- Metamodel::ParametricRoleHOW&#45;&gt;Metamodel::Versioning -->
<g id="edge39" class="edge">
<title>Metamodel::ParametricRoleHOW&#45;&gt;Metamodel::Versioning</title>
<path fill="none" stroke="#6666ff" d="M988.54,-523.94C868.35,-530.97 691.21,-541.33 578.96,-547.9"/>
<polygon fill="#6666ff" stroke="#6666ff" points="578.75,-544.4 568.98,-548.48 579.16,-551.39 578.75,-544.4"/>
</g>
<!-- Metamodel::ParametricRoleHOW&#45;&gt;Metamodel::Stashing -->
<g id="edge46" class="edge">
<title>Metamodel::ParametricRoleHOW&#45;&gt;Metamodel::Stashing</title>
<path fill="none" stroke="#6666ff" d="M1124.69,-534.41C1149.62,-596.47 1230.43,-797.59 1230.43,-797.59 1230.43,-797.59 1146.2,-1029.83 1116.57,-1111.52"/>
<polygon fill="#6666ff" stroke="#6666ff" points="1113.2,-1110.56 1113.08,-1121.15 1119.78,-1112.94 1113.2,-1110.56"/>
</g>
<!-- Metamodel::ParametricRoleHOW&#45;&gt;Metamodel::AttributeContainer -->
<g id="edge43" class="edge">
<title>Metamodel::ParametricRoleHOW&#45;&gt;Metamodel::AttributeContainer</title>
<path fill="none" stroke="#6666ff" d="M1108.16,-534.41C1076.16,-596.46 972.45,-797.55 972.45,-797.55 972.45,-797.55 1010.78,-855.87 1034.02,-891.24"/>
<polygon fill="#6666ff" stroke="#6666ff" points="1031.16,-893.25 1039.57,-899.68 1037.01,-889.41 1031.16,-893.25"/>
</g>
<!-- Metamodel::ParametricRoleHOW&#45;&gt;Metamodel::MethodContainer -->
<g id="edge40" class="edge">
<title>Metamodel::ParametricRoleHOW&#45;&gt;Metamodel::MethodContainer</title>
<path fill="none" stroke="#6666ff" d="M1116.42,-534.41C1113.71,-582.01 1106.35,-711.4 1103.06,-769.11"/>
<polygon fill="#6666ff" stroke="#6666ff" points="1099.55,-769.15 1102.48,-779.34 1106.54,-769.55 1099.55,-769.15"/>
</g>
<!-- Metamodel::ParametricRoleHOW&#45;&gt;Metamodel::PrivateMethodContainer -->
<g id="edge41" class="edge">
<title>Metamodel::ParametricRoleHOW&#45;&gt;Metamodel::PrivateMethodContainer</title>
<path fill="none" stroke="#6666ff" d="M1010.32,-504.57C899.49,-492.34 726.68,-473.26 610.5,-460.44"/>
<polygon fill="#6666ff" stroke="#6666ff" points="610.82,-456.95 600.49,-459.33 610.05,-463.91 610.82,-456.95"/>
</g>
<!-- Metamodel::ParametricRoleHOW&#45;&gt;Metamodel::MultiMethodContainer -->
<g id="edge42" class="edge">
<title>Metamodel::ParametricRoleHOW&#45;&gt;Metamodel::MultiMethodContainer</title>
<path fill="none" stroke="#6666ff" d="M1080.26,-533.85C983.33,-579.34 723.11,-701.46 616.56,-751.46"/>
<polygon fill="#6666ff" stroke="#6666ff" points="614.9,-748.37 607.34,-755.79 617.88,-754.71 614.9,-748.37"/>
</g>
<!-- Metamodel::ParametricRoleHOW&#45;&gt;Metamodel::MultipleInheritance -->
<g id="edge45" class="edge">
<title>Metamodel::ParametricRoleHOW&#45;&gt;Metamodel::MultipleInheritance</title>
<path fill="none" stroke="#6666ff" d="M1058.44,-499.89C984.33,-479.16 857.48,-443.68 779.45,-421.85"/>
<polygon fill="#6666ff" stroke="#6666ff" points="780.29,-418.45 769.71,-419.13 778.4,-425.19 780.29,-418.45"/>
</g>
<!-- Metamodel::ParametricRoleHOW&#45;&gt;Metamodel::TypePretense -->
<g id="edge47" class="edge">
<title>Metamodel::ParametricRoleHOW&#45;&gt;Metamodel::TypePretense</title>
<path fill="none" stroke="#6666ff" d="M1145.35,-498.6C1219.88,-451.08 1423.55,-321.21 1506.68,-268.21"/>
<polygon fill="#6666ff" stroke="#6666ff" points="1508.72,-271.06 1515.27,-262.74 1504.96,-265.16 1508.72,-271.06"/>
</g>
<!-- Metamodel::ParametricRoleHOW&#45;&gt;Metamodel::RolePunning -->
<g id="edge48" class="edge">
<title>Metamodel::ParametricRoleHOW&#45;&gt;Metamodel::RolePunning</title>
<path fill="none" stroke="#6666ff" d="M1121.27,-498.36C1137.12,-423.49 1197.83,-136.83 1217.1,-45.87"/>
<polygon fill="#6666ff" stroke="#6666ff" points="1220.54,-46.52 1219.18,-36.01 1213.69,-45.07 1220.54,-46.52"/>
</g>
<!-- Metamodel::ConcreteRoleHOW -->
<g id="node28" class="node">
<title>Metamodel::ConcreteRoleHOW</title>
<g id="a_node28"><a xlink:href="/type/Metamodel::ConcreteRoleHOW" xlink:title="Metamodel::ConcreteRoleHOW">
<ellipse fill="none" stroke="#000000" cx="988.94" cy="-413.37" rx="135.38" ry="18"/>
<text text-anchor="middle" x="988.94" y="-409.67" font-family="FreeSans" font-size="14.00" fill="#000000">Metamodel::ConcreteRoleHOW</text>
</a>
</g>
</g>
<!-- Metamodel::ConcreteRoleHOW&#45;&gt;Metamodel::RoleContainer -->
<g id="edge55" class="edge">
<title>Metamodel::ConcreteRoleHOW&#45;&gt;Metamodel::RoleContainer</title>
<path fill="none" stroke="#6666ff" d="M978.81,-431.72C949.45,-484.95 864.14,-639.59 829.53,-702.32"/>
<polygon fill="#6666ff" stroke="#6666ff" points="826.38,-700.78 824.61,-711.23 832.51,-704.16 826.38,-700.78"/>
</g>
<!-- Metamodel::ConcreteRoleHOW&#45;&gt;Any -->
<g id="edge5" class="edge">
<title>Metamodel::ConcreteRoleHOW&#45;&gt;Any</title>
<path fill="none" stroke="#000000" d="M986.29,-431.78C982.04,-461.4 974.16,-516.35 974.16,-516.35 974.16,-516.35 1230.43,-797.59 1230.43,-797.59 1230.43,-797.59 1245.89,-834.55 1257.02,-861.16"/>
<polygon fill="#000000" stroke="#000000" points="1253.8,-862.53 1260.89,-870.41 1260.26,-859.83 1253.8,-862.53"/>
</g>
<!-- Metamodel::ConcreteRoleHOW&#45;&gt;Metamodel::Naming -->
<g id="edge49" class="edge">
<title>Metamodel::ConcreteRoleHOW&#45;&gt;Metamodel::Naming</title>
<path fill="none" stroke="#6666ff" d="M985.63,-431.73C973.47,-499.16 931.97,-729.32 931.97,-729.32 931.97,-729.32 907.04,-775.89 890.36,-807.03"/>
<polygon fill="#6666ff" stroke="#6666ff" points="887.12,-805.67 885.49,-816.13 893.29,-808.97 887.12,-805.67"/>
</g>
<!-- Metamodel::ConcreteRoleHOW&#45;&gt;Metamodel::Versioning -->
<g id="edge50" class="edge">
<title>Metamodel::ConcreteRoleHOW&#45;&gt;Metamodel::Versioning</title>
<path fill="none" stroke="#6666ff" d="M929.48,-429.59C832,-456.17 638.95,-508.81 537.91,-536.36"/>
<polygon fill="#6666ff" stroke="#6666ff" points="536.86,-533.02 528.13,-539.02 538.7,-539.77 536.86,-533.02"/>
</g>
<!-- Metamodel::ConcreteRoleHOW&#45;&gt;Metamodel::AttributeContainer -->
<g id="edge54" class="edge">
<title>Metamodel::ConcreteRoleHOW&#45;&gt;Metamodel::AttributeContainer</title>
<path fill="none" stroke="#6666ff" d="M986.29,-431.78C982.04,-461.4 974.16,-516.35 974.16,-516.35 974.16,-516.35 972.45,-797.55 972.45,-797.55 972.45,-797.55 1010.78,-855.87 1034.02,-891.24"/>
<polygon fill="#6666ff" stroke="#6666ff" points="1031.16,-893.25 1039.57,-899.68 1037.01,-889.41 1031.16,-893.25"/>
</g>
<!-- Metamodel::ConcreteRoleHOW&#45;&gt;Metamodel::MethodContainer -->
<g id="edge52" class="edge">
<title>Metamodel::ConcreteRoleHOW&#45;&gt;Metamodel::MethodContainer</title>
<path fill="none" stroke="#6666ff" d="M986.29,-431.78C982.04,-461.4 974.16,-516.35 974.16,-516.35 974.16,-516.35 1057.2,-699.82 1089.13,-770.37"/>
<polygon fill="#6666ff" stroke="#6666ff" points="1085.98,-771.88 1093.29,-779.55 1092.35,-769 1085.98,-771.88"/>
</g>
<!-- Metamodel::ConcreteRoleHOW&#45;&gt;Metamodel::PrivateMethodContainer -->
<g id="edge51" class="edge">
<title>Metamodel::ConcreteRoleHOW&#45;&gt;Metamodel::PrivateMethodContainer</title>
<path fill="none" stroke="#6666ff" d="M868,-421.47C797.21,-426.21 707.37,-432.23 632.83,-437.22"/>
<polygon fill="#6666ff" stroke="#6666ff" points="632.16,-433.76 622.41,-437.92 632.63,-440.74 632.16,-433.76"/>
</g>
<!-- Metamodel::ConcreteRoleHOW&#45;&gt;Metamodel::MultiMethodContainer -->
<g id="edge53" class="edge">
<title>Metamodel::ConcreteRoleHOW&#45;&gt;Metamodel::MultiMethodContainer</title>
<path fill="none" stroke="#6666ff" d="M968.17,-431.22C899.23,-490.46 677.87,-680.66 598.64,-748.74"/>
<polygon fill="#6666ff" stroke="#6666ff" points="596.3,-746.14 590.99,-755.31 600.86,-751.45 596.3,-746.14"/>
</g>
<!-- Metamodel::ConcreteRoleHOW&#45;&gt;Metamodel::MultipleInheritance -->
<g id="edge56" class="edge">
<title>Metamodel::ConcreteRoleHOW&#45;&gt;Metamodel::MultipleInheritance</title>
<path fill="none" stroke="#6666ff" d="M858.8,-408.45C856.16,-408.35 853.5,-408.25 850.85,-408.15"/>
<polygon fill="#6666ff" stroke="#6666ff" points="850.76,-404.64 840.63,-407.76 850.49,-411.64 850.76,-404.64"/>
</g>
</g>
</svg>
