<?xml version="1.0" encoding="UTF-8" standalone="no"?>
<!DOCTYPE svg PUBLIC "-//W3C//DTD SVG 1.1//EN"
 "http://www.w3.org/Graphics/SVG/1.1/DTD/svg11.dtd">
<!-- Generated by graphviz version 2.43.0 (0)
 -->
<!-- Title: perl6&#45;type&#45;graph Pages: 1 -->
<svg width="1886pt" height="1608pt"
 viewBox="0.00 0.00 1886.44 1607.78" xmlns="http://www.w3.org/2000/svg" xmlns:xlink="http://www.w3.org/1999/xlink">
<g id="graph0" class="graph" transform="scale(1 1) rotate(0) translate(4 1603.78)">
<title>perl6&#45;type&#45;graph</title>
<polygon fill="white" stroke="transparent" points="-4,4 -4,-1603.78 1882.44,-1603.78 1882.44,4 -4,4"/>
<!-- Metamodel::BUILDPLAN -->
<g id="node1" class="node">
<title>Metamodel::BUILDPLAN</title>
<g id="a_node1"><a xlink:href="/type/Metamodel::BUILDPLAN" xlink:title="Metamodel::BUILDPLAN">
<ellipse fill="none" stroke="#6666ff" cx="656.04" cy="-644.79" rx="109.68" ry="18"/>
<text text-anchor="middle" x="656.04" y="-641.09" font-family="FreeSans" font-size="14.00" fill="#6666ff">Metamodel::BUILDPLAN</text>
</a>
</g>
</g>
<!-- Mu -->
<g id="node2" class="node">
<title>Mu</title>
<g id="a_node2"><a xlink:href="/type/Mu" xlink:title="Mu">
<ellipse fill="none" stroke="#000000" cx="1451.52" cy="-18" rx="27" ry="18"/>
<text text-anchor="middle" x="1451.52" y="-14.3" font-family="FreeSans" font-size="14.00" fill="#000000">Mu</text>
</a>
</g>
</g>
<!-- Any -->
<g id="node3" class="node">
<title>Any</title>
<g id="a_node3"><a xlink:href="/type/Any" xlink:title="Any">
<ellipse fill="none" stroke="#000000" cx="1163.58" cy="-480.05" rx="27" ry="18"/>
<text text-anchor="middle" x="1163.58" y="-476.35" font-family="FreeSans" font-size="14.00" fill="#000000">Any</text>
</a>
</g>
</g>
<!-- Any&#45;&gt;Mu -->
<g id="edge1" class="edge">
<title>Any&#45;&gt;Mu</title>
<path fill="none" stroke="#000000" d="M1174,-463.33C1217.34,-393.78 1383.54,-127.08 1435.74,-43.32"/>
<polygon fill="#000000" stroke="#000000" points="1438.8,-45.03 1441.11,-34.7 1432.86,-41.33 1438.8,-45.03"/>
</g>
<!-- Metamodel::Naming -->
<g id="node4" class="node">
<title>Metamodel::Naming</title>
<g id="a_node4"><a xlink:href="/type/Metamodel::Naming" xlink:title="Metamodel::Naming">
<ellipse fill="none" stroke="#6666ff" cx="865.1" cy="-1570.91" rx="90.18" ry="18"/>
<text text-anchor="middle" x="865.1" y="-1567.21" font-family="FreeSans" font-size="14.00" fill="#6666ff">Metamodel::Naming</text>
</a>
</g>
</g>
<!-- Metamodel::Documenting -->
<g id="node5" class="node">
<title>Metamodel::Documenting</title>
<g id="a_node5"><a xlink:href="/type/Metamodel::Documenting" xlink:title="Metamodel::Documenting">
<ellipse fill="none" stroke="#6666ff" cx="1266.18" cy="-1443.65" rx="111.28" ry="18"/>
<text text-anchor="middle" x="1266.18" y="-1439.95" font-family="FreeSans" font-size="14.00" fill="#6666ff">Metamodel::Documenting</text>
</a>
</g>
</g>
<!-- Metamodel::Versioning -->
<g id="node6" class="node">
<title>Metamodel::Versioning</title>
<g id="a_node6"><a xlink:href="/type/Metamodel::Versioning" xlink:title="Metamodel::Versioning">
<ellipse fill="none" stroke="#6666ff" cx="108.9" cy="-1157.64" rx="100.98" ry="18"/>
<text text-anchor="middle" x="108.9" y="-1153.94" font-family="FreeSans" font-size="14.00" fill="#6666ff">Metamodel::Versioning</text>
</a>
</g>
</g>
<!-- Metamodel::Stashing -->
<g id="node7" class="node">
<title>Metamodel::Stashing</title>
<g id="a_node7"><a xlink:href="/type/Metamodel::Stashing" xlink:title="Metamodel::Stashing">
<ellipse fill="none" stroke="#6666ff" cx="802.03" cy="-464.7" rx="93.68" ry="18"/>
<text text-anchor="middle" x="802.03" y="-461" font-family="FreeSans" font-size="14.00" fill="#6666ff">Metamodel::Stashing</text>
</a>
</g>
</g>
<!-- Metamodel::AttributeContainer -->
<g id="node8" class="node">
<title>Metamodel::AttributeContainer</title>
<g id="a_node8"><a xlink:href="/type/Metamodel::AttributeContainer" xlink:title="Metamodel::AttributeContainer">
<ellipse fill="none" stroke="#6666ff" cx="1345.17" cy="-890.75" rx="129.98" ry="18"/>
<text text-anchor="middle" x="1345.17" y="-887.05" font-family="FreeSans" font-size="14.00" fill="#6666ff">Metamodel::AttributeContainer</text>
</a>
</g>
</g>
<!-- Metamodel::Finalization -->
<g id="node9" class="node">
<title>Metamodel::Finalization</title>
<g id="a_node9"><a xlink:href="/type/Metamodel::Finalization" xlink:title="Metamodel::Finalization">
<ellipse fill="none" stroke="#6666ff" cx="154.41" cy="-706.46" rx="103.98" ry="18"/>
<text text-anchor="middle" x="154.41" y="-702.76" font-family="FreeSans" font-size="14.00" fill="#6666ff">Metamodel::Finalization</text>
</a>
</g>
</g>
<!-- Metamodel::MethodContainer -->
<g id="node10" class="node">
<title>Metamodel::MethodContainer</title>
<g id="a_node10"><a xlink:href="/type/Metamodel::MethodContainer" xlink:title="Metamodel::MethodContainer">
<ellipse fill="none" stroke="#6666ff" cx="962.95" cy="-552.63" rx="127.28" ry="18"/>
<text text-anchor="middle" x="962.95" y="-548.93" font-family="FreeSans" font-size="14.00" fill="#6666ff">Metamodel::MethodContainer</text>
</a>
</g>
</g>
<!-- Metamodel::PrivateMethodContainer -->
<g id="node11" class="node">
<title>Metamodel::PrivateMethodContainer</title>
<g id="a_node11"><a xlink:href="/type/Metamodel::PrivateMethodContainer" xlink:title="Metamodel::PrivateMethodContainer">
<ellipse fill="none" stroke="#6666ff" cx="275.3" cy="-518.13" rx="154.87" ry="18"/>
<text text-anchor="middle" x="275.3" y="-514.43" font-family="FreeSans" font-size="14.00" fill="#6666ff">Metamodel::PrivateMethodContainer</text>
</a>
</g>
</g>
<!-- Metamodel::MultiMethodContainer -->
<g id="node12" class="node">
<title>Metamodel::MultiMethodContainer</title>
<g id="a_node12"><a xlink:href="/type/Metamodel::MultiMethodContainer" xlink:title="Metamodel::MultiMethodContainer">
<ellipse fill="none" stroke="#6666ff" cx="475.84" cy="-1055.96" rx="146.47" ry="18"/>
<text text-anchor="middle" x="475.84" y="-1052.26" font-family="FreeSans" font-size="14.00" fill="#6666ff">Metamodel::MultiMethodContainer</text>
</a>
</g>
</g>
<!-- Metamodel::RoleContainer -->
<g id="node13" class="node">
<title>Metamodel::RoleContainer</title>
<g id="a_node13"><a xlink:href="/type/Metamodel::RoleContainer" xlink:title="Metamodel::RoleContainer">
<ellipse fill="none" stroke="#6666ff" cx="1297.59" cy="-1188.94" rx="115.88" ry="18"/>
<text text-anchor="middle" x="1297.59" y="-1185.24" font-family="FreeSans" font-size="14.00" fill="#6666ff">Metamodel::RoleContainer</text>
</a>
</g>
</g>
<!-- Metamodel::MultipleInheritance -->
<g id="node14" class="node">
<title>Metamodel::MultipleInheritance</title>
<g id="a_node14"><a xlink:href="/type/Metamodel::MultipleInheritance" xlink:title="Metamodel::MultipleInheritance">
<ellipse fill="none" stroke="#6666ff" cx="416.51" cy="-1581.78" rx="133.78" ry="18"/>
<text text-anchor="middle" x="416.51" y="-1578.08" font-family="FreeSans" font-size="14.00" fill="#6666ff">Metamodel::MultipleInheritance</text>
</a>
</g>
</g>
<!-- Metamodel::DefaultParent -->
<g id="node15" class="node">
<title>Metamodel::DefaultParent</title>
<g id="a_node15"><a xlink:href="/type/Metamodel::DefaultParent" xlink:title="Metamodel::DefaultParent">
<ellipse fill="none" stroke="#6666ff" cx="215.02" cy="-1381.33" rx="113.18" ry="18"/>
<text text-anchor="middle" x="215.02" y="-1377.63" font-family="FreeSans" font-size="14.00" fill="#6666ff">Metamodel::DefaultParent</text>
</a>
</g>
</g>
<!-- Metamodel::C3MRO -->
<g id="node16" class="node">
<title>Metamodel::C3MRO</title>
<g id="a_node16"><a xlink:href="/type/Metamodel::C3MRO" xlink:title="Metamodel::C3MRO">
<ellipse fill="none" stroke="#6666ff" cx="472.55" cy="-357.78" rx="92.08" ry="18"/>
<text text-anchor="middle" x="472.55" y="-354.08" font-family="FreeSans" font-size="14.00" fill="#6666ff">Metamodel::C3MRO</text>
</a>
</g>
</g>
<!-- Metamodel::MROBasedMethodDispatch -->
<g id="node17" class="node">
<title>Metamodel::MROBasedMethodDispatch</title>
<g id="a_node17"><a xlink:href="/type/Metamodel::MROBasedMethodDispatch" xlink:title="Metamodel::MROBasedMethodDispatch">
<ellipse fill="none" stroke="#6666ff" cx="1217.07" cy="-701.77" rx="169.77" ry="18"/>
<text text-anchor="middle" x="1217.07" y="-698.07" font-family="FreeSans" font-size="14.00" fill="#6666ff">Metamodel::MROBasedMethodDispatch</text>
</a>
</g>
</g>
<!-- Metamodel::MROBasedTypeChecking -->
<g id="node18" class="node">
<title>Metamodel::MROBasedTypeChecking</title>
<g id="a_node18"><a xlink:href="/type/Metamodel::MROBasedTypeChecking" xlink:title="Metamodel::MROBasedTypeChecking">
<ellipse fill="none" stroke="#6666ff" cx="598.52" cy="-1366.74" rx="163.27" ry="18"/>
<text text-anchor="middle" x="598.52" y="-1363.04" font-family="FreeSans" font-size="14.00" fill="#6666ff">Metamodel::MROBasedTypeChecking</text>
</a>
</g>
</g>
<!-- Metamodel::Trusting -->
<g id="node19" class="node">
<title>Metamodel::Trusting</title>
<g id="a_node19"><a xlink:href="/type/Metamodel::Trusting" xlink:title="Metamodel::Trusting">
<ellipse fill="none" stroke="#6666ff" cx="91.64" cy="-921.39" rx="91.78" ry="18"/>
<text text-anchor="middle" x="91.64" y="-917.69" font-family="FreeSans" font-size="14.00" fill="#6666ff">Metamodel::Trusting</text>
</a>
</g>
</g>
<!-- Metamodel::Mixins -->
<g id="node20" class="node">
<title>Metamodel::Mixins</title>
<g id="a_node20"><a xlink:href="/type/Metamodel::Mixins" xlink:title="Metamodel::Mixins">
<ellipse fill="none" stroke="#6666ff" cx="854.83" cy="-1380.45" rx="85.29" ry="18"/>
<text text-anchor="middle" x="854.83" y="-1376.75" font-family="FreeSans" font-size="14.00" fill="#6666ff">Metamodel::Mixins</text>
</a>
</g>
</g>
<!-- Metamodel::BoolificationProtocol -->
<g id="node21" class="node">
<title>Metamodel::BoolificationProtocol</title>
<g id="a_node21"><a xlink:href="/type/Metamodel::BoolificationProtocol" xlink:title="Metamodel::BoolificationProtocol">
<ellipse fill="none" stroke="#6666ff" cx="1007.91" cy="-1432.65" rx="139.18" ry="18"/>
<text text-anchor="middle" x="1007.91" y="-1428.95" font-family="FreeSans" font-size="14.00" fill="#6666ff">Metamodel::BoolificationProtocol</text>
</a>
</g>
</g>
<!-- Metamodel::ClassHOW -->
<g id="node22" class="node">
<title>Metamodel::ClassHOW</title>
<g id="a_node22"><a xlink:href="/type/Metamodel::ClassHOW" xlink:title="Metamodel::ClassHOW">
<ellipse fill="none" stroke="#000000" cx="717.17" cy="-974.1" rx="103.18" ry="18"/>
<text text-anchor="middle" x="717.17" y="-970.4" font-family="FreeSans" font-size="14.00" fill="#000000">Metamodel::ClassHOW</text>
</a>
</g>
</g>
<!-- Metamodel::ClassHOW&#45;&gt;Metamodel::BUILDPLAN -->
<g id="edge20" class="edge">
<title>Metamodel::ClassHOW&#45;&gt;Metamodel::BUILDPLAN</title>
<path fill="none" stroke="#6666ff" d="M713.8,-955.92C703.68,-901.38 673.5,-738.84 661.27,-672.97"/>
<polygon fill="#6666ff" stroke="#6666ff" points="664.67,-672.1 659.41,-662.91 657.79,-673.38 664.67,-672.1"/>
</g>
<!-- Metamodel::ClassHOW&#45;&gt;Any -->
<g id="edge2" class="edge">
<title>Metamodel::ClassHOW&#45;&gt;Any</title>
<path fill="none" stroke="#000000" d="M733.33,-956.22C801.47,-880.81 1065.49,-588.61 1142.43,-503.46"/>
<polygon fill="#000000" stroke="#000000" points="1145.17,-505.65 1149.28,-495.88 1139.98,-500.95 1145.17,-505.65"/>
</g>
<!-- Metamodel::ClassHOW&#45;&gt;Metamodel::Naming -->
<g id="edge4" class="edge">
<title>Metamodel::ClassHOW&#45;&gt;Metamodel::Naming</title>
<path fill="none" stroke="#6666ff" d="M719.46,-992.34C729.37,-1071.38 768.09,-1380.31 768.09,-1380.31 768.09,-1380.31 824.58,-1491.29 851.35,-1543.88"/>
<polygon fill="#6666ff" stroke="#6666ff" points="848.32,-1545.65 855.98,-1552.98 854.56,-1542.48 848.32,-1545.65"/>
</g>
<!-- Metamodel::ClassHOW&#45;&gt;Metamodel::Documenting -->
<g id="edge5" class="edge">
<title>Metamodel::ClassHOW&#45;&gt;Metamodel::Documenting</title>
<path fill="none" stroke="#6666ff" d="M738.03,-991.93C822.61,-1064.28 1140.26,-1335.96 1237.63,-1419.24"/>
<polygon fill="#6666ff" stroke="#6666ff" points="1235.43,-1421.96 1245.31,-1425.8 1239.98,-1416.64 1235.43,-1421.96"/>
</g>
<!-- Metamodel::ClassHOW&#45;&gt;Metamodel::Versioning -->
<g id="edge6" class="edge">
<title>Metamodel::ClassHOW&#45;&gt;Metamodel::Versioning</title>
<path fill="none" stroke="#6666ff" d="M648.48,-987.61C547.69,-1007.43 371.57,-1042.07 371.57,-1042.07 371.57,-1042.07 328,-1055.91 328,-1055.91 328,-1055.91 218.36,-1106.82 154.2,-1136.61"/>
<polygon fill="#6666ff" stroke="#6666ff" points="152.68,-1133.46 145.08,-1140.84 155.63,-1139.81 152.68,-1133.46"/>
</g>
<!-- Metamodel::ClassHOW&#45;&gt;Metamodel::Stashing -->
<g id="edge7" class="edge">
<title>Metamodel::ClassHOW&#45;&gt;Metamodel::Stashing</title>
<path fill="none" stroke="#6666ff" d="M720.19,-955.97C732.87,-879.85 781.87,-585.74 797.33,-492.93"/>
<polygon fill="#6666ff" stroke="#6666ff" points="800.81,-493.32 799,-482.88 793.91,-492.17 800.81,-493.32"/>
</g>
<!-- Metamodel::ClassHOW&#45;&gt;Metamodel::AttributeContainer -->
<g id="edge8" class="edge">
<title>Metamodel::ClassHOW&#45;&gt;Metamodel::AttributeContainer</title>
<path fill="none" stroke="#6666ff" d="M799.6,-963.16C912.96,-948.11 1117,-921.03 1240.87,-904.6"/>
<polygon fill="#6666ff" stroke="#6666ff" points="1241.67,-908.02 1251.12,-903.24 1240.75,-901.08 1241.67,-908.02"/>
</g>
<!-- Metamodel::ClassHOW&#45;&gt;Metamodel::Finalization -->
<g id="edge9" class="edge">
<title>Metamodel::ClassHOW&#45;&gt;Metamodel::Finalization</title>
<path fill="none" stroke="#6666ff" d="M681.54,-957.15C583.17,-910.37 307.93,-779.47 199.31,-727.81"/>
<polygon fill="#6666ff" stroke="#6666ff" points="200.78,-724.63 190.24,-723.5 197.77,-730.96 200.78,-724.63"/>
</g>
<!-- Metamodel::ClassHOW&#45;&gt;Metamodel::MethodContainer -->
<g id="edge10" class="edge">
<title>Metamodel::ClassHOW&#45;&gt;Metamodel::MethodContainer</title>
<path fill="none" stroke="#6666ff" d="M727.74,-955.99C766.49,-889.52 901.06,-658.76 947.24,-579.55"/>
<polygon fill="#6666ff" stroke="#6666ff" points="950.41,-581.07 952.43,-570.67 944.36,-577.54 950.41,-581.07"/>
</g>
<!-- Metamodel::ClassHOW&#45;&gt;Metamodel::PrivateMethodContainer -->
<g id="edge11" class="edge">
<title>Metamodel::ClassHOW&#45;&gt;Metamodel::PrivateMethodContainer</title>
<path fill="none" stroke="#6666ff" d="M699.85,-956.22C631.53,-885.72 380.55,-626.74 300.21,-543.84"/>
<polygon fill="#6666ff" stroke="#6666ff" points="302.45,-541.12 292.98,-536.38 297.43,-545.99 302.45,-541.12"/>
</g>
<!-- Metamodel::ClassHOW&#45;&gt;Metamodel::MultiMethodContainer -->
<g id="edge12" class="edge">
<title>Metamodel::ClassHOW&#45;&gt;Metamodel::MultiMethodContainer</title>
<path fill="none" stroke="#6666ff" d="M669.78,-990.17C631.4,-1003.19 577.11,-1021.61 535.72,-1035.65"/>
<polygon fill="#6666ff" stroke="#6666ff" points="534.38,-1032.41 526.03,-1038.94 536.63,-1039.04 534.38,-1032.41"/>
</g>
<!-- Metamodel::ClassHOW&#45;&gt;Metamodel::RoleContainer -->
<g id="edge13" class="edge">
<title>Metamodel::ClassHOW&#45;&gt;Metamodel::RoleContainer</title>
<path fill="none" stroke="#6666ff" d="M761.28,-990.42C865.9,-1029.15 1128.87,-1126.49 1243.16,-1168.79"/>
<polygon fill="#6666ff" stroke="#6666ff" points="1242.17,-1172.15 1252.76,-1172.34 1244.6,-1165.59 1242.17,-1172.15"/>
</g>
<!-- Metamodel::ClassHOW&#45;&gt;Metamodel::MultipleInheritance -->
<g id="edge14" class="edge">
<title>Metamodel::ClassHOW&#45;&gt;Metamodel::MultipleInheritance</title>
<path fill="none" stroke="#6666ff" d="M704.26,-991.99C648.82,-1068.8 433.79,-1366.72 433.79,-1366.72 433.79,-1366.72 423.49,-1494.97 418.79,-1553.39"/>
<polygon fill="#6666ff" stroke="#6666ff" points="415.3,-1553.2 417.99,-1563.44 422.28,-1553.76 415.3,-1553.2"/>
</g>
<!-- Metamodel::ClassHOW&#45;&gt;Metamodel::DefaultParent -->
<g id="edge15" class="edge">
<title>Metamodel::ClassHOW&#45;&gt;Metamodel::DefaultParent</title>
<path fill="none" stroke="#6666ff" d="M696.89,-991.87C669.39,-1015.96 623.67,-1056.01 623.67,-1056.01 623.67,-1056.01 339.95,-1281.88 245.32,-1357.21"/>
<polygon fill="#6666ff" stroke="#6666ff" points="242.93,-1354.64 237.29,-1363.61 247.29,-1360.12 242.93,-1354.64"/>
</g>
<!-- Metamodel::ClassHOW&#45;&gt;Metamodel::C3MRO -->
<g id="edge16" class="edge">
<title>Metamodel::ClassHOW&#45;&gt;Metamodel::C3MRO</title>
<path fill="none" stroke="#6666ff" d="M707.65,-955.92C671.47,-886.87 544.6,-644.73 544.6,-644.73 544.6,-644.73 497.78,-458.29 479.63,-385.97"/>
<polygon fill="#6666ff" stroke="#6666ff" points="482.99,-385.01 477.16,-376.17 476.2,-386.72 482.99,-385.01"/>
</g>
<!-- Metamodel::ClassHOW&#45;&gt;Metamodel::MROBasedMethodDispatch -->
<g id="edge17" class="edge">
<title>Metamodel::ClassHOW&#45;&gt;Metamodel::MROBasedMethodDispatch</title>
<path fill="none" stroke="#6666ff" d="M748.82,-956.86C835.73,-909.51 1078.06,-777.5 1175.61,-724.36"/>
<polygon fill="#6666ff" stroke="#6666ff" points="1177.48,-727.32 1184.59,-719.47 1174.13,-721.18 1177.48,-727.32"/>
</g>
<!-- Metamodel::ClassHOW&#45;&gt;Metamodel::MROBasedTypeChecking -->
<g id="edge18" class="edge">
<title>Metamodel::ClassHOW&#45;&gt;Metamodel::MROBasedTypeChecking</title>
<path fill="none" stroke="#6666ff" d="M711.69,-992.25C692.76,-1054.91 630.04,-1262.46 607.06,-1338.5"/>
<polygon fill="#6666ff" stroke="#6666ff" points="603.63,-1337.74 604.09,-1348.33 610.33,-1339.77 603.63,-1337.74"/>
</g>
<!-- Metamodel::ClassHOW&#45;&gt;Metamodel::Trusting -->
<g id="edge19" class="edge">
<title>Metamodel::ClassHOW&#45;&gt;Metamodel::Trusting</title>
<path fill="none" stroke="#6666ff" d="M623.86,-966.24C506.05,-956.31 304.49,-939.33 186.12,-929.35"/>
<polygon fill="#6666ff" stroke="#6666ff" points="186.25,-925.85 175.99,-928.5 185.66,-932.83 186.25,-925.85"/>
</g>
<!-- Metamodel::ClassHOW&#45;&gt;Metamodel::Mixins -->
<g id="edge21" class="edge">
<title>Metamodel::ClassHOW&#45;&gt;Metamodel::Mixins</title>
<path fill="none" stroke="#6666ff" d="M723.27,-992.08C745.03,-1056.32 819.02,-1274.74 845.39,-1352.6"/>
<polygon fill="#6666ff" stroke="#6666ff" points="842.13,-1353.86 848.65,-1362.21 848.76,-1351.61 842.13,-1353.86"/>
</g>
<!-- Metamodel::ClassHOW&#45;&gt;Metamodel::BoolificationProtocol -->
<g id="edge22" class="edge">
<title>Metamodel::ClassHOW&#45;&gt;Metamodel::BoolificationProtocol</title>
<path fill="none" stroke="#6666ff" d="M728.57,-992.07C773.34,-1062.69 937.33,-1321.33 990.87,-1405.78"/>
<polygon fill="#6666ff" stroke="#6666ff" points="987.96,-1407.73 996.27,-1414.3 993.87,-1403.98 987.96,-1407.73"/>
</g>
<!-- Metamodel::BaseType -->
<g id="node23" class="node">
<title>Metamodel::BaseType</title>
<g id="a_node23"><a xlink:href="/type/Metamodel::BaseType" xlink:title="Metamodel::BaseType">
<ellipse fill="none" stroke="#6666ff" cx="1779" cy="-1102.38" rx="99.38" ry="18"/>
<text text-anchor="middle" x="1779" y="-1098.68" font-family="FreeSans" font-size="14.00" fill="#6666ff">Metamodel::BaseType</text>
</a>
</g>
</g>
<!-- Metamodel::EnumHOW -->
<g id="node24" class="node">
<title>Metamodel::EnumHOW</title>
<g id="a_node24"><a xlink:href="/type/Metamodel::EnumHOW" xlink:title="Metamodel::EnumHOW">
<ellipse fill="none" stroke="#000000" cx="1066.78" cy="-994.59" rx="104.78" ry="18"/>
<text text-anchor="middle" x="1066.78" y="-990.89" font-family="FreeSans" font-size="14.00" fill="#000000">Metamodel::EnumHOW</text>
</a>
</g>
</g>
<!-- Metamodel::EnumHOW&#45;&gt;Metamodel::BUILDPLAN -->
<g id="edge32" class="edge">
<title>Metamodel::EnumHOW&#45;&gt;Metamodel::BUILDPLAN</title>
<path fill="none" stroke="#6666ff" d="M1045.84,-976.76C977.86,-918.86 763.17,-736.02 684.93,-669.39"/>
<polygon fill="#6666ff" stroke="#6666ff" points="686.82,-666.4 676.93,-662.58 682.28,-671.73 686.82,-666.4"/>
</g>
<!-- Metamodel::EnumHOW&#45;&gt;Any -->
<g id="edge3" class="edge">
<title>Metamodel::EnumHOW&#45;&gt;Any</title>
<path fill="none" stroke="#000000" d="M1065.47,-976.27C1060.88,-912.15 1045.83,-701.73 1045.83,-701.73 1045.83,-701.73 1118.63,-564.67 1149.75,-506.09"/>
<polygon fill="#000000" stroke="#000000" points="1152.94,-507.55 1154.54,-497.08 1146.76,-504.26 1152.94,-507.55"/>
</g>
<!-- Metamodel::EnumHOW&#45;&gt;Metamodel::Naming -->
<g id="edge23" class="edge">
<title>Metamodel::EnumHOW&#45;&gt;Metamodel::Naming</title>
<path fill="none" stroke="#6666ff" d="M1060.91,-1012.69C1036.15,-1089 941.57,-1380.58 941.57,-1380.58 941.57,-1380.58 867.22,-1432.5 867.22,-1432.5 867.22,-1432.5 866.15,-1502.27 865.54,-1542.74"/>
<polygon fill="#6666ff" stroke="#6666ff" points="862.04,-1542.76 865.38,-1552.82 869.03,-1542.87 862.04,-1542.76"/>
</g>
<!-- Metamodel::EnumHOW&#45;&gt;Metamodel::Stashing -->
<g id="edge24" class="edge">
<title>Metamodel::EnumHOW&#45;&gt;Metamodel::Stashing</title>
<path fill="none" stroke="#6666ff" d="M1057.22,-976.44C1013.41,-893.26 833.96,-552.57 833.96,-552.57 833.96,-552.57 821.52,-518.34 812.17,-492.61"/>
<polygon fill="#6666ff" stroke="#6666ff" points="815.35,-491.11 808.65,-482.91 808.77,-493.5 815.35,-491.11"/>
</g>
<!-- Metamodel::EnumHOW&#45;&gt;Metamodel::AttributeContainer -->
<g id="edge25" class="edge">
<title>Metamodel::EnumHOW&#45;&gt;Metamodel::AttributeContainer</title>
<path fill="none" stroke="#6666ff" d="M1110.89,-978.13C1159.53,-959.99 1237.84,-930.78 1290.38,-911.19"/>
<polygon fill="#6666ff" stroke="#6666ff" points="1291.73,-914.42 1299.88,-907.65 1289.29,-907.86 1291.73,-914.42"/>
</g>
<!-- Metamodel::EnumHOW&#45;&gt;Metamodel::MethodContainer -->
<g id="edge26" class="edge">
<title>Metamodel::EnumHOW&#45;&gt;Metamodel::MethodContainer</title>
<path fill="none" stroke="#6666ff" d="M1062.51,-976.44C1046.39,-907.81 989.08,-663.87 969.54,-580.67"/>
<polygon fill="#6666ff" stroke="#6666ff" points="972.88,-579.62 967.19,-570.68 966.07,-581.22 972.88,-579.62"/>
</g>
<!-- Metamodel::EnumHOW&#45;&gt;Metamodel::MultiMethodContainer -->
<g id="edge27" class="edge">
<title>Metamodel::EnumHOW&#45;&gt;Metamodel::MultiMethodContainer</title>
<path fill="none" stroke="#6666ff" d="M977.03,-1003.91C875.79,-1014.42 710.6,-1031.58 597.74,-1043.3"/>
<polygon fill="#6666ff" stroke="#6666ff" points="597.25,-1039.83 587.67,-1044.35 597.97,-1046.8 597.25,-1039.83"/>
</g>
<!-- Metamodel::EnumHOW&#45;&gt;Metamodel::RoleContainer -->
<g id="edge28" class="edge">
<title>Metamodel::EnumHOW&#45;&gt;Metamodel::RoleContainer</title>
<path fill="none" stroke="#6666ff" d="M1088.08,-1012.52C1129.64,-1047.52 1221.61,-1124.96 1268.65,-1164.57"/>
<polygon fill="#6666ff" stroke="#6666ff" points="1266.44,-1167.28 1276.34,-1171.04 1270.95,-1161.93 1266.44,-1167.28"/>
</g>
<!-- Metamodel::EnumHOW&#45;&gt;Metamodel::MROBasedMethodDispatch -->
<g id="edge30" class="edge">
<title>Metamodel::EnumHOW&#45;&gt;Metamodel::MROBasedMethodDispatch</title>
<path fill="none" stroke="#6666ff" d="M1076.18,-976.27C1101.74,-926.46 1172.65,-788.31 1202.99,-729.19"/>
<polygon fill="#6666ff" stroke="#6666ff" points="1206.22,-730.58 1207.67,-720.08 1199.99,-727.38 1206.22,-730.58"/>
</g>
<!-- Metamodel::EnumHOW&#45;&gt;Metamodel::MROBasedTypeChecking -->
<g id="edge31" class="edge">
<title>Metamodel::EnumHOW&#45;&gt;Metamodel::MROBasedTypeChecking</title>
<path fill="none" stroke="#6666ff" d="M1044.51,-1012.29C968.18,-1072.95 717.02,-1272.56 629.18,-1342.37"/>
<polygon fill="#6666ff" stroke="#6666ff" points="626.86,-1339.75 621.2,-1348.71 631.21,-1345.23 626.86,-1339.75"/>
</g>
<!-- Metamodel::EnumHOW&#45;&gt;Metamodel::Mixins -->
<g id="edge34" class="edge">
<title>Metamodel::EnumHOW&#45;&gt;Metamodel::Mixins</title>
<path fill="none" stroke="#6666ff" d="M1056.84,-1012.68C1022.77,-1074.71 910.55,-1279.01 869.79,-1353.21"/>
<polygon fill="#6666ff" stroke="#6666ff" points="866.49,-1351.94 864.75,-1362.39 872.63,-1355.31 866.49,-1351.94"/>
</g>
<!-- Metamodel::EnumHOW&#45;&gt;Metamodel::BoolificationProtocol -->
<g id="edge33" class="edge">
<title>Metamodel::EnumHOW&#45;&gt;Metamodel::BoolificationProtocol</title>
<path fill="none" stroke="#6666ff" d="M1064.32,-1012.85C1055.15,-1081.11 1022.84,-1321.52 1011.71,-1404.35"/>
<polygon fill="#6666ff" stroke="#6666ff" points="1008.23,-1403.93 1010.37,-1414.31 1015.17,-1404.86 1008.23,-1403.93"/>
</g>
<!-- Metamodel::EnumHOW&#45;&gt;Metamodel::BaseType -->
<g id="edge29" class="edge">
<title>Metamodel::EnumHOW&#45;&gt;Metamodel::BaseType</title>
<path fill="none" stroke="#6666ff" d="M1145.38,-1006.48C1279.76,-1026.82 1552.66,-1068.12 1692.35,-1089.27"/>
<polygon fill="#6666ff" stroke="#6666ff" points="1692.18,-1092.78 1702.59,-1090.81 1693.22,-1085.86 1692.18,-1092.78"/>
</g>
</g>
</svg>
