<?xml version="1.0" encoding="UTF-8" standalone="no"?>
<!DOCTYPE svg PUBLIC "-//W3C//DTD SVG 1.1//EN"
 "http://www.w3.org/Graphics/SVG/1.1/DTD/svg11.dtd">
<!-- Generated by graphviz version 2.43.0 (0)
 -->
<!-- Title: perl6&#45;type&#45;graph Pages: 1 -->
<svg width="168pt" height="116pt"
 viewBox="0.00 0.00 168.20 116.00" xmlns="http://www.w3.org/2000/svg" xmlns:xlink="http://www.w3.org/1999/xlink">
<g id="graph0" class="graph" transform="scale(1 1) rotate(0) translate(4 112)">
<title>perl6&#45;type&#45;graph</title>
<polygon fill="white" stroke="transparent" points="-4,4 -4,-112 164.2,-112 164.2,4 -4,4"/>
<!-- Mu -->
<g id="node1" class="node">
<title>Mu</title>
<g id="a_node1"><a xlink:href="/type/Mu" xlink:title="Mu">
<ellipse fill="none" stroke="#000000" cx="88.2" cy="-90" rx="27" ry="18"/>
<text text-anchor="middle" x="88.2" y="-86.3" font-family="FreeSans" font-size="14.00" fill="#000000">Mu</text>
</a>
</g>
</g>
<!-- Junction -->
<g id="node2" class="node">
<title>Junction</title>
<g id="a_node2"><a xlink:href="/type/Junction" xlink:title="Junction">
<ellipse fill="none" stroke="#000000" cx="44.2" cy="-18" rx="44.39" ry="18"/>
<text text-anchor="middle" x="44.2" y="-14.3" font-family="FreeSans" font-size="14.00" fill="#000000">Junction</text>
</a>
</g>
</g>
<!-- Junction&#45;&gt;Mu -->
<g id="edge1" class="edge">
<title>Junction&#45;&gt;Mu</title>
<path fill="none" stroke="#000000" d="M54.62,-35.59C60.02,-44.17 66.7,-54.81 72.69,-64.33"/>
<polygon fill="#000000" stroke="#000000" points="69.86,-66.41 78.15,-73.01 75.79,-62.68 69.86,-66.41"/>
</g>
<!-- Any -->
<g id="node3" class="node">
<title>Any</title>
<g id="a_node3"><a xlink:href="/type/Any" xlink:title="Any">
<ellipse fill="none" stroke="#000000" cx="133.2" cy="-18" rx="27" ry="18"/>
<text text-anchor="middle" x="133.2" y="-14.3" font-family="FreeSans" font-size="14.00" fill="#000000">Any</text>
</a>
</g>
</g>
<!-- Any&#45;&gt;Mu -->
<g id="edge2" class="edge">
<title>Any&#45;&gt;Mu</title>
<path fill="none" stroke="#000000" d="M122.98,-34.88C117.35,-43.66 110.22,-54.74 103.89,-64.58"/>
<polygon fill="#000000" stroke="#000000" points="100.83,-62.87 98.37,-73.18 106.72,-66.66 100.83,-62.87"/>
</g>
</g>
</svg>
