<?xml version="1.0" encoding="UTF-8" standalone="no"?>
<!DOCTYPE svg PUBLIC "-//W3C//DTD SVG 1.1//EN"
 "http://www.w3.org/Graphics/SVG/1.1/DTD/svg11.dtd">
<!-- Generated by graphviz version 2.43.0 (0)
 -->
<!-- Title: perl6&#45;type&#45;graph Pages: 1 -->
<svg width="2033pt" height="1894pt"
 viewBox="0.00 0.00 2032.59 1893.80" xmlns="http://www.w3.org/2000/svg" xmlns:xlink="http://www.w3.org/1999/xlink">
<g id="graph0" class="graph" transform="scale(1 1) rotate(0) translate(4 1889.8)">
<title>perl6&#45;type&#45;graph</title>
<polygon fill="white" stroke="transparent" points="-4,4 -4,-1889.8 2028.59,-1889.8 2028.59,4 -4,4"/>
<!-- Metamodel::TypePretense -->
<g id="node1" class="node">
<title>Metamodel::TypePretense</title>
<g id="a_node1"><a xlink:href="/type/Metamodel::TypePretense" xlink:title="Metamodel::TypePretense">
<ellipse fill="none" stroke="#6666ff" cx="990.07" cy="-855.75" rx="114.28" ry="18"/>
<text text-anchor="middle" x="990.07" y="-852.05" font-family="FreeSans" font-size="14.00" fill="#6666ff">Metamodel::TypePretense</text>
</a>
</g>
</g>
<!-- Mu -->
<g id="node2" class="node">
<title>Mu</title>
<g id="a_node2"><a xlink:href="/type/Mu" xlink:title="Mu">
<ellipse fill="none" stroke="#000000" cx="1909.99" cy="-405.4" rx="27" ry="18"/>
<text text-anchor="middle" x="1909.99" y="-401.7" font-family="FreeSans" font-size="14.00" fill="#000000">Mu</text>
</a>
</g>
</g>
<!-- Any -->
<g id="node3" class="node">
<title>Any</title>
<g id="a_node3"><a xlink:href="/type/Any" xlink:title="Any">
<ellipse fill="none" stroke="#000000" cx="1388.78" cy="-738.97" rx="27" ry="18"/>
<text text-anchor="middle" x="1388.78" y="-735.27" font-family="FreeSans" font-size="14.00" fill="#000000">Any</text>
</a>
</g>
</g>
<!-- Any&#45;&gt;Mu -->
<g id="edge1" class="edge">
<title>Any&#45;&gt;Mu</title>
<path fill="none" stroke="#000000" d="M1408.26,-726.5C1487.76,-675.63 1787.85,-483.57 1881.74,-423.49"/>
<polygon fill="#000000" stroke="#000000" points="1883.88,-426.27 1890.41,-417.93 1880.1,-420.37 1883.88,-426.27"/>
</g>
<!-- Metamodel::Naming -->
<g id="node4" class="node">
<title>Metamodel::Naming</title>
<g id="a_node4"><a xlink:href="/type/Metamodel::Naming" xlink:title="Metamodel::Naming">
<ellipse fill="none" stroke="#6666ff" cx="850.58" cy="-1085.45" rx="90.18" ry="18"/>
<text text-anchor="middle" x="850.58" y="-1081.75" font-family="FreeSans" font-size="14.00" fill="#6666ff">Metamodel::Naming</text>
</a>
</g>
</g>
<!-- Metamodel::Documenting -->
<g id="node5" class="node">
<title>Metamodel::Documenting</title>
<g id="a_node5"><a xlink:href="/type/Metamodel::Documenting" xlink:title="Metamodel::Documenting">
<ellipse fill="none" stroke="#6666ff" cx="1533.36" cy="-921.4" rx="111.28" ry="18"/>
<text text-anchor="middle" x="1533.36" y="-917.7" font-family="FreeSans" font-size="14.00" fill="#6666ff">Metamodel::Documenting</text>
</a>
</g>
</g>
<!-- Metamodel::Stashing -->
<g id="node6" class="node">
<title>Metamodel::Stashing</title>
<g id="a_node6"><a xlink:href="/type/Metamodel::Stashing" xlink:title="Metamodel::Stashing">
<ellipse fill="none" stroke="#6666ff" cx="724.65" cy="-1041.45" rx="93.68" ry="18"/>
<text text-anchor="middle" x="724.65" y="-1037.75" font-family="FreeSans" font-size="14.00" fill="#6666ff">Metamodel::Stashing</text>
</a>
</g>
</g>
<!-- Metamodel::MethodDelegation -->
<g id="node7" class="node">
<title>Metamodel::MethodDelegation</title>
<g id="a_node7"><a xlink:href="/type/Metamodel::MethodDelegation" xlink:title="Metamodel::MethodDelegation">
<ellipse fill="none" stroke="#6666ff" cx="1052.3" cy="-18" rx="131.08" ry="18"/>
<text text-anchor="middle" x="1052.3" y="-14.3" font-family="FreeSans" font-size="14.00" fill="#6666ff">Metamodel::MethodDelegation</text>
</a>
</g>
</g>
<!-- Metamodel::PackageHOW -->
<g id="node8" class="node">
<title>Metamodel::PackageHOW</title>
<g id="a_node8"><a xlink:href="/type/Metamodel::PackageHOW" xlink:title="Metamodel::PackageHOW">
<ellipse fill="none" stroke="#000000" cx="959.28" cy="-506.96" rx="116.18" ry="18"/>
<text text-anchor="middle" x="959.28" y="-503.26" font-family="FreeSans" font-size="14.00" fill="#000000">Metamodel::PackageHOW</text>
</a>
</g>
</g>
<!-- Metamodel::PackageHOW&#45;&gt;Metamodel::TypePretense -->
<g id="edge10" class="edge">
<title>Metamodel::PackageHOW&#45;&gt;Metamodel::TypePretense</title>
<path fill="none" stroke="#6666ff" d="M960.89,-525.22C965.94,-582.43 981.49,-758.48 987.58,-827.54"/>
<polygon fill="#6666ff" stroke="#6666ff" points="984.11,-828.02 988.48,-837.67 991.08,-827.4 984.11,-828.02"/>
</g>
<!-- Metamodel::PackageHOW&#45;&gt;Any -->
<g id="edge2" class="edge">
<title>Metamodel::PackageHOW&#45;&gt;Any</title>
<path fill="none" stroke="#000000" d="M986.14,-524.51C1022.54,-548.31 1083.05,-587.86 1083.05,-587.86 1083.05,-587.86 1279.52,-684.97 1357.47,-723.49"/>
<polygon fill="#000000" stroke="#000000" points="1356.28,-726.81 1366.79,-728.1 1359.38,-720.54 1356.28,-726.81"/>
</g>
<!-- Metamodel::PackageHOW&#45;&gt;Metamodel::Naming -->
<g id="edge7" class="edge">
<title>Metamodel::PackageHOW&#45;&gt;Metamodel::Naming</title>
<path fill="none" stroke="#6666ff" d="M954.82,-525.22C937.29,-596.97 874.08,-855.69 874.08,-855.69 874.08,-855.69 859.74,-995.91 853.46,-1057.27"/>
<polygon fill="#6666ff" stroke="#6666ff" points="849.96,-1057.12 852.42,-1067.42 856.92,-1057.83 849.96,-1057.12"/>
</g>
<!-- Metamodel::PackageHOW&#45;&gt;Metamodel::Documenting -->
<g id="edge8" class="edge">
<title>Metamodel::PackageHOW&#45;&gt;Metamodel::Documenting</title>
<path fill="none" stroke="#6666ff" d="M983.95,-524.77C1075.59,-590.92 1396.5,-822.6 1500.53,-897.7"/>
<polygon fill="#6666ff" stroke="#6666ff" points="1498.62,-900.64 1508.78,-903.66 1502.72,-894.97 1498.62,-900.64"/>
</g>
<!-- Metamodel::PackageHOW&#45;&gt;Metamodel::Stashing -->
<g id="edge9" class="edge">
<title>Metamodel::PackageHOW&#45;&gt;Metamodel::Stashing</title>
<path fill="none" stroke="#6666ff" d="M951.34,-525.05C916.66,-604.04 778.4,-919 736.65,-1014.11"/>
<polygon fill="#6666ff" stroke="#6666ff" points="733.4,-1012.8 732.59,-1023.36 739.81,-1015.61 733.4,-1012.8"/>
</g>
<!-- Metamodel::PackageHOW&#45;&gt;Metamodel::MethodDelegation -->
<g id="edge11" class="edge">
<title>Metamodel::PackageHOW&#45;&gt;Metamodel::MethodDelegation</title>
<path fill="none" stroke="#6666ff" d="M962.76,-488.68C976.86,-414.55 1029.87,-135.92 1046.96,-46.1"/>
<polygon fill="#6666ff" stroke="#6666ff" points="1050.43,-46.59 1048.86,-36.11 1043.55,-45.28 1050.43,-46.59"/>
</g>
<!-- Metamodel::RolePunning -->
<g id="node9" class="node">
<title>Metamodel::RolePunning</title>
<g id="a_node9"><a xlink:href="/type/Metamodel::RolePunning" xlink:title="Metamodel::RolePunning">
<ellipse fill="none" stroke="#6666ff" cx="1142.89" cy="-968.03" rx="109.68" ry="18"/>
<text text-anchor="middle" x="1142.89" y="-964.33" font-family="FreeSans" font-size="14.00" fill="#6666ff">Metamodel::RolePunning</text>
</a>
</g>
</g>
<!-- Metamodel::CurriedRoleHOW -->
<g id="node10" class="node">
<title>Metamodel::CurriedRoleHOW</title>
<g id="a_node10"><a xlink:href="/type/Metamodel::CurriedRoleHOW" xlink:title="Metamodel::CurriedRoleHOW">
<ellipse fill="none" stroke="#000000" cx="1387.49" cy="-334.88" rx="128.08" ry="18"/>
<text text-anchor="middle" x="1387.49" y="-331.18" font-family="FreeSans" font-size="14.00" fill="#000000">Metamodel::CurriedRoleHOW</text>
</a>
</g>
</g>
<!-- Metamodel::CurriedRoleHOW&#45;&gt;Metamodel::TypePretense -->
<g id="edge13" class="edge">
<title>Metamodel::CurriedRoleHOW&#45;&gt;Metamodel::TypePretense</title>
<path fill="none" stroke="#6666ff" d="M1366.09,-352.67C1296.79,-410.25 1083.05,-587.86 1083.05,-587.86 1083.05,-587.86 1023.44,-759.61 999.68,-828.07"/>
<polygon fill="#6666ff" stroke="#6666ff" points="996.29,-827.16 996.32,-837.76 1002.9,-829.46 996.29,-827.16"/>
</g>
<!-- Metamodel::CurriedRoleHOW&#45;&gt;Any -->
<g id="edge3" class="edge">
<title>Metamodel::CurriedRoleHOW&#45;&gt;Any</title>
<path fill="none" stroke="#000000" d="M1387.55,-353.03C1387.76,-417.13 1388.44,-633.18 1388.69,-710.86"/>
<polygon fill="#000000" stroke="#000000" points="1385.19,-710.88 1388.72,-720.87 1392.19,-710.86 1385.19,-710.88"/>
</g>
<!-- Metamodel::CurriedRoleHOW&#45;&gt;Metamodel::RolePunning -->
<g id="edge12" class="edge">
<title>Metamodel::CurriedRoleHOW&#45;&gt;Metamodel::RolePunning</title>
<path fill="none" stroke="#6666ff" d="M1381.72,-353.09C1363.32,-411.15 1307.22,-588.08 1307.22,-588.08 1307.22,-588.08 1192.38,-853.59 1154.7,-940.71"/>
<polygon fill="#6666ff" stroke="#6666ff" points="1151.46,-939.39 1150.7,-949.96 1157.88,-942.17 1151.46,-939.39"/>
</g>
<!-- Metamodel::BoolificationProtocol -->
<g id="node11" class="node">
<title>Metamodel::BoolificationProtocol</title>
<g id="a_node11"><a xlink:href="/type/Metamodel::BoolificationProtocol" xlink:title="Metamodel::BoolificationProtocol">
<ellipse fill="none" stroke="#6666ff" cx="139.09" cy="-496.42" rx="139.18" ry="18"/>
<text text-anchor="middle" x="139.09" y="-492.72" font-family="FreeSans" font-size="14.00" fill="#6666ff">Metamodel::BoolificationProtocol</text>
</a>
</g>
</g>
<!-- Metamodel::ParametricRoleGroupHOW -->
<g id="node12" class="node">
<title>Metamodel::ParametricRoleGroupHOW</title>
<g id="a_node12"><a xlink:href="/type/Metamodel::ParametricRoleGroupHOW" xlink:title="Metamodel::ParametricRoleGroupHOW">
<ellipse fill="none" stroke="#000000" cx="637.91" cy="-671.34" rx="166.27" ry="18"/>
<text text-anchor="middle" x="637.91" y="-667.64" font-family="FreeSans" font-size="14.00" fill="#000000">Metamodel::ParametricRoleGroupHOW</text>
</a>
</g>
</g>
<!-- Metamodel::ParametricRoleGroupHOW&#45;&gt;Metamodel::TypePretense -->
<g id="edge16" class="edge">
<title>Metamodel::ParametricRoleGroupHOW&#45;&gt;Metamodel::TypePretense</title>
<path fill="none" stroke="#6666ff" d="M671.67,-689.02C736.26,-722.84 877.14,-796.62 947.84,-833.64"/>
<polygon fill="#6666ff" stroke="#6666ff" points="946.44,-836.85 956.92,-838.39 949.69,-830.65 946.44,-836.85"/>
</g>
<!-- Metamodel::ParametricRoleGroupHOW&#45;&gt;Any -->
<g id="edge4" class="edge">
<title>Metamodel::ParametricRoleGroupHOW&#45;&gt;Any</title>
<path fill="none" stroke="#000000" d="M766.13,-682.89C941.48,-698.68 1246.34,-726.14 1351.7,-735.63"/>
<polygon fill="#000000" stroke="#000000" points="1351.56,-739.13 1361.84,-736.54 1352.19,-732.16 1351.56,-739.13"/>
</g>
<!-- Metamodel::ParametricRoleGroupHOW&#45;&gt;Metamodel::Naming -->
<g id="edge14" class="edge">
<title>Metamodel::ParametricRoleGroupHOW&#45;&gt;Metamodel::Naming</title>
<path fill="none" stroke="#6666ff" d="M647.18,-689.4C680.76,-754.79 796.14,-979.44 836.5,-1058.04"/>
<polygon fill="#6666ff" stroke="#6666ff" points="833.57,-1060 841.25,-1067.3 839.8,-1056.8 833.57,-1060"/>
</g>
<!-- Metamodel::ParametricRoleGroupHOW&#45;&gt;Metamodel::Stashing -->
<g id="edge15" class="edge">
<title>Metamodel::ParametricRoleGroupHOW&#45;&gt;Metamodel::Stashing</title>
<path fill="none" stroke="#6666ff" d="M642.15,-689.44C656.19,-749.34 701.2,-941.38 718.12,-1013.62"/>
<polygon fill="#6666ff" stroke="#6666ff" points="714.72,-1014.44 720.41,-1023.38 721.54,-1012.85 714.72,-1014.44"/>
</g>
<!-- Metamodel::ParametricRoleGroupHOW&#45;&gt;Metamodel::RolePunning -->
<g id="edge17" class="edge">
<title>Metamodel::ParametricRoleGroupHOW&#45;&gt;Metamodel::RolePunning</title>
<path fill="none" stroke="#6666ff" d="M660.98,-689.35C720.41,-735.74 874.08,-855.69 874.08,-855.69 874.08,-855.69 1015.32,-914.71 1093.04,-947.19"/>
<polygon fill="#6666ff" stroke="#6666ff" points="1092.07,-950.58 1102.64,-951.21 1094.77,-944.12 1092.07,-950.58"/>
</g>
<!-- Metamodel::ParametricRoleGroupHOW&#45;&gt;Metamodel::BoolificationProtocol -->
<g id="edge18" class="edge">
<title>Metamodel::ParametricRoleGroupHOW&#45;&gt;Metamodel::BoolificationProtocol</title>
<path fill="none" stroke="#6666ff" d="M588.71,-654.09C496.06,-621.6 296.13,-551.49 197.1,-516.76"/>
<polygon fill="#6666ff" stroke="#6666ff" points="198.14,-513.42 187.55,-513.41 195.82,-520.03 198.14,-513.42"/>
</g>
<!-- Metamodel::Versioning -->
<g id="node13" class="node">
<title>Metamodel::Versioning</title>
<g id="a_node13"><a xlink:href="/type/Metamodel::Versioning" xlink:title="Metamodel::Versioning">
<ellipse fill="none" stroke="#6666ff" cx="1737.16" cy="-1064.76" rx="100.98" ry="18"/>
<text text-anchor="middle" x="1737.16" y="-1061.06" font-family="FreeSans" font-size="14.00" fill="#6666ff">Metamodel::Versioning</text>
</a>
</g>
</g>
<!-- Metamodel::ModuleHOW -->
<g id="node14" class="node">
<title>Metamodel::ModuleHOW</title>
<g id="a_node14"><a xlink:href="/type/Metamodel::ModuleHOW" xlink:title="Metamodel::ModuleHOW">
<ellipse fill="none" stroke="#000000" cx="1195.13" cy="-587.97" rx="110.48" ry="18"/>
<text text-anchor="middle" x="1195.13" y="-584.27" font-family="FreeSans" font-size="14.00" fill="#000000">Metamodel::ModuleHOW</text>
</a>
</g>
</g>
<!-- Metamodel::ModuleHOW&#45;&gt;Metamodel::TypePretense -->
<g id="edge23" class="edge">
<title>Metamodel::ModuleHOW&#45;&gt;Metamodel::TypePretense</title>
<path fill="none" stroke="#6666ff" d="M1181.36,-605.96C1145.9,-652.26 1051.36,-775.72 1009.96,-829.79"/>
<polygon fill="#6666ff" stroke="#6666ff" points="1007.09,-827.78 1003.79,-837.84 1012.64,-832.03 1007.09,-827.78"/>
</g>
<!-- Metamodel::ModuleHOW&#45;&gt;Any -->
<g id="edge5" class="edge">
<title>Metamodel::ModuleHOW&#45;&gt;Any</title>
<path fill="none" stroke="#000000" d="M1218.11,-605.89C1254.43,-634.21 1324.9,-689.16 1362.94,-718.82"/>
<polygon fill="#000000" stroke="#000000" points="1360.94,-721.7 1370.98,-725.09 1365.25,-716.18 1360.94,-721.7"/>
</g>
<!-- Metamodel::ModuleHOW&#45;&gt;Metamodel::Naming -->
<g id="edge19" class="edge">
<title>Metamodel::ModuleHOW&#45;&gt;Metamodel::Naming</title>
<path fill="none" stroke="#6666ff" d="M1189.15,-605.96C1169.18,-666.01 1106.06,-855.81 1106.06,-855.81 1106.06,-855.81 943.51,-1001.92 877.73,-1061.05"/>
<polygon fill="#6666ff" stroke="#6666ff" points="875.3,-1058.53 870.2,-1067.81 879.98,-1063.73 875.3,-1058.53"/>
</g>
<!-- Metamodel::ModuleHOW&#45;&gt;Metamodel::Documenting -->
<g id="edge20" class="edge">
<title>Metamodel::ModuleHOW&#45;&gt;Metamodel::Documenting</title>
<path fill="none" stroke="#6666ff" d="M1213.32,-605.9C1269.75,-661.53 1442.03,-831.37 1507.63,-896.03"/>
<polygon fill="#6666ff" stroke="#6666ff" points="1505.5,-898.86 1515.08,-903.38 1510.42,-893.87 1505.5,-898.86"/>
</g>
<!-- Metamodel::ModuleHOW&#45;&gt;Metamodel::Stashing -->
<g id="edge22" class="edge">
<title>Metamodel::ModuleHOW&#45;&gt;Metamodel::Stashing</title>
<path fill="none" stroke="#6666ff" d="M1173.82,-605.74C1102.12,-665.54 874.08,-855.69 874.08,-855.69 874.08,-855.69 786.41,-964.67 745.37,-1015.68"/>
<polygon fill="#6666ff" stroke="#6666ff" points="742.52,-1013.65 738.97,-1023.64 747.97,-1018.04 742.52,-1013.65"/>
</g>
<!-- Metamodel::ModuleHOW&#45;&gt;Metamodel::MethodDelegation -->
<g id="edge24" class="edge">
<title>Metamodel::ModuleHOW&#45;&gt;Metamodel::MethodDelegation</title>
<path fill="none" stroke="#6666ff" d="M1190.62,-569.97C1169.97,-487.55 1084.35,-145.86 1059.25,-45.71"/>
<polygon fill="#6666ff" stroke="#6666ff" points="1062.64,-44.85 1056.82,-36 1055.85,-46.55 1062.64,-44.85"/>
</g>
<!-- Metamodel::ModuleHOW&#45;&gt;Metamodel::Versioning -->
<g id="edge21" class="edge">
<title>Metamodel::ModuleHOW&#45;&gt;Metamodel::Versioning</title>
<path fill="none" stroke="#6666ff" d="M1222.67,-605.63C1280.47,-642.7 1409.14,-725.2 1409.14,-725.2 1409.14,-725.2 1646.09,-921.55 1646.09,-921.55 1646.09,-921.55 1693.85,-996.66 1720.2,-1038.09"/>
<polygon fill="#6666ff" stroke="#6666ff" points="1717.3,-1040.06 1725.62,-1046.62 1723.21,-1036.3 1717.3,-1040.06"/>
</g>
<!-- Metamodel::MethodContainer -->
<g id="node15" class="node">
<title>Metamodel::MethodContainer</title>
<g id="a_node15"><a xlink:href="/type/Metamodel::MethodContainer" xlink:title="Metamodel::MethodContainer">
<ellipse fill="none" stroke="#6666ff" cx="1494.21" cy="-1820.37" rx="127.28" ry="18"/>
<text text-anchor="middle" x="1494.21" y="-1816.67" font-family="FreeSans" font-size="14.00" fill="#6666ff">Metamodel::MethodContainer</text>
</a>
</g>
</g>
<!-- Metamodel::PrivateMethodContainer -->
<g id="node16" class="node">
<title>Metamodel::PrivateMethodContainer</title>
<g id="a_node16"><a xlink:href="/type/Metamodel::PrivateMethodContainer" xlink:title="Metamodel::PrivateMethodContainer">
<ellipse fill="none" stroke="#6666ff" cx="1869.9" cy="-1453.4" rx="154.87" ry="18"/>
<text text-anchor="middle" x="1869.9" y="-1449.7" font-family="FreeSans" font-size="14.00" fill="#6666ff">Metamodel::PrivateMethodContainer</text>
</a>
</g>
</g>
<!-- Metamodel::MultiMethodContainer -->
<g id="node17" class="node">
<title>Metamodel::MultiMethodContainer</title>
<g id="a_node17"><a xlink:href="/type/Metamodel::MultiMethodContainer" xlink:title="Metamodel::MultiMethodContainer">
<ellipse fill="none" stroke="#6666ff" cx="1715.21" cy="-1671.54" rx="146.47" ry="18"/>
<text text-anchor="middle" x="1715.21" y="-1667.84" font-family="FreeSans" font-size="14.00" fill="#6666ff">Metamodel::MultiMethodContainer</text>
</a>
</g>
</g>
<!-- Metamodel::AttributeContainer -->
<g id="node18" class="node">
<title>Metamodel::AttributeContainer</title>
<g id="a_node18"><a xlink:href="/type/Metamodel::AttributeContainer" xlink:title="Metamodel::AttributeContainer">
<ellipse fill="none" stroke="#6666ff" cx="1229.8" cy="-1867.8" rx="129.98" ry="18"/>
<text text-anchor="middle" x="1229.8" y="-1864.1" font-family="FreeSans" font-size="14.00" fill="#6666ff">Metamodel::AttributeContainer</text>
</a>
</g>
</g>
<!-- Metamodel::RoleContainer -->
<g id="node19" class="node">
<title>Metamodel::RoleContainer</title>
<g id="a_node19"><a xlink:href="/type/Metamodel::RoleContainer" xlink:title="Metamodel::RoleContainer">
<ellipse fill="none" stroke="#6666ff" cx="759.77" cy="-1656.25" rx="115.88" ry="18"/>
<text text-anchor="middle" x="759.77" y="-1652.55" font-family="FreeSans" font-size="14.00" fill="#6666ff">Metamodel::RoleContainer</text>
</a>
</g>
</g>
<!-- Metamodel::MultipleInheritance -->
<g id="node20" class="node">
<title>Metamodel::MultipleInheritance</title>
<g id="a_node20"><a xlink:href="/type/Metamodel::MultipleInheritance" xlink:title="Metamodel::MultipleInheritance">
<ellipse fill="none" stroke="#6666ff" cx="972.88" cy="-1806.02" rx="133.78" ry="18"/>
<text text-anchor="middle" x="972.88" y="-1802.32" font-family="FreeSans" font-size="14.00" fill="#6666ff">Metamodel::MultipleInheritance</text>
</a>
</g>
</g>
<!-- Metamodel::ParametricRoleHOW -->
<g id="node21" class="node">
<title>Metamodel::ParametricRoleHOW</title>
<g id="a_node21"><a xlink:href="/type/Metamodel::ParametricRoleHOW" xlink:title="Metamodel::ParametricRoleHOW">
<ellipse fill="none" stroke="#000000" cx="1275.81" cy="-1342.39" rx="141.88" ry="18"/>
<text text-anchor="middle" x="1275.81" y="-1338.69" font-family="FreeSans" font-size="14.00" fill="#000000">Metamodel::ParametricRoleHOW</text>
</a>
</g>
</g>
<!-- Metamodel::ParametricRoleHOW&#45;&gt;Metamodel::TypePretense -->
<g id="edge35" class="edge">
<title>Metamodel::ParametricRoleHOW&#45;&gt;Metamodel::TypePretense</title>
<path fill="none" stroke="#6666ff" d="M1264.03,-1324.33C1215.21,-1249.52 1031.45,-967.89 1031.45,-967.89 1031.45,-967.89 1012.53,-916.63 1000.28,-883.42"/>
<polygon fill="#6666ff" stroke="#6666ff" points="1003.47,-881.94 996.72,-873.77 996.9,-884.36 1003.47,-881.94"/>
</g>
<!-- Metamodel::ParametricRoleHOW&#45;&gt;Any -->
<g id="edge6" class="edge">
<title>Metamodel::ParametricRoleHOW&#45;&gt;Any</title>
<path fill="none" stroke="#000000" d="M1279.19,-1324.33C1295.26,-1238.54 1363.89,-871.93 1383.52,-767.08"/>
<polygon fill="#000000" stroke="#000000" points="1387.01,-767.43 1385.41,-756.96 1380.13,-766.15 1387.01,-767.43"/>
</g>
<!-- Metamodel::ParametricRoleHOW&#45;&gt;Metamodel::Naming -->
<g id="edge25" class="edge">
<title>Metamodel::ParametricRoleHOW&#45;&gt;Metamodel::Naming</title>
<path fill="none" stroke="#6666ff" d="M1246.59,-1324.73C1171.27,-1279.22 970.67,-1158.02 887.5,-1107.76"/>
<polygon fill="#6666ff" stroke="#6666ff" points="889.26,-1104.73 878.89,-1102.56 885.64,-1110.73 889.26,-1104.73"/>
</g>
<!-- Metamodel::ParametricRoleHOW&#45;&gt;Metamodel::Documenting -->
<g id="edge26" class="edge">
<title>Metamodel::ParametricRoleHOW&#45;&gt;Metamodel::Documenting</title>
<path fill="none" stroke="#6666ff" d="M1286.88,-1324.3C1327.5,-1257.91 1468.5,-1027.41 1516.9,-948.3"/>
<polygon fill="#6666ff" stroke="#6666ff" points="1520.1,-949.78 1522.33,-939.42 1514.13,-946.13 1520.1,-949.78"/>
</g>
<!-- Metamodel::ParametricRoleHOW&#45;&gt;Metamodel::Stashing -->
<g id="edge34" class="edge">
<title>Metamodel::ParametricRoleHOW&#45;&gt;Metamodel::Stashing</title>
<path fill="none" stroke="#6666ff" d="M1240.52,-1324.9C1128.01,-1269.14 785.11,-1099.21 785.11,-1099.21 785.11,-1099.21 758.64,-1085.31 758.64,-1085.31 758.64,-1085.31 752.07,-1076.84 744.71,-1067.34"/>
<polygon fill="#6666ff" stroke="#6666ff" points="747.36,-1065.05 738.47,-1059.29 741.83,-1069.34 747.36,-1065.05"/>
</g>
<!-- Metamodel::ParametricRoleHOW&#45;&gt;Metamodel::RolePunning -->
<g id="edge36" class="edge">
<title>Metamodel::ParametricRoleHOW&#45;&gt;Metamodel::RolePunning</title>
<path fill="none" stroke="#6666ff" d="M1269.4,-1324.34C1247.95,-1263.93 1178.62,-1068.65 1152.74,-995.78"/>
<polygon fill="#6666ff" stroke="#6666ff" points="1156.03,-994.59 1149.39,-986.34 1149.44,-996.94 1156.03,-994.59"/>
</g>
<!-- Metamodel::ParametricRoleHOW&#45;&gt;Metamodel::Versioning -->
<g id="edge27" class="edge">
<title>Metamodel::ParametricRoleHOW&#45;&gt;Metamodel::Versioning</title>
<path fill="none" stroke="#6666ff" d="M1305.37,-1324.6C1386.13,-1276 1610.37,-1141.06 1699.72,-1087.29"/>
<polygon fill="#6666ff" stroke="#6666ff" points="1701.67,-1090.2 1708.43,-1082.04 1698.06,-1084.2 1701.67,-1090.2"/>
</g>
<!-- Metamodel::ParametricRoleHOW&#45;&gt;Metamodel::MethodContainer -->
<g id="edge28" class="edge">
<title>Metamodel::ParametricRoleHOW&#45;&gt;Metamodel::MethodContainer</title>
<path fill="none" stroke="#6666ff" d="M1284.11,-1360.55C1317.42,-1433.45 1441.59,-1705.21 1481.66,-1792.9"/>
<polygon fill="#6666ff" stroke="#6666ff" points="1478.57,-1794.56 1485.91,-1802.2 1484.94,-1791.65 1478.57,-1794.56"/>
</g>
<!-- Metamodel::ParametricRoleHOW&#45;&gt;Metamodel::PrivateMethodContainer -->
<g id="edge29" class="edge">
<title>Metamodel::ParametricRoleHOW&#45;&gt;Metamodel::PrivateMethodContainer</title>
<path fill="none" stroke="#6666ff" d="M1355.63,-1357.31C1465.4,-1377.82 1662.49,-1414.65 1778.2,-1436.27"/>
<polygon fill="#6666ff" stroke="#6666ff" points="1777.63,-1439.72 1788.1,-1438.12 1778.91,-1432.84 1777.63,-1439.72"/>
</g>
<!-- Metamodel::ParametricRoleHOW&#45;&gt;Metamodel::MultiMethodContainer -->
<g id="edge30" class="edge">
<title>Metamodel::ParametricRoleHOW&#45;&gt;Metamodel::MultiMethodContainer</title>
<path fill="none" stroke="#6666ff" d="M1299.75,-1360.32C1373.77,-1415.77 1599.01,-1584.5 1683.1,-1647.49"/>
<polygon fill="#6666ff" stroke="#6666ff" points="1681.15,-1650.4 1691.25,-1653.6 1685.35,-1644.8 1681.15,-1650.4"/>
</g>
<!-- Metamodel::ParametricRoleHOW&#45;&gt;Metamodel::AttributeContainer -->
<g id="edge31" class="edge">
<title>Metamodel::ParametricRoleHOW&#45;&gt;Metamodel::AttributeContainer</title>
<path fill="none" stroke="#6666ff" d="M1274.23,-1360.48C1267.41,-1438.32 1240.55,-1745.12 1232.25,-1839.81"/>
<polygon fill="#6666ff" stroke="#6666ff" points="1228.76,-1839.53 1231.38,-1849.79 1235.74,-1840.14 1228.76,-1839.53"/>
</g>
<!-- Metamodel::ParametricRoleHOW&#45;&gt;Metamodel::RoleContainer -->
<g id="edge32" class="edge">
<title>Metamodel::ParametricRoleHOW&#45;&gt;Metamodel::RoleContainer</title>
<path fill="none" stroke="#6666ff" d="M1246.59,-1360.17C1158.51,-1413.74 895.65,-1573.61 797.38,-1633.38"/>
<polygon fill="#6666ff" stroke="#6666ff" points="795.4,-1630.49 788.67,-1638.67 799.03,-1636.47 795.4,-1630.49"/>
</g>
<!-- Metamodel::ParametricRoleHOW&#45;&gt;Metamodel::MultipleInheritance -->
<g id="edge33" class="edge">
<title>Metamodel::ParametricRoleHOW&#45;&gt;Metamodel::MultipleInheritance</title>
<path fill="none" stroke="#6666ff" d="M1263.94,-1360.57C1217.18,-1432.12 1045.64,-1694.65 990.25,-1779.43"/>
<polygon fill="#6666ff" stroke="#6666ff" points="987.21,-1777.68 984.67,-1787.97 993.07,-1781.51 987.21,-1777.68"/>
</g>
</g>
</svg>
