<?xml version="1.0" encoding="UTF-8" standalone="no"?>
<!DOCTYPE svg PUBLIC "-//W3C//DTD SVG 1.1//EN"
 "http://www.w3.org/Graphics/SVG/1.1/DTD/svg11.dtd">
<!-- Generated by graphviz version 2.43.0 (0)
 -->
<!-- Title: perl6&#45;type&#45;graph Pages: 1 -->
<svg width="635pt" height="332pt"
 viewBox="0.00 0.00 634.75 332.00" xmlns="http://www.w3.org/2000/svg" xmlns:xlink="http://www.w3.org/1999/xlink">
<g id="graph0" class="graph" transform="scale(1 1) rotate(0) translate(4 328)">
<title>perl6&#45;type&#45;graph</title>
<polygon fill="white" stroke="transparent" points="-4,4 -4,-328 630.75,-328 630.75,4 -4,4"/>
<!-- Positional -->
<g id="node1" class="node">
<title>Positional</title>
<g id="a_node1"><a xlink:href="/type/Positional" xlink:title="Positional">
<ellipse fill="none" stroke="#6666ff" cx="355.75" cy="-162" rx="48.99" ry="18"/>
<text text-anchor="middle" x="355.75" y="-158.3" font-family="FreeSans" font-size="14.00" fill="#6666ff">Positional</text>
</a>
</g>
</g>
<!-- Mu -->
<g id="node2" class="node">
<title>Mu</title>
<g id="a_node2"><a xlink:href="/type/Mu" xlink:title="Mu">
<ellipse fill="none" stroke="#000000" cx="450.75" cy="-306" rx="27" ry="18"/>
<text text-anchor="middle" x="450.75" y="-302.3" font-family="FreeSans" font-size="14.00" fill="#000000">Mu</text>
</a>
</g>
</g>
<!-- Any -->
<g id="node3" class="node">
<title>Any</title>
<g id="a_node3"><a xlink:href="/type/Any" xlink:title="Any">
<ellipse fill="none" stroke="#000000" cx="450.75" cy="-234" rx="27" ry="18"/>
<text text-anchor="middle" x="450.75" y="-230.3" font-family="FreeSans" font-size="14.00" fill="#000000">Any</text>
</a>
</g>
</g>
<!-- Any&#45;&gt;Mu -->
<g id="edge1" class="edge">
<title>Any&#45;&gt;Mu</title>
<path fill="none" stroke="#000000" d="M450.75,-252.3C450.75,-260.02 450.75,-269.29 450.75,-277.89"/>
<polygon fill="#000000" stroke="#000000" points="447.25,-277.9 450.75,-287.9 454.25,-277.9 447.25,-277.9"/>
</g>
<!-- Stringy -->
<g id="node4" class="node">
<title>Stringy</title>
<g id="a_node4"><a xlink:href="/type/Stringy" xlink:title="Stringy">
<ellipse fill="none" stroke="#6666ff" cx="250.75" cy="-162" rx="38.19" ry="18"/>
<text text-anchor="middle" x="250.75" y="-158.3" font-family="FreeSans" font-size="14.00" fill="#6666ff">Stringy</text>
</a>
</g>
</g>
<!-- Uni -->
<g id="node5" class="node">
<title>Uni</title>
<g id="a_node5"><a xlink:href="/type/Uni" xlink:title="Uni">
<ellipse fill="none" stroke="#000000" cx="194.75" cy="-90" rx="27" ry="18"/>
<text text-anchor="middle" x="194.75" y="-86.3" font-family="FreeSans" font-size="14.00" fill="#000000">Uni</text>
</a>
</g>
</g>
<!-- Uni&#45;&gt;Positional -->
<g id="edge13" class="edge">
<title>Uni&#45;&gt;Positional</title>
<path fill="none" stroke="#6666ff" d="M216.8,-100.59C242.32,-111.68 284.84,-130.17 316.14,-143.78"/>
<polygon fill="#6666ff" stroke="#6666ff" points="314.9,-147.06 325.46,-147.83 317.69,-140.64 314.9,-147.06"/>
</g>
<!-- Uni&#45;&gt;Any -->
<g id="edge2" class="edge">
<title>Uni&#45;&gt;Any</title>
<path fill="none" stroke="#000000" d="M196.48,-108.16C199.1,-134.02 203.75,-180 203.75,-180 203.75,-180 347.05,-210.75 415.35,-225.4"/>
<polygon fill="#000000" stroke="#000000" points="414.73,-228.85 425.24,-227.53 416.2,-222.01 414.73,-228.85"/>
</g>
<!-- Uni&#45;&gt;Stringy -->
<g id="edge14" class="edge">
<title>Uni&#45;&gt;Stringy</title>
<path fill="none" stroke="#6666ff" d="M206.9,-106.19C214.11,-115.2 223.41,-126.82 231.58,-137.05"/>
<polygon fill="#6666ff" stroke="#6666ff" points="228.86,-139.24 237.84,-144.87 234.33,-134.87 228.86,-139.24"/>
</g>
<!-- Cool -->
<g id="node6" class="node">
<title>Cool</title>
<g id="a_node6"><a xlink:href="/type/Cool" xlink:title="Cool">
<ellipse fill="none" stroke="#000000" cx="450.75" cy="-162" rx="28.7" ry="18"/>
<text text-anchor="middle" x="450.75" y="-158.3" font-family="FreeSans" font-size="14.00" fill="#000000">Cool</text>
</a>
</g>
</g>
<!-- Cool&#45;&gt;Any -->
<g id="edge3" class="edge">
<title>Cool&#45;&gt;Any</title>
<path fill="none" stroke="#000000" d="M450.75,-180.3C450.75,-188.02 450.75,-197.29 450.75,-205.89"/>
<polygon fill="#000000" stroke="#000000" points="447.25,-205.9 450.75,-215.9 454.25,-205.9 447.25,-205.9"/>
</g>
<!-- Iterable -->
<g id="node7" class="node">
<title>Iterable</title>
<g id="a_node7"><a xlink:href="/type/Iterable" xlink:title="Iterable">
<ellipse fill="none" stroke="#6666ff" cx="537.75" cy="-162" rx="40.09" ry="18"/>
<text text-anchor="middle" x="537.75" y="-158.3" font-family="FreeSans" font-size="14.00" fill="#6666ff">Iterable</text>
</a>
</g>
</g>
<!-- Range -->
<g id="node8" class="node">
<title>Range</title>
<g id="a_node8"><a xlink:href="/type/Range" xlink:title="Range">
<ellipse fill="none" stroke="#000000" cx="527.75" cy="-90" rx="36.29" ry="18"/>
<text text-anchor="middle" x="527.75" y="-86.3" font-family="FreeSans" font-size="14.00" fill="#000000">Range</text>
</a>
</g>
</g>
<!-- Range&#45;&gt;Positional -->
<g id="edge15" class="edge">
<title>Range&#45;&gt;Positional</title>
<path fill="none" stroke="#6666ff" d="M500.49,-102.09C472.59,-113.45 428.89,-131.23 396.8,-144.29"/>
<polygon fill="#6666ff" stroke="#6666ff" points="395.19,-141.17 387.25,-148.18 397.83,-147.65 395.19,-141.17"/>
</g>
<!-- Range&#45;&gt;Cool -->
<g id="edge4" class="edge">
<title>Range&#45;&gt;Cool</title>
<path fill="none" stroke="#000000" d="M511.04,-106.19C500.15,-116.08 485.8,-129.13 473.83,-140.01"/>
<polygon fill="#000000" stroke="#000000" points="471.42,-137.48 466.37,-146.79 476.13,-142.66 471.42,-137.48"/>
</g>
<!-- Range&#45;&gt;Iterable -->
<g id="edge16" class="edge">
<title>Range&#45;&gt;Iterable</title>
<path fill="none" stroke="#6666ff" d="M530.22,-108.3C531.32,-116.02 532.65,-125.29 533.87,-133.89"/>
<polygon fill="#6666ff" stroke="#6666ff" points="530.42,-134.49 535.3,-143.9 537.35,-133.5 530.42,-134.49"/>
</g>
<!-- List -->
<g id="node9" class="node">
<title>List</title>
<g id="a_node9"><a xlink:href="/type/List" xlink:title="List">
<ellipse fill="none" stroke="#000000" cx="446.75" cy="-90" rx="27" ry="18"/>
<text text-anchor="middle" x="446.75" y="-86.3" font-family="FreeSans" font-size="14.00" fill="#000000">List</text>
</a>
</g>
</g>
<!-- List&#45;&gt;Positional -->
<g id="edge17" class="edge">
<title>List&#45;&gt;Positional</title>
<path fill="none" stroke="#6666ff" d="M429.63,-104.17C416.77,-114.06 398.88,-127.82 383.92,-139.33"/>
<polygon fill="#6666ff" stroke="#6666ff" points="381.76,-136.58 375.96,-145.45 386.02,-142.13 381.76,-136.58"/>
</g>
<!-- List&#45;&gt;Cool -->
<g id="edge5" class="edge">
<title>List&#45;&gt;Cool</title>
<path fill="none" stroke="#000000" d="M447.74,-108.3C448.18,-116.02 448.71,-125.29 449.2,-133.89"/>
<polygon fill="#000000" stroke="#000000" points="445.7,-134.11 449.77,-143.9 452.69,-133.71 445.7,-134.11"/>
</g>
<!-- List&#45;&gt;Iterable -->
<g id="edge18" class="edge">
<title>List&#45;&gt;Iterable</title>
<path fill="none" stroke="#6666ff" d="M463.86,-104.17C476.9,-114.19 495.1,-128.19 510.18,-139.79"/>
<polygon fill="#6666ff" stroke="#6666ff" points="508.12,-142.63 518.18,-145.95 512.39,-137.08 508.12,-142.63"/>
</g>
<!-- Blob -->
<g id="node10" class="node">
<title>Blob</title>
<g id="a_node10"><a xlink:href="/type/Blob" xlink:title="Blob">
<ellipse fill="none" stroke="#6666ff" cx="356.75" cy="-90" rx="28.7" ry="18"/>
<text text-anchor="middle" x="356.75" y="-86.3" font-family="FreeSans" font-size="14.00" fill="#6666ff">Blob</text>
</a>
</g>
</g>
<!-- Blob&#45;&gt;Positional -->
<g id="edge19" class="edge">
<title>Blob&#45;&gt;Positional</title>
<path fill="none" stroke="#6666ff" d="M356.5,-108.3C356.39,-116.02 356.26,-125.29 356.13,-133.89"/>
<polygon fill="#6666ff" stroke="#6666ff" points="352.63,-133.85 355.99,-143.9 359.63,-133.95 352.63,-133.85"/>
</g>
<!-- Blob&#45;&gt;Stringy -->
<g id="edge20" class="edge">
<title>Blob&#45;&gt;Stringy</title>
<path fill="none" stroke="#6666ff" d="M337.8,-103.51C321.93,-113.99 299.01,-129.13 280.67,-141.24"/>
<polygon fill="#6666ff" stroke="#6666ff" points="278.5,-138.48 272.08,-146.91 282.36,-144.32 278.5,-138.48"/>
</g>
<!-- NFKD -->
<g id="node11" class="node">
<title>NFKD</title>
<g id="a_node11"><a xlink:href="/type/NFKD" xlink:title="NFKD">
<ellipse fill="none" stroke="#000000" cx="35.75" cy="-18" rx="36" ry="18"/>
<text text-anchor="middle" x="35.75" y="-14.3" font-family="FreeSans" font-size="14.00" fill="#000000">NFKD</text>
</a>
</g>
</g>
<!-- NFKD&#45;&gt;Uni -->
<g id="edge6" class="edge">
<title>NFKD&#45;&gt;Uni</title>
<path fill="none" stroke="#000000" d="M62,-30.56C89.74,-42.77 133.48,-62.03 163.1,-75.07"/>
<polygon fill="#000000" stroke="#000000" points="162,-78.41 172.56,-79.23 164.82,-72 162,-78.41"/>
</g>
<!-- NFC -->
<g id="node12" class="node">
<title>NFC</title>
<g id="a_node12"><a xlink:href="/type/NFC" xlink:title="NFC">
<ellipse fill="none" stroke="#000000" cx="118.75" cy="-18" rx="29.5" ry="18"/>
<text text-anchor="middle" x="118.75" y="-14.3" font-family="FreeSans" font-size="14.00" fill="#000000">NFC</text>
</a>
</g>
</g>
<!-- NFC&#45;&gt;Uni -->
<g id="edge7" class="edge">
<title>NFC&#45;&gt;Uni</title>
<path fill="none" stroke="#000000" d="M134.49,-33.5C145.34,-43.49 159.91,-56.91 172.01,-68.06"/>
<polygon fill="#000000" stroke="#000000" points="169.81,-70.79 179.54,-74.99 174.55,-65.64 169.81,-70.79"/>
</g>
<!-- NFD -->
<g id="node13" class="node">
<title>NFD</title>
<g id="a_node13"><a xlink:href="/type/NFD" xlink:title="NFD">
<ellipse fill="none" stroke="#000000" cx="194.75" cy="-18" rx="29.5" ry="18"/>
<text text-anchor="middle" x="194.75" y="-14.3" font-family="FreeSans" font-size="14.00" fill="#000000">NFD</text>
</a>
</g>
</g>
<!-- NFD&#45;&gt;Uni -->
<g id="edge8" class="edge">
<title>NFD&#45;&gt;Uni</title>
<path fill="none" stroke="#000000" d="M194.75,-36.3C194.75,-44.02 194.75,-53.29 194.75,-61.89"/>
<polygon fill="#000000" stroke="#000000" points="191.25,-61.9 194.75,-71.9 198.25,-61.9 191.25,-61.9"/>
</g>
<!-- NFKC -->
<g id="node14" class="node">
<title>NFKC</title>
<g id="a_node14"><a xlink:href="/type/NFKC" xlink:title="NFKC">
<ellipse fill="none" stroke="#000000" cx="277.75" cy="-18" rx="36" ry="18"/>
<text text-anchor="middle" x="277.75" y="-14.3" font-family="FreeSans" font-size="14.00" fill="#000000">NFKC</text>
</a>
</g>
</g>
<!-- NFKC&#45;&gt;Uni -->
<g id="edge9" class="edge">
<title>NFKC&#45;&gt;Uni</title>
<path fill="none" stroke="#000000" d="M260.14,-33.85C248.09,-44.02 231.94,-57.63 218.71,-68.79"/>
<polygon fill="#000000" stroke="#000000" points="216.3,-66.24 210.92,-75.36 220.82,-71.59 216.3,-66.24"/>
</g>
<!-- Slip -->
<g id="node15" class="node">
<title>Slip</title>
<g id="a_node15"><a xlink:href="/type/Slip" xlink:title="Slip">
<ellipse fill="none" stroke="#000000" cx="521.75" cy="-18" rx="27" ry="18"/>
<text text-anchor="middle" x="521.75" y="-14.3" font-family="FreeSans" font-size="14.00" fill="#000000">Slip</text>
</a>
</g>
</g>
<!-- Slip&#45;&gt;List -->
<g id="edge10" class="edge">
<title>Slip&#45;&gt;List</title>
<path fill="none" stroke="#000000" d="M506.57,-33.17C495.9,-43.13 481.43,-56.63 469.39,-67.86"/>
<polygon fill="#000000" stroke="#000000" points="466.82,-65.47 461.9,-74.86 471.6,-70.59 466.82,-65.47"/>
</g>
<!-- Array -->
<g id="node16" class="node">
<title>Array</title>
<g id="a_node16"><a xlink:href="/type/Array" xlink:title="Array">
<ellipse fill="none" stroke="#000000" cx="444.75" cy="-18" rx="31.7" ry="18"/>
<text text-anchor="middle" x="444.75" y="-14.3" font-family="FreeSans" font-size="14.00" fill="#000000">Array</text>
</a>
</g>
</g>
<!-- Array&#45;&gt;List -->
<g id="edge11" class="edge">
<title>Array&#45;&gt;List</title>
<path fill="none" stroke="#000000" d="M445.24,-36.3C445.46,-44.02 445.73,-53.29 445.97,-61.89"/>
<polygon fill="#000000" stroke="#000000" points="442.47,-62 446.26,-71.9 449.47,-61.8 442.47,-62"/>
</g>
<!-- utf8 -->
<g id="node17" class="node">
<title>utf8</title>
<g id="a_node17"><a xlink:href="/type/utf8" xlink:title="utf8">
<ellipse fill="none" stroke="#000000" cx="599.75" cy="-18" rx="27" ry="18"/>
<text text-anchor="middle" x="599.75" y="-14.3" font-family="FreeSans" font-size="14.00" fill="#000000">utf8</text>
</a>
</g>
</g>
<!-- utf8&#45;&gt;Any -->
<g id="edge12" class="edge">
<title>utf8&#45;&gt;Any</title>
<path fill="none" stroke="#000000" d="M598.36,-36.23C595,-77.76 586.75,-180 586.75,-180 586.75,-180 523.15,-204.79 482.93,-220.46"/>
<polygon fill="#000000" stroke="#000000" points="481.56,-217.24 473.51,-224.13 484.1,-223.76 481.56,-217.24"/>
</g>
<!-- utf8&#45;&gt;Blob -->
<g id="edge21" class="edge">
<title>utf8&#45;&gt;Blob</title>
<path fill="none" stroke="#6666ff" d="M577.27,-28.1C567.29,-32.14 557.75,-36 557.75,-36 557.75,-36 410.75,-72 410.75,-72 410.75,-72 402.07,-74.73 391.68,-78"/>
<polygon fill="#6666ff" stroke="#6666ff" points="390.34,-74.76 381.85,-81.1 392.44,-81.43 390.34,-74.76"/>
</g>
<!-- Buf -->
<g id="node18" class="node">
<title>Buf</title>
<g id="a_node18"><a xlink:href="/type/Buf" xlink:title="Buf">
<ellipse fill="none" stroke="#6666ff" cx="358.75" cy="-18" rx="27" ry="18"/>
<text text-anchor="middle" x="358.75" y="-14.3" font-family="FreeSans" font-size="14.00" fill="#6666ff">Buf</text>
</a>
</g>
</g>
<!-- Buf&#45;&gt;Blob -->
<g id="edge22" class="edge">
<title>Buf&#45;&gt;Blob</title>
<path fill="none" stroke="#6666ff" d="M358.25,-36.3C358.03,-44.02 357.77,-53.29 357.52,-61.89"/>
<polygon fill="#6666ff" stroke="#6666ff" points="354.02,-61.8 357.24,-71.9 361.02,-62 354.02,-61.8"/>
</g>
</g>
</svg>
