<?xml version="1.0" encoding="UTF-8" standalone="no"?>
<!DOCTYPE svg PUBLIC "-//W3C//DTD SVG 1.1//EN"
 "http://www.w3.org/Graphics/SVG/1.1/DTD/svg11.dtd">
<!-- Generated by graphviz version 2.43.0 (0)
 -->
<!-- Title: perl6&#45;type&#45;graph Pages: 1 -->
<svg width="213pt" height="404pt"
 viewBox="0.00 0.00 212.54 404.00" xmlns="http://www.w3.org/2000/svg" xmlns:xlink="http://www.w3.org/1999/xlink">
<g id="graph0" class="graph" transform="scale(1 1) rotate(0) translate(4 400)">
<title>perl6&#45;type&#45;graph</title>
<polygon fill="white" stroke="transparent" points="-4,4 -4,-400 208.54,-400 208.54,4 -4,4"/>
<!-- X::IO::Unlink -->
<g id="node1" class="node">
<title>X::IO::Unlink</title>
<g id="a_node1"><a xlink:href="/type/X::IO::Unlink" xlink:title="X::IO::Unlink">
<ellipse fill="none" stroke="#000000" cx="61.09" cy="-18" rx="61.19" ry="18"/>
<text text-anchor="middle" x="61.09" y="-14.3" font-family="FreeSans" font-size="14.00" fill="#000000">X::IO::Unlink</text>
</a>
</g>
</g>
<!-- Exception -->
<g id="node4" class="node">
<title>Exception</title>
<g id="a_node4"><a xlink:href="/type/Exception" xlink:title="Exception">
<ellipse fill="none" stroke="#000000" cx="84.09" cy="-234" rx="49.29" ry="18"/>
<text text-anchor="middle" x="84.09" y="-230.3" font-family="FreeSans" font-size="14.00" fill="#000000">Exception</text>
</a>
</g>
</g>
<!-- X::IO::Unlink&#45;&gt;Exception -->
<g id="edge1" class="edge">
<title>X::IO::Unlink&#45;&gt;Exception</title>
<path fill="none" stroke="#000000" d="M59.06,-36.15C59.51,-73.34 68.74,-161.63 76.57,-206.23"/>
<polygon fill="#000000" stroke="#000000" points="73.13,-206.88 78.42,-216.06 80.01,-205.59 73.13,-206.88"/>
</g>
<!-- X::IO::Unlink&#45;&gt;Exception -->
<g id="edge2" class="edge">
<title>X::IO::Unlink&#45;&gt;Exception</title>
<path fill="none" stroke="#000000" d="M66.82,-36.15C74.33,-73.17 84.02,-160.82 85.84,-205.61"/>
<polygon fill="#000000" stroke="#000000" points="82.35,-205.87 86.13,-215.77 89.35,-205.67 82.35,-205.87"/>
</g>
<!-- X::IO -->
<g id="node6" class="node">
<title>X::IO</title>
<g id="a_node6"><a xlink:href="/type/X::IO" xlink:title="X::IO">
<ellipse fill="none" stroke="#6666ff" cx="129.09" cy="-90" rx="31.4" ry="18"/>
<text text-anchor="middle" x="129.09" y="-86.3" font-family="FreeSans" font-size="14.00" fill="#6666ff">X::IO</text>
</a>
</g>
</g>
<!-- X::IO::Unlink&#45;&gt;X::IO -->
<g id="edge7" class="edge">
<title>X::IO::Unlink&#45;&gt;X::IO</title>
<path fill="none" stroke="#6666ff" d="M77.21,-35.59C86.22,-44.87 97.58,-56.56 107.37,-66.64"/>
<polygon fill="#6666ff" stroke="#6666ff" points="105.01,-69.23 114.49,-73.96 110.03,-64.35 105.01,-69.23"/>
</g>
<!-- Mu -->
<g id="node2" class="node">
<title>Mu</title>
<g id="a_node2"><a xlink:href="/type/Mu" xlink:title="Mu">
<ellipse fill="none" stroke="#000000" cx="84.09" cy="-378" rx="27" ry="18"/>
<text text-anchor="middle" x="84.09" y="-374.3" font-family="FreeSans" font-size="14.00" fill="#000000">Mu</text>
</a>
</g>
</g>
<!-- Any -->
<g id="node3" class="node">
<title>Any</title>
<g id="a_node3"><a xlink:href="/type/Any" xlink:title="Any">
<ellipse fill="none" stroke="#000000" cx="84.09" cy="-306" rx="27" ry="18"/>
<text text-anchor="middle" x="84.09" y="-302.3" font-family="FreeSans" font-size="14.00" fill="#000000">Any</text>
</a>
</g>
</g>
<!-- Any&#45;&gt;Mu -->
<g id="edge3" class="edge">
<title>Any&#45;&gt;Mu</title>
<path fill="none" stroke="#000000" d="M84.09,-324.3C84.09,-332.02 84.09,-341.29 84.09,-349.89"/>
<polygon fill="#000000" stroke="#000000" points="80.59,-349.9 84.09,-359.9 87.59,-349.9 80.59,-349.9"/>
</g>
<!-- Exception&#45;&gt;Any -->
<g id="edge4" class="edge">
<title>Exception&#45;&gt;Any</title>
<path fill="none" stroke="#000000" d="M84.09,-252.3C84.09,-260.02 84.09,-269.29 84.09,-277.89"/>
<polygon fill="#000000" stroke="#000000" points="80.59,-277.9 84.09,-287.9 87.59,-277.9 80.59,-277.9"/>
</g>
<!-- X::OS -->
<g id="node5" class="node">
<title>X::OS</title>
<g id="a_node5"><a xlink:href="/type/X::OS" xlink:title="X::OS">
<ellipse fill="none" stroke="#6666ff" cx="170.09" cy="-162" rx="34.39" ry="18"/>
<text text-anchor="middle" x="170.09" y="-158.3" font-family="FreeSans" font-size="14.00" fill="#6666ff">X::OS</text>
</a>
</g>
</g>
<!-- X::OS&#45;&gt;Exception -->
<g id="edge5" class="edge">
<title>X::OS&#45;&gt;Exception</title>
<path fill="none" stroke="#000000" d="M152.28,-177.5C140.46,-187.12 124.73,-199.93 111.35,-210.81"/>
<polygon fill="#000000" stroke="#000000" points="108.93,-208.27 103.39,-217.3 113.35,-213.7 108.93,-208.27"/>
</g>
<!-- X::IO&#45;&gt;Exception -->
<g id="edge6" class="edge">
<title>X::IO&#45;&gt;Exception</title>
<path fill="none" stroke="#000000" d="M123.76,-107.85C116.08,-132.06 101.86,-176.95 92.69,-205.87"/>
<polygon fill="#000000" stroke="#000000" points="89.25,-205.14 89.57,-215.73 95.92,-207.26 89.25,-205.14"/>
</g>
<!-- X::IO&#45;&gt;X::OS -->
<g id="edge8" class="edge">
<title>X::IO&#45;&gt;X::OS</title>
<path fill="none" stroke="#6666ff" d="M138.6,-107.24C143.55,-115.68 149.71,-126.2 155.27,-135.69"/>
<polygon fill="#6666ff" stroke="#6666ff" points="152.28,-137.51 160.35,-144.37 158.32,-133.97 152.28,-137.51"/>
</g>
</g>
</svg>
