<?xml version="1.0" encoding="UTF-8" standalone="no"?>
<!DOCTYPE svg PUBLIC "-//W3C//DTD SVG 1.1//EN"
 "http://www.w3.org/Graphics/SVG/1.1/DTD/svg11.dtd">
<!-- Generated by graphviz version 2.43.0 (0)
 -->
<!-- Title: perl6&#45;type&#45;graph Pages: 1 -->
<svg width="750pt" height="718pt"
 viewBox="0.00 0.00 750.03 718.15" xmlns="http://www.w3.org/2000/svg" xmlns:xlink="http://www.w3.org/1999/xlink">
<g id="graph0" class="graph" transform="scale(1 1) rotate(0) translate(4 714.15)">
<title>perl6&#45;type&#45;graph</title>
<polygon fill="white" stroke="transparent" points="-4,4 -4,-714.15 746.03,-714.15 746.03,4 -4,4"/>
<!-- Metamodel::MethodDelegation -->
<g id="node1" class="node">
<title>Metamodel::MethodDelegation</title>
<g id="a_node1"><a xlink:href="/type/Metamodel::MethodDelegation" xlink:title="Metamodel::MethodDelegation">
<ellipse fill="none" stroke="#6666ff" cx="132.7" cy="-386.44" rx="131.08" ry="18"/>
<text text-anchor="middle" x="132.7" y="-382.74" font-family="FreeSans" font-size="14.00" fill="#6666ff">Metamodel::MethodDelegation</text>
</a>
</g>
</g>
<!-- Mu -->
<g id="node2" class="node">
<title>Mu</title>
<g id="a_node2"><a xlink:href="/type/Mu" xlink:title="Mu">
<ellipse fill="none" stroke="#000000" cx="649.37" cy="-18" rx="27" ry="18"/>
<text text-anchor="middle" x="649.37" y="-14.3" font-family="FreeSans" font-size="14.00" fill="#000000">Mu</text>
</a>
</g>
</g>
<!-- Any -->
<g id="node3" class="node">
<title>Any</title>
<g id="a_node3"><a xlink:href="/type/Any" xlink:title="Any">
<ellipse fill="none" stroke="#000000" cx="500.91" cy="-216.83" rx="27" ry="18"/>
<text text-anchor="middle" x="500.91" y="-213.13" font-family="FreeSans" font-size="14.00" fill="#000000">Any</text>
</a>
</g>
</g>
<!-- Any&#45;&gt;Mu -->
<g id="edge1" class="edge">
<title>Any&#45;&gt;Mu</title>
<path fill="none" stroke="#000000" d="M513.06,-200.56C539.11,-165.66 600.48,-83.47 631.2,-42.34"/>
<polygon fill="#000000" stroke="#000000" points="634.08,-44.32 637.26,-34.22 628.48,-40.14 634.08,-44.32"/>
</g>
<!-- Metamodel::Naming -->
<g id="node4" class="node">
<title>Metamodel::Naming</title>
<g id="a_node4"><a xlink:href="/type/Metamodel::Naming" xlink:title="Metamodel::Naming">
<ellipse fill="none" stroke="#6666ff" cx="341.94" cy="-692.15" rx="90.18" ry="18"/>
<text text-anchor="middle" x="341.94" y="-688.45" font-family="FreeSans" font-size="14.00" fill="#6666ff">Metamodel::Naming</text>
</a>
</g>
</g>
<!-- Metamodel::Documenting -->
<g id="node5" class="node">
<title>Metamodel::Documenting</title>
<g id="a_node5"><a xlink:href="/type/Metamodel::Documenting" xlink:title="Metamodel::Documenting">
<ellipse fill="none" stroke="#6666ff" cx="529.44" cy="-648.15" rx="111.28" ry="18"/>
<text text-anchor="middle" x="529.44" y="-644.45" font-family="FreeSans" font-size="14.00" fill="#6666ff">Metamodel::Documenting</text>
</a>
</g>
</g>
<!-- Metamodel::Versioning -->
<g id="node6" class="node">
<title>Metamodel::Versioning</title>
<g id="a_node6"><a xlink:href="/type/Metamodel::Versioning" xlink:title="Metamodel::Versioning">
<ellipse fill="none" stroke="#6666ff" cx="100.74" cy="-630.77" rx="100.98" ry="18"/>
<text text-anchor="middle" x="100.74" y="-627.07" font-family="FreeSans" font-size="14.00" fill="#6666ff">Metamodel::Versioning</text>
</a>
</g>
</g>
<!-- Metamodel::Stashing -->
<g id="node7" class="node">
<title>Metamodel::Stashing</title>
<g id="a_node7"><a xlink:href="/type/Metamodel::Stashing" xlink:title="Metamodel::Stashing">
<ellipse fill="none" stroke="#6666ff" cx="242.3" cy="-232.84" rx="93.68" ry="18"/>
<text text-anchor="middle" x="242.3" y="-229.14" font-family="FreeSans" font-size="14.00" fill="#6666ff">Metamodel::Stashing</text>
</a>
</g>
</g>
<!-- Metamodel::TypePretense -->
<g id="node8" class="node">
<title>Metamodel::TypePretense</title>
<g id="a_node8"><a xlink:href="/type/Metamodel::TypePretense" xlink:title="Metamodel::TypePretense">
<ellipse fill="none" stroke="#6666ff" cx="627.64" cy="-475.96" rx="114.28" ry="18"/>
<text text-anchor="middle" x="627.64" y="-472.26" font-family="FreeSans" font-size="14.00" fill="#6666ff">Metamodel::TypePretense</text>
</a>
</g>
</g>
<!-- Metamodel::ModuleHOW -->
<g id="node9" class="node">
<title>Metamodel::ModuleHOW</title>
<g id="a_node9"><a xlink:href="/type/Metamodel::ModuleHOW" xlink:title="Metamodel::ModuleHOW">
<ellipse fill="none" stroke="#000000" cx="340.34" cy="-469.74" rx="110.48" ry="18"/>
<text text-anchor="middle" x="340.34" y="-466.04" font-family="FreeSans" font-size="14.00" fill="#000000">Metamodel::ModuleHOW</text>
</a>
</g>
</g>
<!-- Metamodel::ModuleHOW&#45;&gt;Metamodel::MethodDelegation -->
<g id="edge9" class="edge">
<title>Metamodel::ModuleHOW&#45;&gt;Metamodel::MethodDelegation</title>
<path fill="none" stroke="#6666ff" d="M298.32,-452.88C265.61,-439.76 220.03,-421.47 184.96,-407.4"/>
<polygon fill="#6666ff" stroke="#6666ff" points="185.96,-404.03 175.37,-403.55 183.35,-410.53 185.96,-404.03"/>
</g>
<!-- Metamodel::ModuleHOW&#45;&gt;Any -->
<g id="edge2" class="edge">
<title>Metamodel::ModuleHOW&#45;&gt;Any</title>
<path fill="none" stroke="#000000" d="M328.39,-451.75C317.53,-435.42 303.21,-413.86 303.21,-413.86 303.21,-413.86 426.45,-291.04 478.33,-239.34"/>
<polygon fill="#000000" stroke="#000000" points="481.11,-241.5 485.73,-231.96 476.17,-236.54 481.11,-241.5"/>
</g>
<!-- Metamodel::ModuleHOW&#45;&gt;Metamodel::Naming -->
<g id="edge4" class="edge">
<title>Metamodel::ModuleHOW&#45;&gt;Metamodel::Naming</title>
<path fill="none" stroke="#6666ff" d="M340.47,-487.94C340.75,-526.65 341.4,-617.38 341.73,-663.76"/>
<polygon fill="#6666ff" stroke="#6666ff" points="338.24,-664.04 341.81,-674.01 345.24,-663.99 338.24,-664.04"/>
</g>
<!-- Metamodel::ModuleHOW&#45;&gt;Metamodel::Documenting -->
<g id="edge5" class="edge">
<title>Metamodel::ModuleHOW&#45;&gt;Metamodel::Documenting</title>
<path fill="none" stroke="#6666ff" d="M359.16,-487.5C393.06,-519.48 464.42,-586.8 503.13,-623.32"/>
<polygon fill="#6666ff" stroke="#6666ff" points="500.74,-625.88 510.41,-630.2 505.54,-620.79 500.74,-625.88"/>
</g>
<!-- Metamodel::ModuleHOW&#45;&gt;Metamodel::Versioning -->
<g id="edge6" class="edge">
<title>Metamodel::ModuleHOW&#45;&gt;Metamodel::Versioning</title>
<path fill="none" stroke="#6666ff" d="M314.24,-487.28C270.85,-516.44 183.87,-574.9 135.39,-607.49"/>
<polygon fill="#6666ff" stroke="#6666ff" points="133.15,-604.77 126.81,-613.25 137.06,-610.58 133.15,-604.77"/>
</g>
<!-- Metamodel::ModuleHOW&#45;&gt;Metamodel::Stashing -->
<g id="edge7" class="edge">
<title>Metamodel::ModuleHOW&#45;&gt;Metamodel::Stashing</title>
<path fill="none" stroke="#6666ff" d="M328.39,-451.75C317.53,-435.42 303.21,-413.86 303.21,-413.86 303.21,-413.86 268.69,-311.27 251.62,-260.55"/>
<polygon fill="#6666ff" stroke="#6666ff" points="254.87,-259.22 248.36,-250.86 248.24,-261.45 254.87,-259.22"/>
</g>
<!-- Metamodel::ModuleHOW&#45;&gt;Metamodel::TypePretense -->
<g id="edge8" class="edge">
<title>Metamodel::ModuleHOW&#45;&gt;Metamodel::TypePretense</title>
<path fill="none" stroke="#6666ff" d="M450.18,-472.12C467.66,-472.49 485.85,-472.89 503.63,-473.27"/>
<polygon fill="#6666ff" stroke="#6666ff" points="503.97,-476.78 514.04,-473.5 504.12,-469.78 503.97,-476.78"/>
</g>
<!-- Metamodel::PackageHOW -->
<g id="node10" class="node">
<title>Metamodel::PackageHOW</title>
<g id="a_node10"><a xlink:href="/type/Metamodel::PackageHOW" xlink:title="Metamodel::PackageHOW">
<ellipse fill="none" stroke="#000000" cx="421.15" cy="-414.04" rx="116.18" ry="18"/>
<text text-anchor="middle" x="421.15" y="-410.34" font-family="FreeSans" font-size="14.00" fill="#000000">Metamodel::PackageHOW</text>
</a>
</g>
</g>
<!-- Metamodel::PackageHOW&#45;&gt;Metamodel::MethodDelegation -->
<g id="edge14" class="edge">
<title>Metamodel::PackageHOW&#45;&gt;Metamodel::MethodDelegation</title>
<path fill="none" stroke="#6666ff" d="M321.88,-404.54C298.93,-402.34 274.28,-399.98 250.61,-397.72"/>
<polygon fill="#6666ff" stroke="#6666ff" points="250.82,-394.22 240.54,-396.75 250.16,-401.19 250.82,-394.22"/>
</g>
<!-- Metamodel::PackageHOW&#45;&gt;Any -->
<g id="edge3" class="edge">
<title>Metamodel::PackageHOW&#45;&gt;Any</title>
<path fill="none" stroke="#000000" d="M428.51,-395.84C442.62,-360.95 473.53,-284.53 490.03,-243.74"/>
<polygon fill="#000000" stroke="#000000" points="493.29,-245 493.8,-234.42 486.8,-242.38 493.29,-245"/>
</g>
<!-- Metamodel::PackageHOW&#45;&gt;Metamodel::Naming -->
<g id="edge10" class="edge">
<title>Metamodel::PackageHOW&#45;&gt;Metamodel::Naming</title>
<path fill="none" stroke="#6666ff" d="M431.22,-431.99C440.36,-448.3 452.43,-469.82 452.43,-469.82 452.43,-469.82 385.08,-605.35 355.54,-664.78"/>
<polygon fill="#6666ff" stroke="#6666ff" points="352.3,-663.45 350.98,-673.96 358.56,-666.56 352.3,-663.45"/>
</g>
<!-- Metamodel::PackageHOW&#45;&gt;Metamodel::Documenting -->
<g id="edge11" class="edge">
<title>Metamodel::PackageHOW&#45;&gt;Metamodel::Documenting</title>
<path fill="none" stroke="#6666ff" d="M431.22,-431.99C440.36,-448.3 452.43,-469.82 452.43,-469.82 452.43,-469.82 496.04,-570.82 517.63,-620.8"/>
<polygon fill="#6666ff" stroke="#6666ff" points="514.45,-622.28 521.63,-630.07 520.88,-619.5 514.45,-622.28"/>
</g>
<!-- Metamodel::PackageHOW&#45;&gt;Metamodel::Stashing -->
<g id="edge12" class="edge">
<title>Metamodel::PackageHOW&#45;&gt;Metamodel::Stashing</title>
<path fill="none" stroke="#6666ff" d="M403.35,-396C371.26,-363.49 303.66,-295.01 267.08,-257.95"/>
<polygon fill="#6666ff" stroke="#6666ff" points="269.28,-255.2 259.77,-250.54 264.3,-260.11 269.28,-255.2"/>
</g>
<!-- Metamodel::PackageHOW&#45;&gt;Metamodel::TypePretense -->
<g id="edge13" class="edge">
<title>Metamodel::PackageHOW&#45;&gt;Metamodel::TypePretense</title>
<path fill="none" stroke="#6666ff" d="M474.59,-430.06C502.06,-438.3 535.72,-448.39 564.47,-457.01"/>
<polygon fill="#6666ff" stroke="#6666ff" points="563.83,-460.48 574.42,-460 565.84,-453.77 563.83,-460.48"/>
</g>
</g>
</svg>
