<?xml version="1.0" encoding="UTF-8" standalone="no"?>
<!DOCTYPE svg PUBLIC "-//W3C//DTD SVG 1.1//EN"
 "http://www.w3.org/Graphics/SVG/1.1/DTD/svg11.dtd">
<!-- Generated by graphviz version 2.43.0 (0)
 -->
<!-- Title: perl6&#45;type&#45;graph Pages: 1 -->
<svg width="267pt" height="332pt"
 viewBox="0.00 0.00 266.54 332.00" xmlns="http://www.w3.org/2000/svg" xmlns:xlink="http://www.w3.org/1999/xlink">
<g id="graph0" class="graph" transform="scale(1 1) rotate(0) translate(4 328)">
<title>perl6&#45;type&#45;graph</title>
<polygon fill="white" stroke="transparent" points="-4,4 -4,-328 262.54,-328 262.54,4 -4,4"/>
<!-- Complex -->
<g id="node1" class="node">
<title>Complex</title>
<g id="a_node1"><a xlink:href="/type/Complex" xlink:title="Complex">
<ellipse fill="none" stroke="#000000" cx="87.2" cy="-90" rx="45.49" ry="18"/>
<text text-anchor="middle" x="87.2" y="-86.3" font-family="FreeSans" font-size="14.00" fill="#000000">Complex</text>
</a>
</g>
</g>
<!-- Cool -->
<g id="node4" class="node">
<title>Cool</title>
<g id="a_node4"><a xlink:href="/type/Cool" xlink:title="Cool">
<ellipse fill="none" stroke="#000000" cx="135.2" cy="-162" rx="28.7" ry="18"/>
<text text-anchor="middle" x="135.2" y="-158.3" font-family="FreeSans" font-size="14.00" fill="#000000">Cool</text>
</a>
</g>
</g>
<!-- Complex&#45;&gt;Cool -->
<g id="edge1" class="edge">
<title>Complex&#45;&gt;Cool</title>
<path fill="none" stroke="#000000" d="M98.57,-107.59C104.51,-116.26 111.9,-127.03 118.48,-136.62"/>
<polygon fill="#000000" stroke="#000000" points="115.69,-138.74 124.23,-145.01 121.46,-134.79 115.69,-138.74"/>
</g>
<!-- Numeric -->
<g id="node5" class="node">
<title>Numeric</title>
<g id="a_node5"><a xlink:href="/type/Numeric" xlink:title="Numeric">
<ellipse fill="none" stroke="#6666ff" cx="44.2" cy="-162" rx="44.39" ry="18"/>
<text text-anchor="middle" x="44.2" y="-158.3" font-family="FreeSans" font-size="14.00" fill="#6666ff">Numeric</text>
</a>
</g>
</g>
<!-- Complex&#45;&gt;Numeric -->
<g id="edge7" class="edge">
<title>Complex&#45;&gt;Numeric</title>
<path fill="none" stroke="#6666ff" d="M77.01,-107.59C71.89,-115.92 65.57,-126.2 59.85,-135.51"/>
<polygon fill="#6666ff" stroke="#6666ff" points="56.86,-133.69 54.61,-144.04 62.83,-137.35 56.86,-133.69"/>
</g>
<!-- Mu -->
<g id="node2" class="node">
<title>Mu</title>
<g id="a_node2"><a xlink:href="/type/Mu" xlink:title="Mu">
<ellipse fill="none" stroke="#000000" cx="135.2" cy="-306" rx="27" ry="18"/>
<text text-anchor="middle" x="135.2" y="-302.3" font-family="FreeSans" font-size="14.00" fill="#000000">Mu</text>
</a>
</g>
</g>
<!-- Any -->
<g id="node3" class="node">
<title>Any</title>
<g id="a_node3"><a xlink:href="/type/Any" xlink:title="Any">
<ellipse fill="none" stroke="#000000" cx="135.2" cy="-234" rx="27" ry="18"/>
<text text-anchor="middle" x="135.2" y="-230.3" font-family="FreeSans" font-size="14.00" fill="#000000">Any</text>
</a>
</g>
</g>
<!-- Any&#45;&gt;Mu -->
<g id="edge2" class="edge">
<title>Any&#45;&gt;Mu</title>
<path fill="none" stroke="#000000" d="M135.2,-252.3C135.2,-260.02 135.2,-269.29 135.2,-277.89"/>
<polygon fill="#000000" stroke="#000000" points="131.7,-277.9 135.2,-287.9 138.7,-277.9 131.7,-277.9"/>
</g>
<!-- Cool&#45;&gt;Any -->
<g id="edge3" class="edge">
<title>Cool&#45;&gt;Any</title>
<path fill="none" stroke="#000000" d="M135.2,-180.3C135.2,-188.02 135.2,-197.29 135.2,-205.89"/>
<polygon fill="#000000" stroke="#000000" points="131.7,-205.9 135.2,-215.9 138.7,-205.9 131.7,-205.9"/>
</g>
<!-- Stringy -->
<g id="node6" class="node">
<title>Stringy</title>
<g id="a_node6"><a xlink:href="/type/Stringy" xlink:title="Stringy">
<ellipse fill="none" stroke="#6666ff" cx="220.2" cy="-162" rx="38.19" ry="18"/>
<text text-anchor="middle" x="220.2" y="-158.3" font-family="FreeSans" font-size="14.00" fill="#6666ff">Stringy</text>
</a>
</g>
</g>
<!-- Str -->
<g id="node7" class="node">
<title>Str</title>
<g id="a_node7"><a xlink:href="/type/Str" xlink:title="Str">
<ellipse fill="none" stroke="#000000" cx="177.2" cy="-90" rx="27" ry="18"/>
<text text-anchor="middle" x="177.2" y="-86.3" font-family="FreeSans" font-size="14.00" fill="#000000">Str</text>
</a>
</g>
</g>
<!-- Str&#45;&gt;Cool -->
<g id="edge4" class="edge">
<title>Str&#45;&gt;Cool</title>
<path fill="none" stroke="#000000" d="M167.67,-106.88C162.53,-115.44 156.07,-126.2 150.28,-135.87"/>
<polygon fill="#000000" stroke="#000000" points="147.12,-134.32 144.98,-144.69 153.13,-137.92 147.12,-134.32"/>
</g>
<!-- Str&#45;&gt;Stringy -->
<g id="edge8" class="edge">
<title>Str&#45;&gt;Stringy</title>
<path fill="none" stroke="#6666ff" d="M186.95,-106.88C192.14,-115.32 198.63,-125.9 204.5,-135.45"/>
<polygon fill="#6666ff" stroke="#6666ff" points="201.66,-137.51 209.88,-144.2 207.63,-133.85 201.66,-137.51"/>
</g>
<!-- ComplexStr -->
<g id="node8" class="node">
<title>ComplexStr</title>
<g id="a_node8"><a xlink:href="/type/ComplexStr" xlink:title="ComplexStr">
<ellipse fill="none" stroke="#000000" cx="132.2" cy="-18" rx="56.59" ry="18"/>
<text text-anchor="middle" x="132.2" y="-14.3" font-family="FreeSans" font-size="14.00" fill="#000000">ComplexStr</text>
</a>
</g>
</g>
<!-- ComplexStr&#45;&gt;Complex -->
<g id="edge5" class="edge">
<title>ComplexStr&#45;&gt;Complex</title>
<path fill="none" stroke="#000000" d="M121.3,-35.95C115.94,-44.29 109.37,-54.51 103.43,-63.75"/>
<polygon fill="#000000" stroke="#000000" points="100.45,-61.91 97.99,-72.21 106.34,-65.69 100.45,-61.91"/>
</g>
<!-- ComplexStr&#45;&gt;Str -->
<g id="edge6" class="edge">
<title>ComplexStr&#45;&gt;Str</title>
<path fill="none" stroke="#000000" d="M143.09,-35.95C148.61,-44.53 155.41,-55.11 161.49,-64.56"/>
<polygon fill="#000000" stroke="#000000" points="158.67,-66.65 167.02,-73.17 164.56,-62.87 158.67,-66.65"/>
</g>
</g>
</svg>
