<?xml version="1.0" encoding="UTF-8" standalone="no"?>
<!DOCTYPE svg PUBLIC "-//W3C//DTD SVG 1.1//EN"
 "http://www.w3.org/Graphics/SVG/1.1/DTD/svg11.dtd">
<!-- Generated by graphviz version 2.43.0 (0)
 -->
<!-- Title: perl6&#45;type&#45;graph Pages: 1 -->
<svg width="225pt" height="404pt"
 viewBox="0.00 0.00 224.79 404.00" xmlns="http://www.w3.org/2000/svg" xmlns:xlink="http://www.w3.org/1999/xlink">
<g id="graph0" class="graph" transform="scale(1 1) rotate(0) translate(4 400)">
<title>perl6&#45;type&#45;graph</title>
<polygon fill="white" stroke="transparent" points="-4,4 -4,-400 220.79,-400 220.79,4 -4,4"/>
<!-- X::IO::Chmod -->
<g id="node1" class="node">
<title>X::IO::Chmod</title>
<g id="a_node1"><a xlink:href="/type/X::IO::Chmod" xlink:title="X::IO::Chmod">
<ellipse fill="none" stroke="#000000" cx="64.34" cy="-18" rx="64.19" ry="18"/>
<text text-anchor="middle" x="64.34" y="-14.3" font-family="FreeSans" font-size="14.00" fill="#000000">X::IO::Chmod</text>
</a>
</g>
</g>
<!-- Exception -->
<g id="node4" class="node">
<title>Exception</title>
<g id="a_node4"><a xlink:href="/type/Exception" xlink:title="Exception">
<ellipse fill="none" stroke="#000000" cx="64.34" cy="-234" rx="49.29" ry="18"/>
<text text-anchor="middle" x="64.34" y="-230.3" font-family="FreeSans" font-size="14.00" fill="#000000">Exception</text>
</a>
</g>
</g>
<!-- X::IO::Chmod&#45;&gt;Exception -->
<g id="edge1" class="edge">
<title>X::IO::Chmod&#45;&gt;Exception</title>
<path fill="none" stroke="#000000" d="M56.59,-36.15C49.5,-73.26 48.97,-161.25 55,-205.95"/>
<polygon fill="#000000" stroke="#000000" points="51.59,-206.75 56.63,-216.06 58.5,-205.64 51.59,-206.75"/>
</g>
<!-- X::IO::Chmod&#45;&gt;Exception -->
<g id="edge2" class="edge">
<title>X::IO::Chmod&#45;&gt;Exception</title>
<path fill="none" stroke="#000000" d="M64.34,-36.15C64.34,-73.17 64.34,-160.82 64.34,-205.61"/>
<polygon fill="#000000" stroke="#000000" points="60.84,-205.77 64.34,-215.77 67.84,-205.77 60.84,-205.77"/>
</g>
<!-- X::IO::Chmod&#45;&gt;Exception -->
<g id="edge3" class="edge">
<title>X::IO::Chmod&#45;&gt;Exception</title>
<path fill="none" stroke="#000000" d="M72.1,-36.15C79.19,-73.26 79.72,-161.25 73.68,-205.95"/>
<polygon fill="#000000" stroke="#000000" points="70.19,-205.64 72.06,-216.06 77.1,-206.75 70.19,-205.64"/>
</g>
<!-- X::IO -->
<g id="node6" class="node">
<title>X::IO</title>
<g id="a_node6"><a xlink:href="/type/X::IO" xlink:title="X::IO">
<ellipse fill="none" stroke="#6666ff" cx="141.34" cy="-90" rx="31.4" ry="18"/>
<text text-anchor="middle" x="141.34" y="-86.3" font-family="FreeSans" font-size="14.00" fill="#6666ff">X::IO</text>
</a>
</g>
</g>
<!-- X::IO::Chmod&#45;&gt;X::IO -->
<g id="edge8" class="edge">
<title>X::IO::Chmod&#45;&gt;X::IO</title>
<path fill="none" stroke="#6666ff" d="M82.59,-35.59C93.14,-45.18 106.53,-57.35 117.86,-67.65"/>
<polygon fill="#6666ff" stroke="#6666ff" points="115.56,-70.29 125.32,-74.43 120.27,-65.11 115.56,-70.29"/>
</g>
<!-- Mu -->
<g id="node2" class="node">
<title>Mu</title>
<g id="a_node2"><a xlink:href="/type/Mu" xlink:title="Mu">
<ellipse fill="none" stroke="#000000" cx="64.34" cy="-378" rx="27" ry="18"/>
<text text-anchor="middle" x="64.34" y="-374.3" font-family="FreeSans" font-size="14.00" fill="#000000">Mu</text>
</a>
</g>
</g>
<!-- Any -->
<g id="node3" class="node">
<title>Any</title>
<g id="a_node3"><a xlink:href="/type/Any" xlink:title="Any">
<ellipse fill="none" stroke="#000000" cx="64.34" cy="-306" rx="27" ry="18"/>
<text text-anchor="middle" x="64.34" y="-302.3" font-family="FreeSans" font-size="14.00" fill="#000000">Any</text>
</a>
</g>
</g>
<!-- Any&#45;&gt;Mu -->
<g id="edge4" class="edge">
<title>Any&#45;&gt;Mu</title>
<path fill="none" stroke="#000000" d="M64.34,-324.3C64.34,-332.02 64.34,-341.29 64.34,-349.89"/>
<polygon fill="#000000" stroke="#000000" points="60.84,-349.9 64.34,-359.9 67.84,-349.9 60.84,-349.9"/>
</g>
<!-- Exception&#45;&gt;Any -->
<g id="edge5" class="edge">
<title>Exception&#45;&gt;Any</title>
<path fill="none" stroke="#000000" d="M64.34,-252.3C64.34,-260.02 64.34,-269.29 64.34,-277.89"/>
<polygon fill="#000000" stroke="#000000" points="60.84,-277.9 64.34,-287.9 67.84,-277.9 60.84,-277.9"/>
</g>
<!-- X::OS -->
<g id="node5" class="node">
<title>X::OS</title>
<g id="a_node5"><a xlink:href="/type/X::OS" xlink:title="X::OS">
<ellipse fill="none" stroke="#6666ff" cx="182.34" cy="-162" rx="34.39" ry="18"/>
<text text-anchor="middle" x="182.34" y="-158.3" font-family="FreeSans" font-size="14.00" fill="#6666ff">X::OS</text>
</a>
</g>
</g>
<!-- X::OS&#45;&gt;Exception -->
<g id="edge6" class="edge">
<title>X::OS&#45;&gt;Exception</title>
<path fill="none" stroke="#000000" d="M160.43,-176C142.86,-186.43 117.91,-201.23 97.83,-213.13"/>
<polygon fill="#000000" stroke="#000000" points="95.81,-210.26 89,-218.37 99.39,-216.28 95.81,-210.26"/>
</g>
<!-- X::IO&#45;&gt;Exception -->
<g id="edge7" class="edge">
<title>X::IO&#45;&gt;Exception</title>
<path fill="none" stroke="#000000" d="M132.88,-107.74C119.84,-133.52 96.34,-180 96.34,-180 96.34,-180 87.93,-193.93 79.74,-207.51"/>
<polygon fill="#000000" stroke="#000000" points="76.64,-205.86 74.47,-216.23 82.63,-209.48 76.64,-205.86"/>
</g>
<!-- X::IO&#45;&gt;X::OS -->
<g id="edge9" class="edge">
<title>X::IO&#45;&gt;X::OS</title>
<path fill="none" stroke="#6666ff" d="M150.85,-107.24C155.8,-115.68 161.96,-126.2 167.52,-135.69"/>
<polygon fill="#6666ff" stroke="#6666ff" points="164.53,-137.51 172.6,-144.37 170.57,-133.97 164.53,-137.51"/>
</g>
</g>
</svg>
