<?xml version="1.0" encoding="UTF-8" standalone="no"?>
<!DOCTYPE svg PUBLIC "-//W3C//DTD SVG 1.1//EN"
 "http://www.w3.org/Graphics/SVG/1.1/DTD/svg11.dtd">
<!-- Generated by graphviz version 2.43.0 (0)
 -->
<!-- Title: perl6&#45;type&#45;graph Pages: 1 -->
<svg width="284pt" height="404pt"
 viewBox="0.00 0.00 283.99 404.00" xmlns="http://www.w3.org/2000/svg" xmlns:xlink="http://www.w3.org/1999/xlink">
<g id="graph0" class="graph" transform="scale(1 1) rotate(0) translate(4 400)">
<title>perl6&#45;type&#45;graph</title>
<polygon fill="white" stroke="transparent" points="-4,4 -4,-400 279.99,-400 279.99,4 -4,4"/>
<!-- X::Syntax::Regex::Adverb -->
<g id="node1" class="node">
<title>X::Syntax::Regex::Adverb</title>
<g id="a_node1"><a xlink:href="/type/X::Syntax::Regex::Adverb" xlink:title="X::Syntax::Regex::Adverb">
<ellipse fill="none" stroke="#000000" cx="111.14" cy="-18" rx="111.28" ry="18"/>
<text text-anchor="middle" x="111.14" y="-14.3" font-family="FreeSans" font-size="14.00" fill="#000000">X::Syntax::Regex::Adverb</text>
</a>
</g>
</g>
<!-- Exception -->
<g id="node4" class="node">
<title>Exception</title>
<g id="a_node4"><a xlink:href="/type/Exception" xlink:title="Exception">
<ellipse fill="none" stroke="#000000" cx="134.14" cy="-234" rx="49.29" ry="18"/>
<text text-anchor="middle" x="134.14" y="-230.3" font-family="FreeSans" font-size="14.00" fill="#000000">Exception</text>
</a>
</g>
</g>
<!-- X::Syntax::Regex::Adverb&#45;&gt;Exception -->
<g id="edge1" class="edge">
<title>X::Syntax::Regex::Adverb&#45;&gt;Exception</title>
<path fill="none" stroke="#000000" d="M109.11,-36.15C109.55,-73.34 118.78,-161.63 126.61,-206.23"/>
<polygon fill="#000000" stroke="#000000" points="123.17,-206.88 128.46,-216.06 130.05,-205.59 123.17,-206.88"/>
</g>
<!-- X::Syntax::Regex::Adverb&#45;&gt;Exception -->
<g id="edge2" class="edge">
<title>X::Syntax::Regex::Adverb&#45;&gt;Exception</title>
<path fill="none" stroke="#000000" d="M116.86,-36.15C124.38,-73.17 134.07,-160.82 135.89,-205.61"/>
<polygon fill="#000000" stroke="#000000" points="132.39,-205.87 136.17,-215.77 139.39,-205.67 132.39,-205.87"/>
</g>
<!-- X::Syntax -->
<g id="node6" class="node">
<title>X::Syntax</title>
<g id="a_node6"><a xlink:href="/type/X::Syntax" xlink:title="X::Syntax">
<ellipse fill="none" stroke="#6666ff" cx="196.14" cy="-90" rx="48.19" ry="18"/>
<text text-anchor="middle" x="196.14" y="-86.3" font-family="FreeSans" font-size="14.00" fill="#6666ff">X::Syntax</text>
</a>
</g>
</g>
<!-- X::Syntax::Regex::Adverb&#45;&gt;X::Syntax -->
<g id="edge7" class="edge">
<title>X::Syntax::Regex::Adverb&#45;&gt;X::Syntax</title>
<path fill="none" stroke="#6666ff" d="M131.72,-35.95C142.97,-45.22 157.06,-56.81 169.18,-66.8"/>
<polygon fill="#6666ff" stroke="#6666ff" points="167.26,-69.75 177.21,-73.41 171.71,-64.35 167.26,-69.75"/>
</g>
<!-- Mu -->
<g id="node2" class="node">
<title>Mu</title>
<g id="a_node2"><a xlink:href="/type/Mu" xlink:title="Mu">
<ellipse fill="none" stroke="#000000" cx="134.14" cy="-378" rx="27" ry="18"/>
<text text-anchor="middle" x="134.14" y="-374.3" font-family="FreeSans" font-size="14.00" fill="#000000">Mu</text>
</a>
</g>
</g>
<!-- Any -->
<g id="node3" class="node">
<title>Any</title>
<g id="a_node3"><a xlink:href="/type/Any" xlink:title="Any">
<ellipse fill="none" stroke="#000000" cx="134.14" cy="-306" rx="27" ry="18"/>
<text text-anchor="middle" x="134.14" y="-302.3" font-family="FreeSans" font-size="14.00" fill="#000000">Any</text>
</a>
</g>
</g>
<!-- Any&#45;&gt;Mu -->
<g id="edge3" class="edge">
<title>Any&#45;&gt;Mu</title>
<path fill="none" stroke="#000000" d="M134.14,-324.3C134.14,-332.02 134.14,-341.29 134.14,-349.89"/>
<polygon fill="#000000" stroke="#000000" points="130.64,-349.9 134.14,-359.9 137.64,-349.9 130.64,-349.9"/>
</g>
<!-- Exception&#45;&gt;Any -->
<g id="edge4" class="edge">
<title>Exception&#45;&gt;Any</title>
<path fill="none" stroke="#000000" d="M134.14,-252.3C134.14,-260.02 134.14,-269.29 134.14,-277.89"/>
<polygon fill="#000000" stroke="#000000" points="130.64,-277.9 134.14,-287.9 137.64,-277.9 130.64,-277.9"/>
</g>
<!-- X::Comp -->
<g id="node5" class="node">
<title>X::Comp</title>
<g id="a_node5"><a xlink:href="/type/X::Comp" xlink:title="X::Comp">
<ellipse fill="none" stroke="#6666ff" cx="231.14" cy="-162" rx="44.69" ry="18"/>
<text text-anchor="middle" x="231.14" y="-158.3" font-family="FreeSans" font-size="14.00" fill="#6666ff">X::Comp</text>
</a>
</g>
</g>
<!-- X::Comp&#45;&gt;Exception -->
<g id="edge5" class="edge">
<title>X::Comp&#45;&gt;Exception</title>
<path fill="none" stroke="#000000" d="M210.09,-178.19C196.58,-187.94 178.84,-200.74 163.9,-211.52"/>
<polygon fill="#000000" stroke="#000000" points="161.54,-208.91 155.48,-217.6 165.64,-214.59 161.54,-208.91"/>
</g>
<!-- X::Syntax&#45;&gt;Exception -->
<g id="edge6" class="edge">
<title>X::Syntax&#45;&gt;Exception</title>
<path fill="none" stroke="#000000" d="M188.78,-107.85C178.11,-132.29 158.23,-177.83 145.62,-206.71"/>
<polygon fill="#000000" stroke="#000000" points="142.28,-205.61 141.49,-216.18 148.7,-208.41 142.28,-205.61"/>
</g>
<!-- X::Syntax&#45;&gt;X::Comp -->
<g id="edge8" class="edge">
<title>X::Syntax&#45;&gt;X::Comp</title>
<path fill="none" stroke="#6666ff" d="M204.61,-107.95C208.7,-116.11 213.68,-126.09 218.23,-135.18"/>
<polygon fill="#6666ff" stroke="#6666ff" points="215.14,-136.83 222.75,-144.21 221.4,-133.7 215.14,-136.83"/>
</g>
</g>
</svg>
