<?xml version="1.0" encoding="UTF-8" standalone="no"?>
<!DOCTYPE svg PUBLIC "-//W3C//DTD SVG 1.1//EN"
 "http://www.w3.org/Graphics/SVG/1.1/DTD/svg11.dtd">
<!-- Generated by graphviz version 2.43.0 (0)
 -->
<!-- Title: perl6&#45;type&#45;graph Pages: 1 -->
<svg width="751pt" height="404pt"
 viewBox="0.00 0.00 750.99 404.00" xmlns="http://www.w3.org/2000/svg" xmlns:xlink="http://www.w3.org/1999/xlink">
<g id="graph0" class="graph" transform="scale(1 1) rotate(0) translate(4 400)">
<title>perl6&#45;type&#45;graph</title>
<polygon fill="#ffffff" stroke="transparent" points="-4,4 -4,-400 746.99,-400 746.99,4 -4,4"/>
<!-- Int -->
<g id="node1" class="node">
<title>Int</title>
<g id="a_node1"><a xlink:href="/type/Int" xlink:title="Int">
<ellipse fill="none" stroke="#000000" cx="379.15" cy="-90" rx="27" ry="18"/>
<text text-anchor="middle" x="379.15" y="-86.3" font-family="FreeSans" font-size="14.00" fill="#000000">Int</text>
</a>
</g>
</g>
<!-- Cool -->
<g id="node4" class="node">
<title>Cool</title>
<g id="a_node4"><a xlink:href="/type/Cool" xlink:title="Cool">
<ellipse fill="none" stroke="#000000" cx="548.15" cy="-234" rx="28.7" ry="18"/>
<text text-anchor="middle" x="548.15" y="-230.3" font-family="FreeSans" font-size="14.00" fill="#000000">Cool</text>
</a>
</g>
</g>
<!-- Int&#45;&gt;Cool -->
<g id="edge1" class="edge">
<title>Int&#45;&gt;Cool</title>
<path fill="none" stroke="#000000" d="M395.35,-104.62C425.18,-129.68 488.92,-183.24 523.91,-212.64"/>
<polygon fill="#000000" stroke="#000000" points="521.83,-215.46 531.74,-219.22 526.34,-210.1 521.83,-215.46"/>
</g>
<!-- Real -->
<g id="node6" class="node">
<title>Real</title>
<g id="a_node6"><a xlink:href="/type/Real" xlink:title="Real">
<ellipse fill="none" stroke="#6666ff" cx="379.15" cy="-162" rx="28.7" ry="18"/>
<text text-anchor="middle" x="379.15" y="-158.3" font-family="FreeSans" font-size="14.00" fill="#6666ff">Real</text>
</a>
</g>
</g>
<!-- Int&#45;&gt;Real -->
<g id="edge15" class="edge">
<title>Int&#45;&gt;Real</title>
<path fill="none" stroke="#6666ff" d="M379.15,-108.3C379.15,-116.02 379.15,-125.29 379.15,-133.89"/>
<polygon fill="#6666ff" stroke="#6666ff" points="375.65,-133.9 379.15,-143.9 382.65,-133.9 375.65,-133.9"/>
</g>
<!-- Mu -->
<g id="node2" class="node">
<title>Mu</title>
<g id="a_node2"><a xlink:href="/type/Mu" xlink:title="Mu">
<ellipse fill="none" stroke="#000000" cx="548.15" cy="-378" rx="27" ry="18"/>
<text text-anchor="middle" x="548.15" y="-374.3" font-family="FreeSans" font-size="14.00" fill="#000000">Mu</text>
</a>
</g>
</g>
<!-- Any -->
<g id="node3" class="node">
<title>Any</title>
<g id="a_node3"><a xlink:href="/type/Any" xlink:title="Any">
<ellipse fill="none" stroke="#000000" cx="548.15" cy="-306" rx="27" ry="18"/>
<text text-anchor="middle" x="548.15" y="-302.3" font-family="FreeSans" font-size="14.00" fill="#000000">Any</text>
</a>
</g>
</g>
<!-- Any&#45;&gt;Mu -->
<g id="edge2" class="edge">
<title>Any&#45;&gt;Mu</title>
<path fill="none" stroke="#000000" d="M548.15,-324.3C548.15,-332.02 548.15,-341.29 548.15,-349.89"/>
<polygon fill="#000000" stroke="#000000" points="544.65,-349.9 548.15,-359.9 551.65,-349.9 544.65,-349.9"/>
</g>
<!-- Cool&#45;&gt;Any -->
<g id="edge3" class="edge">
<title>Cool&#45;&gt;Any</title>
<path fill="none" stroke="#000000" d="M548.15,-252.3C548.15,-260.02 548.15,-269.29 548.15,-277.89"/>
<polygon fill="#000000" stroke="#000000" points="544.65,-277.9 548.15,-287.9 551.65,-277.9 544.65,-277.9"/>
</g>
<!-- Numeric -->
<g id="node5" class="node">
<title>Numeric</title>
<g id="a_node5"><a xlink:href="/type/Numeric" xlink:title="Numeric">
<ellipse fill="none" stroke="#6666ff" cx="379.15" cy="-234" rx="44.39" ry="18"/>
<text text-anchor="middle" x="379.15" y="-230.3" font-family="FreeSans" font-size="14.00" fill="#6666ff">Numeric</text>
</a>
</g>
</g>
<!-- Real&#45;&gt;Numeric -->
<g id="edge16" class="edge">
<title>Real&#45;&gt;Numeric</title>
<path fill="none" stroke="#6666ff" d="M379.15,-180.3C379.15,-188.02 379.15,-197.29 379.15,-205.89"/>
<polygon fill="#6666ff" stroke="#6666ff" points="375.65,-205.9 379.15,-215.9 382.65,-205.9 375.65,-205.9"/>
</g>
<!-- atomicint -->
<g id="node7" class="node">
<title>atomicint</title>
<g id="a_node7"><a xlink:href="/type/atomicint" xlink:title="atomicint">
<ellipse fill="none" stroke="#000000" cx="46.15" cy="-18" rx="46.29" ry="18"/>
<text text-anchor="middle" x="46.15" y="-14.3" font-family="FreeSans" font-size="14.00" fill="#000000">atomicint</text>
</a>
</g>
</g>
<!-- atomicint&#45;&gt;Int -->
<g id="edge4" class="edge">
<title>atomicint&#45;&gt;Int</title>
<path fill="none" stroke="#000000" d="M81.29,-29.86C92.07,-33.19 101.15,-36 101.15,-36 101.15,-36 268.55,-67.92 343.55,-82.21"/>
<polygon fill="#000000" stroke="#000000" points="343.01,-85.67 353.49,-84.11 344.32,-78.8 343.01,-85.67"/>
</g>
<!-- Order -->
<g id="node8" class="node">
<title>Order</title>
<g id="a_node8"><a xlink:href="/type/Order" xlink:title="Order">
<ellipse fill="none" stroke="#33bb33" cx="144.15" cy="-18" rx="33.6" ry="18"/>
<text text-anchor="middle" x="144.15" y="-14.3" font-family="FreeSans" font-size="14.00" fill="#33bb33">Order</text>
</a>
</g>
</g>
<!-- Order&#45;&gt;Int -->
<g id="edge5" class="edge">
<title>Order&#45;&gt;Int</title>
<path fill="none" stroke="#000000" d="M170.64,-29.48C179.49,-32.97 187.15,-36 187.15,-36 187.15,-36 289.45,-64.24 344.7,-79.49"/>
<polygon fill="#000000" stroke="#000000" points="343.87,-82.89 354.44,-82.18 345.73,-76.14 343.87,-82.89"/>
</g>
<!-- int -->
<g id="node9" class="node">
<title>int</title>
<g id="a_node9"><a xlink:href="/type/int" xlink:title="int">
<ellipse fill="none" stroke="#000000" cx="223.15" cy="-18" rx="27" ry="18"/>
<text text-anchor="middle" x="223.15" y="-14.3" font-family="FreeSans" font-size="14.00" fill="#000000">int</text>
</a>
</g>
</g>
<!-- int&#45;&gt;Int -->
<g id="edge6" class="edge">
<title>int&#45;&gt;Int</title>
<path fill="none" stroke="#000000" d="M244.5,-29.09C252.26,-32.75 259.15,-36 259.15,-36 259.15,-36 312.07,-59.38 347.63,-75.08"/>
<polygon fill="#000000" stroke="#000000" points="346.57,-78.44 357.14,-79.28 349.4,-72.04 346.57,-78.44"/>
</g>
<!-- Stringy -->
<g id="node10" class="node">
<title>Stringy</title>
<g id="a_node10"><a xlink:href="/type/Stringy" xlink:title="Stringy">
<ellipse fill="none" stroke="#6666ff" cx="672.15" cy="-234" rx="38.19" ry="18"/>
<text text-anchor="middle" x="672.15" y="-230.3" font-family="FreeSans" font-size="14.00" fill="#6666ff">Stringy</text>
</a>
</g>
</g>
<!-- Str -->
<g id="node11" class="node">
<title>Str</title>
<g id="a_node11"><a xlink:href="/type/Str" xlink:title="Str">
<ellipse fill="none" stroke="#000000" cx="672.15" cy="-162" rx="27" ry="18"/>
<text text-anchor="middle" x="672.15" y="-158.3" font-family="FreeSans" font-size="14.00" fill="#000000">Str</text>
</a>
</g>
</g>
<!-- Str&#45;&gt;Cool -->
<g id="edge7" class="edge">
<title>Str&#45;&gt;Cool</title>
<path fill="none" stroke="#000000" d="M652.22,-174.25C632.13,-185.59 600.86,-203.24 577.84,-216.24"/>
<polygon fill="#000000" stroke="#000000" points="575.83,-213.35 568.85,-221.31 579.28,-219.45 575.83,-213.35"/>
</g>
<!-- Str&#45;&gt;Stringy -->
<g id="edge17" class="edge">
<title>Str&#45;&gt;Stringy</title>
<path fill="none" stroke="#6666ff" d="M672.15,-180.3C672.15,-188.02 672.15,-197.29 672.15,-205.89"/>
<polygon fill="#6666ff" stroke="#6666ff" points="668.65,-205.9 672.15,-215.9 675.65,-205.9 668.65,-205.9"/>
</g>
<!-- Allomorph -->
<g id="node12" class="node">
<title>Allomorph</title>
<g id="a_node12"><a xlink:href="/type/Allomorph" xlink:title="Allomorph">
<ellipse fill="none" stroke="#000000" cx="691.15" cy="-90" rx="50.09" ry="18"/>
<text text-anchor="middle" x="691.15" y="-86.3" font-family="FreeSans" font-size="14.00" fill="#000000">Allomorph</text>
</a>
</g>
</g>
<!-- Allomorph&#45;&gt;Str -->
<g id="edge8" class="edge">
<title>Allomorph&#45;&gt;Str</title>
<path fill="none" stroke="#000000" d="M686.55,-107.95C684.4,-115.86 681.79,-125.46 679.39,-134.31"/>
<polygon fill="#000000" stroke="#000000" points="675.94,-133.64 676.7,-144.21 682.7,-135.48 675.94,-133.64"/>
</g>
<!-- IntStr -->
<g id="node13" class="node">
<title>IntStr</title>
<g id="a_node13"><a xlink:href="/type/IntStr" xlink:title="IntStr">
<ellipse fill="none" stroke="#000000" cx="711.15" cy="-18" rx="31.7" ry="18"/>
<text text-anchor="middle" x="711.15" y="-14.3" font-family="FreeSans" font-size="14.00" fill="#000000">IntStr</text>
</a>
</g>
</g>
<!-- IntStr&#45;&gt;Int -->
<g id="edge10" class="edge">
<title>IntStr&#45;&gt;Int</title>
<path fill="none" stroke="#000000" d="M686.5,-29.48C678.27,-32.97 671.15,-36 671.15,-36 671.15,-36 492.46,-68.43 414.65,-82.56"/>
<polygon fill="#000000" stroke="#000000" points="414.02,-79.11 404.8,-84.34 415.27,-86 414.02,-79.11"/>
</g>
<!-- IntStr&#45;&gt;Allomorph -->
<g id="edge9" class="edge">
<title>IntStr&#45;&gt;Allomorph</title>
<path fill="none" stroke="#000000" d="M706.3,-35.95C704.08,-43.74 701.38,-53.18 698.88,-61.92"/>
<polygon fill="#000000" stroke="#000000" points="695.46,-61.15 696.08,-71.72 702.19,-63.07 695.46,-61.15"/>
</g>
<!-- Bool -->
<g id="node14" class="node">
<title>Bool</title>
<g id="a_node14"><a xlink:href="/type/Bool" xlink:title="Bool">
<ellipse fill="none" stroke="#33bb33" cx="297.15" cy="-18" rx="28.7" ry="18"/>
<text text-anchor="middle" x="297.15" y="-14.3" font-family="FreeSans" font-size="14.00" fill="#33bb33">Bool</text>
</a>
</g>
</g>
<!-- Bool&#45;&gt;Int -->
<g id="edge11" class="edge">
<title>Bool&#45;&gt;Int</title>
<path fill="none" stroke="#000000" d="M313.74,-33.17C325.68,-43.36 341.95,-57.25 355.28,-68.63"/>
<polygon fill="#000000" stroke="#000000" points="353.26,-71.5 363.13,-75.33 357.8,-66.18 353.26,-71.5"/>
</g>
<!-- Signal -->
<g id="node15" class="node">
<title>Signal</title>
<g id="a_node15"><a xlink:href="/type/Signal" xlink:title="Signal">
<ellipse fill="none" stroke="#33bb33" cx="379.15" cy="-18" rx="35.19" ry="18"/>
<text text-anchor="middle" x="379.15" y="-14.3" font-family="FreeSans" font-size="14.00" fill="#33bb33">Signal</text>
</a>
</g>
</g>
<!-- Signal&#45;&gt;Int -->
<g id="edge12" class="edge">
<title>Signal&#45;&gt;Int</title>
<path fill="none" stroke="#000000" d="M379.15,-36.3C379.15,-44.02 379.15,-53.29 379.15,-61.89"/>
<polygon fill="#000000" stroke="#000000" points="375.65,-61.9 379.15,-71.9 382.65,-61.9 375.65,-61.9"/>
</g>
<!-- Endian -->
<g id="node16" class="node">
<title>Endian</title>
<g id="a_node16"><a xlink:href="/type/Endian" xlink:title="Endian">
<ellipse fill="none" stroke="#33bb33" cx="470.15" cy="-18" rx="38.19" ry="18"/>
<text text-anchor="middle" x="470.15" y="-14.3" font-family="FreeSans" font-size="14.00" fill="#33bb33">Endian</text>
</a>
</g>
</g>
<!-- Endian&#45;&gt;Int -->
<g id="edge13" class="edge">
<title>Endian&#45;&gt;Int</title>
<path fill="none" stroke="#000000" d="M450.85,-33.85C437.33,-44.25 419.13,-58.25 404.44,-69.54"/>
<polygon fill="#000000" stroke="#000000" points="402.06,-66.96 396.27,-75.83 406.33,-72.51 402.06,-66.96"/>
</g>
<!-- PromiseStatus -->
<g id="node17" class="node">
<title>PromiseStatus</title>
<g id="a_node17"><a xlink:href="/type/PromiseStatus" xlink:title="PromiseStatus">
<ellipse fill="none" stroke="#33bb33" cx="594.15" cy="-18" rx="67.69" ry="18"/>
<text text-anchor="middle" x="594.15" y="-14.3" font-family="FreeSans" font-size="14.00" fill="#33bb33">PromiseStatus</text>
</a>
</g>
</g>
<!-- PromiseStatus&#45;&gt;Int -->
<g id="edge14" class="edge">
<title>PromiseStatus&#45;&gt;Int</title>
<path fill="none" stroke="#000000" d="M553.2,-32.33C512.38,-45.62 450.45,-65.79 412.51,-78.14"/>
<polygon fill="#000000" stroke="#000000" points="411.38,-74.82 402.95,-81.25 413.55,-81.48 411.38,-74.82"/>
</g>
</g>
</svg>
