<?xml version="1.0" encoding="UTF-8" standalone="no"?>
<!DOCTYPE svg PUBLIC "-//W3C//DTD SVG 1.1//EN"
 "http://www.w3.org/Graphics/SVG/1.1/DTD/svg11.dtd">
<!-- Generated by graphviz version 2.43.0 (0)
 -->
<!-- Title: perl6&#45;type&#45;graph Pages: 1 -->
<svg width="265pt" height="332pt"
 viewBox="0.00 0.00 264.54 332.00" xmlns="http://www.w3.org/2000/svg" xmlns:xlink="http://www.w3.org/1999/xlink">
<g id="graph0" class="graph" transform="scale(1 1) rotate(0) translate(4 328)">
<title>perl6&#45;type&#45;graph</title>
<polygon fill="white" stroke="transparent" points="-4,4 -4,-328 260.54,-328 260.54,4 -4,4"/>
<!-- Rational -->
<g id="node1" class="node">
<title>Rational</title>
<g id="a_node1"><a xlink:href="/type/Rational" xlink:title="Rational">
<ellipse fill="none" stroke="#6666ff" cx="44.2" cy="-162" rx="42.79" ry="18"/>
<text text-anchor="middle" x="44.2" y="-158.3" font-family="FreeSans" font-size="14.00" fill="#6666ff">Rational</text>
</a>
</g>
</g>
<!-- Real -->
<g id="node3" class="node">
<title>Real</title>
<g id="a_node3"><a xlink:href="/type/Real" xlink:title="Real">
<ellipse fill="none" stroke="#6666ff" cx="44.2" cy="-234" rx="28.7" ry="18"/>
<text text-anchor="middle" x="44.2" y="-230.3" font-family="FreeSans" font-size="14.00" fill="#6666ff">Real</text>
</a>
</g>
</g>
<!-- Rational&#45;&gt;Real -->
<g id="edge8" class="edge">
<title>Rational&#45;&gt;Real</title>
<path fill="none" stroke="#6666ff" d="M44.2,-180.3C44.2,-188.02 44.2,-197.29 44.2,-205.89"/>
<polygon fill="#6666ff" stroke="#6666ff" points="40.7,-205.9 44.2,-215.9 47.7,-205.9 40.7,-205.9"/>
</g>
<!-- Numeric -->
<g id="node2" class="node">
<title>Numeric</title>
<g id="a_node2"><a xlink:href="/type/Numeric" xlink:title="Numeric">
<ellipse fill="none" stroke="#6666ff" cx="44.2" cy="-306" rx="44.39" ry="18"/>
<text text-anchor="middle" x="44.2" y="-302.3" font-family="FreeSans" font-size="14.00" fill="#6666ff">Numeric</text>
</a>
</g>
</g>
<!-- Real&#45;&gt;Numeric -->
<g id="edge9" class="edge">
<title>Real&#45;&gt;Numeric</title>
<path fill="none" stroke="#6666ff" d="M44.2,-252.3C44.2,-260.02 44.2,-269.29 44.2,-277.89"/>
<polygon fill="#6666ff" stroke="#6666ff" points="40.7,-277.9 44.2,-287.9 47.7,-277.9 40.7,-277.9"/>
</g>
<!-- Mu -->
<g id="node4" class="node">
<title>Mu</title>
<g id="a_node4"><a xlink:href="/type/Mu" xlink:title="Mu">
<ellipse fill="none" stroke="#000000" cx="133.2" cy="-306" rx="27" ry="18"/>
<text text-anchor="middle" x="133.2" y="-302.3" font-family="FreeSans" font-size="14.00" fill="#000000">Mu</text>
</a>
</g>
</g>
<!-- Any -->
<g id="node5" class="node">
<title>Any</title>
<g id="a_node5"><a xlink:href="/type/Any" xlink:title="Any">
<ellipse fill="none" stroke="#000000" cx="133.2" cy="-234" rx="27" ry="18"/>
<text text-anchor="middle" x="133.2" y="-230.3" font-family="FreeSans" font-size="14.00" fill="#000000">Any</text>
</a>
</g>
</g>
<!-- Any&#45;&gt;Mu -->
<g id="edge1" class="edge">
<title>Any&#45;&gt;Mu</title>
<path fill="none" stroke="#000000" d="M133.2,-252.3C133.2,-260.02 133.2,-269.29 133.2,-277.89"/>
<polygon fill="#000000" stroke="#000000" points="129.7,-277.9 133.2,-287.9 136.7,-277.9 129.7,-277.9"/>
</g>
<!-- Cool -->
<g id="node6" class="node">
<title>Cool</title>
<g id="a_node6"><a xlink:href="/type/Cool" xlink:title="Cool">
<ellipse fill="none" stroke="#000000" cx="133.2" cy="-162" rx="28.7" ry="18"/>
<text text-anchor="middle" x="133.2" y="-158.3" font-family="FreeSans" font-size="14.00" fill="#000000">Cool</text>
</a>
</g>
</g>
<!-- Cool&#45;&gt;Any -->
<g id="edge2" class="edge">
<title>Cool&#45;&gt;Any</title>
<path fill="none" stroke="#000000" d="M133.2,-180.3C133.2,-188.02 133.2,-197.29 133.2,-205.89"/>
<polygon fill="#000000" stroke="#000000" points="129.7,-205.9 133.2,-215.9 136.7,-205.9 129.7,-205.9"/>
</g>
<!-- Rat -->
<g id="node7" class="node">
<title>Rat</title>
<g id="a_node7"><a xlink:href="/type/Rat" xlink:title="Rat">
<ellipse fill="none" stroke="#000000" cx="131.2" cy="-90" rx="27" ry="18"/>
<text text-anchor="middle" x="131.2" y="-86.3" font-family="FreeSans" font-size="14.00" fill="#000000">Rat</text>
</a>
</g>
</g>
<!-- Rat&#45;&gt;Rational -->
<g id="edge10" class="edge">
<title>Rat&#45;&gt;Rational</title>
<path fill="none" stroke="#6666ff" d="M114.42,-104.5C102.2,-114.33 85.39,-127.85 71.28,-139.21"/>
<polygon fill="#6666ff" stroke="#6666ff" points="68.94,-136.6 63.34,-145.59 73.33,-142.05 68.94,-136.6"/>
</g>
<!-- Rat&#45;&gt;Cool -->
<g id="edge3" class="edge">
<title>Rat&#45;&gt;Cool</title>
<path fill="none" stroke="#000000" d="M131.69,-108.3C131.91,-116.02 132.18,-125.29 132.42,-133.89"/>
<polygon fill="#000000" stroke="#000000" points="128.92,-134 132.71,-143.9 135.92,-133.8 128.92,-134"/>
</g>
<!-- FatRat -->
<g id="node8" class="node">
<title>FatRat</title>
<g id="a_node8"><a xlink:href="/type/FatRat" xlink:title="FatRat">
<ellipse fill="none" stroke="#000000" cx="47.2" cy="-90" rx="37.09" ry="18"/>
<text text-anchor="middle" x="47.2" y="-86.3" font-family="FreeSans" font-size="14.00" fill="#000000">FatRat</text>
</a>
</g>
</g>
<!-- FatRat&#45;&gt;Rational -->
<g id="edge11" class="edge">
<title>FatRat&#45;&gt;Rational</title>
<path fill="none" stroke="#6666ff" d="M46.45,-108.3C46.12,-116.02 45.73,-125.29 45.36,-133.89"/>
<polygon fill="#6666ff" stroke="#6666ff" points="41.86,-133.75 44.93,-143.9 48.85,-134.05 41.86,-133.75"/>
</g>
<!-- FatRat&#45;&gt;Cool -->
<g id="edge4" class="edge">
<title>FatRat&#45;&gt;Cool</title>
<path fill="none" stroke="#000000" d="M65.43,-105.85C77.93,-116.02 94.65,-129.63 108.36,-140.79"/>
<polygon fill="#000000" stroke="#000000" points="106.48,-143.76 116.44,-147.36 110.9,-138.34 106.48,-143.76"/>
</g>
<!-- Stringy -->
<g id="node9" class="node">
<title>Stringy</title>
<g id="a_node9"><a xlink:href="/type/Stringy" xlink:title="Stringy">
<ellipse fill="none" stroke="#6666ff" cx="218.2" cy="-162" rx="38.19" ry="18"/>
<text text-anchor="middle" x="218.2" y="-158.3" font-family="FreeSans" font-size="14.00" fill="#6666ff">Stringy</text>
</a>
</g>
</g>
<!-- Str -->
<g id="node10" class="node">
<title>Str</title>
<g id="a_node10"><a xlink:href="/type/Str" xlink:title="Str">
<ellipse fill="none" stroke="#000000" cx="203.2" cy="-90" rx="27" ry="18"/>
<text text-anchor="middle" x="203.2" y="-86.3" font-family="FreeSans" font-size="14.00" fill="#000000">Str</text>
</a>
</g>
</g>
<!-- Str&#45;&gt;Cool -->
<g id="edge5" class="edge">
<title>Str&#45;&gt;Cool</title>
<path fill="none" stroke="#000000" d="M188.69,-105.5C179.06,-115.14 166.23,-127.96 155.34,-138.86"/>
<polygon fill="#000000" stroke="#000000" points="152.76,-136.49 148.16,-146.03 157.71,-141.44 152.76,-136.49"/>
</g>
<!-- Str&#45;&gt;Stringy -->
<g id="edge12" class="edge">
<title>Str&#45;&gt;Stringy</title>
<path fill="none" stroke="#6666ff" d="M206.83,-107.95C208.5,-115.74 210.52,-125.18 212.39,-133.92"/>
<polygon fill="#6666ff" stroke="#6666ff" points="208.98,-134.68 214.49,-143.72 215.82,-133.21 208.98,-134.68"/>
</g>
<!-- RatStr -->
<g id="node11" class="node">
<title>RatStr</title>
<g id="a_node11"><a xlink:href="/type/RatStr" xlink:title="RatStr">
<ellipse fill="none" stroke="#000000" cx="167.2" cy="-18" rx="36" ry="18"/>
<text text-anchor="middle" x="167.2" y="-14.3" font-family="FreeSans" font-size="14.00" fill="#000000">RatStr</text>
</a>
</g>
</g>
<!-- RatStr&#45;&gt;Rat -->
<g id="edge6" class="edge">
<title>RatStr&#45;&gt;Rat</title>
<path fill="none" stroke="#000000" d="M158.66,-35.59C154.36,-43.96 149.05,-54.29 144.24,-63.63"/>
<polygon fill="#000000" stroke="#000000" points="141.13,-62.04 139.67,-72.53 147.35,-65.24 141.13,-62.04"/>
</g>
<!-- RatStr&#45;&gt;Str -->
<g id="edge7" class="edge">
<title>RatStr&#45;&gt;Str</title>
<path fill="none" stroke="#000000" d="M175.73,-35.59C180.03,-43.96 185.35,-54.29 190.15,-63.63"/>
<polygon fill="#000000" stroke="#000000" points="187.04,-65.24 194.73,-72.53 193.26,-62.04 187.04,-65.24"/>
</g>
</g>
</svg>
