<?xml version="1.0" encoding="UTF-8" standalone="no"?>
<!DOCTYPE svg PUBLIC "-//W3C//DTD SVG 1.1//EN"
 "http://www.w3.org/Graphics/SVG/1.1/DTD/svg11.dtd">
<!-- Generated by graphviz version 2.43.0 (0)
 -->
<!-- Title: perl6&#45;type&#45;graph Pages: 1 -->
<svg width="1717pt" height="1267pt"
 viewBox="0.00 0.00 1716.59 1267.22" xmlns="http://www.w3.org/2000/svg" xmlns:xlink="http://www.w3.org/1999/xlink">
<g id="graph0" class="graph" transform="scale(1 1) rotate(0) translate(4 1263.22)">
<title>perl6&#45;type&#45;graph</title>
<polygon fill="#ffffff" stroke="transparent" points="-4,4 -4,-1263.22 1712.59,-1263.22 1712.59,4 -4,4"/>
<!-- Metamodel::MROBasedTypeChecking -->
<g id="node1" class="node">
<title>Metamodel::MROBasedTypeChecking</title>
<g id="a_node1"><a xlink:href="/type/Metamodel::MROBasedTypeChecking" xlink:title="Metamodel::MROBasedTypeChecking">
<ellipse fill="none" stroke="#6666ff" cx="459.57" cy="-397.6" rx="163.27" ry="18"/>
<text text-anchor="middle" x="459.57" y="-393.9" font-family="FreeSans" font-size="14.00" fill="#6666ff">Metamodel::MROBasedTypeChecking</text>
</a>
</g>
</g>
<!-- Mu -->
<g id="node2" class="node">
<title>Mu</title>
<g id="a_node2"><a xlink:href="/type/Mu" xlink:title="Mu">
<ellipse fill="none" stroke="#000000" cx="1681.59" cy="-18" rx="27" ry="18"/>
<text text-anchor="middle" x="1681.59" y="-14.3" font-family="FreeSans" font-size="14.00" fill="#000000">Mu</text>
</a>
</g>
</g>
<!-- Any -->
<g id="node3" class="node">
<title>Any</title>
<g id="a_node3"><a xlink:href="/type/Any" xlink:title="Any">
<ellipse fill="none" stroke="#000000" cx="1236.42" cy="-448.58" rx="27" ry="18"/>
<text text-anchor="middle" x="1236.42" y="-444.88" font-family="FreeSans" font-size="14.00" fill="#000000">Any</text>
</a>
</g>
</g>
<!-- Any&#45;&gt;Mu -->
<g id="edge1" class="edge">
<title>Any&#45;&gt;Mu</title>
<path fill="none" stroke="#000000" d="M1251.75,-433.76C1317.82,-369.85 1578.59,-117.63 1658.31,-40.52"/>
<polygon fill="#000000" stroke="#000000" points="1661.12,-42.67 1665.87,-33.2 1656.25,-37.64 1661.12,-42.67"/>
</g>
<!-- Metamodel::Naming -->
<g id="node4" class="node">
<title>Metamodel::Naming</title>
<g id="a_node4"><a xlink:href="/type/Metamodel::Naming" xlink:title="Metamodel::Naming">
<ellipse fill="none" stroke="#6666ff" cx="1237.22" cy="-712.18" rx="90.18" ry="18"/>
<text text-anchor="middle" x="1237.22" y="-708.48" font-family="FreeSans" font-size="14.00" fill="#6666ff">Metamodel::Naming</text>
</a>
</g>
</g>
<!-- Metamodel::Documenting -->
<g id="node5" class="node">
<title>Metamodel::Documenting</title>
<g id="a_node5"><a xlink:href="/type/Metamodel::Documenting" xlink:title="Metamodel::Documenting">
<ellipse fill="none" stroke="#6666ff" cx="1485.77" cy="-587.18" rx="111.28" ry="18"/>
<text text-anchor="middle" x="1485.77" y="-583.48" font-family="FreeSans" font-size="14.00" fill="#6666ff">Metamodel::Documenting</text>
</a>
</g>
</g>
<!-- Metamodel::Versioning -->
<g id="node6" class="node">
<title>Metamodel::Versioning</title>
<g id="a_node6"><a xlink:href="/type/Metamodel::Versioning" xlink:title="Metamodel::Versioning">
<ellipse fill="none" stroke="#6666ff" cx="689.47" cy="-136.93" rx="100.98" ry="18"/>
<text text-anchor="middle" x="689.47" y="-133.23" font-family="FreeSans" font-size="14.00" fill="#6666ff">Metamodel::Versioning</text>
</a>
</g>
</g>
<!-- Metamodel::Stashing -->
<g id="node7" class="node">
<title>Metamodel::Stashing</title>
<g id="a_node7"><a xlink:href="/type/Metamodel::Stashing" xlink:title="Metamodel::Stashing">
<ellipse fill="none" stroke="#6666ff" cx="724.32" cy="-426.43" rx="93.68" ry="18"/>
<text text-anchor="middle" x="724.32" y="-422.73" font-family="FreeSans" font-size="14.00" fill="#6666ff">Metamodel::Stashing</text>
</a>
</g>
</g>
<!-- Metamodel::MultipleInheritance -->
<g id="node8" class="node">
<title>Metamodel::MultipleInheritance</title>
<g id="a_node8"><a xlink:href="/type/Metamodel::MultipleInheritance" xlink:title="Metamodel::MultipleInheritance">
<ellipse fill="none" stroke="#6666ff" cx="1460.39" cy="-407.95" rx="133.78" ry="18"/>
<text text-anchor="middle" x="1460.39" y="-404.25" font-family="FreeSans" font-size="14.00" fill="#6666ff">Metamodel::MultipleInheritance</text>
</a>
</g>
</g>
<!-- Metamodel::C3MRO -->
<g id="node9" class="node">
<title>Metamodel::C3MRO</title>
<g id="a_node9"><a xlink:href="/type/Metamodel::C3MRO" xlink:title="Metamodel::C3MRO">
<ellipse fill="none" stroke="#6666ff" cx="886.07" cy="-77.55" rx="92.08" ry="18"/>
<text text-anchor="middle" x="886.07" y="-73.85" font-family="FreeSans" font-size="14.00" fill="#6666ff">Metamodel::C3MRO</text>
</a>
</g>
</g>
<!-- Metamodel::MROBasedMethodDispatch -->
<g id="node10" class="node">
<title>Metamodel::MROBasedMethodDispatch</title>
<g id="a_node10"><a xlink:href="/type/Metamodel::MROBasedMethodDispatch" xlink:title="Metamodel::MROBasedMethodDispatch">
<ellipse fill="none" stroke="#6666ff" cx="995.58" cy="-432.34" rx="169.77" ry="18"/>
<text text-anchor="middle" x="995.58" y="-428.64" font-family="FreeSans" font-size="14.00" fill="#6666ff">Metamodel::MROBasedMethodDispatch</text>
</a>
</g>
</g>
<!-- Metamodel::NativeHOW -->
<g id="node11" class="node">
<title>Metamodel::NativeHOW</title>
<g id="a_node11"><a xlink:href="/type/Metamodel::NativeHOW" xlink:title="Metamodel::NativeHOW">
<ellipse fill="none" stroke="#000000" cx="1142.79" cy="-127.27" rx="106.68" ry="18"/>
<text text-anchor="middle" x="1142.79" y="-123.57" font-family="FreeSans" font-size="14.00" fill="#000000">Metamodel::NativeHOW</text>
</a>
</g>
</g>
<!-- Metamodel::NativeHOW&#45;&gt;Metamodel::MROBasedTypeChecking -->
<g id="edge12" class="edge">
<title>Metamodel::NativeHOW&#45;&gt;Metamodel::MROBasedTypeChecking</title>
<path fill="none" stroke="#6666ff" d="M1100.82,-143.87C982.29,-190.78 645.03,-324.22 513.26,-376.36"/>
<polygon fill="#6666ff" stroke="#6666ff" points="511.77,-373.18 503.76,-380.12 514.34,-379.69 511.77,-373.18"/>
</g>
<!-- Metamodel::NativeHOW&#45;&gt;Any -->
<g id="edge2" class="edge">
<title>Metamodel::NativeHOW&#45;&gt;Any</title>
<path fill="none" stroke="#000000" d="M1148.09,-145.46C1163.7,-199.04 1209.58,-356.45 1228.31,-420.75"/>
<polygon fill="#000000" stroke="#000000" points="1225.02,-421.96 1231.18,-430.58 1231.74,-420 1225.02,-421.96"/>
</g>
<!-- Metamodel::NativeHOW&#45;&gt;Metamodel::Naming -->
<g id="edge5" class="edge">
<title>Metamodel::NativeHOW&#45;&gt;Metamodel::Naming</title>
<path fill="none" stroke="#6666ff" d="M1145.72,-145.41C1159.29,-229.5 1216.12,-581.48 1232.67,-684.03"/>
<polygon fill="#6666ff" stroke="#6666ff" points="1229.22,-684.64 1234.27,-693.95 1236.13,-683.52 1229.22,-684.64"/>
</g>
<!-- Metamodel::NativeHOW&#45;&gt;Metamodel::Documenting -->
<g id="edge6" class="edge">
<title>Metamodel::NativeHOW&#45;&gt;Metamodel::Documenting</title>
<path fill="none" stroke="#6666ff" d="M1153.16,-145.38C1167.21,-169.92 1190.58,-210.73 1190.58,-210.73 1190.58,-210.73 1324.91,-407.89 1324.91,-407.89 1324.91,-407.89 1418.37,-512.06 1462.82,-561.59"/>
<polygon fill="#6666ff" stroke="#6666ff" points="1460.48,-564.22 1469.76,-569.33 1465.69,-559.55 1460.48,-564.22"/>
</g>
<!-- Metamodel::NativeHOW&#45;&gt;Metamodel::Versioning -->
<g id="edge7" class="edge">
<title>Metamodel::NativeHOW&#45;&gt;Metamodel::Versioning</title>
<path fill="none" stroke="#6666ff" d="M1036.79,-129.53C965.57,-131.04 871.91,-133.04 799.8,-134.58"/>
<polygon fill="#6666ff" stroke="#6666ff" points="799.7,-131.08 789.77,-134.79 799.84,-138.08 799.7,-131.08"/>
</g>
<!-- Metamodel::NativeHOW&#45;&gt;Metamodel::Stashing -->
<g id="edge8" class="edge">
<title>Metamodel::NativeHOW&#45;&gt;Metamodel::Stashing</title>
<path fill="none" stroke="#6666ff" d="M1118.17,-144.87C1046.5,-196.1 837.92,-345.22 756.97,-403.09"/>
<polygon fill="#6666ff" stroke="#6666ff" points="754.75,-400.38 748.65,-409.04 758.82,-406.07 754.75,-400.38"/>
</g>
<!-- Metamodel::NativeHOW&#45;&gt;Metamodel::MultipleInheritance -->
<g id="edge9" class="edge">
<title>Metamodel::NativeHOW&#45;&gt;Metamodel::MultipleInheritance</title>
<path fill="none" stroke="#6666ff" d="M1153.16,-145.38C1167.21,-169.92 1190.58,-210.73 1190.58,-210.73 1190.58,-210.73 1355.85,-331.53 1427.69,-384.04"/>
<polygon fill="#6666ff" stroke="#6666ff" points="1425.83,-387.02 1435.97,-390.1 1429.97,-381.37 1425.83,-387.02"/>
</g>
<!-- Metamodel::NativeHOW&#45;&gt;Metamodel::C3MRO -->
<g id="edge10" class="edge">
<title>Metamodel::NativeHOW&#45;&gt;Metamodel::C3MRO</title>
<path fill="none" stroke="#6666ff" d="M1072.64,-113.68C1038.32,-107.03 996.96,-99.02 961.91,-92.24"/>
<polygon fill="#6666ff" stroke="#6666ff" points="962.21,-88.73 951.72,-90.26 960.88,-95.6 962.21,-88.73"/>
</g>
<!-- Metamodel::NativeHOW&#45;&gt;Metamodel::MROBasedMethodDispatch -->
<g id="edge11" class="edge">
<title>Metamodel::NativeHOW&#45;&gt;Metamodel::MROBasedMethodDispatch</title>
<path fill="none" stroke="#6666ff" d="M1134.02,-145.44C1109.17,-196.94 1038.15,-344.11 1008.66,-405.22"/>
<polygon fill="#6666ff" stroke="#6666ff" points="1005.49,-403.74 1004.3,-414.26 1011.8,-406.78 1005.49,-403.74"/>
</g>
<!-- Metamodel::AttributeContainer -->
<g id="node12" class="node">
<title>Metamodel::AttributeContainer</title>
<g id="a_node12"><a xlink:href="/type/Metamodel::AttributeContainer" xlink:title="Metamodel::AttributeContainer">
<ellipse fill="none" stroke="#6666ff" cx="353.43" cy="-721.1" rx="129.98" ry="18"/>
<text text-anchor="middle" x="353.43" y="-717.4" font-family="FreeSans" font-size="14.00" fill="#6666ff">Metamodel::AttributeContainer</text>
</a>
</g>
</g>
<!-- Metamodel::MethodContainer -->
<g id="node13" class="node">
<title>Metamodel::MethodContainer</title>
<g id="a_node13"><a xlink:href="/type/Metamodel::MethodContainer" xlink:title="Metamodel::MethodContainer">
<ellipse fill="none" stroke="#6666ff" cx="1180.68" cy="-1213.79" rx="127.28" ry="18"/>
<text text-anchor="middle" x="1180.68" y="-1210.09" font-family="FreeSans" font-size="14.00" fill="#6666ff">Metamodel::MethodContainer</text>
</a>
</g>
</g>
<!-- Metamodel::MultiMethodContainer -->
<g id="node14" class="node">
<title>Metamodel::MultiMethodContainer</title>
<g id="a_node14"><a xlink:href="/type/Metamodel::MultiMethodContainer" xlink:title="Metamodel::MultiMethodContainer">
<ellipse fill="none" stroke="#6666ff" cx="899.02" cy="-1241.22" rx="146.47" ry="18"/>
<text text-anchor="middle" x="899.02" y="-1237.52" font-family="FreeSans" font-size="14.00" fill="#6666ff">Metamodel::MultiMethodContainer</text>
</a>
</g>
</g>
<!-- Metamodel::RoleContainer -->
<g id="node15" class="node">
<title>Metamodel::RoleContainer</title>
<g id="a_node15"><a xlink:href="/type/Metamodel::RoleContainer" xlink:title="Metamodel::RoleContainer">
<ellipse fill="none" stroke="#6666ff" cx="629.05" cy="-1208.96" rx="115.88" ry="18"/>
<text text-anchor="middle" x="629.05" y="-1205.26" font-family="FreeSans" font-size="14.00" fill="#6666ff">Metamodel::RoleContainer</text>
</a>
</g>
</g>
<!-- Metamodel::BaseType -->
<g id="node16" class="node">
<title>Metamodel::BaseType</title>
<g id="a_node16"><a xlink:href="/type/Metamodel::BaseType" xlink:title="Metamodel::BaseType">
<ellipse fill="none" stroke="#6666ff" cx="99.44" cy="-1160.02" rx="99.38" ry="18"/>
<text text-anchor="middle" x="99.44" y="-1156.32" font-family="FreeSans" font-size="14.00" fill="#6666ff">Metamodel::BaseType</text>
</a>
</g>
</g>
<!-- Metamodel::BUILDPLAN -->
<g id="node17" class="node">
<title>Metamodel::BUILDPLAN</title>
<g id="a_node17"><a xlink:href="/type/Metamodel::BUILDPLAN" xlink:title="Metamodel::BUILDPLAN">
<ellipse fill="none" stroke="#6666ff" cx="1221.95" cy="-1075.67" rx="109.68" ry="18"/>
<text text-anchor="middle" x="1221.95" y="-1071.97" font-family="FreeSans" font-size="14.00" fill="#6666ff">Metamodel::BUILDPLAN</text>
</a>
</g>
</g>
<!-- Metamodel::BoolificationProtocol -->
<g id="node18" class="node">
<title>Metamodel::BoolificationProtocol</title>
<g id="a_node18"><a xlink:href="/type/Metamodel::BoolificationProtocol" xlink:title="Metamodel::BoolificationProtocol">
<ellipse fill="none" stroke="#6666ff" cx="505.47" cy="-1111.75" rx="139.18" ry="18"/>
<text text-anchor="middle" x="505.47" y="-1108.05" font-family="FreeSans" font-size="14.00" fill="#6666ff">Metamodel::BoolificationProtocol</text>
</a>
</g>
</g>
<!-- Metamodel::Mixins -->
<g id="node19" class="node">
<title>Metamodel::Mixins</title>
<g id="a_node19"><a xlink:href="/type/Metamodel::Mixins" xlink:title="Metamodel::Mixins">
<ellipse fill="none" stroke="#6666ff" cx="399.27" cy="-913.79" rx="85.29" ry="18"/>
<text text-anchor="middle" x="399.27" y="-910.09" font-family="FreeSans" font-size="14.00" fill="#6666ff">Metamodel::Mixins</text>
</a>
</g>
</g>
<!-- Metamodel::EnumHOW -->
<g id="node20" class="node">
<title>Metamodel::EnumHOW</title>
<g id="a_node20"><a xlink:href="/type/Metamodel::EnumHOW" xlink:title="Metamodel::EnumHOW">
<ellipse fill="none" stroke="#000000" cx="734.21" cy="-859.24" rx="104.78" ry="18"/>
<text text-anchor="middle" x="734.21" y="-855.54" font-family="FreeSans" font-size="14.00" fill="#000000">Metamodel::EnumHOW</text>
</a>
</g>
</g>
<!-- Metamodel::EnumHOW&#45;&gt;Metamodel::MROBasedTypeChecking -->
<g id="edge21" class="edge">
<title>Metamodel::EnumHOW&#45;&gt;Metamodel::MROBasedTypeChecking</title>
<path fill="none" stroke="#6666ff" d="M723.45,-841.14C681.1,-769.96 525.85,-509.02 475.47,-424.34"/>
<polygon fill="#6666ff" stroke="#6666ff" points="478.38,-422.38 470.26,-415.57 472.36,-425.96 478.38,-422.38"/>
</g>
<!-- Metamodel::EnumHOW&#45;&gt;Any -->
<g id="edge3" class="edge">
<title>Metamodel::EnumHOW&#45;&gt;Any</title>
<path fill="none" stroke="#000000" d="M751.71,-841.39C790.79,-801.52 881.72,-708.75 881.72,-708.75 881.72,-708.75 1127.19,-528.7 1209.72,-468.17"/>
<polygon fill="#000000" stroke="#000000" points="1211.86,-470.94 1217.85,-462.2 1207.72,-465.29 1211.86,-470.94"/>
</g>
<!-- Metamodel::EnumHOW&#45;&gt;Metamodel::Naming -->
<g id="edge13" class="edge">
<title>Metamodel::EnumHOW&#45;&gt;Metamodel::Naming</title>
<path fill="none" stroke="#6666ff" d="M787.57,-843.64C881.8,-816.09 1077.1,-758.99 1176.4,-729.96"/>
<polygon fill="#6666ff" stroke="#6666ff" points="1177.67,-733.23 1186.28,-727.07 1175.7,-726.51 1177.67,-733.23"/>
</g>
<!-- Metamodel::EnumHOW&#45;&gt;Metamodel::Stashing -->
<g id="edge14" class="edge">
<title>Metamodel::EnumHOW&#45;&gt;Metamodel::Stashing</title>
<path fill="none" stroke="#6666ff" d="M733.8,-841.19C732.26,-773.82 726.84,-536.71 724.97,-454.64"/>
<polygon fill="#6666ff" stroke="#6666ff" points="728.47,-454.47 724.74,-444.55 721.47,-454.63 728.47,-454.47"/>
</g>
<!-- Metamodel::EnumHOW&#45;&gt;Metamodel::MROBasedMethodDispatch -->
<g id="edge20" class="edge">
<title>Metamodel::EnumHOW&#45;&gt;Metamodel::MROBasedMethodDispatch</title>
<path fill="none" stroke="#6666ff" d="M745.28,-841.17C786.35,-774.09 930.21,-539.1 979.14,-459.18"/>
<polygon fill="#6666ff" stroke="#6666ff" points="982.13,-461.01 984.37,-450.65 976.16,-457.35 982.13,-461.01"/>
</g>
<!-- Metamodel::EnumHOW&#45;&gt;Metamodel::AttributeContainer -->
<g id="edge15" class="edge">
<title>Metamodel::EnumHOW&#45;&gt;Metamodel::AttributeContainer</title>
<path fill="none" stroke="#6666ff" d="M689.04,-842.85C619.23,-817.53 485.3,-768.94 409.44,-741.42"/>
<polygon fill="#6666ff" stroke="#6666ff" points="410.63,-738.13 400.03,-738 408.24,-744.71 410.63,-738.13"/>
</g>
<!-- Metamodel::EnumHOW&#45;&gt;Metamodel::MethodContainer -->
<g id="edge16" class="edge">
<title>Metamodel::EnumHOW&#45;&gt;Metamodel::MethodContainer</title>
<path fill="none" stroke="#6666ff" d="M756.66,-877.07C830.5,-935.71 1065.96,-1122.69 1150.28,-1189.65"/>
<polygon fill="#6666ff" stroke="#6666ff" points="1148.19,-1192.45 1158.19,-1195.93 1152.54,-1186.97 1148.19,-1192.45"/>
</g>
<!-- Metamodel::EnumHOW&#45;&gt;Metamodel::MultiMethodContainer -->
<g id="edge17" class="edge">
<title>Metamodel::EnumHOW&#45;&gt;Metamodel::MultiMethodContainer</title>
<path fill="none" stroke="#6666ff" d="M742.05,-877.41C768.57,-938.86 855.03,-1139.26 887,-1213.35"/>
<polygon fill="#6666ff" stroke="#6666ff" points="883.96,-1215.14 891.13,-1222.94 890.38,-1212.37 883.96,-1215.14"/>
</g>
<!-- Metamodel::EnumHOW&#45;&gt;Metamodel::RoleContainer -->
<g id="edge18" class="edge">
<title>Metamodel::EnumHOW&#45;&gt;Metamodel::RoleContainer</title>
<path fill="none" stroke="#6666ff" d="M728.71,-877.55C711.42,-935.03 658.16,-1112.16 637.42,-1181.1"/>
<polygon fill="#6666ff" stroke="#6666ff" points="634.03,-1180.24 634.5,-1190.83 640.73,-1182.26 634.03,-1180.24"/>
</g>
<!-- Metamodel::EnumHOW&#45;&gt;Metamodel::BaseType -->
<g id="edge19" class="edge">
<title>Metamodel::EnumHOW&#45;&gt;Metamodel::BaseType</title>
<path fill="none" stroke="#6666ff" d="M698.27,-876.27C589.49,-927.82 263.97,-1082.06 144.26,-1138.78"/>
<polygon fill="#6666ff" stroke="#6666ff" points="142.53,-1135.73 134.99,-1143.17 145.53,-1142.06 142.53,-1135.73"/>
</g>
<!-- Metamodel::EnumHOW&#45;&gt;Metamodel::BUILDPLAN -->
<g id="edge22" class="edge">
<title>Metamodel::EnumHOW&#45;&gt;Metamodel::BUILDPLAN</title>
<path fill="none" stroke="#6666ff" d="M772.08,-876.04C860.02,-915.07 1077.93,-1011.76 1174.54,-1054.63"/>
<polygon fill="#6666ff" stroke="#6666ff" points="1173.21,-1057.87 1183.77,-1058.73 1176.05,-1051.47 1173.21,-1057.87"/>
</g>
<!-- Metamodel::EnumHOW&#45;&gt;Metamodel::BoolificationProtocol -->
<g id="edge23" class="edge">
<title>Metamodel::EnumHOW&#45;&gt;Metamodel::BoolificationProtocol</title>
<path fill="none" stroke="#6666ff" d="M717.76,-877.4C677.7,-921.62 574.98,-1035.02 528.7,-1086.11"/>
<polygon fill="#6666ff" stroke="#6666ff" points="525.89,-1084 521.77,-1093.76 531.08,-1088.7 525.89,-1084"/>
</g>
<!-- Metamodel::EnumHOW&#45;&gt;Metamodel::Mixins -->
<g id="edge24" class="edge">
<title>Metamodel::EnumHOW&#45;&gt;Metamodel::Mixins</title>
<path fill="none" stroke="#6666ff" d="M658.21,-871.62C603.97,-880.45 531.27,-892.29 476.71,-901.17"/>
<polygon fill="#6666ff" stroke="#6666ff" points="476.05,-897.74 466.74,-902.8 477.17,-904.65 476.05,-897.74"/>
</g>
<!-- Metamodel::Finalization -->
<g id="node21" class="node">
<title>Metamodel::Finalization</title>
<g id="a_node21"><a xlink:href="/type/Metamodel::Finalization" xlink:title="Metamodel::Finalization">
<ellipse fill="none" stroke="#6666ff" cx="1296.17" cy="-210.85" rx="103.98" ry="18"/>
<text text-anchor="middle" x="1296.17" y="-207.15" font-family="FreeSans" font-size="14.00" fill="#6666ff">Metamodel::Finalization</text>
</a>
</g>
</g>
<!-- Metamodel::PrivateMethodContainer -->
<g id="node22" class="node">
<title>Metamodel::PrivateMethodContainer</title>
<g id="a_node22"><a xlink:href="/type/Metamodel::PrivateMethodContainer" xlink:title="Metamodel::PrivateMethodContainer">
<ellipse fill="none" stroke="#6666ff" cx="274.73" cy="-486.9" rx="154.87" ry="18"/>
<text text-anchor="middle" x="274.73" y="-483.2" font-family="FreeSans" font-size="14.00" fill="#6666ff">Metamodel::PrivateMethodContainer</text>
</a>
</g>
</g>
<!-- Metamodel::DefaultParent -->
<g id="node23" class="node">
<title>Metamodel::DefaultParent</title>
<g id="a_node23"><a xlink:href="/type/Metamodel::DefaultParent" xlink:title="Metamodel::DefaultParent">
<ellipse fill="none" stroke="#6666ff" cx="1468.61" cy="-1099.74" rx="113.18" ry="18"/>
<text text-anchor="middle" x="1468.61" y="-1096.04" font-family="FreeSans" font-size="14.00" fill="#6666ff">Metamodel::DefaultParent</text>
</a>
</g>
</g>
<!-- Metamodel::Trusting -->
<g id="node24" class="node">
<title>Metamodel::Trusting</title>
<g id="a_node24"><a xlink:href="/type/Metamodel::Trusting" xlink:title="Metamodel::Trusting">
<ellipse fill="none" stroke="#6666ff" cx="1551.61" cy="-900.7" rx="91.78" ry="18"/>
<text text-anchor="middle" x="1551.61" y="-897" font-family="FreeSans" font-size="14.00" fill="#6666ff">Metamodel::Trusting</text>
</a>
</g>
</g>
<!-- Metamodel::ClassHOW -->
<g id="node25" class="node">
<title>Metamodel::ClassHOW</title>
<g id="a_node25"><a xlink:href="/type/Metamodel::ClassHOW" xlink:title="Metamodel::ClassHOW">
<ellipse fill="none" stroke="#000000" cx="986.66" cy="-708.88" rx="103.18" ry="18"/>
<text text-anchor="middle" x="986.66" y="-705.18" font-family="FreeSans" font-size="14.00" fill="#000000">Metamodel::ClassHOW</text>
</a>
</g>
</g>
<!-- Metamodel::ClassHOW&#45;&gt;Metamodel::MROBasedTypeChecking -->
<g id="edge39" class="edge">
<title>Metamodel::ClassHOW&#45;&gt;Metamodel::MROBasedTypeChecking</title>
<path fill="none" stroke="#6666ff" d="M957.19,-691.48C867.75,-638.66 599.36,-480.16 498.47,-420.58"/>
<polygon fill="#6666ff" stroke="#6666ff" points="500.2,-417.53 489.81,-415.46 496.64,-423.56 500.2,-417.53"/>
</g>
<!-- Metamodel::ClassHOW&#45;&gt;Any -->
<g id="edge4" class="edge">
<title>Metamodel::ClassHOW&#45;&gt;Any</title>
<path fill="none" stroke="#000000" d="M1003.83,-690.99C1048.06,-644.88 1165.9,-522.08 1214.74,-471.17"/>
<polygon fill="#000000" stroke="#000000" points="1217.3,-473.56 1221.7,-463.92 1212.25,-468.72 1217.3,-473.56"/>
</g>
<!-- Metamodel::ClassHOW&#45;&gt;Metamodel::Naming -->
<g id="edge25" class="edge">
<title>Metamodel::ClassHOW&#45;&gt;Metamodel::Naming</title>
<path fill="none" stroke="#6666ff" d="M1090.02,-710.24C1105.5,-710.44 1121.44,-710.65 1136.86,-710.86"/>
<polygon fill="#6666ff" stroke="#6666ff" points="1136.86,-714.36 1146.9,-710.99 1136.95,-707.36 1136.86,-714.36"/>
</g>
<!-- Metamodel::ClassHOW&#45;&gt;Metamodel::Documenting -->
<g id="edge26" class="edge">
<title>Metamodel::ClassHOW&#45;&gt;Metamodel::Documenting</title>
<path fill="none" stroke="#6666ff" d="M1046.86,-694.2C1139.23,-671.68 1315.57,-628.68 1414.29,-604.61"/>
<polygon fill="#6666ff" stroke="#6666ff" points="1415.3,-607.96 1424.18,-602.19 1413.64,-601.16 1415.3,-607.96"/>
</g>
<!-- Metamodel::ClassHOW&#45;&gt;Metamodel::Versioning -->
<g id="edge27" class="edge">
<title>Metamodel::ClassHOW&#45;&gt;Metamodel::Versioning</title>
<path fill="none" stroke="#6666ff" d="M976.01,-690.73C939.9,-629.2 824.34,-432.29 824.34,-432.29 824.34,-432.29 735.54,-237.81 702.05,-164.47"/>
<polygon fill="#6666ff" stroke="#6666ff" points="705.04,-162.6 697.7,-154.96 698.67,-165.51 705.04,-162.6"/>
</g>
<!-- Metamodel::ClassHOW&#45;&gt;Metamodel::Stashing -->
<g id="edge28" class="edge">
<title>Metamodel::ClassHOW&#45;&gt;Metamodel::Stashing</title>
<path fill="none" stroke="#6666ff" d="M969.85,-690.78C924.59,-642.06 800.09,-508.01 747.87,-451.78"/>
<polygon fill="#6666ff" stroke="#6666ff" points="750.36,-449.32 740.99,-444.37 745.23,-454.08 750.36,-449.32"/>
</g>
<!-- Metamodel::ClassHOW&#45;&gt;Metamodel::MultipleInheritance -->
<g id="edge35" class="edge">
<title>Metamodel::ClassHOW&#45;&gt;Metamodel::MultipleInheritance</title>
<path fill="none" stroke="#6666ff" d="M1014.18,-691.4C1095.11,-639.99 1332.4,-489.25 1423.86,-431.15"/>
<polygon fill="#6666ff" stroke="#6666ff" points="1425.94,-433.98 1432.5,-425.66 1422.18,-428.07 1425.94,-433.98"/>
</g>
<!-- Metamodel::ClassHOW&#45;&gt;Metamodel::C3MRO -->
<g id="edge37" class="edge">
<title>Metamodel::ClassHOW&#45;&gt;Metamodel::C3MRO</title>
<path fill="none" stroke="#6666ff" d="M976.01,-690.73C939.9,-629.2 824.34,-432.29 824.34,-432.29 824.34,-432.29 866.56,-189.65 881.17,-105.72"/>
<polygon fill="#6666ff" stroke="#6666ff" points="884.66,-106.08 882.93,-95.63 877.76,-104.88 884.66,-106.08"/>
</g>
<!-- Metamodel::ClassHOW&#45;&gt;Metamodel::MROBasedMethodDispatch -->
<g id="edge38" class="edge">
<title>Metamodel::ClassHOW&#45;&gt;Metamodel::MROBasedMethodDispatch</title>
<path fill="none" stroke="#6666ff" d="M987.24,-690.73C988.76,-643.66 992.84,-517.35 994.67,-460.61"/>
<polygon fill="#6666ff" stroke="#6666ff" points="998.17,-460.66 994.99,-450.55 991.17,-460.43 998.17,-460.66"/>
</g>
<!-- Metamodel::ClassHOW&#45;&gt;Metamodel::AttributeContainer -->
<g id="edge29" class="edge">
<title>Metamodel::ClassHOW&#45;&gt;Metamodel::AttributeContainer</title>
<path fill="none" stroke="#6666ff" d="M883.86,-710.86C777.51,-712.91 610.74,-716.13 492.62,-718.41"/>
<polygon fill="#6666ff" stroke="#6666ff" points="492.35,-714.92 482.42,-718.61 492.48,-721.92 492.35,-714.92"/>
</g>
<!-- Metamodel::ClassHOW&#45;&gt;Metamodel::MethodContainer -->
<g id="edge31" class="edge">
<title>Metamodel::ClassHOW&#45;&gt;Metamodel::MethodContainer</title>
<path fill="none" stroke="#6666ff" d="M992.8,-727.07C1017.79,-801.07 1110.51,-1075.62 1110.51,-1075.62 1110.51,-1075.62 1146.49,-1146.46 1166.92,-1186.69"/>
<polygon fill="#6666ff" stroke="#6666ff" points="1163.86,-1188.4 1171.51,-1195.73 1170.1,-1185.23 1163.86,-1188.4"/>
</g>
<!-- Metamodel::ClassHOW&#45;&gt;Metamodel::MultiMethodContainer -->
<g id="edge33" class="edge">
<title>Metamodel::ClassHOW&#45;&gt;Metamodel::MultiMethodContainer</title>
<path fill="none" stroke="#6666ff" d="M983.69,-726.9C970.78,-805.33 919.41,-1117.36 903.64,-1213.12"/>
<polygon fill="#6666ff" stroke="#6666ff" points="900.16,-1212.77 901.98,-1223.2 907.06,-1213.91 900.16,-1212.77"/>
</g>
<!-- Metamodel::ClassHOW&#45;&gt;Metamodel::RoleContainer -->
<g id="edge34" class="edge">
<title>Metamodel::ClassHOW&#45;&gt;Metamodel::RoleContainer</title>
<path fill="none" stroke="#6666ff" d="M973.72,-726.97C919.67,-802.55 711.8,-1093.24 647.87,-1182.64"/>
<polygon fill="#6666ff" stroke="#6666ff" points="644.94,-1180.72 641.97,-1190.89 650.63,-1184.79 644.94,-1180.72"/>
</g>
<!-- Metamodel::ClassHOW&#45;&gt;Metamodel::BUILDPLAN -->
<g id="edge41" class="edge">
<title>Metamodel::ClassHOW&#45;&gt;Metamodel::BUILDPLAN</title>
<path fill="none" stroke="#6666ff" d="M998.17,-726.82C1036.4,-786.42 1159.34,-978.07 1204.82,-1048.97"/>
<polygon fill="#6666ff" stroke="#6666ff" points="1202.12,-1051.24 1210.47,-1057.77 1208.01,-1047.46 1202.12,-1051.24"/>
</g>
<!-- Metamodel::ClassHOW&#45;&gt;Metamodel::BoolificationProtocol -->
<g id="edge43" class="edge">
<title>Metamodel::ClassHOW&#45;&gt;Metamodel::BoolificationProtocol</title>
<path fill="none" stroke="#6666ff" d="M969.31,-726.73C930.58,-766.6 840.45,-859.37 840.45,-859.37 840.45,-859.37 620.63,-1024.99 537.13,-1087.9"/>
<polygon fill="#6666ff" stroke="#6666ff" points="534.91,-1085.19 529.02,-1094.01 539.12,-1090.78 534.91,-1085.19"/>
</g>
<!-- Metamodel::ClassHOW&#45;&gt;Metamodel::Mixins -->
<g id="edge42" class="edge">
<title>Metamodel::ClassHOW&#45;&gt;Metamodel::Mixins</title>
<path fill="none" stroke="#6666ff" d="M940.08,-725.13C832.5,-762.66 567.28,-855.18 453.04,-895.03"/>
<polygon fill="#6666ff" stroke="#6666ff" points="451.73,-891.78 443.44,-898.38 454.04,-898.39 451.73,-891.78"/>
</g>
<!-- Metamodel::ClassHOW&#45;&gt;Metamodel::Finalization -->
<g id="edge30" class="edge">
<title>Metamodel::ClassHOW&#45;&gt;Metamodel::Finalization</title>
<path fill="none" stroke="#6666ff" d="M998.48,-690.74C1038.56,-629.23 1166.81,-432.39 1166.81,-432.39 1166.81,-432.39 1245.99,-296.78 1280.45,-237.76"/>
<polygon fill="#6666ff" stroke="#6666ff" points="1283.56,-239.38 1285.58,-228.98 1277.52,-235.85 1283.56,-239.38"/>
</g>
<!-- Metamodel::ClassHOW&#45;&gt;Metamodel::PrivateMethodContainer -->
<g id="edge32" class="edge">
<title>Metamodel::ClassHOW&#45;&gt;Metamodel::PrivateMethodContainer</title>
<path fill="none" stroke="#6666ff" d="M936.03,-693.09C809.3,-653.58 478.6,-550.46 338.7,-506.84"/>
<polygon fill="#6666ff" stroke="#6666ff" points="339.56,-503.44 328.97,-503.81 337.47,-510.13 339.56,-503.44"/>
</g>
<!-- Metamodel::ClassHOW&#45;&gt;Metamodel::DefaultParent -->
<g id="edge36" class="edge">
<title>Metamodel::ClassHOW&#45;&gt;Metamodel::DefaultParent</title>
<path fill="none" stroke="#6666ff" d="M1008.62,-726.69C1086.57,-789.9 1350.02,-1003.57 1438.98,-1075.72"/>
<polygon fill="#6666ff" stroke="#6666ff" points="1436.82,-1078.47 1446.79,-1082.05 1441.23,-1073.03 1436.82,-1078.47"/>
</g>
<!-- Metamodel::ClassHOW&#45;&gt;Metamodel::Trusting -->
<g id="edge40" class="edge">
<title>Metamodel::ClassHOW&#45;&gt;Metamodel::Trusting</title>
<path fill="none" stroke="#6666ff" d="M1033.85,-724.9C1137.47,-760.08 1384.45,-843.94 1495.65,-881.7"/>
<polygon fill="#6666ff" stroke="#6666ff" points="1494.75,-885.09 1505.34,-884.99 1497,-878.46 1494.75,-885.09"/>
</g>
</g>
</svg>
