<?xml version="1.0" encoding="UTF-8" standalone="no"?>
<!DOCTYPE svg PUBLIC "-//W3C//DTD SVG 1.1//EN"
 "http://www.w3.org/Graphics/SVG/1.1/DTD/svg11.dtd">
<!-- Generated by graphviz version 2.43.0 (0)
 -->
<!-- Title: perl6&#45;type&#45;graph Pages: 1 -->
<svg width="1028pt" height="404pt"
 viewBox="0.00 0.00 1028.19 404.00" xmlns="http://www.w3.org/2000/svg" xmlns:xlink="http://www.w3.org/1999/xlink">
<g id="graph0" class="graph" transform="scale(1 1) rotate(0) translate(4 400)">
<title>perl6&#45;type&#45;graph</title>
<polygon fill="#ffffff" stroke="transparent" points="-4,4 -4,-400 1024.19,-400 1024.19,4 -4,4"/>
<!-- Real -->
<g id="node1" class="node">
<title>Real</title>
<g id="a_node1"><a xlink:href="/type/Real" xlink:title="Real">
<ellipse fill="none" stroke="#6666ff" cx="536.15" cy="-234" rx="28.7" ry="18"/>
<text text-anchor="middle" x="536.15" y="-230.3" font-family="FreeSans" font-size="14.00" fill="#6666ff">Real</text>
</a>
</g>
</g>
<!-- Numeric -->
<g id="node2" class="node">
<title>Numeric</title>
<g id="a_node2"><a xlink:href="/type/Numeric" xlink:title="Numeric">
<ellipse fill="none" stroke="#6666ff" cx="536.15" cy="-306" rx="44.39" ry="18"/>
<text text-anchor="middle" x="536.15" y="-302.3" font-family="FreeSans" font-size="14.00" fill="#6666ff">Numeric</text>
</a>
</g>
</g>
<!-- Real&#45;&gt;Numeric -->
<g id="edge22" class="edge">
<title>Real&#45;&gt;Numeric</title>
<path fill="none" stroke="#6666ff" d="M536.15,-252.3C536.15,-260.02 536.15,-269.29 536.15,-277.89"/>
<polygon fill="#6666ff" stroke="#6666ff" points="532.65,-277.9 536.15,-287.9 539.65,-277.9 532.65,-277.9"/>
</g>
<!-- Mu -->
<g id="node3" class="node">
<title>Mu</title>
<g id="a_node3"><a xlink:href="/type/Mu" xlink:title="Mu">
<ellipse fill="none" stroke="#000000" cx="732.15" cy="-378" rx="27" ry="18"/>
<text text-anchor="middle" x="732.15" y="-374.3" font-family="FreeSans" font-size="14.00" fill="#000000">Mu</text>
</a>
</g>
</g>
<!-- Any -->
<g id="node4" class="node">
<title>Any</title>
<g id="a_node4"><a xlink:href="/type/Any" xlink:title="Any">
<ellipse fill="none" stroke="#000000" cx="732.15" cy="-306" rx="27" ry="18"/>
<text text-anchor="middle" x="732.15" y="-302.3" font-family="FreeSans" font-size="14.00" fill="#000000">Any</text>
</a>
</g>
</g>
<!-- Any&#45;&gt;Mu -->
<g id="edge1" class="edge">
<title>Any&#45;&gt;Mu</title>
<path fill="none" stroke="#000000" d="M732.15,-324.3C732.15,-332.02 732.15,-341.29 732.15,-349.89"/>
<polygon fill="#000000" stroke="#000000" points="728.65,-349.9 732.15,-359.9 735.65,-349.9 728.65,-349.9"/>
</g>
<!-- Cool -->
<g id="node5" class="node">
<title>Cool</title>
<g id="a_node5"><a xlink:href="/type/Cool" xlink:title="Cool">
<ellipse fill="none" stroke="#000000" cx="732.15" cy="-234" rx="28.7" ry="18"/>
<text text-anchor="middle" x="732.15" y="-230.3" font-family="FreeSans" font-size="14.00" fill="#000000">Cool</text>
</a>
</g>
</g>
<!-- Cool&#45;&gt;Any -->
<g id="edge2" class="edge">
<title>Cool&#45;&gt;Any</title>
<path fill="none" stroke="#000000" d="M732.15,-252.3C732.15,-260.02 732.15,-269.29 732.15,-277.89"/>
<polygon fill="#000000" stroke="#000000" points="728.65,-277.9 732.15,-287.9 735.65,-277.9 728.65,-277.9"/>
</g>
<!-- Instant -->
<g id="node6" class="node">
<title>Instant</title>
<g id="a_node6"><a xlink:href="/type/Instant" xlink:title="Instant">
<ellipse fill="none" stroke="#000000" cx="351.15" cy="-162" rx="37.09" ry="18"/>
<text text-anchor="middle" x="351.15" y="-158.3" font-family="FreeSans" font-size="14.00" fill="#000000">Instant</text>
</a>
</g>
</g>
<!-- Instant&#45;&gt;Real -->
<g id="edge23" class="edge">
<title>Instant&#45;&gt;Real</title>
<path fill="none" stroke="#6666ff" d="M379.65,-173.78C412.91,-186.37 467.82,-207.15 502.97,-220.45"/>
<polygon fill="#6666ff" stroke="#6666ff" points="501.73,-223.72 512.32,-223.99 504.21,-217.17 501.73,-223.72"/>
</g>
<!-- Instant&#45;&gt;Cool -->
<g id="edge3" class="edge">
<title>Instant&#45;&gt;Cool</title>
<path fill="none" stroke="#000000" d="M379.76,-173.57C389.11,-177.03 397.15,-180 397.15,-180 397.15,-180 607.29,-213.25 694.7,-227.08"/>
<polygon fill="#000000" stroke="#000000" points="694.31,-230.56 704.73,-228.66 695.4,-223.64 694.31,-230.56"/>
</g>
<!-- Int -->
<g id="node7" class="node">
<title>Int</title>
<g id="a_node7"><a xlink:href="/type/Int" xlink:title="Int">
<ellipse fill="none" stroke="#000000" cx="433.15" cy="-162" rx="27" ry="18"/>
<text text-anchor="middle" x="433.15" y="-158.3" font-family="FreeSans" font-size="14.00" fill="#000000">Int</text>
</a>
</g>
</g>
<!-- Int&#45;&gt;Real -->
<g id="edge24" class="edge">
<title>Int&#45;&gt;Real</title>
<path fill="none" stroke="#6666ff" d="M451.56,-175.51C467.47,-186.33 490.69,-202.11 508.78,-214.4"/>
<polygon fill="#6666ff" stroke="#6666ff" points="506.96,-217.39 517.19,-220.12 510.89,-211.6 506.96,-217.39"/>
</g>
<!-- Int&#45;&gt;Cool -->
<g id="edge4" class="edge">
<title>Int&#45;&gt;Cool</title>
<path fill="none" stroke="#000000" d="M457.71,-169.52C475.76,-174.32 497.15,-180 497.15,-180 497.15,-180 629.63,-209.88 695.65,-224.77"/>
<polygon fill="#000000" stroke="#000000" points="695.12,-228.24 705.65,-227.02 696.66,-221.41 695.12,-228.24"/>
</g>
<!-- Num -->
<g id="node8" class="node">
<title>Num</title>
<g id="a_node8"><a xlink:href="/type/Num" xlink:title="Num">
<ellipse fill="none" stroke="#000000" cx="536.15" cy="-162" rx="29.8" ry="18"/>
<text text-anchor="middle" x="536.15" y="-158.3" font-family="FreeSans" font-size="14.00" fill="#000000">Num</text>
</a>
</g>
</g>
<!-- Num&#45;&gt;Real -->
<g id="edge25" class="edge">
<title>Num&#45;&gt;Real</title>
<path fill="none" stroke="#6666ff" d="M536.15,-180.3C536.15,-188.02 536.15,-197.29 536.15,-205.89"/>
<polygon fill="#6666ff" stroke="#6666ff" points="532.65,-205.9 536.15,-215.9 539.65,-205.9 532.65,-205.9"/>
</g>
<!-- Num&#45;&gt;Cool -->
<g id="edge5" class="edge">
<title>Num&#45;&gt;Cool</title>
<path fill="none" stroke="#000000" d="M559.73,-173.28C567.95,-176.86 575.15,-180 575.15,-180 575.15,-180 651.8,-205.88 697.98,-221.47"/>
<polygon fill="#000000" stroke="#000000" points="697.02,-224.84 707.61,-224.72 699.26,-218.2 697.02,-224.84"/>
</g>
<!-- Duration -->
<g id="node9" class="node">
<title>Duration</title>
<g id="a_node9"><a xlink:href="/type/Duration" xlink:title="Duration">
<ellipse fill="none" stroke="#000000" cx="732.15" cy="-162" rx="44.39" ry="18"/>
<text text-anchor="middle" x="732.15" y="-158.3" font-family="FreeSans" font-size="14.00" fill="#000000">Duration</text>
</a>
</g>
</g>
<!-- Duration&#45;&gt;Real -->
<g id="edge26" class="edge">
<title>Duration&#45;&gt;Real</title>
<path fill="none" stroke="#6666ff" d="M699.78,-174.56C664,-187.34 606.62,-207.83 570.19,-220.84"/>
<polygon fill="#6666ff" stroke="#6666ff" points="568.74,-217.64 560.5,-224.3 571.09,-224.24 568.74,-217.64"/>
</g>
<!-- Duration&#45;&gt;Cool -->
<g id="edge6" class="edge">
<title>Duration&#45;&gt;Cool</title>
<path fill="none" stroke="#000000" d="M732.15,-180.3C732.15,-188.02 732.15,-197.29 732.15,-205.89"/>
<polygon fill="#000000" stroke="#000000" points="728.65,-205.9 732.15,-215.9 735.65,-205.9 728.65,-205.9"/>
</g>
<!-- Rational -->
<g id="node10" class="node">
<title>Rational</title>
<g id="a_node10"><a xlink:href="/type/Rational" xlink:title="Rational">
<ellipse fill="none" stroke="#6666ff" cx="627.15" cy="-162" rx="42.79" ry="18"/>
<text text-anchor="middle" x="627.15" y="-158.3" font-family="FreeSans" font-size="14.00" fill="#6666ff">Rational</text>
</a>
</g>
</g>
<!-- Rational&#45;&gt;Real -->
<g id="edge27" class="edge">
<title>Rational&#45;&gt;Real</title>
<path fill="none" stroke="#6666ff" d="M607.4,-178.19C594.03,-188.47 576.23,-202.16 561.77,-213.29"/>
<polygon fill="#6666ff" stroke="#6666ff" points="559.49,-210.63 553.7,-219.5 563.76,-216.17 559.49,-210.63"/>
</g>
<!-- atomicint -->
<g id="node11" class="node">
<title>atomicint</title>
<g id="a_node11"><a xlink:href="/type/atomicint" xlink:title="atomicint">
<ellipse fill="none" stroke="#000000" cx="46.15" cy="-90" rx="46.29" ry="18"/>
<text text-anchor="middle" x="46.15" y="-86.3" font-family="FreeSans" font-size="14.00" fill="#000000">atomicint</text>
</a>
</g>
</g>
<!-- atomicint&#45;&gt;Int -->
<g id="edge7" class="edge">
<title>atomicint&#45;&gt;Int</title>
<path fill="none" stroke="#000000" d="M81.29,-101.86C92.07,-105.19 101.15,-108 101.15,-108 101.15,-108 397.15,-144 397.15,-144 397.15,-144 399.33,-145.03 402.61,-146.58"/>
<polygon fill="#000000" stroke="#000000" points="401.25,-149.81 411.79,-150.91 404.24,-143.48 401.25,-149.81"/>
</g>
<!-- Order -->
<g id="node12" class="node">
<title>Order</title>
<g id="a_node12"><a xlink:href="/type/Order" xlink:title="Order">
<ellipse fill="none" stroke="#33bb33" cx="144.15" cy="-90" rx="33.6" ry="18"/>
<text text-anchor="middle" x="144.15" y="-86.3" font-family="FreeSans" font-size="14.00" fill="#33bb33">Order</text>
</a>
</g>
</g>
<!-- Order&#45;&gt;Int -->
<g id="edge8" class="edge">
<title>Order&#45;&gt;Int</title>
<path fill="none" stroke="#000000" d="M170.64,-101.48C179.49,-104.97 187.15,-108 187.15,-108 187.15,-108 397.15,-144 397.15,-144 397.15,-144 399.33,-145.03 402.61,-146.58"/>
<polygon fill="#000000" stroke="#000000" points="401.25,-149.81 411.79,-150.91 404.24,-143.48 401.25,-149.81"/>
</g>
<!-- int -->
<g id="node13" class="node">
<title>int</title>
<g id="a_node13"><a xlink:href="/type/int" xlink:title="int">
<ellipse fill="none" stroke="#000000" cx="223.15" cy="-90" rx="27" ry="18"/>
<text text-anchor="middle" x="223.15" y="-86.3" font-family="FreeSans" font-size="14.00" fill="#000000">int</text>
</a>
</g>
</g>
<!-- int&#45;&gt;Int -->
<g id="edge9" class="edge">
<title>int&#45;&gt;Int</title>
<path fill="none" stroke="#000000" d="M245.57,-100.3C255.14,-104.26 264.15,-108 264.15,-108 264.15,-108 397.15,-144 397.15,-144 397.15,-144 399.33,-145.03 402.61,-146.58"/>
<polygon fill="#000000" stroke="#000000" points="401.25,-149.81 411.79,-150.91 404.24,-143.48 401.25,-149.81"/>
</g>
<!-- Stringy -->
<g id="node14" class="node">
<title>Stringy</title>
<g id="a_node14"><a xlink:href="/type/Stringy" xlink:title="Stringy">
<ellipse fill="none" stroke="#6666ff" cx="950.15" cy="-234" rx="38.19" ry="18"/>
<text text-anchor="middle" x="950.15" y="-230.3" font-family="FreeSans" font-size="14.00" fill="#6666ff">Stringy</text>
</a>
</g>
</g>
<!-- Str -->
<g id="node15" class="node">
<title>Str</title>
<g id="a_node15"><a xlink:href="/type/Str" xlink:title="Str">
<ellipse fill="none" stroke="#000000" cx="950.15" cy="-162" rx="27" ry="18"/>
<text text-anchor="middle" x="950.15" y="-158.3" font-family="FreeSans" font-size="14.00" fill="#000000">Str</text>
</a>
</g>
</g>
<!-- Str&#45;&gt;Cool -->
<g id="edge10" class="edge">
<title>Str&#45;&gt;Cool</title>
<path fill="none" stroke="#000000" d="M926.4,-170.62C887.83,-183.01 811.38,-207.56 766.75,-221.89"/>
<polygon fill="#000000" stroke="#000000" points="765.65,-218.57 757.2,-224.96 767.79,-225.23 765.65,-218.57"/>
</g>
<!-- Str&#45;&gt;Stringy -->
<g id="edge28" class="edge">
<title>Str&#45;&gt;Stringy</title>
<path fill="none" stroke="#6666ff" d="M950.15,-180.3C950.15,-188.02 950.15,-197.29 950.15,-205.89"/>
<polygon fill="#6666ff" stroke="#6666ff" points="946.65,-205.9 950.15,-215.9 953.65,-205.9 946.65,-205.9"/>
</g>
<!-- Allomorph -->
<g id="node16" class="node">
<title>Allomorph</title>
<g id="a_node16"><a xlink:href="/type/Allomorph" xlink:title="Allomorph">
<ellipse fill="none" stroke="#000000" cx="970.15" cy="-90" rx="50.09" ry="18"/>
<text text-anchor="middle" x="970.15" y="-86.3" font-family="FreeSans" font-size="14.00" fill="#000000">Allomorph</text>
</a>
</g>
</g>
<!-- Allomorph&#45;&gt;Str -->
<g id="edge11" class="edge">
<title>Allomorph&#45;&gt;Str</title>
<path fill="none" stroke="#000000" d="M965.3,-107.95C963.04,-115.86 960.3,-125.46 957.77,-134.31"/>
<polygon fill="#000000" stroke="#000000" points="954.32,-133.63 954.94,-144.21 961.06,-135.56 954.32,-133.63"/>
</g>
<!-- IntStr -->
<g id="node17" class="node">
<title>IntStr</title>
<g id="a_node17"><a xlink:href="/type/IntStr" xlink:title="IntStr">
<ellipse fill="none" stroke="#000000" cx="579.15" cy="-18" rx="31.7" ry="18"/>
<text text-anchor="middle" x="579.15" y="-14.3" font-family="FreeSans" font-size="14.00" fill="#000000">IntStr</text>
</a>
</g>
</g>
<!-- IntStr&#45;&gt;Int -->
<g id="edge13" class="edge">
<title>IntStr&#45;&gt;Int</title>
<path fill="none" stroke="#000000" d="M549.23,-24.62C476.66,-38.26 297.15,-72 297.15,-72 297.15,-72 297.15,-108 297.15,-108 297.15,-108 397.15,-144 397.15,-144 397.15,-144 399.33,-145.03 402.61,-146.58"/>
<polygon fill="#000000" stroke="#000000" points="401.25,-149.81 411.79,-150.91 404.24,-143.48 401.25,-149.81"/>
</g>
<!-- IntStr&#45;&gt;Allomorph -->
<g id="edge12" class="edge">
<title>IntStr&#45;&gt;Allomorph</title>
<path fill="none" stroke="#000000" d="M609.49,-23.84C691.45,-36.93 911.15,-72 911.15,-72 911.15,-72 915.75,-73.33 922.38,-75.24"/>
<polygon fill="#000000" stroke="#000000" points="921.87,-78.73 932.45,-78.14 923.81,-72.01 921.87,-78.73"/>
</g>
<!-- Bool -->
<g id="node18" class="node">
<title>Bool</title>
<g id="a_node18"><a xlink:href="/type/Bool" xlink:title="Bool">
<ellipse fill="none" stroke="#33bb33" cx="335.15" cy="-90" rx="28.7" ry="18"/>
<text text-anchor="middle" x="335.15" y="-86.3" font-family="FreeSans" font-size="14.00" fill="#33bb33">Bool</text>
</a>
</g>
</g>
<!-- Bool&#45;&gt;Int -->
<g id="edge14" class="edge">
<title>Bool&#45;&gt;Int</title>
<path fill="none" stroke="#000000" d="M353.58,-104.17C368.69,-114.96 390.25,-130.36 407.12,-142.41"/>
<polygon fill="#000000" stroke="#000000" points="405.28,-145.4 415.46,-148.36 409.35,-139.7 405.28,-145.4"/>
</g>
<!-- Signal -->
<g id="node19" class="node">
<title>Signal</title>
<g id="a_node19"><a xlink:href="/type/Signal" xlink:title="Signal">
<ellipse fill="none" stroke="#33bb33" cx="417.15" cy="-90" rx="35.19" ry="18"/>
<text text-anchor="middle" x="417.15" y="-86.3" font-family="FreeSans" font-size="14.00" fill="#33bb33">Signal</text>
</a>
</g>
</g>
<!-- Signal&#45;&gt;Int -->
<g id="edge15" class="edge">
<title>Signal&#45;&gt;Int</title>
<path fill="none" stroke="#000000" d="M421.02,-107.95C422.8,-115.74 424.96,-125.18 426.96,-133.92"/>
<polygon fill="#000000" stroke="#000000" points="423.56,-134.76 429.2,-143.72 430.38,-133.2 423.56,-134.76"/>
</g>
<!-- Endian -->
<g id="node20" class="node">
<title>Endian</title>
<g id="a_node20"><a xlink:href="/type/Endian" xlink:title="Endian">
<ellipse fill="none" stroke="#33bb33" cx="508.15" cy="-90" rx="38.19" ry="18"/>
<text text-anchor="middle" x="508.15" y="-86.3" font-family="FreeSans" font-size="14.00" fill="#33bb33">Endian</text>
</a>
</g>
</g>
<!-- Endian&#45;&gt;Int -->
<g id="edge16" class="edge">
<title>Endian&#45;&gt;Int</title>
<path fill="none" stroke="#000000" d="M491.5,-106.54C480.98,-116.35 467.25,-129.17 455.75,-139.9"/>
<polygon fill="#000000" stroke="#000000" points="453.14,-137.55 448.22,-146.93 457.91,-142.67 453.14,-137.55"/>
</g>
<!-- PromiseStatus -->
<g id="node21" class="node">
<title>PromiseStatus</title>
<g id="a_node21"><a xlink:href="/type/PromiseStatus" xlink:title="PromiseStatus">
<ellipse fill="none" stroke="#33bb33" cx="632.15" cy="-90" rx="67.69" ry="18"/>
<text text-anchor="middle" x="632.15" y="-86.3" font-family="FreeSans" font-size="14.00" fill="#33bb33">PromiseStatus</text>
</a>
</g>
</g>
<!-- PromiseStatus&#45;&gt;Int -->
<g id="edge17" class="edge">
<title>PromiseStatus&#45;&gt;Int</title>
<path fill="none" stroke="#000000" d="M592.83,-104.83C555.82,-117.85 501.01,-137.13 466.2,-149.37"/>
<polygon fill="#000000" stroke="#000000" points="464.78,-146.16 456.51,-152.78 467.1,-152.77 464.78,-146.16"/>
</g>
<!-- NumStr -->
<g id="node22" class="node">
<title>NumStr</title>
<g id="a_node22"><a xlink:href="/type/NumStr" xlink:title="NumStr">
<ellipse fill="none" stroke="#000000" cx="849.15" cy="-18" rx="40.89" ry="18"/>
<text text-anchor="middle" x="849.15" y="-14.3" font-family="FreeSans" font-size="14.00" fill="#000000">NumStr</text>
</a>
</g>
</g>
<!-- NumStr&#45;&gt;Num -->
<g id="edge19" class="edge">
<title>NumStr&#45;&gt;Num</title>
<path fill="none" stroke="#000000" d="M823.67,-32.24C793.46,-47.94 747.15,-72 747.15,-72 747.15,-72 709.15,-108 709.15,-108 709.15,-108 575.15,-144 575.15,-144 575.15,-144 572.74,-145.05 569.12,-146.63"/>
<polygon fill="#000000" stroke="#000000" points="567.5,-143.51 559.73,-150.72 570.3,-149.93 567.5,-143.51"/>
</g>
<!-- NumStr&#45;&gt;Allomorph -->
<g id="edge18" class="edge">
<title>NumStr&#45;&gt;Allomorph</title>
<path fill="none" stroke="#000000" d="M873.05,-32.83C890.97,-43.2 915.75,-57.53 935.79,-69.12"/>
<polygon fill="#000000" stroke="#000000" points="934.21,-72.25 944.62,-74.23 937.72,-66.2 934.21,-72.25"/>
</g>
<!-- FatRat -->
<g id="node23" class="node">
<title>FatRat</title>
<g id="a_node23"><a xlink:href="/type/FatRat" xlink:title="FatRat">
<ellipse fill="none" stroke="#000000" cx="793.15" cy="-90" rx="37.09" ry="18"/>
<text text-anchor="middle" x="793.15" y="-86.3" font-family="FreeSans" font-size="14.00" fill="#000000">FatRat</text>
</a>
</g>
</g>
<!-- FatRat&#45;&gt;Cool -->
<g id="edge20" class="edge">
<title>FatRat&#45;&gt;Cool</title>
<path fill="none" stroke="#000000" d="M791.6,-108.16C789.28,-134.02 785.15,-180 785.15,-180 785.15,-180 768.79,-196.36 754.25,-210.9"/>
<polygon fill="#000000" stroke="#000000" points="751.51,-208.69 746.91,-218.24 756.46,-213.64 751.51,-208.69"/>
</g>
<!-- FatRat&#45;&gt;Rational -->
<g id="edge29" class="edge">
<title>FatRat&#45;&gt;Rational</title>
<path fill="none" stroke="#6666ff" d="M766.11,-102.4C738.91,-113.87 696.73,-131.66 665.96,-144.63"/>
<polygon fill="#6666ff" stroke="#6666ff" points="664.27,-141.55 656.41,-148.66 666.99,-148 664.27,-141.55"/>
</g>
<!-- Rat -->
<g id="node24" class="node">
<title>Rat</title>
<g id="a_node24"><a xlink:href="/type/Rat" xlink:title="Rat">
<ellipse fill="none" stroke="#000000" cx="875.15" cy="-90" rx="27" ry="18"/>
<text text-anchor="middle" x="875.15" y="-86.3" font-family="FreeSans" font-size="14.00" fill="#000000">Rat</text>
</a>
</g>
</g>
<!-- Rat&#45;&gt;Cool -->
<g id="edge21" class="edge">
<title>Rat&#45;&gt;Cool</title>
<path fill="none" stroke="#000000" d="M862.59,-106.1C841.48,-131.49 801.15,-180 801.15,-180 801.15,-180 777.3,-198.32 757.64,-213.42"/>
<polygon fill="#000000" stroke="#000000" points="755.36,-210.76 749.56,-219.63 759.62,-216.31 755.36,-210.76"/>
</g>
<!-- Rat&#45;&gt;Rational -->
<g id="edge30" class="edge">
<title>Rat&#45;&gt;Rational</title>
<path fill="none" stroke="#6666ff" d="M853.79,-101.09C846.04,-104.75 839.15,-108 839.15,-108 839.15,-108 679.15,-144 679.15,-144 679.15,-144 675.38,-145.23 669.87,-147.03"/>
<polygon fill="#6666ff" stroke="#6666ff" points="668.5,-143.8 660.08,-150.23 670.67,-150.45 668.5,-143.8"/>
</g>
</g>
</svg>
