<?xml version="1.0" encoding="UTF-8" standalone="no"?>
<!DOCTYPE svg PUBLIC "-//W3C//DTD SVG 1.1//EN"
 "http://www.w3.org/Graphics/SVG/1.1/DTD/svg11.dtd">
<!-- Generated by graphviz version 2.43.0 (0)
 -->
<!-- Title: perl6&#45;type&#45;graph Pages: 1 -->
<svg width="334pt" height="404pt"
 viewBox="0.00 0.00 334.27 404.00" xmlns="http://www.w3.org/2000/svg" xmlns:xlink="http://www.w3.org/1999/xlink">
<g id="graph0" class="graph" transform="scale(1 1) rotate(0) translate(4 400)">
<title>perl6&#45;type&#45;graph</title>
<polygon fill="#ffffff" stroke="transparent" points="-4,4 -4,-400 330.27,-400 330.27,4 -4,4"/>
<!-- X::Syntax::Variable::IndirectDeclaration -->
<g id="node1" class="node">
<title>X::Syntax::Variable::IndirectDeclaration</title>
<g id="a_node1"><a xlink:href="/type/X::Syntax::Variable::IndirectDeclaration" xlink:title="X::Syntax::Variable::IndirectDeclaration">
<ellipse fill="none" stroke="#000000" cx="163.14" cy="-18" rx="163.27" ry="18"/>
<text text-anchor="middle" x="163.14" y="-14.3" font-family="FreeSans" font-size="14.00" fill="#000000">X::Syntax::Variable::IndirectDeclaration</text>
</a>
</g>
</g>
<!-- Exception -->
<g id="node4" class="node">
<title>Exception</title>
<g id="a_node4"><a xlink:href="/type/Exception" xlink:title="Exception">
<ellipse fill="none" stroke="#000000" cx="163.14" cy="-234" rx="49.29" ry="18"/>
<text text-anchor="middle" x="163.14" y="-230.3" font-family="FreeSans" font-size="14.00" fill="#000000">Exception</text>
</a>
</g>
</g>
<!-- X::Syntax::Variable::IndirectDeclaration&#45;&gt;Exception -->
<g id="edge1" class="edge">
<title>X::Syntax::Variable::IndirectDeclaration&#45;&gt;Exception</title>
<path fill="none" stroke="#000000" d="M157.02,-36.06C151.46,-51.55 144.14,-72 144.14,-72 144.14,-72 144.14,-108 144.14,-108 144.14,-108 153.41,-169.01 159,-205.78"/>
<polygon fill="#000000" stroke="#000000" points="155.57,-206.52 160.53,-215.88 162.49,-205.47 155.57,-206.52"/>
</g>
<!-- X::Syntax -->
<g id="node6" class="node">
<title>X::Syntax</title>
<g id="a_node6"><a xlink:href="/type/X::Syntax" xlink:title="X::Syntax">
<ellipse fill="none" stroke="#6666ff" cx="201.14" cy="-90" rx="48.19" ry="18"/>
<text text-anchor="middle" x="201.14" y="-86.3" font-family="FreeSans" font-size="14.00" fill="#6666ff">X::Syntax</text>
</a>
</g>
</g>
<!-- X::Syntax::Variable::IndirectDeclaration&#45;&gt;X::Syntax -->
<g id="edge6" class="edge">
<title>X::Syntax::Variable::IndirectDeclaration&#45;&gt;X::Syntax</title>
<path fill="none" stroke="#6666ff" d="M172.53,-36.3C176.9,-44.36 182.19,-54.11 187.03,-63.02"/>
<polygon fill="#6666ff" stroke="#6666ff" points="184,-64.78 191.85,-71.9 190.16,-61.44 184,-64.78"/>
</g>
<!-- Mu -->
<g id="node2" class="node">
<title>Mu</title>
<g id="a_node2"><a xlink:href="/type/Mu" xlink:title="Mu">
<ellipse fill="none" stroke="#000000" cx="163.14" cy="-378" rx="27" ry="18"/>
<text text-anchor="middle" x="163.14" y="-374.3" font-family="FreeSans" font-size="14.00" fill="#000000">Mu</text>
</a>
</g>
</g>
<!-- Any -->
<g id="node3" class="node">
<title>Any</title>
<g id="a_node3"><a xlink:href="/type/Any" xlink:title="Any">
<ellipse fill="none" stroke="#000000" cx="163.14" cy="-306" rx="27" ry="18"/>
<text text-anchor="middle" x="163.14" y="-302.3" font-family="FreeSans" font-size="14.00" fill="#000000">Any</text>
</a>
</g>
</g>
<!-- Any&#45;&gt;Mu -->
<g id="edge2" class="edge">
<title>Any&#45;&gt;Mu</title>
<path fill="none" stroke="#000000" d="M163.14,-324.3C163.14,-332.02 163.14,-341.29 163.14,-349.89"/>
<polygon fill="#000000" stroke="#000000" points="159.64,-349.9 163.14,-359.9 166.64,-349.9 159.64,-349.9"/>
</g>
<!-- Exception&#45;&gt;Any -->
<g id="edge3" class="edge">
<title>Exception&#45;&gt;Any</title>
<path fill="none" stroke="#000000" d="M163.14,-252.3C163.14,-260.02 163.14,-269.29 163.14,-277.89"/>
<polygon fill="#000000" stroke="#000000" points="159.64,-277.9 163.14,-287.9 166.64,-277.9 159.64,-277.9"/>
</g>
<!-- X::Comp -->
<g id="node5" class="node">
<title>X::Comp</title>
<g id="a_node5"><a xlink:href="/type/X::Comp" xlink:title="X::Comp">
<ellipse fill="none" stroke="#6666ff" cx="236.14" cy="-162" rx="44.69" ry="18"/>
<text text-anchor="middle" x="236.14" y="-158.3" font-family="FreeSans" font-size="14.00" fill="#6666ff">X::Comp</text>
</a>
</g>
</g>
<!-- X::Comp&#45;&gt;Exception -->
<g id="edge4" class="edge">
<title>X::Comp&#45;&gt;Exception</title>
<path fill="none" stroke="#000000" d="M219.57,-178.88C210.02,-188.04 197.85,-199.71 187.26,-209.87"/>
<polygon fill="#000000" stroke="#000000" points="184.68,-207.49 179.89,-216.94 189.53,-212.54 184.68,-207.49"/>
</g>
<!-- X::Syntax&#45;&gt;Exception -->
<g id="edge5" class="edge">
<title>X::Syntax&#45;&gt;Exception</title>
<path fill="none" stroke="#000000" d="M195.02,-108.06C189.46,-123.55 182.14,-144 182.14,-144 182.14,-144 174.49,-179.83 168.89,-206.03"/>
<polygon fill="#000000" stroke="#000000" points="165.46,-205.33 166.8,-215.84 172.31,-206.79 165.46,-205.33"/>
</g>
<!-- X::Syntax&#45;&gt;X::Comp -->
<g id="edge7" class="edge">
<title>X::Syntax&#45;&gt;X::Comp</title>
<path fill="none" stroke="#6666ff" d="M209.61,-107.95C213.69,-116.11 218.68,-126.09 223.22,-135.18"/>
<polygon fill="#6666ff" stroke="#6666ff" points="220.14,-136.83 227.74,-144.21 226.4,-133.7 220.14,-136.83"/>
</g>
</g>
</svg>
