<?xml version="1.0" encoding="UTF-8" standalone="no"?>
<!DOCTYPE svg PUBLIC "-//W3C//DTD SVG 1.1//EN"
 "http://www.w3.org/Graphics/SVG/1.1/DTD/svg11.dtd">
<!-- Generated by graphviz version 2.43.0 (0)
 -->
<!-- Title: perl6&#45;type&#45;graph Pages: 1 -->
<svg width="1887pt" height="1608pt"
 viewBox="0.00 0.00 1886.77 1607.83" xmlns="http://www.w3.org/2000/svg" xmlns:xlink="http://www.w3.org/1999/xlink">
<g id="graph0" class="graph" transform="scale(1 1) rotate(0) translate(4 1603.83)">
<title>perl6&#45;type&#45;graph</title>
<polygon fill="white" stroke="transparent" points="-4,4 -4,-1603.83 1882.77,-1603.83 1882.77,4 -4,4"/>
<!-- Metamodel::Mixins -->
<g id="node1" class="node">
<title>Metamodel::Mixins</title>
<g id="a_node1"><a xlink:href="/type/Metamodel::Mixins" xlink:title="Metamodel::Mixins">
<ellipse fill="none" stroke="#6666ff" cx="656.26" cy="-644.82" rx="85.29" ry="18"/>
<text text-anchor="middle" x="656.26" y="-641.12" font-family="FreeSans" font-size="14.00" fill="#6666ff">Metamodel::Mixins</text>
</a>
</g>
</g>
<!-- Mu -->
<g id="node2" class="node">
<title>Mu</title>
<g id="a_node2"><a xlink:href="/type/Mu" xlink:title="Mu">
<ellipse fill="none" stroke="#000000" cx="1451.89" cy="-18" rx="27" ry="18"/>
<text text-anchor="middle" x="1451.89" y="-14.3" font-family="FreeSans" font-size="14.00" fill="#000000">Mu</text>
</a>
</g>
</g>
<!-- Any -->
<g id="node3" class="node">
<title>Any</title>
<g id="a_node3"><a xlink:href="/type/Any" xlink:title="Any">
<ellipse fill="none" stroke="#000000" cx="1163.96" cy="-480.07" rx="27" ry="18"/>
<text text-anchor="middle" x="1163.96" y="-476.37" font-family="FreeSans" font-size="14.00" fill="#000000">Any</text>
</a>
</g>
</g>
<!-- Any&#45;&gt;Mu -->
<g id="edge1" class="edge">
<title>Any&#45;&gt;Mu</title>
<path fill="none" stroke="#000000" d="M1174.38,-463.35C1217.72,-393.8 1383.92,-127.09 1436.11,-43.32"/>
<polygon fill="#000000" stroke="#000000" points="1439.17,-45.03 1441.49,-34.7 1433.23,-41.33 1439.17,-45.03"/>
</g>
<!-- Metamodel::Naming -->
<g id="node4" class="node">
<title>Metamodel::Naming</title>
<g id="a_node4"><a xlink:href="/type/Metamodel::Naming" xlink:title="Metamodel::Naming">
<ellipse fill="none" stroke="#6666ff" cx="865.47" cy="-1570.99" rx="90.18" ry="18"/>
<text text-anchor="middle" x="865.47" y="-1567.29" font-family="FreeSans" font-size="14.00" fill="#6666ff">Metamodel::Naming</text>
</a>
</g>
</g>
<!-- Metamodel::Documenting -->
<g id="node5" class="node">
<title>Metamodel::Documenting</title>
<g id="a_node5"><a xlink:href="/type/Metamodel::Documenting" xlink:title="Metamodel::Documenting">
<ellipse fill="none" stroke="#6666ff" cx="1266.74" cy="-1443.74" rx="111.28" ry="18"/>
<text text-anchor="middle" x="1266.74" y="-1440.04" font-family="FreeSans" font-size="14.00" fill="#6666ff">Metamodel::Documenting</text>
</a>
</g>
</g>
<!-- Metamodel::Versioning -->
<g id="node6" class="node">
<title>Metamodel::Versioning</title>
<g id="a_node6"><a xlink:href="/type/Metamodel::Versioning" xlink:title="Metamodel::Versioning">
<ellipse fill="none" stroke="#6666ff" cx="108.53" cy="-1157.67" rx="100.98" ry="18"/>
<text text-anchor="middle" x="108.53" y="-1153.97" font-family="FreeSans" font-size="14.00" fill="#6666ff">Metamodel::Versioning</text>
</a>
</g>
</g>
<!-- Metamodel::Stashing -->
<g id="node7" class="node">
<title>Metamodel::Stashing</title>
<g id="a_node7"><a xlink:href="/type/Metamodel::Stashing" xlink:title="Metamodel::Stashing">
<ellipse fill="none" stroke="#6666ff" cx="802.35" cy="-464.73" rx="93.68" ry="18"/>
<text text-anchor="middle" x="802.35" y="-461.03" font-family="FreeSans" font-size="14.00" fill="#6666ff">Metamodel::Stashing</text>
</a>
</g>
</g>
<!-- Metamodel::AttributeContainer -->
<g id="node8" class="node">
<title>Metamodel::AttributeContainer</title>
<g id="a_node8"><a xlink:href="/type/Metamodel::AttributeContainer" xlink:title="Metamodel::AttributeContainer">
<ellipse fill="none" stroke="#6666ff" cx="1345.64" cy="-890.8" rx="129.98" ry="18"/>
<text text-anchor="middle" x="1345.64" y="-887.1" font-family="FreeSans" font-size="14.00" fill="#6666ff">Metamodel::AttributeContainer</text>
</a>
</g>
</g>
<!-- Metamodel::Finalization -->
<g id="node9" class="node">
<title>Metamodel::Finalization</title>
<g id="a_node9"><a xlink:href="/type/Metamodel::Finalization" xlink:title="Metamodel::Finalization">
<ellipse fill="none" stroke="#6666ff" cx="154.59" cy="-706.48" rx="103.98" ry="18"/>
<text text-anchor="middle" x="154.59" y="-702.78" font-family="FreeSans" font-size="14.00" fill="#6666ff">Metamodel::Finalization</text>
</a>
</g>
</g>
<!-- Metamodel::MethodContainer -->
<g id="node10" class="node">
<title>Metamodel::MethodContainer</title>
<g id="a_node10"><a xlink:href="/type/Metamodel::MethodContainer" xlink:title="Metamodel::MethodContainer">
<ellipse fill="none" stroke="#6666ff" cx="963.29" cy="-552.65" rx="127.28" ry="18"/>
<text text-anchor="middle" x="963.29" y="-548.95" font-family="FreeSans" font-size="14.00" fill="#6666ff">Metamodel::MethodContainer</text>
</a>
</g>
</g>
<!-- Metamodel::PrivateMethodContainer -->
<g id="node11" class="node">
<title>Metamodel::PrivateMethodContainer</title>
<g id="a_node11"><a xlink:href="/type/Metamodel::PrivateMethodContainer" xlink:title="Metamodel::PrivateMethodContainer">
<ellipse fill="none" stroke="#6666ff" cx="275.56" cy="-518.15" rx="154.87" ry="18"/>
<text text-anchor="middle" x="275.56" y="-514.45" font-family="FreeSans" font-size="14.00" fill="#6666ff">Metamodel::PrivateMethodContainer</text>
</a>
</g>
</g>
<!-- Metamodel::MultiMethodContainer -->
<g id="node12" class="node">
<title>Metamodel::MultiMethodContainer</title>
<g id="a_node12"><a xlink:href="/type/Metamodel::MultiMethodContainer" xlink:title="Metamodel::MultiMethodContainer">
<ellipse fill="none" stroke="#6666ff" cx="475.74" cy="-1055.99" rx="146.47" ry="18"/>
<text text-anchor="middle" x="475.74" y="-1052.29" font-family="FreeSans" font-size="14.00" fill="#6666ff">Metamodel::MultiMethodContainer</text>
</a>
</g>
</g>
<!-- Metamodel::RoleContainer -->
<g id="node13" class="node">
<title>Metamodel::RoleContainer</title>
<g id="a_node13"><a xlink:href="/type/Metamodel::RoleContainer" xlink:title="Metamodel::RoleContainer">
<ellipse fill="none" stroke="#6666ff" cx="1298.03" cy="-1189" rx="115.88" ry="18"/>
<text text-anchor="middle" x="1298.03" y="-1185.3" font-family="FreeSans" font-size="14.00" fill="#6666ff">Metamodel::RoleContainer</text>
</a>
</g>
</g>
<!-- Metamodel::MultipleInheritance -->
<g id="node14" class="node">
<title>Metamodel::MultipleInheritance</title>
<g id="a_node14"><a xlink:href="/type/Metamodel::MultipleInheritance" xlink:title="Metamodel::MultipleInheritance">
<ellipse fill="none" stroke="#6666ff" cx="416.2" cy="-1581.83" rx="133.78" ry="18"/>
<text text-anchor="middle" x="416.2" y="-1578.13" font-family="FreeSans" font-size="14.00" fill="#6666ff">Metamodel::MultipleInheritance</text>
</a>
</g>
</g>
<!-- Metamodel::DefaultParent -->
<g id="node15" class="node">
<title>Metamodel::DefaultParent</title>
<g id="a_node15"><a xlink:href="/type/Metamodel::DefaultParent" xlink:title="Metamodel::DefaultParent">
<ellipse fill="none" stroke="#6666ff" cx="214.44" cy="-1381.35" rx="113.18" ry="18"/>
<text text-anchor="middle" x="214.44" y="-1377.65" font-family="FreeSans" font-size="14.00" fill="#6666ff">Metamodel::DefaultParent</text>
</a>
</g>
</g>
<!-- Metamodel::C3MRO -->
<g id="node16" class="node">
<title>Metamodel::C3MRO</title>
<g id="a_node16"><a xlink:href="/type/Metamodel::C3MRO" xlink:title="Metamodel::C3MRO">
<ellipse fill="none" stroke="#6666ff" cx="472.84" cy="-357.8" rx="92.08" ry="18"/>
<text text-anchor="middle" x="472.84" y="-354.1" font-family="FreeSans" font-size="14.00" fill="#6666ff">Metamodel::C3MRO</text>
</a>
</g>
</g>
<!-- Metamodel::MROBasedMethodDispatch -->
<g id="node17" class="node">
<title>Metamodel::MROBasedMethodDispatch</title>
<g id="a_node17"><a xlink:href="/type/Metamodel::MROBasedMethodDispatch" xlink:title="Metamodel::MROBasedMethodDispatch">
<ellipse fill="none" stroke="#6666ff" cx="1217.51" cy="-701.81" rx="169.77" ry="18"/>
<text text-anchor="middle" x="1217.51" y="-698.11" font-family="FreeSans" font-size="14.00" fill="#6666ff">Metamodel::MROBasedMethodDispatch</text>
</a>
</g>
</g>
<!-- Metamodel::MROBasedTypeChecking -->
<g id="node18" class="node">
<title>Metamodel::MROBasedTypeChecking</title>
<g id="a_node18"><a xlink:href="/type/Metamodel::MROBasedTypeChecking" xlink:title="Metamodel::MROBasedTypeChecking">
<ellipse fill="none" stroke="#6666ff" cx="586.04" cy="-1366.12" rx="163.27" ry="18"/>
<text text-anchor="middle" x="586.04" y="-1362.42" font-family="FreeSans" font-size="14.00" fill="#6666ff">Metamodel::MROBasedTypeChecking</text>
</a>
</g>
</g>
<!-- Metamodel::Trusting -->
<g id="node19" class="node">
<title>Metamodel::Trusting</title>
<g id="a_node19"><a xlink:href="/type/Metamodel::Trusting" xlink:title="Metamodel::Trusting">
<ellipse fill="none" stroke="#6666ff" cx="91.64" cy="-921.42" rx="91.78" ry="18"/>
<text text-anchor="middle" x="91.64" y="-917.72" font-family="FreeSans" font-size="14.00" fill="#6666ff">Metamodel::Trusting</text>
</a>
</g>
</g>
<!-- Metamodel::BUILDPLAN -->
<g id="node20" class="node">
<title>Metamodel::BUILDPLAN</title>
<g id="a_node20"><a xlink:href="/type/Metamodel::BUILDPLAN" xlink:title="Metamodel::BUILDPLAN">
<ellipse fill="none" stroke="#6666ff" cx="867.05" cy="-1381.15" rx="109.68" ry="18"/>
<text text-anchor="middle" x="867.05" y="-1377.45" font-family="FreeSans" font-size="14.00" fill="#6666ff">Metamodel::BUILDPLAN</text>
</a>
</g>
</g>
<!-- Metamodel::BoolificationProtocol -->
<g id="node21" class="node">
<title>Metamodel::BoolificationProtocol</title>
<g id="a_node21"><a xlink:href="/type/Metamodel::BoolificationProtocol" xlink:title="Metamodel::BoolificationProtocol">
<ellipse fill="none" stroke="#6666ff" cx="1008.45" cy="-1432.73" rx="139.18" ry="18"/>
<text text-anchor="middle" x="1008.45" y="-1429.03" font-family="FreeSans" font-size="14.00" fill="#6666ff">Metamodel::BoolificationProtocol</text>
</a>
</g>
</g>
<!-- Metamodel::ClassHOW -->
<g id="node22" class="node">
<title>Metamodel::ClassHOW</title>
<g id="a_node22"><a xlink:href="/type/Metamodel::ClassHOW" xlink:title="Metamodel::ClassHOW">
<ellipse fill="none" stroke="#000000" cx="717.22" cy="-974.13" rx="103.18" ry="18"/>
<text text-anchor="middle" x="717.22" y="-970.43" font-family="FreeSans" font-size="14.00" fill="#000000">Metamodel::ClassHOW</text>
</a>
</g>
</g>
<!-- Metamodel::ClassHOW&#45;&gt;Metamodel::Mixins -->
<g id="edge21" class="edge">
<title>Metamodel::ClassHOW&#45;&gt;Metamodel::Mixins</title>
<path fill="none" stroke="#6666ff" d="M713.86,-955.96C703.76,-901.42 673.67,-738.87 661.48,-673"/>
<polygon fill="#6666ff" stroke="#6666ff" points="664.88,-672.13 659.62,-662.93 658,-673.4 664.88,-672.13"/>
</g>
<!-- Metamodel::ClassHOW&#45;&gt;Any -->
<g id="edge2" class="edge">
<title>Metamodel::ClassHOW&#45;&gt;Any</title>
<path fill="none" stroke="#000000" d="M733.39,-956.26C801.58,-880.84 1065.79,-588.64 1142.79,-503.48"/>
<polygon fill="#000000" stroke="#000000" points="1145.53,-505.67 1149.64,-495.9 1140.34,-500.97 1145.53,-505.67"/>
</g>
<!-- Metamodel::ClassHOW&#45;&gt;Metamodel::Naming -->
<g id="edge4" class="edge">
<title>Metamodel::ClassHOW&#45;&gt;Metamodel::Naming</title>
<path fill="none" stroke="#6666ff" d="M718.92,-992.14C726.35,-1070.89 755.61,-1381.02 755.61,-1381.02 755.61,-1381.02 819.53,-1491.56 849.86,-1544"/>
<polygon fill="#6666ff" stroke="#6666ff" points="846.9,-1545.87 854.94,-1552.78 852.96,-1542.37 846.9,-1545.87"/>
</g>
<!-- Metamodel::ClassHOW&#45;&gt;Metamodel::Documenting -->
<g id="edge5" class="edge">
<title>Metamodel::ClassHOW&#45;&gt;Metamodel::Documenting</title>
<path fill="none" stroke="#6666ff" d="M738.1,-991.97C822.76,-1064.32 1140.7,-1336.03 1238.16,-1419.32"/>
<polygon fill="#6666ff" stroke="#6666ff" points="1235.97,-1422.05 1245.85,-1425.89 1240.52,-1416.73 1235.97,-1422.05"/>
</g>
<!-- Metamodel::ClassHOW&#45;&gt;Metamodel::Versioning -->
<g id="edge6" class="edge">
<title>Metamodel::ClassHOW&#45;&gt;Metamodel::Versioning</title>
<path fill="none" stroke="#6666ff" d="M648.5,-987.64C547.67,-1007.46 371.48,-1042.1 371.48,-1042.1 371.48,-1042.1 327.9,-1055.94 327.9,-1055.94 327.9,-1055.94 218.13,-1106.85 153.88,-1136.63"/>
<polygon fill="#6666ff" stroke="#6666ff" points="152.35,-1133.49 144.75,-1140.87 155.3,-1139.84 152.35,-1133.49"/>
</g>
<!-- Metamodel::ClassHOW&#45;&gt;Metamodel::Stashing -->
<g id="edge7" class="edge">
<title>Metamodel::ClassHOW&#45;&gt;Metamodel::Stashing</title>
<path fill="none" stroke="#6666ff" d="M720.25,-956C732.97,-879.88 782.12,-585.77 797.63,-492.95"/>
<polygon fill="#6666ff" stroke="#6666ff" points="801.11,-493.34 799.31,-482.9 794.21,-492.19 801.11,-493.34"/>
</g>
<!-- Metamodel::ClassHOW&#45;&gt;Metamodel::AttributeContainer -->
<g id="edge8" class="edge">
<title>Metamodel::ClassHOW&#45;&gt;Metamodel::AttributeContainer</title>
<path fill="none" stroke="#6666ff" d="M799.7,-963.2C913.14,-948.15 1117.32,-921.08 1241.27,-904.64"/>
<polygon fill="#6666ff" stroke="#6666ff" points="1242.07,-908.07 1251.52,-903.28 1241.15,-901.13 1242.07,-908.07"/>
</g>
<!-- Metamodel::ClassHOW&#45;&gt;Metamodel::Finalization -->
<g id="edge9" class="edge">
<title>Metamodel::ClassHOW&#45;&gt;Metamodel::Finalization</title>
<path fill="none" stroke="#6666ff" d="M681.6,-957.19C583.25,-910.4 308.08,-779.5 199.48,-727.84"/>
<polygon fill="#6666ff" stroke="#6666ff" points="200.95,-724.66 190.42,-723.53 197.94,-730.99 200.95,-724.66"/>
</g>
<!-- Metamodel::ClassHOW&#45;&gt;Metamodel::MethodContainer -->
<g id="edge10" class="edge">
<title>Metamodel::ClassHOW&#45;&gt;Metamodel::MethodContainer</title>
<path fill="none" stroke="#6666ff" d="M727.8,-956.02C766.6,-889.55 901.33,-658.78 947.57,-579.58"/>
<polygon fill="#6666ff" stroke="#6666ff" points="950.74,-581.1 952.76,-570.7 944.69,-577.57 950.74,-581.1"/>
</g>
<!-- Metamodel::ClassHOW&#45;&gt;Metamodel::PrivateMethodContainer -->
<g id="edge11" class="edge">
<title>Metamodel::ClassHOW&#45;&gt;Metamodel::PrivateMethodContainer</title>
<path fill="none" stroke="#6666ff" d="M699.91,-956.26C631.62,-885.75 380.76,-626.76 300.46,-543.86"/>
<polygon fill="#6666ff" stroke="#6666ff" points="302.7,-541.15 293.23,-536.4 297.68,-546.02 302.7,-541.15"/>
</g>
<!-- Metamodel::ClassHOW&#45;&gt;Metamodel::MultiMethodContainer -->
<g id="edge12" class="edge">
<title>Metamodel::ClassHOW&#45;&gt;Metamodel::MultiMethodContainer</title>
<path fill="none" stroke="#6666ff" d="M669.8,-990.21C631.4,-1003.23 577.07,-1021.64 535.66,-1035.68"/>
<polygon fill="#6666ff" stroke="#6666ff" points="534.31,-1032.44 525.97,-1038.97 536.56,-1039.07 534.31,-1032.44"/>
</g>
<!-- Metamodel::ClassHOW&#45;&gt;Metamodel::RoleContainer -->
<g id="edge13" class="edge">
<title>Metamodel::ClassHOW&#45;&gt;Metamodel::RoleContainer</title>
<path fill="none" stroke="#6666ff" d="M761.36,-990.46C866.05,-1029.19 1129.2,-1126.54 1243.56,-1168.85"/>
<polygon fill="#6666ff" stroke="#6666ff" points="1242.58,-1172.22 1253.17,-1172.4 1245.01,-1165.65 1242.58,-1172.22"/>
</g>
<!-- Metamodel::ClassHOW&#45;&gt;Metamodel::MultipleInheritance -->
<g id="edge14" class="edge">
<title>Metamodel::ClassHOW&#45;&gt;Metamodel::MultipleInheritance</title>
<path fill="none" stroke="#6666ff" d="M703.74,-991.99C645.85,-1068.67 421.31,-1366.1 421.31,-1366.1 421.31,-1366.1 418.24,-1495.37 416.86,-1553.77"/>
<polygon fill="#6666ff" stroke="#6666ff" points="413.36,-1553.73 416.62,-1563.81 420.36,-1553.89 413.36,-1553.73"/>
</g>
<!-- Metamodel::ClassHOW&#45;&gt;Metamodel::DefaultParent -->
<g id="edge15" class="edge">
<title>Metamodel::ClassHOW&#45;&gt;Metamodel::DefaultParent</title>
<path fill="none" stroke="#6666ff" d="M696.9,-991.91C669.36,-1016 623.58,-1056.04 623.58,-1056.04 623.58,-1056.04 339.51,-1281.91 244.78,-1357.23"/>
<polygon fill="#6666ff" stroke="#6666ff" points="242.38,-1354.67 236.73,-1363.63 246.74,-1360.15 242.38,-1354.67"/>
</g>
<!-- Metamodel::ClassHOW&#45;&gt;Metamodel::C3MRO -->
<g id="edge16" class="edge">
<title>Metamodel::ClassHOW&#45;&gt;Metamodel::C3MRO</title>
<path fill="none" stroke="#6666ff" d="M709.07,-955.95C678.11,-886.9 569.52,-644.75 569.52,-644.75 569.52,-644.75 506.7,-458.31 482.34,-385.99"/>
<polygon fill="#6666ff" stroke="#6666ff" points="485.55,-384.54 479.04,-376.18 478.91,-386.78 485.55,-384.54"/>
</g>
<!-- Metamodel::ClassHOW&#45;&gt;Metamodel::MROBasedMethodDispatch -->
<g id="edge17" class="edge">
<title>Metamodel::ClassHOW&#45;&gt;Metamodel::MROBasedMethodDispatch</title>
<path fill="none" stroke="#6666ff" d="M748.9,-956.89C835.88,-909.55 1078.4,-777.54 1176.02,-724.4"/>
<polygon fill="#6666ff" stroke="#6666ff" points="1177.89,-727.36 1185,-719.51 1174.55,-721.21 1177.89,-727.36"/>
</g>
<!-- Metamodel::ClassHOW&#45;&gt;Metamodel::MROBasedTypeChecking -->
<g id="edge18" class="edge">
<title>Metamodel::ClassHOW&#45;&gt;Metamodel::MROBasedTypeChecking</title>
<path fill="none" stroke="#6666ff" d="M711.16,-992.25C690.23,-1054.81 620.88,-1262.01 595.48,-1337.93"/>
<polygon fill="#6666ff" stroke="#6666ff" points="592.05,-1337.15 592.19,-1347.74 598.69,-1339.37 592.05,-1337.15"/>
</g>
<!-- Metamodel::ClassHOW&#45;&gt;Metamodel::Trusting -->
<g id="edge19" class="edge">
<title>Metamodel::ClassHOW&#45;&gt;Metamodel::Trusting</title>
<path fill="none" stroke="#6666ff" d="M623.91,-966.27C506.08,-956.34 304.51,-939.36 186.13,-929.38"/>
<polygon fill="#6666ff" stroke="#6666ff" points="186.26,-925.88 176,-928.53 185.67,-932.86 186.26,-925.88"/>
</g>
<!-- Metamodel::ClassHOW&#45;&gt;Metamodel::BUILDPLAN -->
<g id="edge20" class="edge">
<title>Metamodel::ClassHOW&#45;&gt;Metamodel::BUILDPLAN</title>
<path fill="none" stroke="#6666ff" d="M723.86,-992.15C747.54,-1056.49 828.07,-1275.27 856.78,-1353.26"/>
<polygon fill="#6666ff" stroke="#6666ff" points="853.58,-1354.71 860.32,-1362.89 860.15,-1352.29 853.58,-1354.71"/>
</g>
<!-- Metamodel::ClassHOW&#45;&gt;Metamodel::BoolificationProtocol -->
<g id="edge22" class="edge">
<title>Metamodel::ClassHOW&#45;&gt;Metamodel::BoolificationProtocol</title>
<path fill="none" stroke="#6666ff" d="M728.79,-992.15C779.35,-1070.95 978.48,-1381.29 978.48,-1381.29 978.48,-1381.29 985.5,-1393.35 992.75,-1405.78"/>
<polygon fill="#6666ff" stroke="#6666ff" points="989.91,-1407.86 997.97,-1414.74 995.96,-1404.34 989.91,-1407.86"/>
</g>
<!-- Metamodel::BaseType -->
<g id="node23" class="node">
<title>Metamodel::BaseType</title>
<g id="a_node23"><a xlink:href="/type/Metamodel::BaseType" xlink:title="Metamodel::BaseType">
<ellipse fill="none" stroke="#6666ff" cx="1779.33" cy="-1102.43" rx="99.38" ry="18"/>
<text text-anchor="middle" x="1779.33" y="-1098.73" font-family="FreeSans" font-size="14.00" fill="#6666ff">Metamodel::BaseType</text>
</a>
</g>
</g>
<!-- Metamodel::EnumHOW -->
<g id="node24" class="node">
<title>Metamodel::EnumHOW</title>
<g id="a_node24"><a xlink:href="/type/Metamodel::EnumHOW" xlink:title="Metamodel::EnumHOW">
<ellipse fill="none" stroke="#000000" cx="1067.19" cy="-994.64" rx="104.78" ry="18"/>
<text text-anchor="middle" x="1067.19" y="-990.94" font-family="FreeSans" font-size="14.00" fill="#000000">Metamodel::EnumHOW</text>
</a>
</g>
</g>
<!-- Metamodel::EnumHOW&#45;&gt;Metamodel::Mixins -->
<g id="edge34" class="edge">
<title>Metamodel::EnumHOW&#45;&gt;Metamodel::Mixins</title>
<path fill="none" stroke="#6666ff" d="M1046.24,-976.81C978.23,-918.91 763.44,-736.06 685.16,-669.42"/>
<polygon fill="#6666ff" stroke="#6666ff" points="687.05,-666.43 677.16,-662.61 682.51,-671.76 687.05,-666.43"/>
</g>
<!-- Metamodel::EnumHOW&#45;&gt;Any -->
<g id="edge3" class="edge">
<title>Metamodel::EnumHOW&#45;&gt;Any</title>
<path fill="none" stroke="#000000" d="M1065.88,-976.32C1061.3,-912.2 1046.28,-701.77 1046.28,-701.77 1046.28,-701.77 1119.04,-564.7 1150.13,-506.12"/>
<polygon fill="#000000" stroke="#000000" points="1153.32,-507.57 1154.92,-497.1 1147.14,-504.29 1153.32,-507.57"/>
</g>
<!-- Metamodel::EnumHOW&#45;&gt;Metamodel::Naming -->
<g id="edge23" class="edge">
<title>Metamodel::EnumHOW&#45;&gt;Metamodel::Naming</title>
<path fill="none" stroke="#6666ff" d="M1063.03,-1012.77C1045.49,-1089.21 978.48,-1381.29 978.48,-1381.29 978.48,-1381.29 867.76,-1432.58 867.76,-1432.58 867.76,-1432.58 866.61,-1502.35 865.94,-1542.82"/>
<polygon fill="#6666ff" stroke="#6666ff" points="862.44,-1542.84 865.77,-1552.9 869.44,-1542.96 862.44,-1542.84"/>
</g>
<!-- Metamodel::EnumHOW&#45;&gt;Metamodel::Stashing -->
<g id="edge24" class="edge">
<title>Metamodel::EnumHOW&#45;&gt;Metamodel::Stashing</title>
<path fill="none" stroke="#6666ff" d="M1057.62,-976.49C1013.8,-893.31 834.31,-552.6 834.31,-552.6 834.31,-552.6 821.85,-518.36 812.5,-492.63"/>
<polygon fill="#6666ff" stroke="#6666ff" points="815.68,-491.13 808.97,-482.93 809.1,-493.53 815.68,-491.13"/>
</g>
<!-- Metamodel::EnumHOW&#45;&gt;Metamodel::AttributeContainer -->
<g id="edge25" class="edge">
<title>Metamodel::EnumHOW&#45;&gt;Metamodel::AttributeContainer</title>
<path fill="none" stroke="#6666ff" d="M1111.31,-978.19C1159.96,-960.04 1238.29,-930.83 1290.84,-911.24"/>
<polygon fill="#6666ff" stroke="#6666ff" points="1292.19,-914.47 1300.34,-907.7 1289.74,-907.91 1292.19,-914.47"/>
</g>
<!-- Metamodel::EnumHOW&#45;&gt;Metamodel::MethodContainer -->
<g id="edge26" class="edge">
<title>Metamodel::EnumHOW&#45;&gt;Metamodel::MethodContainer</title>
<path fill="none" stroke="#6666ff" d="M1062.92,-976.49C1046.79,-907.86 989.44,-663.91 969.89,-580.7"/>
<polygon fill="#6666ff" stroke="#6666ff" points="973.23,-579.64 967.54,-570.71 966.42,-581.25 973.23,-579.64"/>
</g>
<!-- Metamodel::EnumHOW&#45;&gt;Metamodel::MultiMethodContainer -->
<g id="edge27" class="edge">
<title>Metamodel::EnumHOW&#45;&gt;Metamodel::MultiMethodContainer</title>
<path fill="none" stroke="#6666ff" d="M977.36,-1003.96C876.04,-1014.47 710.7,-1031.62 597.75,-1043.34"/>
<polygon fill="#6666ff" stroke="#6666ff" points="597.25,-1039.87 587.67,-1044.38 597.97,-1046.83 597.25,-1039.87"/>
</g>
<!-- Metamodel::EnumHOW&#45;&gt;Metamodel::RoleContainer -->
<g id="edge28" class="edge">
<title>Metamodel::EnumHOW&#45;&gt;Metamodel::RoleContainer</title>
<path fill="none" stroke="#6666ff" d="M1088.49,-1012.58C1130.06,-1047.58 1222.04,-1125.02 1269.08,-1164.63"/>
<polygon fill="#6666ff" stroke="#6666ff" points="1266.88,-1167.34 1276.78,-1171.11 1271.38,-1161.99 1266.88,-1167.34"/>
</g>
<!-- Metamodel::EnumHOW&#45;&gt;Metamodel::MROBasedMethodDispatch -->
<g id="edge30" class="edge">
<title>Metamodel::EnumHOW&#45;&gt;Metamodel::MROBasedMethodDispatch</title>
<path fill="none" stroke="#6666ff" d="M1076.59,-976.32C1102.16,-926.51 1173.08,-788.36 1203.43,-729.23"/>
<polygon fill="#6666ff" stroke="#6666ff" points="1206.66,-730.62 1208.11,-720.12 1200.43,-727.42 1206.66,-730.62"/>
</g>
<!-- Metamodel::EnumHOW&#45;&gt;Metamodel::MROBasedTypeChecking -->
<g id="edge31" class="edge">
<title>Metamodel::EnumHOW&#45;&gt;Metamodel::MROBasedTypeChecking</title>
<path fill="none" stroke="#6666ff" d="M1044.3,-1012.31C965.79,-1072.92 707.28,-1272.51 617.27,-1342.01"/>
<polygon fill="#6666ff" stroke="#6666ff" points="615.12,-1339.25 609.35,-1348.13 619.4,-1344.79 615.12,-1339.25"/>
</g>
<!-- Metamodel::EnumHOW&#45;&gt;Metamodel::BUILDPLAN -->
<g id="edge32" class="edge">
<title>Metamodel::EnumHOW&#45;&gt;Metamodel::BUILDPLAN</title>
<path fill="none" stroke="#6666ff" d="M1057.8,-1012.76C1025.63,-1074.9 919.66,-1279.55 881.17,-1353.87"/>
<polygon fill="#6666ff" stroke="#6666ff" points="877.9,-1352.58 876.41,-1363.07 884.12,-1355.8 877.9,-1352.58"/>
</g>
<!-- Metamodel::EnumHOW&#45;&gt;Metamodel::BoolificationProtocol -->
<g id="edge33" class="edge">
<title>Metamodel::EnumHOW&#45;&gt;Metamodel::BoolificationProtocol</title>
<path fill="none" stroke="#6666ff" d="M1064.74,-1012.91C1055.58,-1081.17 1023.35,-1321.59 1012.24,-1404.43"/>
<polygon fill="#6666ff" stroke="#6666ff" points="1008.76,-1404.01 1010.9,-1414.39 1015.7,-1404.94 1008.76,-1404.01"/>
</g>
<!-- Metamodel::EnumHOW&#45;&gt;Metamodel::BaseType -->
<g id="edge29" class="edge">
<title>Metamodel::EnumHOW&#45;&gt;Metamodel::BaseType</title>
<path fill="none" stroke="#6666ff" d="M1145.78,-1006.54C1280.14,-1026.87 1553.01,-1068.17 1692.69,-1089.32"/>
<polygon fill="#6666ff" stroke="#6666ff" points="1692.51,-1092.83 1702.92,-1090.87 1693.56,-1085.91 1692.51,-1092.83"/>
</g>
</g>
</svg>
