<?xml version="1.0" encoding="UTF-8" standalone="no"?>
<!DOCTYPE svg PUBLIC "-//W3C//DTD SVG 1.1//EN"
 "http://www.w3.org/Graphics/SVG/1.1/DTD/svg11.dtd">
<!-- Generated by graphviz version 2.43.0 (0)
 -->
<!-- Title: perl6&#45;type&#45;graph Pages: 1 -->
<svg width="470pt" height="404pt"
 viewBox="0.00 0.00 470.44 404.00" xmlns="http://www.w3.org/2000/svg" xmlns:xlink="http://www.w3.org/1999/xlink">
<g id="graph0" class="graph" transform="scale(1 1) rotate(0) translate(4 400)">
<title>perl6&#45;type&#45;graph</title>
<polygon fill="white" stroke="transparent" points="-4,4 -4,-400 466.44,-400 466.44,4 -4,4"/>
<!-- Str -->
<g id="node1" class="node">
<title>Str</title>
<g id="a_node1"><a xlink:href="/type/Str" xlink:title="Str">
<ellipse fill="none" stroke="#000000" cx="318.9" cy="-162" rx="27" ry="18"/>
<text text-anchor="middle" x="318.9" y="-158.3" font-family="FreeSans" font-size="14.00" fill="#000000">Str</text>
</a>
</g>
</g>
<!-- Cool -->
<g id="node4" class="node">
<title>Cool</title>
<g id="a_node4"><a xlink:href="/type/Cool" xlink:title="Cool">
<ellipse fill="none" stroke="#000000" cx="239.9" cy="-234" rx="28.7" ry="18"/>
<text text-anchor="middle" x="239.9" y="-230.3" font-family="FreeSans" font-size="14.00" fill="#000000">Cool</text>
</a>
</g>
</g>
<!-- Str&#45;&gt;Cool -->
<g id="edge1" class="edge">
<title>Str&#45;&gt;Cool</title>
<path fill="none" stroke="#000000" d="M303.29,-176.83C291.89,-186.93 276.25,-200.79 263.35,-212.21"/>
<polygon fill="#000000" stroke="#000000" points="260.91,-209.71 255.74,-218.96 265.55,-214.95 260.91,-209.71"/>
</g>
<!-- Stringy -->
<g id="node5" class="node">
<title>Stringy</title>
<g id="a_node5"><a xlink:href="/type/Stringy" xlink:title="Stringy">
<ellipse fill="none" stroke="#6666ff" cx="324.9" cy="-234" rx="38.19" ry="18"/>
<text text-anchor="middle" x="324.9" y="-230.3" font-family="FreeSans" font-size="14.00" fill="#6666ff">Stringy</text>
</a>
</g>
</g>
<!-- Str&#45;&gt;Stringy -->
<g id="edge16" class="edge">
<title>Str&#45;&gt;Stringy</title>
<path fill="none" stroke="#6666ff" d="M320.38,-180.3C321.04,-188.02 321.84,-197.29 322.57,-205.89"/>
<polygon fill="#6666ff" stroke="#6666ff" points="319.09,-206.23 323.43,-215.9 326.06,-205.63 319.09,-206.23"/>
</g>
<!-- Mu -->
<g id="node2" class="node">
<title>Mu</title>
<g id="a_node2"><a xlink:href="/type/Mu" xlink:title="Mu">
<ellipse fill="none" stroke="#000000" cx="239.9" cy="-378" rx="27" ry="18"/>
<text text-anchor="middle" x="239.9" y="-374.3" font-family="FreeSans" font-size="14.00" fill="#000000">Mu</text>
</a>
</g>
</g>
<!-- Any -->
<g id="node3" class="node">
<title>Any</title>
<g id="a_node3"><a xlink:href="/type/Any" xlink:title="Any">
<ellipse fill="none" stroke="#000000" cx="239.9" cy="-306" rx="27" ry="18"/>
<text text-anchor="middle" x="239.9" y="-302.3" font-family="FreeSans" font-size="14.00" fill="#000000">Any</text>
</a>
</g>
</g>
<!-- Any&#45;&gt;Mu -->
<g id="edge2" class="edge">
<title>Any&#45;&gt;Mu</title>
<path fill="none" stroke="#000000" d="M239.9,-324.3C239.9,-332.02 239.9,-341.29 239.9,-349.89"/>
<polygon fill="#000000" stroke="#000000" points="236.4,-349.9 239.9,-359.9 243.4,-349.9 236.4,-349.9"/>
</g>
<!-- Cool&#45;&gt;Any -->
<g id="edge3" class="edge">
<title>Cool&#45;&gt;Any</title>
<path fill="none" stroke="#000000" d="M239.9,-252.3C239.9,-260.02 239.9,-269.29 239.9,-277.89"/>
<polygon fill="#000000" stroke="#000000" points="236.4,-277.9 239.9,-287.9 243.4,-277.9 236.4,-277.9"/>
</g>
<!-- Numeric -->
<g id="node6" class="node">
<title>Numeric</title>
<g id="a_node6"><a xlink:href="/type/Numeric" xlink:title="Numeric">
<ellipse fill="none" stroke="#6666ff" cx="365.9" cy="-306" rx="44.39" ry="18"/>
<text text-anchor="middle" x="365.9" y="-302.3" font-family="FreeSans" font-size="14.00" fill="#6666ff">Numeric</text>
</a>
</g>
</g>
<!-- Real -->
<g id="node7" class="node">
<title>Real</title>
<g id="a_node7"><a xlink:href="/type/Real" xlink:title="Real">
<ellipse fill="none" stroke="#6666ff" cx="152.9" cy="-234" rx="28.7" ry="18"/>
<text text-anchor="middle" x="152.9" y="-230.3" font-family="FreeSans" font-size="14.00" fill="#6666ff">Real</text>
</a>
</g>
</g>
<!-- Real&#45;&gt;Numeric -->
<g id="edge17" class="edge">
<title>Real&#45;&gt;Numeric</title>
<path fill="none" stroke="#6666ff" d="M177.4,-243.5C189.65,-247.75 201.9,-252 201.9,-252 201.9,-252 274.05,-275.32 322.64,-291.02"/>
<polygon fill="#6666ff" stroke="#6666ff" points="321.72,-294.4 332.31,-294.15 323.87,-287.74 321.72,-294.4"/>
</g>
<!-- Rational -->
<g id="node8" class="node">
<title>Rational</title>
<g id="a_node8"><a xlink:href="/type/Rational" xlink:title="Rational">
<ellipse fill="none" stroke="#6666ff" cx="42.9" cy="-162" rx="42.79" ry="18"/>
<text text-anchor="middle" x="42.9" y="-158.3" font-family="FreeSans" font-size="14.00" fill="#6666ff">Rational</text>
</a>
</g>
</g>
<!-- Rational&#45;&gt;Real -->
<g id="edge18" class="edge">
<title>Rational&#45;&gt;Real</title>
<path fill="none" stroke="#6666ff" d="M65.42,-177.33C82.6,-188.27 106.36,-203.39 124.78,-215.11"/>
<polygon fill="#6666ff" stroke="#6666ff" points="123.03,-218.14 133.35,-220.56 126.79,-212.24 123.03,-218.14"/>
</g>
<!-- Rat -->
<g id="node9" class="node">
<title>Rat</title>
<g id="a_node9"><a xlink:href="/type/Rat" xlink:title="Rat">
<ellipse fill="none" stroke="#000000" cx="81.9" cy="-90" rx="27" ry="18"/>
<text text-anchor="middle" x="81.9" y="-86.3" font-family="FreeSans" font-size="14.00" fill="#000000">Rat</text>
</a>
</g>
</g>
<!-- Rat&#45;&gt;Cool -->
<g id="edge4" class="edge">
<title>Rat&#45;&gt;Cool</title>
<path fill="none" stroke="#000000" d="M101.64,-102.5C128.41,-118.09 172.9,-144 172.9,-144 172.9,-144 202.32,-183.08 222.17,-209.45"/>
<polygon fill="#000000" stroke="#000000" points="219.42,-211.61 228.23,-217.5 225.01,-207.4 219.42,-211.61"/>
</g>
<!-- Rat&#45;&gt;Rational -->
<g id="edge19" class="edge">
<title>Rat&#45;&gt;Rational</title>
<path fill="none" stroke="#6666ff" d="M72.85,-107.24C68.19,-115.6 62.41,-125.98 57.16,-135.39"/>
<polygon fill="#6666ff" stroke="#6666ff" points="53.97,-133.93 52.16,-144.37 60.09,-137.33 53.97,-133.93"/>
</g>
<!-- RatStr -->
<g id="node10" class="node">
<title>RatStr</title>
<g id="a_node10"><a xlink:href="/type/RatStr" xlink:title="RatStr">
<ellipse fill="none" stroke="#000000" cx="199.9" cy="-18" rx="36" ry="18"/>
<text text-anchor="middle" x="199.9" y="-14.3" font-family="FreeSans" font-size="14.00" fill="#000000">RatStr</text>
</a>
</g>
</g>
<!-- RatStr&#45;&gt;Str -->
<g id="edge6" class="edge">
<title>RatStr&#45;&gt;Str</title>
<path fill="none" stroke="#000000" d="M223.59,-31.56C253.17,-47.23 299.9,-72 299.9,-72 299.9,-72 307.55,-107.83 313.14,-134.03"/>
<polygon fill="#000000" stroke="#000000" points="309.72,-134.79 315.23,-143.84 316.57,-133.33 309.72,-134.79"/>
</g>
<!-- RatStr&#45;&gt;Rat -->
<g id="edge5" class="edge">
<title>RatStr&#45;&gt;Rat</title>
<path fill="none" stroke="#000000" d="M177.7,-32.17C158.63,-43.48 131.01,-59.87 110.32,-72.14"/>
<polygon fill="#000000" stroke="#000000" points="108.45,-69.18 101.64,-77.29 112.02,-75.2 108.45,-69.18"/>
</g>
<!-- Num -->
<g id="node11" class="node">
<title>Num</title>
<g id="a_node11"><a xlink:href="/type/Num" xlink:title="Num">
<ellipse fill="none" stroke="#000000" cx="133.9" cy="-162" rx="29.8" ry="18"/>
<text text-anchor="middle" x="133.9" y="-158.3" font-family="FreeSans" font-size="14.00" fill="#000000">Num</text>
</a>
</g>
</g>
<!-- Num&#45;&gt;Cool -->
<g id="edge7" class="edge">
<title>Num&#45;&gt;Cool</title>
<path fill="none" stroke="#000000" d="M153.34,-175.84C169.88,-186.76 193.82,-202.57 212.34,-214.8"/>
<polygon fill="#000000" stroke="#000000" points="210.66,-217.89 220.93,-220.48 214.52,-212.05 210.66,-217.89"/>
</g>
<!-- Num&#45;&gt;Real -->
<g id="edge20" class="edge">
<title>Num&#45;&gt;Real</title>
<path fill="none" stroke="#6666ff" d="M138.5,-179.95C140.64,-187.86 143.25,-197.46 145.65,-206.31"/>
<polygon fill="#6666ff" stroke="#6666ff" points="142.34,-207.48 148.34,-216.21 149.1,-205.64 142.34,-207.48"/>
</g>
<!-- NumStr -->
<g id="node12" class="node">
<title>NumStr</title>
<g id="a_node12"><a xlink:href="/type/NumStr" xlink:title="NumStr">
<ellipse fill="none" stroke="#000000" cx="167.9" cy="-90" rx="40.89" ry="18"/>
<text text-anchor="middle" x="167.9" y="-86.3" font-family="FreeSans" font-size="14.00" fill="#000000">NumStr</text>
</a>
</g>
</g>
<!-- NumStr&#45;&gt;Str -->
<g id="edge9" class="edge">
<title>NumStr&#45;&gt;Str</title>
<path fill="none" stroke="#000000" d="M195.15,-103.56C229.16,-119.23 282.9,-144 282.9,-144 282.9,-144 285.08,-145.03 288.36,-146.58"/>
<polygon fill="#000000" stroke="#000000" points="287,-149.81 297.54,-150.91 289.99,-143.48 287,-149.81"/>
</g>
<!-- NumStr&#45;&gt;Num -->
<g id="edge8" class="edge">
<title>NumStr&#45;&gt;Num</title>
<path fill="none" stroke="#000000" d="M159.67,-107.95C155.7,-116.11 150.85,-126.09 146.44,-135.18"/>
<polygon fill="#000000" stroke="#000000" points="143.27,-133.69 142.05,-144.21 149.57,-136.75 143.27,-133.69"/>
</g>
<!-- Complex -->
<g id="node13" class="node">
<title>Complex</title>
<g id="a_node13"><a xlink:href="/type/Complex" xlink:title="Complex">
<ellipse fill="none" stroke="#000000" cx="408.9" cy="-162" rx="45.49" ry="18"/>
<text text-anchor="middle" x="408.9" y="-158.3" font-family="FreeSans" font-size="14.00" fill="#000000">Complex</text>
</a>
</g>
</g>
<!-- Complex&#45;&gt;Cool -->
<g id="edge10" class="edge">
<title>Complex&#45;&gt;Cool</title>
<path fill="none" stroke="#000000" d="M378.18,-175.43C339.46,-191.09 277.9,-216 277.9,-216 277.9,-216 275.47,-217.09 271.83,-218.71"/>
<polygon fill="#000000" stroke="#000000" points="270.14,-215.64 262.44,-222.91 273,-222.03 270.14,-215.64"/>
</g>
<!-- Complex&#45;&gt;Numeric -->
<g id="edge21" class="edge">
<title>Complex&#45;&gt;Numeric</title>
<path fill="none" stroke="#6666ff" d="M403.71,-180.13C396.35,-204.44 382.8,-249.18 374.08,-277.99"/>
<polygon fill="#6666ff" stroke="#6666ff" points="370.65,-277.23 371.1,-287.81 377.35,-279.25 370.65,-277.23"/>
</g>
<!-- ComplexStr -->
<g id="node14" class="node">
<title>ComplexStr</title>
<g id="a_node14"><a xlink:href="/type/ComplexStr" xlink:title="ComplexStr">
<ellipse fill="none" stroke="#000000" cx="405.9" cy="-90" rx="56.59" ry="18"/>
<text text-anchor="middle" x="405.9" y="-86.3" font-family="FreeSans" font-size="14.00" fill="#000000">ComplexStr</text>
</a>
</g>
</g>
<!-- ComplexStr&#45;&gt;Str -->
<g id="edge12" class="edge">
<title>ComplexStr&#45;&gt;Str</title>
<path fill="none" stroke="#000000" d="M386.15,-106.88C373.53,-117.04 357.06,-130.29 343.58,-141.14"/>
<polygon fill="#000000" stroke="#000000" points="341.23,-138.54 335.63,-147.53 345.62,-143.99 341.23,-138.54"/>
</g>
<!-- ComplexStr&#45;&gt;Complex -->
<g id="edge11" class="edge">
<title>ComplexStr&#45;&gt;Complex</title>
<path fill="none" stroke="#000000" d="M406.64,-108.3C406.97,-116.02 407.37,-125.29 407.73,-133.89"/>
<polygon fill="#000000" stroke="#000000" points="404.24,-134.05 408.16,-143.9 411.23,-133.75 404.24,-134.05"/>
</g>
<!-- Int -->
<g id="node15" class="node">
<title>Int</title>
<g id="a_node15"><a xlink:href="/type/Int" xlink:title="Int">
<ellipse fill="none" stroke="#000000" cx="246.9" cy="-162" rx="27" ry="18"/>
<text text-anchor="middle" x="246.9" y="-158.3" font-family="FreeSans" font-size="14.00" fill="#000000">Int</text>
</a>
</g>
</g>
<!-- Int&#45;&gt;Cool -->
<g id="edge13" class="edge">
<title>Int&#45;&gt;Cool</title>
<path fill="none" stroke="#000000" d="M245.17,-180.3C244.39,-188.02 243.47,-197.29 242.61,-205.89"/>
<polygon fill="#000000" stroke="#000000" points="239.12,-205.6 241.61,-215.9 246.08,-206.29 239.12,-205.6"/>
</g>
<!-- Int&#45;&gt;Real -->
<g id="edge22" class="edge">
<title>Int&#45;&gt;Real</title>
<path fill="none" stroke="#6666ff" d="M229.22,-176.17C215.13,-186.66 195.18,-201.51 179.22,-213.4"/>
<polygon fill="#6666ff" stroke="#6666ff" points="176.75,-210.87 170.82,-219.65 180.93,-216.49 176.75,-210.87"/>
</g>
<!-- IntStr -->
<g id="node16" class="node">
<title>IntStr</title>
<g id="a_node16"><a xlink:href="/type/IntStr" xlink:title="IntStr">
<ellipse fill="none" stroke="#000000" cx="258.9" cy="-90" rx="31.7" ry="18"/>
<text text-anchor="middle" x="258.9" y="-86.3" font-family="FreeSans" font-size="14.00" fill="#000000">IntStr</text>
</a>
</g>
</g>
<!-- IntStr&#45;&gt;Str -->
<g id="edge15" class="edge">
<title>IntStr&#45;&gt;Str</title>
<path fill="none" stroke="#000000" d="M272.21,-106.54C280.17,-115.82 290.42,-127.77 299.28,-138.12"/>
<polygon fill="#000000" stroke="#000000" points="296.86,-140.67 306.03,-145.99 302.18,-136.12 296.86,-140.67"/>
</g>
<!-- IntStr&#45;&gt;Int -->
<g id="edge14" class="edge">
<title>IntStr&#45;&gt;Int</title>
<path fill="none" stroke="#000000" d="M255.99,-107.95C254.67,-115.65 253.07,-124.97 251.59,-133.64"/>
<polygon fill="#000000" stroke="#000000" points="248.1,-133.28 249.86,-143.72 255,-134.46 248.1,-133.28"/>
</g>
</g>
</svg>
