<?xml version="1.0" encoding="UTF-8" standalone="no"?>
<!DOCTYPE svg PUBLIC "-//W3C//DTD SVG 1.1//EN"
 "http://www.w3.org/Graphics/SVG/1.1/DTD/svg11.dtd">
<!-- Generated by graphviz version 2.43.0 (0)
 -->
<!-- Title: perl6&#45;type&#45;graph Pages: 1 -->
<svg width="333pt" height="404pt"
 viewBox="0.00 0.00 332.73 404.00" xmlns="http://www.w3.org/2000/svg" xmlns:xlink="http://www.w3.org/1999/xlink">
<g id="graph0" class="graph" transform="scale(1 1) rotate(0) translate(4 400)">
<title>perl6&#45;type&#45;graph</title>
<polygon fill="#ffffff" stroke="transparent" points="-4,4 -4,-400 328.73,-400 328.73,4 -4,4"/>
<!-- X::Syntax::Pod::BeginWithoutEnd -->
<g id="node1" class="node">
<title>X::Syntax::Pod::BeginWithoutEnd</title>
<g id="a_node1"><a xlink:href="/type/X::Syntax::Pod::BeginWithoutEnd" xlink:title="X::Syntax::Pod::BeginWithoutEnd">
<ellipse fill="none" stroke="#000000" cx="141.69" cy="-18" rx="141.88" ry="18"/>
<text text-anchor="middle" x="141.69" y="-14.3" font-family="FreeSans" font-size="14.00" fill="#000000">X::Syntax::Pod::BeginWithoutEnd</text>
</a>
</g>
</g>
<!-- Exception -->
<g id="node4" class="node">
<title>Exception</title>
<g id="a_node4"><a xlink:href="/type/Exception" xlink:title="Exception">
<ellipse fill="none" stroke="#000000" cx="122.69" cy="-234" rx="49.29" ry="18"/>
<text text-anchor="middle" x="122.69" y="-230.3" font-family="FreeSans" font-size="14.00" fill="#000000">Exception</text>
</a>
</g>
</g>
<!-- X::Syntax::Pod::BeginWithoutEnd&#45;&gt;Exception -->
<g id="edge1" class="edge">
<title>X::Syntax::Pod::BeginWithoutEnd&#45;&gt;Exception</title>
<path fill="none" stroke="#000000" d="M130.34,-36.06C124.09,-51.55 118.69,-72 118.69,-72 118.69,-72 115.97,-159.62 118.15,-205.59"/>
<polygon fill="#000000" stroke="#000000" points="114.67,-206 118.78,-215.77 121.66,-205.57 114.67,-206"/>
</g>
<!-- X::Syntax::Pod::BeginWithoutEnd&#45;&gt;Exception -->
<g id="edge2" class="edge">
<title>X::Syntax::Pod::BeginWithoutEnd&#45;&gt;Exception</title>
<path fill="none" stroke="#000000" d="M144.02,-36.06C142.09,-51.55 136.69,-72 136.69,-72 136.69,-72 133.95,-160.05 128.89,-205.92"/>
<polygon fill="#000000" stroke="#000000" points="125.39,-205.72 127.63,-216.07 132.33,-206.58 125.39,-205.72"/>
</g>
<!-- X::Syntax -->
<g id="node6" class="node">
<title>X::Syntax</title>
<g id="a_node6"><a xlink:href="/type/X::Syntax" xlink:title="X::Syntax">
<ellipse fill="none" stroke="#6666ff" cx="184.69" cy="-90" rx="48.19" ry="18"/>
<text text-anchor="middle" x="184.69" y="-86.3" font-family="FreeSans" font-size="14.00" fill="#6666ff">X::Syntax</text>
</a>
</g>
</g>
<!-- X::Syntax::Pod::BeginWithoutEnd&#45;&gt;X::Syntax -->
<g id="edge7" class="edge">
<title>X::Syntax::Pod::BeginWithoutEnd&#45;&gt;X::Syntax</title>
<path fill="none" stroke="#6666ff" d="M152.32,-36.3C157.39,-44.56 163.56,-54.61 169.15,-63.7"/>
<polygon fill="#6666ff" stroke="#6666ff" points="166.26,-65.69 174.48,-72.38 172.22,-62.02 166.26,-65.69"/>
</g>
<!-- X::Pod -->
<g id="node7" class="node">
<title>X::Pod</title>
<g id="a_node7"><a xlink:href="/type/X::Pod" xlink:title="X::Pod">
<ellipse fill="none" stroke="#6666ff" cx="287.69" cy="-90" rx="37.09" ry="18"/>
<text text-anchor="middle" x="287.69" y="-86.3" font-family="FreeSans" font-size="14.00" fill="#6666ff">X::Pod</text>
</a>
</g>
</g>
<!-- X::Syntax::Pod::BeginWithoutEnd&#45;&gt;X::Pod -->
<g id="edge8" class="edge">
<title>X::Syntax::Pod::BeginWithoutEnd&#45;&gt;X::Pod</title>
<path fill="none" stroke="#6666ff" d="M176.29,-35.59C199.41,-46.68 229.72,-61.21 252.89,-72.31"/>
<polygon fill="#6666ff" stroke="#6666ff" points="251.49,-75.52 262.02,-76.69 254.51,-69.21 251.49,-75.52"/>
</g>
<!-- Mu -->
<g id="node2" class="node">
<title>Mu</title>
<g id="a_node2"><a xlink:href="/type/Mu" xlink:title="Mu">
<ellipse fill="none" stroke="#000000" cx="122.69" cy="-378" rx="27" ry="18"/>
<text text-anchor="middle" x="122.69" y="-374.3" font-family="FreeSans" font-size="14.00" fill="#000000">Mu</text>
</a>
</g>
</g>
<!-- Any -->
<g id="node3" class="node">
<title>Any</title>
<g id="a_node3"><a xlink:href="/type/Any" xlink:title="Any">
<ellipse fill="none" stroke="#000000" cx="122.69" cy="-306" rx="27" ry="18"/>
<text text-anchor="middle" x="122.69" y="-302.3" font-family="FreeSans" font-size="14.00" fill="#000000">Any</text>
</a>
</g>
</g>
<!-- Any&#45;&gt;Mu -->
<g id="edge3" class="edge">
<title>Any&#45;&gt;Mu</title>
<path fill="none" stroke="#000000" d="M122.69,-324.3C122.69,-332.02 122.69,-341.29 122.69,-349.89"/>
<polygon fill="#000000" stroke="#000000" points="119.19,-349.9 122.69,-359.9 126.19,-349.9 119.19,-349.9"/>
</g>
<!-- Exception&#45;&gt;Any -->
<g id="edge4" class="edge">
<title>Exception&#45;&gt;Any</title>
<path fill="none" stroke="#000000" d="M122.69,-252.3C122.69,-260.02 122.69,-269.29 122.69,-277.89"/>
<polygon fill="#000000" stroke="#000000" points="119.19,-277.9 122.69,-287.9 126.19,-277.9 119.19,-277.9"/>
</g>
<!-- X::Comp -->
<g id="node5" class="node">
<title>X::Comp</title>
<g id="a_node5"><a xlink:href="/type/X::Comp" xlink:title="X::Comp">
<ellipse fill="none" stroke="#6666ff" cx="219.69" cy="-162" rx="44.69" ry="18"/>
<text text-anchor="middle" x="219.69" y="-158.3" font-family="FreeSans" font-size="14.00" fill="#6666ff">X::Comp</text>
</a>
</g>
</g>
<!-- X::Comp&#45;&gt;Exception -->
<g id="edge5" class="edge">
<title>X::Comp&#45;&gt;Exception</title>
<path fill="none" stroke="#000000" d="M198.64,-178.19C185.13,-187.94 167.39,-200.74 152.45,-211.52"/>
<polygon fill="#000000" stroke="#000000" points="150.09,-208.91 144.03,-217.6 154.19,-214.59 150.09,-208.91"/>
</g>
<!-- X::Syntax&#45;&gt;Exception -->
<g id="edge6" class="edge">
<title>X::Syntax&#45;&gt;Exception</title>
<path fill="none" stroke="#000000" d="M177.33,-107.85C166.66,-132.29 146.78,-177.83 134.16,-206.71"/>
<polygon fill="#000000" stroke="#000000" points="130.83,-205.61 130.03,-216.18 137.24,-208.41 130.83,-205.61"/>
</g>
<!-- X::Syntax&#45;&gt;X::Comp -->
<g id="edge9" class="edge">
<title>X::Syntax&#45;&gt;X::Comp</title>
<path fill="none" stroke="#6666ff" d="M193.16,-107.95C197.24,-116.11 202.23,-126.09 206.78,-135.18"/>
<polygon fill="#6666ff" stroke="#6666ff" points="203.69,-136.83 211.29,-144.21 209.95,-133.7 203.69,-136.83"/>
</g>
</g>
</svg>
