<?xml version="1.0" encoding="UTF-8" standalone="no"?>
<!DOCTYPE svg PUBLIC "-//W3C//DTD SVG 1.1//EN"
 "http://www.w3.org/Graphics/SVG/1.1/DTD/svg11.dtd">
<!-- Generated by graphviz version 2.43.0 (0)
 -->
<!-- Title: perl6&#45;type&#45;graph Pages: 1 -->
<svg width="1718pt" height="260pt"
 viewBox="0.00 0.00 1718.43 260.00" xmlns="http://www.w3.org/2000/svg" xmlns:xlink="http://www.w3.org/1999/xlink">
<g id="graph0" class="graph" transform="scale(1 1) rotate(0) translate(4 256)">
<title>perl6&#45;type&#45;graph</title>
<polygon fill="white" stroke="transparent" points="-4,4 -4,-256 1714.43,-256 1714.43,4 -4,4"/>
<!-- Pod::Block -->
<g id="node1" class="node">
<title>Pod::Block</title>
<g id="a_node1"><a xlink:href="/type/Pod::Block" xlink:title="Pod::Block">
<ellipse fill="none" stroke="#000000" cx="883.19" cy="-90" rx="53.09" ry="18"/>
<text text-anchor="middle" x="883.19" y="-86.3" font-family="FreeSans" font-size="14.00" fill="#000000">Pod::Block</text>
</a>
</g>
</g>
<!-- Any -->
<g id="node3" class="node">
<title>Any</title>
<g id="a_node3"><a xlink:href="/type/Any" xlink:title="Any">
<ellipse fill="none" stroke="#000000" cx="883.19" cy="-162" rx="27" ry="18"/>
<text text-anchor="middle" x="883.19" y="-158.3" font-family="FreeSans" font-size="14.00" fill="#000000">Any</text>
</a>
</g>
</g>
<!-- Pod::Block&#45;&gt;Any -->
<g id="edge1" class="edge">
<title>Pod::Block&#45;&gt;Any</title>
<path fill="none" stroke="#000000" d="M883.19,-108.3C883.19,-116.02 883.19,-125.29 883.19,-133.89"/>
<polygon fill="#000000" stroke="#000000" points="879.69,-133.9 883.19,-143.9 886.69,-133.9 879.69,-133.9"/>
</g>
<!-- Mu -->
<g id="node2" class="node">
<title>Mu</title>
<g id="a_node2"><a xlink:href="/type/Mu" xlink:title="Mu">
<ellipse fill="none" stroke="#000000" cx="883.19" cy="-234" rx="27" ry="18"/>
<text text-anchor="middle" x="883.19" y="-230.3" font-family="FreeSans" font-size="14.00" fill="#000000">Mu</text>
</a>
</g>
</g>
<!-- Any&#45;&gt;Mu -->
<g id="edge2" class="edge">
<title>Any&#45;&gt;Mu</title>
<path fill="none" stroke="#000000" d="M883.19,-180.3C883.19,-188.02 883.19,-197.29 883.19,-205.89"/>
<polygon fill="#000000" stroke="#000000" points="879.69,-205.9 883.19,-215.9 886.69,-205.9 879.69,-205.9"/>
</g>
<!-- Pod::Block::Comment -->
<g id="node4" class="node">
<title>Pod::Block::Comment</title>
<g id="a_node4"><a xlink:href="/type/Pod::Block::Comment" xlink:title="Pod::Block::Comment">
<ellipse fill="none" stroke="#000000" cx="96.19" cy="-18" rx="96.38" ry="18"/>
<text text-anchor="middle" x="96.19" y="-14.3" font-family="FreeSans" font-size="14.00" fill="#000000">Pod::Block::Comment</text>
</a>
</g>
</g>
<!-- Pod::Block::Comment&#45;&gt;Pod::Block -->
<g id="edge3" class="edge">
<title>Pod::Block::Comment&#45;&gt;Pod::Block</title>
<path fill="none" stroke="#000000" d="M166.23,-30.34C185.49,-33.46 201.19,-36 201.19,-36 201.19,-36 654.16,-71.2 821.78,-84.23"/>
<polygon fill="#000000" stroke="#000000" points="821.69,-87.73 831.93,-85.02 822.23,-80.75 821.69,-87.73"/>
</g>
<!-- Pod::Block::Table -->
<g id="node5" class="node">
<title>Pod::Block::Table</title>
<g id="a_node5"><a xlink:href="/type/Pod::Block::Table" xlink:title="Pod::Block::Table">
<ellipse fill="none" stroke="#000000" cx="291.19" cy="-18" rx="80.69" ry="18"/>
<text text-anchor="middle" x="291.19" y="-14.3" font-family="FreeSans" font-size="14.00" fill="#000000">Pod::Block::Table</text>
</a>
</g>
</g>
<!-- Pod::Block::Table&#45;&gt;Pod::Block -->
<g id="edge4" class="edge">
<title>Pod::Block::Table&#45;&gt;Pod::Block</title>
<path fill="none" stroke="#000000" d="M350.56,-30.34C366.88,-33.46 380.19,-36 380.19,-36 380.19,-36 689.57,-68.6 823.06,-82.66"/>
<polygon fill="#000000" stroke="#000000" points="822.81,-86.16 833.12,-83.72 823.54,-79.2 822.81,-86.16"/>
</g>
<!-- Pod::Block::Para -->
<g id="node6" class="node">
<title>Pod::Block::Para</title>
<g id="a_node6"><a xlink:href="/type/Pod::Block::Para" xlink:title="Pod::Block::Para">
<ellipse fill="none" stroke="#000000" cx="466.19" cy="-18" rx="76.89" ry="18"/>
<text text-anchor="middle" x="466.19" y="-14.3" font-family="FreeSans" font-size="14.00" fill="#000000">Pod::Block::Para</text>
</a>
</g>
</g>
<!-- Pod::Block::Para&#45;&gt;Pod::Block -->
<g id="edge5" class="edge">
<title>Pod::Block::Para&#45;&gt;Pod::Block</title>
<path fill="none" stroke="#000000" d="M522.41,-30.24C538.22,-33.41 551.19,-36 551.19,-36 551.19,-36 730.98,-64.7 825.95,-79.86"/>
<polygon fill="#000000" stroke="#000000" points="825.55,-83.34 835.98,-81.46 826.65,-76.43 825.55,-83.34"/>
</g>
<!-- Pod::Heading -->
<g id="node7" class="node">
<title>Pod::Heading</title>
<g id="a_node7"><a xlink:href="/type/Pod::Heading" xlink:title="Pod::Heading">
<ellipse fill="none" stroke="#000000" cx="624.19" cy="-18" rx="63.89" ry="18"/>
<text text-anchor="middle" x="624.19" y="-14.3" font-family="FreeSans" font-size="14.00" fill="#000000">Pod::Heading</text>
</a>
</g>
</g>
<!-- Pod::Heading&#45;&gt;Pod::Block -->
<g id="edge6" class="edge">
<title>Pod::Heading&#45;&gt;Pod::Block</title>
<path fill="none" stroke="#000000" d="M668.42,-30.95C714.15,-43.31 785.41,-62.57 833.16,-75.48"/>
<polygon fill="#000000" stroke="#000000" points="832.41,-78.9 842.98,-78.13 834.24,-72.14 832.41,-78.9"/>
</g>
<!-- Pod::Block::Code -->
<g id="node8" class="node">
<title>Pod::Block::Code</title>
<g id="a_node8"><a xlink:href="/type/Pod::Block::Code" xlink:title="Pod::Block::Code">
<ellipse fill="none" stroke="#000000" cx="785.19" cy="-18" rx="79.09" ry="18"/>
<text text-anchor="middle" x="785.19" y="-14.3" font-family="FreeSans" font-size="14.00" fill="#000000">Pod::Block::Code</text>
</a>
</g>
</g>
<!-- Pod::Block::Code&#45;&gt;Pod::Block -->
<g id="edge7" class="edge">
<title>Pod::Block::Code&#45;&gt;Pod::Block</title>
<path fill="none" stroke="#000000" d="M808.42,-35.59C821.85,-45.19 838.91,-57.37 853.33,-67.67"/>
<polygon fill="#000000" stroke="#000000" points="851.3,-70.52 861.48,-73.49 855.37,-64.83 851.3,-70.52"/>
</g>
<!-- Pod::Block::Declarator -->
<g id="node9" class="node">
<title>Pod::Block::Declarator</title>
<g id="a_node9"><a xlink:href="/type/Pod::Block::Declarator" xlink:title="Pod::Block::Declarator">
<ellipse fill="none" stroke="#000000" cx="981.19" cy="-18" rx="98.58" ry="18"/>
<text text-anchor="middle" x="981.19" y="-14.3" font-family="FreeSans" font-size="14.00" fill="#000000">Pod::Block::Declarator</text>
</a>
</g>
</g>
<!-- Pod::Block::Declarator&#45;&gt;Pod::Block -->
<g id="edge8" class="edge">
<title>Pod::Block::Declarator&#45;&gt;Pod::Block</title>
<path fill="none" stroke="#000000" d="M957.97,-35.59C944.53,-45.19 927.48,-57.37 913.05,-67.67"/>
<polygon fill="#000000" stroke="#000000" points="911.01,-64.83 904.91,-73.49 915.08,-70.52 911.01,-64.83"/>
</g>
<!-- Pod::Item -->
<g id="node10" class="node">
<title>Pod::Item</title>
<g id="a_node10"><a xlink:href="/type/Pod::Item" xlink:title="Pod::Item">
<ellipse fill="none" stroke="#000000" cx="1146.19" cy="-18" rx="48.19" ry="18"/>
<text text-anchor="middle" x="1146.19" y="-14.3" font-family="FreeSans" font-size="14.00" fill="#000000">Pod::Item</text>
</a>
</g>
</g>
<!-- Pod::Item&#45;&gt;Pod::Block -->
<g id="edge9" class="edge">
<title>Pod::Item&#45;&gt;Pod::Block</title>
<path fill="none" stroke="#000000" d="M1109.77,-29.86C1098.6,-33.19 1089.19,-36 1089.19,-36 1089.19,-36 995.25,-60.17 934.24,-75.87"/>
<polygon fill="#000000" stroke="#000000" points="933.2,-72.52 924.38,-78.4 934.94,-79.3 933.2,-72.52"/>
</g>
<!-- Pod::Block::Named -->
<g id="node11" class="node">
<title>Pod::Block::Named</title>
<g id="a_node11"><a xlink:href="/type/Pod::Block::Named" xlink:title="Pod::Block::Named">
<ellipse fill="none" stroke="#000000" cx="1299.19" cy="-18" rx="87.18" ry="18"/>
<text text-anchor="middle" x="1299.19" y="-14.3" font-family="FreeSans" font-size="14.00" fill="#000000">Pod::Block::Named</text>
</a>
</g>
</g>
<!-- Pod::Block::Named&#45;&gt;Pod::Block -->
<g id="edge10" class="edge">
<title>Pod::Block::Named&#45;&gt;Pod::Block</title>
<path fill="none" stroke="#000000" d="M1235.43,-30.29C1217.69,-33.43 1203.19,-36 1203.19,-36 1203.19,-36 1032.02,-64.35 940.06,-79.58"/>
<polygon fill="#000000" stroke="#000000" points="939.36,-76.15 930.06,-81.24 940.5,-83.06 939.36,-76.15"/>
</g>
<!-- Pod::Defn -->
<g id="node12" class="node">
<title>Pod::Defn</title>
<g id="a_node12"><a xlink:href="/type/Pod::Defn" xlink:title="Pod::Defn">
<ellipse fill="none" stroke="#000000" cx="1454.19" cy="-18" rx="50.09" ry="18"/>
<text text-anchor="middle" x="1454.19" y="-14.3" font-family="FreeSans" font-size="14.00" fill="#000000">Pod::Defn</text>
</a>
</g>
</g>
<!-- Pod::Defn&#45;&gt;Pod::Block -->
<g id="edge11" class="edge">
<title>Pod::Defn&#45;&gt;Pod::Block</title>
<path fill="none" stroke="#000000" d="M1416.49,-29.86C1404.93,-33.19 1395.19,-36 1395.19,-36 1395.19,-36 1079.52,-68.68 943.91,-82.71"/>
<polygon fill="#000000" stroke="#000000" points="943.27,-79.26 933.69,-83.77 943.99,-86.22 943.27,-79.26"/>
</g>
<!-- Pod::FormattingCode -->
<g id="node13" class="node">
<title>Pod::FormattingCode</title>
<g id="a_node13"><a xlink:href="/type/Pod::FormattingCode" xlink:title="Pod::FormattingCode">
<ellipse fill="none" stroke="#000000" cx="1616.19" cy="-18" rx="94.48" ry="18"/>
<text text-anchor="middle" x="1616.19" y="-14.3" font-family="FreeSans" font-size="14.00" fill="#000000">Pod::FormattingCode</text>
</a>
</g>
</g>
<!-- Pod::FormattingCode&#45;&gt;Pod::Block -->
<g id="edge12" class="edge">
<title>Pod::FormattingCode&#45;&gt;Pod::Block</title>
<path fill="none" stroke="#000000" d="M1547.49,-30.34C1528.6,-33.46 1513.19,-36 1513.19,-36 1513.19,-36 1102.43,-70.56 944.26,-83.86"/>
<polygon fill="#000000" stroke="#000000" points="943.88,-80.38 934.21,-84.71 944.47,-87.36 943.88,-80.38"/>
</g>
</g>
</svg>
