<?xml version="1.0" encoding="UTF-8" standalone="no"?>
<!DOCTYPE svg PUBLIC "-//W3C//DTD SVG 1.1//EN"
 "http://www.w3.org/Graphics/SVG/1.1/DTD/svg11.dtd">
<!-- Generated by graphviz version 2.43.0 (0)
 -->
<!-- Title: perl6&#45;type&#45;graph Pages: 1 -->
<svg width="264pt" height="404pt"
 viewBox="0.00 0.00 263.84 404.00" xmlns="http://www.w3.org/2000/svg" xmlns:xlink="http://www.w3.org/1999/xlink">
<g id="graph0" class="graph" transform="scale(1 1) rotate(0) translate(4 400)">
<title>perl6&#45;type&#45;graph</title>
<polygon fill="white" stroke="transparent" points="-4,4 -4,-400 259.84,-400 259.84,4 -4,4"/>
<!-- X::Syntax::Reserved -->
<g id="node1" class="node">
<title>X::Syntax::Reserved</title>
<g id="a_node1"><a xlink:href="/type/X::Syntax::Reserved" xlink:title="X::Syntax::Reserved">
<ellipse fill="none" stroke="#000000" cx="90.99" cy="-18" rx="90.98" ry="18"/>
<text text-anchor="middle" x="90.99" y="-14.3" font-family="FreeSans" font-size="14.00" fill="#000000">X::Syntax::Reserved</text>
</a>
</g>
</g>
<!-- Exception -->
<g id="node4" class="node">
<title>Exception</title>
<g id="a_node4"><a xlink:href="/type/Exception" xlink:title="Exception">
<ellipse fill="none" stroke="#000000" cx="113.99" cy="-234" rx="49.29" ry="18"/>
<text text-anchor="middle" x="113.99" y="-230.3" font-family="FreeSans" font-size="14.00" fill="#000000">Exception</text>
</a>
</g>
</g>
<!-- X::Syntax::Reserved&#45;&gt;Exception -->
<g id="edge1" class="edge">
<title>X::Syntax::Reserved&#45;&gt;Exception</title>
<path fill="none" stroke="#000000" d="M88.96,-36.15C89.4,-73.34 98.63,-161.63 106.46,-206.23"/>
<polygon fill="#000000" stroke="#000000" points="103.03,-206.88 108.31,-216.06 109.91,-205.59 103.03,-206.88"/>
</g>
<!-- X::Syntax::Reserved&#45;&gt;Exception -->
<g id="edge2" class="edge">
<title>X::Syntax::Reserved&#45;&gt;Exception</title>
<path fill="none" stroke="#000000" d="M96.71,-36.15C104.23,-73.17 113.92,-160.82 115.74,-205.61"/>
<polygon fill="#000000" stroke="#000000" points="112.25,-205.87 116.03,-215.77 119.24,-205.67 112.25,-205.87"/>
</g>
<!-- X::Syntax -->
<g id="node6" class="node">
<title>X::Syntax</title>
<g id="a_node6"><a xlink:href="/type/X::Syntax" xlink:title="X::Syntax">
<ellipse fill="none" stroke="#6666ff" cx="175.99" cy="-90" rx="48.19" ry="18"/>
<text text-anchor="middle" x="175.99" y="-86.3" font-family="FreeSans" font-size="14.00" fill="#6666ff">X::Syntax</text>
</a>
</g>
</g>
<!-- X::Syntax::Reserved&#45;&gt;X::Syntax -->
<g id="edge7" class="edge">
<title>X::Syntax::Reserved&#45;&gt;X::Syntax</title>
<path fill="none" stroke="#6666ff" d="M111.14,-35.59C122.49,-44.94 136.83,-56.75 149.13,-66.88"/>
<polygon fill="#6666ff" stroke="#6666ff" points="146.92,-69.6 156.87,-73.25 151.37,-64.19 146.92,-69.6"/>
</g>
<!-- Mu -->
<g id="node2" class="node">
<title>Mu</title>
<g id="a_node2"><a xlink:href="/type/Mu" xlink:title="Mu">
<ellipse fill="none" stroke="#000000" cx="113.99" cy="-378" rx="27" ry="18"/>
<text text-anchor="middle" x="113.99" y="-374.3" font-family="FreeSans" font-size="14.00" fill="#000000">Mu</text>
</a>
</g>
</g>
<!-- Any -->
<g id="node3" class="node">
<title>Any</title>
<g id="a_node3"><a xlink:href="/type/Any" xlink:title="Any">
<ellipse fill="none" stroke="#000000" cx="113.99" cy="-306" rx="27" ry="18"/>
<text text-anchor="middle" x="113.99" y="-302.3" font-family="FreeSans" font-size="14.00" fill="#000000">Any</text>
</a>
</g>
</g>
<!-- Any&#45;&gt;Mu -->
<g id="edge3" class="edge">
<title>Any&#45;&gt;Mu</title>
<path fill="none" stroke="#000000" d="M113.99,-324.3C113.99,-332.02 113.99,-341.29 113.99,-349.89"/>
<polygon fill="#000000" stroke="#000000" points="110.49,-349.9 113.99,-359.9 117.49,-349.9 110.49,-349.9"/>
</g>
<!-- Exception&#45;&gt;Any -->
<g id="edge4" class="edge">
<title>Exception&#45;&gt;Any</title>
<path fill="none" stroke="#000000" d="M113.99,-252.3C113.99,-260.02 113.99,-269.29 113.99,-277.89"/>
<polygon fill="#000000" stroke="#000000" points="110.49,-277.9 113.99,-287.9 117.49,-277.9 110.49,-277.9"/>
</g>
<!-- X::Comp -->
<g id="node5" class="node">
<title>X::Comp</title>
<g id="a_node5"><a xlink:href="/type/X::Comp" xlink:title="X::Comp">
<ellipse fill="none" stroke="#6666ff" cx="210.99" cy="-162" rx="44.69" ry="18"/>
<text text-anchor="middle" x="210.99" y="-158.3" font-family="FreeSans" font-size="14.00" fill="#6666ff">X::Comp</text>
</a>
</g>
</g>
<!-- X::Comp&#45;&gt;Exception -->
<g id="edge5" class="edge">
<title>X::Comp&#45;&gt;Exception</title>
<path fill="none" stroke="#000000" d="M189.94,-178.19C176.44,-187.94 158.69,-200.74 143.75,-211.52"/>
<polygon fill="#000000" stroke="#000000" points="141.39,-208.91 135.33,-217.6 145.49,-214.59 141.39,-208.91"/>
</g>
<!-- X::Syntax&#45;&gt;Exception -->
<g id="edge6" class="edge">
<title>X::Syntax&#45;&gt;Exception</title>
<path fill="none" stroke="#000000" d="M168.64,-107.85C157.96,-132.29 138.08,-177.83 125.47,-206.71"/>
<polygon fill="#000000" stroke="#000000" points="122.13,-205.61 121.34,-216.18 128.55,-208.41 122.13,-205.61"/>
</g>
<!-- X::Syntax&#45;&gt;X::Comp -->
<g id="edge8" class="edge">
<title>X::Syntax&#45;&gt;X::Comp</title>
<path fill="none" stroke="#6666ff" d="M184.46,-107.95C188.55,-116.11 193.54,-126.09 198.08,-135.18"/>
<polygon fill="#6666ff" stroke="#6666ff" points="194.99,-136.83 202.6,-144.21 201.26,-133.7 194.99,-136.83"/>
</g>
</g>
</svg>
