<?xml version="1.0" encoding="UTF-8" standalone="no"?>
<!DOCTYPE svg PUBLIC "-//W3C//DTD SVG 1.1//EN"
 "http://www.w3.org/Graphics/SVG/1.1/DTD/svg11.dtd">
<!-- Generated by graphviz version 2.43.0 (0)
 -->
<!-- Title: perl6&#45;type&#45;graph Pages: 1 -->
<svg width="1485pt" height="332pt"
 viewBox="0.00 0.00 1485.09 332.00" xmlns="http://www.w3.org/2000/svg" xmlns:xlink="http://www.w3.org/1999/xlink">
<g id="graph0" class="graph" transform="scale(1 1) rotate(0) translate(4 328)">
<title>perl6&#45;type&#45;graph</title>
<polygon fill="#ffffff" stroke="transparent" points="-4,4 -4,-328 1481.09,-328 1481.09,4 -4,4"/>
<!-- Cool -->
<g id="node1" class="node">
<title>Cool</title>
<g id="a_node1"><a xlink:href="/type/Cool" xlink:title="Cool">
<ellipse fill="none" stroke="#000000" cx="663.75" cy="-162" rx="28.7" ry="18"/>
<text text-anchor="middle" x="663.75" y="-158.3" font-family="FreeSans" font-size="14.00" fill="#000000">Cool</text>
</a>
</g>
</g>
<!-- Any -->
<g id="node3" class="node">
<title>Any</title>
<g id="a_node3"><a xlink:href="/type/Any" xlink:title="Any">
<ellipse fill="none" stroke="#000000" cx="599.75" cy="-234" rx="27" ry="18"/>
<text text-anchor="middle" x="599.75" y="-230.3" font-family="FreeSans" font-size="14.00" fill="#000000">Any</text>
</a>
</g>
</g>
<!-- Cool&#45;&gt;Any -->
<g id="edge1" class="edge">
<title>Cool&#45;&gt;Any</title>
<path fill="none" stroke="#000000" d="M650.17,-177.85C641.43,-187.4 629.91,-200.01 620.09,-210.75"/>
<polygon fill="#000000" stroke="#000000" points="617.46,-208.43 613.3,-218.18 622.63,-213.16 617.46,-208.43"/>
</g>
<!-- Mu -->
<g id="node2" class="node">
<title>Mu</title>
<g id="a_node2"><a xlink:href="/type/Mu" xlink:title="Mu">
<ellipse fill="none" stroke="#000000" cx="599.75" cy="-306" rx="27" ry="18"/>
<text text-anchor="middle" x="599.75" y="-302.3" font-family="FreeSans" font-size="14.00" fill="#000000">Mu</text>
</a>
</g>
</g>
<!-- Any&#45;&gt;Mu -->
<g id="edge2" class="edge">
<title>Any&#45;&gt;Mu</title>
<path fill="none" stroke="#000000" d="M599.75,-252.3C599.75,-260.02 599.75,-269.29 599.75,-277.89"/>
<polygon fill="#000000" stroke="#000000" points="596.25,-277.9 599.75,-287.9 603.25,-277.9 596.25,-277.9"/>
</g>
<!-- Iterable -->
<g id="node4" class="node">
<title>Iterable</title>
<g id="a_node4"><a xlink:href="/type/Iterable" xlink:title="Iterable">
<ellipse fill="none" stroke="#6666ff" cx="155.75" cy="-162" rx="40.09" ry="18"/>
<text text-anchor="middle" x="155.75" y="-158.3" font-family="FreeSans" font-size="14.00" fill="#6666ff">Iterable</text>
</a>
</g>
</g>
<!-- Associative -->
<g id="node5" class="node">
<title>Associative</title>
<g id="a_node5"><a xlink:href="/type/Associative" xlink:title="Associative">
<ellipse fill="none" stroke="#6666ff" cx="269.75" cy="-162" rx="55.49" ry="18"/>
<text text-anchor="middle" x="269.75" y="-158.3" font-family="FreeSans" font-size="14.00" fill="#6666ff">Associative</text>
</a>
</g>
</g>
<!-- Map -->
<g id="node6" class="node">
<title>Map</title>
<g id="a_node6"><a xlink:href="/type/Map" xlink:title="Map">
<ellipse fill="none" stroke="#000000" cx="260.75" cy="-90" rx="28.7" ry="18"/>
<text text-anchor="middle" x="260.75" y="-86.3" font-family="FreeSans" font-size="14.00" fill="#000000">Map</text>
</a>
</g>
</g>
<!-- Map&#45;&gt;Cool -->
<g id="edge3" class="edge">
<title>Map&#45;&gt;Cool</title>
<path fill="none" stroke="#000000" d="M283.29,-101.09C291.47,-104.75 298.75,-108 298.75,-108 298.75,-108 625.75,-144 625.75,-144 625.75,-144 628.18,-145.09 631.81,-146.71"/>
<polygon fill="#000000" stroke="#000000" points="630.64,-150.03 641.2,-150.91 633.5,-143.64 630.64,-150.03"/>
</g>
<!-- Map&#45;&gt;Iterable -->
<g id="edge21" class="edge">
<title>Map&#45;&gt;Iterable</title>
<path fill="none" stroke="#6666ff" d="M241.49,-103.84C225.92,-114.22 203.72,-129.01 185.82,-140.95"/>
<polygon fill="#6666ff" stroke="#6666ff" points="183.8,-138.09 177.42,-146.55 187.68,-143.92 183.8,-138.09"/>
</g>
<!-- Map&#45;&gt;Associative -->
<g id="edge22" class="edge">
<title>Map&#45;&gt;Associative</title>
<path fill="none" stroke="#6666ff" d="M262.97,-108.3C263.96,-116.02 265.15,-125.29 266.26,-133.89"/>
<polygon fill="#6666ff" stroke="#6666ff" points="262.8,-134.42 267.55,-143.9 269.74,-133.53 262.8,-134.42"/>
</g>
<!-- IO -->
<g id="node7" class="node">
<title>IO</title>
<g id="a_node7"><a xlink:href="/type/IO" xlink:title="IO">
<ellipse fill="none" stroke="#6666ff" cx="589.75" cy="-162" rx="27" ry="18"/>
<text text-anchor="middle" x="589.75" y="-158.3" font-family="FreeSans" font-size="14.00" fill="#6666ff">IO</text>
</a>
</g>
</g>
<!-- IO::Path -->
<g id="node8" class="node">
<title>IO::Path</title>
<g id="a_node8"><a xlink:href="/type/IO::Path" xlink:title="IO::Path">
<ellipse fill="none" stroke="#000000" cx="511.75" cy="-90" rx="43.59" ry="18"/>
<text text-anchor="middle" x="511.75" y="-86.3" font-family="FreeSans" font-size="14.00" fill="#000000">IO::Path</text>
</a>
</g>
</g>
<!-- IO::Path&#45;&gt;Cool -->
<g id="edge4" class="edge">
<title>IO::Path&#45;&gt;Cool</title>
<path fill="none" stroke="#000000" d="M539.62,-103.84C565.69,-115.84 604.59,-133.76 631.87,-146.32"/>
<polygon fill="#000000" stroke="#000000" points="630.45,-149.52 641,-150.53 633.38,-143.16 630.45,-149.52"/>
</g>
<!-- IO::Path&#45;&gt;IO -->
<g id="edge23" class="edge">
<title>IO::Path&#45;&gt;IO</title>
<path fill="none" stroke="#6666ff" d="M529.06,-106.54C540.18,-116.51 554.74,-129.59 566.82,-140.42"/>
<polygon fill="#6666ff" stroke="#6666ff" points="564.55,-143.09 574.33,-147.17 569.23,-137.88 564.55,-143.09"/>
</g>
<!-- Positional -->
<g id="node9" class="node">
<title>Positional</title>
<g id="a_node9"><a xlink:href="/type/Positional" xlink:title="Positional">
<ellipse fill="none" stroke="#6666ff" cx="48.75" cy="-162" rx="48.99" ry="18"/>
<text text-anchor="middle" x="48.75" y="-158.3" font-family="FreeSans" font-size="14.00" fill="#6666ff">Positional</text>
</a>
</g>
</g>
<!-- Range -->
<g id="node10" class="node">
<title>Range</title>
<g id="a_node10"><a xlink:href="/type/Range" xlink:title="Range">
<ellipse fill="none" stroke="#000000" cx="162.75" cy="-90" rx="36.29" ry="18"/>
<text text-anchor="middle" x="162.75" y="-86.3" font-family="FreeSans" font-size="14.00" fill="#000000">Range</text>
</a>
</g>
</g>
<!-- Range&#45;&gt;Cool -->
<g id="edge5" class="edge">
<title>Range&#45;&gt;Cool</title>
<path fill="none" stroke="#000000" d="M193.45,-99.7C208.21,-103.88 222.75,-108 222.75,-108 222.75,-108 625.75,-144 625.75,-144 625.75,-144 628.18,-145.09 631.81,-146.71"/>
<polygon fill="#000000" stroke="#000000" points="630.64,-150.03 641.2,-150.91 633.5,-143.64 630.64,-150.03"/>
</g>
<!-- Range&#45;&gt;Iterable -->
<g id="edge25" class="edge">
<title>Range&#45;&gt;Iterable</title>
<path fill="none" stroke="#6666ff" d="M161.02,-108.3C160.24,-116.02 159.32,-125.29 158.46,-133.89"/>
<polygon fill="#6666ff" stroke="#6666ff" points="154.97,-133.6 157.46,-143.9 161.93,-134.29 154.97,-133.6"/>
</g>
<!-- Range&#45;&gt;Positional -->
<g id="edge24" class="edge">
<title>Range&#45;&gt;Positional</title>
<path fill="none" stroke="#6666ff" d="M140.77,-104.5C124.01,-114.79 100.66,-129.12 81.67,-140.78"/>
<polygon fill="#6666ff" stroke="#6666ff" points="79.72,-137.88 73.03,-146.09 83.38,-143.84 79.72,-137.88"/>
</g>
<!-- PositionalBindFailover -->
<g id="node11" class="node">
<title>PositionalBindFailover</title>
<g id="a_node11"><a xlink:href="/type/PositionalBindFailover" xlink:title="PositionalBindFailover">
<ellipse fill="none" stroke="#6666ff" cx="392.75" cy="-234" rx="97.48" ry="18"/>
<text text-anchor="middle" x="392.75" y="-230.3" font-family="FreeSans" font-size="14.00" fill="#6666ff">PositionalBindFailover</text>
</a>
</g>
</g>
<!-- Sequence -->
<g id="node12" class="node">
<title>Sequence</title>
<g id="a_node12"><a xlink:href="/type/Sequence" xlink:title="Sequence">
<ellipse fill="none" stroke="#6666ff" cx="392.75" cy="-162" rx="50.09" ry="18"/>
<text text-anchor="middle" x="392.75" y="-158.3" font-family="FreeSans" font-size="14.00" fill="#6666ff">Sequence</text>
</a>
</g>
</g>
<!-- Sequence&#45;&gt;PositionalBindFailover -->
<g id="edge26" class="edge">
<title>Sequence&#45;&gt;PositionalBindFailover</title>
<path fill="none" stroke="#6666ff" d="M392.75,-180.3C392.75,-188.02 392.75,-197.29 392.75,-205.89"/>
<polygon fill="#6666ff" stroke="#6666ff" points="389.25,-205.9 392.75,-215.9 396.25,-205.9 389.25,-205.9"/>
</g>
<!-- Seq -->
<g id="node13" class="node">
<title>Seq</title>
<g id="a_node13"><a xlink:href="/type/Seq" xlink:title="Seq">
<ellipse fill="none" stroke="#000000" cx="334.75" cy="-90" rx="27" ry="18"/>
<text text-anchor="middle" x="334.75" y="-86.3" font-family="FreeSans" font-size="14.00" fill="#000000">Seq</text>
</a>
</g>
</g>
<!-- Seq&#45;&gt;Cool -->
<g id="edge6" class="edge">
<title>Seq&#45;&gt;Cool</title>
<path fill="none" stroke="#000000" d="M356.1,-101.09C363.86,-104.75 370.75,-108 370.75,-108 370.75,-108 625.75,-144 625.75,-144 625.75,-144 628.18,-145.09 631.81,-146.71"/>
<polygon fill="#000000" stroke="#000000" points="630.64,-150.03 641.2,-150.91 633.5,-143.64 630.64,-150.03"/>
</g>
<!-- Seq&#45;&gt;Iterable -->
<g id="edge27" class="edge">
<title>Seq&#45;&gt;Iterable</title>
<path fill="none" stroke="#6666ff" d="M313.39,-101.09C305.64,-104.75 298.75,-108 298.75,-108 298.75,-108 237.56,-130.68 195.23,-146.36"/>
<polygon fill="#6666ff" stroke="#6666ff" points="193.88,-143.13 185.72,-149.89 196.32,-149.7 193.88,-143.13"/>
</g>
<!-- Seq&#45;&gt;Sequence -->
<g id="edge28" class="edge">
<title>Seq&#45;&gt;Sequence</title>
<path fill="none" stroke="#6666ff" d="M347.33,-106.19C354.69,-115.07 364.16,-126.5 372.54,-136.61"/>
<polygon fill="#6666ff" stroke="#6666ff" points="369.89,-138.9 378.97,-144.37 375.28,-134.44 369.89,-138.9"/>
</g>
<!-- Numeric -->
<g id="node14" class="node">
<title>Numeric</title>
<g id="a_node14"><a xlink:href="/type/Numeric" xlink:title="Numeric">
<ellipse fill="none" stroke="#6666ff" cx="1180.75" cy="-234" rx="44.39" ry="18"/>
<text text-anchor="middle" x="1180.75" y="-230.3" font-family="FreeSans" font-size="14.00" fill="#6666ff">Numeric</text>
</a>
</g>
</g>
<!-- Real -->
<g id="node15" class="node">
<title>Real</title>
<g id="a_node15"><a xlink:href="/type/Real" xlink:title="Real">
<ellipse fill="none" stroke="#6666ff" cx="1090.75" cy="-162" rx="28.7" ry="18"/>
<text text-anchor="middle" x="1090.75" y="-158.3" font-family="FreeSans" font-size="14.00" fill="#6666ff">Real</text>
</a>
</g>
</g>
<!-- Real&#45;&gt;Numeric -->
<g id="edge29" class="edge">
<title>Real&#45;&gt;Numeric</title>
<path fill="none" stroke="#6666ff" d="M1108.1,-176.5C1120.82,-186.39 1138.36,-200.04 1153.02,-211.44"/>
<polygon fill="#6666ff" stroke="#6666ff" points="1151.22,-214.47 1161.26,-217.84 1155.51,-208.94 1151.22,-214.47"/>
</g>
<!-- Instant -->
<g id="node16" class="node">
<title>Instant</title>
<g id="a_node16"><a xlink:href="/type/Instant" xlink:title="Instant">
<ellipse fill="none" stroke="#000000" cx="888.75" cy="-90" rx="37.09" ry="18"/>
<text text-anchor="middle" x="888.75" y="-86.3" font-family="FreeSans" font-size="14.00" fill="#000000">Instant</text>
</a>
</g>
</g>
<!-- Instant&#45;&gt;Cool -->
<g id="edge7" class="edge">
<title>Instant&#45;&gt;Cool</title>
<path fill="none" stroke="#000000" d="M859.08,-100.89C847.86,-104.63 837.75,-108 837.75,-108 837.75,-108 749.47,-134.89 698.67,-150.36"/>
<polygon fill="#000000" stroke="#000000" points="697.59,-147.03 689.05,-153.29 699.63,-153.73 697.59,-147.03"/>
</g>
<!-- Instant&#45;&gt;Real -->
<g id="edge30" class="edge">
<title>Instant&#45;&gt;Real</title>
<path fill="none" stroke="#6666ff" d="M917.36,-101.57C926.71,-105.03 934.75,-108 934.75,-108 934.75,-108 1010.51,-133.74 1056.44,-149.35"/>
<polygon fill="#6666ff" stroke="#6666ff" points="1055.43,-152.7 1066.03,-152.6 1057.68,-146.07 1055.43,-152.7"/>
</g>
<!-- Int -->
<g id="node17" class="node">
<title>Int</title>
<g id="a_node17"><a xlink:href="/type/Int" xlink:title="Int">
<ellipse fill="none" stroke="#000000" cx="970.75" cy="-90" rx="27" ry="18"/>
<text text-anchor="middle" x="970.75" y="-86.3" font-family="FreeSans" font-size="14.00" fill="#000000">Int</text>
</a>
</g>
</g>
<!-- Int&#45;&gt;Cool -->
<g id="edge8" class="edge">
<title>Int&#45;&gt;Cool</title>
<path fill="none" stroke="#000000" d="M949.39,-101.09C941.64,-104.75 934.75,-108 934.75,-108 934.75,-108 774.68,-139.3 700.58,-153.8"/>
<polygon fill="#000000" stroke="#000000" points="699.86,-150.37 690.72,-155.72 701.21,-157.24 699.86,-150.37"/>
</g>
<!-- Int&#45;&gt;Real -->
<g id="edge31" class="edge">
<title>Int&#45;&gt;Real</title>
<path fill="none" stroke="#6666ff" d="M990.56,-102.56C1009.9,-113.84 1039.55,-131.13 1061.58,-143.98"/>
<polygon fill="#6666ff" stroke="#6666ff" points="1060.1,-147.17 1070.5,-149.19 1063.63,-141.13 1060.1,-147.17"/>
</g>
<!-- Complex -->
<g id="node18" class="node">
<title>Complex</title>
<g id="a_node18"><a xlink:href="/type/Complex" xlink:title="Complex">
<ellipse fill="none" stroke="#000000" cx="1348.75" cy="-90" rx="45.49" ry="18"/>
<text text-anchor="middle" x="1348.75" y="-86.3" font-family="FreeSans" font-size="14.00" fill="#000000">Complex</text>
</a>
</g>
</g>
<!-- Complex&#45;&gt;Cool -->
<g id="edge9" class="edge">
<title>Complex&#45;&gt;Cool</title>
<path fill="none" stroke="#000000" d="M1314.24,-101.86C1303.66,-105.19 1294.75,-108 1294.75,-108 1294.75,-108 838.93,-146.29 702.11,-157.78"/>
<polygon fill="#000000" stroke="#000000" points="701.76,-154.29 692.08,-158.62 702.34,-161.27 701.76,-154.29"/>
</g>
<!-- Complex&#45;&gt;Numeric -->
<g id="edge32" class="edge">
<title>Complex&#45;&gt;Numeric</title>
<path fill="none" stroke="#6666ff" d="M1330.12,-106.74C1300.15,-132.08 1241.11,-181.98 1206.91,-210.88"/>
<polygon fill="#6666ff" stroke="#6666ff" points="1204.57,-208.28 1199.19,-217.41 1209.09,-213.62 1204.57,-208.28"/>
</g>
<!-- Num -->
<g id="node19" class="node">
<title>Num</title>
<g id="a_node19"><a xlink:href="/type/Num" xlink:title="Num">
<ellipse fill="none" stroke="#000000" cx="1045.75" cy="-90" rx="29.8" ry="18"/>
<text text-anchor="middle" x="1045.75" y="-86.3" font-family="FreeSans" font-size="14.00" fill="#000000">Num</text>
</a>
</g>
</g>
<!-- Num&#45;&gt;Cool -->
<g id="edge10" class="edge">
<title>Num&#45;&gt;Cool</title>
<path fill="none" stroke="#000000" d="M1022.16,-101.28C1013.95,-104.86 1006.75,-108 1006.75,-108 1006.75,-108 790.12,-141.47 701.18,-155.22"/>
<polygon fill="#000000" stroke="#000000" points="700.58,-151.77 691.23,-156.75 701.65,-158.68 700.58,-151.77"/>
</g>
<!-- Num&#45;&gt;Real -->
<g id="edge33" class="edge">
<title>Num&#45;&gt;Real</title>
<path fill="none" stroke="#6666ff" d="M1056.18,-107.24C1061.75,-115.89 1068.71,-126.73 1074.93,-136.4"/>
<polygon fill="#6666ff" stroke="#6666ff" points="1072.01,-138.33 1080.37,-144.85 1077.9,-134.55 1072.01,-138.33"/>
</g>
<!-- Stringy -->
<g id="node20" class="node">
<title>Stringy</title>
<g id="a_node20"><a xlink:href="/type/Stringy" xlink:title="Stringy">
<ellipse fill="none" stroke="#6666ff" cx="1438.75" cy="-162" rx="38.19" ry="18"/>
<text text-anchor="middle" x="1438.75" y="-158.3" font-family="FreeSans" font-size="14.00" fill="#6666ff">Stringy</text>
</a>
</g>
</g>
<!-- Str -->
<g id="node21" class="node">
<title>Str</title>
<g id="a_node21"><a xlink:href="/type/Str" xlink:title="Str">
<ellipse fill="none" stroke="#000000" cx="1438.75" cy="-90" rx="27" ry="18"/>
<text text-anchor="middle" x="1438.75" y="-86.3" font-family="FreeSans" font-size="14.00" fill="#000000">Str</text>
</a>
</g>
</g>
<!-- Str&#45;&gt;Cool -->
<g id="edge11" class="edge">
<title>Str&#45;&gt;Cool</title>
<path fill="none" stroke="#000000" d="M1417.39,-101.09C1409.64,-104.75 1402.75,-108 1402.75,-108 1402.75,-108 854.7,-147.31 702.52,-158.22"/>
<polygon fill="#000000" stroke="#000000" points="701.99,-154.75 692.26,-158.95 702.49,-161.73 701.99,-154.75"/>
</g>
<!-- Str&#45;&gt;Stringy -->
<g id="edge34" class="edge">
<title>Str&#45;&gt;Stringy</title>
<path fill="none" stroke="#6666ff" d="M1438.75,-108.3C1438.75,-116.02 1438.75,-125.29 1438.75,-133.89"/>
<polygon fill="#6666ff" stroke="#6666ff" points="1435.25,-133.9 1438.75,-143.9 1442.25,-133.9 1435.25,-133.9"/>
</g>
<!-- List -->
<g id="node22" class="node">
<title>List</title>
<g id="a_node22"><a xlink:href="/type/List" xlink:title="List">
<ellipse fill="none" stroke="#000000" cx="81.75" cy="-90" rx="27" ry="18"/>
<text text-anchor="middle" x="81.75" y="-86.3" font-family="FreeSans" font-size="14.00" fill="#000000">List</text>
</a>
</g>
</g>
<!-- List&#45;&gt;Cool -->
<g id="edge12" class="edge">
<title>List&#45;&gt;Cool</title>
<path fill="none" stroke="#000000" d="M103.1,-101.09C110.86,-104.75 117.75,-108 117.75,-108 117.75,-108 625.75,-144 625.75,-144 625.75,-144 628.18,-145.09 631.81,-146.71"/>
<polygon fill="#000000" stroke="#000000" points="630.64,-150.03 641.2,-150.91 633.5,-143.64 630.64,-150.03"/>
</g>
<!-- List&#45;&gt;Iterable -->
<g id="edge36" class="edge">
<title>List&#45;&gt;Iterable</title>
<path fill="none" stroke="#6666ff" d="M96.72,-105.17C106.74,-114.64 120.15,-127.33 131.65,-138.21"/>
<polygon fill="#6666ff" stroke="#6666ff" points="129.58,-141.06 139.25,-145.39 134.39,-135.98 129.58,-141.06"/>
</g>
<!-- List&#45;&gt;Positional -->
<g id="edge35" class="edge">
<title>List&#45;&gt;Positional</title>
<path fill="none" stroke="#6666ff" d="M73.93,-107.59C70.08,-115.75 65.35,-125.78 61.03,-134.93"/>
<polygon fill="#6666ff" stroke="#6666ff" points="57.84,-133.51 56.74,-144.04 64.17,-136.49 57.84,-133.51"/>
</g>
<!-- Duration -->
<g id="node23" class="node">
<title>Duration</title>
<g id="a_node23"><a xlink:href="/type/Duration" xlink:title="Duration">
<ellipse fill="none" stroke="#000000" cx="1137.75" cy="-90" rx="44.39" ry="18"/>
<text text-anchor="middle" x="1137.75" y="-86.3" font-family="FreeSans" font-size="14.00" fill="#000000">Duration</text>
</a>
</g>
</g>
<!-- Duration&#45;&gt;Cool -->
<g id="edge13" class="edge">
<title>Duration&#45;&gt;Cool</title>
<path fill="none" stroke="#000000" d="M1104.18,-101.77C1093.66,-105.14 1084.75,-108 1084.75,-108 1084.75,-108 805.25,-143.19 701.72,-156.22"/>
<polygon fill="#000000" stroke="#000000" points="701.18,-152.76 691.69,-157.48 702.05,-159.7 701.18,-152.76"/>
</g>
<!-- Duration&#45;&gt;Real -->
<g id="edge37" class="edge">
<title>Duration&#45;&gt;Real</title>
<path fill="none" stroke="#6666ff" d="M1126.61,-107.59C1120.79,-116.26 1113.55,-127.03 1107.11,-136.62"/>
<polygon fill="#6666ff" stroke="#6666ff" points="1104.15,-134.76 1101.48,-145.01 1109.96,-138.66 1104.15,-134.76"/>
</g>
<!-- Nil -->
<g id="node24" class="node">
<title>Nil</title>
<g id="a_node24"><a xlink:href="/type/Nil" xlink:title="Nil">
<ellipse fill="none" stroke="#000000" cx="600.75" cy="-90" rx="27" ry="18"/>
<text text-anchor="middle" x="600.75" y="-86.3" font-family="FreeSans" font-size="14.00" fill="#000000">Nil</text>
</a>
</g>
</g>
<!-- Nil&#45;&gt;Cool -->
<g id="edge14" class="edge">
<title>Nil&#45;&gt;Cool</title>
<path fill="none" stroke="#000000" d="M614.11,-105.85C622.51,-115.18 633.53,-127.43 643.05,-138"/>
<polygon fill="#000000" stroke="#000000" points="640.68,-140.6 649.97,-145.69 645.88,-135.92 640.68,-140.6"/>
</g>
<!-- Capture -->
<g id="node25" class="node">
<title>Capture</title>
<g id="a_node25"><a xlink:href="/type/Capture" xlink:title="Capture">
<ellipse fill="none" stroke="#000000" cx="502.75" cy="-162" rx="42.49" ry="18"/>
<text text-anchor="middle" x="502.75" y="-158.3" font-family="FreeSans" font-size="14.00" fill="#000000">Capture</text>
</a>
</g>
</g>
<!-- Capture&#45;&gt;Any -->
<g id="edge15" class="edge">
<title>Capture&#45;&gt;Any</title>
<path fill="none" stroke="#000000" d="M523.32,-177.85C538.05,-188.48 558,-202.87 573.82,-214.29"/>
<polygon fill="#000000" stroke="#000000" points="571.97,-217.27 582.13,-220.29 576.07,-211.6 571.97,-217.27"/>
</g>
<!-- Match -->
<g id="node26" class="node">
<title>Match</title>
<g id="a_node26"><a xlink:href="/type/Match" xlink:title="Match">
<ellipse fill="none" stroke="#000000" cx="414.75" cy="-90" rx="35.19" ry="18"/>
<text text-anchor="middle" x="414.75" y="-86.3" font-family="FreeSans" font-size="14.00" fill="#000000">Match</text>
</a>
</g>
</g>
<!-- Match&#45;&gt;Cool -->
<g id="edge17" class="edge">
<title>Match&#45;&gt;Cool</title>
<path fill="none" stroke="#000000" d="M441.86,-101.48C450.91,-104.97 458.75,-108 458.75,-108 458.75,-108 625.75,-144 625.75,-144 625.75,-144 628.18,-145.09 631.81,-146.71"/>
<polygon fill="#000000" stroke="#000000" points="630.64,-150.03 641.2,-150.91 633.5,-143.64 630.64,-150.03"/>
</g>
<!-- Match&#45;&gt;Capture -->
<g id="edge16" class="edge">
<title>Match&#45;&gt;Capture</title>
<path fill="none" stroke="#000000" d="M432.98,-105.5C445.24,-115.25 461.61,-128.28 475.42,-139.26"/>
<polygon fill="#000000" stroke="#000000" points="473.62,-142.3 483.62,-145.79 477.97,-136.82 473.62,-142.3"/>
</g>
<!-- Rational -->
<g id="node27" class="node">
<title>Rational</title>
<g id="a_node27"><a xlink:href="/type/Rational" xlink:title="Rational">
<ellipse fill="none" stroke="#6666ff" cx="1242.75" cy="-90" rx="42.79" ry="18"/>
<text text-anchor="middle" x="1242.75" y="-86.3" font-family="FreeSans" font-size="14.00" fill="#6666ff">Rational</text>
</a>
</g>
</g>
<!-- Rational&#45;&gt;Real -->
<g id="edge38" class="edge">
<title>Rational&#45;&gt;Real</title>
<path fill="none" stroke="#6666ff" d="M1214.87,-103.84C1188.8,-115.84 1149.9,-133.76 1122.62,-146.32"/>
<polygon fill="#6666ff" stroke="#6666ff" points="1121.11,-143.16 1113.49,-150.53 1124.04,-149.52 1121.11,-143.16"/>
</g>
<!-- FatRat -->
<g id="node28" class="node">
<title>FatRat</title>
<g id="a_node28"><a xlink:href="/type/FatRat" xlink:title="FatRat">
<ellipse fill="none" stroke="#000000" cx="907.75" cy="-18" rx="37.09" ry="18"/>
<text text-anchor="middle" x="907.75" y="-14.3" font-family="FreeSans" font-size="14.00" fill="#000000">FatRat</text>
</a>
</g>
</g>
<!-- FatRat&#45;&gt;Cool -->
<g id="edge18" class="edge">
<title>FatRat&#45;&gt;Cool</title>
<path fill="none" stroke="#000000" d="M874.86,-26.48C810.63,-41.09 674.75,-72 674.75,-72 674.75,-72 670.36,-107.52 667.12,-133.68"/>
<polygon fill="#000000" stroke="#000000" points="663.62,-133.49 665.87,-143.84 670.57,-134.34 663.62,-133.49"/>
</g>
<!-- FatRat&#45;&gt;Rational -->
<g id="edge39" class="edge">
<title>FatRat&#45;&gt;Rational</title>
<path fill="none" stroke="#6666ff" d="M941.65,-25.48C966.8,-30.28 996.75,-36 996.75,-36 996.75,-36 1190.75,-72 1190.75,-72 1190.75,-72 1194.51,-73.23 1200.02,-75.03"/>
<polygon fill="#6666ff" stroke="#6666ff" points="1199.22,-78.45 1209.81,-78.23 1201.4,-71.8 1199.22,-78.45"/>
</g>
<!-- Rat -->
<g id="node29" class="node">
<title>Rat</title>
<g id="a_node29"><a xlink:href="/type/Rat" xlink:title="Rat">
<ellipse fill="none" stroke="#000000" cx="1032.75" cy="-18" rx="27" ry="18"/>
<text text-anchor="middle" x="1032.75" y="-14.3" font-family="FreeSans" font-size="14.00" fill="#000000">Rat</text>
</a>
</g>
</g>
<!-- Rat&#45;&gt;Cool -->
<g id="edge19" class="edge">
<title>Rat&#45;&gt;Cool</title>
<path fill="none" stroke="#000000" d="M1008.3,-25.82C956.98,-40.13 842.75,-72 842.75,-72 842.75,-72 804.75,-108 804.75,-108 804.75,-108 738.88,-132.76 697.18,-148.43"/>
<polygon fill="#000000" stroke="#000000" points="695.79,-145.21 687.66,-152.01 698.26,-151.77 695.79,-145.21"/>
</g>
<!-- Rat&#45;&gt;Rational -->
<g id="edge40" class="edge">
<title>Rat&#45;&gt;Rational</title>
<path fill="none" stroke="#6666ff" d="M1056.43,-26.89C1091.36,-38.54 1157.22,-60.49 1200.54,-74.93"/>
<polygon fill="#6666ff" stroke="#6666ff" points="1199.64,-78.32 1210.23,-78.16 1201.85,-71.68 1199.64,-78.32"/>
</g>
<!-- StrDistance -->
<g id="node30" class="node">
<title>StrDistance</title>
<g id="a_node30"><a xlink:href="/type/StrDistance" xlink:title="StrDistance">
<ellipse fill="none" stroke="#000000" cx="739.75" cy="-90" rx="55.79" ry="18"/>
<text text-anchor="middle" x="739.75" y="-86.3" font-family="FreeSans" font-size="14.00" fill="#000000">StrDistance</text>
</a>
</g>
</g>
<!-- StrDistance&#45;&gt;Cool -->
<g id="edge20" class="edge">
<title>StrDistance&#45;&gt;Cool</title>
<path fill="none" stroke="#000000" d="M722.12,-107.24C711.57,-116.95 698.05,-129.4 686.68,-139.87"/>
<polygon fill="#000000" stroke="#000000" points="684.2,-137.4 679.22,-146.75 688.94,-142.55 684.2,-137.4"/>
</g>
</g>
</svg>
