<?xml version="1.0" encoding="UTF-8" standalone="no"?>
<!DOCTYPE svg PUBLIC "-//W3C//DTD SVG 1.1//EN"
 "http://www.w3.org/Graphics/SVG/1.1/DTD/svg11.dtd">
<!-- Generated by graphviz version 2.43.0 (0)
 -->
<!-- Title: perl6&#45;type&#45;graph Pages: 1 -->
<svg width="329pt" height="404pt"
 viewBox="0.00 0.00 329.07 404.00" xmlns="http://www.w3.org/2000/svg" xmlns:xlink="http://www.w3.org/1999/xlink">
<g id="graph0" class="graph" transform="scale(1 1) rotate(0) translate(4 400)">
<title>perl6&#45;type&#45;graph</title>
<polygon fill="#ffffff" stroke="transparent" points="-4,4 -4,-400 325.07,-400 325.07,4 -4,4"/>
<!-- X::Backslash::UnrecognizedSequence -->
<g id="node1" class="node">
<title>X::Backslash::UnrecognizedSequence</title>
<g id="a_node1"><a xlink:href="/type/X::Backslash::UnrecognizedSequence" xlink:title="X::Backslash::UnrecognizedSequence">
<ellipse fill="none" stroke="#000000" cx="160.54" cy="-18" rx="160.57" ry="18"/>
<text text-anchor="middle" x="160.54" y="-14.3" font-family="FreeSans" font-size="14.00" fill="#000000">X::Backslash::UnrecognizedSequence</text>
</a>
</g>
</g>
<!-- Exception -->
<g id="node4" class="node">
<title>Exception</title>
<g id="a_node4"><a xlink:href="/type/Exception" xlink:title="Exception">
<ellipse fill="none" stroke="#000000" cx="160.54" cy="-234" rx="49.29" ry="18"/>
<text text-anchor="middle" x="160.54" y="-230.3" font-family="FreeSans" font-size="14.00" fill="#000000">Exception</text>
</a>
</g>
</g>
<!-- X::Backslash::UnrecognizedSequence&#45;&gt;Exception -->
<g id="edge1" class="edge">
<title>X::Backslash::UnrecognizedSequence&#45;&gt;Exception</title>
<path fill="none" stroke="#000000" d="M154.42,-36.06C148.87,-51.55 141.54,-72 141.54,-72 141.54,-72 141.54,-108 141.54,-108 141.54,-108 150.81,-169.01 156.4,-205.78"/>
<polygon fill="#000000" stroke="#000000" points="152.97,-206.52 157.93,-215.88 159.89,-205.47 152.97,-206.52"/>
</g>
<!-- X::Syntax -->
<g id="node6" class="node">
<title>X::Syntax</title>
<g id="a_node6"><a xlink:href="/type/X::Syntax" xlink:title="X::Syntax">
<ellipse fill="none" stroke="#6666ff" cx="198.54" cy="-90" rx="48.19" ry="18"/>
<text text-anchor="middle" x="198.54" y="-86.3" font-family="FreeSans" font-size="14.00" fill="#6666ff">X::Syntax</text>
</a>
</g>
</g>
<!-- X::Backslash::UnrecognizedSequence&#45;&gt;X::Syntax -->
<g id="edge6" class="edge">
<title>X::Backslash::UnrecognizedSequence&#45;&gt;X::Syntax</title>
<path fill="none" stroke="#6666ff" d="M169.93,-36.3C174.3,-44.36 179.59,-54.11 184.43,-63.02"/>
<polygon fill="#6666ff" stroke="#6666ff" points="181.4,-64.78 189.25,-71.9 187.56,-61.44 181.4,-64.78"/>
</g>
<!-- Mu -->
<g id="node2" class="node">
<title>Mu</title>
<g id="a_node2"><a xlink:href="/type/Mu" xlink:title="Mu">
<ellipse fill="none" stroke="#000000" cx="160.54" cy="-378" rx="27" ry="18"/>
<text text-anchor="middle" x="160.54" y="-374.3" font-family="FreeSans" font-size="14.00" fill="#000000">Mu</text>
</a>
</g>
</g>
<!-- Any -->
<g id="node3" class="node">
<title>Any</title>
<g id="a_node3"><a xlink:href="/type/Any" xlink:title="Any">
<ellipse fill="none" stroke="#000000" cx="160.54" cy="-306" rx="27" ry="18"/>
<text text-anchor="middle" x="160.54" y="-302.3" font-family="FreeSans" font-size="14.00" fill="#000000">Any</text>
</a>
</g>
</g>
<!-- Any&#45;&gt;Mu -->
<g id="edge2" class="edge">
<title>Any&#45;&gt;Mu</title>
<path fill="none" stroke="#000000" d="M160.54,-324.3C160.54,-332.02 160.54,-341.29 160.54,-349.89"/>
<polygon fill="#000000" stroke="#000000" points="157.04,-349.9 160.54,-359.9 164.04,-349.9 157.04,-349.9"/>
</g>
<!-- Exception&#45;&gt;Any -->
<g id="edge3" class="edge">
<title>Exception&#45;&gt;Any</title>
<path fill="none" stroke="#000000" d="M160.54,-252.3C160.54,-260.02 160.54,-269.29 160.54,-277.89"/>
<polygon fill="#000000" stroke="#000000" points="157.04,-277.9 160.54,-287.9 164.04,-277.9 157.04,-277.9"/>
</g>
<!-- X::Comp -->
<g id="node5" class="node">
<title>X::Comp</title>
<g id="a_node5"><a xlink:href="/type/X::Comp" xlink:title="X::Comp">
<ellipse fill="none" stroke="#6666ff" cx="233.54" cy="-162" rx="44.69" ry="18"/>
<text text-anchor="middle" x="233.54" y="-158.3" font-family="FreeSans" font-size="14.00" fill="#6666ff">X::Comp</text>
</a>
</g>
</g>
<!-- X::Comp&#45;&gt;Exception -->
<g id="edge4" class="edge">
<title>X::Comp&#45;&gt;Exception</title>
<path fill="none" stroke="#000000" d="M216.97,-178.88C207.43,-188.04 195.26,-199.71 184.66,-209.87"/>
<polygon fill="#000000" stroke="#000000" points="182.08,-207.49 177.29,-216.94 186.93,-212.54 182.08,-207.49"/>
</g>
<!-- X::Syntax&#45;&gt;Exception -->
<g id="edge5" class="edge">
<title>X::Syntax&#45;&gt;Exception</title>
<path fill="none" stroke="#000000" d="M192.42,-108.06C186.87,-123.55 179.54,-144 179.54,-144 179.54,-144 171.89,-179.83 166.29,-206.03"/>
<polygon fill="#000000" stroke="#000000" points="162.86,-205.33 164.2,-215.84 169.71,-206.79 162.86,-205.33"/>
</g>
<!-- X::Syntax&#45;&gt;X::Comp -->
<g id="edge7" class="edge">
<title>X::Syntax&#45;&gt;X::Comp</title>
<path fill="none" stroke="#6666ff" d="M207.01,-107.95C211.09,-116.11 216.08,-126.09 220.62,-135.18"/>
<polygon fill="#6666ff" stroke="#6666ff" points="217.54,-136.83 225.14,-144.21 223.8,-133.7 217.54,-136.83"/>
</g>
</g>
</svg>
