<?xml version="1.0" encoding="UTF-8" standalone="no"?>
<!DOCTYPE svg PUBLIC "-//W3C//DTD SVG 1.1//EN"
 "http://www.w3.org/Graphics/SVG/1.1/DTD/svg11.dtd">
<!-- Generated by graphviz version 2.43.0 (0)
 -->
<!-- Title: perl6&#45;type&#45;graph Pages: 1 -->
<svg width="810pt" height="476pt"
 viewBox="0.00 0.00 810.00 476.00" xmlns="http://www.w3.org/2000/svg" xmlns:xlink="http://www.w3.org/1999/xlink">
<g id="graph0" class="graph" transform="scale(1 1) rotate(0) translate(4 472)">
<title>perl6&#45;type&#45;graph</title>
<polygon fill="white" stroke="transparent" points="-4,4 -4,-472 806,-472 806,4 -4,4"/>
<!-- Associative -->
<g id="node1" class="node">
<title>Associative</title>
<g id="a_node1"><a xlink:href="/type/Associative" xlink:title="Associative">
<ellipse fill="none" stroke="#6666ff" cx="294" cy="-450" rx="55.49" ry="18"/>
<text text-anchor="middle" x="294" y="-446.3" font-family="FreeSans" font-size="14.00" fill="#6666ff">Associative</text>
</a>
</g>
</g>
<!-- QuantHash -->
<g id="node2" class="node">
<title>QuantHash</title>
<g id="a_node2"><a xlink:href="/type/QuantHash" xlink:title="QuantHash">
<ellipse fill="none" stroke="#6666ff" cx="426" cy="-378" rx="55.79" ry="18"/>
<text text-anchor="middle" x="426" y="-374.3" font-family="FreeSans" font-size="14.00" fill="#6666ff">QuantHash</text>
</a>
</g>
</g>
<!-- QuantHash&#45;&gt;Associative -->
<g id="edge14" class="edge">
<title>QuantHash&#45;&gt;Associative</title>
<path fill="none" stroke="#6666ff" d="M398.33,-393.67C378.62,-404.13 351.92,-418.28 330.47,-429.66"/>
<polygon fill="#6666ff" stroke="#6666ff" points="328.83,-426.57 321.64,-434.35 332.11,-432.75 328.83,-426.57"/>
</g>
<!-- Mu -->
<g id="node3" class="node">
<title>Mu</title>
<g id="a_node3"><a xlink:href="/type/Mu" xlink:title="Mu">
<ellipse fill="none" stroke="#000000" cx="325" cy="-378" rx="27" ry="18"/>
<text text-anchor="middle" x="325" y="-374.3" font-family="FreeSans" font-size="14.00" fill="#000000">Mu</text>
</a>
</g>
</g>
<!-- Any -->
<g id="node4" class="node">
<title>Any</title>
<g id="a_node4"><a xlink:href="/type/Any" xlink:title="Any">
<ellipse fill="none" stroke="#000000" cx="418" cy="-306" rx="27" ry="18"/>
<text text-anchor="middle" x="418" y="-302.3" font-family="FreeSans" font-size="14.00" fill="#000000">Any</text>
</a>
</g>
</g>
<!-- Any&#45;&gt;Mu -->
<g id="edge1" class="edge">
<title>Any&#45;&gt;Mu</title>
<path fill="none" stroke="#000000" d="M400.51,-320.17C386.48,-330.73 366.58,-345.7 350.74,-357.63"/>
<polygon fill="#000000" stroke="#000000" points="348.3,-355.08 342.41,-363.89 352.51,-360.68 348.3,-355.08"/>
</g>
<!-- Cool -->
<g id="node5" class="node">
<title>Cool</title>
<g id="a_node5"><a xlink:href="/type/Cool" xlink:title="Cool">
<ellipse fill="none" stroke="#000000" cx="468" cy="-234" rx="28.7" ry="18"/>
<text text-anchor="middle" x="468" y="-230.3" font-family="FreeSans" font-size="14.00" fill="#000000">Cool</text>
</a>
</g>
</g>
<!-- Cool&#45;&gt;Any -->
<g id="edge2" class="edge">
<title>Cool&#45;&gt;Any</title>
<path fill="none" stroke="#000000" d="M456.65,-250.88C450.33,-259.74 442.31,-270.96 435.23,-280.88"/>
<polygon fill="#000000" stroke="#000000" points="432.27,-279.01 429.3,-289.18 437.96,-283.08 432.27,-279.01"/>
</g>
<!-- Iterable -->
<g id="node6" class="node">
<title>Iterable</title>
<g id="a_node6"><a xlink:href="/type/Iterable" xlink:title="Iterable">
<ellipse fill="none" stroke="#6666ff" cx="198" cy="-234" rx="40.09" ry="18"/>
<text text-anchor="middle" x="198" y="-230.3" font-family="FreeSans" font-size="14.00" fill="#6666ff">Iterable</text>
</a>
</g>
</g>
<!-- Map -->
<g id="node7" class="node">
<title>Map</title>
<g id="a_node7"><a xlink:href="/type/Map" xlink:title="Map">
<ellipse fill="none" stroke="#000000" cx="198" cy="-162" rx="28.7" ry="18"/>
<text text-anchor="middle" x="198" y="-158.3" font-family="FreeSans" font-size="14.00" fill="#000000">Map</text>
</a>
</g>
</g>
<!-- Map&#45;&gt;Associative -->
<g id="edge16" class="edge">
<title>Map&#45;&gt;Associative</title>
<path fill="none" stroke="#6666ff" d="M172.11,-169.93C118.44,-184.3 0,-216 0,-216 0,-216 0,-252 0,-252 0,-252 184,-396 184,-396 184,-396 223.48,-415.02 255.13,-430.27"/>
<polygon fill="#6666ff" stroke="#6666ff" points="253.7,-433.47 264.23,-434.66 256.74,-427.16 253.7,-433.47"/>
</g>
<!-- Map&#45;&gt;Cool -->
<g id="edge3" class="edge">
<title>Map&#45;&gt;Cool</title>
<path fill="none" stroke="#000000" d="M224.73,-169.08C285.93,-183 431,-216 431,-216 431,-216 433.16,-216.99 436.44,-218.5"/>
<polygon fill="#000000" stroke="#000000" points="435.08,-221.72 445.62,-222.72 438,-215.36 435.08,-221.72"/>
</g>
<!-- Map&#45;&gt;Iterable -->
<g id="edge15" class="edge">
<title>Map&#45;&gt;Iterable</title>
<path fill="none" stroke="#6666ff" d="M198,-180.3C198,-188.02 198,-197.29 198,-205.89"/>
<polygon fill="#6666ff" stroke="#6666ff" points="194.5,-205.9 198,-215.9 201.5,-205.9 194.5,-205.9"/>
</g>
<!-- Telemetry -->
<g id="node8" class="node">
<title>Telemetry</title>
<g id="a_node8"><a xlink:href="/type/Telemetry" xlink:title="Telemetry">
<ellipse fill="none" stroke="#000000" cx="565" cy="-234" rx="50.09" ry="18"/>
<text text-anchor="middle" x="565" y="-230.3" font-family="FreeSans" font-size="14.00" fill="#000000">Telemetry</text>
</a>
</g>
</g>
<!-- Telemetry&#45;&gt;Any -->
<g id="edge4" class="edge">
<title>Telemetry&#45;&gt;Any</title>
<path fill="none" stroke="#000000" d="M535.96,-248.83C510.73,-260.84 474.31,-278.18 448.63,-290.41"/>
<polygon fill="#000000" stroke="#000000" points="446.88,-287.37 439.36,-294.83 449.89,-293.69 446.88,-287.37"/>
</g>
<!-- Telemetry::Period -->
<g id="node9" class="node">
<title>Telemetry::Period</title>
<g id="a_node9"><a xlink:href="/type/Telemetry::Period" xlink:title="Telemetry::Period">
<ellipse fill="none" stroke="#000000" cx="693" cy="-162" rx="80.69" ry="18"/>
<text text-anchor="middle" x="693" y="-158.3" font-family="FreeSans" font-size="14.00" fill="#000000">Telemetry::Period</text>
</a>
</g>
</g>
<!-- Telemetry::Period&#45;&gt;Associative -->
<g id="edge17" class="edge">
<title>Telemetry::Period&#45;&gt;Associative</title>
<path fill="none" stroke="#6666ff" d="M725.11,-178.62C757.27,-194.25 802,-216 802,-216 802,-216 802,-252 802,-252 802,-252 717,-324 717,-324 717,-324 491,-396 491,-396 491,-396 403.48,-419.55 345.11,-435.25"/>
<polygon fill="#6666ff" stroke="#6666ff" points="344.04,-431.91 335.3,-437.89 345.86,-438.67 344.04,-431.91"/>
</g>
<!-- Telemetry::Period&#45;&gt;Telemetry -->
<g id="edge5" class="edge">
<title>Telemetry::Period&#45;&gt;Telemetry</title>
<path fill="none" stroke="#000000" d="M663.95,-178.88C645.02,-189.24 620.2,-202.81 600.15,-213.78"/>
<polygon fill="#000000" stroke="#000000" points="598.41,-210.74 591.32,-218.61 601.77,-216.88 598.41,-210.74"/>
</g>
<!-- Pair -->
<g id="node10" class="node">
<title>Pair</title>
<g id="a_node10"><a xlink:href="/type/Pair" xlink:title="Pair">
<ellipse fill="none" stroke="#000000" cx="36" cy="-234" rx="27" ry="18"/>
<text text-anchor="middle" x="36" y="-230.3" font-family="FreeSans" font-size="14.00" fill="#000000">Pair</text>
</a>
</g>
</g>
<!-- Pair&#45;&gt;Associative -->
<g id="edge18" class="edge">
<title>Pair&#45;&gt;Associative</title>
<path fill="none" stroke="#6666ff" d="M52.53,-248.71C95.9,-284.69 213.29,-382.06 266.78,-426.43"/>
<polygon fill="#6666ff" stroke="#6666ff" points="264.57,-429.13 274.5,-432.82 269.03,-423.75 264.57,-429.13"/>
</g>
<!-- Pair&#45;&gt;Any -->
<g id="edge6" class="edge">
<title>Pair&#45;&gt;Any</title>
<path fill="none" stroke="#000000" d="M57.36,-245.09C65.11,-248.75 72,-252 72,-252 72,-252 377,-288 377,-288 377,-288 380.88,-289.61 386.25,-291.84"/>
<polygon fill="#000000" stroke="#000000" points="385,-295.11 395.58,-295.7 387.68,-288.64 385,-295.11"/>
</g>
<!-- Hash -->
<g id="node11" class="node">
<title>Hash</title>
<g id="a_node11"><a xlink:href="/type/Hash" xlink:title="Hash">
<ellipse fill="none" stroke="#000000" cx="142" cy="-90" rx="31.4" ry="18"/>
<text text-anchor="middle" x="142" y="-86.3" font-family="FreeSans" font-size="14.00" fill="#000000">Hash</text>
</a>
</g>
</g>
<!-- Hash&#45;&gt;Map -->
<g id="edge7" class="edge">
<title>Hash&#45;&gt;Map</title>
<path fill="none" stroke="#000000" d="M154.43,-106.54C161.75,-115.69 171.16,-127.45 179.35,-137.69"/>
<polygon fill="#000000" stroke="#000000" points="176.63,-139.89 185.61,-145.51 182.09,-135.51 176.63,-139.89"/>
</g>
<!-- PseudoStash -->
<g id="node12" class="node">
<title>PseudoStash</title>
<g id="a_node12"><a xlink:href="/type/PseudoStash" xlink:title="PseudoStash">
<ellipse fill="none" stroke="#000000" cx="254" cy="-90" rx="63.09" ry="18"/>
<text text-anchor="middle" x="254" y="-86.3" font-family="FreeSans" font-size="14.00" fill="#000000">PseudoStash</text>
</a>
</g>
</g>
<!-- PseudoStash&#45;&gt;Map -->
<g id="edge8" class="edge">
<title>PseudoStash&#45;&gt;Map</title>
<path fill="none" stroke="#000000" d="M240.44,-107.95C233.33,-116.83 224.51,-127.86 216.76,-137.55"/>
<polygon fill="#000000" stroke="#000000" points="213.8,-135.65 210.29,-145.64 219.27,-140.02 213.8,-135.65"/>
</g>
<!-- Setty -->
<g id="node13" class="node">
<title>Setty</title>
<g id="a_node13"><a xlink:href="/type/Setty" xlink:title="Setty">
<ellipse fill="none" stroke="#6666ff" cx="677" cy="-306" rx="30.59" ry="18"/>
<text text-anchor="middle" x="677" y="-302.3" font-family="FreeSans" font-size="14.00" fill="#6666ff">Setty</text>
</a>
</g>
</g>
<!-- Setty&#45;&gt;QuantHash -->
<g id="edge19" class="edge">
<title>Setty&#45;&gt;QuantHash</title>
<path fill="none" stroke="#6666ff" d="M649.66,-314.62C608.24,-326.18 528.9,-348.3 476.71,-362.86"/>
<polygon fill="#6666ff" stroke="#6666ff" points="475.67,-359.51 466.98,-365.57 477.55,-366.26 475.67,-359.51"/>
</g>
<!-- Baggy -->
<g id="node14" class="node">
<title>Baggy</title>
<g id="a_node14"><a xlink:href="/type/Baggy" xlink:title="Baggy">
<ellipse fill="none" stroke="#6666ff" cx="332" cy="-306" rx="36" ry="18"/>
<text text-anchor="middle" x="332" y="-302.3" font-family="FreeSans" font-size="14.00" fill="#6666ff">Baggy</text>
</a>
</g>
</g>
<!-- Baggy&#45;&gt;QuantHash -->
<g id="edge20" class="edge">
<title>Baggy&#45;&gt;QuantHash</title>
<path fill="none" stroke="#6666ff" d="M351.48,-321.5C364.51,-331.21 381.91,-344.17 396.62,-355.12"/>
<polygon fill="#6666ff" stroke="#6666ff" points="394.8,-358.13 404.91,-361.3 398.98,-352.52 394.8,-358.13"/>
</g>
<!-- Stash -->
<g id="node15" class="node">
<title>Stash</title>
<g id="a_node15"><a xlink:href="/type/Stash" xlink:title="Stash">
<ellipse fill="none" stroke="#000000" cx="142" cy="-18" rx="33.29" ry="18"/>
<text text-anchor="middle" x="142" y="-14.3" font-family="FreeSans" font-size="14.00" fill="#000000">Stash</text>
</a>
</g>
</g>
<!-- Stash&#45;&gt;Hash -->
<g id="edge9" class="edge">
<title>Stash&#45;&gt;Hash</title>
<path fill="none" stroke="#000000" d="M142,-36.3C142,-44.02 142,-53.29 142,-61.89"/>
<polygon fill="#000000" stroke="#000000" points="138.5,-61.9 142,-71.9 145.5,-61.9 138.5,-61.9"/>
</g>
<!-- SetHash -->
<g id="node16" class="node">
<title>SetHash</title>
<g id="a_node16"><a xlink:href="/type/SetHash" xlink:title="SetHash">
<ellipse fill="none" stroke="#000000" cx="677" cy="-234" rx="44.39" ry="18"/>
<text text-anchor="middle" x="677" y="-230.3" font-family="FreeSans" font-size="14.00" fill="#000000">SetHash</text>
</a>
</g>
</g>
<!-- SetHash&#45;&gt;Any -->
<g id="edge10" class="edge">
<title>SetHash&#45;&gt;Any</title>
<path fill="none" stroke="#000000" d="M643.43,-245.77C632.92,-249.14 624,-252 624,-252 624,-252 511.55,-280.93 452.81,-296.04"/>
<polygon fill="#000000" stroke="#000000" points="451.66,-292.73 442.85,-298.61 453.41,-299.5 451.66,-292.73"/>
</g>
<!-- SetHash&#45;&gt;Setty -->
<g id="edge21" class="edge">
<title>SetHash&#45;&gt;Setty</title>
<path fill="none" stroke="#6666ff" d="M677,-252.3C677,-260.02 677,-269.29 677,-277.89"/>
<polygon fill="#6666ff" stroke="#6666ff" points="673.5,-277.9 677,-287.9 680.5,-277.9 673.5,-277.9"/>
</g>
<!-- Set -->
<g id="node17" class="node">
<title>Set</title>
<g id="a_node17"><a xlink:href="/type/Set" xlink:title="Set">
<ellipse fill="none" stroke="#000000" cx="766" cy="-234" rx="27" ry="18"/>
<text text-anchor="middle" x="766" y="-230.3" font-family="FreeSans" font-size="14.00" fill="#000000">Set</text>
</a>
</g>
</g>
<!-- Set&#45;&gt;Any -->
<g id="edge11" class="edge">
<title>Set&#45;&gt;Any</title>
<path fill="none" stroke="#000000" d="M744.64,-245.09C736.89,-248.75 730,-252 730,-252 730,-252 535.54,-285.03 453.66,-298.94"/>
<polygon fill="#000000" stroke="#000000" points="453.07,-295.49 443.8,-300.62 454.24,-302.39 453.07,-295.49"/>
</g>
<!-- Set&#45;&gt;Setty -->
<g id="edge22" class="edge">
<title>Set&#45;&gt;Setty</title>
<path fill="none" stroke="#6666ff" d="M749.26,-248.17C736.09,-258.53 717.52,-273.13 702.5,-284.94"/>
<polygon fill="#6666ff" stroke="#6666ff" points="700.27,-282.24 694.58,-291.17 704.6,-287.74 700.27,-282.24"/>
</g>
<!-- Mixy -->
<g id="node18" class="node">
<title>Mixy</title>
<g id="a_node18"><a xlink:href="/type/Mixy" xlink:title="Mixy">
<ellipse fill="none" stroke="#6666ff" cx="110" cy="-234" rx="29.5" ry="18"/>
<text text-anchor="middle" x="110" y="-230.3" font-family="FreeSans" font-size="14.00" fill="#6666ff">Mixy</text>
</a>
</g>
</g>
<!-- Mixy&#45;&gt;Baggy -->
<g id="edge23" class="edge">
<title>Mixy&#45;&gt;Baggy</title>
<path fill="none" stroke="#6666ff" d="M133.14,-245.09C141.54,-248.75 149,-252 149,-252 149,-252 238.34,-277.87 292.17,-293.47"/>
<polygon fill="#6666ff" stroke="#6666ff" points="291.2,-296.83 301.78,-296.25 293.15,-290.1 291.2,-296.83"/>
</g>
<!-- BagHash -->
<g id="node19" class="node">
<title>BagHash</title>
<g id="a_node19"><a xlink:href="/type/BagHash" xlink:title="BagHash">
<ellipse fill="none" stroke="#000000" cx="375" cy="-234" rx="46.59" ry="18"/>
<text text-anchor="middle" x="375" y="-230.3" font-family="FreeSans" font-size="14.00" fill="#000000">BagHash</text>
</a>
</g>
</g>
<!-- BagHash&#45;&gt;Any -->
<g id="edge12" class="edge">
<title>BagHash&#45;&gt;Any</title>
<path fill="none" stroke="#000000" d="M385.19,-251.59C390.46,-260.17 397,-270.81 402.85,-280.33"/>
<polygon fill="#000000" stroke="#000000" points="399.96,-282.32 408.18,-289.01 405.93,-278.66 399.96,-282.32"/>
</g>
<!-- BagHash&#45;&gt;Baggy -->
<g id="edge24" class="edge">
<title>BagHash&#45;&gt;Baggy</title>
<path fill="none" stroke="#6666ff" d="M364.81,-251.59C359.62,-260.05 353.19,-270.51 347.41,-279.92"/>
<polygon fill="#6666ff" stroke="#6666ff" points="344.37,-278.18 342.12,-288.53 350.33,-281.84 344.37,-278.18"/>
</g>
<!-- Bag -->
<g id="node20" class="node">
<title>Bag</title>
<g id="a_node20"><a xlink:href="/type/Bag" xlink:title="Bag">
<ellipse fill="none" stroke="#000000" cx="283" cy="-234" rx="27" ry="18"/>
<text text-anchor="middle" x="283" y="-230.3" font-family="FreeSans" font-size="14.00" fill="#000000">Bag</text>
</a>
</g>
</g>
<!-- Bag&#45;&gt;Any -->
<g id="edge13" class="edge">
<title>Bag&#45;&gt;Any</title>
<path fill="none" stroke="#000000" d="M303.8,-245.78C326.46,-257.53 362.89,-276.43 388.5,-289.7"/>
<polygon fill="#000000" stroke="#000000" points="386.91,-292.82 397.4,-294.32 390.13,-286.61 386.91,-292.82"/>
</g>
<!-- Bag&#45;&gt;Baggy -->
<g id="edge25" class="edge">
<title>Bag&#45;&gt;Baggy</title>
<path fill="none" stroke="#6666ff" d="M293.87,-250.54C299.98,-259.26 307.74,-270.35 314.67,-280.24"/>
<polygon fill="#6666ff" stroke="#6666ff" points="311.87,-282.35 320.47,-288.53 317.61,-278.33 311.87,-282.35"/>
</g>
</g>
</svg>
