<?xml version="1.0" encoding="UTF-8" standalone="no"?>
<!DOCTYPE svg PUBLIC "-//W3C//DTD SVG 1.1//EN"
 "http://www.w3.org/Graphics/SVG/1.1/DTD/svg11.dtd">
<!-- Generated by graphviz version 2.43.0 (0)
 -->
<!-- Title: perl6&#45;type&#45;graph Pages: 1 -->
<svg width="632pt" height="332pt"
 viewBox="0.00 0.00 632.09 332.00" xmlns="http://www.w3.org/2000/svg" xmlns:xlink="http://www.w3.org/1999/xlink">
<g id="graph0" class="graph" transform="scale(1 1) rotate(0) translate(4 328)">
<title>perl6&#45;type&#45;graph</title>
<polygon fill="white" stroke="transparent" points="-4,4 -4,-328 628.09,-328 628.09,4 -4,4"/>
<!-- IO::Path -->
<g id="node1" class="node">
<title>IO::Path</title>
<g id="a_node1"><a xlink:href="/type/IO::Path" xlink:title="IO::Path">
<ellipse fill="none" stroke="#000000" cx="308.64" cy="-90" rx="43.59" ry="18"/>
<text text-anchor="middle" x="308.64" y="-86.3" font-family="FreeSans" font-size="14.00" fill="#000000">IO::Path</text>
</a>
</g>
</g>
<!-- Cool -->
<g id="node4" class="node">
<title>Cool</title>
<g id="a_node4"><a xlink:href="/type/Cool" xlink:title="Cool">
<ellipse fill="none" stroke="#000000" cx="271.64" cy="-162" rx="28.7" ry="18"/>
<text text-anchor="middle" x="271.64" y="-158.3" font-family="FreeSans" font-size="14.00" fill="#000000">Cool</text>
</a>
</g>
</g>
<!-- IO::Path&#45;&gt;Cool -->
<g id="edge1" class="edge">
<title>IO::Path&#45;&gt;Cool</title>
<path fill="none" stroke="#000000" d="M299.69,-107.95C295.31,-116.23 289.94,-126.38 285.08,-135.58"/>
<polygon fill="#000000" stroke="#000000" points="281.84,-134.22 280.26,-144.69 288.03,-137.49 281.84,-134.22"/>
</g>
<!-- IO -->
<g id="node5" class="node">
<title>IO</title>
<g id="a_node5"><a xlink:href="/type/IO" xlink:title="IO">
<ellipse fill="none" stroke="#6666ff" cx="345.64" cy="-162" rx="27" ry="18"/>
<text text-anchor="middle" x="345.64" y="-158.3" font-family="FreeSans" font-size="14.00" fill="#6666ff">IO</text>
</a>
</g>
</g>
<!-- IO::Path&#45;&gt;IO -->
<g id="edge8" class="edge">
<title>IO::Path&#45;&gt;IO</title>
<path fill="none" stroke="#6666ff" d="M317.6,-107.95C321.98,-116.23 327.35,-126.38 332.21,-135.58"/>
<polygon fill="#6666ff" stroke="#6666ff" points="329.26,-137.49 337.02,-144.69 335.45,-134.22 329.26,-137.49"/>
</g>
<!-- Mu -->
<g id="node2" class="node">
<title>Mu</title>
<g id="a_node2"><a xlink:href="/type/Mu" xlink:title="Mu">
<ellipse fill="none" stroke="#000000" cx="271.64" cy="-306" rx="27" ry="18"/>
<text text-anchor="middle" x="271.64" y="-302.3" font-family="FreeSans" font-size="14.00" fill="#000000">Mu</text>
</a>
</g>
</g>
<!-- Any -->
<g id="node3" class="node">
<title>Any</title>
<g id="a_node3"><a xlink:href="/type/Any" xlink:title="Any">
<ellipse fill="none" stroke="#000000" cx="271.64" cy="-234" rx="27" ry="18"/>
<text text-anchor="middle" x="271.64" y="-230.3" font-family="FreeSans" font-size="14.00" fill="#000000">Any</text>
</a>
</g>
</g>
<!-- Any&#45;&gt;Mu -->
<g id="edge2" class="edge">
<title>Any&#45;&gt;Mu</title>
<path fill="none" stroke="#000000" d="M271.64,-252.3C271.64,-260.02 271.64,-269.29 271.64,-277.89"/>
<polygon fill="#000000" stroke="#000000" points="268.14,-277.9 271.64,-287.9 275.14,-277.9 268.14,-277.9"/>
</g>
<!-- Cool&#45;&gt;Any -->
<g id="edge3" class="edge">
<title>Cool&#45;&gt;Any</title>
<path fill="none" stroke="#000000" d="M271.64,-180.3C271.64,-188.02 271.64,-197.29 271.64,-205.89"/>
<polygon fill="#000000" stroke="#000000" points="268.14,-205.9 271.64,-215.9 275.14,-205.9 268.14,-205.9"/>
</g>
<!-- IO::Path::Unix -->
<g id="node6" class="node">
<title>IO::Path::Unix</title>
<g id="a_node6"><a xlink:href="/type/IO::Path::Unix" xlink:title="IO::Path::Unix">
<ellipse fill="none" stroke="#000000" cx="65.64" cy="-18" rx="65.79" ry="18"/>
<text text-anchor="middle" x="65.64" y="-14.3" font-family="FreeSans" font-size="14.00" fill="#000000">IO::Path::Unix</text>
</a>
</g>
</g>
<!-- IO::Path::Unix&#45;&gt;IO::Path -->
<g id="edge4" class="edge">
<title>IO::Path::Unix&#45;&gt;IO::Path</title>
<path fill="none" stroke="#000000" d="M109.09,-31.51C152.78,-44.1 219.83,-63.42 263.96,-76.13"/>
<polygon fill="#000000" stroke="#000000" points="263.26,-79.57 273.83,-78.97 265.19,-72.84 263.26,-79.57"/>
</g>
<!-- IO::Path::Cygwin -->
<g id="node7" class="node">
<title>IO::Path::Cygwin</title>
<g id="a_node7"><a xlink:href="/type/IO::Path::Cygwin" xlink:title="IO::Path::Cygwin">
<ellipse fill="none" stroke="#000000" cx="226.64" cy="-18" rx="77.19" ry="18"/>
<text text-anchor="middle" x="226.64" y="-14.3" font-family="FreeSans" font-size="14.00" fill="#000000">IO::Path::Cygwin</text>
</a>
</g>
</g>
<!-- IO::Path::Cygwin&#45;&gt;IO::Path -->
<g id="edge5" class="edge">
<title>IO::Path::Cygwin&#45;&gt;IO::Path</title>
<path fill="none" stroke="#000000" d="M246.08,-35.59C257.01,-44.92 270.79,-56.69 282.64,-66.8"/>
<polygon fill="#000000" stroke="#000000" points="280.6,-69.66 290.47,-73.49 285.14,-64.33 280.6,-69.66"/>
</g>
<!-- IO::Path::QNX -->
<g id="node8" class="node">
<title>IO::Path::QNX</title>
<g id="a_node8"><a xlink:href="/type/IO::Path::QNX" xlink:title="IO::Path::QNX">
<ellipse fill="none" stroke="#000000" cx="390.64" cy="-18" rx="68.49" ry="18"/>
<text text-anchor="middle" x="390.64" y="-14.3" font-family="FreeSans" font-size="14.00" fill="#000000">IO::Path::QNX</text>
</a>
</g>
</g>
<!-- IO::Path::QNX&#45;&gt;IO::Path -->
<g id="edge6" class="edge">
<title>IO::Path::QNX&#45;&gt;IO::Path</title>
<path fill="none" stroke="#000000" d="M371.21,-35.59C360.28,-44.92 346.5,-56.69 334.65,-66.8"/>
<polygon fill="#000000" stroke="#000000" points="332.15,-64.33 326.81,-73.49 336.69,-69.66 332.15,-64.33"/>
</g>
<!-- IO::Path::Win32 -->
<g id="node9" class="node">
<title>IO::Path::Win32</title>
<g id="a_node9"><a xlink:href="/type/IO::Path::Win32" xlink:title="IO::Path::Win32">
<ellipse fill="none" stroke="#000000" cx="550.64" cy="-18" rx="73.39" ry="18"/>
<text text-anchor="middle" x="550.64" y="-14.3" font-family="FreeSans" font-size="14.00" fill="#000000">IO::Path::Win32</text>
</a>
</g>
</g>
<!-- IO::Path::Win32&#45;&gt;IO::Path -->
<g id="edge7" class="edge">
<title>IO::Path::Win32&#45;&gt;IO::Path</title>
<path fill="none" stroke="#000000" d="M505.13,-32.17C461.56,-44.77 396.25,-63.66 353.05,-76.15"/>
<polygon fill="#000000" stroke="#000000" points="352.02,-72.81 343.38,-78.95 353.96,-79.53 352.02,-72.81"/>
</g>
</g>
</svg>
