<?xml version="1.0" encoding="UTF-8" standalone="no"?>
<!DOCTYPE svg PUBLIC "-//W3C//DTD SVG 1.1//EN"
 "http://www.w3.org/Graphics/SVG/1.1/DTD/svg11.dtd">
<!-- Generated by graphviz version 2.43.0 (0)
 -->
<!-- Title: perl6&#45;type&#45;graph Pages: 1 -->
<svg width="214pt" height="404pt"
 viewBox="0.00 0.00 214.39 404.00" xmlns="http://www.w3.org/2000/svg" xmlns:xlink="http://www.w3.org/1999/xlink">
<g id="graph0" class="graph" transform="scale(1 1) rotate(0) translate(4 400)">
<title>perl6&#45;type&#45;graph</title>
<polygon fill="white" stroke="transparent" points="-4,4 -4,-400 210.39,-400 210.39,4 -4,4"/>
<!-- X::IO::Cwd -->
<g id="node1" class="node">
<title>X::IO::Cwd</title>
<g id="a_node1"><a xlink:href="/type/X::IO::Cwd" xlink:title="X::IO::Cwd">
<ellipse fill="none" stroke="#000000" cx="53.95" cy="-18" rx="53.89" ry="18"/>
<text text-anchor="middle" x="53.95" y="-14.3" font-family="FreeSans" font-size="14.00" fill="#000000">X::IO::Cwd</text>
</a>
</g>
</g>
<!-- Exception -->
<g id="node4" class="node">
<title>Exception</title>
<g id="a_node4"><a xlink:href="/type/Exception" xlink:title="Exception">
<ellipse fill="none" stroke="#000000" cx="53.95" cy="-234" rx="49.29" ry="18"/>
<text text-anchor="middle" x="53.95" y="-230.3" font-family="FreeSans" font-size="14.00" fill="#000000">Exception</text>
</a>
</g>
</g>
<!-- X::IO::Cwd&#45;&gt;Exception -->
<g id="edge1" class="edge">
<title>X::IO::Cwd&#45;&gt;Exception</title>
<path fill="none" stroke="#000000" d="M46.19,-36.15C39.1,-73.26 38.57,-161.25 44.61,-205.95"/>
<polygon fill="#000000" stroke="#000000" points="41.19,-206.75 46.23,-216.06 48.1,-205.64 41.19,-206.75"/>
</g>
<!-- X::IO::Cwd&#45;&gt;Exception -->
<g id="edge2" class="edge">
<title>X::IO::Cwd&#45;&gt;Exception</title>
<path fill="none" stroke="#000000" d="M53.95,-36.15C53.95,-73.17 53.95,-160.82 53.95,-205.61"/>
<polygon fill="#000000" stroke="#000000" points="50.45,-205.77 53.95,-215.77 57.45,-205.77 50.45,-205.77"/>
</g>
<!-- X::IO::Cwd&#45;&gt;Exception -->
<g id="edge3" class="edge">
<title>X::IO::Cwd&#45;&gt;Exception</title>
<path fill="none" stroke="#000000" d="M61.7,-36.15C68.79,-73.26 69.32,-161.25 63.28,-205.95"/>
<polygon fill="#000000" stroke="#000000" points="59.79,-205.64 61.66,-216.06 66.7,-206.75 59.79,-205.64"/>
</g>
<!-- X::IO -->
<g id="node6" class="node">
<title>X::IO</title>
<g id="a_node6"><a xlink:href="/type/X::IO" xlink:title="X::IO">
<ellipse fill="none" stroke="#6666ff" cx="130.95" cy="-90" rx="31.4" ry="18"/>
<text text-anchor="middle" x="130.95" y="-86.3" font-family="FreeSans" font-size="14.00" fill="#6666ff">X::IO</text>
</a>
</g>
</g>
<!-- X::IO::Cwd&#45;&gt;X::IO -->
<g id="edge8" class="edge">
<title>X::IO::Cwd&#45;&gt;X::IO</title>
<path fill="none" stroke="#6666ff" d="M71.8,-35.24C82.42,-44.88 96,-57.23 107.47,-67.66"/>
<polygon fill="#6666ff" stroke="#6666ff" points="105.26,-70.38 115.01,-74.52 109.97,-65.2 105.26,-70.38"/>
</g>
<!-- Mu -->
<g id="node2" class="node">
<title>Mu</title>
<g id="a_node2"><a xlink:href="/type/Mu" xlink:title="Mu">
<ellipse fill="none" stroke="#000000" cx="53.95" cy="-378" rx="27" ry="18"/>
<text text-anchor="middle" x="53.95" y="-374.3" font-family="FreeSans" font-size="14.00" fill="#000000">Mu</text>
</a>
</g>
</g>
<!-- Any -->
<g id="node3" class="node">
<title>Any</title>
<g id="a_node3"><a xlink:href="/type/Any" xlink:title="Any">
<ellipse fill="none" stroke="#000000" cx="53.95" cy="-306" rx="27" ry="18"/>
<text text-anchor="middle" x="53.95" y="-302.3" font-family="FreeSans" font-size="14.00" fill="#000000">Any</text>
</a>
</g>
</g>
<!-- Any&#45;&gt;Mu -->
<g id="edge4" class="edge">
<title>Any&#45;&gt;Mu</title>
<path fill="none" stroke="#000000" d="M53.95,-324.3C53.95,-332.02 53.95,-341.29 53.95,-349.89"/>
<polygon fill="#000000" stroke="#000000" points="50.45,-349.9 53.95,-359.9 57.45,-349.9 50.45,-349.9"/>
</g>
<!-- Exception&#45;&gt;Any -->
<g id="edge5" class="edge">
<title>Exception&#45;&gt;Any</title>
<path fill="none" stroke="#000000" d="M53.95,-252.3C53.95,-260.02 53.95,-269.29 53.95,-277.89"/>
<polygon fill="#000000" stroke="#000000" points="50.45,-277.9 53.95,-287.9 57.45,-277.9 50.45,-277.9"/>
</g>
<!-- X::OS -->
<g id="node5" class="node">
<title>X::OS</title>
<g id="a_node5"><a xlink:href="/type/X::OS" xlink:title="X::OS">
<ellipse fill="none" stroke="#6666ff" cx="171.95" cy="-162" rx="34.39" ry="18"/>
<text text-anchor="middle" x="171.95" y="-158.3" font-family="FreeSans" font-size="14.00" fill="#6666ff">X::OS</text>
</a>
</g>
</g>
<!-- X::OS&#45;&gt;Exception -->
<g id="edge6" class="edge">
<title>X::OS&#45;&gt;Exception</title>
<path fill="none" stroke="#000000" d="M150.03,-176C132.46,-186.43 107.51,-201.23 87.44,-213.13"/>
<polygon fill="#000000" stroke="#000000" points="85.42,-210.26 78.6,-218.37 88.99,-216.28 85.42,-210.26"/>
</g>
<!-- X::IO&#45;&gt;Exception -->
<g id="edge7" class="edge">
<title>X::IO&#45;&gt;Exception</title>
<path fill="none" stroke="#000000" d="M122.48,-107.74C109.45,-133.52 85.95,-180 85.95,-180 85.95,-180 77.53,-193.93 69.34,-207.51"/>
<polygon fill="#000000" stroke="#000000" points="66.24,-205.86 64.07,-216.23 72.24,-209.48 66.24,-205.86"/>
</g>
<!-- X::IO&#45;&gt;X::OS -->
<g id="edge9" class="edge">
<title>X::IO&#45;&gt;X::OS</title>
<path fill="none" stroke="#6666ff" d="M140.45,-107.24C145.4,-115.68 151.56,-126.2 157.12,-135.69"/>
<polygon fill="#6666ff" stroke="#6666ff" points="154.13,-137.51 162.2,-144.37 160.17,-133.97 154.13,-137.51"/>
</g>
</g>
</svg>
