<?xml version="1.0" encoding="UTF-8" standalone="no"?>
<!DOCTYPE svg PUBLIC "-//W3C//DTD SVG 1.1//EN"
 "http://www.w3.org/Graphics/SVG/1.1/DTD/svg11.dtd">
<!-- Generated by graphviz version 2.43.0 (0)
 -->
<!-- Title: perl6&#45;type&#45;graph Pages: 1 -->
<svg width="1887pt" height="1584pt"
 viewBox="0.00 0.00 1887.14 1583.52" xmlns="http://www.w3.org/2000/svg" xmlns:xlink="http://www.w3.org/1999/xlink">
<g id="graph0" class="graph" transform="scale(1 1) rotate(0) translate(4 1579.52)">
<title>perl6&#45;type&#45;graph</title>
<polygon fill="white" stroke="transparent" points="-4,4 -4,-1579.52 1883.14,-1579.52 1883.14,4 -4,4"/>
<!-- Metamodel::MultiMethodContainer -->
<g id="node1" class="node">
<title>Metamodel::MultiMethodContainer</title>
<g id="a_node1"><a xlink:href="/type/Metamodel::MultiMethodContainer" xlink:title="Metamodel::MultiMethodContainer">
<ellipse fill="none" stroke="#6666ff" cx="869.16" cy="-680.96" rx="146.47" ry="18"/>
<text text-anchor="middle" x="869.16" y="-677.26" font-family="FreeSans" font-size="14.00" fill="#6666ff">Metamodel::MultiMethodContainer</text>
</a>
</g>
</g>
<!-- Mu -->
<g id="node2" class="node">
<title>Mu</title>
<g id="a_node2"><a xlink:href="/type/Mu" xlink:title="Mu">
<ellipse fill="none" stroke="#000000" cx="611.35" cy="-88.43" rx="27" ry="18"/>
<text text-anchor="middle" x="611.35" y="-84.73" font-family="FreeSans" font-size="14.00" fill="#000000">Mu</text>
</a>
</g>
</g>
<!-- Any -->
<g id="node3" class="node">
<title>Any</title>
<g id="a_node3"><a xlink:href="/type/Any" xlink:title="Any">
<ellipse fill="none" stroke="#000000" cx="843.92" cy="-517.1" rx="27" ry="18"/>
<text text-anchor="middle" x="843.92" y="-513.4" font-family="FreeSans" font-size="14.00" fill="#000000">Any</text>
</a>
</g>
</g>
<!-- Any&#45;&gt;Mu -->
<g id="edge1" class="edge">
<title>Any&#45;&gt;Mu</title>
<path fill="none" stroke="#000000" d="M834.66,-500.03C798.78,-433.89 668.75,-194.23 625.47,-114.46"/>
<polygon fill="#000000" stroke="#000000" points="628.48,-112.67 620.64,-105.55 622.33,-116 628.48,-112.67"/>
</g>
<!-- Metamodel::Naming -->
<g id="node4" class="node">
<title>Metamodel::Naming</title>
<g id="a_node4"><a xlink:href="/type/Metamodel::Naming" xlink:title="Metamodel::Naming">
<ellipse fill="none" stroke="#6666ff" cx="991.86" cy="-1080.61" rx="90.18" ry="18"/>
<text text-anchor="middle" x="991.86" y="-1076.91" font-family="FreeSans" font-size="14.00" fill="#6666ff">Metamodel::Naming</text>
</a>
</g>
</g>
<!-- Metamodel::Stashing -->
<g id="node5" class="node">
<title>Metamodel::Stashing</title>
<g id="a_node5"><a xlink:href="/type/Metamodel::Stashing" xlink:title="Metamodel::Stashing">
<ellipse fill="none" stroke="#6666ff" cx="1167.64" cy="-1180.24" rx="93.68" ry="18"/>
<text text-anchor="middle" x="1167.64" y="-1176.54" font-family="FreeSans" font-size="14.00" fill="#6666ff">Metamodel::Stashing</text>
</a>
</g>
</g>
<!-- Metamodel::AttributeContainer -->
<g id="node6" class="node">
<title>Metamodel::AttributeContainer</title>
<g id="a_node6"><a xlink:href="/type/Metamodel::AttributeContainer" xlink:title="Metamodel::AttributeContainer">
<ellipse fill="none" stroke="#6666ff" cx="982.92" cy="-925.1" rx="129.98" ry="18"/>
<text text-anchor="middle" x="982.92" y="-921.4" font-family="FreeSans" font-size="14.00" fill="#6666ff">Metamodel::AttributeContainer</text>
</a>
</g>
</g>
<!-- Metamodel::MethodContainer -->
<g id="node7" class="node">
<title>Metamodel::MethodContainer</title>
<g id="a_node7"><a xlink:href="/type/Metamodel::MethodContainer" xlink:title="Metamodel::MethodContainer">
<ellipse fill="none" stroke="#6666ff" cx="985.58" cy="-597.78" rx="127.28" ry="18"/>
<text text-anchor="middle" x="985.58" y="-594.08" font-family="FreeSans" font-size="14.00" fill="#6666ff">Metamodel::MethodContainer</text>
</a>
</g>
</g>
<!-- Metamodel::RoleContainer -->
<g id="node8" class="node">
<title>Metamodel::RoleContainer</title>
<g id="a_node8"><a xlink:href="/type/Metamodel::RoleContainer" xlink:title="Metamodel::RoleContainer">
<ellipse fill="none" stroke="#6666ff" cx="1015.94" cy="-777.09" rx="115.88" ry="18"/>
<text text-anchor="middle" x="1015.94" y="-773.39" font-family="FreeSans" font-size="14.00" fill="#6666ff">Metamodel::RoleContainer</text>
</a>
</g>
</g>
<!-- Metamodel::BaseType -->
<g id="node9" class="node">
<title>Metamodel::BaseType</title>
<g id="a_node9"><a xlink:href="/type/Metamodel::BaseType" xlink:title="Metamodel::BaseType">
<ellipse fill="none" stroke="#6666ff" cx="1374.14" cy="-18" rx="99.38" ry="18"/>
<text text-anchor="middle" x="1374.14" y="-14.3" font-family="FreeSans" font-size="14.00" fill="#6666ff">Metamodel::BaseType</text>
</a>
</g>
</g>
<!-- Metamodel::MROBasedMethodDispatch -->
<g id="node10" class="node">
<title>Metamodel::MROBasedMethodDispatch</title>
<g id="a_node10"><a xlink:href="/type/Metamodel::MROBasedMethodDispatch" xlink:title="Metamodel::MROBasedMethodDispatch">
<ellipse fill="none" stroke="#6666ff" cx="1692.44" cy="-682.54" rx="169.77" ry="18"/>
<text text-anchor="middle" x="1692.44" y="-678.84" font-family="FreeSans" font-size="14.00" fill="#6666ff">Metamodel::MROBasedMethodDispatch</text>
</a>
</g>
</g>
<!-- Metamodel::MROBasedTypeChecking -->
<g id="node11" class="node">
<title>Metamodel::MROBasedTypeChecking</title>
<g id="a_node11"><a xlink:href="/type/Metamodel::MROBasedTypeChecking" xlink:title="Metamodel::MROBasedTypeChecking">
<ellipse fill="none" stroke="#6666ff" cx="1490.63" cy="-434.34" rx="163.27" ry="18"/>
<text text-anchor="middle" x="1490.63" y="-430.64" font-family="FreeSans" font-size="14.00" fill="#6666ff">Metamodel::MROBasedTypeChecking</text>
</a>
</g>
</g>
<!-- Metamodel::BUILDPLAN -->
<g id="node12" class="node">
<title>Metamodel::BUILDPLAN</title>
<g id="a_node12"><a xlink:href="/type/Metamodel::BUILDPLAN" xlink:title="Metamodel::BUILDPLAN">
<ellipse fill="none" stroke="#6666ff" cx="1620.81" cy="-555.42" rx="109.68" ry="18"/>
<text text-anchor="middle" x="1620.81" y="-551.72" font-family="FreeSans" font-size="14.00" fill="#6666ff">Metamodel::BUILDPLAN</text>
</a>
</g>
</g>
<!-- Metamodel::BoolificationProtocol -->
<g id="node13" class="node">
<title>Metamodel::BoolificationProtocol</title>
<g id="a_node13"><a xlink:href="/type/Metamodel::BoolificationProtocol" xlink:title="Metamodel::BoolificationProtocol">
<ellipse fill="none" stroke="#6666ff" cx="1740.05" cy="-822.22" rx="139.18" ry="18"/>
<text text-anchor="middle" x="1740.05" y="-818.52" font-family="FreeSans" font-size="14.00" fill="#6666ff">Metamodel::BoolificationProtocol</text>
</a>
</g>
</g>
<!-- Metamodel::Mixins -->
<g id="node14" class="node">
<title>Metamodel::Mixins</title>
<g id="a_node14"><a xlink:href="/type/Metamodel::Mixins" xlink:title="Metamodel::Mixins">
<ellipse fill="none" stroke="#6666ff" cx="1652.38" cy="-944.24" rx="85.29" ry="18"/>
<text text-anchor="middle" x="1652.38" y="-940.54" font-family="FreeSans" font-size="14.00" fill="#6666ff">Metamodel::Mixins</text>
</a>
</g>
</g>
<!-- Metamodel::EnumHOW -->
<g id="node15" class="node">
<title>Metamodel::EnumHOW</title>
<g id="a_node15"><a xlink:href="/type/Metamodel::EnumHOW" xlink:title="Metamodel::EnumHOW">
<ellipse fill="none" stroke="#000000" cx="1289.43" cy="-582.78" rx="104.78" ry="18"/>
<text text-anchor="middle" x="1289.43" y="-579.08" font-family="FreeSans" font-size="14.00" fill="#000000">Metamodel::EnumHOW</text>
</a>
</g>
</g>
<!-- Metamodel::EnumHOW&#45;&gt;Metamodel::MultiMethodContainer -->
<g id="edge10" class="edge">
<title>Metamodel::EnumHOW&#45;&gt;Metamodel::MultiMethodContainer</title>
<path fill="none" stroke="#6666ff" d="M1226.96,-597.37C1152.63,-614.74 1028.44,-643.75 947.68,-662.62"/>
<polygon fill="#6666ff" stroke="#6666ff" points="946.5,-659.3 937.56,-664.98 948.09,-666.12 946.5,-659.3"/>
</g>
<!-- Metamodel::EnumHOW&#45;&gt;Any -->
<g id="edge2" class="edge">
<title>Metamodel::EnumHOW&#45;&gt;Any</title>
<path fill="none" stroke="#000000" d="M1209.78,-571.04C1112.45,-556.69 951.91,-533.02 880.33,-522.47"/>
<polygon fill="#000000" stroke="#000000" points="880.84,-519 870.43,-521.01 879.82,-525.93 880.84,-519"/>
</g>
<!-- Metamodel::EnumHOW&#45;&gt;Metamodel::Naming -->
<g id="edge6" class="edge">
<title>Metamodel::EnumHOW&#45;&gt;Metamodel::Naming</title>
<path fill="none" stroke="#6666ff" d="M1280.02,-601.19C1243.69,-672.32 1114.51,-925.23 1114.51,-925.23 1114.51,-925.23 1047.11,-1010.61 1012.24,-1054.79"/>
<polygon fill="#6666ff" stroke="#6666ff" points="1009.38,-1052.77 1005.93,-1062.79 1014.88,-1057.1 1009.38,-1052.77"/>
</g>
<!-- Metamodel::EnumHOW&#45;&gt;Metamodel::Stashing -->
<g id="edge7" class="edge">
<title>Metamodel::EnumHOW&#45;&gt;Metamodel::Stashing</title>
<path fill="none" stroke="#6666ff" d="M1284.51,-600.99C1263.38,-679.18 1181.42,-982.48 1181.42,-982.48 1181.42,-982.48 1173.42,-1097.22 1169.61,-1151.91"/>
<polygon fill="#6666ff" stroke="#6666ff" points="1166.11,-1151.77 1168.91,-1161.99 1173.1,-1152.26 1166.11,-1151.77"/>
</g>
<!-- Metamodel::EnumHOW&#45;&gt;Metamodel::AttributeContainer -->
<g id="edge8" class="edge">
<title>Metamodel::EnumHOW&#45;&gt;Metamodel::AttributeContainer</title>
<path fill="none" stroke="#6666ff" d="M1275.01,-600.72C1236.34,-648.85 1133.23,-777.19 1133.23,-777.19 1133.23,-777.19 1051.18,-857.94 1008.32,-900.11"/>
<polygon fill="#6666ff" stroke="#6666ff" points="1005.72,-897.75 1001.05,-907.26 1010.63,-902.74 1005.72,-897.75"/>
</g>
<!-- Metamodel::EnumHOW&#45;&gt;Metamodel::MethodContainer -->
<g id="edge9" class="edge">
<title>Metamodel::EnumHOW&#45;&gt;Metamodel::MethodContainer</title>
<path fill="none" stroke="#6666ff" d="M1188.67,-587.75C1165.37,-588.9 1140.24,-590.14 1115.88,-591.35"/>
<polygon fill="#6666ff" stroke="#6666ff" points="1115.67,-587.85 1105.86,-591.84 1116.02,-594.84 1115.67,-587.85"/>
</g>
<!-- Metamodel::EnumHOW&#45;&gt;Metamodel::RoleContainer -->
<g id="edge11" class="edge">
<title>Metamodel::EnumHOW&#45;&gt;Metamodel::RoleContainer</title>
<path fill="none" stroke="#6666ff" d="M1264.68,-600.37C1215.37,-635.39 1104.89,-713.89 1049.27,-753.41"/>
<polygon fill="#6666ff" stroke="#6666ff" points="1046.96,-750.76 1040.83,-759.41 1051.01,-756.47 1046.96,-750.76"/>
</g>
<!-- Metamodel::EnumHOW&#45;&gt;Metamodel::BaseType -->
<g id="edge12" class="edge">
<title>Metamodel::EnumHOW&#45;&gt;Metamodel::BaseType</title>
<path fill="none" stroke="#6666ff" d="M1292.15,-564.63C1304.46,-482.56 1354.96,-145.87 1369.93,-46.03"/>
<polygon fill="#6666ff" stroke="#6666ff" points="1373.4,-46.49 1371.43,-36.08 1366.48,-45.45 1373.4,-46.49"/>
</g>
<!-- Metamodel::EnumHOW&#45;&gt;Metamodel::MROBasedMethodDispatch -->
<g id="edge13" class="edge">
<title>Metamodel::EnumHOW&#45;&gt;Metamodel::MROBasedMethodDispatch</title>
<path fill="none" stroke="#6666ff" d="M1349.33,-597.61C1420.19,-615.15 1538.3,-644.39 1615.78,-663.56"/>
<polygon fill="#6666ff" stroke="#6666ff" points="1614.94,-666.96 1625.49,-665.97 1616.62,-660.17 1614.94,-666.96"/>
</g>
<!-- Metamodel::EnumHOW&#45;&gt;Metamodel::MROBasedTypeChecking -->
<g id="edge14" class="edge">
<title>Metamodel::EnumHOW&#45;&gt;Metamodel::MROBasedTypeChecking</title>
<path fill="none" stroke="#6666ff" d="M1313.3,-565.17C1349.35,-538.57 1417.78,-488.09 1458.28,-458.21"/>
<polygon fill="#6666ff" stroke="#6666ff" points="1460.51,-460.91 1466.48,-452.16 1456.35,-455.28 1460.51,-460.91"/>
</g>
<!-- Metamodel::EnumHOW&#45;&gt;Metamodel::BUILDPLAN -->
<g id="edge15" class="edge">
<title>Metamodel::EnumHOW&#45;&gt;Metamodel::BUILDPLAN</title>
<path fill="none" stroke="#6666ff" d="M1383.95,-574.98C1424.06,-571.66 1471.05,-567.78 1512.56,-564.36"/>
<polygon fill="#6666ff" stroke="#6666ff" points="1513.03,-567.83 1522.71,-563.52 1512.45,-560.85 1513.03,-567.83"/>
</g>
<!-- Metamodel::EnumHOW&#45;&gt;Metamodel::BoolificationProtocol -->
<g id="edge16" class="edge">
<title>Metamodel::EnumHOW&#45;&gt;Metamodel::BoolificationProtocol</title>
<path fill="none" stroke="#6666ff" d="M1321.84,-600C1401.85,-642.51 1608.72,-752.43 1698,-799.88"/>
<polygon fill="#6666ff" stroke="#6666ff" points="1696.55,-803.07 1707.03,-804.67 1699.84,-796.89 1696.55,-803.07"/>
</g>
<!-- Metamodel::EnumHOW&#45;&gt;Metamodel::Mixins -->
<g id="edge17" class="edge">
<title>Metamodel::EnumHOW&#45;&gt;Metamodel::Mixins</title>
<path fill="none" stroke="#6666ff" d="M1307.43,-600.7C1366.93,-659.96 1557.44,-849.69 1626.81,-918.77"/>
<polygon fill="#6666ff" stroke="#6666ff" points="1624.72,-921.63 1634.27,-926.21 1629.66,-916.67 1624.72,-921.63"/>
</g>
<!-- Metamodel::Documenting -->
<g id="node16" class="node">
<title>Metamodel::Documenting</title>
<g id="a_node16"><a xlink:href="/type/Metamodel::Documenting" xlink:title="Metamodel::Documenting">
<ellipse fill="none" stroke="#6666ff" cx="677.8" cy="-751.1" rx="111.28" ry="18"/>
<text text-anchor="middle" x="677.8" y="-747.4" font-family="FreeSans" font-size="14.00" fill="#6666ff">Metamodel::Documenting</text>
</a>
</g>
</g>
<!-- Metamodel::Versioning -->
<g id="node17" class="node">
<title>Metamodel::Versioning</title>
<g id="a_node17"><a xlink:href="/type/Metamodel::Versioning" xlink:title="Metamodel::Versioning">
<ellipse fill="none" stroke="#6666ff" cx="748.19" cy="-1325.57" rx="100.98" ry="18"/>
<text text-anchor="middle" x="748.19" y="-1321.87" font-family="FreeSans" font-size="14.00" fill="#6666ff">Metamodel::Versioning</text>
</a>
</g>
</g>
<!-- Metamodel::PrivateMethodContainer -->
<g id="node18" class="node">
<title>Metamodel::PrivateMethodContainer</title>
<g id="a_node18"><a xlink:href="/type/Metamodel::PrivateMethodContainer" xlink:title="Metamodel::PrivateMethodContainer">
<ellipse fill="none" stroke="#6666ff" cx="1030.48" cy="-1383.68" rx="154.87" ry="18"/>
<text text-anchor="middle" x="1030.48" y="-1379.98" font-family="FreeSans" font-size="14.00" fill="#6666ff">Metamodel::PrivateMethodContainer</text>
</a>
</g>
</g>
<!-- Metamodel::MultipleInheritance -->
<g id="node19" class="node">
<title>Metamodel::MultipleInheritance</title>
<g id="a_node19"><a xlink:href="/type/Metamodel::MultipleInheritance" xlink:title="Metamodel::MultipleInheritance">
<ellipse fill="none" stroke="#6666ff" cx="778.37" cy="-1427.69" rx="133.78" ry="18"/>
<text text-anchor="middle" x="778.37" y="-1423.99" font-family="FreeSans" font-size="14.00" fill="#6666ff">Metamodel::MultipleInheritance</text>
</a>
</g>
</g>
<!-- Metamodel::TypePretense -->
<g id="node20" class="node">
<title>Metamodel::TypePretense</title>
<g id="a_node20"><a xlink:href="/type/Metamodel::TypePretense" xlink:title="Metamodel::TypePretense">
<ellipse fill="none" stroke="#6666ff" cx="157.72" cy="-1261.55" rx="114.28" ry="18"/>
<text text-anchor="middle" x="157.72" y="-1257.85" font-family="FreeSans" font-size="14.00" fill="#6666ff">Metamodel::TypePretense</text>
</a>
</g>
</g>
<!-- Metamodel::RolePunning -->
<g id="node21" class="node">
<title>Metamodel::RolePunning</title>
<g id="a_node21"><a xlink:href="/type/Metamodel::RolePunning" xlink:title="Metamodel::RolePunning">
<ellipse fill="none" stroke="#6666ff" cx="109.84" cy="-864.82" rx="109.68" ry="18"/>
<text text-anchor="middle" x="109.84" y="-861.12" font-family="FreeSans" font-size="14.00" fill="#6666ff">Metamodel::RolePunning</text>
</a>
</g>
</g>
<!-- Metamodel::ParametricRoleHOW -->
<g id="node22" class="node">
<title>Metamodel::ParametricRoleHOW</title>
<g id="a_node22"><a xlink:href="/type/Metamodel::ParametricRoleHOW" xlink:title="Metamodel::ParametricRoleHOW">
<ellipse fill="none" stroke="#000000" cx="593.49" cy="-1030.13" rx="141.88" ry="18"/>
<text text-anchor="middle" x="593.49" y="-1026.43" font-family="FreeSans" font-size="14.00" fill="#000000">Metamodel::ParametricRoleHOW</text>
</a>
</g>
</g>
<!-- Metamodel::ParametricRoleHOW&#45;&gt;Metamodel::MultiMethodContainer -->
<g id="edge23" class="edge">
<title>Metamodel::ParametricRoleHOW&#45;&gt;Metamodel::MultiMethodContainer</title>
<path fill="none" stroke="#6666ff" d="M629.9,-1012.66C680.3,-988.47 765.18,-947.73 765.18,-947.73 765.18,-947.73 831.54,-777.49 858.23,-709"/>
<polygon fill="#6666ff" stroke="#6666ff" points="861.65,-709.89 862.02,-699.3 855.12,-707.34 861.65,-709.89"/>
</g>
<!-- Metamodel::ParametricRoleHOW&#45;&gt;Any -->
<g id="edge3" class="edge">
<title>Metamodel::ParametricRoleHOW&#45;&gt;Any</title>
<path fill="none" stroke="#000000" d="M629.9,-1012.66C680.3,-988.47 765.18,-947.73 765.18,-947.73 765.18,-947.73 790.54,-751.17 790.54,-751.17 790.54,-751.17 721.33,-680.87 721.33,-680.87 721.33,-680.87 791.39,-587.28 825.58,-541.6"/>
<polygon fill="#000000" stroke="#000000" points="828.53,-543.5 831.72,-533.4 822.92,-539.31 828.53,-543.5"/>
</g>
<!-- Metamodel::ParametricRoleHOW&#45;&gt;Metamodel::Naming -->
<g id="edge18" class="edge">
<title>Metamodel::ParametricRoleHOW&#45;&gt;Metamodel::Naming</title>
<path fill="none" stroke="#6666ff" d="M694.01,-1042.87C759.19,-1051.13 843.22,-1061.78 905.4,-1069.65"/>
<polygon fill="#6666ff" stroke="#6666ff" points="905.22,-1073.16 915.58,-1070.94 906.1,-1066.21 905.22,-1073.16"/>
</g>
<!-- Metamodel::ParametricRoleHOW&#45;&gt;Metamodel::Stashing -->
<g id="edge27" class="edge">
<title>Metamodel::ParametricRoleHOW&#45;&gt;Metamodel::Stashing</title>
<path fill="none" stroke="#6666ff" d="M655.48,-1046.34C764.69,-1074.89 990.37,-1133.9 1102.07,-1163.1"/>
<polygon fill="#6666ff" stroke="#6666ff" points="1101.3,-1166.52 1111.86,-1165.66 1103.07,-1159.74 1101.3,-1166.52"/>
</g>
<!-- Metamodel::ParametricRoleHOW&#45;&gt;Metamodel::AttributeContainer -->
<g id="edge24" class="edge">
<title>Metamodel::ParametricRoleHOW&#45;&gt;Metamodel::AttributeContainer</title>
<path fill="none" stroke="#6666ff" d="M653.91,-1013.84C724.14,-994.89 839.82,-963.7 913.64,-943.79"/>
<polygon fill="#6666ff" stroke="#6666ff" points="914.57,-947.16 923.32,-941.18 912.75,-940.4 914.57,-947.16"/>
</g>
<!-- Metamodel::ParametricRoleHOW&#45;&gt;Metamodel::MethodContainer -->
<g id="edge21" class="edge">
<title>Metamodel::ParametricRoleHOW&#45;&gt;Metamodel::MethodContainer</title>
<path fill="none" stroke="#6666ff" d="M629.9,-1012.66C680.3,-988.47 765.18,-947.73 765.18,-947.73 765.18,-947.73 898.65,-776.99 898.65,-776.99 898.65,-776.99 1017,-681.06 1017,-681.06 1017,-681.06 1005.13,-649.61 995.99,-625.36"/>
<polygon fill="#6666ff" stroke="#6666ff" points="999.21,-623.97 992.4,-615.85 992.66,-626.44 999.21,-623.97"/>
</g>
<!-- Metamodel::ParametricRoleHOW&#45;&gt;Metamodel::RoleContainer -->
<g id="edge25" class="edge">
<title>Metamodel::ParametricRoleHOW&#45;&gt;Metamodel::RoleContainer</title>
<path fill="none" stroke="#6666ff" d="M629.9,-1012.66C680.3,-988.47 765.18,-947.73 765.18,-947.73 765.18,-947.73 913.06,-847.1 981.69,-800.4"/>
<polygon fill="#6666ff" stroke="#6666ff" points="983.75,-803.23 990.05,-794.71 979.81,-797.44 983.75,-803.23"/>
</g>
<!-- Metamodel::ParametricRoleHOW&#45;&gt;Metamodel::Documenting -->
<g id="edge19" class="edge">
<title>Metamodel::ParametricRoleHOW&#45;&gt;Metamodel::Documenting</title>
<path fill="none" stroke="#6666ff" d="M571.38,-1012.24C541.42,-988 491.61,-947.69 491.61,-947.69 491.61,-947.69 603.81,-829.22 654.02,-776.21"/>
<polygon fill="#6666ff" stroke="#6666ff" points="656.62,-778.56 660.95,-768.89 651.53,-773.74 656.62,-778.56"/>
</g>
<!-- Metamodel::ParametricRoleHOW&#45;&gt;Metamodel::Versioning -->
<g id="edge20" class="edge">
<title>Metamodel::ParametricRoleHOW&#45;&gt;Metamodel::Versioning</title>
<path fill="none" stroke="#6666ff" d="M602.93,-1048.17C629.09,-1098.13 702.63,-1238.56 733.87,-1298.21"/>
<polygon fill="#6666ff" stroke="#6666ff" points="730.93,-1300.16 738.67,-1307.39 737.14,-1296.91 730.93,-1300.16"/>
</g>
<!-- Metamodel::ParametricRoleHOW&#45;&gt;Metamodel::PrivateMethodContainer -->
<g id="edge22" class="edge">
<title>Metamodel::ParametricRoleHOW&#45;&gt;Metamodel::PrivateMethodContainer</title>
<path fill="none" stroke="#6666ff" d="M615.76,-1048.15C688.23,-1106.79 917.43,-1292.22 1000.25,-1359.22"/>
<polygon fill="#6666ff" stroke="#6666ff" points="998.28,-1362.13 1008.26,-1365.7 1002.68,-1356.69 998.28,-1362.13"/>
</g>
<!-- Metamodel::ParametricRoleHOW&#45;&gt;Metamodel::MultipleInheritance -->
<g id="edge26" class="edge">
<title>Metamodel::ParametricRoleHOW&#45;&gt;Metamodel::MultipleInheritance</title>
<path fill="none" stroke="#6666ff" d="M596.68,-1048.16C608.05,-1112.28 645.85,-1325.47 645.85,-1325.47 645.85,-1325.47 708.14,-1373.52 747.31,-1403.73"/>
<polygon fill="#6666ff" stroke="#6666ff" points="745.23,-1406.54 755.29,-1409.88 749.51,-1401 745.23,-1406.54"/>
</g>
<!-- Metamodel::ParametricRoleHOW&#45;&gt;Metamodel::TypePretense -->
<g id="edge28" class="edge">
<title>Metamodel::ParametricRoleHOW&#45;&gt;Metamodel::TypePretense</title>
<path fill="none" stroke="#6666ff" d="M560.38,-1047.72C482.09,-1089.29 285.72,-1193.57 199.46,-1239.38"/>
<polygon fill="#6666ff" stroke="#6666ff" points="197.67,-1236.37 190.48,-1244.15 200.95,-1242.55 197.67,-1236.37"/>
</g>
<!-- Metamodel::ParametricRoleHOW&#45;&gt;Metamodel::RolePunning -->
<g id="edge29" class="edge">
<title>Metamodel::ParametricRoleHOW&#45;&gt;Metamodel::RolePunning</title>
<path fill="none" stroke="#6666ff" d="M544,-1013.22C453.69,-982.35 262.66,-917.06 166.98,-884.35"/>
<polygon fill="#6666ff" stroke="#6666ff" points="168.06,-881.02 157.46,-881.1 165.8,-887.65 168.06,-881.02"/>
</g>
<!-- Metamodel::ConcreteRoleHOW -->
<g id="node23" class="node">
<title>Metamodel::ConcreteRoleHOW</title>
<g id="a_node23"><a xlink:href="/type/Metamodel::ConcreteRoleHOW" xlink:title="Metamodel::ConcreteRoleHOW">
<ellipse fill="none" stroke="#000000" cx="628.39" cy="-947.71" rx="135.38" ry="18"/>
<text text-anchor="middle" x="628.39" y="-944.01" font-family="FreeSans" font-size="14.00" fill="#000000">Metamodel::ConcreteRoleHOW</text>
</a>
</g>
</g>
<!-- Metamodel::ConcreteRoleHOW&#45;&gt;Metamodel::MultiMethodContainer -->
<g id="edge34" class="edge">
<title>Metamodel::ConcreteRoleHOW&#45;&gt;Metamodel::MultiMethodContainer</title>
<path fill="none" stroke="#6666ff" d="M644.57,-929.79C686.19,-883.68 797.13,-760.77 845.77,-706.89"/>
<polygon fill="#6666ff" stroke="#6666ff" points="848.64,-708.92 852.75,-699.15 843.45,-704.23 848.64,-708.92"/>
</g>
<!-- Metamodel::ConcreteRoleHOW&#45;&gt;Any -->
<g id="edge4" class="edge">
<title>Metamodel::ConcreteRoleHOW&#45;&gt;Any</title>
<path fill="none" stroke="#000000" d="M643.36,-929.57C683.5,-880.92 790.54,-751.17 790.54,-751.17 790.54,-751.17 721.33,-680.87 721.33,-680.87 721.33,-680.87 791.39,-587.28 825.58,-541.6"/>
<polygon fill="#000000" stroke="#000000" points="828.53,-543.5 831.72,-533.4 822.92,-539.31 828.53,-543.5"/>
</g>
<!-- Metamodel::ConcreteRoleHOW&#45;&gt;Metamodel::Naming -->
<g id="edge30" class="edge">
<title>Metamodel::ConcreteRoleHOW&#45;&gt;Metamodel::Naming</title>
<path fill="none" stroke="#6666ff" d="M674.8,-964.68C742.43,-989.41 867.74,-1035.23 938.9,-1061.24"/>
<polygon fill="#6666ff" stroke="#6666ff" points="937.97,-1064.63 948.57,-1064.78 940.38,-1058.06 937.97,-1064.63"/>
</g>
<!-- Metamodel::ConcreteRoleHOW&#45;&gt;Metamodel::AttributeContainer -->
<g id="edge35" class="edge">
<title>Metamodel::ConcreteRoleHOW&#45;&gt;Metamodel::AttributeContainer</title>
<path fill="none" stroke="#6666ff" d="M750.4,-939.93C784.04,-937.78 820.62,-935.45 854.6,-933.29"/>
<polygon fill="#6666ff" stroke="#6666ff" points="854.83,-936.78 864.58,-932.65 854.38,-929.79 854.83,-936.78"/>
</g>
<!-- Metamodel::ConcreteRoleHOW&#45;&gt;Metamodel::MethodContainer -->
<g id="edge33" class="edge">
<title>Metamodel::ConcreteRoleHOW&#45;&gt;Metamodel::MethodContainer</title>
<path fill="none" stroke="#6666ff" d="M654.19,-930.01C740.99,-870.45 1017,-681.06 1017,-681.06 1017,-681.06 1005.13,-649.61 995.99,-625.36"/>
<polygon fill="#6666ff" stroke="#6666ff" points="999.21,-623.97 992.4,-615.85 992.66,-626.44 999.21,-623.97"/>
</g>
<!-- Metamodel::ConcreteRoleHOW&#45;&gt;Metamodel::RoleContainer -->
<g id="edge36" class="edge">
<title>Metamodel::ConcreteRoleHOW&#45;&gt;Metamodel::RoleContainer</title>
<path fill="none" stroke="#6666ff" d="M667.69,-930.41C739.1,-898.97 889.96,-832.55 967.57,-798.39"/>
<polygon fill="#6666ff" stroke="#6666ff" points="969.38,-801.42 977.12,-794.18 966.56,-795.01 969.38,-801.42"/>
</g>
<!-- Metamodel::ConcreteRoleHOW&#45;&gt;Metamodel::Versioning -->
<g id="edge31" class="edge">
<title>Metamodel::ConcreteRoleHOW&#45;&gt;Metamodel::Versioning</title>
<path fill="none" stroke="#6666ff" d="M651.91,-965.62C683.79,-989.89 736.77,-1030.25 736.77,-1030.25 736.77,-1030.25 744.23,-1223.11 747.09,-1297.12"/>
<polygon fill="#6666ff" stroke="#6666ff" points="743.61,-1297.68 747.49,-1307.54 750.6,-1297.41 743.61,-1297.68"/>
</g>
<!-- Metamodel::ConcreteRoleHOW&#45;&gt;Metamodel::PrivateMethodContainer -->
<g id="edge32" class="edge">
<title>Metamodel::ConcreteRoleHOW&#45;&gt;Metamodel::PrivateMethodContainer</title>
<path fill="none" stroke="#6666ff" d="M651.91,-965.62C683.79,-989.89 736.77,-1030.25 736.77,-1030.25 736.77,-1030.25 941.37,-1276.44 1009.04,-1357.88"/>
<polygon fill="#6666ff" stroke="#6666ff" points="1006.43,-1360.21 1015.51,-1365.67 1011.81,-1355.74 1006.43,-1360.21"/>
</g>
<!-- Metamodel::ConcreteRoleHOW&#45;&gt;Metamodel::MultipleInheritance -->
<g id="edge37" class="edge">
<title>Metamodel::ConcreteRoleHOW&#45;&gt;Metamodel::MultipleInheritance</title>
<path fill="none" stroke="#6666ff" d="M651.91,-965.62C683.79,-989.89 736.77,-1030.25 736.77,-1030.25 736.77,-1030.25 850.53,-1325.67 850.53,-1325.67 850.53,-1325.67 818.64,-1370.76 797.26,-1400.99"/>
<polygon fill="#6666ff" stroke="#6666ff" points="794.19,-1399.26 791.27,-1409.45 799.9,-1403.3 794.19,-1399.26"/>
</g>
<!-- Metamodel::Finalization -->
<g id="node24" class="node">
<title>Metamodel::Finalization</title>
<g id="a_node24"><a xlink:href="/type/Metamodel::Finalization" xlink:title="Metamodel::Finalization">
<ellipse fill="none" stroke="#6666ff" cx="1520.64" cy="-1470.3" rx="103.98" ry="18"/>
<text text-anchor="middle" x="1520.64" y="-1466.6" font-family="FreeSans" font-size="14.00" fill="#6666ff">Metamodel::Finalization</text>
</a>
</g>
</g>
<!-- Metamodel::DefaultParent -->
<g id="node25" class="node">
<title>Metamodel::DefaultParent</title>
<g id="a_node25"><a xlink:href="/type/Metamodel::DefaultParent" xlink:title="Metamodel::DefaultParent">
<ellipse fill="none" stroke="#6666ff" cx="1349.15" cy="-1557.52" rx="113.18" ry="18"/>
<text text-anchor="middle" x="1349.15" y="-1553.82" font-family="FreeSans" font-size="14.00" fill="#6666ff">Metamodel::DefaultParent</text>
</a>
</g>
</g>
<!-- Metamodel::C3MRO -->
<g id="node26" class="node">
<title>Metamodel::C3MRO</title>
<g id="a_node26"><a xlink:href="/type/Metamodel::C3MRO" xlink:title="Metamodel::C3MRO">
<ellipse fill="none" stroke="#6666ff" cx="1778.08" cy="-1184.58" rx="92.08" ry="18"/>
<text text-anchor="middle" x="1778.08" y="-1180.88" font-family="FreeSans" font-size="14.00" fill="#6666ff">Metamodel::C3MRO</text>
</a>
</g>
</g>
<!-- Metamodel::Trusting -->
<g id="node27" class="node">
<title>Metamodel::Trusting</title>
<g id="a_node27"><a xlink:href="/type/Metamodel::Trusting" xlink:title="Metamodel::Trusting">
<ellipse fill="none" stroke="#6666ff" cx="1660.18" cy="-1344.8" rx="91.78" ry="18"/>
<text text-anchor="middle" x="1660.18" y="-1341.1" font-family="FreeSans" font-size="14.00" fill="#6666ff">Metamodel::Trusting</text>
</a>
</g>
</g>
<!-- Metamodel::ClassHOW -->
<g id="node28" class="node">
<title>Metamodel::ClassHOW</title>
<g id="a_node28"><a xlink:href="/type/Metamodel::ClassHOW" xlink:title="Metamodel::ClassHOW">
<ellipse fill="none" stroke="#000000" cx="1286.36" cy="-982.64" rx="103.18" ry="18"/>
<text text-anchor="middle" x="1286.36" y="-978.94" font-family="FreeSans" font-size="14.00" fill="#000000">Metamodel::ClassHOW</text>
</a>
</g>
</g>
<!-- Metamodel::ClassHOW&#45;&gt;Metamodel::MultiMethodContainer -->
<g id="edge46" class="edge">
<title>Metamodel::ClassHOW&#45;&gt;Metamodel::MultiMethodContainer</title>
<path fill="none" stroke="#6666ff" d="M1273.04,-964.76C1235.78,-914.78 1133.23,-777.19 1133.23,-777.19 1133.23,-777.19 1099.3,-763.3 1099.3,-763.3 1099.3,-763.3 994.79,-725.91 926.62,-701.52"/>
<polygon fill="#6666ff" stroke="#6666ff" points="927.44,-698.1 916.85,-698.02 925.08,-704.69 927.44,-698.1"/>
</g>
<!-- Metamodel::ClassHOW&#45;&gt;Any -->
<g id="edge5" class="edge">
<title>Metamodel::ClassHOW&#45;&gt;Any</title>
<path fill="none" stroke="#000000" d="M1273.04,-964.76C1235.78,-914.78 1133.23,-777.19 1133.23,-777.19 1133.23,-777.19 1017,-681.06 1017,-681.06 1017,-681.06 856.6,-597.67 856.6,-597.67 856.6,-597.67 852.04,-568.7 848.39,-545.51"/>
<polygon fill="#000000" stroke="#000000" points="851.81,-544.71 846.8,-535.38 844.89,-545.8 851.81,-544.71"/>
</g>
<!-- Metamodel::ClassHOW&#45;&gt;Metamodel::Naming -->
<g id="edge38" class="edge">
<title>Metamodel::ClassHOW&#45;&gt;Metamodel::Naming</title>
<path fill="none" stroke="#6666ff" d="M1238.39,-998.59C1186.27,-1015.94 1103.08,-1043.61 1047.97,-1061.95"/>
<polygon fill="#6666ff" stroke="#6666ff" points="1046.74,-1058.66 1038.36,-1065.14 1048.95,-1065.31 1046.74,-1058.66"/>
</g>
<!-- Metamodel::ClassHOW&#45;&gt;Metamodel::Stashing -->
<g id="edge41" class="edge">
<title>Metamodel::ClassHOW&#45;&gt;Metamodel::Stashing</title>
<path fill="none" stroke="#6666ff" d="M1275.4,-1000.87C1254.32,-1035.96 1208.04,-1112.99 1183.56,-1153.74"/>
<polygon fill="#6666ff" stroke="#6666ff" points="1180.54,-1151.96 1178.39,-1162.34 1186.54,-1155.57 1180.54,-1151.96"/>
</g>
<!-- Metamodel::ClassHOW&#45;&gt;Metamodel::AttributeContainer -->
<g id="edge42" class="edge">
<title>Metamodel::ClassHOW&#45;&gt;Metamodel::AttributeContainer</title>
<path fill="none" stroke="#6666ff" d="M1216.36,-969.36C1172.75,-961.09 1116.28,-950.39 1069.81,-941.58"/>
<polygon fill="#6666ff" stroke="#6666ff" points="1070.23,-938.09 1059.75,-939.67 1068.93,-944.97 1070.23,-938.09"/>
</g>
<!-- Metamodel::ClassHOW&#45;&gt;Metamodel::MethodContainer -->
<g id="edge44" class="edge">
<title>Metamodel::ClassHOW&#45;&gt;Metamodel::MethodContainer</title>
<path fill="none" stroke="#6666ff" d="M1273.04,-964.76C1235.78,-914.78 1133.23,-777.19 1133.23,-777.19 1133.23,-777.19 1047.86,-673.45 1006.95,-623.74"/>
<polygon fill="#6666ff" stroke="#6666ff" points="1009.61,-621.47 1000.55,-615.97 1004.21,-625.92 1009.61,-621.47"/>
</g>
<!-- Metamodel::ClassHOW&#45;&gt;Metamodel::RoleContainer -->
<g id="edge47" class="edge">
<title>Metamodel::ClassHOW&#45;&gt;Metamodel::RoleContainer</title>
<path fill="none" stroke="#6666ff" d="M1262.83,-964.75C1214.07,-927.69 1101.94,-842.46 1047.18,-800.84"/>
<polygon fill="#6666ff" stroke="#6666ff" points="1049.3,-798.05 1039.22,-794.79 1045.06,-803.62 1049.3,-798.05"/>
</g>
<!-- Metamodel::ClassHOW&#45;&gt;Metamodel::MROBasedMethodDispatch -->
<g id="edge51" class="edge">
<title>Metamodel::ClassHOW&#45;&gt;Metamodel::MROBasedMethodDispatch</title>
<path fill="none" stroke="#6666ff" d="M1310.25,-964.98C1379.63,-913.71 1581.25,-764.71 1660.2,-706.37"/>
<polygon fill="#6666ff" stroke="#6666ff" points="1662.37,-709.12 1668.33,-700.36 1658.21,-703.49 1662.37,-709.12"/>
</g>
<!-- Metamodel::ClassHOW&#45;&gt;Metamodel::MROBasedTypeChecking -->
<g id="edge52" class="edge">
<title>Metamodel::ClassHOW&#45;&gt;Metamodel::MROBasedTypeChecking</title>
<path fill="none" stroke="#6666ff" d="M1293.16,-964.39C1323.21,-883.72 1444.28,-558.77 1480.41,-461.79"/>
<polygon fill="#6666ff" stroke="#6666ff" points="1483.7,-462.97 1483.91,-452.38 1477.14,-460.52 1483.7,-462.97"/>
</g>
<!-- Metamodel::ClassHOW&#45;&gt;Metamodel::BUILDPLAN -->
<g id="edge54" class="edge">
<title>Metamodel::ClassHOW&#45;&gt;Metamodel::BUILDPLAN</title>
<path fill="none" stroke="#6666ff" d="M1300.35,-964.76C1350.91,-900.15 1521.21,-682.53 1521.21,-682.53 1521.21,-682.53 1571.41,-618.46 1600.54,-581.29"/>
<polygon fill="#6666ff" stroke="#6666ff" points="1603.34,-583.39 1606.75,-573.36 1597.83,-579.07 1603.34,-583.39"/>
</g>
<!-- Metamodel::ClassHOW&#45;&gt;Metamodel::BoolificationProtocol -->
<g id="edge56" class="edge">
<title>Metamodel::ClassHOW&#45;&gt;Metamodel::BoolificationProtocol</title>
<path fill="none" stroke="#6666ff" d="M1332.36,-966.37C1415.71,-936.9 1591.52,-874.74 1682.61,-842.53"/>
<polygon fill="#6666ff" stroke="#6666ff" points="1683.97,-845.76 1692.23,-839.13 1681.63,-839.16 1683.97,-845.76"/>
</g>
<!-- Metamodel::ClassHOW&#45;&gt;Metamodel::Mixins -->
<g id="edge55" class="edge">
<title>Metamodel::ClassHOW&#45;&gt;Metamodel::Mixins</title>
<path fill="none" stroke="#6666ff" d="M1374.96,-973.34C1432.94,-967.26 1508.33,-959.35 1565.89,-953.31"/>
<polygon fill="#6666ff" stroke="#6666ff" points="1566.47,-956.77 1576.05,-952.25 1565.74,-949.81 1566.47,-956.77"/>
</g>
<!-- Metamodel::ClassHOW&#45;&gt;Metamodel::Documenting -->
<g id="edge39" class="edge">
<title>Metamodel::ClassHOW&#45;&gt;Metamodel::Documenting</title>
<path fill="none" stroke="#6666ff" d="M1243.08,-966.17C1134.4,-924.82 850.19,-816.68 731.3,-771.45"/>
<polygon fill="#6666ff" stroke="#6666ff" points="732.27,-768.07 721.68,-767.79 729.78,-774.62 732.27,-768.07"/>
</g>
<!-- Metamodel::ClassHOW&#45;&gt;Metamodel::Versioning -->
<g id="edge40" class="edge">
<title>Metamodel::ClassHOW&#45;&gt;Metamodel::Versioning</title>
<path fill="none" stroke="#6666ff" d="M1258.93,-1000.11C1169.32,-1057.22 885.13,-1238.31 784.19,-1302.63"/>
<polygon fill="#6666ff" stroke="#6666ff" points="782.12,-1299.8 775.56,-1308.13 785.88,-1305.7 782.12,-1299.8"/>
</g>
<!-- Metamodel::ClassHOW&#45;&gt;Metamodel::PrivateMethodContainer -->
<g id="edge45" class="edge">
<title>Metamodel::ClassHOW&#45;&gt;Metamodel::PrivateMethodContainer</title>
<path fill="none" stroke="#6666ff" d="M1267,-1000.51C1214.34,-1049.13 1072.45,-1180.14 1072.45,-1180.14 1072.45,-1180.14 1047.76,-1299.87 1036.26,-1355.67"/>
<polygon fill="#6666ff" stroke="#6666ff" points="1032.8,-1355.12 1034.21,-1365.62 1039.65,-1356.53 1032.8,-1355.12"/>
</g>
<!-- Metamodel::ClassHOW&#45;&gt;Metamodel::MultipleInheritance -->
<g id="edge48" class="edge">
<title>Metamodel::ClassHOW&#45;&gt;Metamodel::MultipleInheritance</title>
<path fill="none" stroke="#6666ff" d="M1266.13,-1000.36C1187.05,-1069.64 898.61,-1322.34 806.71,-1402.86"/>
<polygon fill="#6666ff" stroke="#6666ff" points="804.15,-1400.45 798.93,-1409.67 808.76,-1405.71 804.15,-1400.45"/>
</g>
<!-- Metamodel::ClassHOW&#45;&gt;Metamodel::Finalization -->
<g id="edge43" class="edge">
<title>Metamodel::ClassHOW&#45;&gt;Metamodel::Finalization</title>
<path fill="none" stroke="#6666ff" d="M1295.12,-1000.86C1330.75,-1075.03 1464.96,-1354.38 1507.57,-1443.09"/>
<polygon fill="#6666ff" stroke="#6666ff" points="1504.48,-1444.74 1511.97,-1452.24 1510.79,-1441.71 1504.48,-1444.74"/>
</g>
<!-- Metamodel::ClassHOW&#45;&gt;Metamodel::DefaultParent -->
<g id="edge49" class="edge">
<title>Metamodel::ClassHOW&#45;&gt;Metamodel::DefaultParent</title>
<path fill="none" stroke="#6666ff" d="M1288.34,-1000.79C1297.41,-1083.84 1334.99,-1427.86 1346.06,-1529.27"/>
<polygon fill="#6666ff" stroke="#6666ff" points="1342.6,-1529.8 1347.17,-1539.36 1349.56,-1529.04 1342.6,-1529.8"/>
</g>
<!-- Metamodel::ClassHOW&#45;&gt;Metamodel::C3MRO -->
<g id="edge50" class="edge">
<title>Metamodel::ClassHOW&#45;&gt;Metamodel::C3MRO</title>
<path fill="none" stroke="#6666ff" d="M1327.02,-999.33C1416.87,-1036.23 1632.04,-1124.61 1729.11,-1164.47"/>
<polygon fill="#6666ff" stroke="#6666ff" points="1727.82,-1167.73 1738.4,-1168.29 1730.48,-1161.25 1727.82,-1167.73"/>
</g>
<!-- Metamodel::ClassHOW&#45;&gt;Metamodel::Trusting -->
<g id="edge53" class="edge">
<title>Metamodel::ClassHOW&#45;&gt;Metamodel::Trusting</title>
<path fill="none" stroke="#6666ff" d="M1304.9,-1000.59C1366.3,-1060.09 1563.19,-1250.83 1634.28,-1319.7"/>
<polygon fill="#6666ff" stroke="#6666ff" points="1631.92,-1322.29 1641.53,-1326.73 1636.79,-1317.26 1631.92,-1322.29"/>
</g>
</g>
</svg>
