<?xml version="1.0" encoding="UTF-8" standalone="no"?>
<!DOCTYPE svg PUBLIC "-//W3C//DTD SVG 1.1//EN"
 "http://www.w3.org/Graphics/SVG/1.1/DTD/svg11.dtd">
<!-- Generated by graphviz version 2.43.0 (0)
 -->
<!-- Title: perl6&#45;type&#45;graph Pages: 1 -->
<svg width="504pt" height="332pt"
 viewBox="0.00 0.00 504.44 332.00" xmlns="http://www.w3.org/2000/svg" xmlns:xlink="http://www.w3.org/1999/xlink">
<g id="graph0" class="graph" transform="scale(1 1) rotate(0) translate(4 328)">
<title>perl6&#45;type&#45;graph</title>
<polygon fill="white" stroke="transparent" points="-4,4 -4,-328 500.44,-328 500.44,4 -4,4"/>
<!-- QuantHash -->
<g id="node1" class="node">
<title>QuantHash</title>
<g id="a_node1"><a xlink:href="/type/QuantHash" xlink:title="QuantHash">
<ellipse fill="none" stroke="#6666ff" cx="355.2" cy="-234" rx="55.79" ry="18"/>
<text text-anchor="middle" x="355.2" y="-230.3" font-family="FreeSans" font-size="14.00" fill="#6666ff">QuantHash</text>
</a>
</g>
</g>
<!-- Associative -->
<g id="node2" class="node">
<title>Associative</title>
<g id="a_node2"><a xlink:href="/type/Associative" xlink:title="Associative">
<ellipse fill="none" stroke="#6666ff" cx="355.2" cy="-306" rx="55.49" ry="18"/>
<text text-anchor="middle" x="355.2" y="-302.3" font-family="FreeSans" font-size="14.00" fill="#6666ff">Associative</text>
</a>
</g>
</g>
<!-- QuantHash&#45;&gt;Associative -->
<g id="edge8" class="edge">
<title>QuantHash&#45;&gt;Associative</title>
<path fill="none" stroke="#6666ff" d="M355.2,-252.3C355.2,-260.02 355.2,-269.29 355.2,-277.89"/>
<polygon fill="#6666ff" stroke="#6666ff" points="351.7,-277.9 355.2,-287.9 358.7,-277.9 351.7,-277.9"/>
</g>
<!-- Baggy -->
<g id="node3" class="node">
<title>Baggy</title>
<g id="a_node3"><a xlink:href="/type/Baggy" xlink:title="Baggy">
<ellipse fill="none" stroke="#6666ff" cx="374.2" cy="-162" rx="36" ry="18"/>
<text text-anchor="middle" x="374.2" y="-158.3" font-family="FreeSans" font-size="14.00" fill="#6666ff">Baggy</text>
</a>
</g>
</g>
<!-- Baggy&#45;&gt;QuantHash -->
<g id="edge9" class="edge">
<title>Baggy&#45;&gt;QuantHash</title>
<path fill="none" stroke="#6666ff" d="M369.6,-179.95C367.48,-187.74 364.92,-197.18 362.55,-205.92"/>
<polygon fill="#6666ff" stroke="#6666ff" points="359.13,-205.16 359.89,-215.72 365.88,-206.99 359.13,-205.16"/>
</g>
<!-- Setty -->
<g id="node4" class="node">
<title>Setty</title>
<g id="a_node4"><a xlink:href="/type/Setty" xlink:title="Setty">
<ellipse fill="none" stroke="#6666ff" cx="133.2" cy="-162" rx="30.59" ry="18"/>
<text text-anchor="middle" x="133.2" y="-158.3" font-family="FreeSans" font-size="14.00" fill="#6666ff">Setty</text>
</a>
</g>
</g>
<!-- Setty&#45;&gt;QuantHash -->
<g id="edge10" class="edge">
<title>Setty&#45;&gt;QuantHash</title>
<path fill="none" stroke="#6666ff" d="M158.6,-172C170.12,-176.08 181.2,-180 181.2,-180 181.2,-180 255.02,-202.49 306.5,-218.17"/>
<polygon fill="#6666ff" stroke="#6666ff" points="305.56,-221.54 316.15,-221.11 307.6,-214.84 305.56,-221.54"/>
</g>
<!-- Mixy -->
<g id="node5" class="node">
<title>Mixy</title>
<g id="a_node5"><a xlink:href="/type/Mixy" xlink:title="Mixy">
<ellipse fill="none" stroke="#6666ff" cx="467.2" cy="-90" rx="29.5" ry="18"/>
<text text-anchor="middle" x="467.2" y="-86.3" font-family="FreeSans" font-size="14.00" fill="#6666ff">Mixy</text>
</a>
</g>
</g>
<!-- Mixy&#45;&gt;Baggy -->
<g id="edge11" class="edge">
<title>Mixy&#45;&gt;Baggy</title>
<path fill="none" stroke="#6666ff" d="M449.26,-104.5C435.73,-114.69 416.91,-128.85 401.51,-140.44"/>
<polygon fill="#6666ff" stroke="#6666ff" points="399.24,-137.77 393.35,-146.58 403.45,-143.36 399.24,-137.77"/>
</g>
<!-- Mu -->
<g id="node6" class="node">
<title>Mu</title>
<g id="a_node6"><a xlink:href="/type/Mu" xlink:title="Mu">
<ellipse fill="none" stroke="#000000" cx="217.2" cy="-234" rx="27" ry="18"/>
<text text-anchor="middle" x="217.2" y="-230.3" font-family="FreeSans" font-size="14.00" fill="#000000">Mu</text>
</a>
</g>
</g>
<!-- Any -->
<g id="node7" class="node">
<title>Any</title>
<g id="a_node7"><a xlink:href="/type/Any" xlink:title="Any">
<ellipse fill="none" stroke="#000000" cx="217.2" cy="-162" rx="27" ry="18"/>
<text text-anchor="middle" x="217.2" y="-158.3" font-family="FreeSans" font-size="14.00" fill="#000000">Any</text>
</a>
</g>
</g>
<!-- Any&#45;&gt;Mu -->
<g id="edge1" class="edge">
<title>Any&#45;&gt;Mu</title>
<path fill="none" stroke="#000000" d="M217.2,-180.3C217.2,-188.02 217.2,-197.29 217.2,-205.89"/>
<polygon fill="#000000" stroke="#000000" points="213.7,-205.9 217.2,-215.9 220.7,-205.9 213.7,-205.9"/>
</g>
<!-- Bag -->
<g id="node8" class="node">
<title>Bag</title>
<g id="a_node8"><a xlink:href="/type/Bag" xlink:title="Bag">
<ellipse fill="none" stroke="#000000" cx="393.2" cy="-90" rx="27" ry="18"/>
<text text-anchor="middle" x="393.2" y="-86.3" font-family="FreeSans" font-size="14.00" fill="#000000">Bag</text>
</a>
</g>
</g>
<!-- Bag&#45;&gt;Baggy -->
<g id="edge12" class="edge">
<title>Bag&#45;&gt;Baggy</title>
<path fill="none" stroke="#6666ff" d="M388.6,-107.95C386.48,-115.74 383.92,-125.18 381.55,-133.92"/>
<polygon fill="#6666ff" stroke="#6666ff" points="378.13,-133.16 378.89,-143.72 384.88,-134.99 378.13,-133.16"/>
</g>
<!-- Bag&#45;&gt;Any -->
<g id="edge2" class="edge">
<title>Bag&#45;&gt;Any</title>
<path fill="none" stroke="#000000" d="M371.84,-101.09C364.09,-104.75 357.2,-108 357.2,-108 357.2,-108 291.1,-133.02 249.74,-148.68"/>
<polygon fill="#000000" stroke="#000000" points="248.43,-145.43 240.31,-152.25 250.91,-151.98 248.43,-145.43"/>
</g>
<!-- BagHash -->
<g id="node9" class="node">
<title>BagHash</title>
<g id="a_node9"><a xlink:href="/type/BagHash" xlink:title="BagHash">
<ellipse fill="none" stroke="#000000" cx="301.2" cy="-90" rx="46.59" ry="18"/>
<text text-anchor="middle" x="301.2" y="-86.3" font-family="FreeSans" font-size="14.00" fill="#000000">BagHash</text>
</a>
</g>
</g>
<!-- BagHash&#45;&gt;Baggy -->
<g id="edge13" class="edge">
<title>BagHash&#45;&gt;Baggy</title>
<path fill="none" stroke="#6666ff" d="M317.76,-106.88C327.51,-116.23 340,-128.21 350.74,-138.51"/>
<polygon fill="#6666ff" stroke="#6666ff" points="348.56,-141.26 358.2,-145.66 353.4,-136.21 348.56,-141.26"/>
</g>
<!-- BagHash&#45;&gt;Any -->
<g id="edge3" class="edge">
<title>BagHash&#45;&gt;Any</title>
<path fill="none" stroke="#000000" d="M282.55,-106.54C270.39,-116.68 254.38,-130.01 241.26,-140.95"/>
<polygon fill="#000000" stroke="#000000" points="238.96,-138.31 233.52,-147.4 243.44,-143.69 238.96,-138.31"/>
</g>
<!-- SetHash -->
<g id="node10" class="node">
<title>SetHash</title>
<g id="a_node10"><a xlink:href="/type/SetHash" xlink:title="SetHash">
<ellipse fill="none" stroke="#000000" cx="44.2" cy="-90" rx="44.39" ry="18"/>
<text text-anchor="middle" x="44.2" y="-86.3" font-family="FreeSans" font-size="14.00" fill="#000000">SetHash</text>
</a>
</g>
</g>
<!-- SetHash&#45;&gt;Setty -->
<g id="edge14" class="edge">
<title>SetHash&#45;&gt;Setty</title>
<path fill="none" stroke="#6666ff" d="M63.95,-106.54C76.76,-116.61 93.57,-129.84 107.43,-140.73"/>
<polygon fill="#6666ff" stroke="#6666ff" points="105.59,-143.74 115.61,-147.17 109.91,-138.23 105.59,-143.74"/>
</g>
<!-- SetHash&#45;&gt;Any -->
<g id="edge4" class="edge">
<title>SetHash&#45;&gt;Any</title>
<path fill="none" stroke="#000000" d="M74.33,-103.19C105.25,-115.71 153.2,-135.11 184.89,-147.93"/>
<polygon fill="#000000" stroke="#000000" points="183.99,-151.34 194.57,-151.84 186.61,-144.85 183.99,-151.34"/>
</g>
<!-- Set -->
<g id="node11" class="node">
<title>Set</title>
<g id="a_node11"><a xlink:href="/type/Set" xlink:title="Set">
<ellipse fill="none" stroke="#000000" cx="133.2" cy="-90" rx="27" ry="18"/>
<text text-anchor="middle" x="133.2" y="-86.3" font-family="FreeSans" font-size="14.00" fill="#000000">Set</text>
</a>
</g>
</g>
<!-- Set&#45;&gt;Setty -->
<g id="edge15" class="edge">
<title>Set&#45;&gt;Setty</title>
<path fill="none" stroke="#6666ff" d="M133.2,-108.3C133.2,-116.02 133.2,-125.29 133.2,-133.89"/>
<polygon fill="#6666ff" stroke="#6666ff" points="129.7,-133.9 133.2,-143.9 136.7,-133.9 129.7,-133.9"/>
</g>
<!-- Set&#45;&gt;Any -->
<g id="edge5" class="edge">
<title>Set&#45;&gt;Any</title>
<path fill="none" stroke="#000000" d="M149.39,-104.5C161.83,-114.86 179.19,-129.33 193.23,-141.03"/>
<polygon fill="#000000" stroke="#000000" points="191.13,-143.83 201.05,-147.54 195.61,-138.45 191.13,-143.83"/>
</g>
<!-- Mix -->
<g id="node12" class="node">
<title>Mix</title>
<g id="a_node12"><a xlink:href="/type/Mix" xlink:title="Mix">
<ellipse fill="none" stroke="#000000" cx="419.2" cy="-18" rx="27" ry="18"/>
<text text-anchor="middle" x="419.2" y="-14.3" font-family="FreeSans" font-size="14.00" fill="#000000">Mix</text>
</a>
</g>
</g>
<!-- Mix&#45;&gt;Mixy -->
<g id="edge16" class="edge">
<title>Mix&#45;&gt;Mixy</title>
<path fill="none" stroke="#6666ff" d="M430.09,-34.88C436.16,-43.74 443.86,-54.96 450.66,-64.88"/>
<polygon fill="#6666ff" stroke="#6666ff" points="447.81,-66.91 456.35,-73.18 453.58,-62.95 447.81,-66.91"/>
</g>
<!-- Mix&#45;&gt;Any -->
<g id="edge6" class="edge">
<title>Mix&#45;&gt;Any</title>
<path fill="none" stroke="#000000" d="M395,-26.37C347.19,-40.93 245.2,-72 245.2,-72 245.2,-72 233.8,-108.22 225.55,-134.45"/>
<polygon fill="#000000" stroke="#000000" points="222.13,-133.67 222.46,-144.26 228.8,-135.77 222.13,-133.67"/>
</g>
<!-- MixHash -->
<g id="node13" class="node">
<title>MixHash</title>
<g id="a_node13"><a xlink:href="/type/MixHash" xlink:title="MixHash">
<ellipse fill="none" stroke="#000000" cx="282.2" cy="-18" rx="45.49" ry="18"/>
<text text-anchor="middle" x="282.2" y="-14.3" font-family="FreeSans" font-size="14.00" fill="#000000">MixHash</text>
</a>
</g>
</g>
<!-- MixHash&#45;&gt;Mixy -->
<g id="edge17" class="edge">
<title>MixHash&#45;&gt;Mixy</title>
<path fill="none" stroke="#6666ff" d="M314.82,-30.76C358.13,-46.38 429.2,-72 429.2,-72 429.2,-72 431.54,-73.05 435.07,-74.63"/>
<polygon fill="#6666ff" stroke="#6666ff" points="433.66,-77.83 444.21,-78.72 436.52,-71.44 433.66,-77.83"/>
</g>
<!-- MixHash&#45;&gt;Any -->
<g id="edge7" class="edge">
<title>MixHash&#45;&gt;Any</title>
<path fill="none" stroke="#000000" d="M261.95,-34.33C241.28,-49.98 212.2,-72 212.2,-72 212.2,-72 212.2,-108 212.2,-108 212.2,-108 213.4,-120.73 214.62,-133.71"/>
<polygon fill="#000000" stroke="#000000" points="211.16,-134.31 215.59,-143.94 218.13,-133.65 211.16,-134.31"/>
</g>
</g>
</svg>
