<?xml version="1.0" encoding="UTF-8" standalone="no"?>
<!DOCTYPE svg PUBLIC "-//W3C//DTD SVG 1.1//EN"
 "http://www.w3.org/Graphics/SVG/1.1/DTD/svg11.dtd">
<!-- Generated by graphviz version 2.43.0 (0)
 -->
<!-- Title: perl6&#45;type&#45;graph Pages: 1 -->
<svg width="1818pt" height="404pt"
 viewBox="0.00 0.00 1818.39 404.00" xmlns="http://www.w3.org/2000/svg" xmlns:xlink="http://www.w3.org/1999/xlink">
<g id="graph0" class="graph" transform="scale(1 1) rotate(0) translate(4 400)">
<title>perl6&#45;type&#45;graph</title>
<polygon fill="white" stroke="transparent" points="-4,4 -4,-400 1814.39,-400 1814.39,4 -4,4"/>
<!-- X::IO -->
<g id="node1" class="node">
<title>X::IO</title>
<g id="a_node1"><a xlink:href="/type/X::IO" xlink:title="X::IO">
<ellipse fill="none" stroke="#6666ff" cx="918.3" cy="-90" rx="31.4" ry="18"/>
<text text-anchor="middle" x="918.3" y="-86.3" font-family="FreeSans" font-size="14.00" fill="#6666ff">X::IO</text>
</a>
</g>
</g>
<!-- Exception -->
<g id="node4" class="node">
<title>Exception</title>
<g id="a_node4"><a xlink:href="/type/Exception" xlink:title="Exception">
<ellipse fill="none" stroke="#000000" cx="995.3" cy="-234" rx="49.29" ry="18"/>
<text text-anchor="middle" x="995.3" y="-230.3" font-family="FreeSans" font-size="14.00" fill="#000000">Exception</text>
</a>
</g>
</g>
<!-- X::IO&#45;&gt;Exception -->
<g id="edge1" class="edge">
<title>X::IO&#45;&gt;Exception</title>
<path fill="none" stroke="#000000" d="M926.76,-107.74C939.79,-133.52 963.3,-180 963.3,-180 963.3,-180 971.71,-193.93 979.9,-207.51"/>
<polygon fill="#000000" stroke="#000000" points="977.01,-209.48 985.17,-216.23 983,-205.86 977.01,-209.48"/>
</g>
<!-- X::OS -->
<g id="node5" class="node">
<title>X::OS</title>
<g id="a_node5"><a xlink:href="/type/X::OS" xlink:title="X::OS">
<ellipse fill="none" stroke="#6666ff" cx="877.3" cy="-162" rx="34.39" ry="18"/>
<text text-anchor="middle" x="877.3" y="-158.3" font-family="FreeSans" font-size="14.00" fill="#6666ff">X::OS</text>
</a>
</g>
</g>
<!-- X::IO&#45;&gt;X::OS -->
<g id="edge41" class="edge">
<title>X::IO&#45;&gt;X::OS</title>
<path fill="none" stroke="#6666ff" d="M908.79,-107.24C903.84,-115.68 897.68,-126.2 892.12,-135.69"/>
<polygon fill="#6666ff" stroke="#6666ff" points="889.07,-133.97 887.04,-144.37 895.11,-137.51 889.07,-133.97"/>
</g>
<!-- Mu -->
<g id="node2" class="node">
<title>Mu</title>
<g id="a_node2"><a xlink:href="/type/Mu" xlink:title="Mu">
<ellipse fill="none" stroke="#000000" cx="995.3" cy="-378" rx="27" ry="18"/>
<text text-anchor="middle" x="995.3" y="-374.3" font-family="FreeSans" font-size="14.00" fill="#000000">Mu</text>
</a>
</g>
</g>
<!-- Any -->
<g id="node3" class="node">
<title>Any</title>
<g id="a_node3"><a xlink:href="/type/Any" xlink:title="Any">
<ellipse fill="none" stroke="#000000" cx="995.3" cy="-306" rx="27" ry="18"/>
<text text-anchor="middle" x="995.3" y="-302.3" font-family="FreeSans" font-size="14.00" fill="#000000">Any</text>
</a>
</g>
</g>
<!-- Any&#45;&gt;Mu -->
<g id="edge2" class="edge">
<title>Any&#45;&gt;Mu</title>
<path fill="none" stroke="#000000" d="M995.3,-324.3C995.3,-332.02 995.3,-341.29 995.3,-349.89"/>
<polygon fill="#000000" stroke="#000000" points="991.8,-349.9 995.3,-359.9 998.8,-349.9 991.8,-349.9"/>
</g>
<!-- Exception&#45;&gt;Any -->
<g id="edge3" class="edge">
<title>Exception&#45;&gt;Any</title>
<path fill="none" stroke="#000000" d="M995.3,-252.3C995.3,-260.02 995.3,-269.29 995.3,-277.89"/>
<polygon fill="#000000" stroke="#000000" points="991.8,-277.9 995.3,-287.9 998.8,-277.9 991.8,-277.9"/>
</g>
<!-- X::OS&#45;&gt;Exception -->
<g id="edge4" class="edge">
<title>X::OS&#45;&gt;Exception</title>
<path fill="none" stroke="#000000" d="M899.21,-176C916.78,-186.43 941.73,-201.23 961.8,-213.13"/>
<polygon fill="#000000" stroke="#000000" points="960.25,-216.28 970.64,-218.37 963.82,-210.26 960.25,-216.28"/>
</g>
<!-- X::IO::Link -->
<g id="node6" class="node">
<title>X::IO::Link</title>
<g id="a_node6"><a xlink:href="/type/X::IO::Link" xlink:title="X::IO::Link">
<ellipse fill="none" stroke="#000000" cx="53.3" cy="-18" rx="53.09" ry="18"/>
<text text-anchor="middle" x="53.3" y="-14.3" font-family="FreeSans" font-size="14.00" fill="#000000">X::IO::Link</text>
</a>
</g>
</g>
<!-- X::IO::Link&#45;&gt;X::IO -->
<g id="edge42" class="edge">
<title>X::IO::Link&#45;&gt;X::IO</title>
<path fill="none" stroke="#6666ff" d="M93.26,-29.96C105.26,-33.25 115.3,-36 115.3,-36 115.3,-36 713.19,-75.46 877.15,-86.28"/>
<polygon fill="#6666ff" stroke="#6666ff" points="877.1,-89.79 887.31,-86.95 877.56,-82.8 877.1,-89.79"/>
</g>
<!-- X::IO::Link&#45;&gt;Exception -->
<g id="edge5" class="edge">
<title>X::IO::Link&#45;&gt;Exception</title>
<path fill="none" stroke="#000000" d="M88.17,-31.63C199.51,-69.59 538.3,-180 538.3,-180 538.3,-180 816.08,-212.86 938.57,-226.83"/>
<polygon fill="#000000" stroke="#000000" points="938.19,-230.31 948.52,-227.97 938.98,-223.36 938.19,-230.31"/>
</g>
<!-- X::IO::Link&#45;&gt;Exception -->
<g id="edge6" class="edge">
<title>X::IO::Link&#45;&gt;Exception</title>
<path fill="none" stroke="#000000" d="M92.15,-30.45C210.29,-67.23 556.3,-180 556.3,-180 556.3,-180 820.96,-211.31 939.35,-225.8"/>
<polygon fill="#000000" stroke="#000000" points="938.97,-229.28 949.32,-227.02 939.82,-222.33 938.97,-229.28"/>
</g>
<!-- X::IO::DoesNotExist -->
<g id="node7" class="node">
<title>X::IO::DoesNotExist</title>
<g id="a_node7"><a xlink:href="/type/X::IO::DoesNotExist" xlink:title="X::IO::DoesNotExist">
<ellipse fill="none" stroke="#000000" cx="214.3" cy="-18" rx="89.88" ry="18"/>
<text text-anchor="middle" x="214.3" y="-14.3" font-family="FreeSans" font-size="14.00" fill="#000000">X::IO::DoesNotExist</text>
</a>
</g>
</g>
<!-- X::IO::DoesNotExist&#45;&gt;X::IO -->
<g id="edge43" class="edge">
<title>X::IO::DoesNotExist&#45;&gt;X::IO</title>
<path fill="none" stroke="#6666ff" d="M280.05,-30.29C298.34,-33.43 313.3,-36 313.3,-36 313.3,-36 741.57,-73.52 877.45,-85.42"/>
<polygon fill="#6666ff" stroke="#6666ff" points="877.19,-88.91 887.46,-86.3 877.81,-81.94 877.19,-88.91"/>
</g>
<!-- X::IO::DoesNotExist&#45;&gt;Exception -->
<g id="edge7" class="edge">
<title>X::IO::DoesNotExist&#45;&gt;Exception</title>
<path fill="none" stroke="#000000" d="M251.19,-34.44C353.8,-74.73 634.3,-180 634.3,-180 634.3,-180 838.13,-210.69 939.54,-225.36"/>
<polygon fill="#000000" stroke="#000000" points="939.22,-228.85 949.62,-226.82 940.22,-221.92 939.22,-228.85"/>
</g>
<!-- X::IO::DoesNotExist&#45;&gt;Exception -->
<g id="edge8" class="edge">
<title>X::IO::DoesNotExist&#45;&gt;Exception</title>
<path fill="none" stroke="#000000" d="M258.06,-33.86C369.09,-73.71 652.3,-180 652.3,-180 652.3,-180 844.77,-208.98 941.42,-224.08"/>
<polygon fill="#000000" stroke="#000000" points="940.89,-227.54 951.31,-225.63 941.97,-220.62 940.89,-227.54"/>
</g>
<!-- X::IO::Move -->
<g id="node8" class="node">
<title>X::IO::Move</title>
<g id="a_node8"><a xlink:href="/type/X::IO::Move" xlink:title="X::IO::Move">
<ellipse fill="none" stroke="#000000" cx="380.3" cy="-18" rx="57.69" ry="18"/>
<text text-anchor="middle" x="380.3" y="-14.3" font-family="FreeSans" font-size="14.00" fill="#000000">X::IO::Move</text>
</a>
</g>
</g>
<!-- X::IO::Move&#45;&gt;X::IO -->
<g id="edge44" class="edge">
<title>X::IO::Move&#45;&gt;X::IO</title>
<path fill="none" stroke="#6666ff" d="M423.86,-30.05C436.66,-33.3 447.3,-36 447.3,-36 447.3,-36 763.34,-71.56 877.65,-84.43"/>
<polygon fill="#6666ff" stroke="#6666ff" points="877.43,-87.92 887.75,-85.56 878.21,-80.97 877.43,-87.92"/>
</g>
<!-- X::IO::Move&#45;&gt;Exception -->
<g id="edge9" class="edge">
<title>X::IO::Move&#45;&gt;Exception</title>
<path fill="none" stroke="#000000" d="M407.79,-34C487.38,-73.97 711.3,-180 711.3,-180 711.3,-180 859.09,-208.48 941.53,-223.69"/>
<polygon fill="#000000" stroke="#000000" points="941.02,-227.15 951.49,-225.52 942.28,-220.27 941.02,-227.15"/>
</g>
<!-- X::IO::Move&#45;&gt;Exception -->
<g id="edge10" class="edge">
<title>X::IO::Move&#45;&gt;Exception</title>
<path fill="none" stroke="#000000" d="M413.63,-32.87C501.05,-71.92 729.3,-180 729.3,-180 729.3,-180 866.58,-206.46 943.98,-221.99"/>
<polygon fill="#000000" stroke="#000000" points="943.53,-225.47 954.02,-224.01 944.91,-218.6 943.53,-225.47"/>
</g>
<!-- X::IO::Cwd -->
<g id="node9" class="node">
<title>X::IO::Cwd</title>
<g id="a_node9"><a xlink:href="/type/X::IO::Cwd" xlink:title="X::IO::Cwd">
<ellipse fill="none" stroke="#000000" cx="510.3" cy="-18" rx="53.89" ry="18"/>
<text text-anchor="middle" x="510.3" y="-14.3" font-family="FreeSans" font-size="14.00" fill="#000000">X::IO::Cwd</text>
</a>
</g>
</g>
<!-- X::IO::Cwd&#45;&gt;X::IO -->
<g id="edge45" class="edge">
<title>X::IO::Cwd&#45;&gt;X::IO</title>
<path fill="none" stroke="#6666ff" d="M550.61,-30.05C562.45,-33.3 572.3,-36 572.3,-36 572.3,-36 787.65,-68.99 878.56,-82.91"/>
<polygon fill="#6666ff" stroke="#6666ff" points="878.08,-86.38 888.5,-84.44 879.14,-79.46 878.08,-86.38"/>
</g>
<!-- X::IO::Cwd&#45;&gt;Exception -->
<g id="edge11" class="edge">
<title>X::IO::Cwd&#45;&gt;Exception</title>
<path fill="none" stroke="#000000" d="M528.75,-35.03C588.17,-75.75 764.3,-180 764.3,-180 764.3,-180 873.99,-207.3 942.59,-222.71"/>
<polygon fill="#000000" stroke="#000000" points="941.87,-226.14 952.4,-224.89 943.4,-219.3 941.87,-226.14"/>
</g>
<!-- X::IO::Cwd&#45;&gt;Exception -->
<g id="edge12" class="edge">
<title>X::IO::Cwd&#45;&gt;Exception</title>
<path fill="none" stroke="#000000" d="M535.88,-34.15C603.6,-74.23 782.3,-180 782.3,-180 782.3,-180 883.06,-205.07 945.98,-220.73"/>
<polygon fill="#000000" stroke="#000000" points="945.18,-224.14 955.73,-223.16 946.87,-217.34 945.18,-224.14"/>
</g>
<!-- X::IO::Cwd&#45;&gt;Exception -->
<g id="edge13" class="edge">
<title>X::IO::Cwd&#45;&gt;Exception</title>
<path fill="none" stroke="#000000" d="M541.55,-32.73C617.26,-71.66 800.3,-180 800.3,-180 800.3,-180 892.32,-202.9 950.28,-218.59"/>
<polygon fill="#000000" stroke="#000000" points="949.4,-221.98 959.97,-221.24 951.25,-215.23 949.4,-221.98"/>
</g>
<!-- X::IO::Rename -->
<g id="node10" class="node">
<title>X::IO::Rename</title>
<g id="a_node10"><a xlink:href="/type/X::IO::Rename" xlink:title="X::IO::Rename">
<ellipse fill="none" stroke="#000000" cx="651.3" cy="-18" rx="69.59" ry="18"/>
<text text-anchor="middle" x="651.3" y="-14.3" font-family="FreeSans" font-size="14.00" fill="#000000">X::IO::Rename</text>
</a>
</g>
</g>
<!-- X::IO::Rename&#45;&gt;X::IO -->
<g id="edge46" class="edge">
<title>X::IO::Rename&#45;&gt;X::IO</title>
<path fill="none" stroke="#6666ff" d="M698.41,-31.35C750.3,-44.96 832.69,-66.56 880.51,-79.09"/>
<polygon fill="#6666ff" stroke="#6666ff" points="879.9,-82.55 890.46,-81.7 881.67,-75.78 879.9,-82.55"/>
</g>
<!-- X::IO::Rename&#45;&gt;Exception -->
<g id="edge14" class="edge">
<title>X::IO::Rename&#45;&gt;Exception</title>
<path fill="none" stroke="#000000" d="M660.55,-35.93C695.54,-77.26 805.3,-180 805.3,-180 805.3,-180 887.85,-205.44 944.55,-221.07"/>
<polygon fill="#000000" stroke="#000000" points="943.9,-224.52 954.46,-223.77 945.74,-217.76 943.9,-224.52"/>
</g>
<!-- X::IO::Rename&#45;&gt;Exception -->
<g id="edge15" class="edge">
<title>X::IO::Rename&#45;&gt;Exception</title>
<path fill="none" stroke="#000000" d="M669.05,-35.62C713,-76.76 823.3,-180 823.3,-180 823.3,-180 898.03,-203.03 948.98,-218.73"/>
<polygon fill="#000000" stroke="#000000" points="948.23,-222.16 958.82,-221.76 950.29,-215.47 948.23,-222.16"/>
</g>
<!-- X::IO::Rename&#45;&gt;Exception -->
<g id="edge16" class="edge">
<title>X::IO::Rename&#45;&gt;Exception</title>
<path fill="none" stroke="#000000" d="M677.04,-35.03C729.92,-75.75 841.3,-180 841.3,-180 841.3,-180 909.08,-200.89 955.09,-216.44"/>
<polygon fill="#000000" stroke="#000000" points="954.23,-219.84 964.83,-219.76 956.5,-213.22 954.23,-219.84"/>
</g>
<!-- X::IO::Mkdir -->
<g id="node11" class="node">
<title>X::IO::Mkdir</title>
<g id="a_node11"><a xlink:href="/type/X::IO::Mkdir" xlink:title="X::IO::Mkdir">
<ellipse fill="none" stroke="#000000" cx="797.3" cy="-18" rx="58.49" ry="18"/>
<text text-anchor="middle" x="797.3" y="-14.3" font-family="FreeSans" font-size="14.00" fill="#000000">X::IO::Mkdir</text>
</a>
</g>
</g>
<!-- X::IO::Mkdir&#45;&gt;X::IO -->
<g id="edge47" class="edge">
<title>X::IO::Mkdir&#45;&gt;X::IO</title>
<path fill="none" stroke="#6666ff" d="M823.55,-34.19C842.6,-45.21 868.4,-60.13 888.26,-71.63"/>
<polygon fill="#6666ff" stroke="#6666ff" points="886.52,-74.66 896.93,-76.64 890.03,-68.6 886.52,-74.66"/>
</g>
<!-- X::IO::Mkdir&#45;&gt;Exception -->
<g id="edge17" class="edge">
<title>X::IO::Mkdir&#45;&gt;Exception</title>
<path fill="none" stroke="#000000" d="M792.36,-36.23C792.8,-77.76 816.3,-180 816.3,-180 816.3,-180 892.02,-204.93 945.41,-220.59"/>
<polygon fill="#000000" stroke="#000000" points="944.52,-223.98 955.1,-223.4 946.47,-217.26 944.52,-223.98"/>
</g>
<!-- X::IO::Mkdir&#45;&gt;Exception -->
<g id="edge18" class="edge">
<title>X::IO::Mkdir&#45;&gt;Exception</title>
<path fill="none" stroke="#000000" d="M801.25,-36.23C810.8,-77.76 834.3,-180 834.3,-180 834.3,-180 902.81,-202.55 950.44,-218.24"/>
<polygon fill="#000000" stroke="#000000" points="949.37,-221.57 959.96,-221.37 951.56,-214.92 949.37,-221.57"/>
</g>
<!-- X::IO::Mkdir&#45;&gt;Exception -->
<g id="edge19" class="edge">
<title>X::IO::Mkdir&#45;&gt;Exception</title>
<path fill="none" stroke="#000000" d="M809.87,-35.62C828.57,-76.76 852.3,-180 852.3,-180 852.3,-180 914.12,-200.35 956.87,-215.83"/>
<polygon fill="#000000" stroke="#000000" points="955.88,-219.2 966.47,-219.35 958.28,-212.63 955.88,-219.2"/>
</g>
<!-- X::IO::Chmod -->
<g id="node12" class="node">
<title>X::IO::Chmod</title>
<g id="a_node12"><a xlink:href="/type/X::IO::Chmod" xlink:title="X::IO::Chmod">
<ellipse fill="none" stroke="#000000" cx="938.3" cy="-18" rx="64.19" ry="18"/>
<text text-anchor="middle" x="938.3" y="-14.3" font-family="FreeSans" font-size="14.00" fill="#000000">X::IO::Chmod</text>
</a>
</g>
</g>
<!-- X::IO::Chmod&#45;&gt;X::IO -->
<g id="edge48" class="edge">
<title>X::IO::Chmod&#45;&gt;X::IO</title>
<path fill="none" stroke="#6666ff" d="M933.35,-36.3C931.12,-44.1 928.44,-53.49 925.96,-62.17"/>
<polygon fill="#6666ff" stroke="#6666ff" points="922.56,-61.32 923.18,-71.9 929.29,-63.24 922.56,-61.32"/>
</g>
<!-- X::IO::Chmod&#45;&gt;Exception -->
<g id="edge20" class="edge">
<title>X::IO::Chmod&#45;&gt;Exception</title>
<path fill="none" stroke="#000000" d="M931.05,-36.06C932.58,-51.55 940.3,-72 940.3,-72 940.3,-72 960.89,-161.61 978.82,-207.12"/>
<polygon fill="#000000" stroke="#000000" points="975.61,-208.52 982.72,-216.38 982.06,-205.8 975.61,-208.52"/>
</g>
<!-- X::IO::Chmod&#45;&gt;Exception -->
<g id="edge21" class="edge">
<title>X::IO::Chmod&#45;&gt;Exception</title>
<path fill="none" stroke="#000000" d="M944.73,-36.06C950.58,-51.55 958.3,-72 958.3,-72 958.3,-72 978.52,-159.99 989.06,-205.88"/>
<polygon fill="#000000" stroke="#000000" points="985.68,-206.81 991.34,-215.77 992.51,-205.24 985.68,-206.81"/>
</g>
<!-- X::IO::Chmod&#45;&gt;Exception -->
<g id="edge22" class="edge">
<title>X::IO::Chmod&#45;&gt;Exception</title>
<path fill="none" stroke="#000000" d="M957.84,-35.19C968.29,-50.78 976.3,-72 976.3,-72 976.3,-72 996.53,-160.05 999.79,-205.92"/>
<polygon fill="#000000" stroke="#000000" points="996.3,-206.23 1000.23,-216.07 1003.3,-205.93 996.3,-206.23"/>
</g>
<!-- X::IO::Dir -->
<g id="node13" class="node">
<title>X::IO::Dir</title>
<g id="a_node13"><a xlink:href="/type/X::IO::Dir" xlink:title="X::IO::Dir">
<ellipse fill="none" stroke="#000000" cx="1068.3" cy="-18" rx="47.39" ry="18"/>
<text text-anchor="middle" x="1068.3" y="-14.3" font-family="FreeSans" font-size="14.00" fill="#000000">X::IO::Dir</text>
</a>
</g>
</g>
<!-- X::IO::Dir&#45;&gt;X::IO -->
<g id="edge49" class="edge">
<title>X::IO::Dir&#45;&gt;X::IO</title>
<path fill="none" stroke="#6666ff" d="M1039.37,-32.5C1014.05,-44.31 977.28,-61.47 950.91,-73.78"/>
<polygon fill="#6666ff" stroke="#6666ff" points="949.29,-70.67 941.71,-78.07 952.25,-77.01 949.29,-70.67"/>
</g>
<!-- X::IO::Dir&#45;&gt;Exception -->
<g id="edge23" class="edge">
<title>X::IO::Dir&#45;&gt;Exception</title>
<path fill="none" stroke="#000000" d="M1055.07,-35.44C1035.33,-72.13 1004.43,-161.03 995.17,-206"/>
<polygon fill="#000000" stroke="#000000" points="991.72,-205.45 993.38,-215.91 998.6,-206.7 991.72,-205.45"/>
</g>
<!-- X::IO::Dir&#45;&gt;Exception -->
<g id="edge24" class="edge">
<title>X::IO::Dir&#45;&gt;Exception</title>
<path fill="none" stroke="#000000" d="M1062.44,-36.15C1049.73,-73.42 1019.52,-162 1004.33,-206.51"/>
<polygon fill="#000000" stroke="#000000" points="1000.99,-205.47 1001.07,-216.06 1007.61,-207.73 1000.99,-205.47"/>
</g>
<!-- X::IO::Dir&#45;&gt;Exception -->
<g id="edge25" class="edge">
<title>X::IO::Dir&#45;&gt;Exception</title>
<path fill="none" stroke="#000000" d="M1070.2,-36.15C1064.56,-73.76 1034.35,-163.63 1013.01,-207.72"/>
<polygon fill="#000000" stroke="#000000" points="1009.88,-206.15 1008.47,-216.65 1016.12,-209.32 1009.88,-206.15"/>
</g>
<!-- X::IO::Copy -->
<g id="node14" class="node">
<title>X::IO::Copy</title>
<g id="a_node14"><a xlink:href="/type/X::IO::Copy" xlink:title="X::IO::Copy">
<ellipse fill="none" stroke="#000000" cx="1190.3" cy="-18" rx="56.59" ry="18"/>
<text text-anchor="middle" x="1190.3" y="-14.3" font-family="FreeSans" font-size="14.00" fill="#000000">X::IO::Copy</text>
</a>
</g>
</g>
<!-- X::IO::Copy&#45;&gt;X::IO -->
<g id="edge50" class="edge">
<title>X::IO::Copy&#45;&gt;X::IO</title>
<path fill="none" stroke="#6666ff" d="M1147.75,-29.96C1134.98,-33.25 1124.3,-36 1124.3,-36 1124.3,-36 1015.84,-63.9 956.32,-79.22"/>
<polygon fill="#6666ff" stroke="#6666ff" points="955.32,-75.86 946.51,-81.74 957.06,-82.64 955.32,-75.86"/>
</g>
<!-- X::IO::Copy&#45;&gt;Exception -->
<g id="edge26" class="edge">
<title>X::IO::Copy&#45;&gt;Exception</title>
<path fill="none" stroke="#000000" d="M1168.26,-34.73C1124.09,-75.24 1034.3,-180 1034.3,-180 1034.3,-180 1018.93,-194.29 1006.67,-208.03"/>
<polygon fill="#000000" stroke="#000000" points="1003.76,-206.05 999.96,-215.94 1009.1,-210.58 1003.76,-206.05"/>
</g>
<!-- X::IO::Copy&#45;&gt;Exception -->
<g id="edge27" class="edge">
<title>X::IO::Copy&#45;&gt;Exception</title>
<path fill="none" stroke="#000000" d="M1176.05,-35.62C1140.79,-76.76 1052.3,-180 1052.3,-180 1052.3,-180 1035.23,-195.87 1019.77,-210.24"/>
<polygon fill="#000000" stroke="#000000" points="1017.34,-207.73 1012.4,-217.1 1022.1,-212.85 1017.34,-207.73"/>
</g>
<!-- X::IO::Copy&#45;&gt;Exception -->
<g id="edge28" class="edge">
<title>X::IO::Copy&#45;&gt;Exception</title>
<path fill="none" stroke="#000000" d="M1184.61,-35.93C1158.36,-77.26 1070.3,-180 1070.3,-180 1070.3,-180 1050.88,-198.05 1031.13,-213.09"/>
<polygon fill="#000000" stroke="#000000" points="1028.98,-210.33 1023,-219.07 1033.13,-215.96 1028.98,-210.33"/>
</g>
<!-- X::IO::Chdir -->
<g id="node15" class="node">
<title>X::IO::Chdir</title>
<g id="a_node15"><a xlink:href="/type/X::IO::Chdir" xlink:title="X::IO::Chdir">
<ellipse fill="none" stroke="#000000" cx="1322.3" cy="-18" rx="57.39" ry="18"/>
<text text-anchor="middle" x="1322.3" y="-14.3" font-family="FreeSans" font-size="14.00" fill="#000000">X::IO::Chdir</text>
</a>
</g>
</g>
<!-- X::IO::Chdir&#45;&gt;X::IO -->
<g id="edge51" class="edge">
<title>X::IO::Chdir&#45;&gt;X::IO</title>
<path fill="none" stroke="#6666ff" d="M1279.38,-30.05C1266.77,-33.3 1256.3,-36 1256.3,-36 1256.3,-36 1047.35,-68.76 958.02,-82.77"/>
<polygon fill="#6666ff" stroke="#6666ff" points="957.33,-79.34 947.99,-84.34 958.42,-86.25 957.33,-79.34"/>
</g>
<!-- X::IO::Chdir&#45;&gt;Exception -->
<g id="edge29" class="edge">
<title>X::IO::Chdir&#45;&gt;Exception</title>
<path fill="none" stroke="#000000" d="M1293.37,-33.86C1228.51,-73.71 1081.3,-180 1081.3,-180 1081.3,-180 1047.56,-197.19 1021.84,-211.99"/>
<polygon fill="#000000" stroke="#000000" points="1020,-209.02 1013.15,-217.1 1023.54,-215.05 1020,-209.02"/>
</g>
<!-- X::IO::Chdir&#45;&gt;Exception -->
<g id="edge30" class="edge">
<title>X::IO::Chdir&#45;&gt;Exception</title>
<path fill="none" stroke="#000000" d="M1300.51,-34.73C1244.39,-75.24 1099.3,-180 1099.3,-180 1099.3,-180 1061.85,-199.08 1031.9,-214.35"/>
<polygon fill="#000000" stroke="#000000" points="1030.21,-211.28 1022.89,-218.94 1033.39,-217.51 1030.21,-211.28"/>
</g>
<!-- X::IO::Chdir&#45;&gt;Exception -->
<g id="edge31" class="edge">
<title>X::IO::Chdir&#45;&gt;Exception</title>
<path fill="none" stroke="#000000" d="M1308.03,-35.62C1260.29,-76.76 1117.3,-180 1117.3,-180 1117.3,-180 1074.93,-201.59 1039.59,-217.21"/>
<polygon fill="#000000" stroke="#000000" points="1038.1,-214.04 1030.33,-221.24 1040.89,-220.46 1038.1,-214.04"/>
</g>
<!-- X::IO::Rmdir -->
<g id="node16" class="node">
<title>X::IO::Rmdir</title>
<g id="a_node16"><a xlink:href="/type/X::IO::Rmdir" xlink:title="X::IO::Rmdir">
<ellipse fill="none" stroke="#000000" cx="1457.3" cy="-18" rx="59.59" ry="18"/>
<text text-anchor="middle" x="1457.3" y="-14.3" font-family="FreeSans" font-size="14.00" fill="#000000">X::IO::Rmdir</text>
</a>
</g>
</g>
<!-- X::IO::Rmdir&#45;&gt;X::IO -->
<g id="edge52" class="edge">
<title>X::IO::Rmdir&#45;&gt;X::IO</title>
<path fill="none" stroke="#6666ff" d="M1412.43,-30.05C1399.25,-33.3 1388.3,-36 1388.3,-36 1388.3,-36 1072.92,-71.56 958.85,-84.43"/>
<polygon fill="#6666ff" stroke="#6666ff" points="958.32,-80.96 948.77,-85.56 959.1,-87.92 958.32,-80.96"/>
</g>
<!-- X::IO::Rmdir&#45;&gt;Exception -->
<g id="edge32" class="edge">
<title>X::IO::Rmdir&#45;&gt;Exception</title>
<path fill="none" stroke="#000000" d="M1423.27,-32.87C1340.36,-71.92 1138.3,-180 1138.3,-180 1138.3,-180 1076.47,-200.35 1033.72,-215.83"/>
<polygon fill="#000000" stroke="#000000" points="1032.31,-212.63 1024.12,-219.35 1034.72,-219.2 1032.31,-212.63"/>
</g>
<!-- X::IO::Rmdir&#45;&gt;Exception -->
<g id="edge33" class="edge">
<title>X::IO::Rmdir&#45;&gt;Exception</title>
<path fill="none" stroke="#000000" d="M1429.25,-34C1354.52,-73.97 1156.3,-180 1156.3,-180 1156.3,-180 1087.79,-202.55 1040.15,-218.24"/>
<polygon fill="#000000" stroke="#000000" points="1039.03,-214.92 1030.63,-221.37 1041.22,-221.57 1039.03,-214.92"/>
</g>
<!-- X::IO::Rmdir&#45;&gt;Exception -->
<g id="edge34" class="edge">
<title>X::IO::Rmdir&#45;&gt;Exception</title>
<path fill="none" stroke="#000000" d="M1435.95,-35.03C1369.2,-75.75 1174.3,-180 1174.3,-180 1174.3,-180 1098.57,-204.93 1045.18,-220.59"/>
<polygon fill="#000000" stroke="#000000" points="1044.12,-217.26 1035.49,-223.4 1046.07,-223.98 1044.12,-217.26"/>
</g>
<!-- X::IO::Symlink -->
<g id="node17" class="node">
<title>X::IO::Symlink</title>
<g id="a_node17"><a xlink:href="/type/X::IO::Symlink" xlink:title="X::IO::Symlink">
<ellipse fill="none" stroke="#000000" cx="1602.3" cy="-18" rx="67.69" ry="18"/>
<text text-anchor="middle" x="1602.3" y="-14.3" font-family="FreeSans" font-size="14.00" fill="#000000">X::IO::Symlink</text>
</a>
</g>
</g>
<!-- X::IO::Symlink&#45;&gt;X::IO -->
<g id="edge53" class="edge">
<title>X::IO::Symlink&#45;&gt;X::IO</title>
<path fill="none" stroke="#6666ff" d="M1552.03,-30.24C1537.89,-33.41 1526.3,-36 1526.3,-36 1526.3,-36 1094.92,-73.6 958.88,-85.46"/>
<polygon fill="#6666ff" stroke="#6666ff" points="958.52,-81.98 948.86,-86.34 959.13,-88.95 958.52,-81.98"/>
</g>
<!-- X::IO::Symlink&#45;&gt;Exception -->
<g id="edge35" class="edge">
<title>X::IO::Symlink&#45;&gt;Exception</title>
<path fill="none" stroke="#000000" d="M1562.03,-32.59C1459.96,-71.4 1202.3,-180 1202.3,-180 1202.3,-180 1102.76,-203.45 1041.39,-219.15"/>
<polygon fill="#000000" stroke="#000000" points="1040.33,-215.81 1031.52,-221.7 1042.08,-222.59 1040.33,-215.81"/>
</g>
<!-- X::IO::Symlink&#45;&gt;Exception -->
<g id="edge36" class="edge">
<title>X::IO::Symlink&#45;&gt;Exception</title>
<path fill="none" stroke="#000000" d="M1567.72,-33.57C1473.69,-73.2 1220.3,-180 1220.3,-180 1220.3,-180 1111.68,-205.59 1045.38,-221.2"/>
<polygon fill="#000000" stroke="#000000" points="1044.45,-217.83 1035.52,-223.52 1046.06,-224.64 1044.45,-217.83"/>
</g>
<!-- X::IO::Symlink&#45;&gt;Exception -->
<g id="edge37" class="edge">
<title>X::IO::Symlink&#45;&gt;Exception</title>
<path fill="none" stroke="#000000" d="M1574.15,-34.44C1488.06,-74.73 1238.3,-180 1238.3,-180 1238.3,-180 1120.43,-207.76 1048.49,-223.1"/>
<polygon fill="#000000" stroke="#000000" points="1047.72,-219.69 1038.66,-225.18 1049.17,-226.54 1047.72,-219.69"/>
</g>
<!-- X::IO::Unlink -->
<g id="node18" class="node">
<title>X::IO::Unlink</title>
<g id="a_node18"><a xlink:href="/type/X::IO::Unlink" xlink:title="X::IO::Unlink">
<ellipse fill="none" stroke="#000000" cx="1749.3" cy="-18" rx="61.19" ry="18"/>
<text text-anchor="middle" x="1749.3" y="-14.3" font-family="FreeSans" font-size="14.00" fill="#000000">X::IO::Unlink</text>
</a>
</g>
</g>
<!-- X::IO::Unlink&#45;&gt;X::IO -->
<g id="edge54" class="edge">
<title>X::IO::Unlink&#45;&gt;X::IO</title>
<path fill="none" stroke="#6666ff" d="M1703.78,-30.05C1690.41,-33.3 1679.3,-36 1679.3,-36 1679.3,-36 1117.55,-75.12 959.33,-86.14"/>
<polygon fill="#6666ff" stroke="#6666ff" points="958.8,-82.67 949.07,-86.86 959.29,-89.65 958.8,-82.67"/>
</g>
<!-- X::IO::Unlink&#45;&gt;Exception -->
<g id="edge38" class="edge">
<title>X::IO::Unlink&#45;&gt;Exception</title>
<path fill="none" stroke="#000000" d="M1707.39,-31.1C1590.97,-68.54 1275.3,-180 1275.3,-180 1275.3,-180 1127.5,-206.29 1046.36,-221.83"/>
<polygon fill="#000000" stroke="#000000" points="1045.49,-218.44 1036.33,-223.77 1046.81,-225.31 1045.49,-218.44"/>
</g>
<!-- X::IO::Unlink&#45;&gt;Exception -->
<g id="edge39" class="edge">
<title>X::IO::Unlink&#45;&gt;Exception</title>
<path fill="none" stroke="#000000" d="M1711.59,-32.31C1602.34,-70.89 1293.3,-180 1293.3,-180 1293.3,-180 1134.45,-208.25 1048.71,-223.5"/>
<polygon fill="#000000" stroke="#000000" points="1047.86,-220.1 1038.63,-225.29 1049.09,-226.99 1047.86,-220.1"/>
</g>
<!-- X::IO::Unlink&#45;&gt;Exception -->
<g id="edge40" class="edge">
<title>X::IO::Unlink&#45;&gt;Exception</title>
<path fill="none" stroke="#000000" d="M1717.03,-33.29C1615.23,-72.69 1311.3,-180 1311.3,-180 1311.3,-180 1141.47,-210.2 1050.48,-225.01"/>
<polygon fill="#000000" stroke="#000000" points="1049.91,-221.56 1040.59,-226.61 1051.02,-228.47 1049.91,-221.56"/>
</g>
</g>
</svg>
