<?xml version="1.0" encoding="UTF-8" standalone="no"?>
<!DOCTYPE svg PUBLIC "-//W3C//DTD SVG 1.1//EN"
 "http://www.w3.org/Graphics/SVG/1.1/DTD/svg11.dtd">
<!-- Generated by graphviz version 2.43.0 (0)
 -->
<!-- Title: perl6&#45;type&#45;graph Pages: 1 -->
<svg width="211pt" height="404pt"
 viewBox="0.00 0.00 211.24 404.00" xmlns="http://www.w3.org/2000/svg" xmlns:xlink="http://www.w3.org/1999/xlink">
<g id="graph0" class="graph" transform="scale(1 1) rotate(0) translate(4 400)">
<title>perl6&#45;type&#45;graph</title>
<polygon fill="#ffffff" stroke="transparent" points="-4,4 -4,-400 207.24,-400 207.24,4 -4,4"/>
<!-- X::IO::Rmdir -->
<g id="node1" class="node">
<title>X::IO::Rmdir</title>
<g id="a_node1"><a xlink:href="/type/X::IO::Rmdir" xlink:title="X::IO::Rmdir">
<ellipse fill="none" stroke="#000000" cx="59.79" cy="-18" rx="59.59" ry="18"/>
<text text-anchor="middle" x="59.79" y="-14.3" font-family="FreeSans" font-size="14.00" fill="#000000">X::IO::Rmdir</text>
</a>
</g>
</g>
<!-- Exception -->
<g id="node4" class="node">
<title>Exception</title>
<g id="a_node4"><a xlink:href="/type/Exception" xlink:title="Exception">
<ellipse fill="none" stroke="#000000" cx="82.79" cy="-234" rx="49.29" ry="18"/>
<text text-anchor="middle" x="82.79" y="-230.3" font-family="FreeSans" font-size="14.00" fill="#000000">Exception</text>
</a>
</g>
</g>
<!-- X::IO::Rmdir&#45;&gt;Exception -->
<g id="edge1" class="edge">
<title>X::IO::Rmdir&#45;&gt;Exception</title>
<path fill="none" stroke="#000000" d="M57.76,-36.15C58.21,-73.34 67.44,-161.63 75.27,-206.23"/>
<polygon fill="#000000" stroke="#000000" points="71.83,-206.88 77.12,-216.06 78.71,-205.59 71.83,-206.88"/>
</g>
<!-- X::IO::Rmdir&#45;&gt;Exception -->
<g id="edge2" class="edge">
<title>X::IO::Rmdir&#45;&gt;Exception</title>
<path fill="none" stroke="#000000" d="M65.52,-36.15C73.03,-73.17 82.72,-160.82 84.54,-205.61"/>
<polygon fill="#000000" stroke="#000000" points="81.05,-205.87 84.83,-215.77 88.05,-205.67 81.05,-205.87"/>
</g>
<!-- X::IO -->
<g id="node6" class="node">
<title>X::IO</title>
<g id="a_node6"><a xlink:href="/type/X::IO" xlink:title="X::IO">
<ellipse fill="none" stroke="#6666ff" cx="127.79" cy="-90" rx="31.4" ry="18"/>
<text text-anchor="middle" x="127.79" y="-86.3" font-family="FreeSans" font-size="14.00" fill="#6666ff">X::IO</text>
</a>
</g>
</g>
<!-- X::IO::Rmdir&#45;&gt;X::IO -->
<g id="edge7" class="edge">
<title>X::IO::Rmdir&#45;&gt;X::IO</title>
<path fill="none" stroke="#6666ff" d="M75.91,-35.59C84.92,-44.87 96.28,-56.56 106.07,-66.64"/>
<polygon fill="#6666ff" stroke="#6666ff" points="103.71,-69.23 113.19,-73.96 108.73,-64.35 103.71,-69.23"/>
</g>
<!-- Mu -->
<g id="node2" class="node">
<title>Mu</title>
<g id="a_node2"><a xlink:href="/type/Mu" xlink:title="Mu">
<ellipse fill="none" stroke="#000000" cx="82.79" cy="-378" rx="27" ry="18"/>
<text text-anchor="middle" x="82.79" y="-374.3" font-family="FreeSans" font-size="14.00" fill="#000000">Mu</text>
</a>
</g>
</g>
<!-- Any -->
<g id="node3" class="node">
<title>Any</title>
<g id="a_node3"><a xlink:href="/type/Any" xlink:title="Any">
<ellipse fill="none" stroke="#000000" cx="82.79" cy="-306" rx="27" ry="18"/>
<text text-anchor="middle" x="82.79" y="-302.3" font-family="FreeSans" font-size="14.00" fill="#000000">Any</text>
</a>
</g>
</g>
<!-- Any&#45;&gt;Mu -->
<g id="edge3" class="edge">
<title>Any&#45;&gt;Mu</title>
<path fill="none" stroke="#000000" d="M82.79,-324.3C82.79,-332.02 82.79,-341.29 82.79,-349.89"/>
<polygon fill="#000000" stroke="#000000" points="79.29,-349.9 82.79,-359.9 86.29,-349.9 79.29,-349.9"/>
</g>
<!-- Exception&#45;&gt;Any -->
<g id="edge4" class="edge">
<title>Exception&#45;&gt;Any</title>
<path fill="none" stroke="#000000" d="M82.79,-252.3C82.79,-260.02 82.79,-269.29 82.79,-277.89"/>
<polygon fill="#000000" stroke="#000000" points="79.29,-277.9 82.79,-287.9 86.29,-277.9 79.29,-277.9"/>
</g>
<!-- X::OS -->
<g id="node5" class="node">
<title>X::OS</title>
<g id="a_node5"><a xlink:href="/type/X::OS" xlink:title="X::OS">
<ellipse fill="none" stroke="#6666ff" cx="168.79" cy="-162" rx="34.39" ry="18"/>
<text text-anchor="middle" x="168.79" y="-158.3" font-family="FreeSans" font-size="14.00" fill="#6666ff">X::OS</text>
</a>
</g>
</g>
<!-- X::OS&#45;&gt;Exception -->
<g id="edge5" class="edge">
<title>X::OS&#45;&gt;Exception</title>
<path fill="none" stroke="#000000" d="M150.98,-177.5C139.16,-187.12 123.43,-199.93 110.05,-210.81"/>
<polygon fill="#000000" stroke="#000000" points="107.63,-208.27 102.09,-217.3 112.05,-213.7 107.63,-208.27"/>
</g>
<!-- X::IO&#45;&gt;Exception -->
<g id="edge6" class="edge">
<title>X::IO&#45;&gt;Exception</title>
<path fill="none" stroke="#000000" d="M122.46,-107.85C114.78,-132.06 100.56,-176.95 91.39,-205.87"/>
<polygon fill="#000000" stroke="#000000" points="87.95,-205.14 88.27,-215.73 94.62,-207.26 87.95,-205.14"/>
</g>
<!-- X::IO&#45;&gt;X::OS -->
<g id="edge8" class="edge">
<title>X::IO&#45;&gt;X::OS</title>
<path fill="none" stroke="#6666ff" d="M137.3,-107.24C142.25,-115.68 148.41,-126.2 153.97,-135.69"/>
<polygon fill="#6666ff" stroke="#6666ff" points="150.98,-137.51 159.05,-144.37 157.02,-133.97 150.98,-137.51"/>
</g>
</g>
</svg>
