<?xml version="1.0" encoding="UTF-8" standalone="no"?>
<!DOCTYPE svg PUBLIC "-//W3C//DTD SVG 1.1//EN"
 "http://www.w3.org/Graphics/SVG/1.1/DTD/svg11.dtd">
<!-- Generated by graphviz version 2.43.0 (0)
 -->
<!-- Title: perl6&#45;type&#45;graph Pages: 1 -->
<svg width="632pt" height="332pt"
 viewBox="0.00 0.00 631.69 332.00" xmlns="http://www.w3.org/2000/svg" xmlns:xlink="http://www.w3.org/1999/xlink">
<g id="graph0" class="graph" transform="scale(1 1) rotate(0) translate(4 328)">
<title>perl6&#45;type&#45;graph</title>
<polygon fill="white" stroke="transparent" points="-4,4 -4,-328 627.69,-328 627.69,4 -4,4"/>
<!-- IO::Path -->
<g id="node1" class="node">
<title>IO::Path</title>
<g id="a_node1"><a xlink:href="/type/IO::Path" xlink:title="IO::Path">
<ellipse fill="none" stroke="#000000" cx="300.24" cy="-90" rx="43.59" ry="18"/>
<text text-anchor="middle" x="300.24" y="-86.3" font-family="FreeSans" font-size="14.00" fill="#000000">IO::Path</text>
</a>
</g>
</g>
<!-- Cool -->
<g id="node4" class="node">
<title>Cool</title>
<g id="a_node4"><a xlink:href="/type/Cool" xlink:title="Cool">
<ellipse fill="none" stroke="#000000" cx="263.24" cy="-162" rx="28.7" ry="18"/>
<text text-anchor="middle" x="263.24" y="-158.3" font-family="FreeSans" font-size="14.00" fill="#000000">Cool</text>
</a>
</g>
</g>
<!-- IO::Path&#45;&gt;Cool -->
<g id="edge1" class="edge">
<title>IO::Path&#45;&gt;Cool</title>
<path fill="none" stroke="#000000" d="M291.29,-107.95C286.91,-116.23 281.54,-126.38 276.68,-135.58"/>
<polygon fill="#000000" stroke="#000000" points="273.44,-134.22 271.86,-144.69 279.63,-137.49 273.44,-134.22"/>
</g>
<!-- IO -->
<g id="node5" class="node">
<title>IO</title>
<g id="a_node5"><a xlink:href="/type/IO" xlink:title="IO">
<ellipse fill="none" stroke="#6666ff" cx="337.24" cy="-162" rx="27" ry="18"/>
<text text-anchor="middle" x="337.24" y="-158.3" font-family="FreeSans" font-size="14.00" fill="#6666ff">IO</text>
</a>
</g>
</g>
<!-- IO::Path&#45;&gt;IO -->
<g id="edge8" class="edge">
<title>IO::Path&#45;&gt;IO</title>
<path fill="none" stroke="#6666ff" d="M309.2,-107.95C313.58,-116.23 318.95,-126.38 323.81,-135.58"/>
<polygon fill="#6666ff" stroke="#6666ff" points="320.86,-137.49 328.62,-144.69 327.05,-134.22 320.86,-137.49"/>
</g>
<!-- Mu -->
<g id="node2" class="node">
<title>Mu</title>
<g id="a_node2"><a xlink:href="/type/Mu" xlink:title="Mu">
<ellipse fill="none" stroke="#000000" cx="263.24" cy="-306" rx="27" ry="18"/>
<text text-anchor="middle" x="263.24" y="-302.3" font-family="FreeSans" font-size="14.00" fill="#000000">Mu</text>
</a>
</g>
</g>
<!-- Any -->
<g id="node3" class="node">
<title>Any</title>
<g id="a_node3"><a xlink:href="/type/Any" xlink:title="Any">
<ellipse fill="none" stroke="#000000" cx="263.24" cy="-234" rx="27" ry="18"/>
<text text-anchor="middle" x="263.24" y="-230.3" font-family="FreeSans" font-size="14.00" fill="#000000">Any</text>
</a>
</g>
</g>
<!-- Any&#45;&gt;Mu -->
<g id="edge2" class="edge">
<title>Any&#45;&gt;Mu</title>
<path fill="none" stroke="#000000" d="M263.24,-252.3C263.24,-260.02 263.24,-269.29 263.24,-277.89"/>
<polygon fill="#000000" stroke="#000000" points="259.74,-277.9 263.24,-287.9 266.74,-277.9 259.74,-277.9"/>
</g>
<!-- Cool&#45;&gt;Any -->
<g id="edge3" class="edge">
<title>Cool&#45;&gt;Any</title>
<path fill="none" stroke="#000000" d="M263.24,-180.3C263.24,-188.02 263.24,-197.29 263.24,-205.89"/>
<polygon fill="#000000" stroke="#000000" points="259.74,-205.9 263.24,-215.9 266.74,-205.9 259.74,-205.9"/>
</g>
<!-- IO::Path::QNX -->
<g id="node6" class="node">
<title>IO::Path::QNX</title>
<g id="a_node6"><a xlink:href="/type/IO::Path::QNX" xlink:title="IO::Path::QNX">
<ellipse fill="none" stroke="#000000" cx="68.24" cy="-18" rx="68.49" ry="18"/>
<text text-anchor="middle" x="68.24" y="-14.3" font-family="FreeSans" font-size="14.00" fill="#000000">IO::Path::QNX</text>
</a>
</g>
</g>
<!-- IO::Path::QNX&#45;&gt;IO::Path -->
<g id="edge4" class="edge">
<title>IO::Path::QNX&#45;&gt;IO::Path</title>
<path fill="none" stroke="#000000" d="M111.34,-32C152.71,-44.48 214.88,-63.24 256.47,-75.79"/>
<polygon fill="#000000" stroke="#000000" points="255.47,-79.15 266.06,-78.69 257.49,-72.45 255.47,-79.15"/>
</g>
<!-- IO::Path::Unix -->
<g id="node7" class="node">
<title>IO::Path::Unix</title>
<g id="a_node7"><a xlink:href="/type/IO::Path::Unix" xlink:title="IO::Path::Unix">
<ellipse fill="none" stroke="#000000" cx="220.24" cy="-18" rx="65.79" ry="18"/>
<text text-anchor="middle" x="220.24" y="-14.3" font-family="FreeSans" font-size="14.00" fill="#000000">IO::Path::Unix</text>
</a>
</g>
</g>
<!-- IO::Path::Unix&#45;&gt;IO::Path -->
<g id="edge5" class="edge">
<title>IO::Path::Unix&#45;&gt;IO::Path</title>
<path fill="none" stroke="#000000" d="M239.2,-35.59C249.86,-44.92 263.31,-56.69 274.87,-66.8"/>
<polygon fill="#000000" stroke="#000000" points="272.69,-69.54 282.52,-73.49 277.3,-64.27 272.69,-69.54"/>
</g>
<!-- IO::Path::Cygwin -->
<g id="node8" class="node">
<title>IO::Path::Cygwin</title>
<g id="a_node8"><a xlink:href="/type/IO::Path::Cygwin" xlink:title="IO::Path::Cygwin">
<ellipse fill="none" stroke="#000000" cx="381.24" cy="-18" rx="77.19" ry="18"/>
<text text-anchor="middle" x="381.24" y="-14.3" font-family="FreeSans" font-size="14.00" fill="#000000">IO::Path::Cygwin</text>
</a>
</g>
</g>
<!-- IO::Path::Cygwin&#45;&gt;IO::Path -->
<g id="edge6" class="edge">
<title>IO::Path::Cygwin&#45;&gt;IO::Path</title>
<path fill="none" stroke="#000000" d="M362.05,-35.59C351.25,-44.92 337.63,-56.69 325.93,-66.8"/>
<polygon fill="#000000" stroke="#000000" points="323.47,-64.3 318.19,-73.49 328.05,-69.6 323.47,-64.3"/>
</g>
<!-- IO::Path::Win32 -->
<g id="node9" class="node">
<title>IO::Path::Win32</title>
<g id="a_node9"><a xlink:href="/type/IO::Path::Win32" xlink:title="IO::Path::Win32">
<ellipse fill="none" stroke="#000000" cx="550.24" cy="-18" rx="73.39" ry="18"/>
<text text-anchor="middle" x="550.24" y="-14.3" font-family="FreeSans" font-size="14.00" fill="#000000">IO::Path::Win32</text>
</a>
</g>
</g>
<!-- IO::Path::Win32&#45;&gt;IO::Path -->
<g id="edge7" class="edge">
<title>IO::Path::Win32&#45;&gt;IO::Path</title>
<path fill="none" stroke="#000000" d="M503.81,-32C458.38,-44.72 389.69,-63.96 344.89,-76.5"/>
<polygon fill="#000000" stroke="#000000" points="343.84,-73.16 335.16,-79.22 345.73,-79.9 343.84,-73.16"/>
</g>
</g>
</svg>
