<?xml version="1.0" encoding="UTF-8" standalone="no"?>
<!DOCTYPE svg PUBLIC "-//W3C//DTD SVG 1.1//EN"
 "http://www.w3.org/Graphics/SVG/1.1/DTD/svg11.dtd">
<!-- Generated by graphviz version 2.43.0 (0)
 -->
<!-- Title: perl6&#45;type&#45;graph Pages: 1 -->
<svg width="1719pt" height="260pt"
 viewBox="0.00 0.00 1719.39 260.00" xmlns="http://www.w3.org/2000/svg" xmlns:xlink="http://www.w3.org/1999/xlink">
<g id="graph0" class="graph" transform="scale(1 1) rotate(0) translate(4 256)">
<title>perl6&#45;type&#45;graph</title>
<polygon fill="white" stroke="transparent" points="-4,4 -4,-256 1715.39,-256 1715.39,4 -4,4"/>
<!-- Pod::Block -->
<g id="node1" class="node">
<title>Pod::Block</title>
<g id="a_node1"><a xlink:href="/type/Pod::Block" xlink:title="Pod::Block">
<ellipse fill="none" stroke="#000000" cx="812.69" cy="-90" rx="53.09" ry="18"/>
<text text-anchor="middle" x="812.69" y="-86.3" font-family="FreeSans" font-size="14.00" fill="#000000">Pod::Block</text>
</a>
</g>
</g>
<!-- Any -->
<g id="node3" class="node">
<title>Any</title>
<g id="a_node3"><a xlink:href="/type/Any" xlink:title="Any">
<ellipse fill="none" stroke="#000000" cx="812.69" cy="-162" rx="27" ry="18"/>
<text text-anchor="middle" x="812.69" y="-158.3" font-family="FreeSans" font-size="14.00" fill="#000000">Any</text>
</a>
</g>
</g>
<!-- Pod::Block&#45;&gt;Any -->
<g id="edge1" class="edge">
<title>Pod::Block&#45;&gt;Any</title>
<path fill="none" stroke="#000000" d="M812.69,-108.3C812.69,-116.02 812.69,-125.29 812.69,-133.89"/>
<polygon fill="#000000" stroke="#000000" points="809.19,-133.9 812.69,-143.9 816.19,-133.9 809.19,-133.9"/>
</g>
<!-- Mu -->
<g id="node2" class="node">
<title>Mu</title>
<g id="a_node2"><a xlink:href="/type/Mu" xlink:title="Mu">
<ellipse fill="none" stroke="#000000" cx="812.69" cy="-234" rx="27" ry="18"/>
<text text-anchor="middle" x="812.69" y="-230.3" font-family="FreeSans" font-size="14.00" fill="#000000">Mu</text>
</a>
</g>
</g>
<!-- Any&#45;&gt;Mu -->
<g id="edge2" class="edge">
<title>Any&#45;&gt;Mu</title>
<path fill="none" stroke="#000000" d="M812.69,-180.3C812.69,-188.02 812.69,-197.29 812.69,-205.89"/>
<polygon fill="#000000" stroke="#000000" points="809.19,-205.9 812.69,-215.9 816.19,-205.9 809.19,-205.9"/>
</g>
<!-- Pod::Block::Para -->
<g id="node4" class="node">
<title>Pod::Block::Para</title>
<g id="a_node4"><a xlink:href="/type/Pod::Block::Para" xlink:title="Pod::Block::Para">
<ellipse fill="none" stroke="#000000" cx="76.69" cy="-18" rx="76.89" ry="18"/>
<text text-anchor="middle" x="76.69" y="-14.3" font-family="FreeSans" font-size="14.00" fill="#000000">Pod::Block::Para</text>
</a>
</g>
</g>
<!-- Pod::Block::Para&#45;&gt;Pod::Block -->
<g id="edge3" class="edge">
<title>Pod::Block::Para&#45;&gt;Pod::Block</title>
<path fill="none" stroke="#000000" d="M132.92,-30.24C148.72,-33.41 161.69,-36 161.69,-36 161.69,-36 589.17,-70.8 751.32,-84"/>
<polygon fill="#000000" stroke="#000000" points="751.36,-87.52 761.61,-84.84 751.93,-80.54 751.36,-87.52"/>
</g>
<!-- Pod::Block::Declarator -->
<g id="node5" class="node">
<title>Pod::Block::Declarator</title>
<g id="a_node5"><a xlink:href="/type/Pod::Block::Declarator" xlink:title="Pod::Block::Declarator">
<ellipse fill="none" stroke="#000000" cx="269.69" cy="-18" rx="98.58" ry="18"/>
<text text-anchor="middle" x="269.69" y="-14.3" font-family="FreeSans" font-size="14.00" fill="#000000">Pod::Block::Declarator</text>
</a>
</g>
</g>
<!-- Pod::Block::Declarator&#45;&gt;Pod::Block -->
<g id="edge4" class="edge">
<title>Pod::Block::Declarator&#45;&gt;Pod::Block</title>
<path fill="none" stroke="#000000" d="M341.73,-30.34C361.54,-33.46 377.69,-36 377.69,-36 377.69,-36 634.04,-67.23 753.16,-81.75"/>
<polygon fill="#000000" stroke="#000000" points="752.87,-85.24 763.22,-82.97 753.71,-78.29 752.87,-85.24"/>
</g>
<!-- Pod::Item -->
<g id="node6" class="node">
<title>Pod::Item</title>
<g id="a_node6"><a xlink:href="/type/Pod::Item" xlink:title="Pod::Item">
<ellipse fill="none" stroke="#000000" cx="434.69" cy="-18" rx="48.19" ry="18"/>
<text text-anchor="middle" x="434.69" y="-14.3" font-family="FreeSans" font-size="14.00" fill="#000000">Pod::Item</text>
</a>
</g>
</g>
<!-- Pod::Item&#45;&gt;Pod::Block -->
<g id="edge5" class="edge">
<title>Pod::Item&#45;&gt;Pod::Block</title>
<path fill="none" stroke="#000000" d="M471.11,-29.86C482.29,-33.19 491.69,-36 491.69,-36 491.69,-36 663.84,-64.42 756,-79.64"/>
<polygon fill="#000000" stroke="#000000" points="755.58,-83.12 766.02,-81.29 756.72,-76.21 755.58,-83.12"/>
</g>
<!-- Pod::Block::Table -->
<g id="node7" class="node">
<title>Pod::Block::Table</title>
<g id="a_node7"><a xlink:href="/type/Pod::Block::Table" xlink:title="Pod::Block::Table">
<ellipse fill="none" stroke="#000000" cx="581.69" cy="-18" rx="80.69" ry="18"/>
<text text-anchor="middle" x="581.69" y="-14.3" font-family="FreeSans" font-size="14.00" fill="#000000">Pod::Block::Table</text>
</a>
</g>
</g>
<!-- Pod::Block::Table&#45;&gt;Pod::Block -->
<g id="edge6" class="edge">
<title>Pod::Block::Table&#45;&gt;Pod::Block</title>
<path fill="none" stroke="#000000" d="M627.61,-32.91C667.36,-44.96 724.63,-62.31 764.92,-74.52"/>
<polygon fill="#000000" stroke="#000000" points="763.93,-77.88 774.51,-77.43 765.96,-71.18 763.93,-77.88"/>
</g>
<!-- Pod::Defn -->
<g id="node8" class="node">
<title>Pod::Defn</title>
<g id="a_node8"><a xlink:href="/type/Pod::Defn" xlink:title="Pod::Defn">
<ellipse fill="none" stroke="#000000" cx="730.69" cy="-18" rx="50.09" ry="18"/>
<text text-anchor="middle" x="730.69" y="-14.3" font-family="FreeSans" font-size="14.00" fill="#000000">Pod::Defn</text>
</a>
</g>
</g>
<!-- Pod::Defn&#45;&gt;Pod::Block -->
<g id="edge7" class="edge">
<title>Pod::Defn&#45;&gt;Pod::Block</title>
<path fill="none" stroke="#000000" d="M749.3,-34.88C760.13,-44.13 773.96,-55.93 785.94,-66.16"/>
<polygon fill="#000000" stroke="#000000" points="784,-69.11 793.88,-72.94 788.54,-63.78 784,-69.11"/>
</g>
<!-- Pod::Block::Comment -->
<g id="node9" class="node">
<title>Pod::Block::Comment</title>
<g id="a_node9"><a xlink:href="/type/Pod::Block::Comment" xlink:title="Pod::Block::Comment">
<ellipse fill="none" stroke="#000000" cx="894.69" cy="-18" rx="96.38" ry="18"/>
<text text-anchor="middle" x="894.69" y="-14.3" font-family="FreeSans" font-size="14.00" fill="#000000">Pod::Block::Comment</text>
</a>
</g>
</g>
<!-- Pod::Block::Comment&#45;&gt;Pod::Block -->
<g id="edge8" class="edge">
<title>Pod::Block::Comment&#45;&gt;Pod::Block</title>
<path fill="none" stroke="#000000" d="M874.84,-35.95C864.14,-45.08 850.78,-56.49 839.2,-66.37"/>
<polygon fill="#000000" stroke="#000000" points="836.85,-63.78 831.52,-72.93 841.39,-69.1 836.85,-63.78"/>
</g>
<!-- Pod::Block::Code -->
<g id="node10" class="node">
<title>Pod::Block::Code</title>
<g id="a_node10"><a xlink:href="/type/Pod::Block::Code" xlink:title="Pod::Block::Code">
<ellipse fill="none" stroke="#000000" cx="1087.69" cy="-18" rx="79.09" ry="18"/>
<text text-anchor="middle" x="1087.69" y="-14.3" font-family="FreeSans" font-size="14.00" fill="#000000">Pod::Block::Code</text>
</a>
</g>
</g>
<!-- Pod::Block::Code&#45;&gt;Pod::Block -->
<g id="edge9" class="edge">
<title>Pod::Block::Code&#45;&gt;Pod::Block</title>
<path fill="none" stroke="#000000" d="M1036.93,-31.92C987.71,-44.45 913.43,-63.36 864.02,-75.94"/>
<polygon fill="#000000" stroke="#000000" points="863,-72.58 854.18,-78.44 864.73,-79.37 863,-72.58"/>
</g>
<!-- Pod::FormattingCode -->
<g id="node11" class="node">
<title>Pod::FormattingCode</title>
<g id="a_node11"><a xlink:href="/type/Pod::FormattingCode" xlink:title="Pod::FormattingCode">
<ellipse fill="none" stroke="#000000" cx="1279.69" cy="-18" rx="94.48" ry="18"/>
<text text-anchor="middle" x="1279.69" y="-14.3" font-family="FreeSans" font-size="14.00" fill="#000000">Pod::FormattingCode</text>
</a>
</g>
</g>
<!-- Pod::FormattingCode&#45;&gt;Pod::Block -->
<g id="edge10" class="edge">
<title>Pod::FormattingCode&#45;&gt;Pod::Block</title>
<path fill="none" stroke="#000000" d="M1210.61,-30.29C1191.4,-33.43 1175.69,-36 1175.69,-36 1175.69,-36 973.24,-65.56 870.72,-80.53"/>
<polygon fill="#000000" stroke="#000000" points="869.91,-77.11 860.52,-82.02 870.92,-84.04 869.91,-77.11"/>
</g>
<!-- Pod::Block::Named -->
<g id="node12" class="node">
<title>Pod::Block::Named</title>
<g id="a_node12"><a xlink:href="/type/Pod::Block::Named" xlink:title="Pod::Block::Named">
<ellipse fill="none" stroke="#000000" cx="1478.69" cy="-18" rx="87.18" ry="18"/>
<text text-anchor="middle" x="1478.69" y="-14.3" font-family="FreeSans" font-size="14.00" fill="#000000">Pod::Block::Named</text>
</a>
</g>
</g>
<!-- Pod::Block::Named&#45;&gt;Pod::Block -->
<g id="edge11" class="edge">
<title>Pod::Block::Named&#45;&gt;Pod::Block</title>
<path fill="none" stroke="#000000" d="M1414.93,-30.29C1397.2,-33.43 1382.69,-36 1382.69,-36 1382.69,-36 1020.38,-69.69 873.47,-83.35"/>
<polygon fill="#000000" stroke="#000000" points="872.91,-79.89 863.28,-84.3 873.56,-86.86 872.91,-79.89"/>
</g>
<!-- Pod::Heading -->
<g id="node13" class="node">
<title>Pod::Heading</title>
<g id="a_node13"><a xlink:href="/type/Pod::Heading" xlink:title="Pod::Heading">
<ellipse fill="none" stroke="#000000" cx="1647.69" cy="-18" rx="63.89" ry="18"/>
<text text-anchor="middle" x="1647.69" y="-14.3" font-family="FreeSans" font-size="14.00" fill="#000000">Pod::Heading</text>
</a>
</g>
</g>
<!-- Pod::Heading&#45;&gt;Pod::Block -->
<g id="edge12" class="edge">
<title>Pod::Heading&#45;&gt;Pod::Block</title>
<path fill="none" stroke="#000000" d="M1600.23,-30.05C1586.28,-33.3 1574.69,-36 1574.69,-36 1574.69,-36 1056.3,-72.06 874.66,-84.69"/>
<polygon fill="#000000" stroke="#000000" points="874.2,-81.21 864.47,-85.4 874.69,-88.2 874.2,-81.21"/>
</g>
</g>
</svg>
