<?xml version="1.0" encoding="UTF-8" standalone="no"?>
<!DOCTYPE svg PUBLIC "-//W3C//DTD SVG 1.1//EN"
 "http://www.w3.org/Graphics/SVG/1.1/DTD/svg11.dtd">
<!-- Generated by graphviz version 2.43.0 (0)
 -->
<!-- Title: perl6&#45;type&#45;graph Pages: 1 -->
<svg width="750pt" height="332pt"
 viewBox="0.00 0.00 749.85 332.00" xmlns="http://www.w3.org/2000/svg" xmlns:xlink="http://www.w3.org/1999/xlink">
<g id="graph0" class="graph" transform="scale(1 1) rotate(0) translate(4 328)">
<title>perl6&#45;type&#45;graph</title>
<polygon fill="white" stroke="transparent" points="-4,4 -4,-328 745.85,-328 745.85,4 -4,4"/>
<!-- Int -->
<g id="node1" class="node">
<title>Int</title>
<g id="a_node1"><a xlink:href="/type/Int" xlink:title="Int">
<ellipse fill="none" stroke="#000000" cx="394" cy="-90" rx="27" ry="18"/>
<text text-anchor="middle" x="394" y="-86.3" font-family="FreeSans" font-size="14.00" fill="#000000">Int</text>
</a>
</g>
</g>
<!-- Cool -->
<g id="node4" class="node">
<title>Cool</title>
<g id="a_node4"><a xlink:href="/type/Cool" xlink:title="Cool">
<ellipse fill="none" stroke="#000000" cx="554" cy="-162" rx="28.7" ry="18"/>
<text text-anchor="middle" x="554" y="-158.3" font-family="FreeSans" font-size="14.00" fill="#000000">Cool</text>
</a>
</g>
</g>
<!-- Int&#45;&gt;Cool -->
<g id="edge1" class="edge">
<title>Int&#45;&gt;Cool</title>
<path fill="none" stroke="#000000" d="M415.91,-100.59C443.29,-112.56 490.37,-133.16 521.83,-146.93"/>
<polygon fill="#000000" stroke="#000000" points="520.5,-150.16 531.06,-150.96 523.3,-143.75 520.5,-150.16"/>
</g>
<!-- Real -->
<g id="node6" class="node">
<title>Real</title>
<g id="a_node6"><a xlink:href="/type/Real" xlink:title="Real">
<ellipse fill="none" stroke="#6666ff" cx="394" cy="-162" rx="28.7" ry="18"/>
<text text-anchor="middle" x="394" y="-158.3" font-family="FreeSans" font-size="14.00" fill="#6666ff">Real</text>
</a>
</g>
</g>
<!-- Int&#45;&gt;Real -->
<g id="edge14" class="edge">
<title>Int&#45;&gt;Real</title>
<path fill="none" stroke="#6666ff" d="M394,-108.3C394,-116.02 394,-125.29 394,-133.89"/>
<polygon fill="#6666ff" stroke="#6666ff" points="390.5,-133.9 394,-143.9 397.5,-133.9 390.5,-133.9"/>
</g>
<!-- Mu -->
<g id="node2" class="node">
<title>Mu</title>
<g id="a_node2"><a xlink:href="/type/Mu" xlink:title="Mu">
<ellipse fill="none" stroke="#000000" cx="554" cy="-306" rx="27" ry="18"/>
<text text-anchor="middle" x="554" y="-302.3" font-family="FreeSans" font-size="14.00" fill="#000000">Mu</text>
</a>
</g>
</g>
<!-- Any -->
<g id="node3" class="node">
<title>Any</title>
<g id="a_node3"><a xlink:href="/type/Any" xlink:title="Any">
<ellipse fill="none" stroke="#000000" cx="554" cy="-234" rx="27" ry="18"/>
<text text-anchor="middle" x="554" y="-230.3" font-family="FreeSans" font-size="14.00" fill="#000000">Any</text>
</a>
</g>
</g>
<!-- Any&#45;&gt;Mu -->
<g id="edge2" class="edge">
<title>Any&#45;&gt;Mu</title>
<path fill="none" stroke="#000000" d="M554,-252.3C554,-260.02 554,-269.29 554,-277.89"/>
<polygon fill="#000000" stroke="#000000" points="550.5,-277.9 554,-287.9 557.5,-277.9 550.5,-277.9"/>
</g>
<!-- Cool&#45;&gt;Any -->
<g id="edge3" class="edge">
<title>Cool&#45;&gt;Any</title>
<path fill="none" stroke="#000000" d="M554,-180.3C554,-188.02 554,-197.29 554,-205.89"/>
<polygon fill="#000000" stroke="#000000" points="550.5,-205.9 554,-215.9 557.5,-205.9 550.5,-205.9"/>
</g>
<!-- Numeric -->
<g id="node5" class="node">
<title>Numeric</title>
<g id="a_node5"><a xlink:href="/type/Numeric" xlink:title="Numeric">
<ellipse fill="none" stroke="#6666ff" cx="394" cy="-234" rx="44.39" ry="18"/>
<text text-anchor="middle" x="394" y="-230.3" font-family="FreeSans" font-size="14.00" fill="#6666ff">Numeric</text>
</a>
</g>
</g>
<!-- Real&#45;&gt;Numeric -->
<g id="edge15" class="edge">
<title>Real&#45;&gt;Numeric</title>
<path fill="none" stroke="#6666ff" d="M394,-180.3C394,-188.02 394,-197.29 394,-205.89"/>
<polygon fill="#6666ff" stroke="#6666ff" points="390.5,-205.9 394,-215.9 397.5,-205.9 390.5,-205.9"/>
</g>
<!-- int -->
<g id="node7" class="node">
<title>int</title>
<g id="a_node7"><a xlink:href="/type/int" xlink:title="int">
<ellipse fill="none" stroke="#000000" cx="27" cy="-18" rx="27" ry="18"/>
<text text-anchor="middle" x="27" y="-14.3" font-family="FreeSans" font-size="14.00" fill="#000000">int</text>
</a>
</g>
</g>
<!-- int&#45;&gt;Int -->
<g id="edge4" class="edge">
<title>int&#45;&gt;Int</title>
<path fill="none" stroke="#000000" d="M48.36,-29.09C56.11,-32.75 63,-36 63,-36 63,-36 272.18,-69.49 357.96,-83.23"/>
<polygon fill="#000000" stroke="#000000" points="357.6,-86.72 368.03,-84.84 358.71,-79.8 357.6,-86.72"/>
</g>
<!-- Order -->
<g id="node8" class="node">
<title>Order</title>
<g id="a_node8"><a xlink:href="/type/Order" xlink:title="Order">
<ellipse fill="none" stroke="#33bb33" cx="106" cy="-18" rx="33.6" ry="18"/>
<text text-anchor="middle" x="106" y="-14.3" font-family="FreeSans" font-size="14.00" fill="#33bb33">Order</text>
</a>
</g>
</g>
<!-- Order&#45;&gt;Int -->
<g id="edge5" class="edge">
<title>Order&#45;&gt;Int</title>
<path fill="none" stroke="#000000" d="M132.5,-29.48C141.35,-32.97 149,-36 149,-36 149,-36 291.14,-66.75 358.89,-81.4"/>
<polygon fill="#000000" stroke="#000000" points="358.19,-84.83 368.7,-83.53 359.67,-77.99 358.19,-84.83"/>
</g>
<!-- atomicint -->
<g id="node9" class="node">
<title>atomicint</title>
<g id="a_node9"><a xlink:href="/type/atomicint" xlink:title="atomicint">
<ellipse fill="none" stroke="#000000" cx="204" cy="-18" rx="46.29" ry="18"/>
<text text-anchor="middle" x="204" y="-14.3" font-family="FreeSans" font-size="14.00" fill="#000000">atomicint</text>
</a>
</g>
</g>
<!-- atomicint&#45;&gt;Int -->
<g id="edge6" class="edge">
<title>atomicint&#45;&gt;Int</title>
<path fill="none" stroke="#000000" d="M236.66,-31.03C271.52,-43.88 326.44,-64.11 361.31,-76.96"/>
<polygon fill="#000000" stroke="#000000" points="360.42,-80.36 371.01,-80.53 362.84,-73.79 360.42,-80.36"/>
</g>
<!-- Signal -->
<g id="node10" class="node">
<title>Signal</title>
<g id="a_node10"><a xlink:href="/type/Signal" xlink:title="Signal">
<ellipse fill="none" stroke="#33bb33" cx="303" cy="-18" rx="35.19" ry="18"/>
<text text-anchor="middle" x="303" y="-14.3" font-family="FreeSans" font-size="14.00" fill="#33bb33">Signal</text>
</a>
</g>
</g>
<!-- Signal&#45;&gt;Int -->
<g id="edge7" class="edge">
<title>Signal&#45;&gt;Int</title>
<path fill="none" stroke="#000000" d="M321.86,-33.5C335.43,-43.95 353.9,-58.15 368.75,-69.58"/>
<polygon fill="#000000" stroke="#000000" points="366.95,-72.61 377.01,-75.93 371.22,-67.06 366.95,-72.61"/>
</g>
<!-- Endian -->
<g id="node11" class="node">
<title>Endian</title>
<g id="a_node11"><a xlink:href="/type/Endian" xlink:title="Endian">
<ellipse fill="none" stroke="#33bb33" cx="394" cy="-18" rx="38.19" ry="18"/>
<text text-anchor="middle" x="394" y="-14.3" font-family="FreeSans" font-size="14.00" fill="#33bb33">Endian</text>
</a>
</g>
</g>
<!-- Endian&#45;&gt;Int -->
<g id="edge8" class="edge">
<title>Endian&#45;&gt;Int</title>
<path fill="none" stroke="#000000" d="M394,-36.3C394,-44.02 394,-53.29 394,-61.89"/>
<polygon fill="#000000" stroke="#000000" points="390.5,-61.9 394,-71.9 397.5,-61.9 390.5,-61.9"/>
</g>
<!-- Stringy -->
<g id="node12" class="node">
<title>Stringy</title>
<g id="a_node12"><a xlink:href="/type/Stringy" xlink:title="Stringy">
<ellipse fill="none" stroke="#6666ff" cx="674" cy="-162" rx="38.19" ry="18"/>
<text text-anchor="middle" x="674" y="-158.3" font-family="FreeSans" font-size="14.00" fill="#6666ff">Stringy</text>
</a>
</g>
</g>
<!-- Str -->
<g id="node13" class="node">
<title>Str</title>
<g id="a_node13"><a xlink:href="/type/Str" xlink:title="Str">
<ellipse fill="none" stroke="#000000" cx="674" cy="-90" rx="27" ry="18"/>
<text text-anchor="middle" x="674" y="-86.3" font-family="FreeSans" font-size="14.00" fill="#000000">Str</text>
</a>
</g>
</g>
<!-- Str&#45;&gt;Cool -->
<g id="edge9" class="edge">
<title>Str&#45;&gt;Cool</title>
<path fill="none" stroke="#000000" d="M654.18,-102.56C634.85,-113.84 605.2,-131.13 583.17,-143.98"/>
<polygon fill="#000000" stroke="#000000" points="581.12,-141.13 574.25,-149.19 584.65,-147.17 581.12,-141.13"/>
</g>
<!-- Str&#45;&gt;Stringy -->
<g id="edge16" class="edge">
<title>Str&#45;&gt;Stringy</title>
<path fill="none" stroke="#6666ff" d="M674,-108.3C674,-116.02 674,-125.29 674,-133.89"/>
<polygon fill="#6666ff" stroke="#6666ff" points="670.5,-133.9 674,-143.9 677.5,-133.9 670.5,-133.9"/>
</g>
<!-- IntStr -->
<g id="node14" class="node">
<title>IntStr</title>
<g id="a_node14"><a xlink:href="/type/IntStr" xlink:title="IntStr">
<ellipse fill="none" stroke="#000000" cx="710" cy="-18" rx="31.7" ry="18"/>
<text text-anchor="middle" x="710" y="-14.3" font-family="FreeSans" font-size="14.00" fill="#000000">IntStr</text>
</a>
</g>
</g>
<!-- IntStr&#45;&gt;Int -->
<g id="edge10" class="edge">
<title>IntStr&#45;&gt;Int</title>
<path fill="none" stroke="#000000" d="M685.35,-29.48C677.12,-32.97 670,-36 670,-36 670,-36 504.6,-67.76 429.88,-82.11"/>
<polygon fill="#000000" stroke="#000000" points="429.13,-78.69 419.97,-84.01 430.45,-85.57 429.13,-78.69"/>
</g>
<!-- IntStr&#45;&gt;Str -->
<g id="edge11" class="edge">
<title>IntStr&#45;&gt;Str</title>
<path fill="none" stroke="#000000" d="M701.47,-35.59C697.16,-43.96 691.85,-54.29 687.05,-63.63"/>
<polygon fill="#000000" stroke="#000000" points="683.93,-62.04 682.47,-72.53 690.16,-65.24 683.93,-62.04"/>
</g>
<!-- Bool -->
<g id="node15" class="node">
<title>Bool</title>
<g id="a_node15"><a xlink:href="/type/Bool" xlink:title="Bool">
<ellipse fill="none" stroke="#33bb33" cx="479" cy="-18" rx="28.7" ry="18"/>
<text text-anchor="middle" x="479" y="-14.3" font-family="FreeSans" font-size="14.00" fill="#33bb33">Bool</text>
</a>
</g>
</g>
<!-- Bool&#45;&gt;Int -->
<g id="edge12" class="edge">
<title>Bool&#45;&gt;Int</title>
<path fill="none" stroke="#000000" d="M462.21,-32.83C449.67,-43.15 432.35,-57.42 418.3,-68.99"/>
<polygon fill="#000000" stroke="#000000" points="415.96,-66.38 410.47,-75.44 420.41,-71.78 415.96,-66.38"/>
</g>
<!-- PromiseStatus -->
<g id="node16" class="node">
<title>PromiseStatus</title>
<g id="a_node16"><a xlink:href="/type/PromiseStatus" xlink:title="PromiseStatus">
<ellipse fill="none" stroke="#33bb33" cx="593" cy="-18" rx="67.69" ry="18"/>
<text text-anchor="middle" x="593" y="-14.3" font-family="FreeSans" font-size="14.00" fill="#33bb33">PromiseStatus</text>
</a>
</g>
</g>
<!-- PromiseStatus&#45;&gt;Int -->
<g id="edge13" class="edge">
<title>PromiseStatus&#45;&gt;Int</title>
<path fill="none" stroke="#000000" d="M553.68,-32.83C516.67,-45.85 461.87,-65.13 427.05,-77.37"/>
<polygon fill="#000000" stroke="#000000" points="425.63,-74.16 417.36,-80.78 427.96,-80.77 425.63,-74.16"/>
</g>
</g>
</svg>
