<?xml version="1.0" encoding="UTF-8" standalone="no"?>
<!DOCTYPE svg PUBLIC "-//W3C//DTD SVG 1.1//EN"
 "http://www.w3.org/Graphics/SVG/1.1/DTD/svg11.dtd">
<!-- Generated by graphviz version 2.43.0 (0)
 -->
<!-- Title: perl6&#45;type&#45;graph Pages: 1 -->
<svg width="1940pt" height="2054pt"
 viewBox="0.00 0.00 1940.25 2053.77" xmlns="http://www.w3.org/2000/svg" xmlns:xlink="http://www.w3.org/1999/xlink">
<g id="graph0" class="graph" transform="scale(1 1) rotate(0) translate(4 2049.77)">
<title>perl6&#45;type&#45;graph</title>
<polygon fill="#ffffff" stroke="transparent" points="-4,4 -4,-2049.77 1936.25,-2049.77 1936.25,4 -4,4"/>
<!-- Metamodel::Stashing -->
<g id="node1" class="node">
<title>Metamodel::Stashing</title>
<g id="a_node1"><a xlink:href="/type/Metamodel::Stashing" xlink:title="Metamodel::Stashing">
<ellipse fill="none" stroke="#6666ff" cx="946.21" cy="-1036.38" rx="93.68" ry="18"/>
<text text-anchor="middle" x="946.21" y="-1032.68" font-family="FreeSans" font-size="14.00" fill="#6666ff">Metamodel::Stashing</text>
</a>
</g>
</g>
<!-- Mu -->
<g id="node2" class="node">
<title>Mu</title>
<g id="a_node2"><a xlink:href="/type/Mu" xlink:title="Mu">
<ellipse fill="none" stroke="#000000" cx="1447.5" cy="-413.69" rx="27" ry="18"/>
<text text-anchor="middle" x="1447.5" y="-409.99" font-family="FreeSans" font-size="14.00" fill="#000000">Mu</text>
</a>
</g>
</g>
<!-- Any -->
<g id="node3" class="node">
<title>Any</title>
<g id="a_node3"><a xlink:href="/type/Any" xlink:title="Any">
<ellipse fill="none" stroke="#000000" cx="1020.84" cy="-911.34" rx="27" ry="18"/>
<text text-anchor="middle" x="1020.84" y="-907.64" font-family="FreeSans" font-size="14.00" fill="#000000">Any</text>
</a>
</g>
</g>
<!-- Any&#45;&gt;Mu -->
<g id="edge1" class="edge">
<title>Any&#45;&gt;Mu</title>
<path fill="none" stroke="#000000" d="M1029.08,-893.98C1042.33,-866.05 1066.92,-814.24 1066.92,-814.24 1066.92,-814.24 1345.84,-520.69 1426.12,-436.19"/>
<polygon fill="#000000" stroke="#000000" points="1428.7,-438.57 1433.05,-428.91 1423.62,-433.74 1428.7,-438.57"/>
</g>
<!-- Metamodel::Naming -->
<g id="node4" class="node">
<title>Metamodel::Naming</title>
<g id="a_node4"><a xlink:href="/type/Metamodel::Naming" xlink:title="Metamodel::Naming">
<ellipse fill="none" stroke="#6666ff" cx="862.5" cy="-990.47" rx="90.18" ry="18"/>
<text text-anchor="middle" x="862.5" y="-986.77" font-family="FreeSans" font-size="14.00" fill="#6666ff">Metamodel::Naming</text>
</a>
</g>
</g>
<!-- Metamodel::Documenting -->
<g id="node5" class="node">
<title>Metamodel::Documenting</title>
<g id="a_node5"><a xlink:href="/type/Metamodel::Documenting" xlink:title="Metamodel::Documenting">
<ellipse fill="none" stroke="#6666ff" cx="1179.66" cy="-814.39" rx="111.28" ry="18"/>
<text text-anchor="middle" x="1179.66" y="-810.69" font-family="FreeSans" font-size="14.00" fill="#6666ff">Metamodel::Documenting</text>
</a>
</g>
</g>
<!-- Metamodel::Versioning -->
<g id="node6" class="node">
<title>Metamodel::Versioning</title>
<g id="a_node6"><a xlink:href="/type/Metamodel::Versioning" xlink:title="Metamodel::Versioning">
<ellipse fill="none" stroke="#6666ff" cx="1217.14" cy="-962.45" rx="100.98" ry="18"/>
<text text-anchor="middle" x="1217.14" y="-958.75" font-family="FreeSans" font-size="14.00" fill="#6666ff">Metamodel::Versioning</text>
</a>
</g>
</g>
<!-- Metamodel::TypePretense -->
<g id="node7" class="node">
<title>Metamodel::TypePretense</title>
<g id="a_node7"><a xlink:href="/type/Metamodel::TypePretense" xlink:title="Metamodel::TypePretense">
<ellipse fill="none" stroke="#6666ff" cx="405.07" cy="-621.12" rx="114.28" ry="18"/>
<text text-anchor="middle" x="405.07" y="-617.42" font-family="FreeSans" font-size="14.00" fill="#6666ff">Metamodel::TypePretense</text>
</a>
</g>
</g>
<!-- Metamodel::MethodDelegation -->
<g id="node8" class="node">
<title>Metamodel::MethodDelegation</title>
<g id="a_node8"><a xlink:href="/type/Metamodel::MethodDelegation" xlink:title="Metamodel::MethodDelegation">
<ellipse fill="none" stroke="#6666ff" cx="807.46" cy="-18" rx="131.08" ry="18"/>
<text text-anchor="middle" x="807.46" y="-14.3" font-family="FreeSans" font-size="14.00" fill="#6666ff">Metamodel::MethodDelegation</text>
</a>
</g>
</g>
<!-- Metamodel::ModuleHOW -->
<g id="node9" class="node">
<title>Metamodel::ModuleHOW</title>
<g id="a_node9"><a xlink:href="/type/Metamodel::ModuleHOW" xlink:title="Metamodel::ModuleHOW">
<ellipse fill="none" stroke="#000000" cx="819.74" cy="-539.83" rx="110.48" ry="18"/>
<text text-anchor="middle" x="819.74" y="-536.13" font-family="FreeSans" font-size="14.00" fill="#000000">Metamodel::ModuleHOW</text>
</a>
</g>
</g>
<!-- Metamodel::ModuleHOW&#45;&gt;Metamodel::Stashing -->
<g id="edge12" class="edge">
<title>Metamodel::ModuleHOW&#45;&gt;Metamodel::Stashing</title>
<path fill="none" stroke="#6666ff" d="M825.18,-558.05C850.38,-642.39 954.44,-990.61 954.44,-990.61 954.44,-990.61 952.96,-998.81 951.26,-1008.27"/>
<polygon fill="#6666ff" stroke="#6666ff" points="947.79,-1007.83 949.46,-1018.29 954.68,-1009.07 947.79,-1007.83"/>
</g>
<!-- Metamodel::ModuleHOW&#45;&gt;Any -->
<g id="edge2" class="edge">
<title>Metamodel::ModuleHOW&#45;&gt;Any</title>
<path fill="none" stroke="#000000" d="M829.57,-558C862.33,-618.52 967.86,-813.48 1006.5,-884.85"/>
<polygon fill="#000000" stroke="#000000" points="1003.65,-886.94 1011.49,-894.07 1009.81,-883.61 1003.65,-886.94"/>
</g>
<!-- Metamodel::ModuleHOW&#45;&gt;Metamodel::Naming -->
<g id="edge9" class="edge">
<title>Metamodel::ModuleHOW&#45;&gt;Metamodel::Naming</title>
<path fill="none" stroke="#6666ff" d="M821.46,-558.05C828.07,-627.62 851.71,-876.81 859.78,-961.82"/>
<polygon fill="#6666ff" stroke="#6666ff" points="856.32,-962.4 860.75,-972.02 863.29,-961.74 856.32,-962.4"/>
</g>
<!-- Metamodel::ModuleHOW&#45;&gt;Metamodel::Documenting -->
<g id="edge10" class="edge">
<title>Metamodel::ModuleHOW&#45;&gt;Metamodel::Documenting</title>
<path fill="none" stroke="#6666ff" d="M843.07,-557.63C905.64,-605.36 1077.2,-736.23 1148.23,-790.41"/>
<polygon fill="#6666ff" stroke="#6666ff" points="1146.3,-793.35 1156.38,-796.63 1150.55,-787.78 1146.3,-793.35"/>
</g>
<!-- Metamodel::ModuleHOW&#45;&gt;Metamodel::Versioning -->
<g id="edge11" class="edge">
<title>Metamodel::ModuleHOW&#45;&gt;Metamodel::Versioning</title>
<path fill="none" stroke="#6666ff" d="M835.95,-557.83C890.95,-618.88 1066.92,-814.24 1066.92,-814.24 1066.92,-814.24 1148.92,-895.15 1191.75,-937.41"/>
<polygon fill="#6666ff" stroke="#6666ff" points="1189.44,-940.04 1199.02,-944.57 1194.36,-935.06 1189.44,-940.04"/>
</g>
<!-- Metamodel::ModuleHOW&#45;&gt;Metamodel::TypePretense -->
<g id="edge13" class="edge">
<title>Metamodel::ModuleHOW&#45;&gt;Metamodel::TypePretense</title>
<path fill="none" stroke="#6666ff" d="M748.92,-553.71C676.31,-567.94 563.48,-590.06 487.05,-605.04"/>
<polygon fill="#6666ff" stroke="#6666ff" points="486.12,-601.66 476.98,-607.02 487.46,-608.53 486.12,-601.66"/>
</g>
<!-- Metamodel::ModuleHOW&#45;&gt;Metamodel::MethodDelegation -->
<g id="edge14" class="edge">
<title>Metamodel::ModuleHOW&#45;&gt;Metamodel::MethodDelegation</title>
<path fill="none" stroke="#6666ff" d="M810.61,-521.76C798.49,-497.78 778.6,-458.43 778.6,-458.43 778.6,-458.43 799.22,-143.69 805.6,-46.34"/>
<polygon fill="#6666ff" stroke="#6666ff" points="809.12,-46.29 806.28,-36.09 802.13,-45.84 809.12,-46.29"/>
</g>
<!-- Metamodel::MultipleInheritance -->
<g id="node10" class="node">
<title>Metamodel::MultipleInheritance</title>
<g id="a_node10"><a xlink:href="/type/Metamodel::MultipleInheritance" xlink:title="Metamodel::MultipleInheritance">
<ellipse fill="none" stroke="#6666ff" cx="1420.5" cy="-1161.58" rx="133.78" ry="18"/>
<text text-anchor="middle" x="1420.5" y="-1157.88" font-family="FreeSans" font-size="14.00" fill="#6666ff">Metamodel::MultipleInheritance</text>
</a>
</g>
</g>
<!-- Metamodel::C3MRO -->
<g id="node11" class="node">
<title>Metamodel::C3MRO</title>
<g id="a_node11"><a xlink:href="/type/Metamodel::C3MRO" xlink:title="Metamodel::C3MRO">
<ellipse fill="none" stroke="#6666ff" cx="1815.37" cy="-1221.15" rx="92.08" ry="18"/>
<text text-anchor="middle" x="1815.37" y="-1217.45" font-family="FreeSans" font-size="14.00" fill="#6666ff">Metamodel::C3MRO</text>
</a>
</g>
</g>
<!-- Metamodel::MROBasedMethodDispatch -->
<g id="node12" class="node">
<title>Metamodel::MROBasedMethodDispatch</title>
<g id="a_node12"><a xlink:href="/type/Metamodel::MROBasedMethodDispatch" xlink:title="Metamodel::MROBasedMethodDispatch">
<ellipse fill="none" stroke="#6666ff" cx="1603.93" cy="-1409.2" rx="169.77" ry="18"/>
<text text-anchor="middle" x="1603.93" y="-1405.5" font-family="FreeSans" font-size="14.00" fill="#6666ff">Metamodel::MROBasedMethodDispatch</text>
</a>
</g>
</g>
<!-- Metamodel::MROBasedTypeChecking -->
<g id="node13" class="node">
<title>Metamodel::MROBasedTypeChecking</title>
<g id="a_node13"><a xlink:href="/type/Metamodel::MROBasedTypeChecking" xlink:title="Metamodel::MROBasedTypeChecking">
<ellipse fill="none" stroke="#6666ff" cx="1517.34" cy="-1577.08" rx="163.27" ry="18"/>
<text text-anchor="middle" x="1517.34" y="-1573.38" font-family="FreeSans" font-size="14.00" fill="#6666ff">Metamodel::MROBasedTypeChecking</text>
</a>
</g>
</g>
<!-- Metamodel::NativeHOW -->
<g id="node14" class="node">
<title>Metamodel::NativeHOW</title>
<g id="a_node14"><a xlink:href="/type/Metamodel::NativeHOW" xlink:title="Metamodel::NativeHOW">
<ellipse fill="none" stroke="#000000" cx="1529.37" cy="-897.85" rx="106.68" ry="18"/>
<text text-anchor="middle" x="1529.37" y="-894.15" font-family="FreeSans" font-size="14.00" fill="#000000">Metamodel::NativeHOW</text>
</a>
</g>
</g>
<!-- Metamodel::NativeHOW&#45;&gt;Metamodel::Stashing -->
<g id="edge18" class="edge">
<title>Metamodel::NativeHOW&#45;&gt;Metamodel::Stashing</title>
<path fill="none" stroke="#6666ff" d="M1480.44,-913.84C1410.16,-936.81 1289.02,-976.4 1289.02,-976.4 1289.02,-976.4 1126.74,-1004.8 1025.49,-1022.51"/>
<polygon fill="#6666ff" stroke="#6666ff" points="1024.83,-1019.07 1015.58,-1024.24 1026.04,-1025.97 1024.83,-1019.07"/>
</g>
<!-- Metamodel::NativeHOW&#45;&gt;Any -->
<g id="edge3" class="edge">
<title>Metamodel::NativeHOW&#45;&gt;Any</title>
<path fill="none" stroke="#000000" d="M1424,-900.64C1309.94,-903.67 1134.16,-908.34 1058.07,-910.35"/>
<polygon fill="#000000" stroke="#000000" points="1057.91,-906.86 1048.01,-910.62 1058.1,-913.85 1057.91,-906.86"/>
</g>
<!-- Metamodel::NativeHOW&#45;&gt;Metamodel::Naming -->
<g id="edge15" class="edge">
<title>Metamodel::NativeHOW&#45;&gt;Metamodel::Naming</title>
<path fill="none" stroke="#6666ff" d="M1445.08,-908.96C1332.01,-923.87 1145.26,-948.5 1145.26,-948.5 1145.26,-948.5 1028.42,-965.84 944.95,-978.23"/>
<polygon fill="#6666ff" stroke="#6666ff" points="944.32,-974.79 934.95,-979.72 945.35,-981.71 944.32,-974.79"/>
</g>
<!-- Metamodel::NativeHOW&#45;&gt;Metamodel::Documenting -->
<g id="edge16" class="edge">
<title>Metamodel::NativeHOW&#45;&gt;Metamodel::Documenting</title>
<path fill="none" stroke="#6666ff" d="M1467.65,-883.12C1407.44,-868.75 1315.86,-846.9 1252.2,-831.7"/>
<polygon fill="#6666ff" stroke="#6666ff" points="1252.77,-828.24 1242.23,-829.32 1251.15,-835.05 1252.77,-828.24"/>
</g>
<!-- Metamodel::NativeHOW&#45;&gt;Metamodel::Versioning -->
<g id="edge17" class="edge">
<title>Metamodel::NativeHOW&#45;&gt;Metamodel::Versioning</title>
<path fill="none" stroke="#6666ff" d="M1461.62,-911.87C1412.02,-922.13 1344.67,-936.06 1293.22,-946.71"/>
<polygon fill="#6666ff" stroke="#6666ff" points="1292.23,-943.34 1283.15,-948.79 1293.65,-950.19 1292.23,-943.34"/>
</g>
<!-- Metamodel::NativeHOW&#45;&gt;Metamodel::MultipleInheritance -->
<g id="edge19" class="edge">
<title>Metamodel::NativeHOW&#45;&gt;Metamodel::MultipleInheritance</title>
<path fill="none" stroke="#6666ff" d="M1521.89,-915.97C1503.16,-961.33 1454.2,-1079.95 1431.88,-1134.02"/>
<polygon fill="#6666ff" stroke="#6666ff" points="1428.62,-1132.75 1428.04,-1143.33 1435.09,-1135.42 1428.62,-1132.75"/>
</g>
<!-- Metamodel::NativeHOW&#45;&gt;Metamodel::C3MRO -->
<g id="edge20" class="edge">
<title>Metamodel::NativeHOW&#45;&gt;Metamodel::C3MRO</title>
<path fill="none" stroke="#6666ff" d="M1545.15,-915.69C1593.11,-969.9 1737.2,-1132.79 1792.97,-1195.84"/>
<polygon fill="#6666ff" stroke="#6666ff" points="1790.38,-1198.2 1799.63,-1203.37 1795.63,-1193.56 1790.38,-1198.2"/>
</g>
<!-- Metamodel::NativeHOW&#45;&gt;Metamodel::MROBasedMethodDispatch -->
<g id="edge21" class="edge">
<title>Metamodel::NativeHOW&#45;&gt;Metamodel::MROBasedMethodDispatch</title>
<path fill="none" stroke="#6666ff" d="M1532.02,-916.05C1543.17,-992.46 1586.21,-1287.7 1599.8,-1380.87"/>
<polygon fill="#6666ff" stroke="#6666ff" points="1596.36,-1381.57 1601.27,-1390.96 1603.29,-1380.56 1596.36,-1381.57"/>
</g>
<!-- Metamodel::NativeHOW&#45;&gt;Metamodel::MROBasedTypeChecking -->
<g id="edge22" class="edge">
<title>Metamodel::NativeHOW&#45;&gt;Metamodel::MROBasedTypeChecking</title>
<path fill="none" stroke="#6666ff" d="M1531.2,-915.98C1537.21,-975.59 1555.99,-1161.69 1555.99,-1161.69 1555.99,-1161.69 1432.7,-1409.02 1432.7,-1409.02 1432.7,-1409.02 1479.75,-1502.43 1503.69,-1549.97"/>
<polygon fill="#6666ff" stroke="#6666ff" points="1500.66,-1551.74 1508.29,-1559.09 1506.91,-1548.59 1500.66,-1551.74"/>
</g>
<!-- Metamodel::AttributeContainer -->
<g id="node15" class="node">
<title>Metamodel::AttributeContainer</title>
<g id="a_node15"><a xlink:href="/type/Metamodel::AttributeContainer" xlink:title="Metamodel::AttributeContainer">
<ellipse fill="none" stroke="#6666ff" cx="660.01" cy="-1669.84" rx="129.98" ry="18"/>
<text text-anchor="middle" x="660.01" y="-1666.14" font-family="FreeSans" font-size="14.00" fill="#6666ff">Metamodel::AttributeContainer</text>
</a>
</g>
</g>
<!-- Metamodel::MethodContainer -->
<g id="node16" class="node">
<title>Metamodel::MethodContainer</title>
<g id="a_node16"><a xlink:href="/type/Metamodel::MethodContainer" xlink:title="Metamodel::MethodContainer">
<ellipse fill="none" stroke="#6666ff" cx="977.26" cy="-1801.65" rx="127.28" ry="18"/>
<text text-anchor="middle" x="977.26" y="-1797.95" font-family="FreeSans" font-size="14.00" fill="#6666ff">Metamodel::MethodContainer</text>
</a>
</g>
</g>
<!-- Metamodel::MultiMethodContainer -->
<g id="node17" class="node">
<title>Metamodel::MultiMethodContainer</title>
<g id="a_node17"><a xlink:href="/type/Metamodel::MultiMethodContainer" xlink:title="Metamodel::MultiMethodContainer">
<ellipse fill="none" stroke="#6666ff" cx="695.6" cy="-1784.54" rx="146.47" ry="18"/>
<text text-anchor="middle" x="695.6" y="-1780.84" font-family="FreeSans" font-size="14.00" fill="#6666ff">Metamodel::MultiMethodContainer</text>
</a>
</g>
</g>
<!-- Metamodel::RoleContainer -->
<g id="node18" class="node">
<title>Metamodel::RoleContainer</title>
<g id="a_node18"><a xlink:href="/type/Metamodel::RoleContainer" xlink:title="Metamodel::RoleContainer">
<ellipse fill="none" stroke="#6666ff" cx="577.59" cy="-1570.16" rx="115.88" ry="18"/>
<text text-anchor="middle" x="577.59" y="-1566.46" font-family="FreeSans" font-size="14.00" fill="#6666ff">Metamodel::RoleContainer</text>
</a>
</g>
</g>
<!-- Metamodel::BaseType -->
<g id="node19" class="node">
<title>Metamodel::BaseType</title>
<g id="a_node19"><a xlink:href="/type/Metamodel::BaseType" xlink:title="Metamodel::BaseType">
<ellipse fill="none" stroke="#6666ff" cx="373.32" cy="-1996.53" rx="99.38" ry="18"/>
<text text-anchor="middle" x="373.32" y="-1992.83" font-family="FreeSans" font-size="14.00" fill="#6666ff">Metamodel::BaseType</text>
</a>
</g>
</g>
<!-- Metamodel::BUILDPLAN -->
<g id="node20" class="node">
<title>Metamodel::BUILDPLAN</title>
<g id="a_node20"><a xlink:href="/type/Metamodel::BUILDPLAN" xlink:title="Metamodel::BUILDPLAN">
<ellipse fill="none" stroke="#6666ff" cx="1257.11" cy="-1941.31" rx="109.68" ry="18"/>
<text text-anchor="middle" x="1257.11" y="-1937.61" font-family="FreeSans" font-size="14.00" fill="#6666ff">Metamodel::BUILDPLAN</text>
</a>
</g>
</g>
<!-- Metamodel::BoolificationProtocol -->
<g id="node21" class="node">
<title>Metamodel::BoolificationProtocol</title>
<g id="a_node21"><a xlink:href="/type/Metamodel::BoolificationProtocol" xlink:title="Metamodel::BoolificationProtocol">
<ellipse fill="none" stroke="#6666ff" cx="574.35" cy="-1379.24" rx="139.18" ry="18"/>
<text text-anchor="middle" x="574.35" y="-1375.54" font-family="FreeSans" font-size="14.00" fill="#6666ff">Metamodel::BoolificationProtocol</text>
</a>
</g>
</g>
<!-- Metamodel::Mixins -->
<g id="node22" class="node">
<title>Metamodel::Mixins</title>
<g id="a_node22"><a xlink:href="/type/Metamodel::Mixins" xlink:title="Metamodel::Mixins">
<ellipse fill="none" stroke="#6666ff" cx="1086.15" cy="-2027.77" rx="85.29" ry="18"/>
<text text-anchor="middle" x="1086.15" y="-2024.07" font-family="FreeSans" font-size="14.00" fill="#6666ff">Metamodel::Mixins</text>
</a>
</g>
</g>
<!-- Metamodel::EnumHOW -->
<g id="node23" class="node">
<title>Metamodel::EnumHOW</title>
<g id="a_node23"><a xlink:href="/type/Metamodel::EnumHOW" xlink:title="Metamodel::EnumHOW">
<ellipse fill="none" stroke="#000000" cx="966.22" cy="-1509.97" rx="104.78" ry="18"/>
<text text-anchor="middle" x="966.22" y="-1506.27" font-family="FreeSans" font-size="14.00" fill="#000000">Metamodel::EnumHOW</text>
</a>
</g>
</g>
<!-- Metamodel::EnumHOW&#45;&gt;Metamodel::Stashing -->
<g id="edge24" class="edge">
<title>Metamodel::EnumHOW&#45;&gt;Metamodel::Stashing</title>
<path fill="none" stroke="#6666ff" d="M965.44,-1491.7C962.39,-1419.33 951.12,-1152.49 947.41,-1064.63"/>
<polygon fill="#6666ff" stroke="#6666ff" points="950.9,-1064.45 946.98,-1054.6 943.91,-1064.74 950.9,-1064.45"/>
</g>
<!-- Metamodel::EnumHOW&#45;&gt;Any -->
<g id="edge4" class="edge">
<title>Metamodel::EnumHOW&#45;&gt;Any</title>
<path fill="none" stroke="#000000" d="M969.12,-1491.7C982.94,-1404.67 1041.4,-1036.42 1041.4,-1036.42 1041.4,-1036.42 1031.52,-976.3 1025.45,-939.42"/>
<polygon fill="#000000" stroke="#000000" points="1028.86,-938.56 1023.78,-929.26 1021.95,-939.7 1028.86,-938.56"/>
</g>
<!-- Metamodel::EnumHOW&#45;&gt;Metamodel::Naming -->
<g id="edge23" class="edge">
<title>Metamodel::EnumHOW&#45;&gt;Metamodel::Naming</title>
<path fill="none" stroke="#6666ff" d="M961.84,-1491.99C940.8,-1405.47 851.02,-1036.34 851.02,-1036.34 851.02,-1036.34 853.12,-1027.95 855.52,-1018.35"/>
<polygon fill="#6666ff" stroke="#6666ff" points="858.93,-1019.15 857.96,-1008.6 852.14,-1017.45 858.93,-1019.15"/>
</g>
<!-- Metamodel::EnumHOW&#45;&gt;Metamodel::MROBasedMethodDispatch -->
<g id="edge30" class="edge">
<title>Metamodel::EnumHOW&#45;&gt;Metamodel::MROBasedMethodDispatch</title>
<path fill="none" stroke="#6666ff" d="M1060.74,-1502.16C1145.74,-1495.13 1257.34,-1485.9 1257.34,-1485.9 1257.34,-1485.9 1417.83,-1450.39 1520.38,-1427.69"/>
<polygon fill="#6666ff" stroke="#6666ff" points="1521.42,-1431.05 1530.43,-1425.47 1519.91,-1424.21 1521.42,-1431.05"/>
</g>
<!-- Metamodel::EnumHOW&#45;&gt;Metamodel::MROBasedTypeChecking -->
<g id="edge31" class="edge">
<title>Metamodel::EnumHOW&#45;&gt;Metamodel::MROBasedTypeChecking</title>
<path fill="none" stroke="#6666ff" d="M1051.72,-1520.39C1144.43,-1531.67 1293.08,-1549.77 1397.43,-1562.48"/>
<polygon fill="#6666ff" stroke="#6666ff" points="1397.03,-1565.96 1407.38,-1563.69 1397.88,-1559.01 1397.03,-1565.96"/>
</g>
<!-- Metamodel::EnumHOW&#45;&gt;Metamodel::AttributeContainer -->
<g id="edge25" class="edge">
<title>Metamodel::EnumHOW&#45;&gt;Metamodel::AttributeContainer</title>
<path fill="none" stroke="#6666ff" d="M933.45,-1527.08C877.68,-1556.2 764.38,-1615.35 702.57,-1647.62"/>
<polygon fill="#6666ff" stroke="#6666ff" points="700.71,-1644.64 693.47,-1652.37 703.95,-1650.84 700.71,-1644.64"/>
</g>
<!-- Metamodel::EnumHOW&#45;&gt;Metamodel::MethodContainer -->
<g id="edge26" class="edge">
<title>Metamodel::EnumHOW&#45;&gt;Metamodel::MethodContainer</title>
<path fill="none" stroke="#6666ff" d="M966.91,-1528.22C968.77,-1577.53 973.93,-1713.75 976.18,-1773.23"/>
<polygon fill="#6666ff" stroke="#6666ff" points="972.69,-1773.55 976.57,-1783.41 979.69,-1773.29 972.69,-1773.55"/>
</g>
<!-- Metamodel::EnumHOW&#45;&gt;Metamodel::MultiMethodContainer -->
<g id="edge27" class="edge">
<title>Metamodel::EnumHOW&#45;&gt;Metamodel::MultiMethodContainer</title>
<path fill="none" stroke="#6666ff" d="M948.46,-1527.99C901.63,-1575.5 774.66,-1704.33 720.56,-1759.22"/>
<polygon fill="#6666ff" stroke="#6666ff" points="717.95,-1756.88 713.43,-1766.46 722.94,-1761.79 717.95,-1756.88"/>
</g>
<!-- Metamodel::EnumHOW&#45;&gt;Metamodel::RoleContainer -->
<g id="edge28" class="edge">
<title>Metamodel::EnumHOW&#45;&gt;Metamodel::RoleContainer</title>
<path fill="none" stroke="#6666ff" d="M888.04,-1522.08C825,-1531.84 736.21,-1545.6 669.72,-1555.89"/>
<polygon fill="#6666ff" stroke="#6666ff" points="669.01,-1552.46 659.66,-1557.45 670.08,-1559.38 669.01,-1552.46"/>
</g>
<!-- Metamodel::EnumHOW&#45;&gt;Metamodel::BaseType -->
<g id="edge29" class="edge">
<title>Metamodel::EnumHOW&#45;&gt;Metamodel::BaseType</title>
<path fill="none" stroke="#6666ff" d="M946.86,-1527.69C901.4,-1569.32 791.59,-1669.85 791.59,-1669.85 791.59,-1669.85 547.77,-1784.48 547.77,-1784.48 547.77,-1784.48 441.13,-1914.11 394.6,-1970.66"/>
<polygon fill="#6666ff" stroke="#6666ff" points="391.85,-1968.5 388.2,-1978.45 397.25,-1972.95 391.85,-1968.5"/>
</g>
<!-- Metamodel::EnumHOW&#45;&gt;Metamodel::BUILDPLAN -->
<g id="edge32" class="edge">
<title>Metamodel::EnumHOW&#45;&gt;Metamodel::BUILDPLAN</title>
<path fill="none" stroke="#6666ff" d="M978.34,-1527.96C1023.9,-1595.51 1184.95,-1834.3 1239.15,-1914.68"/>
<polygon fill="#6666ff" stroke="#6666ff" points="1236.44,-1916.92 1244.93,-1923.25 1242.24,-1913 1236.44,-1916.92"/>
</g>
<!-- Metamodel::EnumHOW&#45;&gt;Metamodel::BoolificationProtocol -->
<g id="edge33" class="edge">
<title>Metamodel::EnumHOW&#45;&gt;Metamodel::BoolificationProtocol</title>
<path fill="none" stroke="#6666ff" d="M918.16,-1493.94C846.63,-1470.08 712.21,-1425.23 634.32,-1399.25"/>
<polygon fill="#6666ff" stroke="#6666ff" points="635.24,-1395.86 624.65,-1396.02 633.03,-1402.5 635.24,-1395.86"/>
</g>
<!-- Metamodel::EnumHOW&#45;&gt;Metamodel::Mixins -->
<g id="edge34" class="edge">
<title>Metamodel::EnumHOW&#45;&gt;Metamodel::Mixins</title>
<path fill="none" stroke="#6666ff" d="M974.98,-1528.23C1005.63,-1592.11 1106.24,-1801.76 1106.24,-1801.76 1106.24,-1801.76 1094.04,-1939.05 1088.65,-1999.62"/>
<polygon fill="#6666ff" stroke="#6666ff" points="1085.16,-1999.39 1087.76,-2009.66 1092.13,-2000.01 1085.16,-1999.39"/>
</g>
<!-- Metamodel::PrivateMethodContainer -->
<g id="node24" class="node">
<title>Metamodel::PrivateMethodContainer</title>
<g id="a_node24"><a xlink:href="/type/Metamodel::PrivateMethodContainer" xlink:title="Metamodel::PrivateMethodContainer">
<ellipse fill="none" stroke="#6666ff" cx="1276.82" cy="-1297.96" rx="154.87" ry="18"/>
<text text-anchor="middle" x="1276.82" y="-1294.26" font-family="FreeSans" font-size="14.00" fill="#6666ff">Metamodel::PrivateMethodContainer</text>
</a>
</g>
</g>
<!-- Metamodel::RolePunning -->
<g id="node25" class="node">
<title>Metamodel::RolePunning</title>
<g id="a_node25"><a xlink:href="/type/Metamodel::RolePunning" xlink:title="Metamodel::RolePunning">
<ellipse fill="none" stroke="#6666ff" cx="109.84" cy="-1109.78" rx="109.68" ry="18"/>
<text text-anchor="middle" x="109.84" y="-1106.08" font-family="FreeSans" font-size="14.00" fill="#6666ff">Metamodel::RolePunning</text>
</a>
</g>
</g>
<!-- Metamodel::ParametricRoleHOW -->
<g id="node26" class="node">
<title>Metamodel::ParametricRoleHOW</title>
<g id="a_node26"><a xlink:href="/type/Metamodel::ParametricRoleHOW" xlink:title="Metamodel::ParametricRoleHOW">
<ellipse fill="none" stroke="#000000" cx="710.59" cy="-1190.38" rx="141.88" ry="18"/>
<text text-anchor="middle" x="710.59" y="-1186.68" font-family="FreeSans" font-size="14.00" fill="#000000">Metamodel::ParametricRoleHOW</text>
</a>
</g>
</g>
<!-- Metamodel::ParametricRoleHOW&#45;&gt;Metamodel::Stashing -->
<g id="edge44" class="edge">
<title>Metamodel::ParametricRoleHOW&#45;&gt;Metamodel::Stashing</title>
<path fill="none" stroke="#6666ff" d="M738.08,-1172.42C781.05,-1144.33 864.09,-1090.06 911.25,-1059.23"/>
<polygon fill="#6666ff" stroke="#6666ff" points="913.17,-1062.16 919.62,-1053.76 909.34,-1056.3 913.17,-1062.16"/>
</g>
<!-- Metamodel::ParametricRoleHOW&#45;&gt;Any -->
<g id="edge5" class="edge">
<title>Metamodel::ParametricRoleHOW&#45;&gt;Any</title>
<path fill="none" stroke="#000000" d="M726.98,-1172.41C764.02,-1131.78 851.02,-1036.34 851.02,-1036.34 851.02,-1036.34 879.04,-1022.49 879.04,-1022.49 879.04,-1022.49 927.05,-1004.43 927.05,-1004.43 927.05,-1004.43 954.44,-990.61 954.44,-990.61 954.44,-990.61 981.29,-958.55 1000.84,-935.21"/>
<polygon fill="#000000" stroke="#000000" points="1003.66,-937.3 1007.4,-927.38 998.3,-932.8 1003.66,-937.3"/>
</g>
<!-- Metamodel::ParametricRoleHOW&#45;&gt;Metamodel::Naming -->
<g id="edge35" class="edge">
<title>Metamodel::ParametricRoleHOW&#45;&gt;Metamodel::Naming</title>
<path fill="none" stroke="#6666ff" d="M724.34,-1172.29C751.34,-1136.76 811.38,-1057.74 842.67,-1016.57"/>
<polygon fill="#6666ff" stroke="#6666ff" points="845.63,-1018.46 848.89,-1008.38 840.05,-1014.23 845.63,-1018.46"/>
</g>
<!-- Metamodel::ParametricRoleHOW&#45;&gt;Metamodel::Documenting -->
<g id="edge36" class="edge">
<title>Metamodel::ParametricRoleHOW&#45;&gt;Metamodel::Documenting</title>
<path fill="none" stroke="#6666ff" d="M726.98,-1172.41C764.02,-1131.78 851.02,-1036.34 851.02,-1036.34 851.02,-1036.34 879.04,-1022.49 879.04,-1022.49 879.04,-1022.49 927.05,-1004.43 927.05,-1004.43 927.05,-1004.43 954.44,-990.61 954.44,-990.61 954.44,-990.61 1041,-925.24 1041,-925.24 1041,-925.24 1108.56,-871.23 1149.36,-838.61"/>
<polygon fill="#6666ff" stroke="#6666ff" points="1151.76,-841.18 1157.38,-832.2 1147.39,-835.71 1151.76,-841.18"/>
</g>
<!-- Metamodel::ParametricRoleHOW&#45;&gt;Metamodel::Versioning -->
<g id="edge37" class="edge">
<title>Metamodel::ParametricRoleHOW&#45;&gt;Metamodel::Versioning</title>
<path fill="none" stroke="#6666ff" d="M749.5,-1172.88C841.4,-1131.52 1071.63,-1027.93 1170.66,-983.37"/>
<polygon fill="#6666ff" stroke="#6666ff" points="1172.14,-986.54 1179.82,-979.24 1169.27,-980.15 1172.14,-986.54"/>
</g>
<!-- Metamodel::ParametricRoleHOW&#45;&gt;Metamodel::TypePretense -->
<g id="edge45" class="edge">
<title>Metamodel::ParametricRoleHOW&#45;&gt;Metamodel::TypePretense</title>
<path fill="none" stroke="#6666ff" d="M703.18,-1172.06C677.63,-1108.96 594.84,-904.49 594.84,-904.49 594.84,-904.49 470.02,-718.1 422.84,-647.65"/>
<polygon fill="#6666ff" stroke="#6666ff" points="425.7,-645.63 417.23,-639.27 419.88,-649.53 425.7,-645.63"/>
</g>
<!-- Metamodel::ParametricRoleHOW&#45;&gt;Metamodel::MultipleInheritance -->
<g id="edge43" class="edge">
<title>Metamodel::ParametricRoleHOW&#45;&gt;Metamodel::MultipleInheritance</title>
<path fill="none" stroke="#6666ff" d="M845.79,-1184.9C970.84,-1179.83 1155.87,-1172.32 1281.97,-1167.2"/>
<polygon fill="#6666ff" stroke="#6666ff" points="1282.23,-1170.7 1292.08,-1166.79 1281.95,-1163.7 1282.23,-1170.7"/>
</g>
<!-- Metamodel::ParametricRoleHOW&#45;&gt;Metamodel::AttributeContainer -->
<g id="edge41" class="edge">
<title>Metamodel::ParametricRoleHOW&#45;&gt;Metamodel::AttributeContainer</title>
<path fill="none" stroke="#6666ff" d="M711.02,-1208.5C712.13,-1255.78 715.03,-1379.3 715.03,-1379.3 715.03,-1379.3 694.87,-1570.35 694.87,-1570.35 694.87,-1570.35 680.14,-1612.37 669.83,-1641.8"/>
<polygon fill="#6666ff" stroke="#6666ff" points="666.41,-1641 666.4,-1651.59 673.01,-1643.31 666.41,-1641"/>
</g>
<!-- Metamodel::ParametricRoleHOW&#45;&gt;Metamodel::MethodContainer -->
<g id="edge38" class="edge">
<title>Metamodel::ParametricRoleHOW&#45;&gt;Metamodel::MethodContainer</title>
<path fill="none" stroke="#6666ff" d="M718.58,-1208.68C756.6,-1295.85 919.48,-1669.22 965.25,-1774.13"/>
<polygon fill="#6666ff" stroke="#6666ff" points="962.1,-1775.66 969.31,-1783.43 968.52,-1772.86 962.1,-1775.66"/>
</g>
<!-- Metamodel::ParametricRoleHOW&#45;&gt;Metamodel::MultiMethodContainer -->
<g id="edge40" class="edge">
<title>Metamodel::ParametricRoleHOW&#45;&gt;Metamodel::MultiMethodContainer</title>
<path fill="none" stroke="#6666ff" d="M713.67,-1208.59C728.47,-1296.18 791.59,-1669.85 791.59,-1669.85 791.59,-1669.85 745.32,-1725.14 717.03,-1758.94"/>
<polygon fill="#6666ff" stroke="#6666ff" points="714.34,-1756.7 710.6,-1766.62 719.71,-1761.2 714.34,-1756.7"/>
</g>
<!-- Metamodel::ParametricRoleHOW&#45;&gt;Metamodel::RoleContainer -->
<g id="edge42" class="edge">
<title>Metamodel::ParametricRoleHOW&#45;&gt;Metamodel::RoleContainer</title>
<path fill="none" stroke="#6666ff" d="M711.02,-1208.5C712.13,-1255.78 715.03,-1379.3 715.03,-1379.3 715.03,-1379.3 634.01,-1491.82 596.38,-1544.07"/>
<polygon fill="#6666ff" stroke="#6666ff" points="593.52,-1542.05 590.52,-1552.21 599.2,-1546.14 593.52,-1542.05"/>
</g>
<!-- Metamodel::ParametricRoleHOW&#45;&gt;Metamodel::PrivateMethodContainer -->
<g id="edge39" class="edge">
<title>Metamodel::ParametricRoleHOW&#45;&gt;Metamodel::PrivateMethodContainer</title>
<path fill="none" stroke="#6666ff" d="M789.62,-1205.4C893.58,-1225.15 1075.89,-1259.79 1185.59,-1280.63"/>
<polygon fill="#6666ff" stroke="#6666ff" points="1185.17,-1284.11 1195.65,-1282.54 1186.48,-1277.23 1185.17,-1284.11"/>
</g>
<!-- Metamodel::ParametricRoleHOW&#45;&gt;Metamodel::RolePunning -->
<g id="edge46" class="edge">
<title>Metamodel::ParametricRoleHOW&#45;&gt;Metamodel::RolePunning</title>
<path fill="none" stroke="#6666ff" d="M613.07,-1177.3C500.61,-1162.21 316.95,-1137.57 205.35,-1122.59"/>
<polygon fill="#6666ff" stroke="#6666ff" points="205.49,-1119.08 195.12,-1121.22 204.56,-1126.02 205.49,-1119.08"/>
</g>
<!-- Metamodel::ParametricRoleGroupHOW -->
<g id="node27" class="node">
<title>Metamodel::ParametricRoleGroupHOW</title>
<g id="a_node27"><a xlink:href="/type/Metamodel::ParametricRoleGroupHOW" xlink:title="Metamodel::ParametricRoleGroupHOW">
<ellipse fill="none" stroke="#000000" cx="426.86" cy="-904.44" rx="166.27" ry="18"/>
<text text-anchor="middle" x="426.86" y="-900.74" font-family="FreeSans" font-size="14.00" fill="#000000">Metamodel::ParametricRoleGroupHOW</text>
</a>
</g>
</g>
<!-- Metamodel::ParametricRoleGroupHOW&#45;&gt;Metamodel::Stashing -->
<g id="edge48" class="edge">
<title>Metamodel::ParametricRoleGroupHOW&#45;&gt;Metamodel::Stashing</title>
<path fill="none" stroke="#6666ff" d="M489.23,-921.26C594.73,-949.7 797.03,-1004.24 797.03,-1004.24 797.03,-1004.24 835.71,-1012.57 873.68,-1020.75"/>
<polygon fill="#6666ff" stroke="#6666ff" points="873.3,-1024.25 883.81,-1022.94 874.77,-1017.41 873.3,-1024.25"/>
</g>
<!-- Metamodel::ParametricRoleGroupHOW&#45;&gt;Any -->
<g id="edge6" class="edge">
<title>Metamodel::ParametricRoleGroupHOW&#45;&gt;Any</title>
<path fill="none" stroke="#000000" d="M592.32,-906.36C726.9,-907.93 906.64,-910.02 983.46,-910.91"/>
<polygon fill="#000000" stroke="#000000" points="983.57,-914.41 993.61,-911.03 983.65,-907.41 983.57,-914.41"/>
</g>
<!-- Metamodel::ParametricRoleGroupHOW&#45;&gt;Metamodel::Naming -->
<g id="edge47" class="edge">
<title>Metamodel::ParametricRoleGroupHOW&#45;&gt;Metamodel::Naming</title>
<path fill="none" stroke="#6666ff" d="M507.02,-920.27C587.21,-936.11 709.6,-960.28 787.81,-975.72"/>
<polygon fill="#6666ff" stroke="#6666ff" points="787.58,-979.25 798.07,-977.75 788.94,-972.38 787.58,-979.25"/>
</g>
<!-- Metamodel::ParametricRoleGroupHOW&#45;&gt;Metamodel::TypePretense -->
<g id="edge49" class="edge">
<title>Metamodel::ParametricRoleGroupHOW&#45;&gt;Metamodel::TypePretense</title>
<path fill="none" stroke="#6666ff" d="M425.46,-886.29C421.76,-838.21 411.7,-707.32 407.24,-649.37"/>
<polygon fill="#6666ff" stroke="#6666ff" points="410.71,-648.82 406.45,-639.12 403.73,-649.36 410.71,-648.82"/>
</g>
<!-- Metamodel::ParametricRoleGroupHOW&#45;&gt;Metamodel::BoolificationProtocol -->
<g id="edge51" class="edge">
<title>Metamodel::ParametricRoleGroupHOW&#45;&gt;Metamodel::BoolificationProtocol</title>
<path fill="none" stroke="#6666ff" d="M432.46,-922.47C454.91,-994.74 538.47,-1263.75 565.7,-1351.42"/>
<polygon fill="#6666ff" stroke="#6666ff" points="562.43,-1352.67 568.74,-1361.19 569.11,-1350.6 562.43,-1352.67"/>
</g>
<!-- Metamodel::ParametricRoleGroupHOW&#45;&gt;Metamodel::RolePunning -->
<g id="edge50" class="edge">
<title>Metamodel::ParametricRoleGroupHOW&#45;&gt;Metamodel::RolePunning</title>
<path fill="none" stroke="#6666ff" d="M399.28,-922.3C341.87,-959.49 209.58,-1045.17 145.68,-1086.56"/>
<polygon fill="#6666ff" stroke="#6666ff" points="143.62,-1083.73 137.13,-1092.1 147.43,-1089.6 143.62,-1083.73"/>
</g>
<!-- Metamodel::PackageHOW -->
<g id="node28" class="node">
<title>Metamodel::PackageHOW</title>
<g id="a_node28"><a xlink:href="/type/Metamodel::PackageHOW" xlink:title="Metamodel::PackageHOW">
<ellipse fill="none" stroke="#000000" cx="896.54" cy="-458.52" rx="116.18" ry="18"/>
<text text-anchor="middle" x="896.54" y="-454.82" font-family="FreeSans" font-size="14.00" fill="#000000">Metamodel::PackageHOW</text>
</a>
</g>
</g>
<!-- Metamodel::PackageHOW&#45;&gt;Metamodel::Stashing -->
<g id="edge54" class="edge">
<title>Metamodel::PackageHOW&#45;&gt;Metamodel::Stashing</title>
<path fill="none" stroke="#6666ff" d="M904.37,-476.59C914.76,-500.57 931.82,-539.93 931.82,-539.93 931.82,-539.93 954.44,-990.61 954.44,-990.61 954.44,-990.61 952.96,-998.81 951.26,-1008.27"/>
<polygon fill="#6666ff" stroke="#6666ff" points="947.79,-1007.83 949.46,-1018.29 954.68,-1009.07 947.79,-1007.83"/>
</g>
<!-- Metamodel::PackageHOW&#45;&gt;Any -->
<g id="edge7" class="edge">
<title>Metamodel::PackageHOW&#45;&gt;Any</title>
<path fill="none" stroke="#000000" d="M904.37,-476.59C914.76,-500.57 931.82,-539.93 931.82,-539.93 931.82,-539.93 993.51,-797.32 1014.18,-883.56"/>
<polygon fill="#000000" stroke="#000000" points="1010.81,-884.52 1016.54,-893.43 1017.62,-882.89 1010.81,-884.52"/>
</g>
<!-- Metamodel::PackageHOW&#45;&gt;Metamodel::Naming -->
<g id="edge52" class="edge">
<title>Metamodel::PackageHOW&#45;&gt;Metamodel::Naming</title>
<path fill="none" stroke="#6666ff" d="M904.37,-476.59C914.76,-500.57 931.82,-539.93 931.82,-539.93 931.82,-539.93 882.07,-863.27 866.86,-962.11"/>
<polygon fill="#6666ff" stroke="#6666ff" points="863.36,-961.84 865.3,-972.25 870.28,-962.9 863.36,-961.84"/>
</g>
<!-- Metamodel::PackageHOW&#45;&gt;Metamodel::Documenting -->
<g id="edge53" class="edge">
<title>Metamodel::PackageHOW&#45;&gt;Metamodel::Documenting</title>
<path fill="none" stroke="#6666ff" d="M910.97,-476.66C957.54,-535.2 1104.02,-719.32 1158.76,-788.12"/>
<polygon fill="#6666ff" stroke="#6666ff" points="1156.3,-790.65 1165.26,-796.29 1161.77,-786.29 1156.3,-790.65"/>
</g>
<!-- Metamodel::PackageHOW&#45;&gt;Metamodel::TypePretense -->
<g id="edge55" class="edge">
<title>Metamodel::PackageHOW&#45;&gt;Metamodel::TypePretense</title>
<path fill="none" stroke="#6666ff" d="M847.16,-474.86C756.09,-504.99 562.04,-569.19 464.15,-601.57"/>
<polygon fill="#6666ff" stroke="#6666ff" points="462.8,-598.33 454.41,-604.79 465,-604.97 462.8,-598.33"/>
</g>
<!-- Metamodel::PackageHOW&#45;&gt;Metamodel::MethodDelegation -->
<g id="edge56" class="edge">
<title>Metamodel::PackageHOW&#45;&gt;Metamodel::MethodDelegation</title>
<path fill="none" stroke="#6666ff" d="M892.88,-440.43C879.05,-372.03 829.88,-128.88 813.11,-45.95"/>
<polygon fill="#6666ff" stroke="#6666ff" points="816.51,-45.11 811.1,-36 809.65,-46.49 816.51,-45.11"/>
</g>
<!-- Metamodel::Finalization -->
<g id="node29" class="node">
<title>Metamodel::Finalization</title>
<g id="a_node29"><a xlink:href="/type/Metamodel::Finalization" xlink:title="Metamodel::Finalization">
<ellipse fill="none" stroke="#6666ff" cx="1456.41" cy="-2011.79" rx="103.98" ry="18"/>
<text text-anchor="middle" x="1456.41" y="-2008.09" font-family="FreeSans" font-size="14.00" fill="#6666ff">Metamodel::Finalization</text>
</a>
</g>
</g>
<!-- Metamodel::DefaultParent -->
<g id="node30" class="node">
<title>Metamodel::DefaultParent</title>
<g id="a_node30"><a xlink:href="/type/Metamodel::DefaultParent" xlink:title="Metamodel::DefaultParent">
<ellipse fill="none" stroke="#6666ff" cx="1819.16" cy="-1603.94" rx="113.18" ry="18"/>
<text text-anchor="middle" x="1819.16" y="-1600.24" font-family="FreeSans" font-size="14.00" fill="#6666ff">Metamodel::DefaultParent</text>
</a>
</g>
</g>
<!-- Metamodel::Trusting -->
<g id="node31" class="node">
<title>Metamodel::Trusting</title>
<g id="a_node31"><a xlink:href="/type/Metamodel::Trusting" xlink:title="Metamodel::Trusting">
<ellipse fill="none" stroke="#6666ff" cx="1656.41" cy="-1849.47" rx="91.78" ry="18"/>
<text text-anchor="middle" x="1656.41" y="-1845.77" font-family="FreeSans" font-size="14.00" fill="#6666ff">Metamodel::Trusting</text>
</a>
</g>
</g>
<!-- Metamodel::ClassHOW -->
<g id="node32" class="node">
<title>Metamodel::ClassHOW</title>
<g id="a_node32"><a xlink:href="/type/Metamodel::ClassHOW" xlink:title="Metamodel::ClassHOW">
<ellipse fill="none" stroke="#000000" cx="1183.37" cy="-1472" rx="103.18" ry="18"/>
<text text-anchor="middle" x="1183.37" y="-1468.3" font-family="FreeSans" font-size="14.00" fill="#000000">Metamodel::ClassHOW</text>
</a>
</g>
</g>
<!-- Metamodel::ClassHOW&#45;&gt;Metamodel::Stashing -->
<g id="edge60" class="edge">
<title>Metamodel::ClassHOW&#45;&gt;Metamodel::Stashing</title>
<path fill="none" stroke="#6666ff" d="M1173.48,-1453.84C1136.42,-1385.75 1005.58,-1145.43 961.12,-1063.77"/>
<polygon fill="#6666ff" stroke="#6666ff" points="964,-1061.73 956.14,-1054.62 957.85,-1065.08 964,-1061.73"/>
</g>
<!-- Metamodel::ClassHOW&#45;&gt;Any -->
<g id="edge8" class="edge">
<title>Metamodel::ClassHOW&#45;&gt;Any</title>
<path fill="none" stroke="#000000" d="M1176.89,-1454.02C1160.83,-1409.52 1120.54,-1297.83 1120.54,-1297.83 1120.54,-1297.83 1050.84,-1027.63 1027.99,-939.08"/>
<polygon fill="#000000" stroke="#000000" points="1031.33,-938.02 1025.45,-929.21 1024.56,-939.77 1031.33,-938.02"/>
</g>
<!-- Metamodel::ClassHOW&#45;&gt;Metamodel::Naming -->
<g id="edge57" class="edge">
<title>Metamodel::ClassHOW&#45;&gt;Metamodel::Naming</title>
<path fill="none" stroke="#6666ff" d="M1169.72,-1454.11C1107.18,-1372.13 851.02,-1036.34 851.02,-1036.34 851.02,-1036.34 853.12,-1027.95 855.52,-1018.35"/>
<polygon fill="#6666ff" stroke="#6666ff" points="858.93,-1019.15 857.96,-1008.6 852.14,-1017.45 858.93,-1019.15"/>
</g>
<!-- Metamodel::ClassHOW&#45;&gt;Metamodel::Documenting -->
<g id="edge58" class="edge">
<title>Metamodel::ClassHOW&#45;&gt;Metamodel::Documenting</title>
<path fill="none" stroke="#6666ff" d="M1176.89,-1454.02C1160.83,-1409.52 1120.54,-1297.83 1120.54,-1297.83 1120.54,-1297.83 1114.8,-962.32 1114.8,-962.32 1114.8,-962.32 1148.87,-884.61 1167.63,-841.84"/>
<polygon fill="#6666ff" stroke="#6666ff" points="1170.9,-843.1 1171.71,-832.53 1164.49,-840.28 1170.9,-843.1"/>
</g>
<!-- Metamodel::ClassHOW&#45;&gt;Metamodel::Versioning -->
<g id="edge59" class="edge">
<title>Metamodel::ClassHOW&#45;&gt;Metamodel::Versioning</title>
<path fill="none" stroke="#6666ff" d="M1176.89,-1454.02C1160.83,-1409.52 1120.54,-1297.83 1120.54,-1297.83 1120.54,-1297.83 1185.88,-1070.97 1209.08,-990.42"/>
<polygon fill="#6666ff" stroke="#6666ff" points="1212.54,-991.06 1211.94,-980.48 1205.81,-989.12 1212.54,-991.06"/>
</g>
<!-- Metamodel::ClassHOW&#45;&gt;Metamodel::MultipleInheritance -->
<g id="edge67" class="edge">
<title>Metamodel::ClassHOW&#45;&gt;Metamodel::MultipleInheritance</title>
<path fill="none" stroke="#6666ff" d="M1208.69,-1454.37C1272.18,-1410.15 1433.11,-1298.09 1433.11,-1298.09 1433.11,-1298.09 1426.78,-1229.62 1423.09,-1189.67"/>
<polygon fill="#6666ff" stroke="#6666ff" points="1426.58,-1189.35 1422.17,-1179.71 1419.61,-1189.99 1426.58,-1189.35"/>
</g>
<!-- Metamodel::ClassHOW&#45;&gt;Metamodel::C3MRO -->
<g id="edge69" class="edge">
<title>Metamodel::ClassHOW&#45;&gt;Metamodel::C3MRO</title>
<path fill="none" stroke="#6666ff" d="M1225.33,-1455.35C1337.53,-1410.81 1644.16,-1289.11 1765.24,-1241.05"/>
<polygon fill="#6666ff" stroke="#6666ff" points="1766.65,-1244.25 1774.66,-1237.31 1764.07,-1237.75 1766.65,-1244.25"/>
</g>
<!-- Metamodel::ClassHOW&#45;&gt;Metamodel::MROBasedMethodDispatch -->
<g id="edge70" class="edge">
<title>Metamodel::ClassHOW&#45;&gt;Metamodel::MROBasedMethodDispatch</title>
<path fill="none" stroke="#6666ff" d="M1261.98,-1460.26C1327.72,-1450.45 1422.18,-1436.34 1495.17,-1425.44"/>
<polygon fill="#6666ff" stroke="#6666ff" points="1495.95,-1428.87 1505.32,-1423.93 1494.91,-1421.94 1495.95,-1428.87"/>
</g>
<!-- Metamodel::ClassHOW&#45;&gt;Metamodel::MROBasedTypeChecking -->
<g id="edge71" class="edge">
<title>Metamodel::ClassHOW&#45;&gt;Metamodel::MROBasedTypeChecking</title>
<path fill="none" stroke="#6666ff" d="M1233.73,-1487.85C1292.49,-1506.33 1389.73,-1536.93 1453.67,-1557.05"/>
<polygon fill="#6666ff" stroke="#6666ff" points="1452.65,-1560.4 1463.24,-1560.06 1454.75,-1553.72 1452.65,-1560.4"/>
</g>
<!-- Metamodel::ClassHOW&#45;&gt;Metamodel::AttributeContainer -->
<g id="edge61" class="edge">
<title>Metamodel::ClassHOW&#45;&gt;Metamodel::AttributeContainer</title>
<path fill="none" stroke="#6666ff" d="M1140.1,-1488.36C1045.1,-1524.27 818.49,-1609.93 714.21,-1649.35"/>
<polygon fill="#6666ff" stroke="#6666ff" points="712.93,-1646.09 704.81,-1652.9 715.4,-1652.64 712.93,-1646.09"/>
</g>
<!-- Metamodel::ClassHOW&#45;&gt;Metamodel::MethodContainer -->
<g id="edge63" class="edge">
<title>Metamodel::ClassHOW&#45;&gt;Metamodel::MethodContainer</title>
<path fill="none" stroke="#6666ff" d="M1172,-1490.19C1137.65,-1545.13 1034.86,-1709.52 994.14,-1774.65"/>
<polygon fill="#6666ff" stroke="#6666ff" points="990.93,-1773.18 988.6,-1783.51 996.87,-1776.89 990.93,-1773.18"/>
</g>
<!-- Metamodel::ClassHOW&#45;&gt;Metamodel::MultiMethodContainer -->
<g id="edge65" class="edge">
<title>Metamodel::ClassHOW&#45;&gt;Metamodel::MultiMethodContainer</title>
<path fill="none" stroke="#6666ff" d="M1156.1,-1489.47C1073.4,-1542.46 825.39,-1701.38 731.84,-1761.32"/>
<polygon fill="#6666ff" stroke="#6666ff" points="729.82,-1758.46 723.28,-1766.8 733.59,-1764.35 729.82,-1758.46"/>
</g>
<!-- Metamodel::ClassHOW&#45;&gt;Metamodel::RoleContainer -->
<g id="edge66" class="edge">
<title>Metamodel::ClassHOW&#45;&gt;Metamodel::RoleContainer</title>
<path fill="none" stroke="#6666ff" d="M1089.92,-1479.69C1004.63,-1486.7 891.81,-1495.98 891.81,-1495.98 891.81,-1495.98 744.37,-1530.79 651.48,-1552.72"/>
<polygon fill="#6666ff" stroke="#6666ff" points="650.48,-1549.36 641.55,-1555.06 652.09,-1556.17 650.48,-1549.36"/>
</g>
<!-- Metamodel::ClassHOW&#45;&gt;Metamodel::BUILDPLAN -->
<g id="edge73" class="edge">
<title>Metamodel::ClassHOW&#45;&gt;Metamodel::BUILDPLAN</title>
<path fill="none" stroke="#6666ff" d="M1186.22,-1490.11C1197.49,-1561.83 1239.04,-1826.25 1252.72,-1913.32"/>
<polygon fill="#6666ff" stroke="#6666ff" points="1249.27,-1913.92 1254.28,-1923.26 1256.18,-1912.83 1249.27,-1913.92"/>
</g>
<!-- Metamodel::ClassHOW&#45;&gt;Metamodel::BoolificationProtocol -->
<g id="edge75" class="edge">
<title>Metamodel::ClassHOW&#45;&gt;Metamodel::BoolificationProtocol</title>
<path fill="none" stroke="#6666ff" d="M1105.31,-1460.11C995.5,-1443.38 795.35,-1412.9 674.64,-1394.51"/>
<polygon fill="#6666ff" stroke="#6666ff" points="675.06,-1391.04 664.65,-1392.99 674.01,-1397.96 675.06,-1391.04"/>
</g>
<!-- Metamodel::ClassHOW&#45;&gt;Metamodel::Mixins -->
<g id="edge74" class="edge">
<title>Metamodel::ClassHOW&#45;&gt;Metamodel::Mixins</title>
<path fill="none" stroke="#6666ff" d="M1180.19,-1490.18C1166,-1571.32 1108.36,-1900.79 1091.07,-1999.62"/>
<polygon fill="#6666ff" stroke="#6666ff" points="1087.58,-1999.28 1089.3,-2009.74 1094.47,-2000.49 1087.58,-1999.28"/>
</g>
<!-- Metamodel::ClassHOW&#45;&gt;Metamodel::PrivateMethodContainer -->
<g id="edge64" class="edge">
<title>Metamodel::ClassHOW&#45;&gt;Metamodel::PrivateMethodContainer</title>
<path fill="none" stroke="#6666ff" d="M1193.02,-1454.03C1209.46,-1423.42 1242.99,-1360.98 1262.28,-1325.05"/>
<polygon fill="#6666ff" stroke="#6666ff" points="1265.44,-1326.56 1267.09,-1316.09 1259.27,-1323.25 1265.44,-1326.56"/>
</g>
<!-- Metamodel::ClassHOW&#45;&gt;Metamodel::Finalization -->
<g id="edge62" class="edge">
<title>Metamodel::ClassHOW&#45;&gt;Metamodel::Finalization</title>
<path fill="none" stroke="#6666ff" d="M1192.46,-1489.96C1232.63,-1569.37 1394.42,-1889.23 1442.73,-1984.74"/>
<polygon fill="#6666ff" stroke="#6666ff" points="1439.66,-1986.42 1447.29,-1993.76 1445.9,-1983.26 1439.66,-1986.42"/>
</g>
<!-- Metamodel::ClassHOW&#45;&gt;Metamodel::DefaultParent -->
<g id="edge68" class="edge">
<title>Metamodel::ClassHOW&#45;&gt;Metamodel::DefaultParent</title>
<path fill="none" stroke="#6666ff" d="M1250.84,-1485.66C1376.57,-1511.12 1634.06,-1563.25 1634.06,-1563.25 1634.06,-1563.25 1691.6,-1575.9 1742.52,-1587.09"/>
<polygon fill="#6666ff" stroke="#6666ff" points="1742.08,-1590.58 1752.6,-1589.31 1743.58,-1583.74 1742.08,-1590.58"/>
</g>
<!-- Metamodel::ClassHOW&#45;&gt;Metamodel::Trusting -->
<g id="edge72" class="edge">
<title>Metamodel::ClassHOW&#45;&gt;Metamodel::Trusting</title>
<path fill="none" stroke="#6666ff" d="M1205.55,-1489.7C1282.53,-1551.12 1538.21,-1755.15 1626.28,-1825.43"/>
<polygon fill="#6666ff" stroke="#6666ff" points="1624.27,-1828.31 1634.27,-1831.81 1628.64,-1822.84 1624.27,-1828.31"/>
</g>
</g>
</svg>
