<?xml version="1.0" encoding="UTF-8" standalone="no"?>
<!DOCTYPE svg PUBLIC "-//W3C//DTD SVG 1.1//EN"
 "http://www.w3.org/Graphics/SVG/1.1/DTD/svg11.dtd">
<!-- Generated by graphviz version 2.43.0 (0)
 -->
<!-- Title: perl6&#45;type&#45;graph Pages: 1 -->
<svg width="184pt" height="188pt"
 viewBox="0.00 0.00 183.64 188.00" xmlns="http://www.w3.org/2000/svg" xmlns:xlink="http://www.w3.org/1999/xlink">
<g id="graph0" class="graph" transform="scale(1 1) rotate(0) translate(4 184)">
<title>perl6&#45;type&#45;graph</title>
<polygon fill="white" stroke="transparent" points="-4,4 -4,-184 179.64,-184 179.64,4 -4,4"/>
<!-- Dateish -->
<g id="node1" class="node">
<title>Dateish</title>
<g id="a_node1"><a xlink:href="/type/Dateish" xlink:title="Dateish">
<ellipse fill="none" stroke="#6666ff" cx="55.4" cy="-90" rx="40.09" ry="18"/>
<text text-anchor="middle" x="55.4" y="-86.3" font-family="FreeSans" font-size="14.00" fill="#6666ff">Dateish</text>
</a>
</g>
</g>
<!-- Mu -->
<g id="node2" class="node">
<title>Mu</title>
<g id="a_node2"><a xlink:href="/type/Mu" xlink:title="Mu">
<ellipse fill="none" stroke="#000000" cx="143.4" cy="-162" rx="27" ry="18"/>
<text text-anchor="middle" x="143.4" y="-158.3" font-family="FreeSans" font-size="14.00" fill="#000000">Mu</text>
</a>
</g>
</g>
<!-- Any -->
<g id="node3" class="node">
<title>Any</title>
<g id="a_node3"><a xlink:href="/type/Any" xlink:title="Any">
<ellipse fill="none" stroke="#000000" cx="143.4" cy="-90" rx="27" ry="18"/>
<text text-anchor="middle" x="143.4" y="-86.3" font-family="FreeSans" font-size="14.00" fill="#000000">Any</text>
</a>
</g>
</g>
<!-- Any&#45;&gt;Mu -->
<g id="edge1" class="edge">
<title>Any&#45;&gt;Mu</title>
<path fill="none" stroke="#000000" d="M143.4,-108.3C143.4,-116.02 143.4,-125.29 143.4,-133.89"/>
<polygon fill="#000000" stroke="#000000" points="139.9,-133.9 143.4,-143.9 146.9,-133.9 139.9,-133.9"/>
</g>
<!-- DateTime -->
<g id="node4" class="node">
<title>DateTime</title>
<g id="a_node4"><a xlink:href="/type/DateTime" xlink:title="DateTime">
<ellipse fill="none" stroke="#000000" cx="49.4" cy="-18" rx="49.29" ry="18"/>
<text text-anchor="middle" x="49.4" y="-14.3" font-family="FreeSans" font-size="14.00" fill="#000000">DateTime</text>
</a>
</g>
</g>
<!-- DateTime&#45;&gt;Dateish -->
<g id="edge4" class="edge">
<title>DateTime&#45;&gt;Dateish</title>
<path fill="none" stroke="#6666ff" d="M50.88,-36.3C51.54,-44.02 52.33,-53.29 53.07,-61.89"/>
<polygon fill="#6666ff" stroke="#6666ff" points="49.59,-62.23 53.93,-71.9 56.56,-61.63 49.59,-62.23"/>
</g>
<!-- DateTime&#45;&gt;Any -->
<g id="edge2" class="edge">
<title>DateTime&#45;&gt;Any</title>
<path fill="none" stroke="#000000" d="M70.26,-34.54C84.27,-44.97 102.84,-58.8 117.76,-69.91"/>
<polygon fill="#000000" stroke="#000000" points="115.94,-72.92 126.06,-76.09 120.13,-67.31 115.94,-72.92"/>
</g>
<!-- Date -->
<g id="node5" class="node">
<title>Date</title>
<g id="a_node5"><a xlink:href="/type/Date" xlink:title="Date">
<ellipse fill="none" stroke="#000000" cx="146.4" cy="-18" rx="29.5" ry="18"/>
<text text-anchor="middle" x="146.4" y="-14.3" font-family="FreeSans" font-size="14.00" fill="#000000">Date</text>
</a>
</g>
</g>
<!-- Date&#45;&gt;Dateish -->
<g id="edge5" class="edge">
<title>Date&#45;&gt;Dateish</title>
<path fill="none" stroke="#6666ff" d="M128.85,-32.5C115.78,-42.55 97.68,-56.48 82.71,-67.99"/>
<polygon fill="#6666ff" stroke="#6666ff" points="80.57,-65.22 74.78,-74.09 84.84,-70.77 80.57,-65.22"/>
</g>
<!-- Date&#45;&gt;Any -->
<g id="edge3" class="edge">
<title>Date&#45;&gt;Any</title>
<path fill="none" stroke="#000000" d="M145.65,-36.3C145.32,-44.02 144.93,-53.29 144.56,-61.89"/>
<polygon fill="#000000" stroke="#000000" points="141.06,-61.75 144.13,-71.9 148.05,-62.05 141.06,-61.75"/>
</g>
</g>
</svg>
