<?xml version="1.0" encoding="UTF-8" standalone="no"?>
<!DOCTYPE svg PUBLIC "-//W3C//DTD SVG 1.1//EN"
 "http://www.w3.org/Graphics/SVG/1.1/DTD/svg11.dtd">
<!-- Generated by graphviz version 2.43.0 (0)
 -->
<!-- Title: perl6&#45;type&#45;graph Pages: 1 -->
<svg width="358pt" height="404pt"
 viewBox="0.00 0.00 357.67 404.00" xmlns="http://www.w3.org/2000/svg" xmlns:xlink="http://www.w3.org/1999/xlink">
<g id="graph0" class="graph" transform="scale(1 1) rotate(0) translate(4 400)">
<title>perl6&#45;type&#45;graph</title>
<polygon fill="white" stroke="transparent" points="-4,4 -4,-400 353.67,-400 353.67,4 -4,4"/>
<!-- X::Syntax::Regex::UnrecognizedMetachar -->
<g id="node1" class="node">
<title>X::Syntax::Regex::UnrecognizedMetachar</title>
<g id="a_node1"><a xlink:href="/type/X::Syntax::Regex::UnrecognizedMetachar" xlink:title="X::Syntax::Regex::UnrecognizedMetachar">
<ellipse fill="none" stroke="#000000" cx="174.83" cy="-18" rx="174.67" ry="18"/>
<text text-anchor="middle" x="174.83" y="-14.3" font-family="FreeSans" font-size="14.00" fill="#000000">X::Syntax::Regex::UnrecognizedMetachar</text>
</a>
</g>
</g>
<!-- Exception -->
<g id="node4" class="node">
<title>Exception</title>
<g id="a_node4"><a xlink:href="/type/Exception" xlink:title="Exception">
<ellipse fill="none" stroke="#000000" cx="197.83" cy="-234" rx="49.29" ry="18"/>
<text text-anchor="middle" x="197.83" y="-230.3" font-family="FreeSans" font-size="14.00" fill="#000000">Exception</text>
</a>
</g>
</g>
<!-- X::Syntax::Regex::UnrecognizedMetachar&#45;&gt;Exception -->
<g id="edge1" class="edge">
<title>X::Syntax::Regex::UnrecognizedMetachar&#45;&gt;Exception</title>
<path fill="none" stroke="#000000" d="M172.8,-36.15C173.24,-73.34 182.48,-161.63 190.31,-206.23"/>
<polygon fill="#000000" stroke="#000000" points="186.87,-206.88 192.16,-216.06 193.75,-205.59 186.87,-206.88"/>
</g>
<!-- X::Syntax::Regex::UnrecognizedMetachar&#45;&gt;Exception -->
<g id="edge2" class="edge">
<title>X::Syntax::Regex::UnrecognizedMetachar&#45;&gt;Exception</title>
<path fill="none" stroke="#000000" d="M180.56,-36.15C188.07,-73.17 197.76,-160.82 199.58,-205.61"/>
<polygon fill="#000000" stroke="#000000" points="196.09,-205.87 199.87,-215.77 203.09,-205.67 196.09,-205.87"/>
</g>
<!-- X::Syntax -->
<g id="node6" class="node">
<title>X::Syntax</title>
<g id="a_node6"><a xlink:href="/type/X::Syntax" xlink:title="X::Syntax">
<ellipse fill="none" stroke="#6666ff" cx="259.83" cy="-90" rx="48.19" ry="18"/>
<text text-anchor="middle" x="259.83" y="-86.3" font-family="FreeSans" font-size="14.00" fill="#6666ff">X::Syntax</text>
</a>
</g>
</g>
<!-- X::Syntax::Regex::UnrecognizedMetachar&#45;&gt;X::Syntax -->
<g id="edge7" class="edge">
<title>X::Syntax::Regex::UnrecognizedMetachar&#45;&gt;X::Syntax</title>
<path fill="none" stroke="#6666ff" d="M195.41,-35.95C206.67,-45.22 220.75,-56.81 232.88,-66.8"/>
<polygon fill="#6666ff" stroke="#6666ff" points="230.96,-69.75 240.9,-73.41 235.41,-64.35 230.96,-69.75"/>
</g>
<!-- Mu -->
<g id="node2" class="node">
<title>Mu</title>
<g id="a_node2"><a xlink:href="/type/Mu" xlink:title="Mu">
<ellipse fill="none" stroke="#000000" cx="197.83" cy="-378" rx="27" ry="18"/>
<text text-anchor="middle" x="197.83" y="-374.3" font-family="FreeSans" font-size="14.00" fill="#000000">Mu</text>
</a>
</g>
</g>
<!-- Any -->
<g id="node3" class="node">
<title>Any</title>
<g id="a_node3"><a xlink:href="/type/Any" xlink:title="Any">
<ellipse fill="none" stroke="#000000" cx="197.83" cy="-306" rx="27" ry="18"/>
<text text-anchor="middle" x="197.83" y="-302.3" font-family="FreeSans" font-size="14.00" fill="#000000">Any</text>
</a>
</g>
</g>
<!-- Any&#45;&gt;Mu -->
<g id="edge3" class="edge">
<title>Any&#45;&gt;Mu</title>
<path fill="none" stroke="#000000" d="M197.83,-324.3C197.83,-332.02 197.83,-341.29 197.83,-349.89"/>
<polygon fill="#000000" stroke="#000000" points="194.33,-349.9 197.83,-359.9 201.33,-349.9 194.33,-349.9"/>
</g>
<!-- Exception&#45;&gt;Any -->
<g id="edge4" class="edge">
<title>Exception&#45;&gt;Any</title>
<path fill="none" stroke="#000000" d="M197.83,-252.3C197.83,-260.02 197.83,-269.29 197.83,-277.89"/>
<polygon fill="#000000" stroke="#000000" points="194.33,-277.9 197.83,-287.9 201.33,-277.9 194.33,-277.9"/>
</g>
<!-- X::Comp -->
<g id="node5" class="node">
<title>X::Comp</title>
<g id="a_node5"><a xlink:href="/type/X::Comp" xlink:title="X::Comp">
<ellipse fill="none" stroke="#6666ff" cx="294.83" cy="-162" rx="44.69" ry="18"/>
<text text-anchor="middle" x="294.83" y="-158.3" font-family="FreeSans" font-size="14.00" fill="#6666ff">X::Comp</text>
</a>
</g>
</g>
<!-- X::Comp&#45;&gt;Exception -->
<g id="edge5" class="edge">
<title>X::Comp&#45;&gt;Exception</title>
<path fill="none" stroke="#000000" d="M273.79,-178.19C260.28,-187.94 242.54,-200.74 227.6,-211.52"/>
<polygon fill="#000000" stroke="#000000" points="225.24,-208.91 219.18,-217.6 229.33,-214.59 225.24,-208.91"/>
</g>
<!-- X::Syntax&#45;&gt;Exception -->
<g id="edge6" class="edge">
<title>X::Syntax&#45;&gt;Exception</title>
<path fill="none" stroke="#000000" d="M252.48,-107.85C241.8,-132.29 221.92,-177.83 209.31,-206.71"/>
<polygon fill="#000000" stroke="#000000" points="205.97,-205.61 205.18,-216.18 212.39,-208.41 205.97,-205.61"/>
</g>
<!-- X::Syntax&#45;&gt;X::Comp -->
<g id="edge8" class="edge">
<title>X::Syntax&#45;&gt;X::Comp</title>
<path fill="none" stroke="#6666ff" d="M268.31,-107.95C272.39,-116.11 277.38,-126.09 281.92,-135.18"/>
<polygon fill="#6666ff" stroke="#6666ff" points="278.84,-136.83 286.44,-144.21 285.1,-133.7 278.84,-136.83"/>
</g>
</g>
</svg>
