<?xml version="1.0" encoding="UTF-8" standalone="no"?>
<!DOCTYPE svg PUBLIC "-//W3C//DTD SVG 1.1//EN"
 "http://www.w3.org/Graphics/SVG/1.1/DTD/svg11.dtd">
<!-- Generated by graphviz version 2.43.0 (0)
 -->
<!-- Title: perl6&#45;type&#45;graph Pages: 1 -->
<svg width="1937pt" height="1547pt"
 viewBox="0.00 0.00 1936.98 1546.52" xmlns="http://www.w3.org/2000/svg" xmlns:xlink="http://www.w3.org/1999/xlink">
<g id="graph0" class="graph" transform="scale(1 1) rotate(0) translate(4 1542.52)">
<title>perl6&#45;type&#45;graph</title>
<polygon fill="white" stroke="transparent" points="-4,4 -4,-1542.52 1932.98,-1542.52 1932.98,4 -4,4"/>
<!-- Metamodel::PrivateMethodContainer -->
<g id="node1" class="node">
<title>Metamodel::PrivateMethodContainer</title>
<g id="a_node1"><a xlink:href="/type/Metamodel::PrivateMethodContainer" xlink:title="Metamodel::PrivateMethodContainer">
<ellipse fill="none" stroke="#6666ff" cx="923.66" cy="-976.42" rx="154.87" ry="18"/>
<text text-anchor="middle" x="923.66" y="-972.72" font-family="FreeSans" font-size="14.00" fill="#6666ff">Metamodel::PrivateMethodContainer</text>
</a>
</g>
</g>
<!-- Mu -->
<g id="node2" class="node">
<title>Mu</title>
<g id="a_node2"><a xlink:href="/type/Mu" xlink:title="Mu">
<ellipse fill="none" stroke="#000000" cx="1281.4" cy="-18" rx="27" ry="18"/>
<text text-anchor="middle" x="1281.4" y="-14.3" font-family="FreeSans" font-size="14.00" fill="#000000">Mu</text>
</a>
</g>
</g>
<!-- Any -->
<g id="node3" class="node">
<title>Any</title>
<g id="a_node3"><a xlink:href="/type/Any" xlink:title="Any">
<ellipse fill="none" stroke="#000000" cx="1094.86" cy="-494" rx="27" ry="18"/>
<text text-anchor="middle" x="1094.86" y="-490.3" font-family="FreeSans" font-size="14.00" fill="#000000">Any</text>
</a>
</g>
</g>
<!-- Any&#45;&gt;Mu -->
<g id="edge1" class="edge">
<title>Any&#45;&gt;Mu</title>
<path fill="none" stroke="#000000" d="M1101.72,-476.5C1129.86,-404.7 1236.53,-132.48 1270.76,-45.15"/>
<polygon fill="#000000" stroke="#000000" points="1274.09,-46.25 1274.48,-35.66 1267.57,-43.7 1274.09,-46.25"/>
</g>
<!-- Metamodel::Naming -->
<g id="node4" class="node">
<title>Metamodel::Naming</title>
<g id="a_node4"><a xlink:href="/type/Metamodel::Naming" xlink:title="Metamodel::Naming">
<ellipse fill="none" stroke="#6666ff" cx="1081.43" cy="-1259.44" rx="90.18" ry="18"/>
<text text-anchor="middle" x="1081.43" y="-1255.74" font-family="FreeSans" font-size="14.00" fill="#6666ff">Metamodel::Naming</text>
</a>
</g>
</g>
<!-- Metamodel::Documenting -->
<g id="node5" class="node">
<title>Metamodel::Documenting</title>
<g id="a_node5"><a xlink:href="/type/Metamodel::Documenting" xlink:title="Metamodel::Documenting">
<ellipse fill="none" stroke="#6666ff" cx="802.36" cy="-1482.44" rx="111.28" ry="18"/>
<text text-anchor="middle" x="802.36" y="-1478.74" font-family="FreeSans" font-size="14.00" fill="#6666ff">Metamodel::Documenting</text>
</a>
</g>
</g>
<!-- Metamodel::Versioning -->
<g id="node6" class="node">
<title>Metamodel::Versioning</title>
<g id="a_node6"><a xlink:href="/type/Metamodel::Versioning" xlink:title="Metamodel::Versioning">
<ellipse fill="none" stroke="#6666ff" cx="919.12" cy="-1334.4" rx="100.98" ry="18"/>
<text text-anchor="middle" x="919.12" y="-1330.7" font-family="FreeSans" font-size="14.00" fill="#6666ff">Metamodel::Versioning</text>
</a>
</g>
</g>
<!-- Metamodel::Stashing -->
<g id="node7" class="node">
<title>Metamodel::Stashing</title>
<g id="a_node7"><a xlink:href="/type/Metamodel::Stashing" xlink:title="Metamodel::Stashing">
<ellipse fill="none" stroke="#6666ff" cx="766.75" cy="-553.94" rx="93.68" ry="18"/>
<text text-anchor="middle" x="766.75" y="-550.24" font-family="FreeSans" font-size="14.00" fill="#6666ff">Metamodel::Stashing</text>
</a>
</g>
</g>
<!-- Metamodel::AttributeContainer -->
<g id="node8" class="node">
<title>Metamodel::AttributeContainer</title>
<g id="a_node8"><a xlink:href="/type/Metamodel::AttributeContainer" xlink:title="Metamodel::AttributeContainer">
<ellipse fill="none" stroke="#6666ff" cx="1176.5" cy="-666.23" rx="129.98" ry="18"/>
<text text-anchor="middle" x="1176.5" y="-662.53" font-family="FreeSans" font-size="14.00" fill="#6666ff">Metamodel::AttributeContainer</text>
</a>
</g>
</g>
<!-- Metamodel::Finalization -->
<g id="node9" class="node">
<title>Metamodel::Finalization</title>
<g id="a_node9"><a xlink:href="/type/Metamodel::Finalization" xlink:title="Metamodel::Finalization">
<ellipse fill="none" stroke="#6666ff" cx="197.05" cy="-595.02" rx="103.98" ry="18"/>
<text text-anchor="middle" x="197.05" y="-591.32" font-family="FreeSans" font-size="14.00" fill="#6666ff">Metamodel::Finalization</text>
</a>
</g>
</g>
<!-- Metamodel::MethodContainer -->
<g id="node10" class="node">
<title>Metamodel::MethodContainer</title>
<g id="a_node10"><a xlink:href="/type/Metamodel::MethodContainer" xlink:title="Metamodel::MethodContainer">
<ellipse fill="none" stroke="#6666ff" cx="973.1" cy="-800.14" rx="127.28" ry="18"/>
<text text-anchor="middle" x="973.1" y="-796.44" font-family="FreeSans" font-size="14.00" fill="#6666ff">Metamodel::MethodContainer</text>
</a>
</g>
</g>
<!-- Metamodel::MultiMethodContainer -->
<g id="node11" class="node">
<title>Metamodel::MultiMethodContainer</title>
<g id="a_node11"><a xlink:href="/type/Metamodel::MultiMethodContainer" xlink:title="Metamodel::MultiMethodContainer">
<ellipse fill="none" stroke="#6666ff" cx="932.56" cy="-622.23" rx="146.47" ry="18"/>
<text text-anchor="middle" x="932.56" y="-618.53" font-family="FreeSans" font-size="14.00" fill="#6666ff">Metamodel::MultiMethodContainer</text>
</a>
</g>
</g>
<!-- Metamodel::RoleContainer -->
<g id="node12" class="node">
<title>Metamodel::RoleContainer</title>
<g id="a_node12"><a xlink:href="/type/Metamodel::RoleContainer" xlink:title="Metamodel::RoleContainer">
<ellipse fill="none" stroke="#6666ff" cx="877.97" cy="-1161.55" rx="115.88" ry="18"/>
<text text-anchor="middle" x="877.97" y="-1157.85" font-family="FreeSans" font-size="14.00" fill="#6666ff">Metamodel::RoleContainer</text>
</a>
</g>
</g>
<!-- Metamodel::MultipleInheritance -->
<g id="node13" class="node">
<title>Metamodel::MultipleInheritance</title>
<g id="a_node13"><a xlink:href="/type/Metamodel::MultipleInheritance" xlink:title="Metamodel::MultipleInheritance">
<ellipse fill="none" stroke="#6666ff" cx="1127.1" cy="-1385.01" rx="133.78" ry="18"/>
<text text-anchor="middle" x="1127.1" y="-1381.31" font-family="FreeSans" font-size="14.00" fill="#6666ff">Metamodel::MultipleInheritance</text>
</a>
</g>
</g>
<!-- Metamodel::DefaultParent -->
<g id="node14" class="node">
<title>Metamodel::DefaultParent</title>
<g id="a_node14"><a xlink:href="/type/Metamodel::DefaultParent" xlink:title="Metamodel::DefaultParent">
<ellipse fill="none" stroke="#6666ff" cx="444.75" cy="-1520.52" rx="113.18" ry="18"/>
<text text-anchor="middle" x="444.75" y="-1516.82" font-family="FreeSans" font-size="14.00" fill="#6666ff">Metamodel::DefaultParent</text>
</a>
</g>
</g>
<!-- Metamodel::C3MRO -->
<g id="node15" class="node">
<title>Metamodel::C3MRO</title>
<g id="a_node15"><a xlink:href="/type/Metamodel::C3MRO" xlink:title="Metamodel::C3MRO">
<ellipse fill="none" stroke="#6666ff" cx="179.66" cy="-1271.1" rx="92.08" ry="18"/>
<text text-anchor="middle" x="179.66" y="-1267.4" font-family="FreeSans" font-size="14.00" fill="#6666ff">Metamodel::C3MRO</text>
</a>
</g>
</g>
<!-- Metamodel::MROBasedMethodDispatch -->
<g id="node16" class="node">
<title>Metamodel::MROBasedMethodDispatch</title>
<g id="a_node16"><a xlink:href="/type/Metamodel::MROBasedMethodDispatch" xlink:title="Metamodel::MROBasedMethodDispatch">
<ellipse fill="none" stroke="#6666ff" cx="320.55" cy="-464.22" rx="169.77" ry="18"/>
<text text-anchor="middle" x="320.55" y="-460.52" font-family="FreeSans" font-size="14.00" fill="#6666ff">Metamodel::MROBasedMethodDispatch</text>
</a>
</g>
</g>
<!-- Metamodel::MROBasedTypeChecking -->
<g id="node17" class="node">
<title>Metamodel::MROBasedTypeChecking</title>
<g id="a_node17"><a xlink:href="/type/Metamodel::MROBasedTypeChecking" xlink:title="Metamodel::MROBasedTypeChecking">
<ellipse fill="none" stroke="#6666ff" cx="480.76" cy="-360.39" rx="163.27" ry="18"/>
<text text-anchor="middle" x="480.76" y="-356.69" font-family="FreeSans" font-size="14.00" fill="#6666ff">Metamodel::MROBasedTypeChecking</text>
</a>
</g>
</g>
<!-- Metamodel::Trusting -->
<g id="node18" class="node">
<title>Metamodel::Trusting</title>
<g id="a_node18"><a xlink:href="/type/Metamodel::Trusting" xlink:title="Metamodel::Trusting">
<ellipse fill="none" stroke="#6666ff" cx="107.01" cy="-1107.58" rx="91.78" ry="18"/>
<text text-anchor="middle" x="107.01" y="-1103.88" font-family="FreeSans" font-size="14.00" fill="#6666ff">Metamodel::Trusting</text>
</a>
</g>
</g>
<!-- Metamodel::BUILDPLAN -->
<g id="node19" class="node">
<title>Metamodel::BUILDPLAN</title>
<g id="a_node19"><a xlink:href="/type/Metamodel::BUILDPLAN" xlink:title="Metamodel::BUILDPLAN">
<ellipse fill="none" stroke="#6666ff" cx="115.8" cy="-753.84" rx="109.68" ry="18"/>
<text text-anchor="middle" x="115.8" y="-750.14" font-family="FreeSans" font-size="14.00" fill="#6666ff">Metamodel::BUILDPLAN</text>
</a>
</g>
</g>
<!-- Metamodel::Mixins -->
<g id="node20" class="node">
<title>Metamodel::Mixins</title>
<g id="a_node20"><a xlink:href="/type/Metamodel::Mixins" xlink:title="Metamodel::Mixins">
<ellipse fill="none" stroke="#6666ff" cx="85.14" cy="-929.95" rx="85.29" ry="18"/>
<text text-anchor="middle" x="85.14" y="-926.25" font-family="FreeSans" font-size="14.00" fill="#6666ff">Metamodel::Mixins</text>
</a>
</g>
</g>
<!-- Metamodel::BoolificationProtocol -->
<g id="node21" class="node">
<title>Metamodel::BoolificationProtocol</title>
<g id="a_node21"><a xlink:href="/type/Metamodel::BoolificationProtocol" xlink:title="Metamodel::BoolificationProtocol">
<ellipse fill="none" stroke="#6666ff" cx="296.99" cy="-1406.74" rx="139.18" ry="18"/>
<text text-anchor="middle" x="296.99" y="-1403.04" font-family="FreeSans" font-size="14.00" fill="#6666ff">Metamodel::BoolificationProtocol</text>
</a>
</g>
</g>
<!-- Metamodel::ClassHOW -->
<g id="node22" class="node">
<title>Metamodel::ClassHOW</title>
<g id="a_node22"><a xlink:href="/type/Metamodel::ClassHOW" xlink:title="Metamodel::ClassHOW">
<ellipse fill="none" stroke="#000000" cx="592.92" cy="-947.67" rx="103.18" ry="18"/>
<text text-anchor="middle" x="592.92" y="-943.97" font-family="FreeSans" font-size="14.00" fill="#000000">Metamodel::ClassHOW</text>
</a>
</g>
</g>
<!-- Metamodel::ClassHOW&#45;&gt;Metamodel::PrivateMethodContainer -->
<g id="edge12" class="edge">
<title>Metamodel::ClassHOW&#45;&gt;Metamodel::PrivateMethodContainer</title>
<path fill="none" stroke="#6666ff" d="M685.49,-955.72C717.66,-958.52 754.44,-961.71 789.3,-964.74"/>
<polygon fill="#6666ff" stroke="#6666ff" points="789.3,-968.26 799.57,-965.64 789.91,-961.28 789.3,-968.26"/>
</g>
<!-- Metamodel::ClassHOW&#45;&gt;Any -->
<g id="edge2" class="edge">
<title>Metamodel::ClassHOW&#45;&gt;Any</title>
<path fill="none" stroke="#000000" d="M603.5,-929.71C643.71,-861.46 784.73,-622.11 784.73,-622.11 784.73,-622.11 982.64,-540.36 1062.26,-507.47"/>
<polygon fill="#000000" stroke="#000000" points="1063.9,-510.58 1071.8,-503.53 1061.22,-504.11 1063.9,-510.58"/>
</g>
<!-- Metamodel::ClassHOW&#45;&gt;Metamodel::Naming -->
<g id="edge5" class="edge">
<title>Metamodel::ClassHOW&#45;&gt;Metamodel::Naming</title>
<path fill="none" stroke="#6666ff" d="M625.16,-964.82C720.64,-1015.6 995.26,-1161.65 995.26,-1161.65 995.26,-1161.65 1033.26,-1204.78 1058.79,-1233.75"/>
<polygon fill="#6666ff" stroke="#6666ff" points="1056.39,-1236.31 1065.62,-1241.5 1061.64,-1231.69 1056.39,-1236.31"/>
</g>
<!-- Metamodel::ClassHOW&#45;&gt;Metamodel::Documenting -->
<g id="edge6" class="edge">
<title>Metamodel::ClassHOW&#45;&gt;Metamodel::Documenting</title>
<path fill="none" stroke="#6666ff" d="M600,-965.77C630.93,-1044.72 754.13,-1359.29 791.53,-1454.8"/>
<polygon fill="#6666ff" stroke="#6666ff" points="788.37,-1456.31 795.27,-1464.34 794.88,-1453.75 788.37,-1456.31"/>
</g>
<!-- Metamodel::ClassHOW&#45;&gt;Metamodel::Versioning -->
<g id="edge7" class="edge">
<title>Metamodel::ClassHOW&#45;&gt;Metamodel::Versioning</title>
<path fill="none" stroke="#6666ff" d="M606.93,-965.53C647.25,-1016.91 760.68,-1161.45 760.68,-1161.45 760.68,-1161.45 851.85,-1260.96 895.87,-1309.02"/>
<polygon fill="#6666ff" stroke="#6666ff" points="893.43,-1311.53 902.76,-1316.54 898.59,-1306.8 893.43,-1311.53"/>
</g>
<!-- Metamodel::ClassHOW&#45;&gt;Metamodel::Stashing -->
<g id="edge8" class="edge">
<title>Metamodel::ClassHOW&#45;&gt;Metamodel::Stashing</title>
<path fill="none" stroke="#6666ff" d="M600.95,-929.47C628.81,-866.36 721.38,-656.7 754.68,-581.27"/>
<polygon fill="#6666ff" stroke="#6666ff" points="757.96,-582.51 758.8,-571.95 751.56,-579.68 757.96,-582.51"/>
</g>
<!-- Metamodel::ClassHOW&#45;&gt;Metamodel::AttributeContainer -->
<g id="edge9" class="edge">
<title>Metamodel::ClassHOW&#45;&gt;Metamodel::AttributeContainer</title>
<path fill="none" stroke="#6666ff" d="M622.72,-930.15C689.26,-891.04 844.12,-800.01 844.12,-800.01 844.12,-800.01 1031.38,-724.64 1124.78,-687.05"/>
<polygon fill="#6666ff" stroke="#6666ff" points="1126.1,-690.29 1134.07,-683.31 1123.48,-683.8 1126.1,-690.29"/>
</g>
<!-- Metamodel::ClassHOW&#45;&gt;Metamodel::Finalization -->
<g id="edge10" class="edge">
<title>Metamodel::ClassHOW&#45;&gt;Metamodel::Finalization</title>
<path fill="none" stroke="#6666ff" d="M573.01,-929.94C507.81,-871.86 300.51,-687.19 224.95,-619.87"/>
<polygon fill="#6666ff" stroke="#6666ff" points="227.02,-617.03 217.23,-612.99 222.37,-622.26 227.02,-617.03"/>
</g>
<!-- Metamodel::ClassHOW&#45;&gt;Metamodel::MethodContainer -->
<g id="edge11" class="edge">
<title>Metamodel::ClassHOW&#45;&gt;Metamodel::MethodContainer</title>
<path fill="none" stroke="#6666ff" d="M635.42,-931.18C705.2,-904.1 843.86,-850.29 920,-820.75"/>
<polygon fill="#6666ff" stroke="#6666ff" points="921.35,-823.97 929.41,-817.09 918.82,-817.45 921.35,-823.97"/>
</g>
<!-- Metamodel::ClassHOW&#45;&gt;Metamodel::MultiMethodContainer -->
<g id="edge13" class="edge">
<title>Metamodel::ClassHOW&#45;&gt;Metamodel::MultiMethodContainer</title>
<path fill="none" stroke="#6666ff" d="M611.66,-929.71C668.72,-875.03 840.42,-710.51 906.37,-647.32"/>
<polygon fill="#6666ff" stroke="#6666ff" points="909.07,-649.58 913.87,-640.13 904.23,-644.52 909.07,-649.58"/>
</g>
<!-- Metamodel::ClassHOW&#45;&gt;Metamodel::RoleContainer -->
<g id="edge14" class="edge">
<title>Metamodel::ClassHOW&#45;&gt;Metamodel::RoleContainer</title>
<path fill="none" stroke="#6666ff" d="M616.73,-965.54C668,-1004.01 788.84,-1094.67 846.41,-1137.86"/>
<polygon fill="#6666ff" stroke="#6666ff" points="844.33,-1140.68 854.43,-1143.88 848.53,-1135.08 844.33,-1140.68"/>
</g>
<!-- Metamodel::ClassHOW&#45;&gt;Metamodel::MultipleInheritance -->
<g id="edge15" class="edge">
<title>Metamodel::ClassHOW&#45;&gt;Metamodel::MultipleInheritance</title>
<path fill="none" stroke="#6666ff" d="M606.93,-965.53C647.25,-1016.91 760.68,-1161.45 760.68,-1161.45 760.68,-1161.45 995.95,-1304.99 1089.45,-1362.04"/>
<polygon fill="#6666ff" stroke="#6666ff" points="1087.68,-1365.06 1098.04,-1367.28 1091.33,-1359.09 1087.68,-1365.06"/>
</g>
<!-- Metamodel::ClassHOW&#45;&gt;Metamodel::DefaultParent -->
<g id="edge16" class="edge">
<title>Metamodel::ClassHOW&#45;&gt;Metamodel::DefaultParent</title>
<path fill="none" stroke="#6666ff" d="M588.24,-965.76C566.81,-1048.6 477.99,-1392.01 451.96,-1492.67"/>
<polygon fill="#6666ff" stroke="#6666ff" points="448.55,-1491.86 449.43,-1502.42 455.33,-1493.62 448.55,-1491.86"/>
</g>
<!-- Metamodel::ClassHOW&#45;&gt;Metamodel::C3MRO -->
<g id="edge17" class="edge">
<title>Metamodel::ClassHOW&#45;&gt;Metamodel::C3MRO</title>
<path fill="none" stroke="#6666ff" d="M570.4,-965.29C500.93,-1019.66 289.8,-1184.9 210.34,-1247.09"/>
<polygon fill="#6666ff" stroke="#6666ff" points="207.91,-1244.55 202.19,-1253.46 212.22,-1250.06 207.91,-1244.55"/>
</g>
<!-- Metamodel::ClassHOW&#45;&gt;Metamodel::MROBasedMethodDispatch -->
<g id="edge18" class="edge">
<title>Metamodel::ClassHOW&#45;&gt;Metamodel::MROBasedMethodDispatch</title>
<path fill="none" stroke="#6666ff" d="M582.74,-929.6C541.32,-856.09 385.33,-579.2 335.77,-491.23"/>
<polygon fill="#6666ff" stroke="#6666ff" points="338.74,-489.37 330.78,-482.38 332.64,-492.81 338.74,-489.37"/>
</g>
<!-- Metamodel::ClassHOW&#45;&gt;Metamodel::MROBasedTypeChecking -->
<g id="edge19" class="edge">
<title>Metamodel::ClassHOW&#45;&gt;Metamodel::MROBasedTypeChecking</title>
<path fill="none" stroke="#6666ff" d="M589.44,-929.45C573.29,-844.93 505.67,-490.84 486.09,-388.32"/>
<polygon fill="#6666ff" stroke="#6666ff" points="489.51,-387.57 484.2,-378.4 482.63,-388.88 489.51,-387.57"/>
</g>
<!-- Metamodel::ClassHOW&#45;&gt;Metamodel::Trusting -->
<g id="edge20" class="edge">
<title>Metamodel::ClassHOW&#45;&gt;Metamodel::Trusting</title>
<path fill="none" stroke="#6666ff" d="M544.55,-963.59C454.15,-993.34 260.05,-1057.22 163.68,-1088.93"/>
<polygon fill="#6666ff" stroke="#6666ff" points="162.51,-1085.63 154.11,-1092.08 164.7,-1092.28 162.51,-1085.63"/>
</g>
<!-- Metamodel::ClassHOW&#45;&gt;Metamodel::BUILDPLAN -->
<g id="edge21" class="edge">
<title>Metamodel::ClassHOW&#45;&gt;Metamodel::BUILDPLAN</title>
<path fill="none" stroke="#6666ff" d="M551.82,-930.98C464.63,-895.56 261.32,-812.96 166.35,-774.38"/>
<polygon fill="#6666ff" stroke="#6666ff" points="167.54,-771.08 156.96,-770.56 164.91,-777.57 167.54,-771.08"/>
</g>
<!-- Metamodel::ClassHOW&#45;&gt;Metamodel::Mixins -->
<g id="edge22" class="edge">
<title>Metamodel::ClassHOW&#45;&gt;Metamodel::Mixins</title>
<path fill="none" stroke="#6666ff" d="M491.38,-944.13C400.39,-940.95 267.98,-936.33 179.32,-933.23"/>
<polygon fill="#6666ff" stroke="#6666ff" points="179.38,-929.73 169.27,-932.88 179.14,-936.73 179.38,-929.73"/>
</g>
<!-- Metamodel::ClassHOW&#45;&gt;Metamodel::BoolificationProtocol -->
<g id="edge23" class="edge">
<title>Metamodel::ClassHOW&#45;&gt;Metamodel::BoolificationProtocol</title>
<path fill="none" stroke="#6666ff" d="M581.31,-965.67C535.74,-1036.36 368.83,-1295.3 314.33,-1379.84"/>
<polygon fill="#6666ff" stroke="#6666ff" points="311.3,-1378.07 308.83,-1388.37 317.19,-1381.86 311.3,-1378.07"/>
</g>
<!-- Metamodel::TypePretense -->
<g id="node23" class="node">
<title>Metamodel::TypePretense</title>
<g id="a_node23"><a xlink:href="/type/Metamodel::TypePretense" xlink:title="Metamodel::TypePretense">
<ellipse fill="none" stroke="#6666ff" cx="1758.84" cy="-1295.3" rx="114.28" ry="18"/>
<text text-anchor="middle" x="1758.84" y="-1291.6" font-family="FreeSans" font-size="14.00" fill="#6666ff">Metamodel::TypePretense</text>
</a>
</g>
</g>
<!-- Metamodel::RolePunning -->
<g id="node24" class="node">
<title>Metamodel::RolePunning</title>
<g id="a_node24"><a xlink:href="/type/Metamodel::RolePunning" xlink:title="Metamodel::RolePunning">
<ellipse fill="none" stroke="#6666ff" cx="1819.14" cy="-867.12" rx="109.68" ry="18"/>
<text text-anchor="middle" x="1819.14" y="-863.42" font-family="FreeSans" font-size="14.00" fill="#6666ff">Metamodel::RolePunning</text>
</a>
</g>
</g>
<!-- Metamodel::ParametricRoleHOW -->
<g id="node25" class="node">
<title>Metamodel::ParametricRoleHOW</title>
<g id="a_node25"><a xlink:href="/type/Metamodel::ParametricRoleHOW" xlink:title="Metamodel::ParametricRoleHOW">
<ellipse fill="none" stroke="#000000" cx="1295.79" cy="-1016.05" rx="141.88" ry="18"/>
<text text-anchor="middle" x="1295.79" y="-1012.35" font-family="FreeSans" font-size="14.00" fill="#000000">Metamodel::ParametricRoleHOW</text>
</a>
</g>
</g>
<!-- Metamodel::ParametricRoleHOW&#45;&gt;Metamodel::PrivateMethodContainer -->
<g id="edge28" class="edge">
<title>Metamodel::ParametricRoleHOW&#45;&gt;Metamodel::PrivateMethodContainer</title>
<path fill="none" stroke="#6666ff" d="M1187.15,-1004.48C1143.57,-999.84 1093.1,-994.46 1048.06,-989.67"/>
<polygon fill="#6666ff" stroke="#6666ff" points="1048.25,-986.17 1037.94,-988.59 1047.51,-993.13 1048.25,-986.17"/>
</g>
<!-- Metamodel::ParametricRoleHOW&#45;&gt;Any -->
<g id="edge3" class="edge">
<title>Metamodel::ParametricRoleHOW&#45;&gt;Any</title>
<path fill="none" stroke="#000000" d="M1279.91,-997.9C1256.99,-971.69 1217.34,-926.37 1217.34,-926.37 1217.34,-926.37 1044.91,-666.18 1044.91,-666.18 1044.91,-666.18 1080.39,-622.34 1080.39,-622.34 1080.39,-622.34 1087.38,-560.34 1091.64,-522.52"/>
<polygon fill="#000000" stroke="#000000" points="1095.18,-522.45 1092.82,-512.12 1088.22,-521.66 1095.18,-522.45"/>
</g>
<!-- Metamodel::ParametricRoleHOW&#45;&gt;Metamodel::Naming -->
<g id="edge24" class="edge">
<title>Metamodel::ParametricRoleHOW&#45;&gt;Metamodel::Naming</title>
<path fill="none" stroke="#6666ff" d="M1280.02,-1033.94C1242.47,-1076.58 1147.62,-1184.28 1104,-1233.81"/>
<polygon fill="#6666ff" stroke="#6666ff" points="1101.2,-1231.7 1097.21,-1241.52 1106.45,-1236.33 1101.2,-1231.7"/>
</g>
<!-- Metamodel::ParametricRoleHOW&#45;&gt;Metamodel::Documenting -->
<g id="edge25" class="edge">
<title>Metamodel::ParametricRoleHOW&#45;&gt;Metamodel::Documenting</title>
<path fill="none" stroke="#6666ff" d="M1286.59,-1034.35C1258.12,-1090.98 1173.37,-1259.55 1173.37,-1259.55 1173.37,-1259.55 934.59,-1403 840.15,-1459.73"/>
<polygon fill="#6666ff" stroke="#6666ff" points="838.24,-1456.8 831.47,-1464.95 841.85,-1462.8 838.24,-1456.8"/>
</g>
<!-- Metamodel::ParametricRoleHOW&#45;&gt;Metamodel::Versioning -->
<g id="edge26" class="edge">
<title>Metamodel::ParametricRoleHOW&#45;&gt;Metamodel::Versioning</title>
<path fill="none" stroke="#6666ff" d="M1273.26,-1033.94C1202.53,-1090.12 989.49,-1259.33 989.49,-1259.33 989.49,-1259.33 963.18,-1287.4 942.73,-1309.21"/>
<polygon fill="#6666ff" stroke="#6666ff" points="940.08,-1306.92 935.8,-1316.61 945.19,-1311.7 940.08,-1306.92"/>
</g>
<!-- Metamodel::ParametricRoleHOW&#45;&gt;Metamodel::Stashing -->
<g id="edge33" class="edge">
<title>Metamodel::ParametricRoleHOW&#45;&gt;Metamodel::Stashing</title>
<path fill="none" stroke="#6666ff" d="M1279.6,-998.02C1233.05,-946.16 1102.09,-800.27 1102.09,-800.27 1102.09,-800.27 784.73,-622.11 784.73,-622.11 784.73,-622.11 779.1,-600.77 774.14,-581.96"/>
<polygon fill="#6666ff" stroke="#6666ff" points="777.5,-580.99 771.57,-572.21 770.73,-582.77 777.5,-580.99"/>
</g>
<!-- Metamodel::ParametricRoleHOW&#45;&gt;Metamodel::AttributeContainer -->
<g id="edge30" class="edge">
<title>Metamodel::ParametricRoleHOW&#45;&gt;Metamodel::AttributeContainer</title>
<path fill="none" stroke="#6666ff" d="M1279.91,-997.9C1256.99,-971.69 1217.34,-926.37 1217.34,-926.37 1217.34,-926.37 1191.51,-761.81 1180.93,-694.46"/>
<polygon fill="#6666ff" stroke="#6666ff" points="1184.38,-693.86 1179.37,-684.52 1177.46,-694.95 1184.38,-693.86"/>
</g>
<!-- Metamodel::ParametricRoleHOW&#45;&gt;Metamodel::MethodContainer -->
<g id="edge27" class="edge">
<title>Metamodel::ParametricRoleHOW&#45;&gt;Metamodel::MethodContainer</title>
<path fill="none" stroke="#6666ff" d="M1269.11,-998.19C1211.13,-959.4 1073.65,-867.42 1008.51,-823.83"/>
<polygon fill="#6666ff" stroke="#6666ff" points="1010.07,-820.66 999.82,-818.01 1006.18,-826.48 1010.07,-820.66"/>
</g>
<!-- Metamodel::ParametricRoleHOW&#45;&gt;Metamodel::MultiMethodContainer -->
<g id="edge29" class="edge">
<title>Metamodel::ParametricRoleHOW&#45;&gt;Metamodel::MultiMethodContainer</title>
<path fill="none" stroke="#6666ff" d="M1279.6,-998.02C1233.05,-946.16 1102.09,-800.27 1102.09,-800.27 1102.09,-800.27 1003.66,-696.9 956.8,-647.69"/>
<polygon fill="#6666ff" stroke="#6666ff" points="959.18,-645.11 949.75,-640.28 954.11,-649.93 959.18,-645.11"/>
</g>
<!-- Metamodel::ParametricRoleHOW&#45;&gt;Metamodel::RoleContainer -->
<g id="edge31" class="edge">
<title>Metamodel::ParametricRoleHOW&#45;&gt;Metamodel::RoleContainer</title>
<path fill="none" stroke="#6666ff" d="M1247.04,-1033.02C1169.29,-1060.1 1017.56,-1112.94 934.93,-1141.71"/>
<polygon fill="#6666ff" stroke="#6666ff" points="933.74,-1138.42 925.44,-1145.01 936.04,-1145.03 933.74,-1138.42"/>
</g>
<!-- Metamodel::ParametricRoleHOW&#45;&gt;Metamodel::MultipleInheritance -->
<g id="edge32" class="edge">
<title>Metamodel::ParametricRoleHOW&#45;&gt;Metamodel::MultipleInheritance</title>
<path fill="none" stroke="#6666ff" d="M1287.54,-1034.09C1260.18,-1093.93 1172.35,-1286.04 1139.58,-1357.71"/>
<polygon fill="#6666ff" stroke="#6666ff" points="1136.31,-1356.45 1135.33,-1367 1142.67,-1359.36 1136.31,-1356.45"/>
</g>
<!-- Metamodel::ParametricRoleHOW&#45;&gt;Metamodel::TypePretense -->
<g id="edge34" class="edge">
<title>Metamodel::ParametricRoleHOW&#45;&gt;Metamodel::TypePretense</title>
<path fill="none" stroke="#6666ff" d="M1325.1,-1033.73C1405.83,-1082.41 1631.32,-1218.4 1721.18,-1272.59"/>
<polygon fill="#6666ff" stroke="#6666ff" points="1719.58,-1275.71 1729.95,-1277.88 1723.19,-1269.71 1719.58,-1275.71"/>
</g>
<!-- Metamodel::ParametricRoleHOW&#45;&gt;Metamodel::RolePunning -->
<g id="edge35" class="edge">
<title>Metamodel::ParametricRoleHOW&#45;&gt;Metamodel::RolePunning</title>
<path fill="none" stroke="#6666ff" d="M1353.79,-999.54C1452.28,-971.51 1651.5,-914.82 1754.38,-885.54"/>
<polygon fill="#6666ff" stroke="#6666ff" points="1755.37,-888.9 1764.03,-882.8 1753.46,-882.17 1755.37,-888.9"/>
</g>
<!-- Metamodel::ConcreteRoleHOW -->
<g id="node26" class="node">
<title>Metamodel::ConcreteRoleHOW</title>
<g id="a_node26"><a xlink:href="/type/Metamodel::ConcreteRoleHOW" xlink:title="Metamodel::ConcreteRoleHOW">
<ellipse fill="none" stroke="#000000" cx="1354.13" cy="-926.48" rx="135.38" ry="18"/>
<text text-anchor="middle" x="1354.13" y="-922.78" font-family="FreeSans" font-size="14.00" fill="#000000">Metamodel::ConcreteRoleHOW</text>
</a>
</g>
</g>
<!-- Metamodel::ConcreteRoleHOW&#45;&gt;Metamodel::PrivateMethodContainer -->
<g id="edge38" class="edge">
<title>Metamodel::ConcreteRoleHOW&#45;&gt;Metamodel::PrivateMethodContainer</title>
<path fill="none" stroke="#6666ff" d="M1252.11,-938.32C1189.44,-945.59 1108.88,-954.94 1043.22,-962.55"/>
<polygon fill="#6666ff" stroke="#6666ff" points="1042.76,-959.08 1033.23,-963.71 1043.57,-966.04 1042.76,-959.08"/>
</g>
<!-- Metamodel::ConcreteRoleHOW&#45;&gt;Any -->
<g id="edge4" class="edge">
<title>Metamodel::ConcreteRoleHOW&#45;&gt;Any</title>
<path fill="none" stroke="#000000" d="M1350.89,-908.19C1340.41,-848.96 1308.09,-666.28 1308.09,-666.28 1308.09,-666.28 1177.03,-560.4 1120.41,-514.65"/>
<polygon fill="#000000" stroke="#000000" points="1122.29,-511.66 1112.31,-508.1 1117.89,-517.11 1122.29,-511.66"/>
</g>
<!-- Metamodel::ConcreteRoleHOW&#45;&gt;Metamodel::Naming -->
<g id="edge36" class="edge">
<title>Metamodel::ConcreteRoleHOW&#45;&gt;Metamodel::Naming</title>
<path fill="none" stroke="#6666ff" d="M1315.25,-943.74C1256.66,-969.76 1152.5,-1016.01 1152.5,-1016.01 1152.5,-1016.01 1108.35,-1167.23 1089.65,-1231.3"/>
<polygon fill="#6666ff" stroke="#6666ff" points="1086.21,-1230.56 1086.77,-1241.14 1092.93,-1232.53 1086.21,-1230.56"/>
</g>
<!-- Metamodel::ConcreteRoleHOW&#45;&gt;Metamodel::Versioning -->
<g id="edge37" class="edge">
<title>Metamodel::ConcreteRoleHOW&#45;&gt;Metamodel::Versioning</title>
<path fill="none" stroke="#6666ff" d="M1315.25,-943.74C1256.66,-969.76 1152.5,-1016.01 1152.5,-1016.01 1152.5,-1016.01 994.15,-1232.04 938.32,-1308.2"/>
<polygon fill="#6666ff" stroke="#6666ff" points="935.43,-1306.23 932.34,-1316.37 941.07,-1310.37 935.43,-1306.23"/>
</g>
<!-- Metamodel::ConcreteRoleHOW&#45;&gt;Metamodel::AttributeContainer -->
<g id="edge41" class="edge">
<title>Metamodel::ConcreteRoleHOW&#45;&gt;Metamodel::AttributeContainer</title>
<path fill="none" stroke="#6666ff" d="M1341.64,-908.18C1310.73,-862.9 1230.59,-745.48 1194.54,-692.66"/>
<polygon fill="#6666ff" stroke="#6666ff" points="1197.27,-690.45 1188.74,-684.17 1191.49,-694.4 1197.27,-690.45"/>
</g>
<!-- Metamodel::ConcreteRoleHOW&#45;&gt;Metamodel::MethodContainer -->
<g id="edge39" class="edge">
<title>Metamodel::ConcreteRoleHOW&#45;&gt;Metamodel::MethodContainer</title>
<path fill="none" stroke="#6666ff" d="M1303.53,-909.71C1233.59,-886.52 1107.59,-844.73 1033.02,-820.01"/>
<polygon fill="#6666ff" stroke="#6666ff" points="1033.9,-816.61 1023.3,-816.79 1031.69,-823.25 1033.9,-816.61"/>
</g>
<!-- Metamodel::ConcreteRoleHOW&#45;&gt;Metamodel::MultiMethodContainer -->
<g id="edge40" class="edge">
<title>Metamodel::ConcreteRoleHOW&#45;&gt;Metamodel::MultiMethodContainer</title>
<path fill="none" stroke="#6666ff" d="M1329.33,-908.59C1257.21,-856.54 1047.5,-705.18 965.74,-646.17"/>
<polygon fill="#6666ff" stroke="#6666ff" points="967.48,-643.12 957.33,-640.1 963.39,-648.79 967.48,-643.12"/>
</g>
<!-- Metamodel::ConcreteRoleHOW&#45;&gt;Metamodel::RoleContainer -->
<g id="edge42" class="edge">
<title>Metamodel::ConcreteRoleHOW&#45;&gt;Metamodel::RoleContainer</title>
<path fill="none" stroke="#6666ff" d="M1315.25,-943.74C1256.66,-969.76 1152.5,-1016.01 1152.5,-1016.01 1152.5,-1016.01 996.61,-1098.65 919.78,-1139.38"/>
<polygon fill="#6666ff" stroke="#6666ff" points="918.01,-1136.36 910.81,-1144.13 921.29,-1142.54 918.01,-1136.36"/>
</g>
<!-- Metamodel::ConcreteRoleHOW&#45;&gt;Metamodel::MultipleInheritance -->
<g id="edge43" class="edge">
<title>Metamodel::ConcreteRoleHOW&#45;&gt;Metamodel::MultipleInheritance</title>
<path fill="none" stroke="#6666ff" d="M1315.25,-943.74C1256.66,-969.76 1152.5,-1016.01 1152.5,-1016.01 1152.5,-1016.01 1173.37,-1259.55 1173.37,-1259.55 1173.37,-1259.55 1151.05,-1320.06 1137.42,-1357.03"/>
<polygon fill="#6666ff" stroke="#6666ff" points="1134,-1356.18 1133.83,-1366.77 1140.57,-1358.6 1134,-1356.18"/>
</g>
</g>
</svg>
