<?xml version="1.0" encoding="UTF-8" standalone="no"?>
<!DOCTYPE svg PUBLIC "-//W3C//DTD SVG 1.1//EN"
 "http://www.w3.org/Graphics/SVG/1.1/DTD/svg11.dtd">
<!-- Generated by graphviz version 2.43.0 (0)
 -->
<!-- Title: perl6&#45;type&#45;graph Pages: 1 -->
<svg width="1912pt" height="1967pt"
 viewBox="0.00 0.00 1912.39 1966.88" xmlns="http://www.w3.org/2000/svg" xmlns:xlink="http://www.w3.org/1999/xlink">
<g id="graph0" class="graph" transform="scale(1 1) rotate(0) translate(4 1962.88)">
<title>perl6&#45;type&#45;graph</title>
<polygon fill="white" stroke="transparent" points="-4,4 -4,-1962.88 1908.39,-1962.88 1908.39,4 -4,4"/>
<!-- Metamodel::Stashing -->
<g id="node1" class="node">
<title>Metamodel::Stashing</title>
<g id="a_node1"><a xlink:href="/type/Metamodel::Stashing" xlink:title="Metamodel::Stashing">
<ellipse fill="none" stroke="#6666ff" cx="947.12" cy="-1043.75" rx="93.68" ry="18"/>
<text text-anchor="middle" x="947.12" y="-1040.05" font-family="FreeSans" font-size="14.00" fill="#6666ff">Metamodel::Stashing</text>
</a>
</g>
</g>
<!-- Mu -->
<g id="node2" class="node">
<title>Mu</title>
<g id="a_node2"><a xlink:href="/type/Mu" xlink:title="Mu">
<ellipse fill="none" stroke="#000000" cx="1563.31" cy="-1424.57" rx="27" ry="18"/>
<text text-anchor="middle" x="1563.31" y="-1420.87" font-family="FreeSans" font-size="14.00" fill="#000000">Mu</text>
</a>
</g>
</g>
<!-- Any -->
<g id="node3" class="node">
<title>Any</title>
<g id="a_node3"><a xlink:href="/type/Any" xlink:title="Any">
<ellipse fill="none" stroke="#000000" cx="1161.48" cy="-1128.84" rx="27" ry="18"/>
<text text-anchor="middle" x="1161.48" y="-1125.14" font-family="FreeSans" font-size="14.00" fill="#000000">Any</text>
</a>
</g>
</g>
<!-- Any&#45;&gt;Mu -->
<g id="edge1" class="edge">
<title>Any&#45;&gt;Mu</title>
<path fill="none" stroke="#000000" d="M1179.79,-1142.32C1244.25,-1189.75 1460.86,-1349.17 1536.76,-1405.03"/>
<polygon fill="#000000" stroke="#000000" points="1534.77,-1407.91 1544.9,-1411.02 1538.92,-1402.27 1534.77,-1407.91"/>
</g>
<!-- Metamodel::Naming -->
<g id="node4" class="node">
<title>Metamodel::Naming</title>
<g id="a_node4"><a xlink:href="/type/Metamodel::Naming" xlink:title="Metamodel::Naming">
<ellipse fill="none" stroke="#6666ff" cx="1036.05" cy="-1087.77" rx="90.18" ry="18"/>
<text text-anchor="middle" x="1036.05" y="-1084.07" font-family="FreeSans" font-size="14.00" fill="#6666ff">Metamodel::Naming</text>
</a>
</g>
</g>
<!-- Metamodel::TypePretense -->
<g id="node5" class="node">
<title>Metamodel::TypePretense</title>
<g id="a_node5"><a xlink:href="/type/Metamodel::TypePretense" xlink:title="Metamodel::TypePretense">
<ellipse fill="none" stroke="#6666ff" cx="420.47" cy="-1442.81" rx="114.28" ry="18"/>
<text text-anchor="middle" x="420.47" y="-1439.11" font-family="FreeSans" font-size="14.00" fill="#6666ff">Metamodel::TypePretense</text>
</a>
</g>
</g>
<!-- Metamodel::RolePunning -->
<g id="node6" class="node">
<title>Metamodel::RolePunning</title>
<g id="a_node6"><a xlink:href="/type/Metamodel::RolePunning" xlink:title="Metamodel::RolePunning">
<ellipse fill="none" stroke="#6666ff" cx="109.84" cy="-1071.68" rx="109.68" ry="18"/>
<text text-anchor="middle" x="109.84" y="-1067.98" font-family="FreeSans" font-size="14.00" fill="#6666ff">Metamodel::RolePunning</text>
</a>
</g>
</g>
<!-- Metamodel::BoolificationProtocol -->
<g id="node7" class="node">
<title>Metamodel::BoolificationProtocol</title>
<g id="a_node7"><a xlink:href="/type/Metamodel::BoolificationProtocol" xlink:title="Metamodel::BoolificationProtocol">
<ellipse fill="none" stroke="#6666ff" cx="727.22" cy="-782.04" rx="139.18" ry="18"/>
<text text-anchor="middle" x="727.22" y="-778.34" font-family="FreeSans" font-size="14.00" fill="#6666ff">Metamodel::BoolificationProtocol</text>
</a>
</g>
</g>
<!-- Metamodel::ParametricRoleGroupHOW -->
<g id="node8" class="node">
<title>Metamodel::ParametricRoleGroupHOW</title>
<g id="a_node8"><a xlink:href="/type/Metamodel::ParametricRoleGroupHOW" xlink:title="Metamodel::ParametricRoleGroupHOW">
<ellipse fill="none" stroke="#000000" cx="584.81" cy="-1266.94" rx="166.27" ry="18"/>
<text text-anchor="middle" x="584.81" y="-1263.24" font-family="FreeSans" font-size="14.00" fill="#000000">Metamodel::ParametricRoleGroupHOW</text>
</a>
</g>
</g>
<!-- Metamodel::ParametricRoleGroupHOW&#45;&gt;Metamodel::Stashing -->
<g id="edge10" class="edge">
<title>Metamodel::ParametricRoleGroupHOW&#45;&gt;Metamodel::Stashing</title>
<path fill="none" stroke="#6666ff" d="M601.67,-1248.89C636.64,-1211.45 713.81,-1128.84 713.81,-1128.84 713.81,-1128.84 747.01,-1115 747.01,-1115 747.01,-1115 833.33,-1084.26 892.59,-1063.17"/>
<polygon fill="#6666ff" stroke="#6666ff" points="893.96,-1066.39 902.21,-1059.74 891.62,-1059.8 893.96,-1066.39"/>
</g>
<!-- Metamodel::ParametricRoleGroupHOW&#45;&gt;Any -->
<g id="edge2" class="edge">
<title>Metamodel::ParametricRoleGroupHOW&#45;&gt;Any</title>
<path fill="none" stroke="#000000" d="M653.51,-1250.49C777,-1220.91 1032.35,-1159.77 1126.03,-1137.33"/>
<polygon fill="#000000" stroke="#000000" points="1126.95,-1140.71 1135.86,-1134.98 1125.32,-1133.9 1126.95,-1140.71"/>
</g>
<!-- Metamodel::ParametricRoleGroupHOW&#45;&gt;Metamodel::Naming -->
<g id="edge9" class="edge">
<title>Metamodel::ParametricRoleGroupHOW&#45;&gt;Metamodel::Naming</title>
<path fill="none" stroke="#6666ff" d="M629.82,-1249.55C718.24,-1215.37 906.09,-1142.78 906.09,-1142.78 906.09,-1142.78 939.29,-1128.93 939.29,-1128.93 939.29,-1128.93 963.87,-1118.48 988.25,-1108.11"/>
<polygon fill="#6666ff" stroke="#6666ff" points="989.7,-1111.29 997.53,-1104.16 986.96,-1104.85 989.7,-1111.29"/>
</g>
<!-- Metamodel::ParametricRoleGroupHOW&#45;&gt;Metamodel::TypePretense -->
<g id="edge11" class="edge">
<title>Metamodel::ParametricRoleGroupHOW&#45;&gt;Metamodel::TypePretense</title>
<path fill="none" stroke="#6666ff" d="M567.84,-1285.1C538.49,-1316.51 478.15,-1381.08 444.5,-1417.09"/>
<polygon fill="#6666ff" stroke="#6666ff" points="441.62,-1415.05 437.34,-1424.75 446.73,-1419.83 441.62,-1415.05"/>
</g>
<!-- Metamodel::ParametricRoleGroupHOW&#45;&gt;Metamodel::RolePunning -->
<g id="edge12" class="edge">
<title>Metamodel::ParametricRoleGroupHOW&#45;&gt;Metamodel::RolePunning</title>
<path fill="none" stroke="#6666ff" d="M542.24,-1249.44C454.52,-1213.38 253.98,-1130.94 160.08,-1092.34"/>
<polygon fill="#6666ff" stroke="#6666ff" points="161.37,-1089.08 150.79,-1088.52 158.71,-1095.56 161.37,-1089.08"/>
</g>
<!-- Metamodel::ParametricRoleGroupHOW&#45;&gt;Metamodel::BoolificationProtocol -->
<g id="edge13" class="edge">
<title>Metamodel::ParametricRoleGroupHOW&#45;&gt;Metamodel::BoolificationProtocol</title>
<path fill="none" stroke="#6666ff" d="M587.95,-1248.87C597.97,-1191.27 628.51,-1015.71 628.51,-1015.71 628.51,-1015.71 684.89,-889.87 684.89,-889.87 684.89,-889.87 703.84,-841.6 716.38,-809.65"/>
<polygon fill="#6666ff" stroke="#6666ff" points="719.64,-810.92 720.04,-800.33 713.13,-808.36 719.64,-810.92"/>
</g>
<!-- Metamodel::AttributeContainer -->
<g id="node9" class="node">
<title>Metamodel::AttributeContainer</title>
<g id="a_node9"><a xlink:href="/type/Metamodel::AttributeContainer" xlink:title="Metamodel::AttributeContainer">
<ellipse fill="none" stroke="#6666ff" cx="579.87" cy="-391.17" rx="129.98" ry="18"/>
<text text-anchor="middle" x="579.87" y="-387.47" font-family="FreeSans" font-size="14.00" fill="#6666ff">Metamodel::AttributeContainer</text>
</a>
</g>
</g>
<!-- Metamodel::MethodContainer -->
<g id="node10" class="node">
<title>Metamodel::MethodContainer</title>
<g id="a_node10"><a xlink:href="/type/Metamodel::MethodContainer" xlink:title="Metamodel::MethodContainer">
<ellipse fill="none" stroke="#6666ff" cx="931.48" cy="-391.14" rx="127.28" ry="18"/>
<text text-anchor="middle" x="931.48" y="-387.44" font-family="FreeSans" font-size="14.00" fill="#6666ff">Metamodel::MethodContainer</text>
</a>
</g>
</g>
<!-- Metamodel::MultiMethodContainer -->
<g id="node11" class="node">
<title>Metamodel::MultiMethodContainer</title>
<g id="a_node11"><a xlink:href="/type/Metamodel::MultiMethodContainer" xlink:title="Metamodel::MultiMethodContainer">
<ellipse fill="none" stroke="#6666ff" cx="749.42" cy="-347.13" rx="146.47" ry="18"/>
<text text-anchor="middle" x="749.42" y="-343.43" font-family="FreeSans" font-size="14.00" fill="#6666ff">Metamodel::MultiMethodContainer</text>
</a>
</g>
</g>
<!-- Metamodel::RoleContainer -->
<g id="node12" class="node">
<title>Metamodel::RoleContainer</title>
<g id="a_node12"><a xlink:href="/type/Metamodel::RoleContainer" xlink:title="Metamodel::RoleContainer">
<ellipse fill="none" stroke="#6666ff" cx="693.7" cy="-549.26" rx="115.88" ry="18"/>
<text text-anchor="middle" x="693.7" y="-545.56" font-family="FreeSans" font-size="14.00" fill="#6666ff">Metamodel::RoleContainer</text>
</a>
</g>
</g>
<!-- Metamodel::BaseType -->
<g id="node13" class="node">
<title>Metamodel::BaseType</title>
<g id="a_node13"><a xlink:href="/type/Metamodel::BaseType" xlink:title="Metamodel::BaseType">
<ellipse fill="none" stroke="#6666ff" cx="1804.95" cy="-722.32" rx="99.38" ry="18"/>
<text text-anchor="middle" x="1804.95" y="-718.62" font-family="FreeSans" font-size="14.00" fill="#6666ff">Metamodel::BaseType</text>
</a>
</g>
</g>
<!-- Metamodel::MROBasedMethodDispatch -->
<g id="node14" class="node">
<title>Metamodel::MROBasedMethodDispatch</title>
<g id="a_node14"><a xlink:href="/type/Metamodel::MROBasedMethodDispatch" xlink:title="Metamodel::MROBasedMethodDispatch">
<ellipse fill="none" stroke="#6666ff" cx="1449.55" cy="-511.04" rx="169.77" ry="18"/>
<text text-anchor="middle" x="1449.55" y="-507.34" font-family="FreeSans" font-size="14.00" fill="#6666ff">Metamodel::MROBasedMethodDispatch</text>
</a>
</g>
</g>
<!-- Metamodel::MROBasedTypeChecking -->
<g id="node15" class="node">
<title>Metamodel::MROBasedTypeChecking</title>
<g id="a_node15"><a xlink:href="/type/Metamodel::MROBasedTypeChecking" xlink:title="Metamodel::MROBasedTypeChecking">
<ellipse fill="none" stroke="#6666ff" cx="1488.18" cy="-823.38" rx="163.27" ry="18"/>
<text text-anchor="middle" x="1488.18" y="-819.68" font-family="FreeSans" font-size="14.00" fill="#6666ff">Metamodel::MROBasedTypeChecking</text>
</a>
</g>
</g>
<!-- Metamodel::BUILDPLAN -->
<g id="node16" class="node">
<title>Metamodel::BUILDPLAN</title>
<g id="a_node16"><a xlink:href="/type/Metamodel::BUILDPLAN" xlink:title="Metamodel::BUILDPLAN">
<ellipse fill="none" stroke="#6666ff" cx="1309.54" cy="-252.35" rx="109.68" ry="18"/>
<text text-anchor="middle" x="1309.54" y="-248.65" font-family="FreeSans" font-size="14.00" fill="#6666ff">Metamodel::BUILDPLAN</text>
</a>
</g>
</g>
<!-- Metamodel::Mixins -->
<g id="node17" class="node">
<title>Metamodel::Mixins</title>
<g id="a_node17"><a xlink:href="/type/Metamodel::Mixins" xlink:title="Metamodel::Mixins">
<ellipse fill="none" stroke="#6666ff" cx="1241.14" cy="-138.44" rx="85.29" ry="18"/>
<text text-anchor="middle" x="1241.14" y="-134.74" font-family="FreeSans" font-size="14.00" fill="#6666ff">Metamodel::Mixins</text>
</a>
</g>
</g>
<!-- Metamodel::EnumHOW -->
<g id="node18" class="node">
<title>Metamodel::EnumHOW</title>
<g id="a_node18"><a xlink:href="/type/Metamodel::EnumHOW" xlink:title="Metamodel::EnumHOW">
<ellipse fill="none" stroke="#000000" cx="1171.27" cy="-647.81" rx="104.78" ry="18"/>
<text text-anchor="middle" x="1171.27" y="-644.11" font-family="FreeSans" font-size="14.00" fill="#000000">Metamodel::EnumHOW</text>
</a>
</g>
</g>
<!-- Metamodel::EnumHOW&#45;&gt;Metamodel::Stashing -->
<g id="edge15" class="edge">
<title>Metamodel::EnumHOW&#45;&gt;Metamodel::Stashing</title>
<path fill="none" stroke="#6666ff" d="M1156.44,-665.93C1120.23,-710.16 1030.21,-820.11 1030.21,-820.11 1030.21,-820.11 979.77,-955.88 957.49,-1015.84"/>
<polygon fill="#6666ff" stroke="#6666ff" points="954.12,-1014.86 953.92,-1025.45 960.68,-1017.29 954.12,-1014.86"/>
</g>
<!-- Metamodel::EnumHOW&#45;&gt;Any -->
<g id="edge3" class="edge">
<title>Metamodel::EnumHOW&#45;&gt;Any</title>
<path fill="none" stroke="#000000" d="M1179.19,-665.94C1198.53,-710.2 1246.59,-820.21 1246.59,-820.21 1246.59,-820.21 1190.04,-1025.3 1169.13,-1101.11"/>
<polygon fill="#000000" stroke="#000000" points="1165.71,-1100.34 1166.43,-1110.91 1172.46,-1102.2 1165.71,-1100.34"/>
</g>
<!-- Metamodel::EnumHOW&#45;&gt;Metamodel::Naming -->
<g id="edge14" class="edge">
<title>Metamodel::EnumHOW&#45;&gt;Metamodel::Naming</title>
<path fill="none" stroke="#6666ff" d="M1156.44,-665.93C1120.23,-710.16 1030.21,-820.11 1030.21,-820.11 1030.21,-820.11 1042.31,-1043.79 1042.31,-1043.79 1042.31,-1043.79 1041.28,-1051.03 1040.05,-1059.64"/>
<polygon fill="#6666ff" stroke="#6666ff" points="1036.58,-1059.23 1038.63,-1069.63 1043.51,-1060.22 1036.58,-1059.23"/>
</g>
<!-- Metamodel::EnumHOW&#45;&gt;Metamodel::BoolificationProtocol -->
<g id="edge24" class="edge">
<title>Metamodel::EnumHOW&#45;&gt;Metamodel::BoolificationProtocol</title>
<path fill="none" stroke="#6666ff" d="M1119.47,-663.47C1038.1,-688.07 880.5,-735.71 791.84,-762.51"/>
<polygon fill="#6666ff" stroke="#6666ff" points="790.73,-759.19 782.17,-765.43 792.75,-765.89 790.73,-759.19"/>
</g>
<!-- Metamodel::EnumHOW&#45;&gt;Metamodel::AttributeContainer -->
<g id="edge16" class="edge">
<title>Metamodel::EnumHOW&#45;&gt;Metamodel::AttributeContainer</title>
<path fill="none" stroke="#6666ff" d="M1158.02,-629.82C1147.5,-615.54 1134.56,-597.97 1134.56,-597.97 1134.56,-597.97 1104.05,-584.1 1104.05,-584.1 1104.05,-584.1 770.73,-461.41 635.69,-411.71"/>
<polygon fill="#6666ff" stroke="#6666ff" points="636.52,-408.29 625.93,-408.12 634.1,-414.86 636.52,-408.29"/>
</g>
<!-- Metamodel::EnumHOW&#45;&gt;Metamodel::MethodContainer -->
<g id="edge17" class="edge">
<title>Metamodel::EnumHOW&#45;&gt;Metamodel::MethodContainer</title>
<path fill="none" stroke="#6666ff" d="M1158.02,-629.82C1147.5,-615.54 1134.56,-597.97 1134.56,-597.97 1134.56,-597.97 1010.5,-471.62 956.31,-416.43"/>
<polygon fill="#6666ff" stroke="#6666ff" points="958.65,-413.82 949.14,-409.13 953.65,-418.72 958.65,-413.82"/>
</g>
<!-- Metamodel::EnumHOW&#45;&gt;Metamodel::MultiMethodContainer -->
<g id="edge18" class="edge">
<title>Metamodel::EnumHOW&#45;&gt;Metamodel::MultiMethodContainer</title>
<path fill="none" stroke="#6666ff" d="M1158.02,-629.82C1147.5,-615.54 1134.56,-597.97 1134.56,-597.97 1134.56,-597.97 802.49,-391.03 802.49,-391.03 802.49,-391.03 791.19,-381.69 779.02,-371.62"/>
<polygon fill="#6666ff" stroke="#6666ff" points="780.94,-368.67 771.01,-364.99 776.48,-374.06 780.94,-368.67"/>
</g>
<!-- Metamodel::EnumHOW&#45;&gt;Metamodel::RoleContainer -->
<g id="edge19" class="edge">
<title>Metamodel::EnumHOW&#45;&gt;Metamodel::RoleContainer</title>
<path fill="none" stroke="#6666ff" d="M1096,-635.24C1033.63,-624.83 955.18,-611.73 955.18,-611.73 955.18,-611.73 844.09,-585.19 766.72,-566.71"/>
<polygon fill="#6666ff" stroke="#6666ff" points="767.53,-563.3 756.99,-564.38 765.91,-570.11 767.53,-563.3"/>
</g>
<!-- Metamodel::EnumHOW&#45;&gt;Metamodel::BaseType -->
<g id="edge20" class="edge">
<title>Metamodel::EnumHOW&#45;&gt;Metamodel::BaseType</title>
<path fill="none" stroke="#6666ff" d="M1257.72,-657.98C1376.4,-671.93 1588.94,-696.92 1711.29,-711.3"/>
<polygon fill="#6666ff" stroke="#6666ff" points="1711.05,-714.8 1721.39,-712.49 1711.86,-707.85 1711.05,-714.8"/>
</g>
<!-- Metamodel::EnumHOW&#45;&gt;Metamodel::MROBasedMethodDispatch -->
<g id="edge21" class="edge">
<title>Metamodel::EnumHOW&#45;&gt;Metamodel::MROBasedMethodDispatch</title>
<path fill="none" stroke="#6666ff" d="M1205.96,-630.77C1256.09,-606.13 1348.86,-560.53 1404.31,-533.27"/>
<polygon fill="#6666ff" stroke="#6666ff" points="1406.11,-536.29 1413.55,-528.73 1403.03,-530 1406.11,-536.29"/>
</g>
<!-- Metamodel::EnumHOW&#45;&gt;Metamodel::MROBasedTypeChecking -->
<g id="edge22" class="edge">
<title>Metamodel::EnumHOW&#45;&gt;Metamodel::MROBasedTypeChecking</title>
<path fill="none" stroke="#6666ff" d="M1202.53,-665.13C1260.13,-697.04 1382.99,-765.11 1447.19,-800.67"/>
<polygon fill="#6666ff" stroke="#6666ff" points="1445.78,-803.89 1456.22,-805.67 1449.17,-797.77 1445.78,-803.89"/>
</g>
<!-- Metamodel::EnumHOW&#45;&gt;Metamodel::BUILDPLAN -->
<g id="edge23" class="edge">
<title>Metamodel::EnumHOW&#45;&gt;Metamodel::BUILDPLAN</title>
<path fill="none" stroke="#6666ff" d="M1177.57,-629.79C1199.57,-566.87 1273.08,-356.63 1299.76,-280.32"/>
<polygon fill="#6666ff" stroke="#6666ff" points="1303.2,-281.07 1303.2,-270.47 1296.59,-278.76 1303.2,-281.07"/>
</g>
<!-- Metamodel::EnumHOW&#45;&gt;Metamodel::Mixins -->
<g id="edge25" class="edge">
<title>Metamodel::EnumHOW&#45;&gt;Metamodel::Mixins</title>
<path fill="none" stroke="#6666ff" d="M1172.5,-629.79C1177.74,-552.4 1198.1,-252.24 1198.1,-252.24 1198.1,-252.24 1217.88,-199.94 1230.62,-166.25"/>
<polygon fill="#6666ff" stroke="#6666ff" points="1234.06,-167.06 1234.32,-156.47 1227.51,-164.58 1234.06,-167.06"/>
</g>
<!-- Metamodel::Documenting -->
<g id="node19" class="node">
<title>Metamodel::Documenting</title>
<g id="a_node19"><a xlink:href="/type/Metamodel::Documenting" xlink:title="Metamodel::Documenting">
<ellipse fill="none" stroke="#6666ff" cx="826.55" cy="-1128.89" rx="111.28" ry="18"/>
<text text-anchor="middle" x="826.55" y="-1125.19" font-family="FreeSans" font-size="14.00" fill="#6666ff">Metamodel::Documenting</text>
</a>
</g>
</g>
<!-- Metamodel::Versioning -->
<g id="node20" class="node">
<title>Metamodel::Versioning</title>
<g id="a_node20"><a xlink:href="/type/Metamodel::Versioning" xlink:title="Metamodel::Versioning">
<ellipse fill="none" stroke="#6666ff" cx="730.85" cy="-1015.87" rx="100.98" ry="18"/>
<text text-anchor="middle" x="730.85" y="-1012.17" font-family="FreeSans" font-size="14.00" fill="#6666ff">Metamodel::Versioning</text>
</a>
</g>
</g>
<!-- Metamodel::PrivateMethodContainer -->
<g id="node21" class="node">
<title>Metamodel::PrivateMethodContainer</title>
<g id="a_node21"><a xlink:href="/type/Metamodel::PrivateMethodContainer" xlink:title="Metamodel::PrivateMethodContainer">
<ellipse fill="none" stroke="#6666ff" cx="379.76" cy="-456.86" rx="154.87" ry="18"/>
<text text-anchor="middle" x="379.76" y="-453.16" font-family="FreeSans" font-size="14.00" fill="#6666ff">Metamodel::PrivateMethodContainer</text>
</a>
</g>
</g>
<!-- Metamodel::MultipleInheritance -->
<g id="node22" class="node">
<title>Metamodel::MultipleInheritance</title>
<g id="a_node22"><a xlink:href="/type/Metamodel::MultipleInheritance" xlink:title="Metamodel::MultipleInheritance">
<ellipse fill="none" stroke="#6666ff" cx="496.94" cy="-615.48" rx="133.78" ry="18"/>
<text text-anchor="middle" x="496.94" y="-611.78" font-family="FreeSans" font-size="14.00" fill="#6666ff">Metamodel::MultipleInheritance</text>
</a>
</g>
</g>
<!-- Metamodel::ParametricRoleHOW -->
<g id="node23" class="node">
<title>Metamodel::ParametricRoleHOW</title>
<g id="a_node23"><a xlink:href="/type/Metamodel::ParametricRoleHOW" xlink:title="Metamodel::ParametricRoleHOW">
<ellipse fill="none" stroke="#000000" cx="541.61" cy="-889.69" rx="141.88" ry="18"/>
<text text-anchor="middle" x="541.61" y="-885.99" font-family="FreeSans" font-size="14.00" fill="#000000">Metamodel::ParametricRoleHOW</text>
</a>
</g>
</g>
<!-- Metamodel::ParametricRoleHOW&#45;&gt;Metamodel::Stashing -->
<g id="edge35" class="edge">
<title>Metamodel::ParametricRoleHOW&#45;&gt;Metamodel::Stashing</title>
<path fill="none" stroke="#6666ff" d="M586.56,-906.76C662.35,-935.56 815.14,-993.61 895.32,-1024.07"/>
<polygon fill="#6666ff" stroke="#6666ff" points="894.13,-1027.36 904.72,-1027.64 896.62,-1020.82 894.13,-1027.36"/>
</g>
<!-- Metamodel::ParametricRoleHOW&#45;&gt;Any -->
<g id="edge4" class="edge">
<title>Metamodel::ParametricRoleHOW&#45;&gt;Any</title>
<path fill="none" stroke="#000000" d="M597.72,-906.32C723,-943.47 1014.56,-1029.92 1014.56,-1029.92 1014.56,-1029.92 1042.31,-1043.79 1042.31,-1043.79 1042.31,-1043.79 1101.52,-1074.01 1101.52,-1074.01 1101.52,-1074.01 1127.99,-1087.91 1127.99,-1087.91 1127.99,-1087.91 1134.51,-1095.87 1141.79,-1104.77"/>
<polygon fill="#000000" stroke="#000000" points="1139.21,-1107.14 1148.25,-1112.66 1144.62,-1102.71 1139.21,-1107.14"/>
</g>
<!-- Metamodel::ParametricRoleHOW&#45;&gt;Metamodel::Naming -->
<g id="edge26" class="edge">
<title>Metamodel::ParametricRoleHOW&#45;&gt;Metamodel::Naming</title>
<path fill="none" stroke="#6666ff" d="M582,-907.01C655.55,-938.55 803.8,-1002.12 803.8,-1002.12 803.8,-1002.12 833.19,-1016.03 833.19,-1016.03 833.19,-1016.03 851.93,-1043.71 851.93,-1043.71 851.93,-1043.71 879.67,-1057.58 879.67,-1057.58 879.67,-1057.58 921.02,-1065.56 961.2,-1073.32"/>
<polygon fill="#6666ff" stroke="#6666ff" points="960.61,-1076.77 971.09,-1075.23 961.94,-1069.9 960.61,-1076.77"/>
</g>
<!-- Metamodel::ParametricRoleHOW&#45;&gt;Metamodel::TypePretense -->
<g id="edge36" class="edge">
<title>Metamodel::ParametricRoleHOW&#45;&gt;Metamodel::TypePretense</title>
<path fill="none" stroke="#6666ff" d="M535.59,-907.88C510.67,-983.22 416.82,-1266.87 416.82,-1266.87 416.82,-1266.87 418.85,-1364.79 419.88,-1414.53"/>
<polygon fill="#6666ff" stroke="#6666ff" points="416.39,-1414.72 420.09,-1424.64 423.38,-1414.57 416.39,-1414.72"/>
</g>
<!-- Metamodel::ParametricRoleHOW&#45;&gt;Metamodel::RolePunning -->
<g id="edge37" class="edge">
<title>Metamodel::ParametricRoleHOW&#45;&gt;Metamodel::RolePunning</title>
<path fill="none" stroke="#6666ff" d="M500.6,-906.97C420.86,-940.58 245.22,-1014.62 159.23,-1050.87"/>
<polygon fill="#6666ff" stroke="#6666ff" points="157.8,-1047.67 149.95,-1054.78 160.52,-1054.12 157.8,-1047.67"/>
</g>
<!-- Metamodel::ParametricRoleHOW&#45;&gt;Metamodel::AttributeContainer -->
<g id="edge32" class="edge">
<title>Metamodel::ParametricRoleHOW&#45;&gt;Metamodel::AttributeContainer</title>
<path fill="none" stroke="#6666ff" d="M547.71,-871.28C568.07,-809.82 632.43,-615.6 632.43,-615.6 632.43,-615.6 576.41,-549.08 576.41,-549.08 576.41,-549.08 578.26,-464.81 579.25,-419.39"/>
<polygon fill="#6666ff" stroke="#6666ff" points="582.75,-419.36 579.47,-409.28 575.76,-419.2 582.75,-419.36"/>
</g>
<!-- Metamodel::ParametricRoleHOW&#45;&gt;Metamodel::MethodContainer -->
<g id="edge29" class="edge">
<title>Metamodel::ParametricRoleHOW&#45;&gt;Metamodel::MethodContainer</title>
<path fill="none" stroke="#6666ff" d="M549.23,-871.41C562.05,-840.66 586.54,-781.92 586.54,-781.92 586.54,-781.92 810.98,-549.45 810.98,-549.45 810.98,-549.45 877.19,-462.46 911.46,-417.45"/>
<polygon fill="#6666ff" stroke="#6666ff" points="914.38,-419.38 917.66,-409.3 908.81,-415.14 914.38,-419.38"/>
</g>
<!-- Metamodel::ParametricRoleHOW&#45;&gt;Metamodel::MultiMethodContainer -->
<g id="edge31" class="edge">
<title>Metamodel::ParametricRoleHOW&#45;&gt;Metamodel::MultiMethodContainer</title>
<path fill="none" stroke="#6666ff" d="M547.71,-871.28C568.07,-809.82 632.43,-615.6 632.43,-615.6 632.43,-615.6 576.41,-549.08 576.41,-549.08 576.41,-549.08 680.74,-427.3 727.37,-372.88"/>
<polygon fill="#6666ff" stroke="#6666ff" points="730.22,-374.93 734.07,-365.06 724.9,-370.37 730.22,-374.93"/>
</g>
<!-- Metamodel::ParametricRoleHOW&#45;&gt;Metamodel::RoleContainer -->
<g id="edge33" class="edge">
<title>Metamodel::ParametricRoleHOW&#45;&gt;Metamodel::RoleContainer</title>
<path fill="none" stroke="#6666ff" d="M549.23,-871.41C562.05,-840.66 586.54,-781.92 586.54,-781.92 586.54,-781.92 652.75,-638.16 681.08,-576.65"/>
<polygon fill="#6666ff" stroke="#6666ff" points="684.28,-578.07 685.29,-567.52 677.93,-575.14 684.28,-578.07"/>
</g>
<!-- Metamodel::ParametricRoleHOW&#45;&gt;Metamodel::Documenting -->
<g id="edge27" class="edge">
<title>Metamodel::ParametricRoleHOW&#45;&gt;Metamodel::Documenting</title>
<path fill="none" stroke="#6666ff" d="M554.06,-907.74C578.09,-942.59 628.51,-1015.71 628.51,-1015.71 628.51,-1015.71 729.41,-1073.37 787.16,-1106.38"/>
<polygon fill="#6666ff" stroke="#6666ff" points="785.62,-1109.53 796.04,-1111.45 789.1,-1103.45 785.62,-1109.53"/>
</g>
<!-- Metamodel::ParametricRoleHOW&#45;&gt;Metamodel::Versioning -->
<g id="edge28" class="edge">
<title>Metamodel::ParametricRoleHOW&#45;&gt;Metamodel::Versioning</title>
<path fill="none" stroke="#6666ff" d="M568.32,-907.5C601.81,-929.82 659.27,-968.14 696.13,-992.72"/>
<polygon fill="#6666ff" stroke="#6666ff" points="694.32,-995.72 704.58,-998.35 698.2,-989.89 694.32,-995.72"/>
</g>
<!-- Metamodel::ParametricRoleHOW&#45;&gt;Metamodel::PrivateMethodContainer -->
<g id="edge30" class="edge">
<title>Metamodel::ParametricRoleHOW&#45;&gt;Metamodel::PrivateMethodContainer</title>
<path fill="none" stroke="#6666ff" d="M529.79,-871.69C489.71,-810.66 361.45,-615.37 361.45,-615.37 361.45,-615.37 371.22,-530.79 376.49,-485.19"/>
<polygon fill="#6666ff" stroke="#6666ff" points="379.99,-485.38 377.66,-475.05 373.04,-484.58 379.99,-485.38"/>
</g>
<!-- Metamodel::ParametricRoleHOW&#45;&gt;Metamodel::MultipleInheritance -->
<g id="edge34" class="edge">
<title>Metamodel::ParametricRoleHOW&#45;&gt;Metamodel::MultipleInheritance</title>
<path fill="none" stroke="#6666ff" d="M538.61,-871.27C530.96,-824.34 510.71,-700.02 501.55,-643.8"/>
<polygon fill="#6666ff" stroke="#6666ff" points="504.99,-643.13 499.93,-633.82 498.08,-644.25 504.99,-643.13"/>
</g>
<!-- Metamodel::MethodDelegation -->
<g id="node24" class="node">
<title>Metamodel::MethodDelegation</title>
<g id="a_node24"><a xlink:href="/type/Metamodel::MethodDelegation" xlink:title="Metamodel::MethodDelegation">
<ellipse fill="none" stroke="#6666ff" cx="979.94" cy="-1940.88" rx="131.08" ry="18"/>
<text text-anchor="middle" x="979.94" y="-1937.18" font-family="FreeSans" font-size="14.00" fill="#6666ff">Metamodel::MethodDelegation</text>
</a>
</g>
</g>
<!-- Metamodel::ModuleHOW -->
<g id="node25" class="node">
<title>Metamodel::ModuleHOW</title>
<g id="a_node25"><a xlink:href="/type/Metamodel::ModuleHOW" xlink:title="Metamodel::ModuleHOW">
<ellipse fill="none" stroke="#000000" cx="832.09" cy="-1489.92" rx="110.48" ry="18"/>
<text text-anchor="middle" x="832.09" y="-1486.22" font-family="FreeSans" font-size="14.00" fill="#000000">Metamodel::ModuleHOW</text>
</a>
</g>
</g>
<!-- Metamodel::ModuleHOW&#45;&gt;Metamodel::Stashing -->
<g id="edge41" class="edge">
<title>Metamodel::ModuleHOW&#45;&gt;Metamodel::Stashing</title>
<path fill="none" stroke="#6666ff" d="M837.55,-1471.52C859.4,-1397.96 939.29,-1128.93 939.29,-1128.93 939.29,-1128.93 942.25,-1096.69 944.53,-1071.88"/>
<polygon fill="#6666ff" stroke="#6666ff" points="948.03,-1072.09 945.46,-1061.82 941.06,-1071.45 948.03,-1072.09"/>
</g>
<!-- Metamodel::ModuleHOW&#45;&gt;Any -->
<g id="edge5" class="edge">
<title>Metamodel::ModuleHOW&#45;&gt;Any</title>
<path fill="none" stroke="#000000" d="M848.43,-1472.01C903.06,-1412.12 1079.42,-1218.79 1140.46,-1151.88"/>
<polygon fill="#000000" stroke="#000000" points="1143.16,-1154.11 1147.32,-1144.37 1137.99,-1149.4 1143.16,-1154.11"/>
</g>
<!-- Metamodel::ModuleHOW&#45;&gt;Metamodel::Naming -->
<g id="edge38" class="edge">
<title>Metamodel::ModuleHOW&#45;&gt;Metamodel::Naming</title>
<path fill="none" stroke="#6666ff" d="M841.25,-1471.86C873.74,-1407.81 983.55,-1191.29 1022.34,-1114.8"/>
<polygon fill="#6666ff" stroke="#6666ff" points="1025.52,-1116.28 1026.92,-1105.78 1019.27,-1113.12 1025.52,-1116.28"/>
</g>
<!-- Metamodel::ModuleHOW&#45;&gt;Metamodel::TypePretense -->
<g id="edge42" class="edge">
<title>Metamodel::ModuleHOW&#45;&gt;Metamodel::TypePretense</title>
<path fill="none" stroke="#6666ff" d="M741.5,-1479.55C677.11,-1472.18 590.52,-1462.27 523.49,-1454.6"/>
<polygon fill="#6666ff" stroke="#6666ff" points="523.66,-1451.09 513.33,-1453.43 522.87,-1458.05 523.66,-1451.09"/>
</g>
<!-- Metamodel::ModuleHOW&#45;&gt;Metamodel::Documenting -->
<g id="edge39" class="edge">
<title>Metamodel::ModuleHOW&#45;&gt;Metamodel::Documenting</title>
<path fill="none" stroke="#6666ff" d="M831.81,-1471.52C830.9,-1412.61 828.08,-1228.37 826.99,-1157.27"/>
<polygon fill="#6666ff" stroke="#6666ff" points="830.49,-1157.2 826.83,-1147.25 823.49,-1157.3 830.49,-1157.2"/>
</g>
<!-- Metamodel::ModuleHOW&#45;&gt;Metamodel::Versioning -->
<g id="edge40" class="edge">
<title>Metamodel::ModuleHOW&#45;&gt;Metamodel::Versioning</title>
<path fill="none" stroke="#6666ff" d="M826.06,-1471.52C801.96,-1397.94 713.81,-1128.84 713.81,-1128.84 713.81,-1128.84 721.53,-1077.64 726.58,-1044.17"/>
<polygon fill="#6666ff" stroke="#6666ff" points="730.08,-1044.43 728.11,-1034.02 723.16,-1043.39 730.08,-1044.43"/>
</g>
<!-- Metamodel::ModuleHOW&#45;&gt;Metamodel::MethodDelegation -->
<g id="edge43" class="edge">
<title>Metamodel::ModuleHOW&#45;&gt;Metamodel::MethodDelegation</title>
<path fill="none" stroke="#6666ff" d="M838.07,-1508.16C860.94,-1577.91 942.99,-1828.15 970.71,-1912.72"/>
<polygon fill="#6666ff" stroke="#6666ff" points="967.45,-1914 973.89,-1922.42 974.1,-1911.82 967.45,-1914"/>
</g>
<!-- Metamodel::C3MRO -->
<g id="node26" class="node">
<title>Metamodel::C3MRO</title>
<g id="a_node26"><a xlink:href="/type/Metamodel::C3MRO" xlink:title="Metamodel::C3MRO">
<ellipse fill="none" stroke="#6666ff" cx="1055.58" cy="-164.79" rx="92.08" ry="18"/>
<text text-anchor="middle" x="1055.58" y="-161.09" font-family="FreeSans" font-size="14.00" fill="#6666ff">Metamodel::C3MRO</text>
</a>
</g>
</g>
<!-- Metamodel::NativeHOW -->
<g id="node27" class="node">
<title>Metamodel::NativeHOW</title>
<g id="a_node27"><a xlink:href="/type/Metamodel::NativeHOW" xlink:title="Metamodel::NativeHOW">
<ellipse fill="none" stroke="#000000" cx="1138.4" cy="-820.16" rx="106.68" ry="18"/>
<text text-anchor="middle" x="1138.4" y="-816.46" font-family="FreeSans" font-size="14.00" fill="#000000">Metamodel::NativeHOW</text>
</a>
</g>
</g>
<!-- Metamodel::NativeHOW&#45;&gt;Metamodel::Stashing -->
<g id="edge47" class="edge">
<title>Metamodel::NativeHOW&#45;&gt;Metamodel::Stashing</title>
<path fill="none" stroke="#6666ff" d="M1123.07,-838.08C1089.28,-877.57 1008.3,-972.23 969.11,-1018.04"/>
<polygon fill="#6666ff" stroke="#6666ff" points="966.36,-1015.87 962.52,-1025.75 971.68,-1020.42 966.36,-1015.87"/>
</g>
<!-- Metamodel::NativeHOW&#45;&gt;Any -->
<g id="edge6" class="edge">
<title>Metamodel::NativeHOW&#45;&gt;Any</title>
<path fill="none" stroke="#000000" d="M1139.78,-838.55C1143.65,-890.34 1154.67,-1037.73 1159.34,-1100.25"/>
<polygon fill="#000000" stroke="#000000" points="1155.88,-1100.84 1160.11,-1110.55 1162.86,-1100.32 1155.88,-1100.84"/>
</g>
<!-- Metamodel::NativeHOW&#45;&gt;Metamodel::Naming -->
<g id="edge44" class="edge">
<title>Metamodel::NativeHOW&#45;&gt;Metamodel::Naming</title>
<path fill="none" stroke="#6666ff" d="M1131.53,-838.14C1114.02,-883.92 1067.64,-1005.18 1046.64,-1060.08"/>
<polygon fill="#6666ff" stroke="#6666ff" points="1043.34,-1058.93 1043.03,-1069.52 1049.87,-1061.43 1043.34,-1058.93"/>
</g>
<!-- Metamodel::NativeHOW&#45;&gt;Metamodel::MROBasedMethodDispatch -->
<g id="edge50" class="edge">
<title>Metamodel::NativeHOW&#45;&gt;Metamodel::MROBasedMethodDispatch</title>
<path fill="none" stroke="#6666ff" d="M1156.48,-802.21C1209.21,-749.81 1363.02,-597 1424.11,-536.31"/>
<polygon fill="#6666ff" stroke="#6666ff" points="1426.8,-538.57 1431.42,-529.04 1421.86,-533.61 1426.8,-538.57"/>
</g>
<!-- Metamodel::NativeHOW&#45;&gt;Metamodel::MROBasedTypeChecking -->
<g id="edge51" class="edge">
<title>Metamodel::NativeHOW&#45;&gt;Metamodel::MROBasedTypeChecking</title>
<path fill="none" stroke="#6666ff" d="M1245.25,-821.14C1267.4,-821.35 1291.27,-821.57 1315.1,-821.79"/>
<polygon fill="#6666ff" stroke="#6666ff" points="1315.28,-825.29 1325.31,-821.88 1315.34,-818.29 1315.28,-825.29"/>
</g>
<!-- Metamodel::NativeHOW&#45;&gt;Metamodel::Documenting -->
<g id="edge45" class="edge">
<title>Metamodel::NativeHOW&#45;&gt;Metamodel::Documenting</title>
<path fill="none" stroke="#6666ff" d="M1115.44,-838.08C1047.46,-891.13 851.93,-1043.71 851.93,-1043.71 851.93,-1043.71 842.23,-1076.24 834.83,-1101.09"/>
<polygon fill="#6666ff" stroke="#6666ff" points="831.43,-1100.24 831.93,-1110.82 838.14,-1102.24 831.43,-1100.24"/>
</g>
<!-- Metamodel::NativeHOW&#45;&gt;Metamodel::Versioning -->
<g id="edge46" class="edge">
<title>Metamodel::NativeHOW&#45;&gt;Metamodel::Versioning</title>
<path fill="none" stroke="#6666ff" d="M1102.95,-837.19C1028.79,-872.8 857.42,-955.09 775.73,-994.32"/>
<polygon fill="#6666ff" stroke="#6666ff" points="773.72,-991.4 766.22,-998.88 776.75,-997.71 773.72,-991.4"/>
</g>
<!-- Metamodel::NativeHOW&#45;&gt;Metamodel::MultipleInheritance -->
<g id="edge48" class="edge">
<title>Metamodel::NativeHOW&#45;&gt;Metamodel::MultipleInheritance</title>
<path fill="none" stroke="#6666ff" d="M1088.34,-804.19C972.38,-767.19 685.66,-675.7 558.9,-635.26"/>
<polygon fill="#6666ff" stroke="#6666ff" points="559.92,-631.91 549.33,-632.2 557.79,-638.57 559.92,-631.91"/>
</g>
<!-- Metamodel::NativeHOW&#45;&gt;Metamodel::C3MRO -->
<g id="edge49" class="edge">
<title>Metamodel::NativeHOW&#45;&gt;Metamodel::C3MRO</title>
<path fill="none" stroke="#6666ff" d="M1130.69,-802.02C1111.85,-757.73 1065.04,-647.63 1065.04,-647.63 1065.04,-647.63 1134.56,-597.97 1134.56,-597.97 1134.56,-597.97 1078.13,-288.48 1060.66,-192.7"/>
<polygon fill="#6666ff" stroke="#6666ff" points="1064.11,-192.07 1058.87,-182.86 1057.22,-193.32 1064.11,-192.07"/>
</g>
<!-- Metamodel::PackageHOW -->
<g id="node28" class="node">
<title>Metamodel::PackageHOW</title>
<g id="a_node28"><a xlink:href="/type/Metamodel::PackageHOW" xlink:title="Metamodel::PackageHOW">
<ellipse fill="none" stroke="#000000" cx="1052.72" cy="-1533.95" rx="116.18" ry="18"/>
<text text-anchor="middle" x="1052.72" y="-1530.25" font-family="FreeSans" font-size="14.00" fill="#000000">Metamodel::PackageHOW</text>
</a>
</g>
</g>
<!-- Metamodel::PackageHOW&#45;&gt;Metamodel::Stashing -->
<g id="edge54" class="edge">
<title>Metamodel::PackageHOW&#45;&gt;Metamodel::Stashing</title>
<path fill="none" stroke="#6666ff" d="M1048.32,-1515.9C1028.01,-1432.4 944.11,-1087.63 944.11,-1087.63 944.11,-1087.63 944.6,-1080.56 945.18,-1072.09"/>
<polygon fill="#6666ff" stroke="#6666ff" points="948.69,-1072.07 945.88,-1061.85 941.7,-1071.59 948.69,-1072.07"/>
</g>
<!-- Metamodel::PackageHOW&#45;&gt;Any -->
<g id="edge7" class="edge">
<title>Metamodel::PackageHOW&#45;&gt;Any</title>
<path fill="none" stroke="#000000" d="M1057.6,-1515.76C1074.85,-1451.5 1133.01,-1234.89 1153.92,-1157.02"/>
<polygon fill="#000000" stroke="#000000" points="1157.4,-1157.55 1156.61,-1146.98 1150.64,-1155.73 1157.4,-1157.55"/>
</g>
<!-- Metamodel::PackageHOW&#45;&gt;Metamodel::Naming -->
<g id="edge52" class="edge">
<title>Metamodel::PackageHOW&#45;&gt;Metamodel::Naming</title>
<path fill="none" stroke="#6666ff" d="M1052.04,-1515.91C1049.47,-1447.03 1040.26,-1200.31 1037.11,-1116.14"/>
<polygon fill="#6666ff" stroke="#6666ff" points="1040.61,-1115.9 1036.74,-1106.04 1033.61,-1116.16 1040.61,-1115.9"/>
</g>
<!-- Metamodel::PackageHOW&#45;&gt;Metamodel::TypePretense -->
<g id="edge55" class="edge">
<title>Metamodel::PackageHOW&#45;&gt;Metamodel::TypePretense</title>
<path fill="none" stroke="#6666ff" d="M955.12,-1524.12C867.35,-1515.27 752.12,-1503.65 752.12,-1503.65 752.12,-1503.65 603.51,-1476.39 505.25,-1458.36"/>
<polygon fill="#6666ff" stroke="#6666ff" points="505.78,-1454.9 495.31,-1456.54 504.52,-1461.78 505.78,-1454.9"/>
</g>
<!-- Metamodel::PackageHOW&#45;&gt;Metamodel::Documenting -->
<g id="edge53" class="edge">
<title>Metamodel::PackageHOW&#45;&gt;Metamodel::Documenting</title>
<path fill="none" stroke="#6666ff" d="M1042.56,-1515.76C1006.54,-1451.25 884.77,-1233.16 841.75,-1156.12"/>
<polygon fill="#6666ff" stroke="#6666ff" points="844.61,-1154.06 836.68,-1147.03 838.5,-1157.47 844.61,-1154.06"/>
</g>
<!-- Metamodel::PackageHOW&#45;&gt;Metamodel::MethodDelegation -->
<g id="edge56" class="edge">
<title>Metamodel::PackageHOW&#45;&gt;Metamodel::MethodDelegation</title>
<path fill="none" stroke="#6666ff" d="M1049.49,-1551.96C1038.01,-1616.16 999.03,-1834.13 985.02,-1912.51"/>
<polygon fill="#6666ff" stroke="#6666ff" points="981.53,-1912.16 983.21,-1922.62 988.42,-1913.39 981.53,-1912.16"/>
</g>
<!-- Metamodel::Finalization -->
<g id="node29" class="node">
<title>Metamodel::Finalization</title>
<g id="a_node29"><a xlink:href="/type/Metamodel::Finalization" xlink:title="Metamodel::Finalization">
<ellipse fill="none" stroke="#6666ff" cx="822.99" cy="-18" rx="103.98" ry="18"/>
<text text-anchor="middle" x="822.99" y="-14.3" font-family="FreeSans" font-size="14.00" fill="#6666ff">Metamodel::Finalization</text>
</a>
</g>
</g>
<!-- Metamodel::DefaultParent -->
<g id="node30" class="node">
<title>Metamodel::DefaultParent</title>
<g id="a_node30"><a xlink:href="/type/Metamodel::DefaultParent" xlink:title="Metamodel::DefaultParent">
<ellipse fill="none" stroke="#6666ff" cx="1540.63" cy="-267.81" rx="113.18" ry="18"/>
<text text-anchor="middle" x="1540.63" y="-264.11" font-family="FreeSans" font-size="14.00" fill="#6666ff">Metamodel::DefaultParent</text>
</a>
</g>
</g>
<!-- Metamodel::Trusting -->
<g id="node31" class="node">
<title>Metamodel::Trusting</title>
<g id="a_node31"><a xlink:href="/type/Metamodel::Trusting" xlink:title="Metamodel::Trusting">
<ellipse fill="none" stroke="#6666ff" cx="1597.1" cy="-602.31" rx="91.78" ry="18"/>
<text text-anchor="middle" x="1597.1" y="-598.61" font-family="FreeSans" font-size="14.00" fill="#6666ff">Metamodel::Trusting</text>
</a>
</g>
</g>
<!-- Metamodel::ClassHOW -->
<g id="node32" class="node">
<title>Metamodel::ClassHOW</title>
<g id="a_node32"><a xlink:href="/type/Metamodel::ClassHOW" xlink:title="Metamodel::ClassHOW">
<ellipse fill="none" stroke="#000000" cx="1029.62" cy="-597.91" rx="103.18" ry="18"/>
<text text-anchor="middle" x="1029.62" y="-594.21" font-family="FreeSans" font-size="14.00" fill="#000000">Metamodel::ClassHOW</text>
</a>
</g>
</g>
<!-- Metamodel::ClassHOW&#45;&gt;Metamodel::Stashing -->
<g id="edge60" class="edge">
<title>Metamodel::ClassHOW&#45;&gt;Metamodel::Stashing</title>
<path fill="none" stroke="#6666ff" d="M1026.28,-615.94C1013.53,-684.84 967.83,-931.8 952.32,-1015.66"/>
<polygon fill="#6666ff" stroke="#6666ff" points="948.87,-1015.03 950.49,-1025.5 955.76,-1016.3 948.87,-1015.03"/>
</g>
<!-- Metamodel::ClassHOW&#45;&gt;Any -->
<g id="edge8" class="edge">
<title>Metamodel::ClassHOW&#45;&gt;Any</title>
<path fill="none" stroke="#000000" d="M1029.67,-616.1C1029.81,-669.16 1030.21,-820.11 1030.21,-820.11 1030.21,-820.11 1118.2,-1027.05 1150.1,-1102.08"/>
<polygon fill="#000000" stroke="#000000" points="1146.91,-1103.52 1154.05,-1111.36 1153.36,-1100.79 1146.91,-1103.52"/>
</g>
<!-- Metamodel::ClassHOW&#45;&gt;Metamodel::Naming -->
<g id="edge57" class="edge">
<title>Metamodel::ClassHOW&#45;&gt;Metamodel::Naming</title>
<path fill="none" stroke="#6666ff" d="M1029.67,-616.1C1029.81,-669.16 1030.21,-820.11 1030.21,-820.11 1030.21,-820.11 1042.31,-1043.79 1042.31,-1043.79 1042.31,-1043.79 1041.28,-1051.03 1040.05,-1059.64"/>
<polygon fill="#6666ff" stroke="#6666ff" points="1036.58,-1059.23 1038.63,-1069.63 1043.51,-1060.22 1036.58,-1059.23"/>
</g>
<!-- Metamodel::ClassHOW&#45;&gt;Metamodel::BoolificationProtocol -->
<g id="edge75" class="edge">
<title>Metamodel::ClassHOW&#45;&gt;Metamodel::BoolificationProtocol</title>
<path fill="none" stroke="#6666ff" d="M1001.17,-615.23C946.38,-648.6 826.21,-721.77 764.87,-759.12"/>
<polygon fill="#6666ff" stroke="#6666ff" points="762.98,-756.17 756.26,-764.36 766.62,-762.15 762.98,-756.17"/>
</g>
<!-- Metamodel::ClassHOW&#45;&gt;Metamodel::AttributeContainer -->
<g id="edge61" class="edge">
<title>Metamodel::ClassHOW&#45;&gt;Metamodel::AttributeContainer</title>
<path fill="none" stroke="#6666ff" d="M992.81,-580.99C911.46,-543.6 716.47,-453.96 626.63,-412.66"/>
<polygon fill="#6666ff" stroke="#6666ff" points="628.05,-409.46 617.5,-408.47 625.13,-415.82 628.05,-409.46"/>
</g>
<!-- Metamodel::ClassHOW&#45;&gt;Metamodel::MethodContainer -->
<g id="edge63" class="edge">
<title>Metamodel::ClassHOW&#45;&gt;Metamodel::MethodContainer</title>
<path fill="none" stroke="#6666ff" d="M1021.08,-579.92C1003.86,-543.65 964.88,-461.51 944.48,-418.53"/>
<polygon fill="#6666ff" stroke="#6666ff" points="947.51,-416.77 940.07,-409.23 941.19,-419.77 947.51,-416.77"/>
</g>
<!-- Metamodel::ClassHOW&#45;&gt;Metamodel::MultiMethodContainer -->
<g id="edge65" class="edge">
<title>Metamodel::ClassHOW&#45;&gt;Metamodel::MultiMethodContainer</title>
<path fill="none" stroke="#6666ff" d="M1009.47,-579.88C960.19,-535.78 833.53,-422.41 777.18,-371.98"/>
<polygon fill="#6666ff" stroke="#6666ff" points="779.18,-369.07 769.39,-365.01 774.51,-374.28 779.18,-369.07"/>
</g>
<!-- Metamodel::ClassHOW&#45;&gt;Metamodel::RoleContainer -->
<g id="edge66" class="edge">
<title>Metamodel::ClassHOW&#45;&gt;Metamodel::RoleContainer</title>
<path fill="none" stroke="#6666ff" d="M950.01,-586.38C901.63,-579.38 839.57,-570.39 788.64,-563.01"/>
<polygon fill="#6666ff" stroke="#6666ff" points="789,-559.53 778.61,-561.56 788,-566.46 789,-559.53"/>
</g>
<!-- Metamodel::ClassHOW&#45;&gt;Metamodel::MROBasedMethodDispatch -->
<g id="edge70" class="edge">
<title>Metamodel::ClassHOW&#45;&gt;Metamodel::MROBasedMethodDispatch</title>
<path fill="none" stroke="#6666ff" d="M1096.62,-584.05C1168.57,-569.17 1283.17,-545.46 1362.15,-529.12"/>
<polygon fill="#6666ff" stroke="#6666ff" points="1363,-532.52 1372.08,-527.06 1361.58,-525.66 1363,-532.52"/>
</g>
<!-- Metamodel::ClassHOW&#45;&gt;Metamodel::MROBasedTypeChecking -->
<g id="edge71" class="edge">
<title>Metamodel::ClassHOW&#45;&gt;Metamodel::MROBasedTypeChecking</title>
<path fill="none" stroke="#6666ff" d="M1042.4,-615.86C1052.55,-630.1 1065.04,-647.63 1065.04,-647.63 1065.04,-647.63 1095.44,-661.54 1095.44,-661.54 1095.44,-661.54 1329.86,-758.14 1436.48,-802.08"/>
<polygon fill="#6666ff" stroke="#6666ff" points="1435.2,-805.33 1445.78,-805.91 1437.87,-798.86 1435.2,-805.33"/>
</g>
<!-- Metamodel::ClassHOW&#45;&gt;Metamodel::BUILDPLAN -->
<g id="edge73" class="edge">
<title>Metamodel::ClassHOW&#45;&gt;Metamodel::BUILDPLAN</title>
<path fill="none" stroke="#6666ff" d="M1044.27,-579.82C1090.66,-522.55 1234.39,-345.11 1288.58,-278.22"/>
<polygon fill="#6666ff" stroke="#6666ff" points="1291.45,-280.23 1295.03,-270.26 1286.01,-275.83 1291.45,-280.23"/>
</g>
<!-- Metamodel::ClassHOW&#45;&gt;Metamodel::Mixins -->
<g id="edge74" class="edge">
<title>Metamodel::ClassHOW&#45;&gt;Metamodel::Mixins</title>
<path fill="none" stroke="#6666ff" d="M1037.91,-579.9C1070.38,-509.36 1189.07,-251.55 1228.39,-166.14"/>
<polygon fill="#6666ff" stroke="#6666ff" points="1231.68,-167.37 1232.68,-156.82 1225.32,-164.44 1231.68,-167.37"/>
</g>
<!-- Metamodel::ClassHOW&#45;&gt;Metamodel::Documenting -->
<g id="edge58" class="edge">
<title>Metamodel::ClassHOW&#45;&gt;Metamodel::Documenting</title>
<path fill="none" stroke="#6666ff" d="M1022.43,-615.94C989.19,-699.34 851.93,-1043.71 851.93,-1043.71 851.93,-1043.71 842.23,-1076.24 834.83,-1101.09"/>
<polygon fill="#6666ff" stroke="#6666ff" points="831.43,-1100.24 831.93,-1110.82 838.14,-1102.24 831.43,-1100.24"/>
</g>
<!-- Metamodel::ClassHOW&#45;&gt;Metamodel::Versioning -->
<g id="edge59" class="edge">
<title>Metamodel::ClassHOW&#45;&gt;Metamodel::Versioning</title>
<path fill="none" stroke="#6666ff" d="M1016.78,-615.87C969.57,-681.92 805.42,-911.55 749.6,-989.64"/>
<polygon fill="#6666ff" stroke="#6666ff" points="746.61,-987.81 743.64,-997.98 752.3,-991.88 746.61,-987.81"/>
</g>
<!-- Metamodel::ClassHOW&#45;&gt;Metamodel::PrivateMethodContainer -->
<g id="edge64" class="edge">
<title>Metamodel::ClassHOW&#45;&gt;Metamodel::PrivateMethodContainer</title>
<path fill="none" stroke="#6666ff" d="M969.85,-583.13C895.26,-564.68 777.41,-535.53 777.41,-535.53 777.41,-535.53 585.56,-497.58 468.37,-474.39"/>
<polygon fill="#6666ff" stroke="#6666ff" points="468.81,-470.91 458.32,-472.41 467.45,-477.78 468.81,-470.91"/>
</g>
<!-- Metamodel::ClassHOW&#45;&gt;Metamodel::MultipleInheritance -->
<g id="edge67" class="edge">
<title>Metamodel::ClassHOW&#45;&gt;Metamodel::MultipleInheritance</title>
<path fill="none" stroke="#6666ff" d="M927.86,-601.27C845.48,-603.99 728.57,-607.84 637.3,-610.85"/>
<polygon fill="#6666ff" stroke="#6666ff" points="637.03,-607.36 627.15,-611.19 637.26,-614.36 637.03,-607.36"/>
</g>
<!-- Metamodel::ClassHOW&#45;&gt;Metamodel::C3MRO -->
<g id="edge69" class="edge">
<title>Metamodel::ClassHOW&#45;&gt;Metamodel::C3MRO</title>
<path fill="none" stroke="#6666ff" d="M1032.35,-579.57C1039.9,-528.99 1060.46,-391.25 1060.46,-391.25 1060.46,-391.25 1057.49,-253.69 1056.18,-193"/>
<polygon fill="#6666ff" stroke="#6666ff" points="1059.68,-192.87 1055.97,-182.94 1052.68,-193.02 1059.68,-192.87"/>
</g>
<!-- Metamodel::ClassHOW&#45;&gt;Metamodel::Finalization -->
<g id="edge62" class="edge">
<title>Metamodel::ClassHOW&#45;&gt;Metamodel::Finalization</title>
<path fill="none" stroke="#6666ff" d="M1032.35,-579.57C1039.9,-528.99 1060.46,-391.25 1060.46,-391.25 1060.46,-391.25 894.22,-129.95 839.92,-44.61"/>
<polygon fill="#6666ff" stroke="#6666ff" points="842.77,-42.56 834.44,-36 836.86,-46.32 842.77,-42.56"/>
</g>
<!-- Metamodel::ClassHOW&#45;&gt;Metamodel::DefaultParent -->
<g id="edge68" class="edge">
<title>Metamodel::ClassHOW&#45;&gt;Metamodel::DefaultParent</title>
<path fill="none" stroke="#6666ff" d="M1056.73,-580.4C1142.47,-525.01 1407.77,-353.64 1504.7,-291.03"/>
<polygon fill="#6666ff" stroke="#6666ff" points="1506.77,-293.85 1513.28,-285.49 1502.98,-287.97 1506.77,-293.85"/>
</g>
<!-- Metamodel::ClassHOW&#45;&gt;Metamodel::Trusting -->
<g id="edge72" class="edge">
<title>Metamodel::ClassHOW&#45;&gt;Metamodel::Trusting</title>
<path fill="none" stroke="#6666ff" d="M1133.04,-598.71C1235.91,-599.51 1392.78,-600.73 1495.13,-601.52"/>
<polygon fill="#6666ff" stroke="#6666ff" points="1495.15,-605.02 1505.17,-601.6 1495.2,-598.02 1495.15,-605.02"/>
</g>
</g>
</svg>
