<?xml version="1.0" encoding="UTF-8" standalone="no"?>
<!DOCTYPE svg PUBLIC "-//W3C//DTD SVG 1.1//EN"
 "http://www.w3.org/Graphics/SVG/1.1/DTD/svg11.dtd">
<!-- Generated by graphviz version 2.43.0 (0)
 -->
<!-- Title: perl6&#45;type&#45;graph Pages: 1 -->
<svg width="285pt" height="404pt"
 viewBox="0.00 0.00 285.29 404.00" xmlns="http://www.w3.org/2000/svg" xmlns:xlink="http://www.w3.org/1999/xlink">
<g id="graph0" class="graph" transform="scale(1 1) rotate(0) translate(4 400)">
<title>perl6&#45;type&#45;graph</title>
<polygon fill="white" stroke="transparent" points="-4,4 -4,-400 281.29,-400 281.29,4 -4,4"/>
<!-- X::Syntax::Extension::Null -->
<g id="node1" class="node">
<title>X::Syntax::Extension::Null</title>
<g id="a_node1"><a xlink:href="/type/X::Syntax::Extension::Null" xlink:title="X::Syntax::Extension::Null">
<ellipse fill="none" stroke="#000000" cx="112.44" cy="-18" rx="112.38" ry="18"/>
<text text-anchor="middle" x="112.44" y="-14.3" font-family="FreeSans" font-size="14.00" fill="#000000">X::Syntax::Extension::Null</text>
</a>
</g>
</g>
<!-- Exception -->
<g id="node4" class="node">
<title>Exception</title>
<g id="a_node4"><a xlink:href="/type/Exception" xlink:title="Exception">
<ellipse fill="none" stroke="#000000" cx="135.44" cy="-234" rx="49.29" ry="18"/>
<text text-anchor="middle" x="135.44" y="-230.3" font-family="FreeSans" font-size="14.00" fill="#000000">Exception</text>
</a>
</g>
</g>
<!-- X::Syntax::Extension::Null&#45;&gt;Exception -->
<g id="edge1" class="edge">
<title>X::Syntax::Extension::Null&#45;&gt;Exception</title>
<path fill="none" stroke="#000000" d="M110.41,-36.15C110.85,-73.34 120.08,-161.63 127.91,-206.23"/>
<polygon fill="#000000" stroke="#000000" points="124.47,-206.88 129.76,-216.06 131.35,-205.59 124.47,-206.88"/>
</g>
<!-- X::Syntax::Extension::Null&#45;&gt;Exception -->
<g id="edge2" class="edge">
<title>X::Syntax::Extension::Null&#45;&gt;Exception</title>
<path fill="none" stroke="#000000" d="M118.16,-36.15C125.68,-73.17 135.37,-160.82 137.19,-205.61"/>
<polygon fill="#000000" stroke="#000000" points="133.69,-205.87 137.47,-215.77 140.69,-205.67 133.69,-205.87"/>
</g>
<!-- X::Syntax -->
<g id="node6" class="node">
<title>X::Syntax</title>
<g id="a_node6"><a xlink:href="/type/X::Syntax" xlink:title="X::Syntax">
<ellipse fill="none" stroke="#6666ff" cx="197.44" cy="-90" rx="48.19" ry="18"/>
<text text-anchor="middle" x="197.44" y="-86.3" font-family="FreeSans" font-size="14.00" fill="#6666ff">X::Syntax</text>
</a>
</g>
</g>
<!-- X::Syntax::Extension::Null&#45;&gt;X::Syntax -->
<g id="edge7" class="edge">
<title>X::Syntax::Extension::Null&#45;&gt;X::Syntax</title>
<path fill="none" stroke="#6666ff" d="M133.02,-35.95C144.27,-45.22 158.36,-56.81 170.48,-66.8"/>
<polygon fill="#6666ff" stroke="#6666ff" points="168.56,-69.75 178.51,-73.41 173.01,-64.35 168.56,-69.75"/>
</g>
<!-- Mu -->
<g id="node2" class="node">
<title>Mu</title>
<g id="a_node2"><a xlink:href="/type/Mu" xlink:title="Mu">
<ellipse fill="none" stroke="#000000" cx="135.44" cy="-378" rx="27" ry="18"/>
<text text-anchor="middle" x="135.44" y="-374.3" font-family="FreeSans" font-size="14.00" fill="#000000">Mu</text>
</a>
</g>
</g>
<!-- Any -->
<g id="node3" class="node">
<title>Any</title>
<g id="a_node3"><a xlink:href="/type/Any" xlink:title="Any">
<ellipse fill="none" stroke="#000000" cx="135.44" cy="-306" rx="27" ry="18"/>
<text text-anchor="middle" x="135.44" y="-302.3" font-family="FreeSans" font-size="14.00" fill="#000000">Any</text>
</a>
</g>
</g>
<!-- Any&#45;&gt;Mu -->
<g id="edge3" class="edge">
<title>Any&#45;&gt;Mu</title>
<path fill="none" stroke="#000000" d="M135.44,-324.3C135.44,-332.02 135.44,-341.29 135.44,-349.89"/>
<polygon fill="#000000" stroke="#000000" points="131.94,-349.9 135.44,-359.9 138.94,-349.9 131.94,-349.9"/>
</g>
<!-- Exception&#45;&gt;Any -->
<g id="edge4" class="edge">
<title>Exception&#45;&gt;Any</title>
<path fill="none" stroke="#000000" d="M135.44,-252.3C135.44,-260.02 135.44,-269.29 135.44,-277.89"/>
<polygon fill="#000000" stroke="#000000" points="131.94,-277.9 135.44,-287.9 138.94,-277.9 131.94,-277.9"/>
</g>
<!-- X::Comp -->
<g id="node5" class="node">
<title>X::Comp</title>
<g id="a_node5"><a xlink:href="/type/X::Comp" xlink:title="X::Comp">
<ellipse fill="none" stroke="#6666ff" cx="232.44" cy="-162" rx="44.69" ry="18"/>
<text text-anchor="middle" x="232.44" y="-158.3" font-family="FreeSans" font-size="14.00" fill="#6666ff">X::Comp</text>
</a>
</g>
</g>
<!-- X::Comp&#45;&gt;Exception -->
<g id="edge5" class="edge">
<title>X::Comp&#45;&gt;Exception</title>
<path fill="none" stroke="#000000" d="M211.39,-178.19C197.88,-187.94 180.14,-200.74 165.2,-211.52"/>
<polygon fill="#000000" stroke="#000000" points="162.84,-208.91 156.78,-217.6 166.94,-214.59 162.84,-208.91"/>
</g>
<!-- X::Syntax&#45;&gt;Exception -->
<g id="edge6" class="edge">
<title>X::Syntax&#45;&gt;Exception</title>
<path fill="none" stroke="#000000" d="M190.08,-107.85C179.41,-132.29 159.53,-177.83 146.92,-206.71"/>
<polygon fill="#000000" stroke="#000000" points="143.58,-205.61 142.79,-216.18 150,-208.41 143.58,-205.61"/>
</g>
<!-- X::Syntax&#45;&gt;X::Comp -->
<g id="edge8" class="edge">
<title>X::Syntax&#45;&gt;X::Comp</title>
<path fill="none" stroke="#6666ff" d="M205.91,-107.95C210,-116.11 214.98,-126.09 219.53,-135.18"/>
<polygon fill="#6666ff" stroke="#6666ff" points="216.44,-136.83 224.05,-144.21 222.7,-133.7 216.44,-136.83"/>
</g>
</g>
</svg>
