<?xml version="1.0" encoding="UTF-8" standalone="no"?>
<!DOCTYPE svg PUBLIC "-//W3C//DTD SVG 1.1//EN"
 "http://www.w3.org/Graphics/SVG/1.1/DTD/svg11.dtd">
<!-- Generated by graphviz version 2.43.0 (0)
 -->
<!-- Title: perl6&#45;type&#45;graph Pages: 1 -->
<svg width="261pt" height="332pt"
 viewBox="0.00 0.00 260.54 332.00" xmlns="http://www.w3.org/2000/svg" xmlns:xlink="http://www.w3.org/1999/xlink">
<g id="graph0" class="graph" transform="scale(1 1) rotate(0) translate(4 328)">
<title>perl6&#45;type&#45;graph</title>
<polygon fill="white" stroke="transparent" points="-4,4 -4,-328 256.54,-328 256.54,4 -4,4"/>
<!-- IntStr -->
<g id="node1" class="node">
<title>IntStr</title>
<g id="a_node1"><a xlink:href="/type/IntStr" xlink:title="IntStr">
<ellipse fill="none" stroke="#000000" cx="129.2" cy="-18" rx="31.7" ry="18"/>
<text text-anchor="middle" x="129.2" y="-14.3" font-family="FreeSans" font-size="14.00" fill="#000000">IntStr</text>
</a>
</g>
</g>
<!-- Int -->
<g id="node7" class="node">
<title>Int</title>
<g id="a_node7"><a xlink:href="/type/Int" xlink:title="Int">
<ellipse fill="none" stroke="#000000" cx="93.2" cy="-90" rx="27" ry="18"/>
<text text-anchor="middle" x="93.2" y="-86.3" font-family="FreeSans" font-size="14.00" fill="#000000">Int</text>
</a>
</g>
</g>
<!-- IntStr&#45;&gt;Int -->
<g id="edge1" class="edge">
<title>IntStr&#45;&gt;Int</title>
<path fill="none" stroke="#000000" d="M120.66,-35.59C116.36,-43.96 111.05,-54.29 106.24,-63.63"/>
<polygon fill="#000000" stroke="#000000" points="103.13,-62.04 101.67,-72.53 109.35,-65.24 103.13,-62.04"/>
</g>
<!-- Str -->
<g id="node9" class="node">
<title>Str</title>
<g id="a_node9"><a xlink:href="/type/Str" xlink:title="Str">
<ellipse fill="none" stroke="#000000" cx="165.2" cy="-90" rx="27" ry="18"/>
<text text-anchor="middle" x="165.2" y="-86.3" font-family="FreeSans" font-size="14.00" fill="#000000">Str</text>
</a>
</g>
</g>
<!-- IntStr&#45;&gt;Str -->
<g id="edge2" class="edge">
<title>IntStr&#45;&gt;Str</title>
<path fill="none" stroke="#000000" d="M137.73,-35.59C142.03,-43.96 147.35,-54.29 152.15,-63.63"/>
<polygon fill="#000000" stroke="#000000" points="149.04,-65.24 156.73,-72.53 155.26,-62.04 149.04,-65.24"/>
</g>
<!-- Mu -->
<g id="node2" class="node">
<title>Mu</title>
<g id="a_node2"><a xlink:href="/type/Mu" xlink:title="Mu">
<ellipse fill="none" stroke="#000000" cx="133.2" cy="-306" rx="27" ry="18"/>
<text text-anchor="middle" x="133.2" y="-302.3" font-family="FreeSans" font-size="14.00" fill="#000000">Mu</text>
</a>
</g>
</g>
<!-- Any -->
<g id="node3" class="node">
<title>Any</title>
<g id="a_node3"><a xlink:href="/type/Any" xlink:title="Any">
<ellipse fill="none" stroke="#000000" cx="133.2" cy="-234" rx="27" ry="18"/>
<text text-anchor="middle" x="133.2" y="-230.3" font-family="FreeSans" font-size="14.00" fill="#000000">Any</text>
</a>
</g>
</g>
<!-- Any&#45;&gt;Mu -->
<g id="edge3" class="edge">
<title>Any&#45;&gt;Mu</title>
<path fill="none" stroke="#000000" d="M133.2,-252.3C133.2,-260.02 133.2,-269.29 133.2,-277.89"/>
<polygon fill="#000000" stroke="#000000" points="129.7,-277.9 133.2,-287.9 136.7,-277.9 129.7,-277.9"/>
</g>
<!-- Cool -->
<g id="node4" class="node">
<title>Cool</title>
<g id="a_node4"><a xlink:href="/type/Cool" xlink:title="Cool">
<ellipse fill="none" stroke="#000000" cx="129.2" cy="-162" rx="28.7" ry="18"/>
<text text-anchor="middle" x="129.2" y="-158.3" font-family="FreeSans" font-size="14.00" fill="#000000">Cool</text>
</a>
</g>
</g>
<!-- Cool&#45;&gt;Any -->
<g id="edge4" class="edge">
<title>Cool&#45;&gt;Any</title>
<path fill="none" stroke="#000000" d="M130.18,-180.3C130.63,-188.02 131.16,-197.29 131.65,-205.89"/>
<polygon fill="#000000" stroke="#000000" points="128.15,-206.11 132.22,-215.9 135.14,-205.71 128.15,-206.11"/>
</g>
<!-- Numeric -->
<g id="node5" class="node">
<title>Numeric</title>
<g id="a_node5"><a xlink:href="/type/Numeric" xlink:title="Numeric">
<ellipse fill="none" stroke="#6666ff" cx="44.2" cy="-234" rx="44.39" ry="18"/>
<text text-anchor="middle" x="44.2" y="-230.3" font-family="FreeSans" font-size="14.00" fill="#6666ff">Numeric</text>
</a>
</g>
</g>
<!-- Real -->
<g id="node6" class="node">
<title>Real</title>
<g id="a_node6"><a xlink:href="/type/Real" xlink:title="Real">
<ellipse fill="none" stroke="#6666ff" cx="51.2" cy="-162" rx="28.7" ry="18"/>
<text text-anchor="middle" x="51.2" y="-158.3" font-family="FreeSans" font-size="14.00" fill="#6666ff">Real</text>
</a>
</g>
</g>
<!-- Real&#45;&gt;Numeric -->
<g id="edge7" class="edge">
<title>Real&#45;&gt;Numeric</title>
<path fill="none" stroke="#6666ff" d="M49.47,-180.3C48.69,-188.02 47.77,-197.29 46.91,-205.89"/>
<polygon fill="#6666ff" stroke="#6666ff" points="43.42,-205.6 45.91,-215.9 50.38,-206.29 43.42,-205.6"/>
</g>
<!-- Int&#45;&gt;Cool -->
<g id="edge5" class="edge">
<title>Int&#45;&gt;Cool</title>
<path fill="none" stroke="#000000" d="M101.55,-107.24C105.85,-115.6 111.19,-125.98 116.03,-135.39"/>
<polygon fill="#000000" stroke="#000000" points="112.96,-137.07 120.64,-144.37 119.18,-133.87 112.96,-137.07"/>
</g>
<!-- Int&#45;&gt;Real -->
<g id="edge8" class="edge">
<title>Int&#45;&gt;Real</title>
<path fill="none" stroke="#6666ff" d="M83.67,-106.88C78.53,-115.44 72.07,-126.2 66.28,-135.87"/>
<polygon fill="#6666ff" stroke="#6666ff" points="63.12,-134.32 60.98,-144.69 69.13,-137.92 63.12,-134.32"/>
</g>
<!-- Stringy -->
<g id="node8" class="node">
<title>Stringy</title>
<g id="a_node8"><a xlink:href="/type/Stringy" xlink:title="Stringy">
<ellipse fill="none" stroke="#6666ff" cx="214.2" cy="-162" rx="38.19" ry="18"/>
<text text-anchor="middle" x="214.2" y="-158.3" font-family="FreeSans" font-size="14.00" fill="#6666ff">Stringy</text>
</a>
</g>
</g>
<!-- Str&#45;&gt;Cool -->
<g id="edge6" class="edge">
<title>Str&#45;&gt;Cool</title>
<path fill="none" stroke="#000000" d="M156.85,-107.24C152.55,-115.6 147.2,-125.98 142.36,-135.39"/>
<polygon fill="#000000" stroke="#000000" points="139.21,-133.87 137.75,-144.37 145.44,-137.07 139.21,-133.87"/>
</g>
<!-- Str&#45;&gt;Stringy -->
<g id="edge9" class="edge">
<title>Str&#45;&gt;Stringy</title>
<path fill="none" stroke="#6666ff" d="M176.07,-106.54C182.18,-115.26 189.94,-126.35 196.86,-136.24"/>
<polygon fill="#6666ff" stroke="#6666ff" points="194.07,-138.35 202.67,-144.53 199.8,-134.33 194.07,-138.35"/>
</g>
</g>
</svg>
