<?xml version="1.0" encoding="UTF-8" standalone="no"?>
<!DOCTYPE svg PUBLIC "-//W3C//DTD SVG 1.1//EN"
 "http://www.w3.org/Graphics/SVG/1.1/DTD/svg11.dtd">
<!-- Generated by graphviz version 2.43.0 (0)
 -->
<!-- Title: perl6&#45;type&#45;graph Pages: 1 -->
<svg width="254pt" height="260pt"
 viewBox="0.00 0.00 253.99 260.00" xmlns="http://www.w3.org/2000/svg" xmlns:xlink="http://www.w3.org/1999/xlink">
<g id="graph0" class="graph" transform="scale(1 1) rotate(0) translate(4 256)">
<title>perl6&#45;type&#45;graph</title>
<polygon fill="white" stroke="transparent" points="-4,4 -4,-256 249.99,-256 249.99,4 -4,4"/>
<!-- Systemic -->
<g id="node1" class="node">
<title>Systemic</title>
<g id="a_node1"><a xlink:href="/type/Systemic" xlink:title="Systemic">
<ellipse fill="none" stroke="#6666ff" cx="69.85" cy="-162" rx="46.29" ry="18"/>
<text text-anchor="middle" x="69.85" y="-158.3" font-family="FreeSans" font-size="14.00" fill="#6666ff">Systemic</text>
</a>
</g>
</g>
<!-- Mu -->
<g id="node2" class="node">
<title>Mu</title>
<g id="a_node2"><a xlink:href="/type/Mu" xlink:title="Mu">
<ellipse fill="none" stroke="#000000" cx="160.85" cy="-234" rx="27" ry="18"/>
<text text-anchor="middle" x="160.85" y="-230.3" font-family="FreeSans" font-size="14.00" fill="#000000">Mu</text>
</a>
</g>
</g>
<!-- Any -->
<g id="node3" class="node">
<title>Any</title>
<g id="a_node3"><a xlink:href="/type/Any" xlink:title="Any">
<ellipse fill="none" stroke="#000000" cx="160.85" cy="-162" rx="27" ry="18"/>
<text text-anchor="middle" x="160.85" y="-158.3" font-family="FreeSans" font-size="14.00" fill="#000000">Any</text>
</a>
</g>
</g>
<!-- Any&#45;&gt;Mu -->
<g id="edge1" class="edge">
<title>Any&#45;&gt;Mu</title>
<path fill="none" stroke="#000000" d="M160.85,-180.3C160.85,-188.02 160.85,-197.29 160.85,-205.89"/>
<polygon fill="#000000" stroke="#000000" points="157.35,-205.9 160.85,-215.9 164.35,-205.9 157.35,-205.9"/>
</g>
<!-- Raku -->
<g id="node4" class="node">
<title>Raku</title>
<g id="a_node4"><a xlink:href="/type/Raku" xlink:title="Raku">
<ellipse fill="none" stroke="#000000" cx="31.85" cy="-90" rx="31.7" ry="18"/>
<text text-anchor="middle" x="31.85" y="-86.3" font-family="FreeSans" font-size="14.00" fill="#000000">Raku</text>
</a>
</g>
</g>
<!-- Raku&#45;&gt;Systemic -->
<g id="edge6" class="edge">
<title>Raku&#45;&gt;Systemic</title>
<path fill="none" stroke="#6666ff" d="M40.85,-107.59C45.33,-115.84 50.84,-125.99 55.85,-135.22"/>
<polygon fill="#6666ff" stroke="#6666ff" points="52.8,-136.93 60.64,-144.04 58.95,-133.59 52.8,-136.93"/>
</g>
<!-- Raku&#45;&gt;Any -->
<g id="edge2" class="edge">
<title>Raku&#45;&gt;Any</title>
<path fill="none" stroke="#000000" d="M54.02,-103.03C75.52,-114.7 108.24,-132.45 131.8,-145.24"/>
<polygon fill="#000000" stroke="#000000" points="130.2,-148.35 140.66,-150.04 133.54,-142.2 130.2,-148.35"/>
</g>
<!-- VM -->
<g id="node5" class="node">
<title>VM</title>
<g id="a_node5"><a xlink:href="/type/VM" xlink:title="VM">
<ellipse fill="none" stroke="#000000" cx="108.85" cy="-90" rx="27" ry="18"/>
<text text-anchor="middle" x="108.85" y="-86.3" font-family="FreeSans" font-size="14.00" fill="#000000">VM</text>
</a>
</g>
</g>
<!-- VM&#45;&gt;Systemic -->
<g id="edge7" class="edge">
<title>VM&#45;&gt;Systemic</title>
<path fill="none" stroke="#6666ff" d="M99.8,-107.24C95.14,-115.6 89.36,-125.98 84.11,-135.39"/>
<polygon fill="#6666ff" stroke="#6666ff" points="80.92,-133.93 79.11,-144.37 87.04,-137.33 80.92,-133.93"/>
</g>
<!-- VM&#45;&gt;Any -->
<g id="edge3" class="edge">
<title>VM&#45;&gt;Any</title>
<path fill="none" stroke="#000000" d="M120.39,-106.54C127.12,-115.6 135.75,-127.21 143.31,-137.39"/>
<polygon fill="#000000" stroke="#000000" points="140.57,-139.57 149.34,-145.51 146.19,-135.39 140.57,-139.57"/>
</g>
<!-- Compiler -->
<g id="node6" class="node">
<title>Compiler</title>
<g id="a_node6"><a xlink:href="/type/Compiler" xlink:title="Compiler">
<ellipse fill="none" stroke="#000000" cx="199.85" cy="-90" rx="46.29" ry="18"/>
<text text-anchor="middle" x="199.85" y="-86.3" font-family="FreeSans" font-size="14.00" fill="#000000">Compiler</text>
</a>
</g>
</g>
<!-- Compiler&#45;&gt;Systemic -->
<g id="edge8" class="edge">
<title>Compiler&#45;&gt;Systemic</title>
<path fill="none" stroke="#6666ff" d="M173.85,-105C154.01,-115.68 126.48,-130.51 104.73,-142.22"/>
<polygon fill="#6666ff" stroke="#6666ff" points="102.94,-139.2 95.8,-147.03 106.26,-145.37 102.94,-139.2"/>
</g>
<!-- Compiler&#45;&gt;Any -->
<g id="edge4" class="edge">
<title>Compiler&#45;&gt;Any</title>
<path fill="none" stroke="#000000" d="M190.41,-107.95C185.74,-116.32 180.02,-126.6 174.85,-135.87"/>
<polygon fill="#000000" stroke="#000000" points="171.74,-134.25 169.93,-144.69 177.86,-137.66 171.74,-134.25"/>
</g>
<!-- Perl -->
<g id="node7" class="node">
<title>Perl</title>
<g id="a_node7"><a xlink:href="/type/Perl" xlink:title="Perl">
<ellipse fill="none" stroke="#000000" cx="31.85" cy="-18" rx="27" ry="18"/>
<text text-anchor="middle" x="31.85" y="-14.3" font-family="FreeSans" font-size="14.00" fill="#000000">Perl</text>
</a>
</g>
</g>
<!-- Perl&#45;&gt;Raku -->
<g id="edge5" class="edge">
<title>Perl&#45;&gt;Raku</title>
<path fill="none" stroke="#000000" d="M31.85,-36.3C31.85,-44.02 31.85,-53.29 31.85,-61.89"/>
<polygon fill="#000000" stroke="#000000" points="28.35,-61.9 31.85,-71.9 35.35,-61.9 28.35,-61.9"/>
</g>
</g>
</svg>
