<?xml version="1.0" encoding="UTF-8" standalone="no"?>
<!DOCTYPE svg PUBLIC "-//W3C//DTD SVG 1.1//EN"
 "http://www.w3.org/Graphics/SVG/1.1/DTD/svg11.dtd">
<!-- Generated by graphviz version 2.43.0 (0)
 -->
<!-- Title: perl6&#45;type&#45;graph Pages: 1 -->
<svg width="1913pt" height="2075pt"
 viewBox="0.00 0.00 1913.07 2075.50" xmlns="http://www.w3.org/2000/svg" xmlns:xlink="http://www.w3.org/1999/xlink">
<g id="graph0" class="graph" transform="scale(1 1) rotate(0) translate(4 2071.5)">
<title>perl6&#45;type&#45;graph</title>
<polygon fill="white" stroke="transparent" points="-4,4 -4,-2071.5 1909.07,-2071.5 1909.07,4 -4,4"/>
<!-- Metamodel::BoolificationProtocol -->
<g id="node1" class="node">
<title>Metamodel::BoolificationProtocol</title>
<g id="a_node1"><a xlink:href="/type/Metamodel::BoolificationProtocol" xlink:title="Metamodel::BoolificationProtocol">
<ellipse fill="none" stroke="#6666ff" cx="791.42" cy="-980.63" rx="139.18" ry="18"/>
<text text-anchor="middle" x="791.42" y="-976.93" font-family="FreeSans" font-size="14.00" fill="#6666ff">Metamodel::BoolificationProtocol</text>
</a>
</g>
</g>
<!-- Mu -->
<g id="node2" class="node">
<title>Mu</title>
<g id="a_node2"><a xlink:href="/type/Mu" xlink:title="Mu">
<ellipse fill="none" stroke="#000000" cx="1383.85" cy="-310.19" rx="27" ry="18"/>
<text text-anchor="middle" x="1383.85" y="-306.49" font-family="FreeSans" font-size="14.00" fill="#000000">Mu</text>
</a>
</g>
</g>
<!-- Any -->
<g id="node3" class="node">
<title>Any</title>
<g id="a_node3"><a xlink:href="/type/Any" xlink:title="Any">
<ellipse fill="none" stroke="#000000" cx="1119.38" cy="-781.91" rx="27" ry="18"/>
<text text-anchor="middle" x="1119.38" y="-778.21" font-family="FreeSans" font-size="14.00" fill="#000000">Any</text>
</a>
</g>
</g>
<!-- Any&#45;&gt;Mu -->
<g id="edge1" class="edge">
<title>Any&#45;&gt;Mu</title>
<path fill="none" stroke="#000000" d="M1128.95,-764.84C1168.76,-693.84 1321.41,-421.55 1369.36,-336.04"/>
<polygon fill="#000000" stroke="#000000" points="1372.46,-337.67 1374.3,-327.23 1366.35,-334.24 1372.46,-337.67"/>
</g>
<!-- Metamodel::Naming -->
<g id="node4" class="node">
<title>Metamodel::Naming</title>
<g id="a_node4"><a xlink:href="/type/Metamodel::Naming" xlink:title="Metamodel::Naming">
<ellipse fill="none" stroke="#6666ff" cx="668.6" cy="-1062.73" rx="90.18" ry="18"/>
<text text-anchor="middle" x="668.6" y="-1059.03" font-family="FreeSans" font-size="14.00" fill="#6666ff">Metamodel::Naming</text>
</a>
</g>
</g>
<!-- Metamodel::Stashing -->
<g id="node5" class="node">
<title>Metamodel::Stashing</title>
<g id="a_node5"><a xlink:href="/type/Metamodel::Stashing" xlink:title="Metamodel::Stashing">
<ellipse fill="none" stroke="#6666ff" cx="931.74" cy="-890.54" rx="93.68" ry="18"/>
<text text-anchor="middle" x="931.74" y="-886.84" font-family="FreeSans" font-size="14.00" fill="#6666ff">Metamodel::Stashing</text>
</a>
</g>
</g>
<!-- Metamodel::TypePretense -->
<g id="node6" class="node">
<title>Metamodel::TypePretense</title>
<g id="a_node6"><a xlink:href="/type/Metamodel::TypePretense" xlink:title="Metamodel::TypePretense">
<ellipse fill="none" stroke="#6666ff" cx="114.39" cy="-347.04" rx="114.28" ry="18"/>
<text text-anchor="middle" x="114.39" y="-343.34" font-family="FreeSans" font-size="14.00" fill="#6666ff">Metamodel::TypePretense</text>
</a>
</g>
</g>
<!-- Metamodel::RolePunning -->
<g id="node7" class="node">
<title>Metamodel::RolePunning</title>
<g id="a_node7"><a xlink:href="/type/Metamodel::RolePunning" xlink:title="Metamodel::RolePunning">
<ellipse fill="none" stroke="#6666ff" cx="573.29" cy="-18" rx="109.68" ry="18"/>
<text text-anchor="middle" x="573.29" y="-14.3" font-family="FreeSans" font-size="14.00" fill="#6666ff">Metamodel::RolePunning</text>
</a>
</g>
</g>
<!-- Metamodel::ParametricRoleGroupHOW -->
<g id="node8" class="node">
<title>Metamodel::ParametricRoleGroupHOW</title>
<g id="a_node8"><a xlink:href="/type/Metamodel::ParametricRoleGroupHOW" xlink:title="Metamodel::ParametricRoleGroupHOW">
<ellipse fill="none" stroke="#000000" cx="613.48" cy="-530.76" rx="166.27" ry="18"/>
<text text-anchor="middle" x="613.48" y="-527.06" font-family="FreeSans" font-size="14.00" fill="#000000">Metamodel::ParametricRoleGroupHOW</text>
</a>
</g>
</g>
<!-- Metamodel::ParametricRoleGroupHOW&#45;&gt;Metamodel::BoolificationProtocol -->
<g id="edge9" class="edge">
<title>Metamodel::ParametricRoleGroupHOW&#45;&gt;Metamodel::BoolificationProtocol</title>
<path fill="none" stroke="#6666ff" d="M620.68,-548.95C648.23,-618.62 747.15,-868.69 780.42,-952.8"/>
<polygon fill="#6666ff" stroke="#6666ff" points="777.21,-954.2 784.14,-962.21 783.72,-951.63 777.21,-954.2"/>
</g>
<!-- Metamodel::ParametricRoleGroupHOW&#45;&gt;Any -->
<g id="edge2" class="edge">
<title>Metamodel::ParametricRoleGroupHOW&#45;&gt;Any</title>
<path fill="none" stroke="#000000" d="M649.06,-548.42C743.56,-595.34 999.72,-722.51 1088.55,-766.61"/>
<polygon fill="#000000" stroke="#000000" points="1087.07,-769.78 1097.58,-771.09 1090.18,-763.51 1087.07,-769.78"/>
</g>
<!-- Metamodel::ParametricRoleGroupHOW&#45;&gt;Metamodel::Naming -->
<g id="edge5" class="edge">
<title>Metamodel::ParametricRoleGroupHOW&#45;&gt;Metamodel::Naming</title>
<path fill="none" stroke="#6666ff" d="M614.99,-548.95C621.96,-633.1 650.74,-980.56 650.74,-980.56 650.74,-980.56 657.29,-1010.7 662.46,-1034.48"/>
<polygon fill="#6666ff" stroke="#6666ff" points="659.09,-1035.47 664.64,-1044.5 665.93,-1033.98 659.09,-1035.47"/>
</g>
<!-- Metamodel::ParametricRoleGroupHOW&#45;&gt;Metamodel::Stashing -->
<g id="edge6" class="edge">
<title>Metamodel::ParametricRoleGroupHOW&#45;&gt;Metamodel::Stashing</title>
<path fill="none" stroke="#6666ff" d="M629.7,-549.1C682.29,-608.54 848.15,-796.05 909.04,-864.88"/>
<polygon fill="#6666ff" stroke="#6666ff" points="906.68,-867.5 915.93,-872.67 911.93,-862.86 906.68,-867.5"/>
</g>
<!-- Metamodel::ParametricRoleGroupHOW&#45;&gt;Metamodel::TypePretense -->
<g id="edge7" class="edge">
<title>Metamodel::ParametricRoleGroupHOW&#45;&gt;Metamodel::TypePretense</title>
<path fill="none" stroke="#6666ff" d="M566.53,-513.48C473.77,-479.33 267.48,-403.39 168.9,-367.1"/>
<polygon fill="#6666ff" stroke="#6666ff" points="170.01,-363.78 159.41,-363.61 167.59,-370.35 170.01,-363.78"/>
</g>
<!-- Metamodel::ParametricRoleGroupHOW&#45;&gt;Metamodel::RolePunning -->
<g id="edge8" class="edge">
<title>Metamodel::ParametricRoleGroupHOW&#45;&gt;Metamodel::RolePunning</title>
<path fill="none" stroke="#6666ff" d="M612.05,-512.51C606.04,-435.8 582.79,-139.18 575.5,-46.1"/>
<polygon fill="#6666ff" stroke="#6666ff" points="578.98,-45.73 574.71,-36.03 572,-46.27 578.98,-45.73"/>
</g>
<!-- Metamodel::AttributeContainer -->
<g id="node9" class="node">
<title>Metamodel::AttributeContainer</title>
<g id="a_node9"><a xlink:href="/type/Metamodel::AttributeContainer" xlink:title="Metamodel::AttributeContainer">
<ellipse fill="none" stroke="#6666ff" cx="763.37" cy="-1329.95" rx="129.98" ry="18"/>
<text text-anchor="middle" x="763.37" y="-1326.25" font-family="FreeSans" font-size="14.00" fill="#6666ff">Metamodel::AttributeContainer</text>
</a>
</g>
</g>
<!-- Metamodel::MethodContainer -->
<g id="node10" class="node">
<title>Metamodel::MethodContainer</title>
<g id="a_node10"><a xlink:href="/type/Metamodel::MethodContainer" xlink:title="Metamodel::MethodContainer">
<ellipse fill="none" stroke="#6666ff" cx="1646.56" cy="-1270.39" rx="127.28" ry="18"/>
<text text-anchor="middle" x="1646.56" y="-1266.69" font-family="FreeSans" font-size="14.00" fill="#6666ff">Metamodel::MethodContainer</text>
</a>
</g>
</g>
<!-- Metamodel::MultiMethodContainer -->
<g id="node11" class="node">
<title>Metamodel::MultiMethodContainer</title>
<g id="a_node11"><a xlink:href="/type/Metamodel::MultiMethodContainer" xlink:title="Metamodel::MultiMethodContainer">
<ellipse fill="none" stroke="#6666ff" cx="1073.61" cy="-1115.03" rx="146.47" ry="18"/>
<text text-anchor="middle" x="1073.61" y="-1111.33" font-family="FreeSans" font-size="14.00" fill="#6666ff">Metamodel::MultiMethodContainer</text>
</a>
</g>
</g>
<!-- Metamodel::RoleContainer -->
<g id="node12" class="node">
<title>Metamodel::RoleContainer</title>
<g id="a_node12"><a xlink:href="/type/Metamodel::RoleContainer" xlink:title="Metamodel::RoleContainer">
<ellipse fill="none" stroke="#6666ff" cx="863.37" cy="-1581.7" rx="115.88" ry="18"/>
<text text-anchor="middle" x="863.37" y="-1578" font-family="FreeSans" font-size="14.00" fill="#6666ff">Metamodel::RoleContainer</text>
</a>
</g>
</g>
<!-- Metamodel::BaseType -->
<g id="node13" class="node">
<title>Metamodel::BaseType</title>
<g id="a_node13"><a xlink:href="/type/Metamodel::BaseType" xlink:title="Metamodel::BaseType">
<ellipse fill="none" stroke="#6666ff" cx="1805.63" cy="-746.26" rx="99.38" ry="18"/>
<text text-anchor="middle" x="1805.63" y="-742.56" font-family="FreeSans" font-size="14.00" fill="#6666ff">Metamodel::BaseType</text>
</a>
</g>
</g>
<!-- Metamodel::MROBasedMethodDispatch -->
<g id="node14" class="node">
<title>Metamodel::MROBasedMethodDispatch</title>
<g id="a_node14"><a xlink:href="/type/Metamodel::MROBasedMethodDispatch" xlink:title="Metamodel::MROBasedMethodDispatch">
<ellipse fill="none" stroke="#6666ff" cx="1596.42" cy="-1701.01" rx="169.77" ry="18"/>
<text text-anchor="middle" x="1596.42" y="-1697.31" font-family="FreeSans" font-size="14.00" fill="#6666ff">Metamodel::MROBasedMethodDispatch</text>
</a>
</g>
</g>
<!-- Metamodel::MROBasedTypeChecking -->
<g id="node15" class="node">
<title>Metamodel::MROBasedTypeChecking</title>
<g id="a_node15"><a xlink:href="/type/Metamodel::MROBasedTypeChecking" xlink:title="Metamodel::MROBasedTypeChecking">
<ellipse fill="none" stroke="#6666ff" cx="1255.35" cy="-1670.75" rx="163.27" ry="18"/>
<text text-anchor="middle" x="1255.35" y="-1667.05" font-family="FreeSans" font-size="14.00" fill="#6666ff">Metamodel::MROBasedTypeChecking</text>
</a>
</g>
</g>
<!-- Metamodel::BUILDPLAN -->
<g id="node16" class="node">
<title>Metamodel::BUILDPLAN</title>
<g id="a_node16"><a xlink:href="/type/Metamodel::BUILDPLAN" xlink:title="Metamodel::BUILDPLAN">
<ellipse fill="none" stroke="#6666ff" cx="1633.29" cy="-1564.45" rx="109.68" ry="18"/>
<text text-anchor="middle" x="1633.29" y="-1560.75" font-family="FreeSans" font-size="14.00" fill="#6666ff">Metamodel::BUILDPLAN</text>
</a>
</g>
</g>
<!-- Metamodel::Mixins -->
<g id="node17" class="node">
<title>Metamodel::Mixins</title>
<g id="a_node17"><a xlink:href="/type/Metamodel::Mixins" xlink:title="Metamodel::Mixins">
<ellipse fill="none" stroke="#6666ff" cx="1693.26" cy="-1429.84" rx="85.29" ry="18"/>
<text text-anchor="middle" x="1693.26" y="-1426.14" font-family="FreeSans" font-size="14.00" fill="#6666ff">Metamodel::Mixins</text>
</a>
</g>
</g>
<!-- Metamodel::EnumHOW -->
<g id="node18" class="node">
<title>Metamodel::EnumHOW</title>
<g id="a_node18"><a xlink:href="/type/Metamodel::EnumHOW" xlink:title="Metamodel::EnumHOW">
<ellipse fill="none" stroke="#000000" cx="1332.55" cy="-1146.85" rx="104.78" ry="18"/>
<text text-anchor="middle" x="1332.55" y="-1143.15" font-family="FreeSans" font-size="14.00" fill="#000000">Metamodel::EnumHOW</text>
</a>
</g>
</g>
<!-- Metamodel::EnumHOW&#45;&gt;Metamodel::BoolificationProtocol -->
<g id="edge20" class="edge">
<title>Metamodel::EnumHOW&#45;&gt;Metamodel::BoolificationProtocol</title>
<path fill="none" stroke="#6666ff" d="M1281.16,-1131.06C1181.89,-1100.57 964.05,-1033.66 855.51,-1000.32"/>
<polygon fill="#6666ff" stroke="#6666ff" points="856.26,-996.89 845.67,-997.3 854.21,-1003.58 856.26,-996.89"/>
</g>
<!-- Metamodel::EnumHOW&#45;&gt;Any -->
<g id="edge3" class="edge">
<title>Metamodel::EnumHOW&#45;&gt;Any</title>
<path fill="none" stroke="#000000" d="M1321.98,-1128.75C1287.08,-1069 1175.42,-877.84 1134.55,-807.88"/>
<polygon fill="#000000" stroke="#000000" points="1137.34,-805.71 1129.27,-798.84 1131.29,-809.24 1137.34,-805.71"/>
</g>
<!-- Metamodel::EnumHOW&#45;&gt;Metamodel::Naming -->
<g id="edge10" class="edge">
<title>Metamodel::EnumHOW&#45;&gt;Metamodel::Naming</title>
<path fill="none" stroke="#6666ff" d="M1231.58,-1142.09C1158.79,-1138.66 1073.31,-1134.63 1073.31,-1134.63 1073.31,-1134.63 968.86,-1128.86 968.86,-1128.86 968.86,-1128.86 828.16,-1097.87 739.38,-1078.32"/>
<polygon fill="#6666ff" stroke="#6666ff" points="739.88,-1074.85 729.36,-1076.12 738.38,-1081.68 739.88,-1074.85"/>
</g>
<!-- Metamodel::EnumHOW&#45;&gt;Metamodel::Stashing -->
<g id="edge11" class="edge">
<title>Metamodel::EnumHOW&#45;&gt;Metamodel::Stashing</title>
<path fill="none" stroke="#6666ff" d="M1305.32,-1129.43C1234.83,-1084.35 1046.39,-963.86 967.38,-913.33"/>
<polygon fill="#6666ff" stroke="#6666ff" points="969.06,-910.25 958.75,-907.81 965.29,-916.15 969.06,-910.25"/>
</g>
<!-- Metamodel::EnumHOW&#45;&gt;Metamodel::AttributeContainer -->
<g id="edge12" class="edge">
<title>Metamodel::EnumHOW&#45;&gt;Metamodel::AttributeContainer</title>
<path fill="none" stroke="#6666ff" d="M1283.04,-1162.77C1178.97,-1196.25 937.81,-1273.83 824.39,-1310.32"/>
<polygon fill="#6666ff" stroke="#6666ff" points="823.26,-1307.01 814.81,-1313.4 825.4,-1313.67 823.26,-1307.01"/>
</g>
<!-- Metamodel::EnumHOW&#45;&gt;Metamodel::MethodContainer -->
<g id="edge13" class="edge">
<title>Metamodel::EnumHOW&#45;&gt;Metamodel::MethodContainer</title>
<path fill="none" stroke="#6666ff" d="M1374.58,-1163.38C1431.21,-1185.66 1532.02,-1225.33 1593.72,-1249.6"/>
<polygon fill="#6666ff" stroke="#6666ff" points="1592.69,-1252.96 1603.28,-1253.36 1595.26,-1246.45 1592.69,-1252.96"/>
</g>
<!-- Metamodel::EnumHOW&#45;&gt;Metamodel::MultiMethodContainer -->
<g id="edge14" class="edge">
<title>Metamodel::EnumHOW&#45;&gt;Metamodel::MultiMethodContainer</title>
<path fill="none" stroke="#6666ff" d="M1247.05,-1136.34C1228.02,-1134 1207.55,-1131.49 1187.58,-1129.03"/>
<polygon fill="#6666ff" stroke="#6666ff" points="1187.87,-1125.54 1177.52,-1127.8 1187.01,-1132.49 1187.87,-1125.54"/>
</g>
<!-- Metamodel::EnumHOW&#45;&gt;Metamodel::RoleContainer -->
<g id="edge15" class="edge">
<title>Metamodel::EnumHOW&#45;&gt;Metamodel::RoleContainer</title>
<path fill="none" stroke="#6666ff" d="M1311.3,-1164.63C1231.26,-1231.62 952.48,-1464.93 952.48,-1464.93 952.48,-1464.93 909.66,-1521.04 883.39,-1555.47"/>
<polygon fill="#6666ff" stroke="#6666ff" points="880.38,-1553.63 877.1,-1563.71 885.95,-1557.88 880.38,-1553.63"/>
</g>
<!-- Metamodel::EnumHOW&#45;&gt;Metamodel::BaseType -->
<g id="edge16" class="edge">
<title>Metamodel::EnumHOW&#45;&gt;Metamodel::BaseType</title>
<path fill="none" stroke="#6666ff" d="M1353.49,-1129.12C1429.36,-1064.88 1689.94,-844.23 1777.03,-770.48"/>
<polygon fill="#6666ff" stroke="#6666ff" points="1779.29,-773.15 1784.66,-764.02 1774.77,-767.81 1779.29,-773.15"/>
</g>
<!-- Metamodel::EnumHOW&#45;&gt;Metamodel::MROBasedMethodDispatch -->
<g id="edge17" class="edge">
<title>Metamodel::EnumHOW&#45;&gt;Metamodel::MROBasedMethodDispatch</title>
<path fill="none" stroke="#6666ff" d="M1340.81,-1165.05C1377.24,-1245.4 1521.85,-1564.32 1521.85,-1564.32 1521.85,-1564.32 1559.89,-1634.05 1581.63,-1673.9"/>
<polygon fill="#6666ff" stroke="#6666ff" points="1578.66,-1675.75 1586.52,-1682.86 1584.8,-1672.4 1578.66,-1675.75"/>
</g>
<!-- Metamodel::EnumHOW&#45;&gt;Metamodel::MROBasedTypeChecking -->
<g id="edge18" class="edge">
<title>Metamodel::EnumHOW&#45;&gt;Metamodel::MROBasedTypeChecking</title>
<path fill="none" stroke="#6666ff" d="M1329.9,-1164.88C1318.47,-1242.41 1273.47,-1547.73 1259.5,-1642.52"/>
<polygon fill="#6666ff" stroke="#6666ff" points="1256.03,-1642.11 1258.03,-1652.52 1262.95,-1643.13 1256.03,-1642.11"/>
</g>
<!-- Metamodel::EnumHOW&#45;&gt;Metamodel::BUILDPLAN -->
<g id="edge19" class="edge">
<title>Metamodel::EnumHOW&#45;&gt;Metamodel::BUILDPLAN</title>
<path fill="none" stroke="#6666ff" d="M1345.48,-1164.79C1393,-1230.78 1558.23,-1460.23 1614.42,-1538.25"/>
<polygon fill="#6666ff" stroke="#6666ff" points="1611.73,-1540.51 1620.41,-1546.57 1617.41,-1536.41 1611.73,-1540.51"/>
</g>
<!-- Metamodel::EnumHOW&#45;&gt;Metamodel::Mixins -->
<g id="edge21" class="edge">
<title>Metamodel::EnumHOW&#45;&gt;Metamodel::Mixins</title>
<path fill="none" stroke="#6666ff" d="M1355.12,-1164.55C1417.37,-1213.38 1591.59,-1350.07 1662.58,-1405.76"/>
<polygon fill="#6666ff" stroke="#6666ff" points="1660.68,-1408.72 1670.71,-1412.14 1665,-1403.22 1660.68,-1408.72"/>
</g>
<!-- Metamodel::Documenting -->
<g id="node19" class="node">
<title>Metamodel::Documenting</title>
<g id="a_node19"><a xlink:href="/type/Metamodel::Documenting" xlink:title="Metamodel::Documenting">
<ellipse fill="none" stroke="#6666ff" cx="482.96" cy="-1678.89" rx="111.28" ry="18"/>
<text text-anchor="middle" x="482.96" y="-1675.19" font-family="FreeSans" font-size="14.00" fill="#6666ff">Metamodel::Documenting</text>
</a>
</g>
</g>
<!-- Metamodel::Versioning -->
<g id="node20" class="node">
<title>Metamodel::Versioning</title>
<g id="a_node20"><a xlink:href="/type/Metamodel::Versioning" xlink:title="Metamodel::Versioning">
<ellipse fill="none" stroke="#6666ff" cx="769.38" cy="-1983.5" rx="100.98" ry="18"/>
<text text-anchor="middle" x="769.38" y="-1979.8" font-family="FreeSans" font-size="14.00" fill="#6666ff">Metamodel::Versioning</text>
</a>
</g>
</g>
<!-- Metamodel::Finalization -->
<g id="node21" class="node">
<title>Metamodel::Finalization</title>
<g id="a_node21"><a xlink:href="/type/Metamodel::Finalization" xlink:title="Metamodel::Finalization">
<ellipse fill="none" stroke="#6666ff" cx="607.31" cy="-1857.87" rx="103.98" ry="18"/>
<text text-anchor="middle" x="607.31" y="-1854.17" font-family="FreeSans" font-size="14.00" fill="#6666ff">Metamodel::Finalization</text>
</a>
</g>
</g>
<!-- Metamodel::PrivateMethodContainer -->
<g id="node22" class="node">
<title>Metamodel::PrivateMethodContainer</title>
<g id="a_node22"><a xlink:href="/type/Metamodel::PrivateMethodContainer" xlink:title="Metamodel::PrivateMethodContainer">
<ellipse fill="none" stroke="#6666ff" cx="432.69" cy="-1459.54" rx="154.87" ry="18"/>
<text text-anchor="middle" x="432.69" y="-1455.84" font-family="FreeSans" font-size="14.00" fill="#6666ff">Metamodel::PrivateMethodContainer</text>
</a>
</g>
</g>
<!-- Metamodel::MultipleInheritance -->
<g id="node23" class="node">
<title>Metamodel::MultipleInheritance</title>
<g id="a_node23"><a xlink:href="/type/Metamodel::MultipleInheritance" xlink:title="Metamodel::MultipleInheritance">
<ellipse fill="none" stroke="#6666ff" cx="1193.32" cy="-2049.5" rx="133.78" ry="18"/>
<text text-anchor="middle" x="1193.32" y="-2045.8" font-family="FreeSans" font-size="14.00" fill="#6666ff">Metamodel::MultipleInheritance</text>
</a>
</g>
</g>
<!-- Metamodel::DefaultParent -->
<g id="node24" class="node">
<title>Metamodel::DefaultParent</title>
<g id="a_node24"><a xlink:href="/type/Metamodel::DefaultParent" xlink:title="Metamodel::DefaultParent">
<ellipse fill="none" stroke="#6666ff" cx="1417.95" cy="-1994.29" rx="113.18" ry="18"/>
<text text-anchor="middle" x="1417.95" y="-1990.59" font-family="FreeSans" font-size="14.00" fill="#6666ff">Metamodel::DefaultParent</text>
</a>
</g>
</g>
<!-- Metamodel::C3MRO -->
<g id="node25" class="node">
<title>Metamodel::C3MRO</title>
<g id="a_node25"><a xlink:href="/type/Metamodel::C3MRO" xlink:title="Metamodel::C3MRO">
<ellipse fill="none" stroke="#6666ff" cx="959.13" cy="-2038.41" rx="92.08" ry="18"/>
<text text-anchor="middle" x="959.13" y="-2034.71" font-family="FreeSans" font-size="14.00" fill="#6666ff">Metamodel::C3MRO</text>
</a>
</g>
</g>
<!-- Metamodel::Trusting -->
<g id="node26" class="node">
<title>Metamodel::Trusting</title>
<g id="a_node26"><a xlink:href="/type/Metamodel::Trusting" xlink:title="Metamodel::Trusting">
<ellipse fill="none" stroke="#6666ff" cx="1538.22" cy="-1083.09" rx="91.78" ry="18"/>
<text text-anchor="middle" x="1538.22" y="-1079.39" font-family="FreeSans" font-size="14.00" fill="#6666ff">Metamodel::Trusting</text>
</a>
</g>
</g>
<!-- Metamodel::ClassHOW -->
<g id="node27" class="node">
<title>Metamodel::ClassHOW</title>
<g id="a_node27"><a xlink:href="/type/Metamodel::ClassHOW" xlink:title="Metamodel::ClassHOW">
<ellipse fill="none" stroke="#000000" cx="1057.42" cy="-1464.98" rx="103.18" ry="18"/>
<text text-anchor="middle" x="1057.42" y="-1461.28" font-family="FreeSans" font-size="14.00" fill="#000000">Metamodel::ClassHOW</text>
</a>
</g>
</g>
<!-- Metamodel::ClassHOW&#45;&gt;Metamodel::BoolificationProtocol -->
<g id="edge40" class="edge">
<title>Metamodel::ClassHOW&#45;&gt;Metamodel::BoolificationProtocol</title>
<path fill="none" stroke="#6666ff" d="M1047.48,-1446.88C1007.03,-1373.23 854.68,-1095.82 806.28,-1007.69"/>
<polygon fill="#6666ff" stroke="#6666ff" points="809.3,-1005.91 801.42,-998.83 803.16,-1009.28 809.3,-1005.91"/>
</g>
<!-- Metamodel::ClassHOW&#45;&gt;Any -->
<g id="edge4" class="edge">
<title>Metamodel::ClassHOW&#45;&gt;Any</title>
<path fill="none" stroke="#000000" d="M1066.01,-1446.66C1099.76,-1374.67 1221.45,-1115.07 1221.45,-1115.07 1221.45,-1115.07 1152.41,-889.71 1127.89,-809.69"/>
<polygon fill="#000000" stroke="#000000" points="1131.14,-808.36 1124.87,-799.82 1124.45,-810.41 1131.14,-808.36"/>
</g>
<!-- Metamodel::ClassHOW&#45;&gt;Metamodel::Naming -->
<g id="edge22" class="edge">
<title>Metamodel::ClassHOW&#45;&gt;Metamodel::Naming</title>
<path fill="none" stroke="#6666ff" d="M1040.21,-1447.18C978.12,-1382.94 765.46,-1162.94 693.01,-1087.99"/>
<polygon fill="#6666ff" stroke="#6666ff" points="695.52,-1085.55 686.05,-1080.79 690.49,-1090.41 695.52,-1085.55"/>
</g>
<!-- Metamodel::ClassHOW&#45;&gt;Metamodel::Stashing -->
<g id="edge25" class="edge">
<title>Metamodel::ClassHOW&#45;&gt;Metamodel::Stashing</title>
<path fill="none" stroke="#6666ff" d="M1050.52,-1446.66C1023.44,-1374.65 925.78,-1114.99 925.78,-1114.99 925.78,-1114.99 932.11,-980.71 932.11,-980.71 932.11,-980.71 931.97,-945.5 931.86,-919.09"/>
<polygon fill="#6666ff" stroke="#6666ff" points="935.36,-918.77 931.81,-908.79 928.36,-918.8 935.36,-918.77"/>
</g>
<!-- Metamodel::ClassHOW&#45;&gt;Metamodel::AttributeContainer -->
<g id="edge26" class="edge">
<title>Metamodel::ClassHOW&#45;&gt;Metamodel::AttributeContainer</title>
<path fill="none" stroke="#6666ff" d="M1020.47,-1448.02C967.29,-1423.59 869.13,-1378.52 810.7,-1351.69"/>
<polygon fill="#6666ff" stroke="#6666ff" points="811.87,-1348.37 801.32,-1347.38 808.95,-1354.74 811.87,-1348.37"/>
</g>
<!-- Metamodel::ClassHOW&#45;&gt;Metamodel::MethodContainer -->
<g id="edge28" class="edge">
<title>Metamodel::ClassHOW&#45;&gt;Metamodel::MethodContainer</title>
<path fill="none" stroke="#6666ff" d="M1105.63,-1449.06C1212.68,-1413.7 1469.97,-1328.72 1586.91,-1290.1"/>
<polygon fill="#6666ff" stroke="#6666ff" points="1588.04,-1293.41 1596.44,-1286.95 1585.84,-1286.76 1588.04,-1293.41"/>
</g>
<!-- Metamodel::ClassHOW&#45;&gt;Metamodel::MultiMethodContainer -->
<g id="edge30" class="edge">
<title>Metamodel::ClassHOW&#45;&gt;Metamodel::MultiMethodContainer</title>
<path fill="none" stroke="#6666ff" d="M1058.26,-1446.66C1060.92,-1389.26 1069.1,-1212.62 1072.3,-1143.33"/>
<polygon fill="#6666ff" stroke="#6666ff" points="1075.81,-1143.32 1072.77,-1133.17 1068.81,-1143 1075.81,-1143.32"/>
</g>
<!-- Metamodel::ClassHOW&#45;&gt;Metamodel::RoleContainer -->
<g id="edge31" class="edge">
<title>Metamodel::ClassHOW&#45;&gt;Metamodel::RoleContainer</title>
<path fill="none" stroke="#6666ff" d="M1028.37,-1482.46C994.5,-1502.83 938.43,-1536.55 901.19,-1558.95"/>
<polygon fill="#6666ff" stroke="#6666ff" points="899.39,-1555.95 892.62,-1564.1 902.99,-1561.95 899.39,-1555.95"/>
</g>
<!-- Metamodel::ClassHOW&#45;&gt;Metamodel::MROBasedMethodDispatch -->
<g id="edge35" class="edge">
<title>Metamodel::ClassHOW&#45;&gt;Metamodel::MROBasedMethodDispatch</title>
<path fill="none" stroke="#6666ff" d="M1095.75,-1481.77C1191.47,-1523.68 1440.9,-1632.91 1547.24,-1679.47"/>
<polygon fill="#6666ff" stroke="#6666ff" points="1545.9,-1682.71 1556.47,-1683.51 1548.71,-1676.29 1545.9,-1682.71"/>
</g>
<!-- Metamodel::ClassHOW&#45;&gt;Metamodel::MROBasedTypeChecking -->
<g id="edge36" class="edge">
<title>Metamodel::ClassHOW&#45;&gt;Metamodel::MROBasedTypeChecking</title>
<path fill="none" stroke="#6666ff" d="M1074.64,-1482.88C1109.87,-1519.52 1190.31,-1603.14 1230.93,-1645.36"/>
<polygon fill="#6666ff" stroke="#6666ff" points="1228.57,-1647.96 1238.03,-1652.74 1233.62,-1643.11 1228.57,-1647.96"/>
</g>
<!-- Metamodel::ClassHOW&#45;&gt;Metamodel::BUILDPLAN -->
<g id="edge38" class="edge">
<title>Metamodel::ClassHOW&#45;&gt;Metamodel::BUILDPLAN</title>
<path fill="none" stroke="#6666ff" d="M1130.94,-1477.68C1237.49,-1496.09 1434.4,-1530.1 1547.46,-1549.63"/>
<polygon fill="#6666ff" stroke="#6666ff" points="1547.01,-1553.1 1557.46,-1551.36 1548.21,-1546.2 1547.01,-1553.1"/>
</g>
<!-- Metamodel::ClassHOW&#45;&gt;Metamodel::Mixins -->
<g id="edge39" class="edge">
<title>Metamodel::ClassHOW&#45;&gt;Metamodel::Mixins</title>
<path fill="none" stroke="#6666ff" d="M1156.07,-1459.53C1277.41,-1452.82 1481.84,-1441.52 1600.45,-1434.97"/>
<polygon fill="#6666ff" stroke="#6666ff" points="1600.8,-1438.45 1610.59,-1434.41 1600.42,-1431.46 1600.8,-1438.45"/>
</g>
<!-- Metamodel::ClassHOW&#45;&gt;Metamodel::Documenting -->
<g id="edge23" class="edge">
<title>Metamodel::ClassHOW&#45;&gt;Metamodel::Documenting</title>
<path fill="none" stroke="#6666ff" d="M1013.23,-1481.39C935.06,-1510.43 780.51,-1567.82 780.51,-1567.82 780.51,-1567.82 622.89,-1626.66 537.09,-1658.69"/>
<polygon fill="#6666ff" stroke="#6666ff" points="535.65,-1655.49 527.51,-1662.27 538.1,-1662.05 535.65,-1655.49"/>
</g>
<!-- Metamodel::ClassHOW&#45;&gt;Metamodel::Versioning -->
<g id="edge24" class="edge">
<title>Metamodel::ClassHOW&#45;&gt;Metamodel::Versioning</title>
<path fill="none" stroke="#6666ff" d="M1047.33,-1483.13C1004.26,-1560.68 835.51,-1864.45 784.24,-1956.75"/>
<polygon fill="#6666ff" stroke="#6666ff" points="781.17,-1955.05 779.38,-1965.49 787.29,-1958.45 781.17,-1955.05"/>
</g>
<!-- Metamodel::ClassHOW&#45;&gt;Metamodel::Finalization -->
<g id="edge27" class="edge">
<title>Metamodel::ClassHOW&#45;&gt;Metamodel::Finalization</title>
<path fill="none" stroke="#6666ff" d="M1045.59,-1482.97C1024.06,-1515.71 980.66,-1581.71 980.66,-1581.71 980.66,-1581.71 730.06,-1767.07 639.49,-1834.07"/>
<polygon fill="#6666ff" stroke="#6666ff" points="637.19,-1831.41 631.23,-1840.17 641.35,-1837.04 637.19,-1831.41"/>
</g>
<!-- Metamodel::ClassHOW&#45;&gt;Metamodel::PrivateMethodContainer -->
<g id="edge29" class="edge">
<title>Metamodel::ClassHOW&#45;&gt;Metamodel::PrivateMethodContainer</title>
<path fill="none" stroke="#6666ff" d="M953.91,-1464.08C856.88,-1463.24 710.24,-1461.96 597.19,-1460.97"/>
<polygon fill="#6666ff" stroke="#6666ff" points="597.08,-1457.47 587.05,-1460.88 597.01,-1464.47 597.08,-1457.47"/>
</g>
<!-- Metamodel::ClassHOW&#45;&gt;Metamodel::MultipleInheritance -->
<g id="edge32" class="edge">
<title>Metamodel::ClassHOW&#45;&gt;Metamodel::MultipleInheritance</title>
<path fill="none" stroke="#6666ff" d="M1060.36,-1483.23C1068.49,-1533.55 1090.61,-1670.6 1090.61,-1670.6 1090.61,-1670.6 1162.1,-1934.3 1185.79,-2021.72"/>
<polygon fill="#6666ff" stroke="#6666ff" points="1182.45,-2022.74 1188.44,-2031.48 1189.2,-2020.91 1182.45,-2022.74"/>
</g>
<!-- Metamodel::ClassHOW&#45;&gt;Metamodel::DefaultParent -->
<g id="edge33" class="edge">
<title>Metamodel::ClassHOW&#45;&gt;Metamodel::DefaultParent</title>
<path fill="none" stroke="#6666ff" d="M1060.36,-1483.23C1068.49,-1533.55 1090.61,-1670.6 1090.61,-1670.6 1090.61,-1670.6 1315.55,-1893.02 1392.5,-1969.11"/>
<polygon fill="#6666ff" stroke="#6666ff" points="1390.31,-1971.88 1399.88,-1976.42 1395.24,-1966.9 1390.31,-1971.88"/>
</g>
<!-- Metamodel::ClassHOW&#45;&gt;Metamodel::C3MRO -->
<g id="edge34" class="edge">
<title>Metamodel::ClassHOW&#45;&gt;Metamodel::C3MRO</title>
<path fill="none" stroke="#6666ff" d="M1054.31,-1483.09C1040.11,-1565.93 981.3,-1909.07 963.96,-2010.23"/>
<polygon fill="#6666ff" stroke="#6666ff" points="960.48,-2009.85 962.24,-2020.29 967.38,-2011.03 960.48,-2009.85"/>
</g>
<!-- Metamodel::ClassHOW&#45;&gt;Metamodel::Trusting -->
<g id="edge37" class="edge">
<title>Metamodel::ClassHOW&#45;&gt;Metamodel::Trusting</title>
<path fill="none" stroke="#6666ff" d="M1079.64,-1447.33C1157.64,-1385.38 1418.96,-1177.81 1508.12,-1107"/>
<polygon fill="#6666ff" stroke="#6666ff" points="1510.3,-1109.73 1515.96,-1100.77 1505.95,-1104.25 1510.3,-1109.73"/>
</g>
</g>
</svg>
