<?xml version="1.0" encoding="UTF-8" standalone="no"?>
<!DOCTYPE svg PUBLIC "-//W3C//DTD SVG 1.1//EN"
 "http://www.w3.org/Graphics/SVG/1.1/DTD/svg11.dtd">
<!-- Generated by graphviz version 2.43.0 (0)
 -->
<!-- Title: perl6&#45;type&#45;graph Pages: 1 -->
<svg width="210pt" height="404pt"
 viewBox="0.00 0.00 209.94 404.00" xmlns="http://www.w3.org/2000/svg" xmlns:xlink="http://www.w3.org/1999/xlink">
<g id="graph0" class="graph" transform="scale(1 1) rotate(0) translate(4 400)">
<title>perl6&#45;type&#45;graph</title>
<polygon fill="white" stroke="transparent" points="-4,4 -4,-400 205.94,-400 205.94,4 -4,4"/>
<!-- X::IO::Mkdir -->
<g id="node1" class="node">
<title>X::IO::Mkdir</title>
<g id="a_node1"><a xlink:href="/type/X::IO::Mkdir" xlink:title="X::IO::Mkdir">
<ellipse fill="none" stroke="#000000" cx="58.49" cy="-18" rx="58.49" ry="18"/>
<text text-anchor="middle" x="58.49" y="-14.3" font-family="FreeSans" font-size="14.00" fill="#000000">X::IO::Mkdir</text>
</a>
</g>
</g>
<!-- Exception -->
<g id="node4" class="node">
<title>Exception</title>
<g id="a_node4"><a xlink:href="/type/Exception" xlink:title="Exception">
<ellipse fill="none" stroke="#000000" cx="81.49" cy="-234" rx="49.29" ry="18"/>
<text text-anchor="middle" x="81.49" y="-230.3" font-family="FreeSans" font-size="14.00" fill="#000000">Exception</text>
</a>
</g>
</g>
<!-- X::IO::Mkdir&#45;&gt;Exception -->
<g id="edge1" class="edge">
<title>X::IO::Mkdir&#45;&gt;Exception</title>
<path fill="none" stroke="#000000" d="M56.46,-36.15C56.91,-73.34 66.14,-161.63 73.97,-206.23"/>
<polygon fill="#000000" stroke="#000000" points="70.53,-206.88 75.82,-216.06 77.41,-205.59 70.53,-206.88"/>
</g>
<!-- X::IO::Mkdir&#45;&gt;Exception -->
<g id="edge2" class="edge">
<title>X::IO::Mkdir&#45;&gt;Exception</title>
<path fill="none" stroke="#000000" d="M64.22,-36.15C71.73,-73.17 81.42,-160.82 83.24,-205.61"/>
<polygon fill="#000000" stroke="#000000" points="79.75,-205.87 83.53,-215.77 86.75,-205.67 79.75,-205.87"/>
</g>
<!-- X::IO -->
<g id="node6" class="node">
<title>X::IO</title>
<g id="a_node6"><a xlink:href="/type/X::IO" xlink:title="X::IO">
<ellipse fill="none" stroke="#6666ff" cx="126.49" cy="-90" rx="31.4" ry="18"/>
<text text-anchor="middle" x="126.49" y="-86.3" font-family="FreeSans" font-size="14.00" fill="#6666ff">X::IO</text>
</a>
</g>
</g>
<!-- X::IO::Mkdir&#45;&gt;X::IO -->
<g id="edge7" class="edge">
<title>X::IO::Mkdir&#45;&gt;X::IO</title>
<path fill="none" stroke="#6666ff" d="M74.61,-35.59C83.62,-44.87 94.98,-56.56 104.77,-66.64"/>
<polygon fill="#6666ff" stroke="#6666ff" points="102.41,-69.23 111.89,-73.96 107.43,-64.35 102.41,-69.23"/>
</g>
<!-- Mu -->
<g id="node2" class="node">
<title>Mu</title>
<g id="a_node2"><a xlink:href="/type/Mu" xlink:title="Mu">
<ellipse fill="none" stroke="#000000" cx="81.49" cy="-378" rx="27" ry="18"/>
<text text-anchor="middle" x="81.49" y="-374.3" font-family="FreeSans" font-size="14.00" fill="#000000">Mu</text>
</a>
</g>
</g>
<!-- Any -->
<g id="node3" class="node">
<title>Any</title>
<g id="a_node3"><a xlink:href="/type/Any" xlink:title="Any">
<ellipse fill="none" stroke="#000000" cx="81.49" cy="-306" rx="27" ry="18"/>
<text text-anchor="middle" x="81.49" y="-302.3" font-family="FreeSans" font-size="14.00" fill="#000000">Any</text>
</a>
</g>
</g>
<!-- Any&#45;&gt;Mu -->
<g id="edge3" class="edge">
<title>Any&#45;&gt;Mu</title>
<path fill="none" stroke="#000000" d="M81.49,-324.3C81.49,-332.02 81.49,-341.29 81.49,-349.89"/>
<polygon fill="#000000" stroke="#000000" points="77.99,-349.9 81.49,-359.9 84.99,-349.9 77.99,-349.9"/>
</g>
<!-- Exception&#45;&gt;Any -->
<g id="edge4" class="edge">
<title>Exception&#45;&gt;Any</title>
<path fill="none" stroke="#000000" d="M81.49,-252.3C81.49,-260.02 81.49,-269.29 81.49,-277.89"/>
<polygon fill="#000000" stroke="#000000" points="77.99,-277.9 81.49,-287.9 84.99,-277.9 77.99,-277.9"/>
</g>
<!-- X::OS -->
<g id="node5" class="node">
<title>X::OS</title>
<g id="a_node5"><a xlink:href="/type/X::OS" xlink:title="X::OS">
<ellipse fill="none" stroke="#6666ff" cx="167.49" cy="-162" rx="34.39" ry="18"/>
<text text-anchor="middle" x="167.49" y="-158.3" font-family="FreeSans" font-size="14.00" fill="#6666ff">X::OS</text>
</a>
</g>
</g>
<!-- X::OS&#45;&gt;Exception -->
<g id="edge5" class="edge">
<title>X::OS&#45;&gt;Exception</title>
<path fill="none" stroke="#000000" d="M149.68,-177.5C137.86,-187.12 122.13,-199.93 108.75,-210.81"/>
<polygon fill="#000000" stroke="#000000" points="106.33,-208.27 100.79,-217.3 110.75,-213.7 106.33,-208.27"/>
</g>
<!-- X::IO&#45;&gt;Exception -->
<g id="edge6" class="edge">
<title>X::IO&#45;&gt;Exception</title>
<path fill="none" stroke="#000000" d="M121.16,-107.85C113.48,-132.06 99.26,-176.95 90.09,-205.87"/>
<polygon fill="#000000" stroke="#000000" points="86.65,-205.14 86.97,-215.73 93.32,-207.26 86.65,-205.14"/>
</g>
<!-- X::IO&#45;&gt;X::OS -->
<g id="edge8" class="edge">
<title>X::IO&#45;&gt;X::OS</title>
<path fill="none" stroke="#6666ff" d="M136,-107.24C140.95,-115.68 147.11,-126.2 152.67,-135.69"/>
<polygon fill="#6666ff" stroke="#6666ff" points="149.68,-137.51 157.75,-144.37 155.72,-133.97 149.68,-137.51"/>
</g>
</g>
</svg>
