<?xml version="1.0" encoding="UTF-8" standalone="no"?>
<!DOCTYPE svg PUBLIC "-//W3C//DTD SVG 1.1//EN"
 "http://www.w3.org/Graphics/SVG/1.1/DTD/svg11.dtd">
<!-- Generated by graphviz version 2.43.0 (0)
 -->
<!-- Title: perl6&#45;type&#45;graph Pages: 1 -->
<svg width="333pt" height="404pt"
 viewBox="0.00 0.00 332.97 404.00" xmlns="http://www.w3.org/2000/svg" xmlns:xlink="http://www.w3.org/1999/xlink">
<g id="graph0" class="graph" transform="scale(1 1) rotate(0) translate(4 400)">
<title>perl6&#45;type&#45;graph</title>
<polygon fill="white" stroke="transparent" points="-4,4 -4,-400 328.97,-400 328.97,4 -4,4"/>
<!-- X::Syntax::Number::RadixOutOfRange -->
<g id="node1" class="node">
<title>X::Syntax::Number::RadixOutOfRange</title>
<g id="a_node1"><a xlink:href="/type/X::Syntax::Number::RadixOutOfRange" xlink:title="X::Syntax::Number::RadixOutOfRange">
<ellipse fill="none" stroke="#000000" cx="162.49" cy="-18" rx="162.47" ry="18"/>
<text text-anchor="middle" x="162.49" y="-14.3" font-family="FreeSans" font-size="14.00" fill="#000000">X::Syntax::Number::RadixOutOfRange</text>
</a>
</g>
</g>
<!-- Exception -->
<g id="node4" class="node">
<title>Exception</title>
<g id="a_node4"><a xlink:href="/type/Exception" xlink:title="Exception">
<ellipse fill="none" stroke="#000000" cx="162.49" cy="-234" rx="49.29" ry="18"/>
<text text-anchor="middle" x="162.49" y="-230.3" font-family="FreeSans" font-size="14.00" fill="#000000">Exception</text>
</a>
</g>
</g>
<!-- X::Syntax::Number::RadixOutOfRange&#45;&gt;Exception -->
<g id="edge1" class="edge">
<title>X::Syntax::Number::RadixOutOfRange&#45;&gt;Exception</title>
<path fill="none" stroke="#000000" d="M156.37,-36.06C150.81,-51.55 143.49,-72 143.49,-72 143.49,-72 143.49,-108 143.49,-108 143.49,-108 152.76,-169.01 158.35,-205.78"/>
<polygon fill="#000000" stroke="#000000" points="154.92,-206.52 159.88,-215.88 161.84,-205.47 154.92,-206.52"/>
</g>
<!-- X::Syntax -->
<g id="node6" class="node">
<title>X::Syntax</title>
<g id="a_node6"><a xlink:href="/type/X::Syntax" xlink:title="X::Syntax">
<ellipse fill="none" stroke="#6666ff" cx="200.49" cy="-90" rx="48.19" ry="18"/>
<text text-anchor="middle" x="200.49" y="-86.3" font-family="FreeSans" font-size="14.00" fill="#6666ff">X::Syntax</text>
</a>
</g>
</g>
<!-- X::Syntax::Number::RadixOutOfRange&#45;&gt;X::Syntax -->
<g id="edge6" class="edge">
<title>X::Syntax::Number::RadixOutOfRange&#45;&gt;X::Syntax</title>
<path fill="none" stroke="#6666ff" d="M171.88,-36.3C176.25,-44.36 181.54,-54.11 186.38,-63.02"/>
<polygon fill="#6666ff" stroke="#6666ff" points="183.35,-64.78 191.2,-71.9 189.51,-61.44 183.35,-64.78"/>
</g>
<!-- Mu -->
<g id="node2" class="node">
<title>Mu</title>
<g id="a_node2"><a xlink:href="/type/Mu" xlink:title="Mu">
<ellipse fill="none" stroke="#000000" cx="162.49" cy="-378" rx="27" ry="18"/>
<text text-anchor="middle" x="162.49" y="-374.3" font-family="FreeSans" font-size="14.00" fill="#000000">Mu</text>
</a>
</g>
</g>
<!-- Any -->
<g id="node3" class="node">
<title>Any</title>
<g id="a_node3"><a xlink:href="/type/Any" xlink:title="Any">
<ellipse fill="none" stroke="#000000" cx="162.49" cy="-306" rx="27" ry="18"/>
<text text-anchor="middle" x="162.49" y="-302.3" font-family="FreeSans" font-size="14.00" fill="#000000">Any</text>
</a>
</g>
</g>
<!-- Any&#45;&gt;Mu -->
<g id="edge2" class="edge">
<title>Any&#45;&gt;Mu</title>
<path fill="none" stroke="#000000" d="M162.49,-324.3C162.49,-332.02 162.49,-341.29 162.49,-349.89"/>
<polygon fill="#000000" stroke="#000000" points="158.99,-349.9 162.49,-359.9 165.99,-349.9 158.99,-349.9"/>
</g>
<!-- Exception&#45;&gt;Any -->
<g id="edge3" class="edge">
<title>Exception&#45;&gt;Any</title>
<path fill="none" stroke="#000000" d="M162.49,-252.3C162.49,-260.02 162.49,-269.29 162.49,-277.89"/>
<polygon fill="#000000" stroke="#000000" points="158.99,-277.9 162.49,-287.9 165.99,-277.9 158.99,-277.9"/>
</g>
<!-- X::Comp -->
<g id="node5" class="node">
<title>X::Comp</title>
<g id="a_node5"><a xlink:href="/type/X::Comp" xlink:title="X::Comp">
<ellipse fill="none" stroke="#6666ff" cx="235.49" cy="-162" rx="44.69" ry="18"/>
<text text-anchor="middle" x="235.49" y="-158.3" font-family="FreeSans" font-size="14.00" fill="#6666ff">X::Comp</text>
</a>
</g>
</g>
<!-- X::Comp&#45;&gt;Exception -->
<g id="edge4" class="edge">
<title>X::Comp&#45;&gt;Exception</title>
<path fill="none" stroke="#000000" d="M218.92,-178.88C209.37,-188.04 197.2,-199.71 186.61,-209.87"/>
<polygon fill="#000000" stroke="#000000" points="184.03,-207.49 179.24,-216.94 188.88,-212.54 184.03,-207.49"/>
</g>
<!-- X::Syntax&#45;&gt;Exception -->
<g id="edge5" class="edge">
<title>X::Syntax&#45;&gt;Exception</title>
<path fill="none" stroke="#000000" d="M194.37,-108.06C188.81,-123.55 181.49,-144 181.49,-144 181.49,-144 173.84,-179.83 168.24,-206.03"/>
<polygon fill="#000000" stroke="#000000" points="164.81,-205.33 166.15,-215.84 171.66,-206.79 164.81,-205.33"/>
</g>
<!-- X::Syntax&#45;&gt;X::Comp -->
<g id="edge7" class="edge">
<title>X::Syntax&#45;&gt;X::Comp</title>
<path fill="none" stroke="#6666ff" d="M208.96,-107.95C213.04,-116.11 218.03,-126.09 222.57,-135.18"/>
<polygon fill="#6666ff" stroke="#6666ff" points="219.49,-136.83 227.09,-144.21 225.75,-133.7 219.49,-136.83"/>
</g>
</g>
</svg>
