<?xml version="1.0" encoding="UTF-8" standalone="no"?>
<!DOCTYPE svg PUBLIC "-//W3C//DTD SVG 1.1//EN"
 "http://www.w3.org/Graphics/SVG/1.1/DTD/svg11.dtd">
<!-- Generated by graphviz version 2.43.0 (0)
 -->
<!-- Title: perl6&#45;type&#45;graph Pages: 1 -->
<svg width="1898pt" height="1959pt"
 viewBox="0.00 0.00 1898.25 1958.57" xmlns="http://www.w3.org/2000/svg" xmlns:xlink="http://www.w3.org/1999/xlink">
<g id="graph0" class="graph" transform="scale(1 1) rotate(0) translate(4 1954.57)">
<title>perl6&#45;type&#45;graph</title>
<polygon fill="white" stroke="transparent" points="-4,4 -4,-1954.57 1894.25,-1954.57 1894.25,4 -4,4"/>
<!-- Metamodel::Versioning -->
<g id="node1" class="node">
<title>Metamodel::Versioning</title>
<g id="a_node1"><a xlink:href="/type/Metamodel::Versioning" xlink:title="Metamodel::Versioning">
<ellipse fill="none" stroke="#6666ff" cx="828.2" cy="-1015.08" rx="100.98" ry="18"/>
<text text-anchor="middle" x="828.2" y="-1011.38" font-family="FreeSans" font-size="14.00" fill="#6666ff">Metamodel::Versioning</text>
</a>
</g>
</g>
<!-- Mu -->
<g id="node2" class="node">
<title>Mu</title>
<g id="a_node2"><a xlink:href="/type/Mu" xlink:title="Mu">
<ellipse fill="none" stroke="#000000" cx="1163.82" cy="-331.35" rx="27" ry="18"/>
<text text-anchor="middle" x="1163.82" y="-327.65" font-family="FreeSans" font-size="14.00" fill="#000000">Mu</text>
</a>
</g>
</g>
<!-- Any -->
<g id="node3" class="node">
<title>Any</title>
<g id="a_node3"><a xlink:href="/type/Any" xlink:title="Any">
<ellipse fill="none" stroke="#000000" cx="967.4" cy="-823.99" rx="27" ry="18"/>
<text text-anchor="middle" x="967.4" y="-820.29" font-family="FreeSans" font-size="14.00" fill="#000000">Any</text>
</a>
</g>
</g>
<!-- Any&#45;&gt;Mu -->
<g id="edge1" class="edge">
<title>Any&#45;&gt;Mu</title>
<path fill="none" stroke="#000000" d="M974.39,-806.45C1003.77,-732.76 1117.38,-447.83 1153.05,-358.38"/>
<polygon fill="#000000" stroke="#000000" points="1156.36,-359.51 1156.81,-348.93 1149.86,-356.92 1156.36,-359.51"/>
</g>
<!-- Metamodel::Naming -->
<g id="node4" class="node">
<title>Metamodel::Naming</title>
<g id="a_node4"><a xlink:href="/type/Metamodel::Naming" xlink:title="Metamodel::Naming">
<ellipse fill="none" stroke="#6666ff" cx="932.19" cy="-960.64" rx="90.18" ry="18"/>
<text text-anchor="middle" x="932.19" y="-956.94" font-family="FreeSans" font-size="14.00" fill="#6666ff">Metamodel::Naming</text>
</a>
</g>
</g>
<!-- Metamodel::Documenting -->
<g id="node5" class="node">
<title>Metamodel::Documenting</title>
<g id="a_node5"><a xlink:href="/type/Metamodel::Documenting" xlink:title="Metamodel::Documenting">
<ellipse fill="none" stroke="#6666ff" cx="783.9" cy="-876.93" rx="111.28" ry="18"/>
<text text-anchor="middle" x="783.9" y="-873.23" font-family="FreeSans" font-size="14.00" fill="#6666ff">Metamodel::Documenting</text>
</a>
</g>
</g>
<!-- Metamodel::MethodContainer -->
<g id="node6" class="node">
<title>Metamodel::MethodContainer</title>
<g id="a_node6"><a xlink:href="/type/Metamodel::MethodContainer" xlink:title="Metamodel::MethodContainer">
<ellipse fill="none" stroke="#6666ff" cx="1169.61" cy="-1617.31" rx="127.28" ry="18"/>
<text text-anchor="middle" x="1169.61" y="-1613.61" font-family="FreeSans" font-size="14.00" fill="#6666ff">Metamodel::MethodContainer</text>
</a>
</g>
</g>
<!-- Metamodel::PrivateMethodContainer -->
<g id="node7" class="node">
<title>Metamodel::PrivateMethodContainer</title>
<g id="a_node7"><a xlink:href="/type/Metamodel::PrivateMethodContainer" xlink:title="Metamodel::PrivateMethodContainer">
<ellipse fill="none" stroke="#6666ff" cx="1089.99" cy="-1504.36" rx="154.87" ry="18"/>
<text text-anchor="middle" x="1089.99" y="-1500.66" font-family="FreeSans" font-size="14.00" fill="#6666ff">Metamodel::PrivateMethodContainer</text>
</a>
</g>
</g>
<!-- Metamodel::MultiMethodContainer -->
<g id="node8" class="node">
<title>Metamodel::MultiMethodContainer</title>
<g id="a_node8"><a xlink:href="/type/Metamodel::MultiMethodContainer" xlink:title="Metamodel::MultiMethodContainer">
<ellipse fill="none" stroke="#6666ff" cx="1310.56" cy="-1557.82" rx="146.47" ry="18"/>
<text text-anchor="middle" x="1310.56" y="-1554.12" font-family="FreeSans" font-size="14.00" fill="#6666ff">Metamodel::MultiMethodContainer</text>
</a>
</g>
</g>
<!-- Metamodel::AttributeContainer -->
<g id="node9" class="node">
<title>Metamodel::AttributeContainer</title>
<g id="a_node9"><a xlink:href="/type/Metamodel::AttributeContainer" xlink:title="Metamodel::AttributeContainer">
<ellipse fill="none" stroke="#6666ff" cx="1142.26" cy="-1359.57" rx="129.98" ry="18"/>
<text text-anchor="middle" x="1142.26" y="-1355.87" font-family="FreeSans" font-size="14.00" fill="#6666ff">Metamodel::AttributeContainer</text>
</a>
</g>
</g>
<!-- Metamodel::RoleContainer -->
<g id="node10" class="node">
<title>Metamodel::RoleContainer</title>
<g id="a_node10"><a xlink:href="/type/Metamodel::RoleContainer" xlink:title="Metamodel::RoleContainer">
<ellipse fill="none" stroke="#6666ff" cx="1362.97" cy="-1432.32" rx="115.88" ry="18"/>
<text text-anchor="middle" x="1362.97" y="-1428.62" font-family="FreeSans" font-size="14.00" fill="#6666ff">Metamodel::RoleContainer</text>
</a>
</g>
</g>
<!-- Metamodel::MultipleInheritance -->
<g id="node11" class="node">
<title>Metamodel::MultipleInheritance</title>
<g id="a_node11"><a xlink:href="/type/Metamodel::MultipleInheritance" xlink:title="Metamodel::MultipleInheritance">
<ellipse fill="none" stroke="#6666ff" cx="889.57" cy="-1234.22" rx="133.78" ry="18"/>
<text text-anchor="middle" x="889.57" y="-1230.52" font-family="FreeSans" font-size="14.00" fill="#6666ff">Metamodel::MultipleInheritance</text>
</a>
</g>
</g>
<!-- Metamodel::Stashing -->
<g id="node12" class="node">
<title>Metamodel::Stashing</title>
<g id="a_node12"><a xlink:href="/type/Metamodel::Stashing" xlink:title="Metamodel::Stashing">
<ellipse fill="none" stroke="#6666ff" cx="571" cy="-852.06" rx="93.68" ry="18"/>
<text text-anchor="middle" x="571" y="-848.36" font-family="FreeSans" font-size="14.00" fill="#6666ff">Metamodel::Stashing</text>
</a>
</g>
</g>
<!-- Metamodel::TypePretense -->
<g id="node13" class="node">
<title>Metamodel::TypePretense</title>
<g id="a_node13"><a xlink:href="/type/Metamodel::TypePretense" xlink:title="Metamodel::TypePretense">
<ellipse fill="none" stroke="#6666ff" cx="1432.63" cy="-541.92" rx="114.28" ry="18"/>
<text text-anchor="middle" x="1432.63" y="-538.22" font-family="FreeSans" font-size="14.00" fill="#6666ff">Metamodel::TypePretense</text>
</a>
</g>
</g>
<!-- Metamodel::RolePunning -->
<g id="node14" class="node">
<title>Metamodel::RolePunning</title>
<g id="a_node14"><a xlink:href="/type/Metamodel::RolePunning" xlink:title="Metamodel::RolePunning">
<ellipse fill="none" stroke="#6666ff" cx="1780.41" cy="-944.17" rx="109.68" ry="18"/>
<text text-anchor="middle" x="1780.41" y="-940.47" font-family="FreeSans" font-size="14.00" fill="#6666ff">Metamodel::RolePunning</text>
</a>
</g>
</g>
<!-- Metamodel::ParametricRoleHOW -->
<g id="node15" class="node">
<title>Metamodel::ParametricRoleHOW</title>
<g id="a_node15"><a xlink:href="/type/Metamodel::ParametricRoleHOW" xlink:title="Metamodel::ParametricRoleHOW">
<ellipse fill="none" stroke="#000000" cx="1254.37" cy="-1021.34" rx="141.88" ry="18"/>
<text text-anchor="middle" x="1254.37" y="-1017.64" font-family="FreeSans" font-size="14.00" fill="#000000">Metamodel::ParametricRoleHOW</text>
</a>
</g>
</g>
<!-- Metamodel::ParametricRoleHOW&#45;&gt;Metamodel::Versioning -->
<g id="edge9" class="edge">
<title>Metamodel::ParametricRoleHOW&#45;&gt;Metamodel::Versioning</title>
<path fill="none" stroke="#6666ff" d="M1113.35,-1019.27C1056.65,-1018.44 992.24,-1017.49 939,-1016.71"/>
<polygon fill="#6666ff" stroke="#6666ff" points="938.9,-1013.2 928.85,-1016.56 938.8,-1020.2 938.9,-1013.2"/>
</g>
<!-- Metamodel::ParametricRoleHOW&#45;&gt;Any -->
<g id="edge2" class="edge">
<title>Metamodel::ParametricRoleHOW&#45;&gt;Any</title>
<path fill="none" stroke="#000000" d="M1228.4,-1003.48C1174.31,-966.28 1050.04,-880.82 994.77,-842.81"/>
<polygon fill="#000000" stroke="#000000" points="996.73,-839.91 986.51,-837.13 992.77,-845.68 996.73,-839.91"/>
</g>
<!-- Metamodel::ParametricRoleHOW&#45;&gt;Metamodel::Naming -->
<g id="edge7" class="edge">
<title>Metamodel::ParametricRoleHOW&#45;&gt;Metamodel::Naming</title>
<path fill="none" stroke="#6666ff" d="M1175.15,-1006.42C1124.14,-996.81 1058.22,-984.39 1007.92,-974.91"/>
<polygon fill="#6666ff" stroke="#6666ff" points="1008.56,-971.46 998.08,-973.05 1007.26,-978.34 1008.56,-971.46"/>
</g>
<!-- Metamodel::ParametricRoleHOW&#45;&gt;Metamodel::Documenting -->
<g id="edge8" class="edge">
<title>Metamodel::ParametricRoleHOW&#45;&gt;Metamodel::Documenting</title>
<path fill="none" stroke="#6666ff" d="M1199.94,-1004.64C1111.84,-977.59 938.54,-924.4 845.85,-895.95"/>
<polygon fill="#6666ff" stroke="#6666ff" points="846.63,-892.53 836.04,-892.94 844.58,-899.22 846.63,-892.53"/>
</g>
<!-- Metamodel::ParametricRoleHOW&#45;&gt;Metamodel::MethodContainer -->
<g id="edge10" class="edge">
<title>Metamodel::ParametricRoleHOW&#45;&gt;Metamodel::MethodContainer</title>
<path fill="none" stroke="#6666ff" d="M1248.75,-1039.5C1238.74,-1071.82 1218.87,-1135.95 1218.87,-1135.95 1218.87,-1135.95 1273.85,-1359.62 1273.85,-1359.62 1273.85,-1359.62 1245.68,-1432.18 1245.68,-1432.18 1245.68,-1432.18 1246.28,-1504.4 1246.28,-1504.4 1246.28,-1504.4 1162.73,-1557.81 1162.73,-1557.81 1162.73,-1557.81 1164.55,-1573.54 1166.31,-1588.82"/>
<polygon fill="#6666ff" stroke="#6666ff" points="1162.88,-1589.6 1167.5,-1599.14 1169.83,-1588.8 1162.88,-1589.6"/>
</g>
<!-- Metamodel::ParametricRoleHOW&#45;&gt;Metamodel::PrivateMethodContainer -->
<g id="edge11" class="edge">
<title>Metamodel::ParametricRoleHOW&#45;&gt;Metamodel::PrivateMethodContainer</title>
<path fill="none" stroke="#6666ff" d="M1241.27,-1039.52C1190.65,-1109.77 1010.67,-1359.51 1010.67,-1359.51 1010.67,-1359.51 1052.31,-1435.54 1075.25,-1477.43"/>
<polygon fill="#6666ff" stroke="#6666ff" points="1072.24,-1479.21 1080.11,-1486.3 1078.38,-1475.85 1072.24,-1479.21"/>
</g>
<!-- Metamodel::ParametricRoleHOW&#45;&gt;Metamodel::MultiMethodContainer -->
<g id="edge12" class="edge">
<title>Metamodel::ParametricRoleHOW&#45;&gt;Metamodel::MultiMethodContainer</title>
<path fill="none" stroke="#6666ff" d="M1248.75,-1039.5C1238.74,-1071.82 1218.87,-1135.95 1218.87,-1135.95 1218.87,-1135.95 1273.85,-1359.62 1273.85,-1359.62 1273.85,-1359.62 1245.68,-1432.18 1245.68,-1432.18 1245.68,-1432.18 1277.4,-1493.61 1296.49,-1530.56"/>
<polygon fill="#6666ff" stroke="#6666ff" points="1293.57,-1532.54 1301.27,-1539.82 1299.79,-1529.33 1293.57,-1532.54"/>
</g>
<!-- Metamodel::ParametricRoleHOW&#45;&gt;Metamodel::AttributeContainer -->
<g id="edge13" class="edge">
<title>Metamodel::ParametricRoleHOW&#45;&gt;Metamodel::AttributeContainer</title>
<path fill="none" stroke="#6666ff" d="M1248.34,-1039.53C1229.87,-1095.27 1173.92,-1264.05 1151.6,-1331.39"/>
<polygon fill="#6666ff" stroke="#6666ff" points="1148.14,-1330.7 1148.32,-1341.29 1154.78,-1332.9 1148.14,-1330.7"/>
</g>
<!-- Metamodel::ParametricRoleHOW&#45;&gt;Metamodel::RoleContainer -->
<g id="edge14" class="edge">
<title>Metamodel::ParametricRoleHOW&#45;&gt;Metamodel::RoleContainer</title>
<path fill="none" stroke="#6666ff" d="M1248.75,-1039.5C1238.74,-1071.82 1218.87,-1135.95 1218.87,-1135.95 1218.87,-1135.95 1314.14,-1331.89 1349.75,-1405.13"/>
<polygon fill="#6666ff" stroke="#6666ff" points="1346.65,-1406.76 1354.17,-1414.22 1352.95,-1403.7 1346.65,-1406.76"/>
</g>
<!-- Metamodel::ParametricRoleHOW&#45;&gt;Metamodel::MultipleInheritance -->
<g id="edge15" class="edge">
<title>Metamodel::ParametricRoleHOW&#45;&gt;Metamodel::MultipleInheritance</title>
<path fill="none" stroke="#6666ff" d="M1224.21,-1038.95C1158.4,-1077.35 1001.97,-1168.63 928.7,-1211.39"/>
<polygon fill="#6666ff" stroke="#6666ff" points="926.64,-1208.54 919.77,-1216.6 930.17,-1214.59 926.64,-1208.54"/>
</g>
<!-- Metamodel::ParametricRoleHOW&#45;&gt;Metamodel::Stashing -->
<g id="edge16" class="edge">
<title>Metamodel::ParametricRoleHOW&#45;&gt;Metamodel::Stashing</title>
<path fill="none" stroke="#6666ff" d="M1197.39,-1004.81C1121.75,-982.87 997.63,-946.87 997.63,-946.87 997.63,-946.87 703.73,-890.72 703.73,-890.72 703.73,-890.72 667.16,-880.07 632.42,-869.95"/>
<polygon fill="#6666ff" stroke="#6666ff" points="633.28,-866.55 622.7,-867.11 631.32,-873.27 633.28,-866.55"/>
</g>
<!-- Metamodel::ParametricRoleHOW&#45;&gt;Metamodel::TypePretense -->
<g id="edge17" class="edge">
<title>Metamodel::ParametricRoleHOW&#45;&gt;Metamodel::TypePretense</title>
<path fill="none" stroke="#6666ff" d="M1261.14,-1003.13C1288.33,-930 1389.7,-657.37 1422.4,-569.45"/>
<polygon fill="#6666ff" stroke="#6666ff" points="1425.74,-570.49 1425.95,-559.89 1419.18,-568.05 1425.74,-570.49"/>
</g>
<!-- Metamodel::ParametricRoleHOW&#45;&gt;Metamodel::RolePunning -->
<g id="edge18" class="edge">
<title>Metamodel::ParametricRoleHOW&#45;&gt;Metamodel::RolePunning</title>
<path fill="none" stroke="#6666ff" d="M1347.21,-1007.72C1443.35,-993.62 1592.66,-971.71 1688.47,-957.66"/>
<polygon fill="#6666ff" stroke="#6666ff" points="1689.06,-961.11 1698.44,-956.2 1688.04,-954.18 1689.06,-961.11"/>
</g>
<!-- Metamodel::MethodDelegation -->
<g id="node16" class="node">
<title>Metamodel::MethodDelegation</title>
<g id="a_node16"><a xlink:href="/type/Metamodel::MethodDelegation" xlink:title="Metamodel::MethodDelegation">
<ellipse fill="none" stroke="#6666ff" cx="675.59" cy="-18" rx="131.08" ry="18"/>
<text text-anchor="middle" x="675.59" y="-14.3" font-family="FreeSans" font-size="14.00" fill="#6666ff">Metamodel::MethodDelegation</text>
</a>
</g>
</g>
<!-- Metamodel::ModuleHOW -->
<g id="node17" class="node">
<title>Metamodel::ModuleHOW</title>
<g id="a_node17"><a xlink:href="/type/Metamodel::ModuleHOW" xlink:title="Metamodel::ModuleHOW">
<ellipse fill="none" stroke="#000000" cx="852.97" cy="-471.02" rx="110.48" ry="18"/>
<text text-anchor="middle" x="852.97" y="-467.32" font-family="FreeSans" font-size="14.00" fill="#000000">Metamodel::ModuleHOW</text>
</a>
</g>
</g>
<!-- Metamodel::ModuleHOW&#45;&gt;Metamodel::Versioning -->
<g id="edge21" class="edge">
<title>Metamodel::ModuleHOW&#45;&gt;Metamodel::Versioning</title>
<path fill="none" stroke="#6666ff" d="M854.93,-489.26C863.43,-568.26 896.64,-877.05 896.64,-877.05 896.64,-877.05 840.25,-960.51 840.25,-960.51 840.25,-960.51 837.37,-973.54 834.43,-986.87"/>
<polygon fill="#6666ff" stroke="#6666ff" points="830.95,-986.39 832.21,-996.91 837.79,-987.9 830.95,-986.39"/>
</g>
<!-- Metamodel::ModuleHOW&#45;&gt;Any -->
<g id="edge3" class="edge">
<title>Metamodel::ModuleHOW&#45;&gt;Any</title>
<path fill="none" stroke="#000000" d="M858.8,-489.01C877.47,-546.6 935.87,-726.72 958.4,-796.23"/>
<polygon fill="#000000" stroke="#000000" points="955.17,-797.6 961.58,-806.03 961.83,-795.44 955.17,-797.6"/>
</g>
<!-- Metamodel::ModuleHOW&#45;&gt;Metamodel::Naming -->
<g id="edge19" class="edge">
<title>Metamodel::ModuleHOW&#45;&gt;Metamodel::Naming</title>
<path fill="none" stroke="#6666ff" d="M855.88,-489.03C867.82,-562.8 913.05,-842.31 927.63,-932.44"/>
<polygon fill="#6666ff" stroke="#6666ff" points="924.2,-933.16 929.25,-942.47 931.11,-932.04 924.2,-933.16"/>
</g>
<!-- Metamodel::ModuleHOW&#45;&gt;Metamodel::Documenting -->
<g id="edge20" class="edge">
<title>Metamodel::ModuleHOW&#45;&gt;Metamodel::Documenting</title>
<path fill="none" stroke="#6666ff" d="M849.87,-489.25C838.91,-553.64 801.98,-770.67 788.7,-848.7"/>
<polygon fill="#6666ff" stroke="#6666ff" points="785.22,-848.31 786.99,-858.76 792.12,-849.48 785.22,-848.31"/>
</g>
<!-- Metamodel::ModuleHOW&#45;&gt;Metamodel::Stashing -->
<g id="edge22" class="edge">
<title>Metamodel::ModuleHOW&#45;&gt;Metamodel::Stashing</title>
<path fill="none" stroke="#6666ff" d="M839.56,-489.15C793.91,-550.83 644.45,-752.81 590.58,-825.61"/>
<polygon fill="#6666ff" stroke="#6666ff" points="587.63,-823.71 584.5,-833.83 593.26,-827.87 587.63,-823.71"/>
</g>
<!-- Metamodel::ModuleHOW&#45;&gt;Metamodel::TypePretense -->
<g id="edge23" class="edge">
<title>Metamodel::ModuleHOW&#45;&gt;Metamodel::TypePretense</title>
<path fill="none" stroke="#6666ff" d="M941.64,-481.87C1046.82,-494.73 1221.75,-516.13 1331.94,-529.61"/>
<polygon fill="#6666ff" stroke="#6666ff" points="1331.71,-533.11 1342.06,-530.85 1332.56,-526.16 1331.71,-533.11"/>
</g>
<!-- Metamodel::ModuleHOW&#45;&gt;Metamodel::MethodDelegation -->
<g id="edge24" class="edge">
<title>Metamodel::ModuleHOW&#45;&gt;Metamodel::MethodDelegation</title>
<path fill="none" stroke="#6666ff" d="M845.91,-452.99C818.54,-383.09 719.37,-129.82 686.36,-45.51"/>
<polygon fill="#6666ff" stroke="#6666ff" points="689.58,-44.13 682.67,-36.09 683.06,-46.68 689.58,-44.13"/>
</g>
<!-- Metamodel::ConcreteRoleHOW -->
<g id="node18" class="node">
<title>Metamodel::ConcreteRoleHOW</title>
<g id="a_node18"><a xlink:href="/type/Metamodel::ConcreteRoleHOW" xlink:title="Metamodel::ConcreteRoleHOW">
<ellipse fill="none" stroke="#000000" cx="1355.66" cy="-1136.13" rx="135.38" ry="18"/>
<text text-anchor="middle" x="1355.66" y="-1132.43" font-family="FreeSans" font-size="14.00" fill="#000000">Metamodel::ConcreteRoleHOW</text>
</a>
</g>
</g>
<!-- Metamodel::ConcreteRoleHOW&#45;&gt;Metamodel::Versioning -->
<g id="edge26" class="edge">
<title>Metamodel::ConcreteRoleHOW&#45;&gt;Metamodel::Versioning</title>
<path fill="none" stroke="#6666ff" d="M1287.78,-1120.55C1188.02,-1097.66 1002.59,-1055.1 900.41,-1031.65"/>
<polygon fill="#6666ff" stroke="#6666ff" points="901.01,-1028.2 890.48,-1029.37 899.45,-1035.02 901.01,-1028.2"/>
</g>
<!-- Metamodel::ConcreteRoleHOW&#45;&gt;Any -->
<g id="edge4" class="edge">
<title>Metamodel::ConcreteRoleHOW&#45;&gt;Any</title>
<path fill="none" stroke="#000000" d="M1318.78,-1118.81C1250.45,-1086.71 1111.09,-1021.24 1111.09,-1021.24 1111.09,-1021.24 1023.91,-901.57 985.37,-848.65"/>
<polygon fill="#000000" stroke="#000000" points="988.12,-846.49 979.41,-840.46 982.46,-850.61 988.12,-846.49"/>
</g>
<!-- Metamodel::ConcreteRoleHOW&#45;&gt;Metamodel::Naming -->
<g id="edge25" class="edge">
<title>Metamodel::ConcreteRoleHOW&#45;&gt;Metamodel::Naming</title>
<path fill="none" stroke="#6666ff" d="M1314.28,-1118.98C1235.63,-1086.39 1064.9,-1015.64 980.89,-980.82"/>
<polygon fill="#6666ff" stroke="#6666ff" points="982.15,-977.55 971.57,-976.96 979.47,-984.02 982.15,-977.55"/>
</g>
<!-- Metamodel::ConcreteRoleHOW&#45;&gt;Metamodel::MethodContainer -->
<g id="edge28" class="edge">
<title>Metamodel::ConcreteRoleHOW&#45;&gt;Metamodel::MethodContainer</title>
<path fill="none" stroke="#6666ff" d="M1348.96,-1154.42C1329.42,-1207.8 1273.85,-1359.62 1273.85,-1359.62 1273.85,-1359.62 1245.68,-1432.18 1245.68,-1432.18 1245.68,-1432.18 1246.28,-1504.4 1246.28,-1504.4 1246.28,-1504.4 1162.73,-1557.81 1162.73,-1557.81 1162.73,-1557.81 1164.55,-1573.54 1166.31,-1588.82"/>
<polygon fill="#6666ff" stroke="#6666ff" points="1162.88,-1589.6 1167.5,-1599.14 1169.83,-1588.8 1162.88,-1589.6"/>
</g>
<!-- Metamodel::ConcreteRoleHOW&#45;&gt;Metamodel::PrivateMethodContainer -->
<g id="edge27" class="edge">
<title>Metamodel::ConcreteRoleHOW&#45;&gt;Metamodel::PrivateMethodContainer</title>
<path fill="none" stroke="#6666ff" d="M1348.96,-1154.42C1329.42,-1207.8 1273.85,-1359.62 1273.85,-1359.62 1273.85,-1359.62 1173.24,-1438.82 1120.88,-1480.05"/>
<polygon fill="#6666ff" stroke="#6666ff" points="1118.6,-1477.38 1112.91,-1486.32 1122.93,-1482.88 1118.6,-1477.38"/>
</g>
<!-- Metamodel::ConcreteRoleHOW&#45;&gt;Metamodel::MultiMethodContainer -->
<g id="edge29" class="edge">
<title>Metamodel::ConcreteRoleHOW&#45;&gt;Metamodel::MultiMethodContainer</title>
<path fill="none" stroke="#6666ff" d="M1348.96,-1154.42C1329.42,-1207.8 1273.85,-1359.62 1273.85,-1359.62 1273.85,-1359.62 1245.68,-1432.18 1245.68,-1432.18 1245.68,-1432.18 1277.4,-1493.61 1296.49,-1530.56"/>
<polygon fill="#6666ff" stroke="#6666ff" points="1293.57,-1532.54 1301.27,-1539.82 1299.79,-1529.33 1293.57,-1532.54"/>
</g>
<!-- Metamodel::ConcreteRoleHOW&#45;&gt;Metamodel::AttributeContainer -->
<g id="edge30" class="edge">
<title>Metamodel::ConcreteRoleHOW&#45;&gt;Metamodel::AttributeContainer</title>
<path fill="none" stroke="#6666ff" d="M1338.55,-1154.04C1300.78,-1193.59 1210.14,-1288.49 1166.52,-1334.16"/>
<polygon fill="#6666ff" stroke="#6666ff" points="1163.82,-1331.92 1159.44,-1341.57 1168.88,-1336.76 1163.82,-1331.92"/>
</g>
<!-- Metamodel::ConcreteRoleHOW&#45;&gt;Metamodel::RoleContainer -->
<g id="edge31" class="edge">
<title>Metamodel::ConcreteRoleHOW&#45;&gt;Metamodel::RoleContainer</title>
<path fill="none" stroke="#6666ff" d="M1356.1,-1154.21C1357.33,-1203.99 1360.77,-1343.35 1362.26,-1403.77"/>
<polygon fill="#6666ff" stroke="#6666ff" points="1358.77,-1404.18 1362.52,-1414.09 1365.77,-1404.01 1358.77,-1404.18"/>
</g>
<!-- Metamodel::ConcreteRoleHOW&#45;&gt;Metamodel::MultipleInheritance -->
<g id="edge32" class="edge">
<title>Metamodel::ConcreteRoleHOW&#45;&gt;Metamodel::MultipleInheritance</title>
<path fill="none" stroke="#6666ff" d="M1283.34,-1151.35C1199.02,-1169.1 1059.95,-1198.37 971.65,-1216.95"/>
<polygon fill="#6666ff" stroke="#6666ff" points="970.73,-1213.57 961.67,-1219.05 972.17,-1220.42 970.73,-1213.57"/>
</g>
<!-- Metamodel::C3MRO -->
<g id="node19" class="node">
<title>Metamodel::C3MRO</title>
<g id="a_node19"><a xlink:href="/type/Metamodel::C3MRO" xlink:title="Metamodel::C3MRO">
<ellipse fill="none" stroke="#6666ff" cx="185.17" cy="-1262.02" rx="92.08" ry="18"/>
<text text-anchor="middle" x="185.17" y="-1258.32" font-family="FreeSans" font-size="14.00" fill="#6666ff">Metamodel::C3MRO</text>
</a>
</g>
</g>
<!-- Metamodel::MROBasedMethodDispatch -->
<g id="node20" class="node">
<title>Metamodel::MROBasedMethodDispatch</title>
<g id="a_node20"><a xlink:href="/type/Metamodel::MROBasedMethodDispatch" xlink:title="Metamodel::MROBasedMethodDispatch">
<ellipse fill="none" stroke="#6666ff" cx="169.63" cy="-1410.05" rx="169.77" ry="18"/>
<text text-anchor="middle" x="169.63" y="-1406.35" font-family="FreeSans" font-size="14.00" fill="#6666ff">Metamodel::MROBasedMethodDispatch</text>
</a>
</g>
</g>
<!-- Metamodel::MROBasedTypeChecking -->
<g id="node21" class="node">
<title>Metamodel::MROBasedTypeChecking</title>
<g id="a_node21"><a xlink:href="/type/Metamodel::MROBasedTypeChecking" xlink:title="Metamodel::MROBasedTypeChecking">
<ellipse fill="none" stroke="#6666ff" cx="373.38" cy="-1454.09" rx="163.27" ry="18"/>
<text text-anchor="middle" x="373.38" y="-1450.39" font-family="FreeSans" font-size="14.00" fill="#6666ff">Metamodel::MROBasedTypeChecking</text>
</a>
</g>
</g>
<!-- Metamodel::NativeHOW -->
<g id="node22" class="node">
<title>Metamodel::NativeHOW</title>
<g id="a_node22"><a xlink:href="/type/Metamodel::NativeHOW" xlink:title="Metamodel::NativeHOW">
<ellipse fill="none" stroke="#000000" cx="397.03" cy="-933.17" rx="106.68" ry="18"/>
<text text-anchor="middle" x="397.03" y="-929.47" font-family="FreeSans" font-size="14.00" fill="#000000">Metamodel::NativeHOW</text>
</a>
</g>
</g>
<!-- Metamodel::NativeHOW&#45;&gt;Metamodel::Versioning -->
<g id="edge35" class="edge">
<title>Metamodel::NativeHOW&#45;&gt;Metamodel::Versioning</title>
<path fill="none" stroke="#6666ff" d="M468.23,-946.7C545.53,-961.38 668.67,-984.77 748.98,-1000.03"/>
<polygon fill="#6666ff" stroke="#6666ff" points="748.56,-1003.51 759.04,-1001.94 749.87,-996.64 748.56,-1003.51"/>
</g>
<!-- Metamodel::NativeHOW&#45;&gt;Any -->
<g id="edge5" class="edge">
<title>Metamodel::NativeHOW&#45;&gt;Any</title>
<path fill="none" stroke="#000000" d="M460.77,-918.63C550.86,-898.08 704.63,-863 704.63,-863 704.63,-863 858.46,-840.16 930.72,-829.43"/>
<polygon fill="#000000" stroke="#000000" points="931.38,-832.87 940.76,-827.94 930.35,-825.95 931.38,-832.87"/>
</g>
<!-- Metamodel::NativeHOW&#45;&gt;Metamodel::Naming -->
<g id="edge33" class="edge">
<title>Metamodel::NativeHOW&#45;&gt;Metamodel::Naming</title>
<path fill="none" stroke="#6666ff" d="M499.26,-938.42C595.72,-943.37 739.31,-950.74 834.31,-955.61"/>
<polygon fill="#6666ff" stroke="#6666ff" points="834.33,-959.12 844.49,-956.14 834.69,-952.13 834.33,-959.12"/>
</g>
<!-- Metamodel::NativeHOW&#45;&gt;Metamodel::Documenting -->
<g id="edge34" class="edge">
<title>Metamodel::NativeHOW&#45;&gt;Metamodel::Documenting</title>
<path fill="none" stroke="#6666ff" d="M478.13,-921.38C540.17,-912.37 625.81,-899.92 690.68,-890.49"/>
<polygon fill="#6666ff" stroke="#6666ff" points="691.51,-893.9 700.9,-889 690.5,-886.98 691.51,-893.9"/>
</g>
<!-- Metamodel::NativeHOW&#45;&gt;Metamodel::MultipleInheritance -->
<g id="edge37" class="edge">
<title>Metamodel::NativeHOW&#45;&gt;Metamodel::MultipleInheritance</title>
<path fill="none" stroke="#6666ff" d="M425.64,-950.66C509.87,-1002.15 756.99,-1153.19 851.87,-1211.19"/>
<polygon fill="#6666ff" stroke="#6666ff" points="850.21,-1214.27 860.57,-1216.5 853.86,-1208.3 850.21,-1214.27"/>
</g>
<!-- Metamodel::NativeHOW&#45;&gt;Metamodel::Stashing -->
<g id="edge36" class="edge">
<title>Metamodel::NativeHOW&#45;&gt;Metamodel::Stashing</title>
<path fill="none" stroke="#6666ff" d="M433.5,-916.17C460.36,-903.65 497.04,-886.54 525.77,-873.15"/>
<polygon fill="#6666ff" stroke="#6666ff" points="527.59,-876.16 535.18,-868.76 524.64,-869.82 527.59,-876.16"/>
</g>
<!-- Metamodel::NativeHOW&#45;&gt;Metamodel::C3MRO -->
<g id="edge38" class="edge">
<title>Metamodel::NativeHOW&#45;&gt;Metamodel::C3MRO</title>
<path fill="none" stroke="#6666ff" d="M390.24,-951.46C372.98,-997.94 328.8,-1116.9 328.8,-1116.9 328.8,-1116.9 251.11,-1195.4 210,-1236.93"/>
<polygon fill="#6666ff" stroke="#6666ff" points="207.33,-1234.66 202.78,-1244.23 212.3,-1239.58 207.33,-1234.66"/>
</g>
<!-- Metamodel::NativeHOW&#45;&gt;Metamodel::MROBasedMethodDispatch -->
<g id="edge39" class="edge">
<title>Metamodel::NativeHOW&#45;&gt;Metamodel::MROBasedMethodDispatch</title>
<path fill="none" stroke="#6666ff" d="M390.52,-951.33C365.79,-1020.27 279.06,-1262.06 279.06,-1262.06 279.06,-1262.06 220.61,-1341.12 189.14,-1383.67"/>
<polygon fill="#6666ff" stroke="#6666ff" points="186.18,-1381.78 183.05,-1391.9 191.81,-1385.94 186.18,-1381.78"/>
</g>
<!-- Metamodel::NativeHOW&#45;&gt;Metamodel::MROBasedTypeChecking -->
<g id="edge40" class="edge">
<title>Metamodel::NativeHOW&#45;&gt;Metamodel::MROBasedTypeChecking</title>
<path fill="none" stroke="#6666ff" d="M396.2,-951.41C392.68,-1028.92 378.95,-1331.41 374.67,-1425.8"/>
<polygon fill="#6666ff" stroke="#6666ff" points="371.16,-1425.86 374.21,-1436.01 378.16,-1426.18 371.16,-1425.86"/>
</g>
<!-- Metamodel::Finalization -->
<g id="node23" class="node">
<title>Metamodel::Finalization</title>
<g id="a_node23"><a xlink:href="/type/Metamodel::Finalization" xlink:title="Metamodel::Finalization">
<ellipse fill="none" stroke="#6666ff" cx="544.65" cy="-1893.18" rx="103.98" ry="18"/>
<text text-anchor="middle" x="544.65" y="-1889.48" font-family="FreeSans" font-size="14.00" fill="#6666ff">Metamodel::Finalization</text>
</a>
</g>
</g>
<!-- Metamodel::DefaultParent -->
<g id="node24" class="node">
<title>Metamodel::DefaultParent</title>
<g id="a_node24"><a xlink:href="/type/Metamodel::DefaultParent" xlink:title="Metamodel::DefaultParent">
<ellipse fill="none" stroke="#6666ff" cx="769.75" cy="-1932.57" rx="113.18" ry="18"/>
<text text-anchor="middle" x="769.75" y="-1928.87" font-family="FreeSans" font-size="14.00" fill="#6666ff">Metamodel::DefaultParent</text>
</a>
</g>
</g>
<!-- Metamodel::Trusting -->
<g id="node25" class="node">
<title>Metamodel::Trusting</title>
<g id="a_node25"><a xlink:href="/type/Metamodel::Trusting" xlink:title="Metamodel::Trusting">
<ellipse fill="none" stroke="#6666ff" cx="430.92" cy="-1822.8" rx="91.78" ry="18"/>
<text text-anchor="middle" x="430.92" y="-1819.1" font-family="FreeSans" font-size="14.00" fill="#6666ff">Metamodel::Trusting</text>
</a>
</g>
</g>
<!-- Metamodel::BUILDPLAN -->
<g id="node26" class="node">
<title>Metamodel::BUILDPLAN</title>
<g id="a_node26"><a xlink:href="/type/Metamodel::BUILDPLAN" xlink:title="Metamodel::BUILDPLAN">
<ellipse fill="none" stroke="#6666ff" cx="217.36" cy="-1116.75" rx="109.68" ry="18"/>
<text text-anchor="middle" x="217.36" y="-1113.05" font-family="FreeSans" font-size="14.00" fill="#6666ff">Metamodel::BUILDPLAN</text>
</a>
</g>
</g>
<!-- Metamodel::Mixins -->
<g id="node27" class="node">
<title>Metamodel::Mixins</title>
<g id="a_node27"><a xlink:href="/type/Metamodel::Mixins" xlink:title="Metamodel::Mixins">
<ellipse fill="none" stroke="#6666ff" cx="976" cy="-1929.67" rx="85.29" ry="18"/>
<text text-anchor="middle" x="976" y="-1925.97" font-family="FreeSans" font-size="14.00" fill="#6666ff">Metamodel::Mixins</text>
</a>
</g>
</g>
<!-- Metamodel::BoolificationProtocol -->
<g id="node28" class="node">
<title>Metamodel::BoolificationProtocol</title>
<g id="a_node28"><a xlink:href="/type/Metamodel::BoolificationProtocol" xlink:title="Metamodel::BoolificationProtocol">
<ellipse fill="none" stroke="#6666ff" cx="291.31" cy="-1719.77" rx="139.18" ry="18"/>
<text text-anchor="middle" x="291.31" y="-1716.07" font-family="FreeSans" font-size="14.00" fill="#6666ff">Metamodel::BoolificationProtocol</text>
</a>
</g>
</g>
<!-- Metamodel::ClassHOW -->
<g id="node29" class="node">
<title>Metamodel::ClassHOW</title>
<g id="a_node29"><a xlink:href="/type/Metamodel::ClassHOW" xlink:title="Metamodel::ClassHOW">
<ellipse fill="none" stroke="#000000" cx="720.03" cy="-1411.36" rx="103.18" ry="18"/>
<text text-anchor="middle" x="720.03" y="-1407.66" font-family="FreeSans" font-size="14.00" fill="#000000">Metamodel::ClassHOW</text>
</a>
</g>
</g>
<!-- Metamodel::ClassHOW&#45;&gt;Metamodel::Versioning -->
<g id="edge43" class="edge">
<title>Metamodel::ClassHOW&#45;&gt;Metamodel::Versioning</title>
<path fill="none" stroke="#6666ff" d="M723.55,-1393.06C732.25,-1347.76 754.08,-1234.08 754.08,-1234.08 754.08,-1234.08 798.68,-1102.31 818.69,-1043.19"/>
<polygon fill="#6666ff" stroke="#6666ff" points="822.12,-1043.97 822.01,-1033.37 815.49,-1041.72 822.12,-1043.97"/>
</g>
<!-- Metamodel::ClassHOW&#45;&gt;Any -->
<g id="edge6" class="edge">
<title>Metamodel::ClassHOW&#45;&gt;Any</title>
<path fill="none" stroke="#000000" d="M720.3,-1393.29C721.44,-1315.73 725.86,-1014.89 725.86,-1014.89 725.86,-1014.89 879.11,-893.77 941.47,-844.48"/>
<polygon fill="#000000" stroke="#000000" points="943.97,-846.97 949.64,-838.02 939.63,-841.48 943.97,-846.97"/>
</g>
<!-- Metamodel::ClassHOW&#45;&gt;Metamodel::Naming -->
<g id="edge41" class="edge">
<title>Metamodel::ClassHOW&#45;&gt;Metamodel::Naming</title>
<path fill="none" stroke="#6666ff" d="M723.55,-1393.06C732.25,-1347.76 754.08,-1234.08 754.08,-1234.08 754.08,-1234.08 930.54,-1015.26 930.54,-1015.26 930.54,-1015.26 930.93,-1002.22 931.34,-988.88"/>
<polygon fill="#6666ff" stroke="#6666ff" points="934.84,-988.93 931.64,-978.83 927.84,-988.72 934.84,-988.93"/>
</g>
<!-- Metamodel::ClassHOW&#45;&gt;Metamodel::Documenting -->
<g id="edge42" class="edge">
<title>Metamodel::ClassHOW&#45;&gt;Metamodel::Documenting</title>
<path fill="none" stroke="#6666ff" d="M720.3,-1393.29C721.44,-1315.73 725.86,-1014.89 725.86,-1014.89 725.86,-1014.89 755.49,-944.46 772.41,-904.25"/>
<polygon fill="#6666ff" stroke="#6666ff" points="775.66,-905.55 776.31,-894.97 769.21,-902.83 775.66,-905.55"/>
</g>
<!-- Metamodel::ClassHOW&#45;&gt;Metamodel::MethodContainer -->
<g id="edge47" class="edge">
<title>Metamodel::ClassHOW&#45;&gt;Metamodel::MethodContainer</title>
<path fill="none" stroke="#6666ff" d="M756.82,-1428.21C838.14,-1465.47 1033.06,-1554.76 1122.86,-1595.9"/>
<polygon fill="#6666ff" stroke="#6666ff" points="1121.44,-1599.1 1131.99,-1600.08 1124.36,-1592.73 1121.44,-1599.1"/>
</g>
<!-- Metamodel::ClassHOW&#45;&gt;Metamodel::PrivateMethodContainer -->
<g id="edge48" class="edge">
<title>Metamodel::ClassHOW&#45;&gt;Metamodel::PrivateMethodContainer</title>
<path fill="none" stroke="#6666ff" d="M779.06,-1426.2C843.03,-1442.28 945.28,-1467.98 1014.92,-1485.48"/>
<polygon fill="#6666ff" stroke="#6666ff" points="1014.4,-1488.96 1024.95,-1488.01 1016.1,-1482.17 1014.4,-1488.96"/>
</g>
<!-- Metamodel::ClassHOW&#45;&gt;Metamodel::MultiMethodContainer -->
<g id="edge49" class="edge">
<title>Metamodel::ClassHOW&#45;&gt;Metamodel::MultiMethodContainer</title>
<path fill="none" stroke="#6666ff" d="M758.73,-1428.19C820.3,-1454.98 933.71,-1504.32 933.71,-1504.32 933.71,-1504.32 979.26,-1518.19 979.26,-1518.19 979.26,-1518.19 1099.6,-1532.58 1195.23,-1544.03"/>
<polygon fill="#6666ff" stroke="#6666ff" points="1194.94,-1547.52 1205.28,-1545.23 1195.77,-1540.56 1194.94,-1547.52"/>
</g>
<!-- Metamodel::ClassHOW&#45;&gt;Metamodel::AttributeContainer -->
<g id="edge45" class="edge">
<title>Metamodel::ClassHOW&#45;&gt;Metamodel::AttributeContainer</title>
<path fill="none" stroke="#6666ff" d="M804.71,-1400.97C870.93,-1392.85 963.42,-1381.5 1034.84,-1372.74"/>
<polygon fill="#6666ff" stroke="#6666ff" points="1035.28,-1376.22 1044.78,-1371.52 1034.43,-1369.27 1035.28,-1376.22"/>
</g>
<!-- Metamodel::ClassHOW&#45;&gt;Metamodel::RoleContainer -->
<g id="edge50" class="edge">
<title>Metamodel::ClassHOW&#45;&gt;Metamodel::RoleContainer</title>
<path fill="none" stroke="#6666ff" d="M821.91,-1414.68C935.21,-1418.37 1118.24,-1424.34 1239.58,-1428.29"/>
<polygon fill="#6666ff" stroke="#6666ff" points="1239.55,-1431.8 1249.66,-1428.62 1239.78,-1424.8 1239.55,-1431.8"/>
</g>
<!-- Metamodel::ClassHOW&#45;&gt;Metamodel::MultipleInheritance -->
<g id="edge51" class="edge">
<title>Metamodel::ClassHOW&#45;&gt;Metamodel::MultipleInheritance</title>
<path fill="none" stroke="#6666ff" d="M737.22,-1393.4C767.56,-1361.7 830.66,-1295.77 865.38,-1259.5"/>
<polygon fill="#6666ff" stroke="#6666ff" points="867.95,-1261.88 872.33,-1252.23 862.89,-1257.04 867.95,-1261.88"/>
</g>
<!-- Metamodel::ClassHOW&#45;&gt;Metamodel::Stashing -->
<g id="edge44" class="edge">
<title>Metamodel::ClassHOW&#45;&gt;Metamodel::Stashing</title>
<path fill="none" stroke="#6666ff" d="M715.16,-1393.07C693.38,-1311.33 604.87,-979.17 578.47,-880.09"/>
<polygon fill="#6666ff" stroke="#6666ff" points="581.8,-878.97 575.84,-870.21 575.03,-880.77 581.8,-878.97"/>
</g>
<!-- Metamodel::ClassHOW&#45;&gt;Metamodel::C3MRO -->
<g id="edge53" class="edge">
<title>Metamodel::ClassHOW&#45;&gt;Metamodel::C3MRO</title>
<path fill="none" stroke="#6666ff" d="M665.3,-1396.08C565.36,-1368.17 353.87,-1309.13 248.13,-1279.6"/>
<polygon fill="#6666ff" stroke="#6666ff" points="248.81,-1276.16 238.23,-1276.84 246.92,-1282.9 248.81,-1276.16"/>
</g>
<!-- Metamodel::ClassHOW&#45;&gt;Metamodel::MROBasedMethodDispatch -->
<g id="edge54" class="edge">
<title>Metamodel::ClassHOW&#45;&gt;Metamodel::MROBasedMethodDispatch</title>
<path fill="none" stroke="#6666ff" d="M616.5,-1411.11C541.47,-1410.94 438.08,-1410.69 349.65,-1410.48"/>
<polygon fill="#6666ff" stroke="#6666ff" points="349.5,-1406.98 339.5,-1410.45 349.49,-1413.98 349.5,-1406.98"/>
</g>
<!-- Metamodel::ClassHOW&#45;&gt;Metamodel::MROBasedTypeChecking -->
<g id="edge55" class="edge">
<title>Metamodel::ClassHOW&#45;&gt;Metamodel::MROBasedTypeChecking</title>
<path fill="none" stroke="#6666ff" d="M635.67,-1421.76C592.64,-1427.06 539.57,-1433.61 492.45,-1439.42"/>
<polygon fill="#6666ff" stroke="#6666ff" points="491.99,-1435.95 482.49,-1440.64 492.84,-1442.89 491.99,-1435.95"/>
</g>
<!-- Metamodel::ClassHOW&#45;&gt;Metamodel::Finalization -->
<g id="edge46" class="edge">
<title>Metamodel::ClassHOW&#45;&gt;Metamodel::Finalization</title>
<path fill="none" stroke="#6666ff" d="M713.47,-1429.37C686.89,-1502.41 586.97,-1776.91 554.74,-1865.46"/>
<polygon fill="#6666ff" stroke="#6666ff" points="551.37,-1864.48 551.24,-1875.08 557.95,-1866.88 551.37,-1864.48"/>
</g>
<!-- Metamodel::ClassHOW&#45;&gt;Metamodel::DefaultParent -->
<g id="edge52" class="edge">
<title>Metamodel::ClassHOW&#45;&gt;Metamodel::DefaultParent</title>
<path fill="none" stroke="#6666ff" d="M721.77,-1429.61C729.17,-1507.16 758.04,-1809.83 767.05,-1904.27"/>
<polygon fill="#6666ff" stroke="#6666ff" points="763.59,-1904.86 768.03,-1914.48 770.56,-1904.19 763.59,-1904.86"/>
</g>
<!-- Metamodel::ClassHOW&#45;&gt;Metamodel::Trusting -->
<g id="edge56" class="edge">
<title>Metamodel::ClassHOW&#45;&gt;Metamodel::Trusting</title>
<path fill="none" stroke="#6666ff" d="M707.42,-1429.3C661.58,-1494.53 503.65,-1719.3 449.39,-1796.51"/>
<polygon fill="#6666ff" stroke="#6666ff" points="446.48,-1794.57 443.59,-1804.76 452.2,-1798.59 446.48,-1794.57"/>
</g>
<!-- Metamodel::ClassHOW&#45;&gt;Metamodel::BUILDPLAN -->
<g id="edge57" class="edge">
<title>Metamodel::ClassHOW&#45;&gt;Metamodel::BUILDPLAN</title>
<path fill="none" stroke="#6666ff" d="M690.46,-1394.03C604.22,-1343.49 352.97,-1196.23 256.09,-1139.45"/>
<polygon fill="#6666ff" stroke="#6666ff" points="257.6,-1136.28 247.21,-1134.24 254.06,-1142.32 257.6,-1136.28"/>
</g>
<!-- Metamodel::ClassHOW&#45;&gt;Metamodel::Mixins -->
<g id="edge58" class="edge">
<title>Metamodel::ClassHOW&#45;&gt;Metamodel::Mixins</title>
<path fill="none" stroke="#6666ff" d="M728.99,-1429.5C767.23,-1506.94 916.93,-1810.05 962.66,-1902.65"/>
<polygon fill="#6666ff" stroke="#6666ff" points="959.55,-1904.25 967.12,-1911.67 965.83,-1901.16 959.55,-1904.25"/>
</g>
<!-- Metamodel::ClassHOW&#45;&gt;Metamodel::BoolificationProtocol -->
<g id="edge59" class="edge">
<title>Metamodel::ClassHOW&#45;&gt;Metamodel::BoolificationProtocol</title>
<path fill="none" stroke="#6666ff" d="M695.44,-1429.05C622.49,-1481.53 407.23,-1636.38 324.35,-1696"/>
<polygon fill="#6666ff" stroke="#6666ff" points="322.14,-1693.28 316.06,-1701.96 326.23,-1698.96 322.14,-1693.28"/>
</g>
</g>
</svg>
