<?xml version="1.0" encoding="UTF-8" standalone="no"?>
<!DOCTYPE svg PUBLIC "-//W3C//DTD SVG 1.1//EN"
 "http://www.w3.org/Graphics/SVG/1.1/DTD/svg11.dtd">
<!-- Generated by graphviz version 2.43.0 (0)
 -->
<!-- Title: perl6&#45;type&#45;graph Pages: 1 -->
<svg width="246pt" height="332pt"
 viewBox="0.00 0.00 245.84 332.00" xmlns="http://www.w3.org/2000/svg" xmlns:xlink="http://www.w3.org/1999/xlink">
<g id="graph0" class="graph" transform="scale(1 1) rotate(0) translate(4 328)">
<title>perl6&#45;type&#45;graph</title>
<polygon fill="white" stroke="transparent" points="-4,4 -4,-328 241.84,-328 241.84,4 -4,4"/>
<!-- IO::Handle -->
<g id="node1" class="node">
<title>IO::Handle</title>
<g id="a_node1"><a xlink:href="/type/IO::Handle" xlink:title="IO::Handle">
<ellipse fill="none" stroke="#000000" cx="130.94" cy="-162" rx="53.09" ry="18"/>
<text text-anchor="middle" x="130.94" y="-158.3" font-family="FreeSans" font-size="14.00" fill="#000000">IO::Handle</text>
</a>
</g>
</g>
<!-- Any -->
<g id="node3" class="node">
<title>Any</title>
<g id="a_node3"><a xlink:href="/type/Any" xlink:title="Any">
<ellipse fill="none" stroke="#000000" cx="130.94" cy="-234" rx="27" ry="18"/>
<text text-anchor="middle" x="130.94" y="-230.3" font-family="FreeSans" font-size="14.00" fill="#000000">Any</text>
</a>
</g>
</g>
<!-- IO::Handle&#45;&gt;Any -->
<g id="edge1" class="edge">
<title>IO::Handle&#45;&gt;Any</title>
<path fill="none" stroke="#000000" d="M130.94,-180.3C130.94,-188.02 130.94,-197.29 130.94,-205.89"/>
<polygon fill="#000000" stroke="#000000" points="127.44,-205.9 130.94,-215.9 134.44,-205.9 127.44,-205.9"/>
</g>
<!-- Mu -->
<g id="node2" class="node">
<title>Mu</title>
<g id="a_node2"><a xlink:href="/type/Mu" xlink:title="Mu">
<ellipse fill="none" stroke="#000000" cx="130.94" cy="-306" rx="27" ry="18"/>
<text text-anchor="middle" x="130.94" y="-302.3" font-family="FreeSans" font-size="14.00" fill="#000000">Mu</text>
</a>
</g>
</g>
<!-- Any&#45;&gt;Mu -->
<g id="edge2" class="edge">
<title>Any&#45;&gt;Mu</title>
<path fill="none" stroke="#000000" d="M130.94,-252.3C130.94,-260.02 130.94,-269.29 130.94,-277.89"/>
<polygon fill="#000000" stroke="#000000" points="127.44,-277.9 130.94,-287.9 134.44,-277.9 127.44,-277.9"/>
</g>
<!-- IO::CatHandle -->
<g id="node4" class="node">
<title>IO::CatHandle</title>
<g id="a_node4"><a xlink:href="/type/IO::CatHandle" xlink:title="IO::CatHandle">
<ellipse fill="none" stroke="#000000" cx="66.94" cy="-90" rx="66.89" ry="18"/>
<text text-anchor="middle" x="66.94" y="-86.3" font-family="FreeSans" font-size="14.00" fill="#000000">IO::CatHandle</text>
</a>
</g>
</g>
<!-- IO::CatHandle&#45;&gt;IO::Handle -->
<g id="edge3" class="edge">
<title>IO::CatHandle&#45;&gt;IO::Handle</title>
<path fill="none" stroke="#000000" d="M82.11,-107.59C90.16,-116.39 100.2,-127.37 109.08,-137.08"/>
<polygon fill="#000000" stroke="#000000" points="106.55,-139.51 115.89,-144.53 111.72,-134.79 106.55,-139.51"/>
</g>
<!-- IO::Pipe -->
<g id="node5" class="node">
<title>IO::Pipe</title>
<g id="a_node5"><a xlink:href="/type/IO::Pipe" xlink:title="IO::Pipe">
<ellipse fill="none" stroke="#000000" cx="194.94" cy="-90" rx="42.79" ry="18"/>
<text text-anchor="middle" x="194.94" y="-86.3" font-family="FreeSans" font-size="14.00" fill="#000000">IO::Pipe</text>
</a>
</g>
</g>
<!-- IO::Pipe&#45;&gt;IO::Handle -->
<g id="edge4" class="edge">
<title>IO::Pipe&#45;&gt;IO::Handle</title>
<path fill="none" stroke="#000000" d="M180.1,-107.24C172.06,-116.03 161.96,-127.07 153.02,-136.86"/>
<polygon fill="#000000" stroke="#000000" points="150.32,-134.62 146.15,-144.37 155.48,-139.35 150.32,-134.62"/>
</g>
<!-- IO::ArgFiles -->
<g id="node6" class="node">
<title>IO::ArgFiles</title>
<g id="a_node6"><a xlink:href="/type/IO::ArgFiles" xlink:title="IO::ArgFiles">
<ellipse fill="none" stroke="#000000" cx="66.94" cy="-18" rx="57.69" ry="18"/>
<text text-anchor="middle" x="66.94" y="-14.3" font-family="FreeSans" font-size="14.00" fill="#000000">IO::ArgFiles</text>
</a>
</g>
</g>
<!-- IO::ArgFiles&#45;&gt;IO::CatHandle -->
<g id="edge5" class="edge">
<title>IO::ArgFiles&#45;&gt;IO::CatHandle</title>
<path fill="none" stroke="#000000" d="M66.94,-36.3C66.94,-44.02 66.94,-53.29 66.94,-61.89"/>
<polygon fill="#000000" stroke="#000000" points="63.44,-61.9 66.94,-71.9 70.44,-61.9 63.44,-61.9"/>
</g>
</g>
</svg>
