<?xml version="1.0" encoding="UTF-8" standalone="no"?>
<!DOCTYPE svg PUBLIC "-//W3C//DTD SVG 1.1//EN"
 "http://www.w3.org/Graphics/SVG/1.1/DTD/svg11.dtd">
<!-- Generated by graphviz version 2.43.0 (0)
 -->
<!-- Title: perl6&#45;type&#45;graph Pages: 1 -->
<svg width="1818pt" height="404pt"
 viewBox="0.00 0.00 1818.29 404.00" xmlns="http://www.w3.org/2000/svg" xmlns:xlink="http://www.w3.org/1999/xlink">
<g id="graph0" class="graph" transform="scale(1 1) rotate(0) translate(4 400)">
<title>perl6&#45;type&#45;graph</title>
<polygon fill="white" stroke="transparent" points="-4,4 -4,-400 1814.29,-400 1814.29,4 -4,4"/>
<!-- X::OS -->
<g id="node1" class="node">
<title>X::OS</title>
<g id="a_node1"><a xlink:href="/type/X::OS" xlink:title="X::OS">
<ellipse fill="none" stroke="#6666ff" cx="822.95" cy="-162" rx="34.39" ry="18"/>
<text text-anchor="middle" x="822.95" y="-158.3" font-family="FreeSans" font-size="14.00" fill="#6666ff">X::OS</text>
</a>
</g>
</g>
<!-- Exception -->
<g id="node4" class="node">
<title>Exception</title>
<g id="a_node4"><a xlink:href="/type/Exception" xlink:title="Exception">
<ellipse fill="none" stroke="#000000" cx="857.95" cy="-234" rx="49.29" ry="18"/>
<text text-anchor="middle" x="857.95" y="-230.3" font-family="FreeSans" font-size="14.00" fill="#000000">Exception</text>
</a>
</g>
</g>
<!-- X::OS&#45;&gt;Exception -->
<g id="edge1" class="edge">
<title>X::OS&#45;&gt;Exception</title>
<path fill="none" stroke="#000000" d="M831.24,-179.59C835.32,-187.75 840.34,-197.78 844.91,-206.93"/>
<polygon fill="#000000" stroke="#000000" points="841.86,-208.66 849.47,-216.04 848.13,-205.53 841.86,-208.66"/>
</g>
<!-- Mu -->
<g id="node2" class="node">
<title>Mu</title>
<g id="a_node2"><a xlink:href="/type/Mu" xlink:title="Mu">
<ellipse fill="none" stroke="#000000" cx="857.95" cy="-378" rx="27" ry="18"/>
<text text-anchor="middle" x="857.95" y="-374.3" font-family="FreeSans" font-size="14.00" fill="#000000">Mu</text>
</a>
</g>
</g>
<!-- Any -->
<g id="node3" class="node">
<title>Any</title>
<g id="a_node3"><a xlink:href="/type/Any" xlink:title="Any">
<ellipse fill="none" stroke="#000000" cx="857.95" cy="-306" rx="27" ry="18"/>
<text text-anchor="middle" x="857.95" y="-302.3" font-family="FreeSans" font-size="14.00" fill="#000000">Any</text>
</a>
</g>
</g>
<!-- Any&#45;&gt;Mu -->
<g id="edge2" class="edge">
<title>Any&#45;&gt;Mu</title>
<path fill="none" stroke="#000000" d="M857.95,-324.3C857.95,-332.02 857.95,-341.29 857.95,-349.89"/>
<polygon fill="#000000" stroke="#000000" points="854.45,-349.9 857.95,-359.9 861.45,-349.9 854.45,-349.9"/>
</g>
<!-- Exception&#45;&gt;Any -->
<g id="edge3" class="edge">
<title>Exception&#45;&gt;Any</title>
<path fill="none" stroke="#000000" d="M857.95,-252.3C857.95,-260.02 857.95,-269.29 857.95,-277.89"/>
<polygon fill="#000000" stroke="#000000" points="854.45,-277.9 857.95,-287.9 861.45,-277.9 854.45,-277.9"/>
</g>
<!-- X::IO -->
<g id="node5" class="node">
<title>X::IO</title>
<g id="a_node5"><a xlink:href="/type/X::IO" xlink:title="X::IO">
<ellipse fill="none" stroke="#6666ff" cx="822.95" cy="-90" rx="31.4" ry="18"/>
<text text-anchor="middle" x="822.95" y="-86.3" font-family="FreeSans" font-size="14.00" fill="#6666ff">X::IO</text>
</a>
</g>
</g>
<!-- X::IO&#45;&gt;X::OS -->
<g id="edge31" class="edge">
<title>X::IO&#45;&gt;X::OS</title>
<path fill="none" stroke="#6666ff" d="M822.95,-108.3C822.95,-116.02 822.95,-125.29 822.95,-133.89"/>
<polygon fill="#6666ff" stroke="#6666ff" points="819.45,-133.9 822.95,-143.9 826.45,-133.9 819.45,-133.9"/>
</g>
<!-- X::IO&#45;&gt;Exception -->
<g id="edge4" class="edge">
<title>X::IO&#45;&gt;Exception</title>
<path fill="none" stroke="#000000" d="M810.28,-106.62C797.59,-122.25 779.95,-144 779.95,-144 779.95,-144 779.95,-180 779.95,-180 779.95,-180 805.2,-197.16 826.97,-211.95"/>
<polygon fill="#000000" stroke="#000000" points="825.15,-214.94 835.38,-217.67 829.08,-209.16 825.15,-214.94"/>
</g>
<!-- X::IO::Cwd -->
<g id="node6" class="node">
<title>X::IO::Cwd</title>
<g id="a_node6"><a xlink:href="/type/X::IO::Cwd" xlink:title="X::IO::Cwd">
<ellipse fill="none" stroke="#000000" cx="53.95" cy="-18" rx="53.89" ry="18"/>
<text text-anchor="middle" x="53.95" y="-14.3" font-family="FreeSans" font-size="14.00" fill="#000000">X::IO::Cwd</text>
</a>
</g>
</g>
<!-- X::IO::Cwd&#45;&gt;Exception -->
<g id="edge5" class="edge">
<title>X::IO::Cwd&#45;&gt;Exception</title>
<path fill="none" stroke="#000000" d="M86.87,-32.45C188.1,-71.14 486.95,-180 486.95,-180 486.95,-180 698.56,-210.98 802.22,-225.57"/>
<polygon fill="#000000" stroke="#000000" points="801.82,-229.05 812.21,-226.97 802.79,-222.12 801.82,-229.05"/>
</g>
<!-- X::IO::Cwd&#45;&gt;Exception -->
<g id="edge6" class="edge">
<title>X::IO::Cwd&#45;&gt;Exception</title>
<path fill="none" stroke="#000000" d="M90.98,-31.1C198.96,-68.54 504.95,-180 504.95,-180 504.95,-180 704.4,-209.2 803.53,-224.25"/>
<polygon fill="#000000" stroke="#000000" points="803.25,-227.75 813.66,-225.8 804.3,-220.83 803.25,-227.75"/>
</g>
<!-- X::IO::Cwd&#45;&gt;X::IO -->
<g id="edge32" class="edge">
<title>X::IO::Cwd&#45;&gt;X::IO</title>
<path fill="none" stroke="#6666ff" d="M94.56,-29.96C106.75,-33.25 116.95,-36 116.95,-36 116.95,-36 631.29,-74.61 781.95,-85.92"/>
<polygon fill="#6666ff" stroke="#6666ff" points="781.92,-89.43 792.16,-86.69 782.45,-82.45 781.92,-89.43"/>
</g>
<!-- X::IO::Move -->
<g id="node7" class="node">
<title>X::IO::Move</title>
<g id="a_node7"><a xlink:href="/type/X::IO::Move" xlink:title="X::IO::Move">
<ellipse fill="none" stroke="#000000" cx="183.95" cy="-18" rx="57.69" ry="18"/>
<text text-anchor="middle" x="183.95" y="-14.3" font-family="FreeSans" font-size="14.00" fill="#000000">X::IO::Move</text>
</a>
</g>
</g>
<!-- X::IO::Move&#45;&gt;Exception -->
<g id="edge7" class="edge">
<title>X::IO::Move&#45;&gt;Exception</title>
<path fill="none" stroke="#000000" d="M215.27,-33.15C308.7,-72.43 577.95,-180 577.95,-180 577.95,-180 722.92,-208.35 804.32,-223.58"/>
<polygon fill="#000000" stroke="#000000" points="803.93,-227.07 814.4,-225.46 805.21,-220.19 803.93,-227.07"/>
</g>
<!-- X::IO::Move&#45;&gt;Exception -->
<g id="edge8" class="edge">
<title>X::IO::Move&#45;&gt;Exception</title>
<path fill="none" stroke="#000000" d="M220.53,-32.04C321.52,-70.37 595.95,-180 595.95,-180 595.95,-180 730.52,-206.32 806.85,-221.86"/>
<polygon fill="#000000" stroke="#000000" points="806.27,-225.32 816.77,-223.89 807.67,-218.46 806.27,-225.32"/>
</g>
<!-- X::IO::Move&#45;&gt;X::IO -->
<g id="edge33" class="edge">
<title>X::IO::Move&#45;&gt;X::IO</title>
<path fill="none" stroke="#6666ff" d="M227.23,-30.15C239.67,-33.35 249.95,-36 249.95,-36 249.95,-36 651.1,-73.1 782.1,-85.22"/>
<polygon fill="#6666ff" stroke="#6666ff" points="781.86,-88.71 792.14,-86.15 782.5,-81.74 781.86,-88.71"/>
</g>
<!-- X::IO::Rename -->
<g id="node8" class="node">
<title>X::IO::Rename</title>
<g id="a_node8"><a xlink:href="/type/X::IO::Rename" xlink:title="X::IO::Rename">
<ellipse fill="none" stroke="#000000" cx="328.95" cy="-18" rx="69.59" ry="18"/>
<text text-anchor="middle" x="328.95" y="-14.3" font-family="FreeSans" font-size="14.00" fill="#000000">X::IO::Rename</text>
</a>
</g>
</g>
<!-- X::IO::Rename&#45;&gt;Exception -->
<g id="edge9" class="edge">
<title>X::IO::Rename&#45;&gt;Exception</title>
<path fill="none" stroke="#000000" d="M356.92,-34.58C435.75,-74.99 652.95,-180 652.95,-180 652.95,-180 746.79,-205.38 807.59,-221.01"/>
<polygon fill="#000000" stroke="#000000" points="806.86,-224.44 817.41,-223.52 808.59,-217.65 806.86,-224.44"/>
</g>
<!-- X::IO::Rename&#45;&gt;Exception -->
<g id="edge10" class="edge">
<title>X::IO::Rename&#45;&gt;Exception</title>
<path fill="none" stroke="#000000" d="M363.53,-33.71C450.58,-73.46 670.95,-180 670.95,-180 670.95,-180 756.7,-203.19 812.16,-218.89"/>
<polygon fill="#000000" stroke="#000000" points="811.22,-222.26 821.8,-221.63 813.13,-215.53 811.22,-222.26"/>
</g>
<!-- X::IO::Rename&#45;&gt;X::IO -->
<g id="edge34" class="edge">
<title>X::IO::Rename&#45;&gt;X::IO</title>
<path fill="none" stroke="#6666ff" d="M380.76,-30.15C395.65,-33.35 407.95,-36 407.95,-36 407.95,-36 678.37,-70.54 782.63,-83.85"/>
<polygon fill="#6666ff" stroke="#6666ff" points="782.4,-87.35 792.77,-85.15 783.29,-80.41 782.4,-87.35"/>
</g>
<!-- X::IO::Link -->
<g id="node9" class="node">
<title>X::IO::Link</title>
<g id="a_node9"><a xlink:href="/type/X::IO::Link" xlink:title="X::IO::Link">
<ellipse fill="none" stroke="#000000" cx="469.95" cy="-18" rx="53.09" ry="18"/>
<text text-anchor="middle" x="469.95" y="-14.3" font-family="FreeSans" font-size="14.00" fill="#000000">X::IO::Link</text>
</a>
</g>
</g>
<!-- X::IO::Link&#45;&gt;Exception -->
<g id="edge11" class="edge">
<title>X::IO::Link&#45;&gt;Exception</title>
<path fill="none" stroke="#000000" d="M490,-34.73C547.93,-75.24 709.95,-180 709.95,-180 709.95,-180 768.68,-202.4 812.26,-218.07"/>
<polygon fill="#000000" stroke="#000000" points="811.27,-221.43 821.86,-221.5 813.62,-214.84 811.27,-221.43"/>
</g>
<!-- X::IO::Link&#45;&gt;Exception -->
<g id="edge12" class="edge">
<title>X::IO::Link&#45;&gt;Exception</title>
<path fill="none" stroke="#000000" d="M497.1,-33.86C563.57,-73.71 727.95,-180 727.95,-180 727.95,-180 780.65,-200.1 819.05,-215.54"/>
<polygon fill="#000000" stroke="#000000" points="817.88,-218.84 828.47,-219.35 820.51,-212.35 817.88,-218.84"/>
</g>
<!-- X::IO::Link&#45;&gt;X::IO -->
<g id="edge35" class="edge">
<title>X::IO::Link&#45;&gt;X::IO</title>
<path fill="none" stroke="#6666ff" d="M510.2,-29.86C522.55,-33.19 532.95,-36 532.95,-36 532.95,-36 704.1,-67.28 783.44,-81.78"/>
<polygon fill="#6666ff" stroke="#6666ff" points="783.08,-85.27 793.54,-83.63 784.33,-78.39 783.08,-85.27"/>
</g>
<!-- X::IO::Dir -->
<g id="node10" class="node">
<title>X::IO::Dir</title>
<g id="a_node10"><a xlink:href="/type/X::IO::Dir" xlink:title="X::IO::Dir">
<ellipse fill="none" stroke="#000000" cx="588.95" cy="-18" rx="47.39" ry="18"/>
<text text-anchor="middle" x="588.95" y="-14.3" font-family="FreeSans" font-size="14.00" fill="#000000">X::IO::Dir</text>
</a>
</g>
</g>
<!-- X::IO::Dir&#45;&gt;Exception -->
<g id="edge13" class="edge">
<title>X::IO::Dir&#45;&gt;Exception</title>
<path fill="none" stroke="#000000" d="M601.84,-35.32C640.4,-76.25 749.95,-180 749.95,-180 749.95,-180 786.86,-199.76 817.66,-215.15"/>
<polygon fill="#000000" stroke="#000000" points="816.46,-218.46 826.97,-219.76 819.56,-212.19 816.46,-218.46"/>
</g>
<!-- X::IO::Dir&#45;&gt;Exception -->
<g id="edge14" class="edge">
<title>X::IO::Dir&#45;&gt;Exception</title>
<path fill="none" stroke="#000000" d="M609.49,-34.44C656.8,-74.73 767.95,-180 767.95,-180 767.95,-180 800.85,-197.62 827,-212.54"/>
<polygon fill="#000000" stroke="#000000" points="825.49,-215.71 835.9,-217.67 828.99,-209.64 825.49,-215.71"/>
</g>
<!-- X::IO::Dir&#45;&gt;X::IO -->
<g id="edge36" class="edge">
<title>X::IO::Dir&#45;&gt;X::IO</title>
<path fill="none" stroke="#6666ff" d="M624.73,-29.86C635.7,-33.19 644.95,-36 644.95,-36 644.95,-36 733.86,-62.48 786.01,-78"/>
<polygon fill="#6666ff" stroke="#6666ff" points="785.33,-81.45 795.91,-80.95 787.33,-74.74 785.33,-81.45"/>
</g>
<!-- X::IO::Rmdir -->
<g id="node11" class="node">
<title>X::IO::Rmdir</title>
<g id="a_node11"><a xlink:href="/type/X::IO::Rmdir" xlink:title="X::IO::Rmdir">
<ellipse fill="none" stroke="#000000" cx="713.95" cy="-18" rx="59.59" ry="18"/>
<text text-anchor="middle" x="713.95" y="-14.3" font-family="FreeSans" font-size="14.00" fill="#000000">X::IO::Rmdir</text>
</a>
</g>
</g>
<!-- X::IO::Rmdir&#45;&gt;Exception -->
<g id="edge15" class="edge">
<title>X::IO::Rmdir&#45;&gt;Exception</title>
<path fill="none" stroke="#000000" d="M716.13,-36.23C727.57,-77.76 766.95,-180 766.95,-180 766.95,-180 795.88,-198.7 821.26,-213.89"/>
<polygon fill="#000000" stroke="#000000" points="819.65,-217 830.04,-219.07 823.21,-210.97 819.65,-217"/>
</g>
<!-- X::IO::Rmdir&#45;&gt;Exception -->
<g id="edge16" class="edge">
<title>X::IO::Rmdir&#45;&gt;Exception</title>
<path fill="none" stroke="#000000" d="M724.88,-35.93C745.38,-77.26 784.95,-180 784.95,-180 784.95,-180 810.63,-196.6 831.67,-211.22"/>
<polygon fill="#000000" stroke="#000000" points="829.83,-214.2 840.02,-217.1 833.86,-208.48 829.83,-214.2"/>
</g>
<!-- X::IO::Rmdir&#45;&gt;X::IO -->
<g id="edge37" class="edge">
<title>X::IO::Rmdir&#45;&gt;X::IO</title>
<path fill="none" stroke="#6666ff" d="M738.14,-34.54C754.69,-45.17 776.72,-59.32 794.18,-70.53"/>
<polygon fill="#6666ff" stroke="#6666ff" points="792.53,-73.63 802.84,-76.09 796.31,-67.74 792.53,-73.63"/>
</g>
<!-- X::IO::DoesNotExist -->
<g id="node12" class="node">
<title>X::IO::DoesNotExist</title>
<g id="a_node12"><a xlink:href="/type/X::IO::DoesNotExist" xlink:title="X::IO::DoesNotExist">
<ellipse fill="none" stroke="#000000" cx="880.95" cy="-18" rx="89.88" ry="18"/>
<text text-anchor="middle" x="880.95" y="-14.3" font-family="FreeSans" font-size="14.00" fill="#000000">X::IO::DoesNotExist</text>
</a>
</g>
</g>
<!-- X::IO::DoesNotExist&#45;&gt;Exception -->
<g id="edge17" class="edge">
<title>X::IO::DoesNotExist&#45;&gt;Exception</title>
<path fill="none" stroke="#000000" d="M874.89,-36.23C866.47,-77.76 856.95,-180 856.95,-180 856.95,-180 855.02,-192.73 854.12,-205.71"/>
<polygon fill="#000000" stroke="#000000" points="850.62,-205.8 853.68,-215.94 857.61,-206.1 850.62,-205.8"/>
</g>
<!-- X::IO::DoesNotExist&#45;&gt;Exception -->
<g id="edge18" class="edge">
<title>X::IO::DoesNotExist&#45;&gt;Exception</title>
<path fill="none" stroke="#000000" d="M883.79,-36.23C884.47,-77.76 874.95,-180 874.95,-180 874.95,-180 872.96,-193.15 869.86,-206.34"/>
<polygon fill="#000000" stroke="#000000" points="866.42,-205.67 867.28,-216.23 873.19,-207.44 866.42,-205.67"/>
</g>
<!-- X::IO::DoesNotExist&#45;&gt;X::IO -->
<g id="edge38" class="edge">
<title>X::IO::DoesNotExist&#45;&gt;X::IO</title>
<path fill="none" stroke="#6666ff" d="M866.91,-35.95C859.57,-44.8 850.48,-55.77 842.47,-65.43"/>
<polygon fill="#6666ff" stroke="#6666ff" points="839.75,-63.24 836.06,-73.17 845.14,-67.7 839.75,-63.24"/>
</g>
<!-- X::IO::Unlink -->
<g id="node13" class="node">
<title>X::IO::Unlink</title>
<g id="a_node13"><a xlink:href="/type/X::IO::Unlink" xlink:title="X::IO::Unlink">
<ellipse fill="none" stroke="#000000" cx="1049.95" cy="-18" rx="61.19" ry="18"/>
<text text-anchor="middle" x="1049.95" y="-14.3" font-family="FreeSans" font-size="14.00" fill="#000000">X::IO::Unlink</text>
</a>
</g>
</g>
<!-- X::IO::Unlink&#45;&gt;Exception -->
<g id="edge19" class="edge">
<title>X::IO::Unlink&#45;&gt;Exception</title>
<path fill="none" stroke="#000000" d="M1031.39,-35.44C994.22,-72.77 912.03,-164.12 875.61,-208.29"/>
<polygon fill="#000000" stroke="#000000" points="872.76,-206.25 869.16,-216.21 878.19,-210.66 872.76,-206.25"/>
</g>
<!-- X::IO::Unlink&#45;&gt;Exception -->
<g id="edge20" class="edge">
<title>X::IO::Unlink&#45;&gt;Exception</title>
<path fill="none" stroke="#000000" d="M1038.72,-35.79C1008.3,-73.81 925.3,-166.52 883.05,-209.9"/>
<polygon fill="#000000" stroke="#000000" points="880.43,-207.58 875.9,-217.16 885.42,-212.49 880.43,-207.58"/>
</g>
<!-- X::IO::Unlink&#45;&gt;X::IO -->
<g id="edge39" class="edge">
<title>X::IO::Unlink&#45;&gt;X::IO</title>
<path fill="none" stroke="#6666ff" d="M1009.36,-31.51C966.83,-44.63 900.61,-65.05 859.61,-77.69"/>
<polygon fill="#6666ff" stroke="#6666ff" points="858.54,-74.36 850.01,-80.65 860.6,-81.05 858.54,-74.36"/>
</g>
<!-- X::IO::Mkdir -->
<g id="node14" class="node">
<title>X::IO::Mkdir</title>
<g id="a_node14"><a xlink:href="/type/X::IO::Mkdir" xlink:title="X::IO::Mkdir">
<ellipse fill="none" stroke="#000000" cx="1187.95" cy="-18" rx="58.49" ry="18"/>
<text text-anchor="middle" x="1187.95" y="-14.3" font-family="FreeSans" font-size="14.00" fill="#000000">X::IO::Mkdir</text>
</a>
</g>
</g>
<!-- X::IO::Mkdir&#45;&gt;Exception -->
<g id="edge21" class="edge">
<title>X::IO::Mkdir&#45;&gt;Exception</title>
<path fill="none" stroke="#000000" d="M1160.97,-34.15C1095.94,-74.23 936.95,-180 936.95,-180 936.95,-180 908.55,-197.1 885.67,-211.88"/>
<polygon fill="#000000" stroke="#000000" points="883.69,-208.98 877.24,-217.38 887.52,-214.84 883.69,-208.98"/>
</g>
<!-- X::IO::Mkdir&#45;&gt;Exception -->
<g id="edge22" class="edge">
<title>X::IO::Mkdir&#45;&gt;Exception</title>
<path fill="none" stroke="#000000" d="M1168.17,-35.03C1111.65,-75.75 954.95,-180 954.95,-180 954.95,-180 923.25,-199.09 895.96,-214.35"/>
<polygon fill="#000000" stroke="#000000" points="893.98,-211.45 886.93,-219.35 897.37,-217.57 893.98,-211.45"/>
</g>
<!-- X::IO::Mkdir&#45;&gt;X::IO -->
<g id="edge40" class="edge">
<title>X::IO::Mkdir&#45;&gt;X::IO</title>
<path fill="none" stroke="#6666ff" d="M1144.11,-29.96C1130.95,-33.25 1119.95,-36 1119.95,-36 1119.95,-36 943.38,-67.51 862.52,-81.94"/>
<polygon fill="#6666ff" stroke="#6666ff" points="861.47,-78.57 852.24,-83.77 862.69,-85.46 861.47,-78.57"/>
</g>
<!-- X::IO::Copy -->
<g id="node15" class="node">
<title>X::IO::Copy</title>
<g id="a_node15"><a xlink:href="/type/X::IO::Copy" xlink:title="X::IO::Copy">
<ellipse fill="none" stroke="#000000" cx="1320.95" cy="-18" rx="56.59" ry="18"/>
<text text-anchor="middle" x="1320.95" y="-14.3" font-family="FreeSans" font-size="14.00" fill="#000000">X::IO::Copy</text>
</a>
</g>
</g>
<!-- X::IO::Copy&#45;&gt;Exception -->
<g id="edge23" class="edge">
<title>X::IO::Copy&#45;&gt;Exception</title>
<path fill="none" stroke="#000000" d="M1288.9,-32.87C1205.12,-71.92 986.95,-180 986.95,-180 986.95,-180 934.62,-200.1 896.51,-215.54"/>
<polygon fill="#000000" stroke="#000000" points="895.1,-212.33 887.17,-219.35 897.75,-218.81 895.1,-212.33"/>
</g>
<!-- X::IO::Copy&#45;&gt;Exception -->
<g id="edge24" class="edge">
<title>X::IO::Copy&#45;&gt;Exception</title>
<path fill="none" stroke="#000000" d="M1294.85,-34C1218.98,-73.97 1004.95,-180 1004.95,-180 1004.95,-180 946.63,-202.4 903.34,-218.07"/>
<polygon fill="#000000" stroke="#000000" points="902.04,-214.82 893.81,-221.5 904.41,-221.41 902.04,-214.82"/>
</g>
<!-- X::IO::Copy&#45;&gt;X::IO -->
<g id="edge41" class="edge">
<title>X::IO::Copy&#45;&gt;X::IO</title>
<path fill="none" stroke="#6666ff" d="M1278.4,-29.96C1265.63,-33.25 1254.95,-36 1254.95,-36 1254.95,-36 970.89,-70.85 863.45,-84.03"/>
<polygon fill="#6666ff" stroke="#6666ff" points="862.82,-80.58 853.32,-85.27 863.67,-87.53 862.82,-80.58"/>
</g>
<!-- X::IO::Chdir -->
<g id="node16" class="node">
<title>X::IO::Chdir</title>
<g id="a_node16"><a xlink:href="/type/X::IO::Chdir" xlink:title="X::IO::Chdir">
<ellipse fill="none" stroke="#000000" cx="1452.95" cy="-18" rx="57.39" ry="18"/>
<text text-anchor="middle" x="1452.95" y="-14.3" font-family="FreeSans" font-size="14.00" fill="#000000">X::IO::Chdir</text>
</a>
</g>
</g>
<!-- X::IO::Chdir&#45;&gt;Exception -->
<g id="edge25" class="edge">
<title>X::IO::Chdir&#45;&gt;Exception</title>
<path fill="none" stroke="#000000" d="M1416.77,-32.04C1316.96,-70.37 1045.95,-180 1045.95,-180 1045.95,-180 959.75,-203.19 904,-218.89"/>
<polygon fill="#000000" stroke="#000000" points="902.98,-215.54 894.31,-221.63 904.88,-222.28 902.98,-215.54"/>
</g>
<!-- X::IO::Chdir&#45;&gt;Exception -->
<g id="edge26" class="edge">
<title>X::IO::Chdir&#45;&gt;Exception</title>
<path fill="none" stroke="#000000" d="M1421.73,-33.29C1329.22,-72.69 1063.95,-180 1063.95,-180 1063.95,-180 969.62,-205.38 908.53,-221.01"/>
<polygon fill="#000000" stroke="#000000" points="907.48,-217.66 898.66,-223.52 909.21,-224.45 907.48,-217.66"/>
</g>
<!-- X::IO::Chdir&#45;&gt;X::IO -->
<g id="edge42" class="edge">
<title>X::IO::Chdir&#45;&gt;X::IO</title>
<path fill="none" stroke="#6666ff" d="M1410.03,-30.05C1397.42,-33.3 1386.95,-36 1386.95,-36 1386.95,-36 993.78,-72.95 863.98,-85.14"/>
<polygon fill="#6666ff" stroke="#6666ff" points="863.3,-81.69 853.67,-86.11 863.95,-88.66 863.3,-81.69"/>
</g>
<!-- X::IO::Symlink -->
<g id="node17" class="node">
<title>X::IO::Symlink</title>
<g id="a_node17"><a xlink:href="/type/X::IO::Symlink" xlink:title="X::IO::Symlink">
<ellipse fill="none" stroke="#000000" cx="1595.95" cy="-18" rx="67.69" ry="18"/>
<text text-anchor="middle" x="1595.95" y="-14.3" font-family="FreeSans" font-size="14.00" fill="#000000">X::IO::Symlink</text>
</a>
</g>
</g>
<!-- X::IO::Symlink&#45;&gt;Exception -->
<g id="edge27" class="edge">
<title>X::IO::Symlink&#45;&gt;Exception</title>
<path fill="none" stroke="#000000" d="M1553.53,-32.04C1435.4,-70.37 1111.95,-180 1111.95,-180 1111.95,-180 982.91,-206 908.7,-221.58"/>
<polygon fill="#000000" stroke="#000000" points="907.67,-218.22 898.61,-223.71 909.11,-225.07 907.67,-218.22"/>
</g>
<!-- X::IO::Symlink&#45;&gt;Exception -->
<g id="edge28" class="edge">
<title>X::IO::Symlink&#45;&gt;Exception</title>
<path fill="none" stroke="#000000" d="M1558.29,-33.15C1447.3,-72.43 1129.95,-180 1129.95,-180 1129.95,-180 990.33,-208.14 911.06,-223.41"/>
<polygon fill="#000000" stroke="#000000" points="910.4,-219.97 901.24,-225.29 911.72,-226.85 910.4,-219.97"/>
</g>
<!-- X::IO::Symlink&#45;&gt;X::IO -->
<g id="edge43" class="edge">
<title>X::IO::Symlink&#45;&gt;X::IO</title>
<path fill="none" stroke="#6666ff" d="M1545.44,-30.15C1530.93,-33.35 1518.95,-36 1518.95,-36 1518.95,-36 1013.02,-74.53 863.86,-85.88"/>
<polygon fill="#6666ff" stroke="#6666ff" points="863.45,-82.4 853.75,-86.65 863.99,-89.38 863.45,-82.4"/>
</g>
<!-- X::IO::Chmod -->
<g id="node18" class="node">
<title>X::IO::Chmod</title>
<g id="a_node18"><a xlink:href="/type/X::IO::Chmod" xlink:title="X::IO::Chmod">
<ellipse fill="none" stroke="#000000" cx="1745.95" cy="-18" rx="64.19" ry="18"/>
<text text-anchor="middle" x="1745.95" y="-14.3" font-family="FreeSans" font-size="14.00" fill="#000000">X::IO::Chmod</text>
</a>
</g>
</g>
<!-- X::IO::Chmod&#45;&gt;Exception -->
<g id="edge29" class="edge">
<title>X::IO::Chmod&#45;&gt;Exception</title>
<path fill="none" stroke="#000000" d="M1701.26,-30.97C1568.59,-68.28 1186.95,-180 1186.95,-180 1186.95,-180 1004.75,-208.57 911.45,-223.76"/>
<polygon fill="#000000" stroke="#000000" points="910.66,-220.34 901.35,-225.41 911.78,-227.25 910.66,-220.34"/>
</g>
<!-- X::IO::Chmod&#45;&gt;Exception -->
<g id="edge30" class="edge">
<title>X::IO::Chmod&#45;&gt;Exception</title>
<path fill="none" stroke="#000000" d="M1705.35,-32.04C1579.47,-70.37 1204.95,-180 1204.95,-180 1204.95,-180 1011.54,-210.33 913.44,-225.1"/>
<polygon fill="#000000" stroke="#000000" points="912.76,-221.66 903.39,-226.61 913.8,-228.58 912.76,-221.66"/>
</g>
<!-- X::IO::Chmod&#45;&gt;X::IO -->
<g id="edge44" class="edge">
<title>X::IO::Chmod&#45;&gt;X::IO</title>
<path fill="none" stroke="#6666ff" d="M1698.07,-30.15C1684.31,-33.35 1672.95,-36 1672.95,-36 1672.95,-36 1033.86,-75.85 863.99,-86.44"/>
<polygon fill="#6666ff" stroke="#6666ff" points="863.71,-82.95 853.95,-87.07 864.15,-89.94 863.71,-82.95"/>
</g>
</g>
</svg>
