<?xml version="1.0" encoding="UTF-8" standalone="no"?>
<!DOCTYPE svg PUBLIC "-//W3C//DTD SVG 1.1//EN"
 "http://www.w3.org/Graphics/SVG/1.1/DTD/svg11.dtd">
<!-- Generated by graphviz version 2.43.0 (0)
 -->
<!-- Title: perl6&#45;type&#45;graph Pages: 1 -->
<svg width="1669pt" height="332pt"
 viewBox="0.00 0.00 1669.28 332.00" xmlns="http://www.w3.org/2000/svg" xmlns:xlink="http://www.w3.org/1999/xlink">
<g id="graph0" class="graph" transform="scale(1 1) rotate(0) translate(4 328)">
<title>perl6&#45;type&#45;graph</title>
<polygon fill="white" stroke="transparent" points="-4,4 -4,-328 1665.28,-328 1665.28,4 -4,4"/>
<!-- X::Proc::Async -->
<g id="node1" class="node">
<title>X::Proc::Async</title>
<g id="a_node1"><a xlink:href="/type/X::Proc::Async" xlink:title="X::Proc::Async">
<ellipse fill="none" stroke="#6666ff" cx="825.34" cy="-90" rx="68.49" ry="18"/>
<text text-anchor="middle" x="825.34" y="-86.3" font-family="FreeSans" font-size="14.00" fill="#6666ff">X::Proc::Async</text>
</a>
</g>
</g>
<!-- Exception -->
<g id="node4" class="node">
<title>Exception</title>
<g id="a_node4"><a xlink:href="/type/Exception" xlink:title="Exception">
<ellipse fill="none" stroke="#000000" cx="825.34" cy="-162" rx="49.29" ry="18"/>
<text text-anchor="middle" x="825.34" y="-158.3" font-family="FreeSans" font-size="14.00" fill="#000000">Exception</text>
</a>
</g>
</g>
<!-- X::Proc::Async&#45;&gt;Exception -->
<g id="edge1" class="edge">
<title>X::Proc::Async&#45;&gt;Exception</title>
<path fill="none" stroke="#000000" d="M825.34,-108.3C825.34,-116.02 825.34,-125.29 825.34,-133.89"/>
<polygon fill="#000000" stroke="#000000" points="821.84,-133.9 825.34,-143.9 828.84,-133.9 821.84,-133.9"/>
</g>
<!-- Mu -->
<g id="node2" class="node">
<title>Mu</title>
<g id="a_node2"><a xlink:href="/type/Mu" xlink:title="Mu">
<ellipse fill="none" stroke="#000000" cx="825.34" cy="-306" rx="27" ry="18"/>
<text text-anchor="middle" x="825.34" y="-302.3" font-family="FreeSans" font-size="14.00" fill="#000000">Mu</text>
</a>
</g>
</g>
<!-- Any -->
<g id="node3" class="node">
<title>Any</title>
<g id="a_node3"><a xlink:href="/type/Any" xlink:title="Any">
<ellipse fill="none" stroke="#000000" cx="825.34" cy="-234" rx="27" ry="18"/>
<text text-anchor="middle" x="825.34" y="-230.3" font-family="FreeSans" font-size="14.00" fill="#000000">Any</text>
</a>
</g>
</g>
<!-- Any&#45;&gt;Mu -->
<g id="edge2" class="edge">
<title>Any&#45;&gt;Mu</title>
<path fill="none" stroke="#000000" d="M825.34,-252.3C825.34,-260.02 825.34,-269.29 825.34,-277.89"/>
<polygon fill="#000000" stroke="#000000" points="821.84,-277.9 825.34,-287.9 828.84,-277.9 821.84,-277.9"/>
</g>
<!-- Exception&#45;&gt;Any -->
<g id="edge3" class="edge">
<title>Exception&#45;&gt;Any</title>
<path fill="none" stroke="#000000" d="M825.34,-180.3C825.34,-188.02 825.34,-197.29 825.34,-205.89"/>
<polygon fill="#000000" stroke="#000000" points="821.84,-205.9 825.34,-215.9 828.84,-205.9 821.84,-205.9"/>
</g>
<!-- X::Proc::Async::BindOrUse -->
<g id="node5" class="node">
<title>X::Proc::Async::BindOrUse</title>
<g id="a_node5"><a xlink:href="/type/X::Proc::Async::BindOrUse" xlink:title="X::Proc::Async::BindOrUse">
<ellipse fill="none" stroke="#000000" cx="116.34" cy="-18" rx="116.18" ry="18"/>
<text text-anchor="middle" x="116.34" y="-14.3" font-family="FreeSans" font-size="14.00" fill="#000000">X::Proc::Async::BindOrUse</text>
</a>
</g>
</g>
<!-- X::Proc::Async::BindOrUse&#45;&gt;X::Proc::Async -->
<g id="edge10" class="edge">
<title>X::Proc::Async::BindOrUse&#45;&gt;X::Proc::Async</title>
<path fill="none" stroke="#6666ff" d="M200.76,-30.48C223.21,-33.53 241.34,-36 241.34,-36 241.34,-36 595.12,-68.11 751.97,-82.34"/>
<polygon fill="#6666ff" stroke="#6666ff" points="751.73,-85.83 762.01,-83.25 752.37,-78.86 751.73,-85.83"/>
</g>
<!-- X::Proc::Async::BindOrUse&#45;&gt;Exception -->
<g id="edge4" class="edge">
<title>X::Proc::Async::BindOrUse&#45;&gt;Exception</title>
<path fill="none" stroke="#000000" d="M183.68,-32.81C305.58,-57.81 550.34,-108 550.34,-108 550.34,-108 692.97,-135.49 772.79,-150.87"/>
<polygon fill="#000000" stroke="#000000" points="772.19,-154.32 782.67,-152.78 773.52,-147.45 772.19,-154.32"/>
</g>
<!-- X::Proc::Async::OpenForWriting -->
<g id="node6" class="node">
<title>X::Proc::Async::OpenForWriting</title>
<g id="a_node6"><a xlink:href="/type/X::Proc::Async::OpenForWriting" xlink:title="X::Proc::Async::OpenForWriting">
<ellipse fill="none" stroke="#000000" cx="386.34" cy="-18" rx="135.68" ry="18"/>
<text text-anchor="middle" x="386.34" y="-14.3" font-family="FreeSans" font-size="14.00" fill="#000000">X::Proc::Async::OpenForWriting</text>
</a>
</g>
</g>
<!-- X::Proc::Async::OpenForWriting&#45;&gt;X::Proc::Async -->
<g id="edge11" class="edge">
<title>X::Proc::Async::OpenForWriting&#45;&gt;X::Proc::Async</title>
<path fill="none" stroke="#6666ff" d="M469.43,-32.25C553.17,-45.6 680.79,-65.95 758.3,-78.31"/>
<polygon fill="#6666ff" stroke="#6666ff" points="758,-81.81 768.43,-79.92 759.1,-74.89 758,-81.81"/>
</g>
<!-- X::Proc::Async::OpenForWriting&#45;&gt;Exception -->
<g id="edge5" class="edge">
<title>X::Proc::Async::OpenForWriting&#45;&gt;Exception</title>
<path fill="none" stroke="#000000" d="M435.42,-34.88C521.21,-62.62 697.17,-119.54 780.14,-146.38"/>
<polygon fill="#000000" stroke="#000000" points="779.2,-149.75 789.79,-149.5 781.35,-143.09 779.2,-149.75"/>
</g>
<!-- X::Proc::Async::CharsOrBytes -->
<g id="node7" class="node">
<title>X::Proc::Async::CharsOrBytes</title>
<g id="a_node7"><a xlink:href="/type/X::Proc::Async::CharsOrBytes" xlink:title="X::Proc::Async::CharsOrBytes">
<ellipse fill="none" stroke="#000000" cx="669.34" cy="-18" rx="128.88" ry="18"/>
<text text-anchor="middle" x="669.34" y="-14.3" font-family="FreeSans" font-size="14.00" fill="#000000">X::Proc::Async::CharsOrBytes</text>
</a>
</g>
</g>
<!-- X::Proc::Async::CharsOrBytes&#45;&gt;X::Proc::Async -->
<g id="edge12" class="edge">
<title>X::Proc::Async::CharsOrBytes&#45;&gt;X::Proc::Async</title>
<path fill="none" stroke="#6666ff" d="M705.91,-35.41C728.97,-45.76 758.83,-59.16 782.92,-69.97"/>
<polygon fill="#6666ff" stroke="#6666ff" points="781.63,-73.22 792.18,-74.12 784.49,-66.83 781.63,-73.22"/>
</g>
<!-- X::Proc::Async::CharsOrBytes&#45;&gt;Exception -->
<g id="edge6" class="edge">
<title>X::Proc::Async::CharsOrBytes&#45;&gt;Exception</title>
<path fill="none" stroke="#000000" d="M684.57,-36.16C707.53,-62.02 748.34,-108 748.34,-108 748.34,-108 773.27,-125.16 794.76,-139.95"/>
<polygon fill="#000000" stroke="#000000" points="792.85,-142.88 803.07,-145.67 796.82,-137.12 792.85,-142.88"/>
</g>
<!-- X::Proc::Async::TapBeforeSpawn -->
<g id="node8" class="node">
<title>X::Proc::Async::TapBeforeSpawn</title>
<g id="a_node8"><a xlink:href="/type/X::Proc::Async::TapBeforeSpawn" xlink:title="X::Proc::Async::TapBeforeSpawn">
<ellipse fill="none" stroke="#000000" cx="957.34" cy="-18" rx="141.88" ry="18"/>
<text text-anchor="middle" x="957.34" y="-14.3" font-family="FreeSans" font-size="14.00" fill="#000000">X::Proc::Async::TapBeforeSpawn</text>
</a>
</g>
</g>
<!-- X::Proc::Async::TapBeforeSpawn&#45;&gt;X::Proc::Async -->
<g id="edge13" class="edge">
<title>X::Proc::Async::TapBeforeSpawn&#45;&gt;X::Proc::Async</title>
<path fill="none" stroke="#6666ff" d="M926.06,-35.59C907.37,-45.5 883.48,-58.17 863.66,-68.68"/>
<polygon fill="#6666ff" stroke="#6666ff" points="861.78,-65.71 854.59,-73.49 865.06,-71.9 861.78,-65.71"/>
</g>
<!-- X::Proc::Async::TapBeforeSpawn&#45;&gt;Exception -->
<g id="edge7" class="edge">
<title>X::Proc::Async::TapBeforeSpawn&#45;&gt;Exception</title>
<path fill="none" stroke="#000000" d="M946.74,-36.16C930.75,-62.02 902.34,-108 902.34,-108 902.34,-108 877.41,-125.16 855.92,-139.95"/>
<polygon fill="#000000" stroke="#000000" points="853.86,-137.12 847.61,-145.67 857.83,-142.88 853.86,-137.12"/>
</g>
<!-- X::Proc::Async::AlreadyStarted -->
<g id="node9" class="node">
<title>X::Proc::Async::AlreadyStarted</title>
<g id="a_node9"><a xlink:href="/type/X::Proc::Async::AlreadyStarted" xlink:title="X::Proc::Async::AlreadyStarted">
<ellipse fill="none" stroke="#000000" cx="1248.34" cy="-18" rx="131.08" ry="18"/>
<text text-anchor="middle" x="1248.34" y="-14.3" font-family="FreeSans" font-size="14.00" fill="#000000">X::Proc::Async::AlreadyStarted</text>
</a>
</g>
</g>
<!-- X::Proc::Async::AlreadyStarted&#45;&gt;X::Proc::Async -->
<g id="edge14" class="edge">
<title>X::Proc::Async::AlreadyStarted&#45;&gt;X::Proc::Async</title>
<path fill="none" stroke="#6666ff" d="M1167.78,-32.33C1087.77,-45.57 966.53,-65.63 891.83,-78"/>
<polygon fill="#6666ff" stroke="#6666ff" points="890.91,-74.6 881.61,-79.69 892.05,-81.51 890.91,-74.6"/>
</g>
<!-- X::Proc::Async::AlreadyStarted&#45;&gt;Exception -->
<g id="edge8" class="edge">
<title>X::Proc::Async::AlreadyStarted&#45;&gt;Exception</title>
<path fill="none" stroke="#000000" d="M1201.05,-34.88C1118.87,-62.46 950.8,-118.88 870.28,-145.91"/>
<polygon fill="#000000" stroke="#000000" points="868.81,-142.71 860.45,-149.21 871.04,-149.35 868.81,-142.71"/>
</g>
<!-- X::Proc::Async::MustBeStarted -->
<g id="node10" class="node">
<title>X::Proc::Async::MustBeStarted</title>
<g id="a_node10"><a xlink:href="/type/X::Proc::Async::MustBeStarted" xlink:title="X::Proc::Async::MustBeStarted">
<ellipse fill="none" stroke="#000000" cx="1529.34" cy="-18" rx="131.88" ry="18"/>
<text text-anchor="middle" x="1529.34" y="-14.3" font-family="FreeSans" font-size="14.00" fill="#000000">X::Proc::Async::MustBeStarted</text>
</a>
</g>
</g>
<!-- X::Proc::Async::MustBeStarted&#45;&gt;X::Proc::Async -->
<g id="edge15" class="edge">
<title>X::Proc::Async::MustBeStarted&#45;&gt;X::Proc::Async</title>
<path fill="none" stroke="#6666ff" d="M1434.12,-30.48C1408.79,-33.53 1388.34,-36 1388.34,-36 1388.34,-36 1051.3,-67.73 898.77,-82.09"/>
<polygon fill="#6666ff" stroke="#6666ff" points="898.18,-78.63 888.56,-83.05 898.84,-85.6 898.18,-78.63"/>
</g>
<!-- X::Proc::Async::MustBeStarted&#45;&gt;Exception -->
<g id="edge9" class="edge">
<title>X::Proc::Async::MustBeStarted&#45;&gt;Exception</title>
<path fill="none" stroke="#000000" d="M1458.61,-33.27C1317.19,-61.79 1002.42,-125.28 877.7,-150.44"/>
<polygon fill="#000000" stroke="#000000" points="876.75,-147.06 867.64,-152.47 878.13,-153.92 876.75,-147.06"/>
</g>
</g>
</svg>
