<?xml version="1.0" encoding="UTF-8" standalone="no"?>
<!DOCTYPE svg PUBLIC "-//W3C//DTD SVG 1.1//EN"
 "http://www.w3.org/Graphics/SVG/1.1/DTD/svg11.dtd">
<!-- Generated by graphviz version 2.43.0 (0)
 -->
<!-- Title: perl6&#45;type&#45;graph Pages: 1 -->
<svg width="265pt" height="332pt"
 viewBox="0.00 0.00 264.54 332.00" xmlns="http://www.w3.org/2000/svg" xmlns:xlink="http://www.w3.org/1999/xlink">
<g id="graph0" class="graph" transform="scale(1 1) rotate(0) translate(4 328)">
<title>perl6&#45;type&#45;graph</title>
<polygon fill="white" stroke="transparent" points="-4,4 -4,-328 260.54,-328 260.54,4 -4,4"/>
<!-- Rat -->
<g id="node1" class="node">
<title>Rat</title>
<g id="a_node1"><a xlink:href="/type/Rat" xlink:title="Rat">
<ellipse fill="none" stroke="#000000" cx="97.2" cy="-90" rx="27" ry="18"/>
<text text-anchor="middle" x="97.2" y="-86.3" font-family="FreeSans" font-size="14.00" fill="#000000">Rat</text>
</a>
</g>
</g>
<!-- Cool -->
<g id="node4" class="node">
<title>Cool</title>
<g id="a_node4"><a xlink:href="/type/Cool" xlink:title="Cool">
<ellipse fill="none" stroke="#000000" cx="133.2" cy="-162" rx="28.7" ry="18"/>
<text text-anchor="middle" x="133.2" y="-158.3" font-family="FreeSans" font-size="14.00" fill="#000000">Cool</text>
</a>
</g>
</g>
<!-- Rat&#45;&gt;Cool -->
<g id="edge1" class="edge">
<title>Rat&#45;&gt;Cool</title>
<path fill="none" stroke="#000000" d="M105.55,-107.24C109.85,-115.6 115.19,-125.98 120.03,-135.39"/>
<polygon fill="#000000" stroke="#000000" points="116.96,-137.07 124.64,-144.37 123.18,-133.87 116.96,-137.07"/>
</g>
<!-- Rational -->
<g id="node7" class="node">
<title>Rational</title>
<g id="a_node7"><a xlink:href="/type/Rational" xlink:title="Rational">
<ellipse fill="none" stroke="#6666ff" cx="44.2" cy="-162" rx="42.79" ry="18"/>
<text text-anchor="middle" x="44.2" y="-158.3" font-family="FreeSans" font-size="14.00" fill="#6666ff">Rational</text>
</a>
</g>
</g>
<!-- Rat&#45;&gt;Rational -->
<g id="edge7" class="edge">
<title>Rat&#45;&gt;Rational</title>
<path fill="none" stroke="#6666ff" d="M85.43,-106.54C78.76,-115.35 70.26,-126.57 62.72,-136.54"/>
<polygon fill="#6666ff" stroke="#6666ff" points="59.91,-134.45 56.66,-144.53 65.49,-138.67 59.91,-134.45"/>
</g>
<!-- Mu -->
<g id="node2" class="node">
<title>Mu</title>
<g id="a_node2"><a xlink:href="/type/Mu" xlink:title="Mu">
<ellipse fill="none" stroke="#000000" cx="133.2" cy="-306" rx="27" ry="18"/>
<text text-anchor="middle" x="133.2" y="-302.3" font-family="FreeSans" font-size="14.00" fill="#000000">Mu</text>
</a>
</g>
</g>
<!-- Any -->
<g id="node3" class="node">
<title>Any</title>
<g id="a_node3"><a xlink:href="/type/Any" xlink:title="Any">
<ellipse fill="none" stroke="#000000" cx="133.2" cy="-234" rx="27" ry="18"/>
<text text-anchor="middle" x="133.2" y="-230.3" font-family="FreeSans" font-size="14.00" fill="#000000">Any</text>
</a>
</g>
</g>
<!-- Any&#45;&gt;Mu -->
<g id="edge2" class="edge">
<title>Any&#45;&gt;Mu</title>
<path fill="none" stroke="#000000" d="M133.2,-252.3C133.2,-260.02 133.2,-269.29 133.2,-277.89"/>
<polygon fill="#000000" stroke="#000000" points="129.7,-277.9 133.2,-287.9 136.7,-277.9 129.7,-277.9"/>
</g>
<!-- Cool&#45;&gt;Any -->
<g id="edge3" class="edge">
<title>Cool&#45;&gt;Any</title>
<path fill="none" stroke="#000000" d="M133.2,-180.3C133.2,-188.02 133.2,-197.29 133.2,-205.89"/>
<polygon fill="#000000" stroke="#000000" points="129.7,-205.9 133.2,-215.9 136.7,-205.9 129.7,-205.9"/>
</g>
<!-- Numeric -->
<g id="node5" class="node">
<title>Numeric</title>
<g id="a_node5"><a xlink:href="/type/Numeric" xlink:title="Numeric">
<ellipse fill="none" stroke="#6666ff" cx="44.2" cy="-306" rx="44.39" ry="18"/>
<text text-anchor="middle" x="44.2" y="-302.3" font-family="FreeSans" font-size="14.00" fill="#6666ff">Numeric</text>
</a>
</g>
</g>
<!-- Real -->
<g id="node6" class="node">
<title>Real</title>
<g id="a_node6"><a xlink:href="/type/Real" xlink:title="Real">
<ellipse fill="none" stroke="#6666ff" cx="44.2" cy="-234" rx="28.7" ry="18"/>
<text text-anchor="middle" x="44.2" y="-230.3" font-family="FreeSans" font-size="14.00" fill="#6666ff">Real</text>
</a>
</g>
</g>
<!-- Real&#45;&gt;Numeric -->
<g id="edge8" class="edge">
<title>Real&#45;&gt;Numeric</title>
<path fill="none" stroke="#6666ff" d="M44.2,-252.3C44.2,-260.02 44.2,-269.29 44.2,-277.89"/>
<polygon fill="#6666ff" stroke="#6666ff" points="40.7,-277.9 44.2,-287.9 47.7,-277.9 40.7,-277.9"/>
</g>
<!-- Rational&#45;&gt;Real -->
<g id="edge9" class="edge">
<title>Rational&#45;&gt;Real</title>
<path fill="none" stroke="#6666ff" d="M44.2,-180.3C44.2,-188.02 44.2,-197.29 44.2,-205.89"/>
<polygon fill="#6666ff" stroke="#6666ff" points="40.7,-205.9 44.2,-215.9 47.7,-205.9 40.7,-205.9"/>
</g>
<!-- Stringy -->
<g id="node8" class="node">
<title>Stringy</title>
<g id="a_node8"><a xlink:href="/type/Stringy" xlink:title="Stringy">
<ellipse fill="none" stroke="#6666ff" cx="218.2" cy="-162" rx="38.19" ry="18"/>
<text text-anchor="middle" x="218.2" y="-158.3" font-family="FreeSans" font-size="14.00" fill="#6666ff">Stringy</text>
</a>
</g>
</g>
<!-- Str -->
<g id="node9" class="node">
<title>Str</title>
<g id="a_node9"><a xlink:href="/type/Str" xlink:title="Str">
<ellipse fill="none" stroke="#000000" cx="169.2" cy="-90" rx="27" ry="18"/>
<text text-anchor="middle" x="169.2" y="-86.3" font-family="FreeSans" font-size="14.00" fill="#000000">Str</text>
</a>
</g>
</g>
<!-- Str&#45;&gt;Cool -->
<g id="edge4" class="edge">
<title>Str&#45;&gt;Cool</title>
<path fill="none" stroke="#000000" d="M160.85,-107.24C156.55,-115.6 151.2,-125.98 146.36,-135.39"/>
<polygon fill="#000000" stroke="#000000" points="143.21,-133.87 141.75,-144.37 149.44,-137.07 143.21,-133.87"/>
</g>
<!-- Str&#45;&gt;Stringy -->
<g id="edge10" class="edge">
<title>Str&#45;&gt;Stringy</title>
<path fill="none" stroke="#6666ff" d="M180.07,-106.54C186.18,-115.26 193.94,-126.35 200.86,-136.24"/>
<polygon fill="#6666ff" stroke="#6666ff" points="198.07,-138.35 206.67,-144.53 203.8,-134.33 198.07,-138.35"/>
</g>
<!-- RatStr -->
<g id="node10" class="node">
<title>RatStr</title>
<g id="a_node10"><a xlink:href="/type/RatStr" xlink:title="RatStr">
<ellipse fill="none" stroke="#000000" cx="133.2" cy="-18" rx="36" ry="18"/>
<text text-anchor="middle" x="133.2" y="-14.3" font-family="FreeSans" font-size="14.00" fill="#000000">RatStr</text>
</a>
</g>
</g>
<!-- RatStr&#45;&gt;Rat -->
<g id="edge5" class="edge">
<title>RatStr&#45;&gt;Rat</title>
<path fill="none" stroke="#000000" d="M124.66,-35.59C120.36,-43.96 115.05,-54.29 110.24,-63.63"/>
<polygon fill="#000000" stroke="#000000" points="107.13,-62.04 105.67,-72.53 113.35,-65.24 107.13,-62.04"/>
</g>
<!-- RatStr&#45;&gt;Str -->
<g id="edge6" class="edge">
<title>RatStr&#45;&gt;Str</title>
<path fill="none" stroke="#000000" d="M141.73,-35.59C146.03,-43.96 151.35,-54.29 156.15,-63.63"/>
<polygon fill="#000000" stroke="#000000" points="153.04,-65.24 160.73,-72.53 159.26,-62.04 153.04,-65.24"/>
</g>
</g>
</svg>
