<?xml version="1.0" encoding="UTF-8" standalone="no"?>
<!DOCTYPE svg PUBLIC "-//W3C//DTD SVG 1.1//EN"
 "http://www.w3.org/Graphics/SVG/1.1/DTD/svg11.dtd">
<!-- Generated by graphviz version 2.43.0 (0)
 -->
<!-- Title: perl6&#45;type&#45;graph Pages: 1 -->
<svg width="276pt" height="404pt"
 viewBox="0.00 0.00 275.54 404.00" xmlns="http://www.w3.org/2000/svg" xmlns:xlink="http://www.w3.org/1999/xlink">
<g id="graph0" class="graph" transform="scale(1 1) rotate(0) translate(4 400)">
<title>perl6&#45;type&#45;graph</title>
<polygon fill="white" stroke="transparent" points="-4,4 -4,-400 271.54,-400 271.54,4 -4,4"/>
<!-- X::Syntax::NegatedPair -->
<g id="node1" class="node">
<title>X::Syntax::NegatedPair</title>
<g id="a_node1"><a xlink:href="/type/X::Syntax::NegatedPair" xlink:title="X::Syntax::NegatedPair">
<ellipse fill="none" stroke="#000000" cx="102.69" cy="-18" rx="102.88" ry="18"/>
<text text-anchor="middle" x="102.69" y="-14.3" font-family="FreeSans" font-size="14.00" fill="#000000">X::Syntax::NegatedPair</text>
</a>
</g>
</g>
<!-- Exception -->
<g id="node4" class="node">
<title>Exception</title>
<g id="a_node4"><a xlink:href="/type/Exception" xlink:title="Exception">
<ellipse fill="none" stroke="#000000" cx="125.69" cy="-234" rx="49.29" ry="18"/>
<text text-anchor="middle" x="125.69" y="-230.3" font-family="FreeSans" font-size="14.00" fill="#000000">Exception</text>
</a>
</g>
</g>
<!-- X::Syntax::NegatedPair&#45;&gt;Exception -->
<g id="edge1" class="edge">
<title>X::Syntax::NegatedPair&#45;&gt;Exception</title>
<path fill="none" stroke="#000000" d="M100.66,-36.15C101.1,-73.34 110.33,-161.63 118.16,-206.23"/>
<polygon fill="#000000" stroke="#000000" points="114.72,-206.88 120.01,-216.06 121.6,-205.59 114.72,-206.88"/>
</g>
<!-- X::Syntax::NegatedPair&#45;&gt;Exception -->
<g id="edge2" class="edge">
<title>X::Syntax::NegatedPair&#45;&gt;Exception</title>
<path fill="none" stroke="#000000" d="M108.41,-36.15C115.93,-73.17 125.62,-160.82 127.44,-205.61"/>
<polygon fill="#000000" stroke="#000000" points="123.95,-205.87 127.72,-215.77 130.94,-205.67 123.95,-205.87"/>
</g>
<!-- X::Syntax -->
<g id="node6" class="node">
<title>X::Syntax</title>
<g id="a_node6"><a xlink:href="/type/X::Syntax" xlink:title="X::Syntax">
<ellipse fill="none" stroke="#6666ff" cx="187.69" cy="-90" rx="48.19" ry="18"/>
<text text-anchor="middle" x="187.69" y="-86.3" font-family="FreeSans" font-size="14.00" fill="#6666ff">X::Syntax</text>
</a>
</g>
</g>
<!-- X::Syntax::NegatedPair&#45;&gt;X::Syntax -->
<g id="edge7" class="edge">
<title>X::Syntax::NegatedPair&#45;&gt;X::Syntax</title>
<path fill="none" stroke="#6666ff" d="M123.27,-35.95C134.52,-45.22 148.61,-56.81 160.73,-66.8"/>
<polygon fill="#6666ff" stroke="#6666ff" points="158.81,-69.75 168.76,-73.41 163.26,-64.35 158.81,-69.75"/>
</g>
<!-- Mu -->
<g id="node2" class="node">
<title>Mu</title>
<g id="a_node2"><a xlink:href="/type/Mu" xlink:title="Mu">
<ellipse fill="none" stroke="#000000" cx="125.69" cy="-378" rx="27" ry="18"/>
<text text-anchor="middle" x="125.69" y="-374.3" font-family="FreeSans" font-size="14.00" fill="#000000">Mu</text>
</a>
</g>
</g>
<!-- Any -->
<g id="node3" class="node">
<title>Any</title>
<g id="a_node3"><a xlink:href="/type/Any" xlink:title="Any">
<ellipse fill="none" stroke="#000000" cx="125.69" cy="-306" rx="27" ry="18"/>
<text text-anchor="middle" x="125.69" y="-302.3" font-family="FreeSans" font-size="14.00" fill="#000000">Any</text>
</a>
</g>
</g>
<!-- Any&#45;&gt;Mu -->
<g id="edge3" class="edge">
<title>Any&#45;&gt;Mu</title>
<path fill="none" stroke="#000000" d="M125.69,-324.3C125.69,-332.02 125.69,-341.29 125.69,-349.89"/>
<polygon fill="#000000" stroke="#000000" points="122.19,-349.9 125.69,-359.9 129.19,-349.9 122.19,-349.9"/>
</g>
<!-- Exception&#45;&gt;Any -->
<g id="edge4" class="edge">
<title>Exception&#45;&gt;Any</title>
<path fill="none" stroke="#000000" d="M125.69,-252.3C125.69,-260.02 125.69,-269.29 125.69,-277.89"/>
<polygon fill="#000000" stroke="#000000" points="122.19,-277.9 125.69,-287.9 129.19,-277.9 122.19,-277.9"/>
</g>
<!-- X::Comp -->
<g id="node5" class="node">
<title>X::Comp</title>
<g id="a_node5"><a xlink:href="/type/X::Comp" xlink:title="X::Comp">
<ellipse fill="none" stroke="#6666ff" cx="222.69" cy="-162" rx="44.69" ry="18"/>
<text text-anchor="middle" x="222.69" y="-158.3" font-family="FreeSans" font-size="14.00" fill="#6666ff">X::Comp</text>
</a>
</g>
</g>
<!-- X::Comp&#45;&gt;Exception -->
<g id="edge5" class="edge">
<title>X::Comp&#45;&gt;Exception</title>
<path fill="none" stroke="#000000" d="M201.64,-178.19C188.14,-187.94 170.39,-200.74 155.45,-211.52"/>
<polygon fill="#000000" stroke="#000000" points="153.09,-208.91 147.03,-217.6 157.19,-214.59 153.09,-208.91"/>
</g>
<!-- X::Syntax&#45;&gt;Exception -->
<g id="edge6" class="edge">
<title>X::Syntax&#45;&gt;Exception</title>
<path fill="none" stroke="#000000" d="M180.34,-107.85C169.66,-132.29 149.78,-177.83 137.17,-206.71"/>
<polygon fill="#000000" stroke="#000000" points="133.83,-205.61 133.04,-216.18 140.25,-208.41 133.83,-205.61"/>
</g>
<!-- X::Syntax&#45;&gt;X::Comp -->
<g id="edge8" class="edge">
<title>X::Syntax&#45;&gt;X::Comp</title>
<path fill="none" stroke="#6666ff" d="M196.16,-107.95C200.25,-116.11 205.24,-126.09 209.78,-135.18"/>
<polygon fill="#6666ff" stroke="#6666ff" points="206.69,-136.83 214.3,-144.21 212.95,-133.7 206.69,-136.83"/>
</g>
</g>
</svg>
