<?xml version="1.0" encoding="UTF-8" standalone="no"?>
<!DOCTYPE svg PUBLIC "-//W3C//DTD SVG 1.1//EN"
 "http://www.w3.org/Graphics/SVG/1.1/DTD/svg11.dtd">
<!-- Generated by graphviz version 2.43.0 (0)
 -->
<!-- Title: perl6&#45;type&#45;graph Pages: 1 -->
<svg width="1671pt" height="332pt"
 viewBox="0.00 0.00 1670.98 332.00" xmlns="http://www.w3.org/2000/svg" xmlns:xlink="http://www.w3.org/1999/xlink">
<g id="graph0" class="graph" transform="scale(1 1) rotate(0) translate(4 328)">
<title>perl6&#45;type&#45;graph</title>
<polygon fill="#ffffff" stroke="transparent" points="-4,4 -4,-328 1666.98,-328 1666.98,4 -4,4"/>
<!-- X::Proc::Async -->
<g id="node1" class="node">
<title>X::Proc::Async</title>
<g id="a_node1"><a xlink:href="/type/X::Proc::Async" xlink:title="X::Proc::Async">
<ellipse fill="none" stroke="#6666ff" cx="871.69" cy="-90" rx="68.49" ry="18"/>
<text text-anchor="middle" x="871.69" y="-86.3" font-family="FreeSans" font-size="14.00" fill="#6666ff">X::Proc::Async</text>
</a>
</g>
</g>
<!-- Exception -->
<g id="node4" class="node">
<title>Exception</title>
<g id="a_node4"><a xlink:href="/type/Exception" xlink:title="Exception">
<ellipse fill="none" stroke="#000000" cx="871.69" cy="-162" rx="49.29" ry="18"/>
<text text-anchor="middle" x="871.69" y="-158.3" font-family="FreeSans" font-size="14.00" fill="#000000">Exception</text>
</a>
</g>
</g>
<!-- X::Proc::Async&#45;&gt;Exception -->
<g id="edge1" class="edge">
<title>X::Proc::Async&#45;&gt;Exception</title>
<path fill="none" stroke="#000000" d="M871.69,-108.3C871.69,-116.02 871.69,-125.29 871.69,-133.89"/>
<polygon fill="#000000" stroke="#000000" points="868.19,-133.9 871.69,-143.9 875.19,-133.9 868.19,-133.9"/>
</g>
<!-- Mu -->
<g id="node2" class="node">
<title>Mu</title>
<g id="a_node2"><a xlink:href="/type/Mu" xlink:title="Mu">
<ellipse fill="none" stroke="#000000" cx="871.69" cy="-306" rx="27" ry="18"/>
<text text-anchor="middle" x="871.69" y="-302.3" font-family="FreeSans" font-size="14.00" fill="#000000">Mu</text>
</a>
</g>
</g>
<!-- Any -->
<g id="node3" class="node">
<title>Any</title>
<g id="a_node3"><a xlink:href="/type/Any" xlink:title="Any">
<ellipse fill="none" stroke="#000000" cx="871.69" cy="-234" rx="27" ry="18"/>
<text text-anchor="middle" x="871.69" y="-230.3" font-family="FreeSans" font-size="14.00" fill="#000000">Any</text>
</a>
</g>
</g>
<!-- Any&#45;&gt;Mu -->
<g id="edge2" class="edge">
<title>Any&#45;&gt;Mu</title>
<path fill="none" stroke="#000000" d="M871.69,-252.3C871.69,-260.02 871.69,-269.29 871.69,-277.89"/>
<polygon fill="#000000" stroke="#000000" points="868.19,-277.9 871.69,-287.9 875.19,-277.9 868.19,-277.9"/>
</g>
<!-- Exception&#45;&gt;Any -->
<g id="edge3" class="edge">
<title>Exception&#45;&gt;Any</title>
<path fill="none" stroke="#000000" d="M871.69,-180.3C871.69,-188.02 871.69,-197.29 871.69,-205.89"/>
<polygon fill="#000000" stroke="#000000" points="868.19,-205.9 871.69,-215.9 875.19,-205.9 868.19,-205.9"/>
</g>
<!-- X::Proc::Async::TapBeforeSpawn -->
<g id="node5" class="node">
<title>X::Proc::Async::TapBeforeSpawn</title>
<g id="a_node5"><a xlink:href="/type/X::Proc::Async::TapBeforeSpawn" xlink:title="X::Proc::Async::TapBeforeSpawn">
<ellipse fill="none" stroke="#000000" cx="141.69" cy="-18" rx="141.88" ry="18"/>
<text text-anchor="middle" x="141.69" y="-14.3" font-family="FreeSans" font-size="14.00" fill="#000000">X::Proc::Async::TapBeforeSpawn</text>
</a>
</g>
</g>
<!-- X::Proc::Async::TapBeforeSpawn&#45;&gt;X::Proc::Async -->
<g id="edge10" class="edge">
<title>X::Proc::Async::TapBeforeSpawn&#45;&gt;X::Proc::Async</title>
<path fill="none" stroke="#6666ff" d="M244.08,-30.53C271.01,-33.56 292.69,-36 292.69,-36 292.69,-36 642.58,-68.03 798.37,-82.29"/>
<polygon fill="#6666ff" stroke="#6666ff" points="798.07,-85.78 808.35,-83.2 798.71,-78.8 798.07,-85.78"/>
</g>
<!-- X::Proc::Async::TapBeforeSpawn&#45;&gt;Exception -->
<g id="edge4" class="edge">
<title>X::Proc::Async::TapBeforeSpawn&#45;&gt;Exception</title>
<path fill="none" stroke="#000000" d="M215.3,-33.4C344.07,-58.59 596.69,-108 596.69,-108 596.69,-108 739.32,-135.49 819.14,-150.87"/>
<polygon fill="#000000" stroke="#000000" points="818.54,-154.32 829.02,-152.78 819.86,-147.45 818.54,-154.32"/>
</g>
<!-- X::Proc::Async::MustBeStarted -->
<g id="node6" class="node">
<title>X::Proc::Async::MustBeStarted</title>
<g id="a_node6"><a xlink:href="/type/X::Proc::Async::MustBeStarted" xlink:title="X::Proc::Async::MustBeStarted">
<ellipse fill="none" stroke="#000000" cx="433.69" cy="-18" rx="131.88" ry="18"/>
<text text-anchor="middle" x="433.69" y="-14.3" font-family="FreeSans" font-size="14.00" fill="#000000">X::Proc::Async::MustBeStarted</text>
</a>
</g>
</g>
<!-- X::Proc::Async::MustBeStarted&#45;&gt;X::Proc::Async -->
<g id="edge11" class="edge">
<title>X::Proc::Async::MustBeStarted&#45;&gt;X::Proc::Async</title>
<path fill="none" stroke="#6666ff" d="M515.81,-32.13C599.38,-45.48 727.32,-65.93 804.88,-78.32"/>
<polygon fill="#6666ff" stroke="#6666ff" points="804.59,-81.82 815.02,-79.94 805.7,-74.91 804.59,-81.82"/>
</g>
<!-- X::Proc::Async::MustBeStarted&#45;&gt;Exception -->
<g id="edge5" class="edge">
<title>X::Proc::Async::MustBeStarted&#45;&gt;Exception</title>
<path fill="none" stroke="#000000" d="M482.23,-34.74C567.63,-62.43 743.53,-119.45 826.49,-146.35"/>
<polygon fill="#000000" stroke="#000000" points="825.54,-149.72 836.14,-149.47 827.7,-143.06 825.54,-149.72"/>
</g>
<!-- X::Proc::Async::OpenForWriting -->
<g id="node7" class="node">
<title>X::Proc::Async::OpenForWriting</title>
<g id="a_node7"><a xlink:href="/type/X::Proc::Async::OpenForWriting" xlink:title="X::Proc::Async::OpenForWriting">
<ellipse fill="none" stroke="#000000" cx="719.69" cy="-18" rx="135.68" ry="18"/>
<text text-anchor="middle" x="719.69" y="-14.3" font-family="FreeSans" font-size="14.00" fill="#000000">X::Proc::Async::OpenForWriting</text>
</a>
</g>
</g>
<!-- X::Proc::Async::OpenForWriting&#45;&gt;X::Proc::Async -->
<g id="edge12" class="edge">
<title>X::Proc::Async::OpenForWriting&#45;&gt;X::Proc::Async</title>
<path fill="none" stroke="#6666ff" d="M755.32,-35.41C777.69,-45.71 806.62,-59.04 830.05,-69.82"/>
<polygon fill="#6666ff" stroke="#6666ff" points="828.83,-73.12 839.38,-74.12 831.76,-66.76 828.83,-73.12"/>
</g>
<!-- X::Proc::Async::OpenForWriting&#45;&gt;Exception -->
<g id="edge6" class="edge">
<title>X::Proc::Async::OpenForWriting&#45;&gt;Exception</title>
<path fill="none" stroke="#000000" d="M734.15,-36.16C755.94,-62.02 794.69,-108 794.69,-108 794.69,-108 819.62,-125.16 841.11,-139.95"/>
<polygon fill="#000000" stroke="#000000" points="839.19,-142.88 849.42,-145.67 843.16,-137.12 839.19,-142.88"/>
</g>
<!-- X::Proc::Async::CharsOrBytes -->
<g id="node8" class="node">
<title>X::Proc::Async::CharsOrBytes</title>
<g id="a_node8"><a xlink:href="/type/X::Proc::Async::CharsOrBytes" xlink:title="X::Proc::Async::CharsOrBytes">
<ellipse fill="none" stroke="#000000" cx="1002.69" cy="-18" rx="128.88" ry="18"/>
<text text-anchor="middle" x="1002.69" y="-14.3" font-family="FreeSans" font-size="14.00" fill="#000000">X::Proc::Async::CharsOrBytes</text>
</a>
</g>
</g>
<!-- X::Proc::Async::CharsOrBytes&#45;&gt;X::Proc::Async -->
<g id="edge13" class="edge">
<title>X::Proc::Async::CharsOrBytes&#45;&gt;X::Proc::Async</title>
<path fill="none" stroke="#6666ff" d="M971.64,-35.59C953.09,-45.5 929.39,-58.17 909.72,-68.68"/>
<polygon fill="#6666ff" stroke="#6666ff" points="907.89,-65.69 900.71,-73.49 911.18,-71.86 907.89,-65.69"/>
</g>
<!-- X::Proc::Async::CharsOrBytes&#45;&gt;Exception -->
<g id="edge7" class="edge">
<title>X::Proc::Async::CharsOrBytes&#45;&gt;Exception</title>
<path fill="none" stroke="#000000" d="M992.28,-36.16C976.58,-62.02 948.69,-108 948.69,-108 948.69,-108 923.76,-125.16 902.27,-139.95"/>
<polygon fill="#000000" stroke="#000000" points="900.21,-137.12 893.96,-145.67 904.18,-142.88 900.21,-137.12"/>
</g>
<!-- X::Proc::Async::BindOrUse -->
<g id="node9" class="node">
<title>X::Proc::Async::BindOrUse</title>
<g id="a_node9"><a xlink:href="/type/X::Proc::Async::BindOrUse" xlink:title="X::Proc::Async::BindOrUse">
<ellipse fill="none" stroke="#000000" cx="1265.69" cy="-18" rx="116.18" ry="18"/>
<text text-anchor="middle" x="1265.69" y="-14.3" font-family="FreeSans" font-size="14.00" fill="#000000">X::Proc::Async::BindOrUse</text>
</a>
</g>
</g>
<!-- X::Proc::Async::BindOrUse&#45;&gt;X::Proc::Async -->
<g id="edge14" class="edge">
<title>X::Proc::Async::BindOrUse&#45;&gt;X::Proc::Async</title>
<path fill="none" stroke="#6666ff" d="M1192.5,-32C1119.11,-45.04 1007.17,-64.93 936.78,-77.44"/>
<polygon fill="#6666ff" stroke="#6666ff" points="935.94,-74.03 926.71,-79.22 937.17,-80.92 935.94,-74.03"/>
</g>
<!-- X::Proc::Async::BindOrUse&#45;&gt;Exception -->
<g id="edge8" class="edge">
<title>X::Proc::Async::BindOrUse&#45;&gt;Exception</title>
<path fill="none" stroke="#000000" d="M1222.02,-34.74C1146.18,-62.07 991.01,-118 915.25,-145.3"/>
<polygon fill="#000000" stroke="#000000" points="913.76,-142.12 905.54,-148.8 916.13,-148.7 913.76,-142.12"/>
</g>
<!-- X::Proc::Async::AlreadyStarted -->
<g id="node10" class="node">
<title>X::Proc::Async::AlreadyStarted</title>
<g id="a_node10"><a xlink:href="/type/X::Proc::Async::AlreadyStarted" xlink:title="X::Proc::Async::AlreadyStarted">
<ellipse fill="none" stroke="#000000" cx="1531.69" cy="-18" rx="131.08" ry="18"/>
<text text-anchor="middle" x="1531.69" y="-14.3" font-family="FreeSans" font-size="14.00" fill="#000000">X::Proc::Async::AlreadyStarted</text>
</a>
</g>
</g>
<!-- X::Proc::Async::AlreadyStarted&#45;&gt;X::Proc::Async -->
<g id="edge15" class="edge">
<title>X::Proc::Async::AlreadyStarted&#45;&gt;X::Proc::Async</title>
<path fill="none" stroke="#6666ff" d="M1436.47,-30.48C1411.14,-33.53 1390.69,-36 1390.69,-36 1390.69,-36 1086.7,-67.04 944.02,-81.61"/>
<polygon fill="#6666ff" stroke="#6666ff" points="943.63,-78.14 934.03,-82.63 944.34,-85.1 943.63,-78.14"/>
</g>
<!-- X::Proc::Async::AlreadyStarted&#45;&gt;Exception -->
<g id="edge9" class="edge">
<title>X::Proc::Async::AlreadyStarted&#45;&gt;Exception</title>
<path fill="none" stroke="#000000" d="M1464.46,-33.46C1332.31,-61.9 1041.26,-124.52 923.08,-149.94"/>
<polygon fill="#000000" stroke="#000000" points="922.23,-146.54 913.19,-152.07 923.7,-153.39 922.23,-146.54"/>
</g>
</g>
</svg>
