<?xml version="1.0" encoding="UTF-8" standalone="no"?>
<!DOCTYPE svg PUBLIC "-//W3C//DTD SVG 1.1//EN"
 "http://www.w3.org/Graphics/SVG/1.1/DTD/svg11.dtd">
<!-- Generated by graphviz version 2.43.0 (0)
 -->
<!-- Title: perl6&#45;type&#45;graph Pages: 1 -->
<svg width="1792pt" height="1492pt"
 viewBox="0.00 0.00 1791.87 1491.85" xmlns="http://www.w3.org/2000/svg" xmlns:xlink="http://www.w3.org/1999/xlink">
<g id="graph0" class="graph" transform="scale(1 1) rotate(0) translate(4 1487.85)">
<title>perl6&#45;type&#45;graph</title>
<polygon fill="white" stroke="transparent" points="-4,4 -4,-1487.85 1787.87,-1487.85 1787.87,4 -4,4"/>
<!-- Metamodel::MROBasedTypeChecking -->
<g id="node1" class="node">
<title>Metamodel::MROBasedTypeChecking</title>
<g id="a_node1"><a xlink:href="/type/Metamodel::MROBasedTypeChecking" xlink:title="Metamodel::MROBasedTypeChecking">
<ellipse fill="none" stroke="#6666ff" cx="726.89" cy="-418.55" rx="163.27" ry="18"/>
<text text-anchor="middle" x="726.89" y="-414.85" font-family="FreeSans" font-size="14.00" fill="#6666ff">Metamodel::MROBasedTypeChecking</text>
</a>
</g>
</g>
<!-- Mu -->
<g id="node2" class="node">
<title>Mu</title>
<g id="a_node2"><a xlink:href="/type/Mu" xlink:title="Mu">
<ellipse fill="none" stroke="#000000" cx="1756.87" cy="-369.2" rx="27" ry="18"/>
<text text-anchor="middle" x="1756.87" y="-365.5" font-family="FreeSans" font-size="14.00" fill="#000000">Mu</text>
</a>
</g>
</g>
<!-- Any -->
<g id="node3" class="node">
<title>Any</title>
<g id="a_node3"><a xlink:href="/type/Any" xlink:title="Any">
<ellipse fill="none" stroke="#000000" cx="1258.57" cy="-509.12" rx="27" ry="18"/>
<text text-anchor="middle" x="1258.57" y="-505.42" font-family="FreeSans" font-size="14.00" fill="#000000">Any</text>
</a>
</g>
</g>
<!-- Any&#45;&gt;Mu -->
<g id="edge1" class="edge">
<title>Any&#45;&gt;Mu</title>
<path fill="none" stroke="#000000" d="M1283.63,-502.08C1365.79,-479.01 1627.24,-405.59 1722.08,-378.96"/>
<polygon fill="#000000" stroke="#000000" points="1723.08,-382.32 1731.76,-376.24 1721.19,-375.58 1723.08,-382.32"/>
</g>
<!-- Metamodel::Naming -->
<g id="node4" class="node">
<title>Metamodel::Naming</title>
<g id="a_node4"><a xlink:href="/type/Metamodel::Naming" xlink:title="Metamodel::Naming">
<ellipse fill="none" stroke="#6666ff" cx="526.38" cy="-481.88" rx="90.18" ry="18"/>
<text text-anchor="middle" x="526.38" y="-478.18" font-family="FreeSans" font-size="14.00" fill="#6666ff">Metamodel::Naming</text>
</a>
</g>
</g>
<!-- Metamodel::Documenting -->
<g id="node5" class="node">
<title>Metamodel::Documenting</title>
<g id="a_node5"><a xlink:href="/type/Metamodel::Documenting" xlink:title="Metamodel::Documenting">
<ellipse fill="none" stroke="#6666ff" cx="744.58" cy="-154.34" rx="111.28" ry="18"/>
<text text-anchor="middle" x="744.58" y="-150.64" font-family="FreeSans" font-size="14.00" fill="#6666ff">Metamodel::Documenting</text>
</a>
</g>
</g>
<!-- Metamodel::Versioning -->
<g id="node6" class="node">
<title>Metamodel::Versioning</title>
<g id="a_node6"><a xlink:href="/type/Metamodel::Versioning" xlink:title="Metamodel::Versioning">
<ellipse fill="none" stroke="#6666ff" cx="394.76" cy="-183.84" rx="100.98" ry="18"/>
<text text-anchor="middle" x="394.76" y="-180.14" font-family="FreeSans" font-size="14.00" fill="#6666ff">Metamodel::Versioning</text>
</a>
</g>
</g>
<!-- Metamodel::Stashing -->
<g id="node7" class="node">
<title>Metamodel::Stashing</title>
<g id="a_node7"><a xlink:href="/type/Metamodel::Stashing" xlink:title="Metamodel::Stashing">
<ellipse fill="none" stroke="#6666ff" cx="963.46" cy="-468.32" rx="93.68" ry="18"/>
<text text-anchor="middle" x="963.46" y="-464.62" font-family="FreeSans" font-size="14.00" fill="#6666ff">Metamodel::Stashing</text>
</a>
</g>
</g>
<!-- Metamodel::AttributeContainer -->
<g id="node8" class="node">
<title>Metamodel::AttributeContainer</title>
<g id="a_node8"><a xlink:href="/type/Metamodel::AttributeContainer" xlink:title="Metamodel::AttributeContainer">
<ellipse fill="none" stroke="#6666ff" cx="1185.65" cy="-1013.09" rx="129.98" ry="18"/>
<text text-anchor="middle" x="1185.65" y="-1009.39" font-family="FreeSans" font-size="14.00" fill="#6666ff">Metamodel::AttributeContainer</text>
</a>
</g>
</g>
<!-- Metamodel::Finalization -->
<g id="node9" class="node">
<title>Metamodel::Finalization</title>
<g id="a_node9"><a xlink:href="/type/Metamodel::Finalization" xlink:title="Metamodel::Finalization">
<ellipse fill="none" stroke="#6666ff" cx="105.6" cy="-625.32" rx="103.98" ry="18"/>
<text text-anchor="middle" x="105.6" y="-621.62" font-family="FreeSans" font-size="14.00" fill="#6666ff">Metamodel::Finalization</text>
</a>
</g>
</g>
<!-- Metamodel::MethodContainer -->
<g id="node10" class="node">
<title>Metamodel::MethodContainer</title>
<g id="a_node10"><a xlink:href="/type/Metamodel::MethodContainer" xlink:title="Metamodel::MethodContainer">
<ellipse fill="none" stroke="#6666ff" cx="1248.06" cy="-843.42" rx="127.28" ry="18"/>
<text text-anchor="middle" x="1248.06" y="-839.72" font-family="FreeSans" font-size="14.00" fill="#6666ff">Metamodel::MethodContainer</text>
</a>
</g>
</g>
<!-- Metamodel::PrivateMethodContainer -->
<g id="node11" class="node">
<title>Metamodel::PrivateMethodContainer</title>
<g id="a_node11"><a xlink:href="/type/Metamodel::PrivateMethodContainer" xlink:title="Metamodel::PrivateMethodContainer">
<ellipse fill="none" stroke="#6666ff" cx="154.69" cy="-413.3" rx="154.87" ry="18"/>
<text text-anchor="middle" x="154.69" y="-409.6" font-family="FreeSans" font-size="14.00" fill="#6666ff">Metamodel::PrivateMethodContainer</text>
</a>
</g>
</g>
<!-- Metamodel::MultiMethodContainer -->
<g id="node12" class="node">
<title>Metamodel::MultiMethodContainer</title>
<g id="a_node12"><a xlink:href="/type/Metamodel::MultiMethodContainer" xlink:title="Metamodel::MultiMethodContainer">
<ellipse fill="none" stroke="#6666ff" cx="382.84" cy="-915.03" rx="146.47" ry="18"/>
<text text-anchor="middle" x="382.84" y="-911.33" font-family="FreeSans" font-size="14.00" fill="#6666ff">Metamodel::MultiMethodContainer</text>
</a>
</g>
</g>
<!-- Metamodel::RoleContainer -->
<g id="node13" class="node">
<title>Metamodel::RoleContainer</title>
<g id="a_node13"><a xlink:href="/type/Metamodel::RoleContainer" xlink:title="Metamodel::RoleContainer">
<ellipse fill="none" stroke="#6666ff" cx="999.89" cy="-1171.77" rx="115.88" ry="18"/>
<text text-anchor="middle" x="999.89" y="-1168.07" font-family="FreeSans" font-size="14.00" fill="#6666ff">Metamodel::RoleContainer</text>
</a>
</g>
</g>
<!-- Metamodel::MultipleInheritance -->
<g id="node14" class="node">
<title>Metamodel::MultipleInheritance</title>
<g id="a_node14"><a xlink:href="/type/Metamodel::MultipleInheritance" xlink:title="Metamodel::MultipleInheritance">
<ellipse fill="none" stroke="#6666ff" cx="1122.91" cy="-231.48" rx="133.78" ry="18"/>
<text text-anchor="middle" x="1122.91" y="-227.78" font-family="FreeSans" font-size="14.00" fill="#6666ff">Metamodel::MultipleInheritance</text>
</a>
</g>
</g>
<!-- Metamodel::DefaultParent -->
<g id="node15" class="node">
<title>Metamodel::DefaultParent</title>
<g id="a_node15"><a xlink:href="/type/Metamodel::DefaultParent" xlink:title="Metamodel::DefaultParent">
<ellipse fill="none" stroke="#6666ff" cx="817.78" cy="-1275.72" rx="113.18" ry="18"/>
<text text-anchor="middle" x="817.78" y="-1272.02" font-family="FreeSans" font-size="14.00" fill="#6666ff">Metamodel::DefaultParent</text>
</a>
</g>
</g>
<!-- Metamodel::C3MRO -->
<g id="node16" class="node">
<title>Metamodel::C3MRO</title>
<g id="a_node16"><a xlink:href="/type/Metamodel::C3MRO" xlink:title="Metamodel::C3MRO">
<ellipse fill="none" stroke="#6666ff" cx="535.15" cy="-79.6" rx="92.08" ry="18"/>
<text text-anchor="middle" x="535.15" y="-75.9" font-family="FreeSans" font-size="14.00" fill="#6666ff">Metamodel::C3MRO</text>
</a>
</g>
</g>
<!-- Metamodel::MROBasedMethodDispatch -->
<g id="node17" class="node">
<title>Metamodel::MROBasedMethodDispatch</title>
<g id="a_node17"><a xlink:href="/type/Metamodel::MROBasedMethodDispatch" xlink:title="Metamodel::MROBasedMethodDispatch">
<ellipse fill="none" stroke="#6666ff" cx="1103.11" cy="-567.78" rx="169.77" ry="18"/>
<text text-anchor="middle" x="1103.11" y="-564.08" font-family="FreeSans" font-size="14.00" fill="#6666ff">Metamodel::MROBasedMethodDispatch</text>
</a>
</g>
</g>
<!-- Metamodel::Trusting -->
<g id="node18" class="node">
<title>Metamodel::Trusting</title>
<g id="a_node18"><a xlink:href="/type/Metamodel::Trusting" xlink:title="Metamodel::Trusting">
<ellipse fill="none" stroke="#6666ff" cx="102.58" cy="-851.97" rx="91.78" ry="18"/>
<text text-anchor="middle" x="102.58" y="-848.27" font-family="FreeSans" font-size="14.00" fill="#6666ff">Metamodel::Trusting</text>
</a>
</g>
</g>
<!-- Metamodel::BUILDPLAN -->
<g id="node19" class="node">
<title>Metamodel::BUILDPLAN</title>
<g id="a_node19"><a xlink:href="/type/Metamodel::BUILDPLAN" xlink:title="Metamodel::BUILDPLAN">
<ellipse fill="none" stroke="#6666ff" cx="358.13" cy="-1090.95" rx="109.68" ry="18"/>
<text text-anchor="middle" x="358.13" y="-1087.25" font-family="FreeSans" font-size="14.00" fill="#6666ff">Metamodel::BUILDPLAN</text>
</a>
</g>
</g>
<!-- Metamodel::Mixins -->
<g id="node20" class="node">
<title>Metamodel::Mixins</title>
<g id="a_node20"><a xlink:href="/type/Metamodel::Mixins" xlink:title="Metamodel::Mixins">
<ellipse fill="none" stroke="#6666ff" cx="611.52" cy="-1240.15" rx="85.29" ry="18"/>
<text text-anchor="middle" x="611.52" y="-1236.45" font-family="FreeSans" font-size="14.00" fill="#6666ff">Metamodel::Mixins</text>
</a>
</g>
</g>
<!-- Metamodel::BoolificationProtocol -->
<g id="node21" class="node">
<title>Metamodel::BoolificationProtocol</title>
<g id="a_node21"><a xlink:href="/type/Metamodel::BoolificationProtocol" xlink:title="Metamodel::BoolificationProtocol">
<ellipse fill="none" stroke="#6666ff" cx="489.38" cy="-1183" rx="139.18" ry="18"/>
<text text-anchor="middle" x="489.38" y="-1179.3" font-family="FreeSans" font-size="14.00" fill="#6666ff">Metamodel::BoolificationProtocol</text>
</a>
</g>
</g>
<!-- Metamodel::ClassHOW -->
<g id="node22" class="node">
<title>Metamodel::ClassHOW</title>
<g id="a_node22"><a xlink:href="/type/Metamodel::ClassHOW" xlink:title="Metamodel::ClassHOW">
<ellipse fill="none" stroke="#000000" cx="687.29" cy="-707.38" rx="103.18" ry="18"/>
<text text-anchor="middle" x="687.29" y="-703.68" font-family="FreeSans" font-size="14.00" fill="#000000">Metamodel::ClassHOW</text>
</a>
</g>
</g>
<!-- Metamodel::ClassHOW&#45;&gt;Metamodel::MROBasedTypeChecking -->
<g id="edge19" class="edge">
<title>Metamodel::ClassHOW&#45;&gt;Metamodel::MROBasedTypeChecking</title>
<path fill="none" stroke="#6666ff" d="M689.76,-689.31C696.46,-640.48 714.95,-505.6 723.03,-446.69"/>
<polygon fill="#6666ff" stroke="#6666ff" points="726.52,-446.99 724.41,-436.61 719.59,-446.04 726.52,-446.99"/>
</g>
<!-- Metamodel::ClassHOW&#45;&gt;Any -->
<g id="edge2" class="edge">
<title>Metamodel::ClassHOW&#45;&gt;Any</title>
<path fill="none" stroke="#000000" d="M717.77,-689.98C783.34,-652.54 931.87,-567.72 931.87,-567.72 931.87,-567.72 982.37,-553.88 982.37,-553.88 982.37,-553.88 1147.1,-527.18 1222.13,-515.02"/>
<polygon fill="#000000" stroke="#000000" points="1222.78,-518.46 1232.09,-513.41 1221.66,-511.55 1222.78,-518.46"/>
</g>
<!-- Metamodel::ClassHOW&#45;&gt;Metamodel::Naming -->
<g id="edge5" class="edge">
<title>Metamodel::ClassHOW&#45;&gt;Metamodel::Naming</title>
<path fill="none" stroke="#6666ff" d="M674.39,-689.31C646.02,-649.54 578.08,-554.33 545.04,-508.04"/>
<polygon fill="#6666ff" stroke="#6666ff" points="547.77,-505.83 539.11,-499.73 542.07,-509.9 547.77,-505.83"/>
</g>
<!-- Metamodel::ClassHOW&#45;&gt;Metamodel::Documenting -->
<g id="edge6" class="edge">
<title>Metamodel::ClassHOW&#45;&gt;Metamodel::Documenting</title>
<path fill="none" stroke="#6666ff" d="M681.76,-689.32C665.39,-635.84 618.32,-482.02 618.32,-482.02 618.32,-482.02 562.16,-418.42 562.16,-418.42 562.16,-418.42 680.01,-247.82 726.26,-180.86"/>
<polygon fill="#6666ff" stroke="#6666ff" points="729.24,-182.71 732.04,-172.5 723.48,-178.73 729.24,-182.71"/>
</g>
<!-- Metamodel::ClassHOW&#45;&gt;Metamodel::Versioning -->
<g id="edge7" class="edge">
<title>Metamodel::ClassHOW&#45;&gt;Metamodel::Versioning</title>
<path fill="none" stroke="#6666ff" d="M681.76,-689.32C665.39,-635.84 618.32,-482.02 618.32,-482.02 618.32,-482.02 562.16,-418.42 562.16,-418.42 562.16,-418.42 457.38,-271.59 413.61,-210.26"/>
<polygon fill="#6666ff" stroke="#6666ff" points="416.28,-207.97 407.62,-201.86 410.58,-212.03 416.28,-207.97"/>
</g>
<!-- Metamodel::ClassHOW&#45;&gt;Metamodel::Stashing -->
<g id="edge8" class="edge">
<title>Metamodel::ClassHOW&#45;&gt;Metamodel::Stashing</title>
<path fill="none" stroke="#6666ff" d="M708.04,-689.41C756.95,-647.08 879.44,-541.04 935.12,-492.84"/>
<polygon fill="#6666ff" stroke="#6666ff" points="937.56,-495.36 942.83,-486.17 932.98,-490.07 937.56,-495.36"/>
</g>
<!-- Metamodel::ClassHOW&#45;&gt;Metamodel::AttributeContainer -->
<g id="edge9" class="edge">
<title>Metamodel::ClassHOW&#45;&gt;Metamodel::AttributeContainer</title>
<path fill="none" stroke="#6666ff" d="M715.87,-724.92C800.93,-777.09 1052.41,-931.36 1148.11,-990.06"/>
<polygon fill="#6666ff" stroke="#6666ff" points="1146.52,-993.19 1156.87,-995.43 1150.18,-987.22 1146.52,-993.19"/>
</g>
<!-- Metamodel::ClassHOW&#45;&gt;Metamodel::Finalization -->
<g id="edge10" class="edge">
<title>Metamodel::ClassHOW&#45;&gt;Metamodel::Finalization</title>
<path fill="none" stroke="#6666ff" d="M606.71,-696.02C499.07,-680.83 308.89,-654 196.33,-638.12"/>
<polygon fill="#6666ff" stroke="#6666ff" points="196.74,-634.65 186.35,-636.71 195.76,-641.58 196.74,-634.65"/>
</g>
<!-- Metamodel::ClassHOW&#45;&gt;Metamodel::MethodContainer -->
<g id="edge11" class="edge">
<title>Metamodel::ClassHOW&#45;&gt;Metamodel::MethodContainer</title>
<path fill="none" stroke="#6666ff" d="M747.57,-722C850.95,-747.08 1061.75,-798.22 1173.95,-825.44"/>
<polygon fill="#6666ff" stroke="#6666ff" points="1173.29,-828.88 1183.83,-827.83 1174.94,-822.08 1173.29,-828.88"/>
</g>
<!-- Metamodel::ClassHOW&#45;&gt;Metamodel::PrivateMethodContainer -->
<g id="edge12" class="edge">
<title>Metamodel::ClassHOW&#45;&gt;Metamodel::PrivateMethodContainer</title>
<path fill="none" stroke="#6666ff" d="M655.96,-690.08C564.51,-639.59 297.93,-492.4 195.47,-435.82"/>
<polygon fill="#6666ff" stroke="#6666ff" points="197.09,-432.72 186.65,-430.95 193.71,-438.85 197.09,-432.72"/>
</g>
<!-- Metamodel::ClassHOW&#45;&gt;Metamodel::MultiMethodContainer -->
<g id="edge13" class="edge">
<title>Metamodel::ClassHOW&#45;&gt;Metamodel::MultiMethodContainer</title>
<path fill="none" stroke="#6666ff" d="M661.59,-724.91C607.08,-762.09 479.76,-848.93 417.86,-891.14"/>
<polygon fill="#6666ff" stroke="#6666ff" points="415.51,-888.51 409.22,-897.03 419.46,-894.29 415.51,-888.51"/>
</g>
<!-- Metamodel::ClassHOW&#45;&gt;Metamodel::RoleContainer -->
<g id="edge14" class="edge">
<title>Metamodel::ClassHOW&#45;&gt;Metamodel::RoleContainer</title>
<path fill="none" stroke="#6666ff" d="M694.91,-725.6C716.52,-777.28 776.67,-921.07 776.67,-921.07 776.67,-921.07 920.12,-1082.18 977.02,-1146.09"/>
<polygon fill="#6666ff" stroke="#6666ff" points="974.57,-1148.6 983.83,-1153.74 979.8,-1143.94 974.57,-1148.6"/>
</g>
<!-- Metamodel::ClassHOW&#45;&gt;Metamodel::MultipleInheritance -->
<g id="edge15" class="edge">
<title>Metamodel::ClassHOW&#45;&gt;Metamodel::MultipleInheritance</title>
<path fill="none" stroke="#6666ff" d="M700.89,-689.41C742.98,-633.79 868.26,-468.22 868.26,-468.22 868.26,-468.22 1030.28,-317.6 1095.85,-256.64"/>
<polygon fill="#6666ff" stroke="#6666ff" points="1098.41,-259.04 1103.35,-249.67 1093.65,-253.91 1098.41,-259.04"/>
</g>
<!-- Metamodel::ClassHOW&#45;&gt;Metamodel::DefaultParent -->
<g id="edge16" class="edge">
<title>Metamodel::ClassHOW&#45;&gt;Metamodel::DefaultParent</title>
<path fill="none" stroke="#6666ff" d="M691.48,-725.65C710.44,-808.23 788.23,-1147.04 811.3,-1247.51"/>
<polygon fill="#6666ff" stroke="#6666ff" points="807.95,-1248.56 813.6,-1257.52 814.77,-1246.99 807.95,-1248.56"/>
</g>
<!-- Metamodel::ClassHOW&#45;&gt;Metamodel::C3MRO -->
<g id="edge17" class="edge">
<title>Metamodel::ClassHOW&#45;&gt;Metamodel::C3MRO</title>
<path fill="none" stroke="#6666ff" d="M681.76,-689.32C665.39,-635.84 618.32,-482.02 618.32,-482.02 618.32,-482.02 562.16,-418.42 562.16,-418.42 562.16,-418.42 543.89,-189.23 537.4,-107.85"/>
<polygon fill="#6666ff" stroke="#6666ff" points="540.88,-107.5 536.6,-97.81 533.91,-108.06 540.88,-107.5"/>
</g>
<!-- Metamodel::ClassHOW&#45;&gt;Metamodel::MROBasedMethodDispatch -->
<g id="edge18" class="edge">
<title>Metamodel::ClassHOW&#45;&gt;Metamodel::MROBasedMethodDispatch</title>
<path fill="none" stroke="#6666ff" d="M734.99,-691.37C810.81,-665.91 958.76,-616.24 1042.16,-588.24"/>
<polygon fill="#6666ff" stroke="#6666ff" points="1043.39,-591.52 1051.75,-585.02 1041.16,-584.88 1043.39,-591.52"/>
</g>
<!-- Metamodel::ClassHOW&#45;&gt;Metamodel::Trusting -->
<g id="edge20" class="edge">
<title>Metamodel::ClassHOW&#45;&gt;Metamodel::Trusting</title>
<path fill="none" stroke="#6666ff" d="M627.73,-722.11C518,-749.24 284.6,-806.96 169.54,-835.41"/>
<polygon fill="#6666ff" stroke="#6666ff" points="168.66,-832.02 159.79,-837.82 170.34,-838.82 168.66,-832.02"/>
</g>
<!-- Metamodel::ClassHOW&#45;&gt;Metamodel::BUILDPLAN -->
<g id="edge21" class="edge">
<title>Metamodel::ClassHOW&#45;&gt;Metamodel::BUILDPLAN</title>
<path fill="none" stroke="#6666ff" d="M673.66,-725.46C635.56,-776.01 530.68,-915.15 530.68,-915.15 530.68,-915.15 430.49,-1017.22 382.8,-1065.81"/>
<polygon fill="#6666ff" stroke="#6666ff" points="380.13,-1063.54 375.62,-1073.13 385.12,-1068.44 380.13,-1063.54"/>
</g>
<!-- Metamodel::ClassHOW&#45;&gt;Metamodel::Mixins -->
<g id="edge22" class="edge">
<title>Metamodel::ClassHOW&#45;&gt;Metamodel::Mixins</title>
<path fill="none" stroke="#6666ff" d="M685.11,-725.45C674.66,-812.35 630.07,-1183.12 630.07,-1183.12 630.07,-1183.12 625.28,-1197.83 620.58,-1212.3"/>
<polygon fill="#6666ff" stroke="#6666ff" points="617.15,-1211.51 617.39,-1222.11 623.81,-1213.68 617.15,-1211.51"/>
</g>
<!-- Metamodel::ClassHOW&#45;&gt;Metamodel::BoolificationProtocol -->
<g id="edge23" class="edge">
<title>Metamodel::ClassHOW&#45;&gt;Metamodel::BoolificationProtocol</title>
<path fill="none" stroke="#6666ff" d="M679.77,-725.45C649.59,-797.99 537.06,-1068.41 500.75,-1155.67"/>
<polygon fill="#6666ff" stroke="#6666ff" points="497.52,-1154.34 496.91,-1164.92 503.98,-1157.03 497.52,-1154.34"/>
</g>
<!-- Metamodel::BaseType -->
<g id="node23" class="node">
<title>Metamodel::BaseType</title>
<g id="a_node23"><a xlink:href="/type/Metamodel::BaseType" xlink:title="Metamodel::BaseType">
<ellipse fill="none" stroke="#6666ff" cx="1270.53" cy="-1465.85" rx="99.38" ry="18"/>
<text text-anchor="middle" x="1270.53" y="-1462.15" font-family="FreeSans" font-size="14.00" fill="#6666ff">Metamodel::BaseType</text>
</a>
</g>
</g>
<!-- Metamodel::EnumHOW -->
<g id="node24" class="node">
<title>Metamodel::EnumHOW</title>
<g id="a_node24"><a xlink:href="/type/Metamodel::EnumHOW" xlink:title="Metamodel::EnumHOW">
<ellipse fill="none" stroke="#000000" cx="882.9" cy="-921.18" rx="104.78" ry="18"/>
<text text-anchor="middle" x="882.9" y="-917.48" font-family="FreeSans" font-size="14.00" fill="#000000">Metamodel::EnumHOW</text>
</a>
</g>
</g>
<!-- Metamodel::EnumHOW&#45;&gt;Metamodel::MROBasedTypeChecking -->
<g id="edge32" class="edge">
<title>Metamodel::EnumHOW&#45;&gt;Metamodel::MROBasedTypeChecking</title>
<path fill="none" stroke="#6666ff" d="M877.26,-902.99C853.8,-827.41 763.9,-537.8 735.53,-446.38"/>
<polygon fill="#6666ff" stroke="#6666ff" points="738.83,-445.23 732.53,-436.71 732.15,-447.3 738.83,-445.23"/>
</g>
<!-- Metamodel::EnumHOW&#45;&gt;Any -->
<g id="edge3" class="edge">
<title>Metamodel::EnumHOW&#45;&gt;Any</title>
<path fill="none" stroke="#000000" d="M902.58,-903.41C981.96,-831.76 1274.34,-567.83 1274.34,-567.83 1274.34,-567.83 1270.09,-552.01 1266.01,-536.79"/>
<polygon fill="#000000" stroke="#000000" points="1269.37,-535.8 1263.39,-527.05 1262.6,-537.62 1269.37,-535.8"/>
</g>
<!-- Metamodel::EnumHOW&#45;&gt;Metamodel::Naming -->
<g id="edge24" class="edge">
<title>Metamodel::EnumHOW&#45;&gt;Metamodel::Naming</title>
<path fill="none" stroke="#6666ff" d="M875.17,-902.95C853.24,-851.27 792.23,-707.46 792.23,-707.46 792.23,-707.46 623.88,-564.61 555.11,-506.26"/>
<polygon fill="#6666ff" stroke="#6666ff" points="557.13,-503.38 547.24,-499.58 552.6,-508.72 557.13,-503.38"/>
</g>
<!-- Metamodel::EnumHOW&#45;&gt;Metamodel::Stashing -->
<g id="edge25" class="edge">
<title>Metamodel::EnumHOW&#45;&gt;Metamodel::Stashing</title>
<path fill="none" stroke="#6666ff" d="M885.4,-903.16C895.38,-831.13 931.87,-567.72 931.87,-567.72 931.87,-567.72 945.21,-525.73 954.55,-496.33"/>
<polygon fill="#6666ff" stroke="#6666ff" points="957.97,-497.14 957.66,-486.55 951.3,-495.02 957.97,-497.14"/>
</g>
<!-- Metamodel::EnumHOW&#45;&gt;Metamodel::AttributeContainer -->
<g id="edge26" class="edge">
<title>Metamodel::EnumHOW&#45;&gt;Metamodel::AttributeContainer</title>
<path fill="none" stroke="#6666ff" d="M934.6,-936.87C986.38,-952.59 1066.17,-976.81 1121.85,-993.72"/>
<polygon fill="#6666ff" stroke="#6666ff" points="1121.03,-997.12 1131.61,-996.68 1123.06,-990.43 1121.03,-997.12"/>
</g>
<!-- Metamodel::EnumHOW&#45;&gt;Metamodel::MethodContainer -->
<g id="edge27" class="edge">
<title>Metamodel::EnumHOW&#45;&gt;Metamodel::MethodContainer</title>
<path fill="none" stroke="#6666ff" d="M949.03,-907.09C1010.41,-894.02 1101.94,-874.53 1167.55,-860.56"/>
<polygon fill="#6666ff" stroke="#6666ff" points="1168.39,-863.96 1177.44,-858.45 1166.93,-857.11 1168.39,-863.96"/>
</g>
<!-- Metamodel::EnumHOW&#45;&gt;Metamodel::MultiMethodContainer -->
<g id="edge28" class="edge">
<title>Metamodel::EnumHOW&#45;&gt;Metamodel::MultiMethodContainer</title>
<path fill="none" stroke="#6666ff" d="M778.38,-919.89C709.05,-919.04 616.84,-917.9 538.89,-916.95"/>
<polygon fill="#6666ff" stroke="#6666ff" points="538.52,-913.44 528.48,-916.82 538.43,-920.44 538.52,-913.44"/>
</g>
<!-- Metamodel::EnumHOW&#45;&gt;Metamodel::RoleContainer -->
<g id="edge29" class="edge">
<title>Metamodel::EnumHOW&#45;&gt;Metamodel::RoleContainer</title>
<path fill="none" stroke="#6666ff" d="M891.32,-939.2C911.55,-982.53 963.01,-1092.77 987.09,-1144.36"/>
<polygon fill="#6666ff" stroke="#6666ff" points="983.99,-1145.99 991.39,-1153.57 990.33,-1143.03 983.99,-1145.99"/>
</g>
<!-- Metamodel::EnumHOW&#45;&gt;Metamodel::MROBasedMethodDispatch -->
<g id="edge31" class="edge">
<title>Metamodel::EnumHOW&#45;&gt;Metamodel::MROBasedMethodDispatch</title>
<path fill="none" stroke="#6666ff" d="M894.13,-903.16C930.28,-845.15 1043.82,-662.93 1086.59,-594.29"/>
<polygon fill="#6666ff" stroke="#6666ff" points="1089.59,-596.09 1091.91,-585.75 1083.65,-592.39 1089.59,-596.09"/>
</g>
<!-- Metamodel::EnumHOW&#45;&gt;Metamodel::BUILDPLAN -->
<g id="edge33" class="edge">
<title>Metamodel::EnumHOW&#45;&gt;Metamodel::BUILDPLAN</title>
<path fill="none" stroke="#6666ff" d="M833.53,-937.15C736.77,-968.45 522.5,-1037.77 417.9,-1071.61"/>
<polygon fill="#6666ff" stroke="#6666ff" points="416.57,-1068.36 408.13,-1074.77 418.72,-1075.02 416.57,-1068.36"/>
</g>
<!-- Metamodel::EnumHOW&#45;&gt;Metamodel::Mixins -->
<g id="edge35" class="edge">
<title>Metamodel::EnumHOW&#45;&gt;Metamodel::Mixins</title>
<path fill="none" stroke="#6666ff" d="M867.54,-939.24C821.82,-992.97 686.58,-1151.93 633.38,-1214.46"/>
<polygon fill="#6666ff" stroke="#6666ff" points="630.54,-1212.4 626.72,-1222.29 635.87,-1216.94 630.54,-1212.4"/>
</g>
<!-- Metamodel::EnumHOW&#45;&gt;Metamodel::BoolificationProtocol -->
<g id="edge34" class="edge">
<title>Metamodel::EnumHOW&#45;&gt;Metamodel::BoolificationProtocol</title>
<path fill="none" stroke="#6666ff" d="M856.47,-938.76C787.53,-984.63 602.19,-1107.95 524.45,-1159.67"/>
<polygon fill="#6666ff" stroke="#6666ff" points="522.34,-1156.87 515.96,-1165.32 526.22,-1162.69 522.34,-1156.87"/>
</g>
<!-- Metamodel::EnumHOW&#45;&gt;Metamodel::BaseType -->
<g id="edge30" class="edge">
<title>Metamodel::EnumHOW&#45;&gt;Metamodel::BaseType</title>
<path fill="none" stroke="#6666ff" d="M899.75,-939.21C953.47,-996.69 1117.17,-1171.88 1117.17,-1171.88 1117.17,-1171.88 1218.56,-1366.24 1256.46,-1438.88"/>
<polygon fill="#6666ff" stroke="#6666ff" points="1253.44,-1440.66 1261.17,-1447.91 1259.65,-1437.42 1253.44,-1440.66"/>
</g>
<!-- Metamodel::NativeHOW -->
<g id="node25" class="node">
<title>Metamodel::NativeHOW</title>
<g id="a_node25"><a xlink:href="/type/Metamodel::NativeHOW" xlink:title="Metamodel::NativeHOW">
<ellipse fill="none" stroke="#000000" cx="942.37" cy="-18" rx="106.68" ry="18"/>
<text text-anchor="middle" x="942.37" y="-14.3" font-family="FreeSans" font-size="14.00" fill="#000000">Metamodel::NativeHOW</text>
</a>
</g>
</g>
<!-- Metamodel::NativeHOW&#45;&gt;Metamodel::MROBasedTypeChecking -->
<g id="edge43" class="edge">
<title>Metamodel::NativeHOW&#45;&gt;Metamodel::MROBasedTypeChecking</title>
<path fill="none" stroke="#6666ff" d="M932.7,-35.99C898.45,-99.64 782.89,-314.46 741.66,-391.1"/>
<polygon fill="#6666ff" stroke="#6666ff" points="738.44,-389.69 736.79,-400.15 744.61,-393 738.44,-389.69"/>
</g>
<!-- Metamodel::NativeHOW&#45;&gt;Any -->
<g id="edge4" class="edge">
<title>Metamodel::NativeHOW&#45;&gt;Any</title>
<path fill="none" stroke="#000000" d="M946.21,-36.19C957.11,-87.79 987.43,-231.38 987.43,-231.38 987.43,-231.38 1171.5,-419.92 1236.32,-486.32"/>
<polygon fill="#000000" stroke="#000000" points="1234.12,-489.08 1243.61,-493.79 1239.13,-484.19 1234.12,-489.08"/>
</g>
<!-- Metamodel::NativeHOW&#45;&gt;Metamodel::Naming -->
<g id="edge36" class="edge">
<title>Metamodel::NativeHOW&#45;&gt;Metamodel::Naming</title>
<path fill="none" stroke="#6666ff" d="M931.08,-36.12C907.94,-73.22 857.32,-154.42 857.32,-154.42 857.32,-154.42 562.16,-418.42 562.16,-418.42 562.16,-418.42 551.25,-437.77 541.48,-455.1"/>
<polygon fill="#6666ff" stroke="#6666ff" points="538.4,-453.43 536.54,-463.86 544.5,-456.87 538.4,-453.43"/>
</g>
<!-- Metamodel::NativeHOW&#45;&gt;Metamodel::Documenting -->
<g id="edge37" class="edge">
<title>Metamodel::NativeHOW&#45;&gt;Metamodel::Documenting</title>
<path fill="none" stroke="#6666ff" d="M916.92,-35.55C881.71,-59.82 818.04,-103.71 778.73,-130.81"/>
<polygon fill="#6666ff" stroke="#6666ff" points="776.5,-128.09 770.25,-136.65 780.47,-133.86 776.5,-128.09"/>
</g>
<!-- Metamodel::NativeHOW&#45;&gt;Metamodel::Versioning -->
<g id="edge38" class="edge">
<title>Metamodel::NativeHOW&#45;&gt;Metamodel::Versioning</title>
<path fill="none" stroke="#6666ff" d="M890.36,-33.75C788.74,-64.53 564.32,-132.49 455.84,-165.35"/>
<polygon fill="#6666ff" stroke="#6666ff" points="454.58,-162.07 446.03,-168.32 456.61,-168.77 454.58,-162.07"/>
</g>
<!-- Metamodel::NativeHOW&#45;&gt;Metamodel::Stashing -->
<g id="edge39" class="edge">
<title>Metamodel::NativeHOW&#45;&gt;Metamodel::Stashing</title>
<path fill="none" stroke="#6666ff" d="M943.23,-36.21C946.48,-105.73 958.14,-354.74 962.11,-439.68"/>
<polygon fill="#6666ff" stroke="#6666ff" points="958.63,-440.05 962.59,-449.88 965.62,-439.73 958.63,-440.05"/>
</g>
<!-- Metamodel::NativeHOW&#45;&gt;Metamodel::MultipleInheritance -->
<g id="edge40" class="edge">
<title>Metamodel::NativeHOW&#45;&gt;Metamodel::MultipleInheritance</title>
<path fill="none" stroke="#6666ff" d="M957.46,-35.83C989.45,-73.66 1064.21,-162.07 1101.28,-205.91"/>
<polygon fill="#6666ff" stroke="#6666ff" points="1098.62,-208.17 1107.75,-213.55 1103.96,-203.65 1098.62,-208.17"/>
</g>
<!-- Metamodel::NativeHOW&#45;&gt;Metamodel::C3MRO -->
<g id="edge41" class="edge">
<title>Metamodel::NativeHOW&#45;&gt;Metamodel::C3MRO</title>
<path fill="none" stroke="#6666ff" d="M862.89,-30.02C792.51,-40.67 690.14,-56.15 618.6,-66.97"/>
<polygon fill="#6666ff" stroke="#6666ff" points="617.64,-63.58 608.27,-68.54 618.68,-70.5 617.64,-63.58"/>
</g>
<!-- Metamodel::NativeHOW&#45;&gt;Metamodel::MROBasedMethodDispatch -->
<g id="edge42" class="edge">
<title>Metamodel::NativeHOW&#45;&gt;Metamodel::MROBasedMethodDispatch</title>
<path fill="none" stroke="#6666ff" d="M946.21,-36.19C957.11,-87.79 987.43,-231.38 987.43,-231.38 987.43,-231.38 1066,-459.86 1093.63,-540.22"/>
<polygon fill="#6666ff" stroke="#6666ff" points="1090.33,-541.37 1096.89,-549.69 1096.95,-539.1 1090.33,-541.37"/>
</g>
</g>
</svg>
