<?xml version="1.0" encoding="UTF-8" standalone="no"?>
<!DOCTYPE svg PUBLIC "-//W3C//DTD SVG 1.1//EN"
 "http://www.w3.org/Graphics/SVG/1.1/DTD/svg11.dtd">
<!-- Generated by graphviz version 2.43.0 (0)
 -->
<!-- Title: perl6&#45;type&#45;graph Pages: 1 -->
<svg width="2095pt" height="1572pt"
 viewBox="0.00 0.00 2094.74 1571.97" xmlns="http://www.w3.org/2000/svg" xmlns:xlink="http://www.w3.org/1999/xlink">
<g id="graph0" class="graph" transform="scale(1 1) rotate(0) translate(4 1567.97)">
<title>perl6&#45;type&#45;graph</title>
<polygon fill="white" stroke="transparent" points="-4,4 -4,-1567.97 2090.74,-1567.97 2090.74,4 -4,4"/>
<!-- Metamodel::RolePunning -->
<g id="node1" class="node">
<title>Metamodel::RolePunning</title>
<g id="a_node1"><a xlink:href="/type/Metamodel::RolePunning" xlink:title="Metamodel::RolePunning">
<ellipse fill="none" stroke="#6666ff" cx="1028.23" cy="-748.16" rx="109.68" ry="18"/>
<text text-anchor="middle" x="1028.23" y="-744.46" font-family="FreeSans" font-size="14.00" fill="#6666ff">Metamodel::RolePunning</text>
</a>
</g>
</g>
<!-- Mu -->
<g id="node2" class="node">
<title>Mu</title>
<g id="a_node2"><a xlink:href="/type/Mu" xlink:title="Mu">
<ellipse fill="none" stroke="#000000" cx="1045.16" cy="-18" rx="27" ry="18"/>
<text text-anchor="middle" x="1045.16" y="-14.3" font-family="FreeSans" font-size="14.00" fill="#000000">Mu</text>
</a>
</g>
</g>
<!-- Any -->
<g id="node3" class="node">
<title>Any</title>
<g id="a_node3"><a xlink:href="/type/Any" xlink:title="Any">
<ellipse fill="none" stroke="#000000" cx="1074.51" cy="-545.62" rx="27" ry="18"/>
<text text-anchor="middle" x="1074.51" y="-541.92" font-family="FreeSans" font-size="14.00" fill="#000000">Any</text>
</a>
</g>
</g>
<!-- Any&#45;&gt;Mu -->
<g id="edge1" class="edge">
<title>Any&#45;&gt;Mu</title>
<path fill="none" stroke="#000000" d="M1073.49,-527.46C1069.15,-449.29 1052.01,-141.2 1046.72,-46.11"/>
<polygon fill="#000000" stroke="#000000" points="1050.21,-45.88 1046.16,-36.09 1043.22,-46.26 1050.21,-45.88"/>
</g>
<!-- Metamodel::Naming -->
<g id="node4" class="node">
<title>Metamodel::Naming</title>
<g id="a_node4"><a xlink:href="/type/Metamodel::Naming" xlink:title="Metamodel::Naming">
<ellipse fill="none" stroke="#6666ff" cx="950.31" cy="-1357.41" rx="90.18" ry="18"/>
<text text-anchor="middle" x="950.31" y="-1353.71" font-family="FreeSans" font-size="14.00" fill="#6666ff">Metamodel::Naming</text>
</a>
</g>
</g>
<!-- Metamodel::Stashing -->
<g id="node5" class="node">
<title>Metamodel::Stashing</title>
<g id="a_node5"><a xlink:href="/type/Metamodel::Stashing" xlink:title="Metamodel::Stashing">
<ellipse fill="none" stroke="#6666ff" cx="1040.07" cy="-1212.64" rx="93.68" ry="18"/>
<text text-anchor="middle" x="1040.07" y="-1208.94" font-family="FreeSans" font-size="14.00" fill="#6666ff">Metamodel::Stashing</text>
</a>
</g>
</g>
<!-- Metamodel::TypePretense -->
<g id="node6" class="node">
<title>Metamodel::TypePretense</title>
<g id="a_node6"><a xlink:href="/type/Metamodel::TypePretense" xlink:title="Metamodel::TypePretense">
<ellipse fill="none" stroke="#6666ff" cx="953.97" cy="-903.45" rx="114.28" ry="18"/>
<text text-anchor="middle" x="953.97" y="-899.75" font-family="FreeSans" font-size="14.00" fill="#6666ff">Metamodel::TypePretense</text>
</a>
</g>
</g>
<!-- Metamodel::BoolificationProtocol -->
<g id="node7" class="node">
<title>Metamodel::BoolificationProtocol</title>
<g id="a_node7"><a xlink:href="/type/Metamodel::BoolificationProtocol" xlink:title="Metamodel::BoolificationProtocol">
<ellipse fill="none" stroke="#6666ff" cx="139.09" cy="-997.55" rx="139.18" ry="18"/>
<text text-anchor="middle" x="139.09" y="-993.85" font-family="FreeSans" font-size="14.00" fill="#6666ff">Metamodel::BoolificationProtocol</text>
</a>
</g>
</g>
<!-- Metamodel::ParametricRoleGroupHOW -->
<g id="node8" class="node">
<title>Metamodel::ParametricRoleGroupHOW</title>
<g id="a_node8"><a xlink:href="/type/Metamodel::ParametricRoleGroupHOW" xlink:title="Metamodel::ParametricRoleGroupHOW">
<ellipse fill="none" stroke="#000000" cx="619.47" cy="-959.25" rx="166.27" ry="18"/>
<text text-anchor="middle" x="619.47" y="-955.55" font-family="FreeSans" font-size="14.00" fill="#000000">Metamodel::ParametricRoleGroupHOW</text>
</a>
</g>
</g>
<!-- Metamodel::ParametricRoleGroupHOW&#45;&gt;Metamodel::RolePunning -->
<g id="edge8" class="edge">
<title>Metamodel::ParametricRoleGroupHOW&#45;&gt;Metamodel::RolePunning</title>
<path fill="none" stroke="#6666ff" d="M653.62,-941.61C727.98,-903.21 904.41,-812.1 985.78,-770.09"/>
<polygon fill="#6666ff" stroke="#6666ff" points="987.47,-773.15 994.75,-765.45 984.26,-766.93 987.47,-773.15"/>
</g>
<!-- Metamodel::ParametricRoleGroupHOW&#45;&gt;Any -->
<g id="edge2" class="edge">
<title>Metamodel::ParametricRoleGroupHOW&#45;&gt;Any</title>
<path fill="none" stroke="#000000" d="M639.32,-941.21C713.08,-874.16 971.26,-639.47 1050.92,-567.06"/>
<polygon fill="#000000" stroke="#000000" points="1053.43,-569.5 1058.48,-560.19 1048.72,-564.32 1053.43,-569.5"/>
</g>
<!-- Metamodel::ParametricRoleGroupHOW&#45;&gt;Metamodel::Naming -->
<g id="edge5" class="edge">
<title>Metamodel::ParametricRoleGroupHOW&#45;&gt;Metamodel::Naming</title>
<path fill="none" stroke="#6666ff" d="M634.55,-977.39C687.74,-1041.41 866.77,-1256.87 928.88,-1331.62"/>
<polygon fill="#6666ff" stroke="#6666ff" points="926.44,-1334.16 935.52,-1339.61 931.82,-1329.69 926.44,-1334.16"/>
</g>
<!-- Metamodel::ParametricRoleGroupHOW&#45;&gt;Metamodel::Stashing -->
<g id="edge6" class="edge">
<title>Metamodel::ParametricRoleGroupHOW&#45;&gt;Metamodel::Stashing</title>
<path fill="none" stroke="#6666ff" d="M649.05,-977.07C723.75,-1022.07 919.96,-1140.28 1002.56,-1190.05"/>
<polygon fill="#6666ff" stroke="#6666ff" points="1000.99,-1193.18 1011.36,-1195.35 1004.6,-1187.19 1000.99,-1193.18"/>
</g>
<!-- Metamodel::ParametricRoleGroupHOW&#45;&gt;Metamodel::TypePretense -->
<g id="edge7" class="edge">
<title>Metamodel::ParametricRoleGroupHOW&#45;&gt;Metamodel::TypePretense</title>
<path fill="none" stroke="#6666ff" d="M710.44,-944.08C758.57,-936.05 817.43,-926.23 865.23,-918.26"/>
<polygon fill="#6666ff" stroke="#6666ff" points="865.96,-921.68 875.25,-916.58 864.81,-914.78 865.96,-921.68"/>
</g>
<!-- Metamodel::ParametricRoleGroupHOW&#45;&gt;Metamodel::BoolificationProtocol -->
<g id="edge9" class="edge">
<title>Metamodel::ParametricRoleGroupHOW&#45;&gt;Metamodel::BoolificationProtocol</title>
<path fill="none" stroke="#6666ff" d="M485.34,-969.94C417.35,-975.36 335.17,-981.91 267.94,-987.27"/>
<polygon fill="#6666ff" stroke="#6666ff" points="267.4,-983.81 257.71,-988.09 267.95,-990.78 267.4,-983.81"/>
</g>
<!-- Metamodel::Documenting -->
<g id="node9" class="node">
<title>Metamodel::Documenting</title>
<g id="a_node9"><a xlink:href="/type/Metamodel::Documenting" xlink:title="Metamodel::Documenting">
<ellipse fill="none" stroke="#6666ff" cx="1547.06" cy="-500.53" rx="111.28" ry="18"/>
<text text-anchor="middle" x="1547.06" y="-496.83" font-family="FreeSans" font-size="14.00" fill="#6666ff">Metamodel::Documenting</text>
</a>
</g>
</g>
<!-- Metamodel::Versioning -->
<g id="node10" class="node">
<title>Metamodel::Versioning</title>
<g id="a_node10"><a xlink:href="/type/Metamodel::Versioning" xlink:title="Metamodel::Versioning">
<ellipse fill="none" stroke="#6666ff" cx="1898.97" cy="-755.88" rx="100.98" ry="18"/>
<text text-anchor="middle" x="1898.97" y="-752.18" font-family="FreeSans" font-size="14.00" fill="#6666ff">Metamodel::Versioning</text>
</a>
</g>
</g>
<!-- Metamodel::MethodContainer -->
<g id="node11" class="node">
<title>Metamodel::MethodContainer</title>
<g id="a_node11"><a xlink:href="/type/Metamodel::MethodContainer" xlink:title="Metamodel::MethodContainer">
<ellipse fill="none" stroke="#6666ff" cx="1764.32" cy="-565.01" rx="127.28" ry="18"/>
<text text-anchor="middle" x="1764.32" y="-561.31" font-family="FreeSans" font-size="14.00" fill="#6666ff">Metamodel::MethodContainer</text>
</a>
</g>
</g>
<!-- Metamodel::PrivateMethodContainer -->
<g id="node12" class="node">
<title>Metamodel::PrivateMethodContainer</title>
<g id="a_node12"><a xlink:href="/type/Metamodel::PrivateMethodContainer" xlink:title="Metamodel::PrivateMethodContainer">
<ellipse fill="none" stroke="#6666ff" cx="1299.73" cy="-1545.97" rx="154.87" ry="18"/>
<text text-anchor="middle" x="1299.73" y="-1542.27" font-family="FreeSans" font-size="14.00" fill="#6666ff">Metamodel::PrivateMethodContainer</text>
</a>
</g>
</g>
<!-- Metamodel::MultiMethodContainer -->
<g id="node13" class="node">
<title>Metamodel::MultiMethodContainer</title>
<g id="a_node13"><a xlink:href="/type/Metamodel::MultiMethodContainer" xlink:title="Metamodel::MultiMethodContainer">
<ellipse fill="none" stroke="#6666ff" cx="1902.52" cy="-1215.8" rx="146.47" ry="18"/>
<text text-anchor="middle" x="1902.52" y="-1212.1" font-family="FreeSans" font-size="14.00" fill="#6666ff">Metamodel::MultiMethodContainer</text>
</a>
</g>
</g>
<!-- Metamodel::AttributeContainer -->
<g id="node14" class="node">
<title>Metamodel::AttributeContainer</title>
<g id="a_node14"><a xlink:href="/type/Metamodel::AttributeContainer" xlink:title="Metamodel::AttributeContainer">
<ellipse fill="none" stroke="#6666ff" cx="1761.1" cy="-1406.5" rx="129.98" ry="18"/>
<text text-anchor="middle" x="1761.1" y="-1402.8" font-family="FreeSans" font-size="14.00" fill="#6666ff">Metamodel::AttributeContainer</text>
</a>
</g>
</g>
<!-- Metamodel::RoleContainer -->
<g id="node15" class="node">
<title>Metamodel::RoleContainer</title>
<g id="a_node15"><a xlink:href="/type/Metamodel::RoleContainer" xlink:title="Metamodel::RoleContainer">
<ellipse fill="none" stroke="#6666ff" cx="1578.13" cy="-1516.84" rx="115.88" ry="18"/>
<text text-anchor="middle" x="1578.13" y="-1513.14" font-family="FreeSans" font-size="14.00" fill="#6666ff">Metamodel::RoleContainer</text>
</a>
</g>
</g>
<!-- Metamodel::MultipleInheritance -->
<g id="node16" class="node">
<title>Metamodel::MultipleInheritance</title>
<g id="a_node16"><a xlink:href="/type/Metamodel::MultipleInheritance" xlink:title="Metamodel::MultipleInheritance">
<ellipse fill="none" stroke="#6666ff" cx="1952.85" cy="-983.66" rx="133.78" ry="18"/>
<text text-anchor="middle" x="1952.85" y="-979.96" font-family="FreeSans" font-size="14.00" fill="#6666ff">Metamodel::MultipleInheritance</text>
</a>
</g>
</g>
<!-- Metamodel::ParametricRoleHOW -->
<g id="node17" class="node">
<title>Metamodel::ParametricRoleHOW</title>
<g id="a_node17"><a xlink:href="/type/Metamodel::ParametricRoleHOW" xlink:title="Metamodel::ParametricRoleHOW">
<ellipse fill="none" stroke="#000000" cx="1438.21" cy="-1001.3" rx="141.88" ry="18"/>
<text text-anchor="middle" x="1438.21" y="-997.6" font-family="FreeSans" font-size="14.00" fill="#000000">Metamodel::ParametricRoleHOW</text>
</a>
</g>
</g>
<!-- Metamodel::ParametricRoleHOW&#45;&gt;Metamodel::RolePunning -->
<g id="edge21" class="edge">
<title>Metamodel::ParametricRoleHOW&#45;&gt;Metamodel::RolePunning</title>
<path fill="none" stroke="#6666ff" d="M1409.38,-983.5C1336.72,-938.64 1146.15,-820.97 1065.32,-771.07"/>
<polygon fill="#6666ff" stroke="#6666ff" points="1066.83,-767.88 1056.48,-765.61 1063.15,-773.84 1066.83,-767.88"/>
</g>
<!-- Metamodel::ParametricRoleHOW&#45;&gt;Any -->
<g id="edge3" class="edge">
<title>Metamodel::ParametricRoleHOW&#45;&gt;Any</title>
<path fill="none" stroke="#000000" d="M1423.73,-983.16C1366.87,-911.92 1158.9,-651.36 1093.99,-570.03"/>
<polygon fill="#000000" stroke="#000000" points="1096.45,-567.51 1087.48,-561.87 1090.98,-571.87 1096.45,-567.51"/>
</g>
<!-- Metamodel::ParametricRoleHOW&#45;&gt;Metamodel::Naming -->
<g id="edge10" class="edge">
<title>Metamodel::ParametricRoleHOW&#45;&gt;Metamodel::Naming</title>
<path fill="none" stroke="#6666ff" d="M1413.68,-1019.2C1332.72,-1078.3 1073.96,-1267.16 982.61,-1333.83"/>
<polygon fill="#6666ff" stroke="#6666ff" points="980.32,-1331.17 974.31,-1339.89 984.45,-1336.82 980.32,-1331.17"/>
</g>
<!-- Metamodel::ParametricRoleHOW&#45;&gt;Metamodel::Stashing -->
<g id="edge19" class="edge">
<title>Metamodel::ParametricRoleHOW&#45;&gt;Metamodel::Stashing</title>
<path fill="none" stroke="#6666ff" d="M1404.95,-1018.96C1332.48,-1057.42 1160.51,-1148.71 1081.31,-1190.75"/>
<polygon fill="#6666ff" stroke="#6666ff" points="1079.31,-1187.85 1072.12,-1195.63 1082.6,-1194.03 1079.31,-1187.85"/>
</g>
<!-- Metamodel::ParametricRoleHOW&#45;&gt;Metamodel::TypePretense -->
<g id="edge20" class="edge">
<title>Metamodel::ParametricRoleHOW&#45;&gt;Metamodel::TypePretense</title>
<path fill="none" stroke="#6666ff" d="M1362.55,-986.01C1273.32,-967.98 1125.65,-938.14 1034.4,-919.7"/>
<polygon fill="#6666ff" stroke="#6666ff" points="1034.88,-916.23 1024.38,-917.68 1033.49,-923.09 1034.88,-916.23"/>
</g>
<!-- Metamodel::ParametricRoleHOW&#45;&gt;Metamodel::Documenting -->
<g id="edge11" class="edge">
<title>Metamodel::ParametricRoleHOW&#45;&gt;Metamodel::Documenting</title>
<path fill="none" stroke="#6666ff" d="M1442.15,-983.18C1458.5,-907.96 1521.1,-619.92 1540.97,-528.53"/>
<polygon fill="#6666ff" stroke="#6666ff" points="1544.42,-529.14 1543.12,-518.63 1537.58,-527.65 1544.42,-529.14"/>
</g>
<!-- Metamodel::ParametricRoleHOW&#45;&gt;Metamodel::Versioning -->
<g id="edge12" class="edge">
<title>Metamodel::ParametricRoleHOW&#45;&gt;Metamodel::Versioning</title>
<path fill="none" stroke="#6666ff" d="M1471.35,-983.65C1553.74,-939.76 1767.69,-825.8 1857.9,-777.75"/>
<polygon fill="#6666ff" stroke="#6666ff" points="1859.57,-780.83 1866.75,-773.04 1856.27,-774.65 1859.57,-780.83"/>
</g>
<!-- Metamodel::ParametricRoleHOW&#45;&gt;Metamodel::MethodContainer -->
<g id="edge13" class="edge">
<title>Metamodel::ParametricRoleHOW&#45;&gt;Metamodel::MethodContainer</title>
<path fill="none" stroke="#6666ff" d="M1451.81,-983.11C1502.98,-914.64 1684.15,-672.27 1744.56,-591.46"/>
<polygon fill="#6666ff" stroke="#6666ff" points="1747.48,-593.39 1750.67,-583.28 1741.88,-589.2 1747.48,-593.39"/>
</g>
<!-- Metamodel::ParametricRoleHOW&#45;&gt;Metamodel::PrivateMethodContainer -->
<g id="edge14" class="edge">
<title>Metamodel::ParametricRoleHOW&#45;&gt;Metamodel::PrivateMethodContainer</title>
<path fill="none" stroke="#6666ff" d="M1433.6,-1019.42C1413.27,-1099.39 1331.5,-1421 1306.82,-1518.08"/>
<polygon fill="#6666ff" stroke="#6666ff" points="1303.43,-1517.23 1304.35,-1527.78 1310.21,-1518.95 1303.43,-1517.23"/>
</g>
<!-- Metamodel::ParametricRoleHOW&#45;&gt;Metamodel::MultiMethodContainer -->
<g id="edge15" class="edge">
<title>Metamodel::ParametricRoleHOW&#45;&gt;Metamodel::MultiMethodContainer</title>
<path fill="none" stroke="#6666ff" d="M1475.81,-1018.67C1559.93,-1057.53 1763.13,-1151.4 1855.46,-1194.06"/>
<polygon fill="#6666ff" stroke="#6666ff" points="1854.02,-1197.25 1864.57,-1198.27 1856.96,-1190.9 1854.02,-1197.25"/>
</g>
<!-- Metamodel::ParametricRoleHOW&#45;&gt;Metamodel::AttributeContainer -->
<g id="edge16" class="edge">
<title>Metamodel::ParametricRoleHOW&#45;&gt;Metamodel::AttributeContainer</title>
<path fill="none" stroke="#6666ff" d="M1452.5,-1019.23C1503.86,-1083.68 1679.23,-1303.77 1740.09,-1380.14"/>
<polygon fill="#6666ff" stroke="#6666ff" points="1737.64,-1382.68 1746.61,-1388.32 1743.11,-1378.32 1737.64,-1382.68"/>
</g>
<!-- Metamodel::ParametricRoleHOW&#45;&gt;Metamodel::RoleContainer -->
<g id="edge17" class="edge">
<title>Metamodel::ParametricRoleHOW&#45;&gt;Metamodel::RoleContainer</title>
<path fill="none" stroke="#6666ff" d="M1443.11,-1019.35C1463.93,-1096.05 1545.16,-1395.36 1570.52,-1488.81"/>
<polygon fill="#6666ff" stroke="#6666ff" points="1567.2,-1489.93 1573.2,-1498.67 1573.96,-1488.1 1567.2,-1489.93"/>
</g>
<!-- Metamodel::ParametricRoleHOW&#45;&gt;Metamodel::MultipleInheritance -->
<g id="edge18" class="edge">
<title>Metamodel::ParametricRoleHOW&#45;&gt;Metamodel::MultipleInheritance</title>
<path fill="none" stroke="#6666ff" d="M1575.11,-996.61C1648.49,-994.09 1738.73,-991 1812.61,-988.47"/>
<polygon fill="#6666ff" stroke="#6666ff" points="1813.04,-991.96 1822.92,-988.12 1812.8,-984.96 1813.04,-991.96"/>
</g>
<!-- Metamodel::CurriedRoleHOW -->
<g id="node18" class="node">
<title>Metamodel::CurriedRoleHOW</title>
<g id="a_node18"><a xlink:href="/type/Metamodel::CurriedRoleHOW" xlink:title="Metamodel::CurriedRoleHOW">
<ellipse fill="none" stroke="#000000" cx="677.34" cy="-430.56" rx="128.08" ry="18"/>
<text text-anchor="middle" x="677.34" y="-426.86" font-family="FreeSans" font-size="14.00" fill="#000000">Metamodel::CurriedRoleHOW</text>
</a>
</g>
</g>
<!-- Metamodel::CurriedRoleHOW&#45;&gt;Metamodel::RolePunning -->
<g id="edge22" class="edge">
<title>Metamodel::CurriedRoleHOW&#45;&gt;Metamodel::RolePunning</title>
<path fill="none" stroke="#6666ff" d="M697.21,-448.54C756.55,-502.26 932.61,-661.61 1000.81,-723.35"/>
<polygon fill="#6666ff" stroke="#6666ff" points="998.81,-726.26 1008.58,-730.38 1003.51,-721.07 998.81,-726.26"/>
</g>
<!-- Metamodel::CurriedRoleHOW&#45;&gt;Any -->
<g id="edge4" class="edge">
<title>Metamodel::CurriedRoleHOW&#45;&gt;Any</title>
<path fill="none" stroke="#000000" d="M733.4,-446.8C816.79,-470.96 971.04,-515.64 1039.83,-535.57"/>
<polygon fill="#000000" stroke="#000000" points="1039.14,-539.02 1049.72,-538.44 1041.09,-532.29 1039.14,-539.02"/>
</g>
<!-- Metamodel::CurriedRoleHOW&#45;&gt;Metamodel::TypePretense -->
<g id="edge23" class="edge">
<title>Metamodel::CurriedRoleHOW&#45;&gt;Metamodel::TypePretense</title>
<path fill="none" stroke="#6666ff" d="M687.84,-448.52C730.12,-520.79 887.96,-790.61 938.38,-876.8"/>
<polygon fill="#6666ff" stroke="#6666ff" points="935.38,-878.61 943.46,-885.47 941.43,-875.08 935.38,-878.61"/>
</g>
</g>
</svg>
