<?xml version="1.0" encoding="UTF-8" standalone="no"?>
<!DOCTYPE svg PUBLIC "-//W3C//DTD SVG 1.1//EN"
 "http://www.w3.org/Graphics/SVG/1.1/DTD/svg11.dtd">
<!-- Generated by graphviz version 2.43.0 (0)
 -->
<!-- Title: perl6&#45;type&#45;graph Pages: 1 -->
<svg width="223pt" height="404pt"
 viewBox="0.00 0.00 222.69 404.00" xmlns="http://www.w3.org/2000/svg" xmlns:xlink="http://www.w3.org/1999/xlink">
<g id="graph0" class="graph" transform="scale(1 1) rotate(0) translate(4 400)">
<title>perl6&#45;type&#45;graph</title>
<polygon fill="#ffffff" stroke="transparent" points="-4,4 -4,-400 218.69,-400 218.69,4 -4,4"/>
<!-- X::Syntax::UnlessElse -->
<g id="node1" class="node">
<title>X::Syntax::UnlessElse</title>
<g id="a_node1"><a xlink:href="/type/X::Syntax::UnlessElse" xlink:title="X::Syntax::UnlessElse">
<ellipse fill="none" stroke="#000000" cx="96.84" cy="-18" rx="96.68" ry="18"/>
<text text-anchor="middle" x="96.84" y="-14.3" font-family="FreeSans" font-size="14.00" fill="#000000">X::Syntax::UnlessElse</text>
</a>
</g>
</g>
<!-- Exception -->
<g id="node4" class="node">
<title>Exception</title>
<g id="a_node4"><a xlink:href="/type/Exception" xlink:title="Exception">
<ellipse fill="none" stroke="#000000" cx="96.84" cy="-234" rx="49.29" ry="18"/>
<text text-anchor="middle" x="96.84" y="-230.3" font-family="FreeSans" font-size="14.00" fill="#000000">Exception</text>
</a>
</g>
</g>
<!-- X::Syntax::UnlessElse&#45;&gt;Exception -->
<g id="edge1" class="edge">
<title>X::Syntax::UnlessElse&#45;&gt;Exception</title>
<path fill="none" stroke="#000000" d="M90.73,-36.06C85.17,-51.55 77.84,-72 77.84,-72 77.84,-72 77.84,-108 77.84,-108 77.84,-108 87.11,-169.01 92.7,-205.78"/>
<polygon fill="#000000" stroke="#000000" points="89.28,-206.52 94.24,-215.88 96.2,-205.47 89.28,-206.52"/>
</g>
<!-- X::Syntax -->
<g id="node6" class="node">
<title>X::Syntax</title>
<g id="a_node6"><a xlink:href="/type/X::Syntax" xlink:title="X::Syntax">
<ellipse fill="none" stroke="#6666ff" cx="134.84" cy="-90" rx="48.19" ry="18"/>
<text text-anchor="middle" x="134.84" y="-86.3" font-family="FreeSans" font-size="14.00" fill="#6666ff">X::Syntax</text>
</a>
</g>
</g>
<!-- X::Syntax::UnlessElse&#45;&gt;X::Syntax -->
<g id="edge6" class="edge">
<title>X::Syntax::UnlessElse&#45;&gt;X::Syntax</title>
<path fill="none" stroke="#6666ff" d="M106.04,-35.95C110.47,-44.11 115.89,-54.09 120.82,-63.18"/>
<polygon fill="#6666ff" stroke="#6666ff" points="117.88,-65.09 125.73,-72.21 124.03,-61.75 117.88,-65.09"/>
</g>
<!-- Mu -->
<g id="node2" class="node">
<title>Mu</title>
<g id="a_node2"><a xlink:href="/type/Mu" xlink:title="Mu">
<ellipse fill="none" stroke="#000000" cx="96.84" cy="-378" rx="27" ry="18"/>
<text text-anchor="middle" x="96.84" y="-374.3" font-family="FreeSans" font-size="14.00" fill="#000000">Mu</text>
</a>
</g>
</g>
<!-- Any -->
<g id="node3" class="node">
<title>Any</title>
<g id="a_node3"><a xlink:href="/type/Any" xlink:title="Any">
<ellipse fill="none" stroke="#000000" cx="96.84" cy="-306" rx="27" ry="18"/>
<text text-anchor="middle" x="96.84" y="-302.3" font-family="FreeSans" font-size="14.00" fill="#000000">Any</text>
</a>
</g>
</g>
<!-- Any&#45;&gt;Mu -->
<g id="edge2" class="edge">
<title>Any&#45;&gt;Mu</title>
<path fill="none" stroke="#000000" d="M96.84,-324.3C96.84,-332.02 96.84,-341.29 96.84,-349.89"/>
<polygon fill="#000000" stroke="#000000" points="93.34,-349.9 96.84,-359.9 100.34,-349.9 93.34,-349.9"/>
</g>
<!-- Exception&#45;&gt;Any -->
<g id="edge3" class="edge">
<title>Exception&#45;&gt;Any</title>
<path fill="none" stroke="#000000" d="M96.84,-252.3C96.84,-260.02 96.84,-269.29 96.84,-277.89"/>
<polygon fill="#000000" stroke="#000000" points="93.34,-277.9 96.84,-287.9 100.34,-277.9 93.34,-277.9"/>
</g>
<!-- X::Comp -->
<g id="node5" class="node">
<title>X::Comp</title>
<g id="a_node5"><a xlink:href="/type/X::Comp" xlink:title="X::Comp">
<ellipse fill="none" stroke="#6666ff" cx="169.84" cy="-162" rx="44.69" ry="18"/>
<text text-anchor="middle" x="169.84" y="-158.3" font-family="FreeSans" font-size="14.00" fill="#6666ff">X::Comp</text>
</a>
</g>
</g>
<!-- X::Comp&#45;&gt;Exception -->
<g id="edge4" class="edge">
<title>X::Comp&#45;&gt;Exception</title>
<path fill="none" stroke="#000000" d="M153.28,-178.88C143.73,-188.04 131.56,-199.71 120.97,-209.87"/>
<polygon fill="#000000" stroke="#000000" points="118.39,-207.49 113.59,-216.94 123.23,-212.54 118.39,-207.49"/>
</g>
<!-- X::Syntax&#45;&gt;Exception -->
<g id="edge5" class="edge">
<title>X::Syntax&#45;&gt;Exception</title>
<path fill="none" stroke="#000000" d="M128.73,-108.06C123.17,-123.55 115.84,-144 115.84,-144 115.84,-144 108.19,-179.83 102.6,-206.03"/>
<polygon fill="#000000" stroke="#000000" points="99.17,-205.33 100.5,-215.84 106.02,-206.79 99.17,-205.33"/>
</g>
<!-- X::Syntax&#45;&gt;X::Comp -->
<g id="edge7" class="edge">
<title>X::Syntax&#45;&gt;X::Comp</title>
<path fill="none" stroke="#6666ff" d="M143.31,-107.95C147.4,-116.11 152.39,-126.09 156.93,-135.18"/>
<polygon fill="#6666ff" stroke="#6666ff" points="153.84,-136.83 161.45,-144.21 160.11,-133.7 153.84,-136.83"/>
</g>
</g>
</svg>
