<?xml version="1.0" encoding="UTF-8" standalone="no"?>
<!DOCTYPE svg PUBLIC "-//W3C//DTD SVG 1.1//EN"
 "http://www.w3.org/Graphics/SVG/1.1/DTD/svg11.dtd">
<!-- Generated by graphviz version 2.43.0 (0)
 -->
<!-- Title: perl6&#45;type&#45;graph Pages: 1 -->
<svg width="296pt" height="404pt"
 viewBox="0.00 0.00 296.34 404.00" xmlns="http://www.w3.org/2000/svg" xmlns:xlink="http://www.w3.org/1999/xlink">
<g id="graph0" class="graph" transform="scale(1 1) rotate(0) translate(4 400)">
<title>perl6&#45;type&#45;graph</title>
<polygon fill="white" stroke="transparent" points="-4,4 -4,-400 292.34,-400 292.34,4 -4,4"/>
<!-- X::Syntax::Variable::Numeric -->
<g id="node1" class="node">
<title>X::Syntax::Variable::Numeric</title>
<g id="a_node1"><a xlink:href="/type/X::Syntax::Variable::Numeric" xlink:title="X::Syntax::Variable::Numeric">
<ellipse fill="none" stroke="#000000" cx="123.49" cy="-18" rx="123.48" ry="18"/>
<text text-anchor="middle" x="123.49" y="-14.3" font-family="FreeSans" font-size="14.00" fill="#000000">X::Syntax::Variable::Numeric</text>
</a>
</g>
</g>
<!-- Exception -->
<g id="node4" class="node">
<title>Exception</title>
<g id="a_node4"><a xlink:href="/type/Exception" xlink:title="Exception">
<ellipse fill="none" stroke="#000000" cx="146.49" cy="-234" rx="49.29" ry="18"/>
<text text-anchor="middle" x="146.49" y="-230.3" font-family="FreeSans" font-size="14.00" fill="#000000">Exception</text>
</a>
</g>
</g>
<!-- X::Syntax::Variable::Numeric&#45;&gt;Exception -->
<g id="edge1" class="edge">
<title>X::Syntax::Variable::Numeric&#45;&gt;Exception</title>
<path fill="none" stroke="#000000" d="M121.45,-36.15C121.9,-73.34 131.13,-161.63 138.96,-206.23"/>
<polygon fill="#000000" stroke="#000000" points="135.52,-206.88 140.81,-216.06 142.4,-205.59 135.52,-206.88"/>
</g>
<!-- X::Syntax::Variable::Numeric&#45;&gt;Exception -->
<g id="edge2" class="edge">
<title>X::Syntax::Variable::Numeric&#45;&gt;Exception</title>
<path fill="none" stroke="#000000" d="M129.21,-36.15C136.72,-73.17 146.42,-160.82 148.24,-205.61"/>
<polygon fill="#000000" stroke="#000000" points="144.74,-205.87 148.52,-215.77 151.74,-205.67 144.74,-205.87"/>
</g>
<!-- X::Syntax -->
<g id="node6" class="node">
<title>X::Syntax</title>
<g id="a_node6"><a xlink:href="/type/X::Syntax" xlink:title="X::Syntax">
<ellipse fill="none" stroke="#6666ff" cx="208.49" cy="-90" rx="48.19" ry="18"/>
<text text-anchor="middle" x="208.49" y="-86.3" font-family="FreeSans" font-size="14.00" fill="#6666ff">X::Syntax</text>
</a>
</g>
</g>
<!-- X::Syntax::Variable::Numeric&#45;&gt;X::Syntax -->
<g id="edge7" class="edge">
<title>X::Syntax::Variable::Numeric&#45;&gt;X::Syntax</title>
<path fill="none" stroke="#6666ff" d="M144.07,-35.95C155.32,-45.22 169.41,-56.81 181.53,-66.8"/>
<polygon fill="#6666ff" stroke="#6666ff" points="179.61,-69.75 189.56,-73.41 184.06,-64.35 179.61,-69.75"/>
</g>
<!-- Mu -->
<g id="node2" class="node">
<title>Mu</title>
<g id="a_node2"><a xlink:href="/type/Mu" xlink:title="Mu">
<ellipse fill="none" stroke="#000000" cx="146.49" cy="-378" rx="27" ry="18"/>
<text text-anchor="middle" x="146.49" y="-374.3" font-family="FreeSans" font-size="14.00" fill="#000000">Mu</text>
</a>
</g>
</g>
<!-- Any -->
<g id="node3" class="node">
<title>Any</title>
<g id="a_node3"><a xlink:href="/type/Any" xlink:title="Any">
<ellipse fill="none" stroke="#000000" cx="146.49" cy="-306" rx="27" ry="18"/>
<text text-anchor="middle" x="146.49" y="-302.3" font-family="FreeSans" font-size="14.00" fill="#000000">Any</text>
</a>
</g>
</g>
<!-- Any&#45;&gt;Mu -->
<g id="edge3" class="edge">
<title>Any&#45;&gt;Mu</title>
<path fill="none" stroke="#000000" d="M146.49,-324.3C146.49,-332.02 146.49,-341.29 146.49,-349.89"/>
<polygon fill="#000000" stroke="#000000" points="142.99,-349.9 146.49,-359.9 149.99,-349.9 142.99,-349.9"/>
</g>
<!-- Exception&#45;&gt;Any -->
<g id="edge4" class="edge">
<title>Exception&#45;&gt;Any</title>
<path fill="none" stroke="#000000" d="M146.49,-252.3C146.49,-260.02 146.49,-269.29 146.49,-277.89"/>
<polygon fill="#000000" stroke="#000000" points="142.99,-277.9 146.49,-287.9 149.99,-277.9 142.99,-277.9"/>
</g>
<!-- X::Comp -->
<g id="node5" class="node">
<title>X::Comp</title>
<g id="a_node5"><a xlink:href="/type/X::Comp" xlink:title="X::Comp">
<ellipse fill="none" stroke="#6666ff" cx="243.49" cy="-162" rx="44.69" ry="18"/>
<text text-anchor="middle" x="243.49" y="-158.3" font-family="FreeSans" font-size="14.00" fill="#6666ff">X::Comp</text>
</a>
</g>
</g>
<!-- X::Comp&#45;&gt;Exception -->
<g id="edge5" class="edge">
<title>X::Comp&#45;&gt;Exception</title>
<path fill="none" stroke="#000000" d="M222.44,-178.19C208.93,-187.94 191.19,-200.74 176.25,-211.52"/>
<polygon fill="#000000" stroke="#000000" points="173.89,-208.91 167.83,-217.6 177.99,-214.59 173.89,-208.91"/>
</g>
<!-- X::Syntax&#45;&gt;Exception -->
<g id="edge6" class="edge">
<title>X::Syntax&#45;&gt;Exception</title>
<path fill="none" stroke="#000000" d="M201.13,-107.85C190.46,-132.29 170.58,-177.83 157.97,-206.71"/>
<polygon fill="#000000" stroke="#000000" points="154.63,-205.61 153.84,-216.18 161.04,-208.41 154.63,-205.61"/>
</g>
<!-- X::Syntax&#45;&gt;X::Comp -->
<g id="edge8" class="edge">
<title>X::Syntax&#45;&gt;X::Comp</title>
<path fill="none" stroke="#6666ff" d="M216.96,-107.95C221.05,-116.11 226.03,-126.09 230.58,-135.18"/>
<polygon fill="#6666ff" stroke="#6666ff" points="227.49,-136.83 235.09,-144.21 233.75,-133.7 227.49,-136.83"/>
</g>
</g>
</svg>
