<?xml version="1.0" encoding="UTF-8" standalone="no"?>
<!DOCTYPE svg PUBLIC "-//W3C//DTD SVG 1.1//EN"
 "http://www.w3.org/Graphics/SVG/1.1/DTD/svg11.dtd">
<!-- Generated by graphviz version 2.43.0 (0)
 -->
<!-- Title: perl6&#45;type&#45;graph Pages: 1 -->
<svg width="205pt" height="404pt"
 viewBox="0.00 0.00 204.74 404.00" xmlns="http://www.w3.org/2000/svg" xmlns:xlink="http://www.w3.org/1999/xlink">
<g id="graph0" class="graph" transform="scale(1 1) rotate(0) translate(4 400)">
<title>perl6&#45;type&#45;graph</title>
<polygon fill="#ffffff" stroke="transparent" points="-4,4 -4,-400 200.74,-400 200.74,4 -4,4"/>
<!-- X::IO::Link -->
<g id="node1" class="node">
<title>X::IO::Link</title>
<g id="a_node1"><a xlink:href="/type/X::IO::Link" xlink:title="X::IO::Link">
<ellipse fill="none" stroke="#000000" cx="53.3" cy="-18" rx="53.09" ry="18"/>
<text text-anchor="middle" x="53.3" y="-14.3" font-family="FreeSans" font-size="14.00" fill="#000000">X::IO::Link</text>
</a>
</g>
</g>
<!-- Exception -->
<g id="node4" class="node">
<title>Exception</title>
<g id="a_node4"><a xlink:href="/type/Exception" xlink:title="Exception">
<ellipse fill="none" stroke="#000000" cx="76.3" cy="-234" rx="49.29" ry="18"/>
<text text-anchor="middle" x="76.3" y="-230.3" font-family="FreeSans" font-size="14.00" fill="#000000">Exception</text>
</a>
</g>
</g>
<!-- X::IO::Link&#45;&gt;Exception -->
<g id="edge1" class="edge">
<title>X::IO::Link&#45;&gt;Exception</title>
<path fill="none" stroke="#000000" d="M51.26,-36.15C51.71,-73.34 60.94,-161.63 68.77,-206.23"/>
<polygon fill="#000000" stroke="#000000" points="65.33,-206.88 70.62,-216.06 72.21,-205.59 65.33,-206.88"/>
</g>
<!-- X::IO::Link&#45;&gt;Exception -->
<g id="edge2" class="edge">
<title>X::IO::Link&#45;&gt;Exception</title>
<path fill="none" stroke="#000000" d="M59.02,-36.15C66.53,-73.17 76.22,-160.82 78.04,-205.61"/>
<polygon fill="#000000" stroke="#000000" points="74.55,-205.87 78.33,-215.77 81.55,-205.67 74.55,-205.87"/>
</g>
<!-- X::IO -->
<g id="node6" class="node">
<title>X::IO</title>
<g id="a_node6"><a xlink:href="/type/X::IO" xlink:title="X::IO">
<ellipse fill="none" stroke="#6666ff" cx="121.3" cy="-90" rx="31.4" ry="18"/>
<text text-anchor="middle" x="121.3" y="-86.3" font-family="FreeSans" font-size="14.00" fill="#6666ff">X::IO</text>
</a>
</g>
</g>
<!-- X::IO::Link&#45;&gt;X::IO -->
<g id="edge7" class="edge">
<title>X::IO::Link&#45;&gt;X::IO</title>
<path fill="none" stroke="#6666ff" d="M69.07,-35.24C78.07,-44.5 89.5,-56.27 99.36,-66.42"/>
<polygon fill="#6666ff" stroke="#6666ff" points="97.06,-69.08 106.54,-73.81 102.08,-64.2 97.06,-69.08"/>
</g>
<!-- Mu -->
<g id="node2" class="node">
<title>Mu</title>
<g id="a_node2"><a xlink:href="/type/Mu" xlink:title="Mu">
<ellipse fill="none" stroke="#000000" cx="76.3" cy="-378" rx="27" ry="18"/>
<text text-anchor="middle" x="76.3" y="-374.3" font-family="FreeSans" font-size="14.00" fill="#000000">Mu</text>
</a>
</g>
</g>
<!-- Any -->
<g id="node3" class="node">
<title>Any</title>
<g id="a_node3"><a xlink:href="/type/Any" xlink:title="Any">
<ellipse fill="none" stroke="#000000" cx="76.3" cy="-306" rx="27" ry="18"/>
<text text-anchor="middle" x="76.3" y="-302.3" font-family="FreeSans" font-size="14.00" fill="#000000">Any</text>
</a>
</g>
</g>
<!-- Any&#45;&gt;Mu -->
<g id="edge3" class="edge">
<title>Any&#45;&gt;Mu</title>
<path fill="none" stroke="#000000" d="M76.3,-324.3C76.3,-332.02 76.3,-341.29 76.3,-349.89"/>
<polygon fill="#000000" stroke="#000000" points="72.8,-349.9 76.3,-359.9 79.8,-349.9 72.8,-349.9"/>
</g>
<!-- Exception&#45;&gt;Any -->
<g id="edge4" class="edge">
<title>Exception&#45;&gt;Any</title>
<path fill="none" stroke="#000000" d="M76.3,-252.3C76.3,-260.02 76.3,-269.29 76.3,-277.89"/>
<polygon fill="#000000" stroke="#000000" points="72.8,-277.9 76.3,-287.9 79.8,-277.9 72.8,-277.9"/>
</g>
<!-- X::OS -->
<g id="node5" class="node">
<title>X::OS</title>
<g id="a_node5"><a xlink:href="/type/X::OS" xlink:title="X::OS">
<ellipse fill="none" stroke="#6666ff" cx="162.3" cy="-162" rx="34.39" ry="18"/>
<text text-anchor="middle" x="162.3" y="-158.3" font-family="FreeSans" font-size="14.00" fill="#6666ff">X::OS</text>
</a>
</g>
</g>
<!-- X::OS&#45;&gt;Exception -->
<g id="edge5" class="edge">
<title>X::OS&#45;&gt;Exception</title>
<path fill="none" stroke="#000000" d="M144.48,-177.5C132.66,-187.12 116.93,-199.93 103.55,-210.81"/>
<polygon fill="#000000" stroke="#000000" points="101.13,-208.27 95.59,-217.3 105.55,-213.7 101.13,-208.27"/>
</g>
<!-- X::IO&#45;&gt;Exception -->
<g id="edge6" class="edge">
<title>X::IO&#45;&gt;Exception</title>
<path fill="none" stroke="#000000" d="M115.96,-107.85C108.28,-132.06 94.06,-176.95 84.89,-205.87"/>
<polygon fill="#000000" stroke="#000000" points="81.45,-205.14 81.77,-215.73 88.12,-207.26 81.45,-205.14"/>
</g>
<!-- X::IO&#45;&gt;X::OS -->
<g id="edge8" class="edge">
<title>X::IO&#45;&gt;X::OS</title>
<path fill="none" stroke="#6666ff" d="M130.8,-107.24C135.75,-115.68 141.91,-126.2 147.47,-135.69"/>
<polygon fill="#6666ff" stroke="#6666ff" points="144.48,-137.51 152.55,-144.37 150.52,-133.97 144.48,-137.51"/>
</g>
</g>
</svg>
