<?xml version="1.0" encoding="UTF-8" standalone="no"?>
<!DOCTYPE svg PUBLIC "-//W3C//DTD SVG 1.1//EN"
 "http://www.w3.org/Graphics/SVG/1.1/DTD/svg11.dtd">
<!-- Generated by graphviz version 2.43.0 (0)
 -->
<!-- Title: perl6&#45;type&#45;graph Pages: 1 -->
<svg width="1183pt" height="332pt"
 viewBox="0.00 0.00 1182.84 332.00" xmlns="http://www.w3.org/2000/svg" xmlns:xlink="http://www.w3.org/1999/xlink">
<g id="graph0" class="graph" transform="scale(1 1) rotate(0) translate(4 328)">
<title>perl6&#45;type&#45;graph</title>
<polygon fill="white" stroke="transparent" points="-4,4 -4,-328 1178.84,-328 1178.84,4 -4,4"/>
<!-- X::Control -->
<g id="node1" class="node">
<title>X::Control</title>
<g id="a_node1"><a xlink:href="/type/X::Control" xlink:title="X::Control">
<ellipse fill="none" stroke="#6666ff" cx="566.74" cy="-90" rx="50.09" ry="18"/>
<text text-anchor="middle" x="566.74" y="-86.3" font-family="FreeSans" font-size="14.00" fill="#6666ff">X::Control</text>
</a>
</g>
</g>
<!-- Exception -->
<g id="node4" class="node">
<title>Exception</title>
<g id="a_node4"><a xlink:href="/type/Exception" xlink:title="Exception">
<ellipse fill="none" stroke="#000000" cx="527.74" cy="-162" rx="49.29" ry="18"/>
<text text-anchor="middle" x="527.74" y="-158.3" font-family="FreeSans" font-size="14.00" fill="#000000">Exception</text>
</a>
</g>
</g>
<!-- X::Control&#45;&gt;Exception -->
<g id="edge1" class="edge">
<title>X::Control&#45;&gt;Exception</title>
<path fill="none" stroke="#000000" d="M557.3,-107.95C552.7,-116.2 547.08,-126.3 541.97,-135.46"/>
<polygon fill="#000000" stroke="#000000" points="538.91,-133.77 537.1,-144.21 545.02,-137.18 538.91,-133.77"/>
</g>
<!-- Mu -->
<g id="node2" class="node">
<title>Mu</title>
<g id="a_node2"><a xlink:href="/type/Mu" xlink:title="Mu">
<ellipse fill="none" stroke="#000000" cx="527.74" cy="-306" rx="27" ry="18"/>
<text text-anchor="middle" x="527.74" y="-302.3" font-family="FreeSans" font-size="14.00" fill="#000000">Mu</text>
</a>
</g>
</g>
<!-- Any -->
<g id="node3" class="node">
<title>Any</title>
<g id="a_node3"><a xlink:href="/type/Any" xlink:title="Any">
<ellipse fill="none" stroke="#000000" cx="527.74" cy="-234" rx="27" ry="18"/>
<text text-anchor="middle" x="527.74" y="-230.3" font-family="FreeSans" font-size="14.00" fill="#000000">Any</text>
</a>
</g>
</g>
<!-- Any&#45;&gt;Mu -->
<g id="edge2" class="edge">
<title>Any&#45;&gt;Mu</title>
<path fill="none" stroke="#000000" d="M527.74,-252.3C527.74,-260.02 527.74,-269.29 527.74,-277.89"/>
<polygon fill="#000000" stroke="#000000" points="524.24,-277.9 527.74,-287.9 531.24,-277.9 524.24,-277.9"/>
</g>
<!-- Exception&#45;&gt;Any -->
<g id="edge3" class="edge">
<title>Exception&#45;&gt;Any</title>
<path fill="none" stroke="#000000" d="M527.74,-180.3C527.74,-188.02 527.74,-197.29 527.74,-205.89"/>
<polygon fill="#000000" stroke="#000000" points="524.24,-205.9 527.74,-215.9 531.24,-205.9 524.24,-205.9"/>
</g>
<!-- CX::Succeed -->
<g id="node5" class="node">
<title>CX::Succeed</title>
<g id="a_node5"><a xlink:href="/type/CX::Succeed" xlink:title="CX::Succeed">
<ellipse fill="none" stroke="#000000" cx="61.74" cy="-18" rx="61.99" ry="18"/>
<text text-anchor="middle" x="61.74" y="-14.3" font-family="FreeSans" font-size="14.00" fill="#000000">CX::Succeed</text>
</a>
</g>
</g>
<!-- CX::Succeed&#45;&gt;X::Control -->
<g id="edge15" class="edge">
<title>CX::Succeed&#45;&gt;X::Control</title>
<path fill="none" stroke="#6666ff" d="M107.65,-30.15C120.85,-33.35 131.74,-36 131.74,-36 131.74,-36 392.03,-67.71 509.92,-82.08"/>
<polygon fill="#6666ff" stroke="#6666ff" points="509.84,-85.59 520.19,-83.33 510.69,-78.64 509.84,-85.59"/>
</g>
<!-- CX::Succeed&#45;&gt;Exception -->
<g id="edge4" class="edge">
<title>CX::Succeed&#45;&gt;Exception</title>
<path fill="none" stroke="#000000" d="M99.32,-32.32C169.34,-57.15 312.74,-108 312.74,-108 312.74,-108 414.73,-133.14 478.22,-148.79"/>
<polygon fill="#000000" stroke="#000000" points="477.51,-152.22 488.06,-151.22 479.19,-145.43 477.51,-152.22"/>
</g>
<!-- CX::Redo -->
<g id="node6" class="node">
<title>CX::Redo</title>
<g id="a_node6"><a xlink:href="/type/CX::Redo" xlink:title="CX::Redo">
<ellipse fill="none" stroke="#000000" cx="189.74" cy="-18" rx="48.99" ry="18"/>
<text text-anchor="middle" x="189.74" y="-14.3" font-family="FreeSans" font-size="14.00" fill="#000000">CX::Redo</text>
</a>
</g>
</g>
<!-- CX::Redo&#45;&gt;X::Control -->
<g id="edge16" class="edge">
<title>CX::Redo&#45;&gt;X::Control</title>
<path fill="none" stroke="#6666ff" d="M222.97,-31.26C231.73,-33.95 238.74,-36 238.74,-36 238.74,-36 417.74,-65.74 511.35,-80.66"/>
<polygon fill="#6666ff" stroke="#6666ff" points="510.81,-84.12 521.23,-82.23 511.9,-77.21 510.81,-84.12"/>
</g>
<!-- CX::Redo&#45;&gt;X::Control -->
<g id="edge17" class="edge">
<title>CX::Redo&#45;&gt;X::Control</title>
<path fill="none" stroke="#6666ff" d="M229.89,-28.4C244.21,-32.33 256.74,-36 256.74,-36 256.74,-36 424.85,-63.93 513.55,-79.24"/>
<polygon fill="#6666ff" stroke="#6666ff" points="512.99,-82.69 523.44,-80.95 514.18,-75.8 512.99,-82.69"/>
</g>
<!-- CX::Redo&#45;&gt;Exception -->
<g id="edge5" class="edge">
<title>CX::Redo&#45;&gt;Exception</title>
<path fill="none" stroke="#000000" d="M216.84,-33.1C270.59,-58.2 384.74,-108 384.74,-108 384.74,-108 440.82,-130.18 482.85,-145.84"/>
<polygon fill="#000000" stroke="#000000" points="481.8,-149.18 492.39,-149.37 484.22,-142.62 481.8,-149.18"/>
</g>
<!-- CX::Redo&#45;&gt;Exception -->
<g id="edge6" class="edge">
<title>CX::Redo&#45;&gt;Exception</title>
<path fill="none" stroke="#000000" d="M223.07,-31.38C283.16,-55.83 402.74,-108 402.74,-108 402.74,-108 452.83,-127.81 489.71,-143.21"/>
<polygon fill="#000000" stroke="#000000" points="488.65,-146.56 499.23,-147.21 491.37,-140.11 488.65,-146.56"/>
</g>
<!-- CX::Proceed -->
<g id="node7" class="node">
<title>CX::Proceed</title>
<g id="a_node7"><a xlink:href="/type/CX::Proceed" xlink:title="CX::Proceed">
<ellipse fill="none" stroke="#000000" cx="316.74" cy="-18" rx="60.39" ry="18"/>
<text text-anchor="middle" x="316.74" y="-14.3" font-family="FreeSans" font-size="14.00" fill="#000000">CX::Proceed</text>
</a>
</g>
</g>
<!-- CX::Proceed&#45;&gt;X::Control -->
<g id="edge18" class="edge">
<title>CX::Proceed&#45;&gt;X::Control</title>
<path fill="none" stroke="#6666ff" d="M359.15,-30.87C403.28,-43.23 472.26,-62.55 518.46,-75.48"/>
<polygon fill="#6666ff" stroke="#6666ff" points="517.67,-78.89 528.24,-78.22 519.55,-72.15 517.67,-78.89"/>
</g>
<!-- CX::Proceed&#45;&gt;Exception -->
<g id="edge7" class="edge">
<title>CX::Proceed&#45;&gt;Exception</title>
<path fill="none" stroke="#000000" d="M340.13,-34.74C378.38,-60.48 454.3,-111.57 496.9,-140.25"/>
<polygon fill="#000000" stroke="#000000" points="494.96,-143.16 505.21,-145.84 498.87,-137.35 494.96,-143.16"/>
</g>
<!-- CX::Last -->
<g id="node8" class="node">
<title>CX::Last</title>
<g id="a_node8"><a xlink:href="/type/CX::Last" xlink:title="CX::Last">
<ellipse fill="none" stroke="#000000" cx="439.74" cy="-18" rx="44.69" ry="18"/>
<text text-anchor="middle" x="439.74" y="-14.3" font-family="FreeSans" font-size="14.00" fill="#000000">CX::Last</text>
</a>
</g>
</g>
<!-- CX::Last&#45;&gt;X::Control -->
<g id="edge19" class="edge">
<title>CX::Last&#45;&gt;X::Control</title>
<path fill="none" stroke="#6666ff" d="M465.14,-33C484.18,-43.49 510.48,-57.99 531.55,-69.6"/>
<polygon fill="#6666ff" stroke="#6666ff" points="530.07,-72.78 540.52,-74.55 533.45,-66.65 530.07,-72.78"/>
</g>
<!-- CX::Last&#45;&gt;Exception -->
<g id="edge8" class="edge">
<title>CX::Last&#45;&gt;Exception</title>
<path fill="none" stroke="#000000" d="M450.01,-35.57C465.23,-60.12 493.91,-106.4 511.85,-135.35"/>
<polygon fill="#000000" stroke="#000000" points="509.03,-137.44 517.27,-144.1 514.98,-133.75 509.03,-137.44"/>
</g>
<!-- CX::Return -->
<g id="node9" class="node">
<title>CX::Return</title>
<g id="a_node9"><a xlink:href="/type/CX::Return" xlink:title="CX::Return">
<ellipse fill="none" stroke="#000000" cx="556.74" cy="-18" rx="53.89" ry="18"/>
<text text-anchor="middle" x="556.74" y="-14.3" font-family="FreeSans" font-size="14.00" fill="#000000">CX::Return</text>
</a>
</g>
</g>
<!-- CX::Return&#45;&gt;X::Control -->
<g id="edge20" class="edge">
<title>CX::Return&#45;&gt;X::Control</title>
<path fill="none" stroke="#6666ff" d="M559.22,-36.3C560.32,-44.02 561.64,-53.29 562.87,-61.89"/>
<polygon fill="#6666ff" stroke="#6666ff" points="559.42,-62.49 564.3,-71.9 566.35,-61.5 559.42,-62.49"/>
</g>
<!-- CX::Return&#45;&gt;Exception -->
<g id="edge9" class="edge">
<title>CX::Return&#45;&gt;Exception</title>
<path fill="none" stroke="#000000" d="M541.51,-35.48C527.13,-51.04 507.74,-72 507.74,-72 507.74,-72 507.74,-108 507.74,-108 507.74,-108 512.74,-121.24 517.74,-134.48"/>
<polygon fill="#000000" stroke="#000000" points="514.5,-135.82 521.31,-143.94 521.05,-133.35 514.5,-135.82"/>
</g>
<!-- CX::Emit -->
<g id="node10" class="node">
<title>CX::Emit</title>
<g id="a_node10"><a xlink:href="/type/CX::Emit" xlink:title="CX::Emit">
<ellipse fill="none" stroke="#000000" cx="673.74" cy="-18" rx="45.49" ry="18"/>
<text text-anchor="middle" x="673.74" y="-14.3" font-family="FreeSans" font-size="14.00" fill="#000000">CX::Emit</text>
</a>
</g>
</g>
<!-- CX::Emit&#45;&gt;X::Control -->
<g id="edge21" class="edge">
<title>CX::Emit&#45;&gt;X::Control</title>
<path fill="none" stroke="#6666ff" d="M651.31,-33.67C635.97,-43.71 615.41,-57.16 598.41,-68.29"/>
<polygon fill="#6666ff" stroke="#6666ff" points="596.34,-65.46 589.88,-73.86 600.17,-71.32 596.34,-65.46"/>
</g>
<!-- CX::Emit&#45;&gt;Exception -->
<g id="edge10" class="edge">
<title>CX::Emit&#45;&gt;Exception</title>
<path fill="none" stroke="#000000" d="M664.72,-35.74C650.81,-61.52 625.74,-108 625.74,-108 625.74,-108 591.18,-126.7 563.1,-141.88"/>
<polygon fill="#000000" stroke="#000000" points="561.4,-138.82 554.26,-146.66 564.73,-144.98 561.4,-138.82"/>
</g>
<!-- CX::Next -->
<g id="node11" class="node">
<title>CX::Next</title>
<g id="a_node11"><a xlink:href="/type/CX::Next" xlink:title="CX::Next">
<ellipse fill="none" stroke="#000000" cx="783.74" cy="-18" rx="46.29" ry="18"/>
<text text-anchor="middle" x="783.74" y="-14.3" font-family="FreeSans" font-size="14.00" fill="#000000">CX::Next</text>
</a>
</g>
</g>
<!-- CX::Next&#45;&gt;X::Control -->
<g id="edge22" class="edge">
<title>CX::Next&#45;&gt;X::Control</title>
<path fill="none" stroke="#6666ff" d="M749.36,-30.09C712.37,-42.02 653.38,-61.05 612.5,-74.24"/>
<polygon fill="#6666ff" stroke="#6666ff" points="611.22,-70.98 602.77,-77.38 613.37,-77.64 611.22,-70.98"/>
</g>
<!-- CX::Next&#45;&gt;Exception -->
<g id="edge11" class="edge">
<title>CX::Next&#45;&gt;Exception</title>
<path fill="none" stroke="#000000" d="M761.32,-33.9C723.17,-59.23 649.74,-108 649.74,-108 649.74,-108 603.07,-128.28 567.46,-143.75"/>
<polygon fill="#000000" stroke="#000000" points="565.99,-140.57 558.22,-147.76 568.78,-146.99 565.99,-140.57"/>
</g>
<!-- CX::Done -->
<g id="node12" class="node">
<title>CX::Done</title>
<g id="a_node12"><a xlink:href="/type/CX::Done" xlink:title="CX::Done">
<ellipse fill="none" stroke="#000000" cx="896.74" cy="-18" rx="48.99" ry="18"/>
<text text-anchor="middle" x="896.74" y="-14.3" font-family="FreeSans" font-size="14.00" fill="#000000">CX::Done</text>
</a>
</g>
</g>
<!-- CX::Done&#45;&gt;X::Control -->
<g id="edge23" class="edge">
<title>CX::Done&#45;&gt;X::Control</title>
<path fill="none" stroke="#6666ff" d="M859.68,-29.86C848.32,-33.19 838.74,-36 838.74,-36 838.74,-36 698.98,-63.23 619.82,-78.66"/>
<polygon fill="#6666ff" stroke="#6666ff" points="618.69,-75.31 609.54,-80.66 620.03,-82.18 618.69,-75.31"/>
</g>
<!-- CX::Done&#45;&gt;Exception -->
<g id="edge12" class="edge">
<title>CX::Done&#45;&gt;Exception</title>
<path fill="none" stroke="#000000" d="M866.2,-32.13C808.62,-56.89 689.74,-108 689.74,-108 689.74,-108 620.81,-130.55 572.87,-146.24"/>
<polygon fill="#000000" stroke="#000000" points="571.71,-142.93 563.3,-149.37 573.89,-149.59 571.71,-142.93"/>
</g>
<!-- CX::Warn -->
<g id="node13" class="node">
<title>CX::Warn</title>
<g id="a_node13"><a xlink:href="/type/CX::Warn" xlink:title="CX::Warn">
<ellipse fill="none" stroke="#000000" cx="1011.74" cy="-18" rx="48.99" ry="18"/>
<text text-anchor="middle" x="1011.74" y="-14.3" font-family="FreeSans" font-size="14.00" fill="#000000">CX::Warn</text>
</a>
</g>
</g>
<!-- CX::Warn&#45;&gt;X::Control -->
<g id="edge24" class="edge">
<title>CX::Warn&#45;&gt;X::Control</title>
<path fill="none" stroke="#6666ff" d="M975,-29.96C963.97,-33.25 954.74,-36 954.74,-36 954.74,-36 730.27,-66.66 622.8,-81.34"/>
<polygon fill="#6666ff" stroke="#6666ff" points="622.21,-77.89 612.78,-82.71 623.16,-84.83 622.21,-77.89"/>
</g>
<!-- CX::Warn&#45;&gt;Exception -->
<g id="edge13" class="edge">
<title>CX::Warn&#45;&gt;Exception</title>
<path fill="none" stroke="#000000" d="M976.71,-30.64C904.06,-54.76 743.74,-108 743.74,-108 743.74,-108 641.28,-133.14 577.5,-148.79"/>
<polygon fill="#000000" stroke="#000000" points="576.49,-145.43 567.61,-151.22 578.16,-152.23 576.49,-145.43"/>
</g>
<!-- CX::Take -->
<g id="node14" class="node">
<title>CX::Take</title>
<g id="a_node14"><a xlink:href="/type/CX::Take" xlink:title="CX::Take">
<ellipse fill="none" stroke="#000000" cx="1126.74" cy="-18" rx="48.19" ry="18"/>
<text text-anchor="middle" x="1126.74" y="-14.3" font-family="FreeSans" font-size="14.00" fill="#000000">CX::Take</text>
</a>
</g>
</g>
<!-- CX::Take&#45;&gt;X::Control -->
<g id="edge25" class="edge">
<title>CX::Take&#45;&gt;X::Control</title>
<path fill="none" stroke="#6666ff" d="M1090.32,-29.86C1079.15,-33.19 1069.74,-36 1069.74,-36 1069.74,-36 756.48,-69.01 624.39,-82.93"/>
<polygon fill="#6666ff" stroke="#6666ff" points="623.64,-79.49 614.07,-84.01 624.38,-86.45 623.64,-79.49"/>
</g>
<!-- CX::Take&#45;&gt;Exception -->
<g id="edge14" class="edge">
<title>CX::Take&#45;&gt;Exception</title>
<path fill="none" stroke="#000000" d="M1090.32,-29.86C1079.15,-33.19 1069.74,-36 1069.74,-36 1069.74,-36 809.74,-108 809.74,-108 809.74,-108 662.34,-135.7 580.68,-151.05"/>
<polygon fill="#000000" stroke="#000000" points="579.76,-147.66 570.57,-152.95 581.05,-154.54 579.76,-147.66"/>
</g>
</g>
</svg>
