<?xml version="1.0" encoding="UTF-8" standalone="no"?>
<!DOCTYPE svg PUBLIC "-//W3C//DTD SVG 1.1//EN"
 "http://www.w3.org/Graphics/SVG/1.1/DTD/svg11.dtd">
<!-- Generated by graphviz version 2.43.0 (0)
 -->
<!-- Title: perl6&#45;type&#45;graph Pages: 1 -->
<svg width="949pt" height="404pt"
 viewBox="0.00 0.00 949.29 404.00" xmlns="http://www.w3.org/2000/svg" xmlns:xlink="http://www.w3.org/1999/xlink">
<g id="graph0" class="graph" transform="scale(1 1) rotate(0) translate(4 400)">
<title>perl6&#45;type&#45;graph</title>
<polygon fill="white" stroke="transparent" points="-4,4 -4,-400 945.29,-400 945.29,4 -4,4"/>
<!-- Stringy -->
<g id="node1" class="node">
<title>Stringy</title>
<g id="a_node1"><a xlink:href="/type/Stringy" xlink:title="Stringy">
<ellipse fill="none" stroke="#6666ff" cx="358.75" cy="-306" rx="38.19" ry="18"/>
<text text-anchor="middle" x="358.75" y="-302.3" font-family="FreeSans" font-size="14.00" fill="#6666ff">Stringy</text>
</a>
</g>
</g>
<!-- Mu -->
<g id="node2" class="node">
<title>Mu</title>
<g id="a_node2"><a xlink:href="/type/Mu" xlink:title="Mu">
<ellipse fill="none" stroke="#000000" cx="441.75" cy="-378" rx="27" ry="18"/>
<text text-anchor="middle" x="441.75" y="-374.3" font-family="FreeSans" font-size="14.00" fill="#000000">Mu</text>
</a>
</g>
</g>
<!-- Any -->
<g id="node3" class="node">
<title>Any</title>
<g id="a_node3"><a xlink:href="/type/Any" xlink:title="Any">
<ellipse fill="none" stroke="#000000" cx="441.75" cy="-306" rx="27" ry="18"/>
<text text-anchor="middle" x="441.75" y="-302.3" font-family="FreeSans" font-size="14.00" fill="#000000">Any</text>
</a>
</g>
</g>
<!-- Any&#45;&gt;Mu -->
<g id="edge1" class="edge">
<title>Any&#45;&gt;Mu</title>
<path fill="none" stroke="#000000" d="M441.75,-324.3C441.75,-332.02 441.75,-341.29 441.75,-349.89"/>
<polygon fill="#000000" stroke="#000000" points="438.25,-349.9 441.75,-359.9 445.25,-349.9 438.25,-349.9"/>
</g>
<!-- Positional -->
<g id="node4" class="node">
<title>Positional</title>
<g id="a_node4"><a xlink:href="/type/Positional" xlink:title="Positional">
<ellipse fill="none" stroke="#6666ff" cx="253.75" cy="-306" rx="48.99" ry="18"/>
<text text-anchor="middle" x="253.75" y="-302.3" font-family="FreeSans" font-size="14.00" fill="#6666ff">Positional</text>
</a>
</g>
</g>
<!-- Uni -->
<g id="node5" class="node">
<title>Uni</title>
<g id="a_node5"><a xlink:href="/type/Uni" xlink:title="Uni">
<ellipse fill="none" stroke="#000000" cx="253.75" cy="-234" rx="27" ry="18"/>
<text text-anchor="middle" x="253.75" y="-230.3" font-family="FreeSans" font-size="14.00" fill="#000000">Uni</text>
</a>
</g>
</g>
<!-- Uni&#45;&gt;Stringy -->
<g id="edge23" class="edge">
<title>Uni&#45;&gt;Stringy</title>
<path fill="none" stroke="#6666ff" d="M272.52,-247.51C288.23,-257.99 310.94,-273.13 329.11,-285.24"/>
<polygon fill="#6666ff" stroke="#6666ff" points="327.35,-288.27 337.61,-290.91 331.23,-282.45 327.35,-288.27"/>
</g>
<!-- Uni&#45;&gt;Any -->
<g id="edge2" class="edge">
<title>Uni&#45;&gt;Any</title>
<path fill="none" stroke="#000000" d="M277.16,-243.17C319.8,-258.03 405.75,-288 405.75,-288 405.75,-288 407.93,-289.03 411.21,-290.58"/>
<polygon fill="#000000" stroke="#000000" points="409.85,-293.81 420.39,-294.91 412.84,-287.48 409.85,-293.81"/>
</g>
<!-- Uni&#45;&gt;Positional -->
<g id="edge22" class="edge">
<title>Uni&#45;&gt;Positional</title>
<path fill="none" stroke="#6666ff" d="M253.75,-252.3C253.75,-260.02 253.75,-269.29 253.75,-277.89"/>
<polygon fill="#6666ff" stroke="#6666ff" points="250.25,-277.9 253.75,-287.9 257.25,-277.9 250.25,-277.9"/>
</g>
<!-- Cool -->
<g id="node6" class="node">
<title>Cool</title>
<g id="a_node6"><a xlink:href="/type/Cool" xlink:title="Cool">
<ellipse fill="none" stroke="#000000" cx="719.75" cy="-234" rx="28.7" ry="18"/>
<text text-anchor="middle" x="719.75" y="-230.3" font-family="FreeSans" font-size="14.00" fill="#000000">Cool</text>
</a>
</g>
</g>
<!-- Cool&#45;&gt;Any -->
<g id="edge3" class="edge">
<title>Cool&#45;&gt;Any</title>
<path fill="none" stroke="#000000" d="M697.37,-245.28C689.58,-248.86 682.75,-252 682.75,-252 682.75,-252 544.18,-282.47 477.19,-297.21"/>
<polygon fill="#000000" stroke="#000000" points="476.1,-293.86 467.08,-299.43 477.6,-300.7 476.1,-293.86"/>
</g>
<!-- Str -->
<g id="node7" class="node">
<title>Str</title>
<g id="a_node7"><a xlink:href="/type/Str" xlink:title="Str">
<ellipse fill="none" stroke="#000000" cx="794.75" cy="-162" rx="27" ry="18"/>
<text text-anchor="middle" x="794.75" y="-158.3" font-family="FreeSans" font-size="14.00" fill="#000000">Str</text>
</a>
</g>
</g>
<!-- Str&#45;&gt;Stringy -->
<g id="edge24" class="edge">
<title>Str&#45;&gt;Stringy</title>
<path fill="none" stroke="#6666ff" d="M787.79,-179.74C777.07,-205.52 757.75,-252 757.75,-252 757.75,-252 405.75,-288 405.75,-288 405.75,-288 402.6,-289.14 397.93,-290.83"/>
<polygon fill="#6666ff" stroke="#6666ff" points="396.46,-287.64 388.25,-294.33 398.84,-294.22 396.46,-287.64"/>
</g>
<!-- Str&#45;&gt;Cool -->
<g id="edge4" class="edge">
<title>Str&#45;&gt;Cool</title>
<path fill="none" stroke="#000000" d="M779.57,-177.17C768.97,-187.06 754.62,-200.45 742.63,-211.64"/>
<polygon fill="#000000" stroke="#000000" points="740.08,-209.23 735.16,-218.62 744.86,-214.35 740.08,-209.23"/>
</g>
<!-- Blob -->
<g id="node8" class="node">
<title>Blob</title>
<g id="a_node8"><a xlink:href="/type/Blob" xlink:title="Blob">
<ellipse fill="none" stroke="#6666ff" cx="358.75" cy="-234" rx="28.7" ry="18"/>
<text text-anchor="middle" x="358.75" y="-230.3" font-family="FreeSans" font-size="14.00" fill="#6666ff">Blob</text>
</a>
</g>
</g>
<!-- Blob&#45;&gt;Stringy -->
<g id="edge26" class="edge">
<title>Blob&#45;&gt;Stringy</title>
<path fill="none" stroke="#6666ff" d="M358.75,-252.3C358.75,-260.02 358.75,-269.29 358.75,-277.89"/>
<polygon fill="#6666ff" stroke="#6666ff" points="355.25,-277.9 358.75,-287.9 362.25,-277.9 355.25,-277.9"/>
</g>
<!-- Blob&#45;&gt;Positional -->
<g id="edge25" class="edge">
<title>Blob&#45;&gt;Positional</title>
<path fill="none" stroke="#6666ff" d="M339.49,-247.84C324.22,-258.01 302.59,-272.44 284.88,-284.25"/>
<polygon fill="#6666ff" stroke="#6666ff" points="282.92,-281.35 276.54,-289.81 286.8,-287.17 282.92,-281.35"/>
</g>
<!-- NFKC -->
<g id="node9" class="node">
<title>NFKC</title>
<g id="a_node9"><a xlink:href="/type/NFKC" xlink:title="NFKC">
<ellipse fill="none" stroke="#000000" cx="35.75" cy="-162" rx="36" ry="18"/>
<text text-anchor="middle" x="35.75" y="-158.3" font-family="FreeSans" font-size="14.00" fill="#000000">NFKC</text>
</a>
</g>
</g>
<!-- NFKC&#45;&gt;Uni -->
<g id="edge5" class="edge">
<title>NFKC&#45;&gt;Uni</title>
<path fill="none" stroke="#000000" d="M63.48,-173.48C72.74,-176.97 80.75,-180 80.75,-180 80.75,-180 169.51,-207.19 219.87,-222.62"/>
<polygon fill="#000000" stroke="#000000" points="219.11,-226.05 229.69,-225.63 221.16,-219.35 219.11,-226.05"/>
</g>
<!-- NFC -->
<g id="node10" class="node">
<title>NFC</title>
<g id="a_node10"><a xlink:href="/type/NFC" xlink:title="NFC">
<ellipse fill="none" stroke="#000000" cx="118.75" cy="-162" rx="29.5" ry="18"/>
<text text-anchor="middle" x="118.75" y="-158.3" font-family="FreeSans" font-size="14.00" fill="#000000">NFC</text>
</a>
</g>
</g>
<!-- NFC&#45;&gt;Uni -->
<g id="edge6" class="edge">
<title>NFC&#45;&gt;Uni</title>
<path fill="none" stroke="#000000" d="M140.44,-174.25C163.04,-185.97 198.62,-204.42 223.87,-217.51"/>
<polygon fill="#000000" stroke="#000000" points="222.51,-220.74 233,-222.24 225.73,-214.53 222.51,-220.74"/>
</g>
<!-- NFD -->
<g id="node11" class="node">
<title>NFD</title>
<g id="a_node11"><a xlink:href="/type/NFD" xlink:title="NFD">
<ellipse fill="none" stroke="#000000" cx="194.75" cy="-162" rx="29.5" ry="18"/>
<text text-anchor="middle" x="194.75" y="-158.3" font-family="FreeSans" font-size="14.00" fill="#000000">NFD</text>
</a>
</g>
</g>
<!-- NFD&#45;&gt;Uni -->
<g id="edge7" class="edge">
<title>NFD&#45;&gt;Uni</title>
<path fill="none" stroke="#000000" d="M207.55,-178.19C215.36,-187.45 225.49,-199.48 234.28,-209.91"/>
<polygon fill="#000000" stroke="#000000" points="231.85,-212.45 240.97,-217.84 237.2,-207.94 231.85,-212.45"/>
</g>
<!-- NFKD -->
<g id="node12" class="node">
<title>NFKD</title>
<g id="a_node12"><a xlink:href="/type/NFKD" xlink:title="NFKD">
<ellipse fill="none" stroke="#000000" cx="277.75" cy="-162" rx="36" ry="18"/>
<text text-anchor="middle" x="277.75" y="-158.3" font-family="FreeSans" font-size="14.00" fill="#000000">NFKD</text>
</a>
</g>
</g>
<!-- NFKD&#45;&gt;Uni -->
<g id="edge8" class="edge">
<title>NFKD&#45;&gt;Uni</title>
<path fill="none" stroke="#000000" d="M271.94,-179.95C269.2,-187.94 265.86,-197.67 262.8,-206.6"/>
<polygon fill="#000000" stroke="#000000" points="259.44,-205.62 259.5,-216.21 266.06,-207.89 259.44,-205.62"/>
</g>
<!-- Numeric -->
<g id="node13" class="node">
<title>Numeric</title>
<g id="a_node13"><a xlink:href="/type/Numeric" xlink:title="Numeric">
<ellipse fill="none" stroke="#6666ff" cx="748.75" cy="-306" rx="44.39" ry="18"/>
<text text-anchor="middle" x="748.75" y="-302.3" font-family="FreeSans" font-size="14.00" fill="#6666ff">Numeric</text>
</a>
</g>
</g>
<!-- Real -->
<g id="node14" class="node">
<title>Real</title>
<g id="a_node14"><a xlink:href="/type/Real" xlink:title="Real">
<ellipse fill="none" stroke="#6666ff" cx="644.75" cy="-234" rx="28.7" ry="18"/>
<text text-anchor="middle" x="644.75" y="-230.3" font-family="FreeSans" font-size="14.00" fill="#6666ff">Real</text>
</a>
</g>
</g>
<!-- Real&#45;&gt;Numeric -->
<g id="edge27" class="edge">
<title>Real&#45;&gt;Numeric</title>
<path fill="none" stroke="#6666ff" d="M663.82,-247.84C679.14,-258.15 700.94,-272.82 718.61,-284.72"/>
<polygon fill="#6666ff" stroke="#6666ff" points="716.66,-287.62 726.91,-290.3 720.57,-281.82 716.66,-287.62"/>
</g>
<!-- Int -->
<g id="node15" class="node">
<title>Int</title>
<g id="a_node15"><a xlink:href="/type/Int" xlink:title="Int">
<ellipse fill="none" stroke="#000000" cx="644.75" cy="-162" rx="27" ry="18"/>
<text text-anchor="middle" x="644.75" y="-158.3" font-family="FreeSans" font-size="14.00" fill="#000000">Int</text>
</a>
</g>
</g>
<!-- Int&#45;&gt;Cool -->
<g id="edge9" class="edge">
<title>Int&#45;&gt;Cool</title>
<path fill="none" stroke="#000000" d="M659.92,-177.17C670.53,-187.06 684.88,-200.45 696.86,-211.64"/>
<polygon fill="#000000" stroke="#000000" points="694.64,-214.35 704.33,-218.62 699.41,-209.23 694.64,-214.35"/>
</g>
<!-- Int&#45;&gt;Real -->
<g id="edge28" class="edge">
<title>Int&#45;&gt;Real</title>
<path fill="none" stroke="#6666ff" d="M644.75,-180.3C644.75,-188.02 644.75,-197.29 644.75,-205.89"/>
<polygon fill="#6666ff" stroke="#6666ff" points="641.25,-205.9 644.75,-215.9 648.25,-205.9 641.25,-205.9"/>
</g>
<!-- IntStr -->
<g id="node16" class="node">
<title>IntStr</title>
<g id="a_node16"><a xlink:href="/type/IntStr" xlink:title="IntStr">
<ellipse fill="none" stroke="#000000" cx="639.75" cy="-90" rx="31.7" ry="18"/>
<text text-anchor="middle" x="639.75" y="-86.3" font-family="FreeSans" font-size="14.00" fill="#000000">IntStr</text>
</a>
</g>
</g>
<!-- IntStr&#45;&gt;Str -->
<g id="edge11" class="edge">
<title>IntStr&#45;&gt;Str</title>
<path fill="none" stroke="#000000" d="M664.12,-101.85C698.93,-117.36 758.75,-144 758.75,-144 758.75,-144 760.93,-145.03 764.21,-146.58"/>
<polygon fill="#000000" stroke="#000000" points="762.85,-149.81 773.39,-150.91 765.84,-143.48 762.85,-149.81"/>
</g>
<!-- IntStr&#45;&gt;Int -->
<g id="edge10" class="edge">
<title>IntStr&#45;&gt;Int</title>
<path fill="none" stroke="#000000" d="M640.98,-108.3C641.53,-116.02 642.2,-125.29 642.81,-133.89"/>
<polygon fill="#000000" stroke="#000000" points="639.32,-134.17 643.53,-143.9 646.3,-133.67 639.32,-134.17"/>
</g>
<!-- Num -->
<g id="node17" class="node">
<title>Num</title>
<g id="a_node17"><a xlink:href="/type/Num" xlink:title="Num">
<ellipse fill="none" stroke="#000000" cx="719.75" cy="-162" rx="29.8" ry="18"/>
<text text-anchor="middle" x="719.75" y="-158.3" font-family="FreeSans" font-size="14.00" fill="#000000">Num</text>
</a>
</g>
</g>
<!-- Num&#45;&gt;Cool -->
<g id="edge12" class="edge">
<title>Num&#45;&gt;Cool</title>
<path fill="none" stroke="#000000" d="M719.75,-180.3C719.75,-188.02 719.75,-197.29 719.75,-205.89"/>
<polygon fill="#000000" stroke="#000000" points="716.25,-205.9 719.75,-215.9 723.25,-205.9 716.25,-205.9"/>
</g>
<!-- Num&#45;&gt;Real -->
<g id="edge29" class="edge">
<title>Num&#45;&gt;Real</title>
<path fill="none" stroke="#6666ff" d="M704.21,-177.5C693.58,-187.42 679.31,-200.74 667.42,-211.84"/>
<polygon fill="#6666ff" stroke="#6666ff" points="664.93,-209.37 660.01,-218.75 669.71,-214.49 664.93,-209.37"/>
</g>
<!-- NumStr -->
<g id="node18" class="node">
<title>NumStr</title>
<g id="a_node18"><a xlink:href="/type/NumStr" xlink:title="NumStr">
<ellipse fill="none" stroke="#000000" cx="730.75" cy="-90" rx="40.89" ry="18"/>
<text text-anchor="middle" x="730.75" y="-86.3" font-family="FreeSans" font-size="14.00" fill="#000000">NumStr</text>
</a>
</g>
</g>
<!-- NumStr&#45;&gt;Str -->
<g id="edge14" class="edge">
<title>NumStr&#45;&gt;Str</title>
<path fill="none" stroke="#000000" d="M745.27,-106.88C753.85,-116.27 764.85,-128.3 774.3,-138.64"/>
<polygon fill="#000000" stroke="#000000" points="771.83,-141.12 781.16,-146.14 776.99,-136.39 771.83,-141.12"/>
</g>
<!-- NumStr&#45;&gt;Num -->
<g id="edge13" class="edge">
<title>NumStr&#45;&gt;Num</title>
<path fill="none" stroke="#000000" d="M728.03,-108.3C726.82,-116.02 725.36,-125.29 724.01,-133.89"/>
<polygon fill="#000000" stroke="#000000" points="720.53,-133.47 722.43,-143.9 727.44,-134.56 720.53,-133.47"/>
</g>
<!-- Complex -->
<g id="node19" class="node">
<title>Complex</title>
<g id="a_node19"><a xlink:href="/type/Complex" xlink:title="Complex">
<ellipse fill="none" stroke="#000000" cx="884.75" cy="-162" rx="45.49" ry="18"/>
<text text-anchor="middle" x="884.75" y="-158.3" font-family="FreeSans" font-size="14.00" fill="#000000">Complex</text>
</a>
</g>
</g>
<!-- Complex&#45;&gt;Cool -->
<g id="edge15" class="edge">
<title>Complex&#45;&gt;Cool</title>
<path fill="none" stroke="#000000" d="M854.87,-175.68C825.91,-187.96 782.12,-206.54 752.3,-219.19"/>
<polygon fill="#000000" stroke="#000000" points="750.6,-216.11 742.76,-223.24 753.33,-222.55 750.6,-216.11"/>
</g>
<!-- Complex&#45;&gt;Numeric -->
<g id="edge30" class="edge">
<title>Complex&#45;&gt;Numeric</title>
<path fill="none" stroke="#6666ff" d="M869.16,-179.32C844.62,-205.02 799.75,-252 799.75,-252 799.75,-252 784.75,-267.58 771.03,-281.85"/>
<polygon fill="#6666ff" stroke="#6666ff" points="768.46,-279.47 764.05,-289.1 773.5,-284.32 768.46,-279.47"/>
</g>
<!-- ComplexStr -->
<g id="node20" class="node">
<title>ComplexStr</title>
<g id="a_node20"><a xlink:href="/type/ComplexStr" xlink:title="ComplexStr">
<ellipse fill="none" stroke="#000000" cx="884.75" cy="-90" rx="56.59" ry="18"/>
<text text-anchor="middle" x="884.75" y="-86.3" font-family="FreeSans" font-size="14.00" fill="#000000">ComplexStr</text>
</a>
</g>
</g>
<!-- ComplexStr&#45;&gt;Str -->
<g id="edge17" class="edge">
<title>ComplexStr&#45;&gt;Str</title>
<path fill="none" stroke="#000000" d="M864.32,-106.88C851.18,-117.11 834.01,-130.47 820.01,-141.35"/>
<polygon fill="#000000" stroke="#000000" points="817.51,-138.86 811.77,-147.76 821.81,-144.39 817.51,-138.86"/>
</g>
<!-- ComplexStr&#45;&gt;Complex -->
<g id="edge16" class="edge">
<title>ComplexStr&#45;&gt;Complex</title>
<path fill="none" stroke="#000000" d="M884.75,-108.3C884.75,-116.02 884.75,-125.29 884.75,-133.89"/>
<polygon fill="#000000" stroke="#000000" points="881.25,-133.9 884.75,-143.9 888.25,-133.9 881.25,-133.9"/>
</g>
<!-- Rational -->
<g id="node21" class="node">
<title>Rational</title>
<g id="a_node21"><a xlink:href="/type/Rational" xlink:title="Rational">
<ellipse fill="none" stroke="#6666ff" cx="518.75" cy="-162" rx="42.79" ry="18"/>
<text text-anchor="middle" x="518.75" y="-158.3" font-family="FreeSans" font-size="14.00" fill="#6666ff">Rational</text>
</a>
</g>
</g>
<!-- Rational&#45;&gt;Real -->
<g id="edge31" class="edge">
<title>Rational&#45;&gt;Real</title>
<path fill="none" stroke="#6666ff" d="M543.64,-176.83C564.22,-188.26 593.5,-204.53 615.26,-216.62"/>
<polygon fill="#6666ff" stroke="#6666ff" points="613.63,-219.72 624.07,-221.51 617.03,-213.6 613.63,-219.72"/>
</g>
<!-- Rat -->
<g id="node22" class="node">
<title>Rat</title>
<g id="a_node22"><a xlink:href="/type/Rat" xlink:title="Rat">
<ellipse fill="none" stroke="#000000" cx="562.75" cy="-90" rx="27" ry="18"/>
<text text-anchor="middle" x="562.75" y="-86.3" font-family="FreeSans" font-size="14.00" fill="#000000">Rat</text>
</a>
</g>
</g>
<!-- Rat&#45;&gt;Cool -->
<g id="edge18" class="edge">
<title>Rat&#45;&gt;Cool</title>
<path fill="none" stroke="#000000" d="M571.18,-107.32C584.46,-133.02 608.75,-180 608.75,-180 608.75,-180 655.48,-202.31 688.3,-217.98"/>
<polygon fill="#000000" stroke="#000000" points="687.02,-221.25 697.55,-222.4 690.04,-214.93 687.02,-221.25"/>
</g>
<!-- Rat&#45;&gt;Rational -->
<g id="edge32" class="edge">
<title>Rat&#45;&gt;Rational</title>
<path fill="none" stroke="#6666ff" d="M552.76,-106.88C547.46,-115.32 540.81,-125.9 534.8,-135.45"/>
<polygon fill="#6666ff" stroke="#6666ff" points="531.66,-133.87 529.31,-144.2 537.59,-137.6 531.66,-133.87"/>
</g>
<!-- RatStr -->
<g id="node23" class="node">
<title>RatStr</title>
<g id="a_node23"><a xlink:href="/type/RatStr" xlink:title="RatStr">
<ellipse fill="none" stroke="#000000" cx="680.75" cy="-18" rx="36" ry="18"/>
<text text-anchor="middle" x="680.75" y="-14.3" font-family="FreeSans" font-size="14.00" fill="#000000">RatStr</text>
</a>
</g>
</g>
<!-- RatStr&#45;&gt;Str -->
<g id="edge20" class="edge">
<title>RatStr&#45;&gt;Str</title>
<path fill="none" stroke="#000000" d="M704.45,-31.56C734.02,-47.23 780.75,-72 780.75,-72 780.75,-72 786.33,-107.52 790.45,-133.68"/>
<polygon fill="#000000" stroke="#000000" points="787.04,-134.51 792.05,-143.84 793.95,-133.42 787.04,-134.51"/>
</g>
<!-- RatStr&#45;&gt;Rat -->
<g id="edge19" class="edge">
<title>RatStr&#45;&gt;Rat</title>
<path fill="none" stroke="#000000" d="M658.55,-32.17C639.48,-43.48 611.86,-59.87 591.17,-72.14"/>
<polygon fill="#000000" stroke="#000000" points="589.3,-69.18 582.49,-77.29 592.88,-75.2 589.3,-69.18"/>
</g>
<!-- Buf -->
<g id="node24" class="node">
<title>Buf</title>
<g id="a_node24"><a xlink:href="/type/Buf" xlink:title="Buf">
<ellipse fill="none" stroke="#6666ff" cx="358.75" cy="-162" rx="27" ry="18"/>
<text text-anchor="middle" x="358.75" y="-158.3" font-family="FreeSans" font-size="14.00" fill="#6666ff">Buf</text>
</a>
</g>
</g>
<!-- Buf&#45;&gt;Blob -->
<g id="edge33" class="edge">
<title>Buf&#45;&gt;Blob</title>
<path fill="none" stroke="#6666ff" d="M358.75,-180.3C358.75,-188.02 358.75,-197.29 358.75,-205.89"/>
<polygon fill="#6666ff" stroke="#6666ff" points="355.25,-205.9 358.75,-215.9 362.25,-205.9 355.25,-205.9"/>
</g>
<!-- utf8 -->
<g id="node25" class="node">
<title>utf8</title>
<g id="a_node25"><a xlink:href="/type/utf8" xlink:title="utf8">
<ellipse fill="none" stroke="#000000" cx="430.75" cy="-162" rx="27" ry="18"/>
<text text-anchor="middle" x="430.75" y="-158.3" font-family="FreeSans" font-size="14.00" fill="#000000">utf8</text>
</a>
</g>
</g>
<!-- utf8&#45;&gt;Any -->
<g id="edge21" class="edge">
<title>utf8&#45;&gt;Any</title>
<path fill="none" stroke="#000000" d="M432.07,-180.13C433.95,-204.33 437.39,-248.79 439.62,-277.61"/>
<polygon fill="#000000" stroke="#000000" points="436.15,-278.11 440.42,-287.81 443.13,-277.57 436.15,-278.11"/>
</g>
<!-- utf8&#45;&gt;Blob -->
<g id="edge34" class="edge">
<title>utf8&#45;&gt;Blob</title>
<path fill="none" stroke="#6666ff" d="M416.18,-177.17C406.16,-186.9 392.67,-200.02 381.27,-211.1"/>
<polygon fill="#6666ff" stroke="#6666ff" points="378.52,-208.89 373.79,-218.37 383.4,-213.91 378.52,-208.89"/>
</g>
</g>
</svg>
