<?xml version="1.0" encoding="UTF-8" standalone="no"?>
<!DOCTYPE svg PUBLIC "-//W3C//DTD SVG 1.1//EN"
 "http://www.w3.org/Graphics/SVG/1.1/DTD/svg11.dtd">
<!-- Generated by graphviz version 2.43.0 (0)
 -->
<!-- Title: perl6&#45;type&#45;graph Pages: 1 -->
<svg width="254pt" height="260pt"
 viewBox="0.00 0.00 254.15 260.00" xmlns="http://www.w3.org/2000/svg" xmlns:xlink="http://www.w3.org/1999/xlink">
<g id="graph0" class="graph" transform="scale(1 1) rotate(0) translate(4 256)">
<title>perl6&#45;type&#45;graph</title>
<polygon fill="#ffffff" stroke="transparent" points="-4,4 -4,-256 250.15,-256 250.15,4 -4,4"/>
<!-- Systemic -->
<g id="node1" class="node">
<title>Systemic</title>
<g id="a_node1"><a xlink:href="/type/Systemic" xlink:title="Systemic">
<ellipse fill="none" stroke="#6666ff" cx="65" cy="-162" rx="46.29" ry="18"/>
<text text-anchor="middle" x="65" y="-158.3" font-family="FreeSans" font-size="14.00" fill="#6666ff">Systemic</text>
</a>
</g>
</g>
<!-- Mu -->
<g id="node2" class="node">
<title>Mu</title>
<g id="a_node2"><a xlink:href="/type/Mu" xlink:title="Mu">
<ellipse fill="none" stroke="#000000" cx="156" cy="-234" rx="27" ry="18"/>
<text text-anchor="middle" x="156" y="-230.3" font-family="FreeSans" font-size="14.00" fill="#000000">Mu</text>
</a>
</g>
</g>
<!-- Any -->
<g id="node3" class="node">
<title>Any</title>
<g id="a_node3"><a xlink:href="/type/Any" xlink:title="Any">
<ellipse fill="none" stroke="#000000" cx="156" cy="-162" rx="27" ry="18"/>
<text text-anchor="middle" x="156" y="-158.3" font-family="FreeSans" font-size="14.00" fill="#000000">Any</text>
</a>
</g>
</g>
<!-- Any&#45;&gt;Mu -->
<g id="edge1" class="edge">
<title>Any&#45;&gt;Mu</title>
<path fill="none" stroke="#000000" d="M156,-180.3C156,-188.02 156,-197.29 156,-205.89"/>
<polygon fill="#000000" stroke="#000000" points="152.5,-205.9 156,-215.9 159.5,-205.9 152.5,-205.9"/>
</g>
<!-- VM -->
<g id="node4" class="node">
<title>VM</title>
<g id="a_node4"><a xlink:href="/type/VM" xlink:title="VM">
<ellipse fill="none" stroke="#000000" cx="27" cy="-90" rx="27" ry="18"/>
<text text-anchor="middle" x="27" y="-86.3" font-family="FreeSans" font-size="14.00" fill="#000000">VM</text>
</a>
</g>
</g>
<!-- VM&#45;&gt;Systemic -->
<g id="edge6" class="edge">
<title>VM&#45;&gt;Systemic</title>
<path fill="none" stroke="#6666ff" d="M35.81,-107.24C40.29,-115.47 45.83,-125.68 50.88,-134.98"/>
<polygon fill="#6666ff" stroke="#6666ff" points="47.86,-136.76 55.7,-143.88 54.01,-133.42 47.86,-136.76"/>
</g>
<!-- VM&#45;&gt;Any -->
<g id="edge2" class="edge">
<title>VM&#45;&gt;Any</title>
<path fill="none" stroke="#000000" d="M47.44,-102.09C68.76,-113.66 102.4,-131.91 126.58,-145.03"/>
<polygon fill="#000000" stroke="#000000" points="125.2,-148.27 135.66,-149.96 128.54,-142.11 125.2,-148.27"/>
</g>
<!-- Raku -->
<g id="node5" class="node">
<title>Raku</title>
<g id="a_node5"><a xlink:href="/type/Raku" xlink:title="Raku">
<ellipse fill="none" stroke="#000000" cx="104" cy="-90" rx="31.7" ry="18"/>
<text text-anchor="middle" x="104" y="-86.3" font-family="FreeSans" font-size="14.00" fill="#000000">Raku</text>
</a>
</g>
</g>
<!-- Raku&#45;&gt;Systemic -->
<g id="edge7" class="edge">
<title>Raku&#45;&gt;Systemic</title>
<path fill="none" stroke="#6666ff" d="M94.76,-107.59C90.16,-115.84 84.5,-125.99 79.36,-135.22"/>
<polygon fill="#6666ff" stroke="#6666ff" points="76.26,-133.6 74.45,-144.04 82.37,-137.01 76.26,-133.6"/>
</g>
<!-- Raku&#45;&gt;Any -->
<g id="edge3" class="edge">
<title>Raku&#45;&gt;Any</title>
<path fill="none" stroke="#000000" d="M115.8,-106.88C122.54,-115.96 131.12,-127.51 138.62,-137.61"/>
<polygon fill="#000000" stroke="#000000" points="135.83,-139.72 144.6,-145.66 141.45,-135.55 135.83,-139.72"/>
</g>
<!-- Compiler -->
<g id="node6" class="node">
<title>Compiler</title>
<g id="a_node6"><a xlink:href="/type/Compiler" xlink:title="Compiler">
<ellipse fill="none" stroke="#000000" cx="200" cy="-90" rx="46.29" ry="18"/>
<text text-anchor="middle" x="200" y="-86.3" font-family="FreeSans" font-size="14.00" fill="#000000">Compiler</text>
</a>
</g>
</g>
<!-- Compiler&#45;&gt;Systemic -->
<g id="edge8" class="edge">
<title>Compiler&#45;&gt;Systemic</title>
<path fill="none" stroke="#6666ff" d="M173.33,-104.83C152.53,-115.62 123.44,-130.7 100.64,-142.52"/>
<polygon fill="#6666ff" stroke="#6666ff" points="98.88,-139.49 91.62,-147.2 102.1,-145.7 98.88,-139.49"/>
</g>
<!-- Compiler&#45;&gt;Any -->
<g id="edge4" class="edge">
<title>Compiler&#45;&gt;Any</title>
<path fill="none" stroke="#000000" d="M189.57,-107.59C184.18,-116.17 177.49,-126.81 171.51,-136.33"/>
<polygon fill="#000000" stroke="#000000" points="168.41,-134.68 166.05,-145.01 174.33,-138.41 168.41,-134.68"/>
</g>
<!-- Perl -->
<g id="node7" class="node">
<title>Perl</title>
<g id="a_node7"><a xlink:href="/type/Perl" xlink:title="Perl">
<ellipse fill="none" stroke="#000000" cx="104" cy="-18" rx="27" ry="18"/>
<text text-anchor="middle" x="104" y="-14.3" font-family="FreeSans" font-size="14.00" fill="#000000">Perl</text>
</a>
</g>
</g>
<!-- Perl&#45;&gt;Raku -->
<g id="edge5" class="edge">
<title>Perl&#45;&gt;Raku</title>
<path fill="none" stroke="#000000" d="M104,-36.3C104,-44.02 104,-53.29 104,-61.89"/>
<polygon fill="#000000" stroke="#000000" points="100.5,-61.9 104,-71.9 107.5,-61.9 100.5,-61.9"/>
</g>
</g>
</svg>
