<?xml version="1.0" encoding="UTF-8" standalone="no"?>
<!DOCTYPE svg PUBLIC "-//W3C//DTD SVG 1.1//EN"
 "http://www.w3.org/Graphics/SVG/1.1/DTD/svg11.dtd">
<!-- Generated by graphviz version 2.43.0 (0)
 -->
<!-- Title: perl6&#45;type&#45;graph Pages: 1 -->
<svg width="679pt" height="332pt"
 viewBox="0.00 0.00 678.75 332.00" xmlns="http://www.w3.org/2000/svg" xmlns:xlink="http://www.w3.org/1999/xlink">
<g id="graph0" class="graph" transform="scale(1 1) rotate(0) translate(4 328)">
<title>perl6&#45;type&#45;graph</title>
<polygon fill="white" stroke="transparent" points="-4,4 -4,-328 674.75,-328 674.75,4 -4,4"/>
<!-- Positional -->
<g id="node1" class="node">
<title>Positional</title>
<g id="a_node1"><a xlink:href="/type/Positional" xlink:title="Positional">
<ellipse fill="none" stroke="#6666ff" cx="328.75" cy="-162" rx="48.99" ry="18"/>
<text text-anchor="middle" x="328.75" y="-158.3" font-family="FreeSans" font-size="14.00" fill="#6666ff">Positional</text>
</a>
</g>
</g>
<!-- Mu -->
<g id="node2" class="node">
<title>Mu</title>
<g id="a_node2"><a xlink:href="/type/Mu" xlink:title="Mu">
<ellipse fill="none" stroke="#000000" cx="522.75" cy="-306" rx="27" ry="18"/>
<text text-anchor="middle" x="522.75" y="-302.3" font-family="FreeSans" font-size="14.00" fill="#000000">Mu</text>
</a>
</g>
</g>
<!-- Any -->
<g id="node3" class="node">
<title>Any</title>
<g id="a_node3"><a xlink:href="/type/Any" xlink:title="Any">
<ellipse fill="none" stroke="#000000" cx="522.75" cy="-234" rx="27" ry="18"/>
<text text-anchor="middle" x="522.75" y="-230.3" font-family="FreeSans" font-size="14.00" fill="#000000">Any</text>
</a>
</g>
</g>
<!-- Any&#45;&gt;Mu -->
<g id="edge1" class="edge">
<title>Any&#45;&gt;Mu</title>
<path fill="none" stroke="#000000" d="M522.75,-252.3C522.75,-260.02 522.75,-269.29 522.75,-277.89"/>
<polygon fill="#000000" stroke="#000000" points="519.25,-277.9 522.75,-287.9 526.25,-277.9 519.25,-277.9"/>
</g>
<!-- Stringy -->
<g id="node4" class="node">
<title>Stringy</title>
<g id="a_node4"><a xlink:href="/type/Stringy" xlink:title="Stringy">
<ellipse fill="none" stroke="#6666ff" cx="223.75" cy="-162" rx="38.19" ry="18"/>
<text text-anchor="middle" x="223.75" y="-158.3" font-family="FreeSans" font-size="14.00" fill="#6666ff">Stringy</text>
</a>
</g>
</g>
<!-- Uni -->
<g id="node5" class="node">
<title>Uni</title>
<g id="a_node5"><a xlink:href="/type/Uni" xlink:title="Uni">
<ellipse fill="none" stroke="#000000" cx="194.75" cy="-90" rx="27" ry="18"/>
<text text-anchor="middle" x="194.75" y="-86.3" font-family="FreeSans" font-size="14.00" fill="#000000">Uni</text>
</a>
</g>
</g>
<!-- Uni&#45;&gt;Positional -->
<g id="edge13" class="edge">
<title>Uni&#45;&gt;Positional</title>
<path fill="none" stroke="#6666ff" d="M215.39,-101.78C235.96,-112.53 267.97,-129.25 292.73,-142.19"/>
<polygon fill="#6666ff" stroke="#6666ff" points="291.34,-145.41 301.83,-146.94 294.59,-139.21 291.34,-145.41"/>
</g>
<!-- Uni&#45;&gt;Any -->
<g id="edge2" class="edge">
<title>Uni&#45;&gt;Any</title>
<path fill="none" stroke="#000000" d="M189.05,-107.77C183.78,-123.3 176.75,-144 176.75,-144 176.75,-144 176.75,-180 176.75,-180 176.75,-180 397.93,-213.88 486.61,-227.46"/>
<polygon fill="#000000" stroke="#000000" points="486.33,-230.96 496.74,-229.02 487.39,-224.04 486.33,-230.96"/>
</g>
<!-- Uni&#45;&gt;Stringy -->
<g id="edge14" class="edge">
<title>Uni&#45;&gt;Stringy</title>
<path fill="none" stroke="#6666ff" d="M201.62,-107.59C204.97,-115.66 209.07,-125.57 212.83,-134.65"/>
<polygon fill="#6666ff" stroke="#6666ff" points="209.66,-136.14 216.72,-144.04 216.13,-133.47 209.66,-136.14"/>
</g>
<!-- Cool -->
<g id="node6" class="node">
<title>Cool</title>
<g id="a_node6"><a xlink:href="/type/Cool" xlink:title="Cool">
<ellipse fill="none" stroke="#000000" cx="522.75" cy="-162" rx="28.7" ry="18"/>
<text text-anchor="middle" x="522.75" y="-158.3" font-family="FreeSans" font-size="14.00" fill="#000000">Cool</text>
</a>
</g>
</g>
<!-- Cool&#45;&gt;Any -->
<g id="edge3" class="edge">
<title>Cool&#45;&gt;Any</title>
<path fill="none" stroke="#000000" d="M522.75,-180.3C522.75,-188.02 522.75,-197.29 522.75,-205.89"/>
<polygon fill="#000000" stroke="#000000" points="519.25,-205.9 522.75,-215.9 526.25,-205.9 519.25,-205.9"/>
</g>
<!-- Iterable -->
<g id="node7" class="node">
<title>Iterable</title>
<g id="a_node7"><a xlink:href="/type/Iterable" xlink:title="Iterable">
<ellipse fill="none" stroke="#6666ff" cx="435.75" cy="-162" rx="40.09" ry="18"/>
<text text-anchor="middle" x="435.75" y="-158.3" font-family="FreeSans" font-size="14.00" fill="#6666ff">Iterable</text>
</a>
</g>
</g>
<!-- List -->
<g id="node8" class="node">
<title>List</title>
<g id="a_node8"><a xlink:href="/type/List" xlink:title="List">
<ellipse fill="none" stroke="#000000" cx="501.75" cy="-90" rx="27" ry="18"/>
<text text-anchor="middle" x="501.75" y="-86.3" font-family="FreeSans" font-size="14.00" fill="#000000">List</text>
</a>
</g>
</g>
<!-- List&#45;&gt;Positional -->
<g id="edge15" class="edge">
<title>List&#45;&gt;Positional</title>
<path fill="none" stroke="#6666ff" d="M480.39,-101.09C472.64,-104.75 465.75,-108 465.75,-108 465.75,-108 410.88,-129.23 370.59,-144.81"/>
<polygon fill="#6666ff" stroke="#6666ff" points="369.28,-141.57 361.21,-148.44 371.8,-148.1 369.28,-141.57"/>
</g>
<!-- List&#45;&gt;Cool -->
<g id="edge4" class="edge">
<title>List&#45;&gt;Cool</title>
<path fill="none" stroke="#000000" d="M506.83,-107.95C509.23,-115.94 512.15,-125.67 514.83,-134.6"/>
<polygon fill="#000000" stroke="#000000" points="511.48,-135.64 517.71,-144.21 518.19,-133.63 511.48,-135.64"/>
</g>
<!-- List&#45;&gt;Iterable -->
<g id="edge16" class="edge">
<title>List&#45;&gt;Iterable</title>
<path fill="none" stroke="#6666ff" d="M487.75,-105.85C478.98,-115.15 467.5,-127.33 457.55,-137.88"/>
<polygon fill="#6666ff" stroke="#6666ff" points="454.95,-135.53 450.64,-145.2 460.05,-140.33 454.95,-135.53"/>
</g>
<!-- Blob -->
<g id="node9" class="node">
<title>Blob</title>
<g id="a_node9"><a xlink:href="/type/Blob" xlink:title="Blob">
<ellipse fill="none" stroke="#6666ff" cx="332.75" cy="-90" rx="28.7" ry="18"/>
<text text-anchor="middle" x="332.75" y="-86.3" font-family="FreeSans" font-size="14.00" fill="#6666ff">Blob</text>
</a>
</g>
</g>
<!-- Blob&#45;&gt;Positional -->
<g id="edge17" class="edge">
<title>Blob&#45;&gt;Positional</title>
<path fill="none" stroke="#6666ff" d="M331.76,-108.3C331.32,-116.02 330.79,-125.29 330.3,-133.89"/>
<polygon fill="#6666ff" stroke="#6666ff" points="326.8,-133.71 329.72,-143.9 333.79,-134.11 326.8,-133.71"/>
</g>
<!-- Blob&#45;&gt;Stringy -->
<g id="edge18" class="edge">
<title>Blob&#45;&gt;Stringy</title>
<path fill="none" stroke="#6666ff" d="M313.51,-103.35C297.05,-113.92 273.07,-129.33 254.03,-141.55"/>
<polygon fill="#6666ff" stroke="#6666ff" points="251.93,-138.74 245.41,-147.09 255.71,-144.63 251.93,-138.74"/>
</g>
<!-- Range -->
<g id="node10" class="node">
<title>Range</title>
<g id="a_node10"><a xlink:href="/type/Range" xlink:title="Range">
<ellipse fill="none" stroke="#000000" cx="420.75" cy="-90" rx="36.29" ry="18"/>
<text text-anchor="middle" x="420.75" y="-86.3" font-family="FreeSans" font-size="14.00" fill="#000000">Range</text>
</a>
</g>
</g>
<!-- Range&#45;&gt;Positional -->
<g id="edge19" class="edge">
<title>Range&#45;&gt;Positional</title>
<path fill="none" stroke="#6666ff" d="M401.68,-105.5C388.84,-115.28 371.66,-128.35 357.21,-139.35"/>
<polygon fill="#6666ff" stroke="#6666ff" points="354.9,-136.7 349.06,-145.54 359.14,-142.27 354.9,-136.7"/>
</g>
<!-- Range&#45;&gt;Cool -->
<g id="edge5" class="edge">
<title>Range&#45;&gt;Cool</title>
<path fill="none" stroke="#000000" d="M441.39,-105.17C457.05,-115.92 478.72,-130.79 495.76,-142.48"/>
<polygon fill="#000000" stroke="#000000" points="493.97,-145.5 504.19,-148.27 497.93,-139.72 493.97,-145.5"/>
</g>
<!-- Range&#45;&gt;Iterable -->
<g id="edge20" class="edge">
<title>Range&#45;&gt;Iterable</title>
<path fill="none" stroke="#6666ff" d="M424.38,-107.95C426.05,-115.74 428.07,-125.18 429.94,-133.92"/>
<polygon fill="#6666ff" stroke="#6666ff" points="426.53,-134.68 432.04,-143.72 433.37,-133.21 426.53,-134.68"/>
</g>
<!-- NFKC -->
<g id="node11" class="node">
<title>NFKC</title>
<g id="a_node11"><a xlink:href="/type/NFKC" xlink:title="NFKC">
<ellipse fill="none" stroke="#000000" cx="35.75" cy="-18" rx="36" ry="18"/>
<text text-anchor="middle" x="35.75" y="-14.3" font-family="FreeSans" font-size="14.00" fill="#000000">NFKC</text>
</a>
</g>
</g>
<!-- NFKC&#45;&gt;Uni -->
<g id="edge6" class="edge">
<title>NFKC&#45;&gt;Uni</title>
<path fill="none" stroke="#000000" d="M62,-30.56C89.74,-42.77 133.48,-62.03 163.1,-75.07"/>
<polygon fill="#000000" stroke="#000000" points="162,-78.41 172.56,-79.23 164.82,-72 162,-78.41"/>
</g>
<!-- NFC -->
<g id="node12" class="node">
<title>NFC</title>
<g id="a_node12"><a xlink:href="/type/NFC" xlink:title="NFC">
<ellipse fill="none" stroke="#000000" cx="118.75" cy="-18" rx="29.5" ry="18"/>
<text text-anchor="middle" x="118.75" y="-14.3" font-family="FreeSans" font-size="14.00" fill="#000000">NFC</text>
</a>
</g>
</g>
<!-- NFC&#45;&gt;Uni -->
<g id="edge7" class="edge">
<title>NFC&#45;&gt;Uni</title>
<path fill="none" stroke="#000000" d="M134.49,-33.5C145.34,-43.49 159.91,-56.91 172.01,-68.06"/>
<polygon fill="#000000" stroke="#000000" points="169.81,-70.79 179.54,-74.99 174.55,-65.64 169.81,-70.79"/>
</g>
<!-- NFD -->
<g id="node13" class="node">
<title>NFD</title>
<g id="a_node13"><a xlink:href="/type/NFD" xlink:title="NFD">
<ellipse fill="none" stroke="#000000" cx="194.75" cy="-18" rx="29.5" ry="18"/>
<text text-anchor="middle" x="194.75" y="-14.3" font-family="FreeSans" font-size="14.00" fill="#000000">NFD</text>
</a>
</g>
</g>
<!-- NFD&#45;&gt;Uni -->
<g id="edge8" class="edge">
<title>NFD&#45;&gt;Uni</title>
<path fill="none" stroke="#000000" d="M194.75,-36.3C194.75,-44.02 194.75,-53.29 194.75,-61.89"/>
<polygon fill="#000000" stroke="#000000" points="191.25,-61.9 194.75,-71.9 198.25,-61.9 191.25,-61.9"/>
</g>
<!-- NFKD -->
<g id="node14" class="node">
<title>NFKD</title>
<g id="a_node14"><a xlink:href="/type/NFKD" xlink:title="NFKD">
<ellipse fill="none" stroke="#000000" cx="277.75" cy="-18" rx="36" ry="18"/>
<text text-anchor="middle" x="277.75" y="-14.3" font-family="FreeSans" font-size="14.00" fill="#000000">NFKD</text>
</a>
</g>
</g>
<!-- NFKD&#45;&gt;Uni -->
<g id="edge9" class="edge">
<title>NFKD&#45;&gt;Uni</title>
<path fill="none" stroke="#000000" d="M260.14,-33.85C248.09,-44.02 231.94,-57.63 218.71,-68.79"/>
<polygon fill="#000000" stroke="#000000" points="216.3,-66.24 210.92,-75.36 220.82,-71.59 216.3,-66.24"/>
</g>
<!-- Slip -->
<g id="node15" class="node">
<title>Slip</title>
<g id="a_node15"><a xlink:href="/type/Slip" xlink:title="Slip">
<ellipse fill="none" stroke="#000000" cx="643.75" cy="-18" rx="27" ry="18"/>
<text text-anchor="middle" x="643.75" y="-14.3" font-family="FreeSans" font-size="14.00" fill="#000000">Slip</text>
</a>
</g>
</g>
<!-- Slip&#45;&gt;List -->
<g id="edge10" class="edge">
<title>Slip&#45;&gt;List</title>
<path fill="none" stroke="#000000" d="M622.49,-29.48C598.54,-41.28 559.42,-60.57 532.23,-73.97"/>
<polygon fill="#000000" stroke="#000000" points="530.57,-70.89 523.15,-78.45 533.67,-77.17 530.57,-70.89"/>
</g>
<!-- Array -->
<g id="node16" class="node">
<title>Array</title>
<g id="a_node16"><a xlink:href="/type/Array" xlink:title="Array">
<ellipse fill="none" stroke="#000000" cx="494.75" cy="-18" rx="31.7" ry="18"/>
<text text-anchor="middle" x="494.75" y="-14.3" font-family="FreeSans" font-size="14.00" fill="#000000">Array</text>
</a>
</g>
</g>
<!-- Array&#45;&gt;List -->
<g id="edge11" class="edge">
<title>Array&#45;&gt;List</title>
<path fill="none" stroke="#000000" d="M496.48,-36.3C497.25,-44.02 498.18,-53.29 499.04,-61.89"/>
<polygon fill="#000000" stroke="#000000" points="495.56,-62.29 500.04,-71.9 502.52,-61.6 495.56,-62.29"/>
</g>
<!-- Buf -->
<g id="node17" class="node">
<title>Buf</title>
<g id="a_node17"><a xlink:href="/type/Buf" xlink:title="Buf">
<ellipse fill="none" stroke="#6666ff" cx="358.75" cy="-18" rx="27" ry="18"/>
<text text-anchor="middle" x="358.75" y="-14.3" font-family="FreeSans" font-size="14.00" fill="#6666ff">Buf</text>
</a>
</g>
</g>
<!-- Buf&#45;&gt;Blob -->
<g id="edge21" class="edge">
<title>Buf&#45;&gt;Blob</title>
<path fill="none" stroke="#6666ff" d="M352.59,-35.59C349.59,-43.66 345.91,-53.57 342.54,-62.65"/>
<polygon fill="#6666ff" stroke="#6666ff" points="339.25,-61.45 339.04,-72.04 345.81,-63.89 339.25,-61.45"/>
</g>
<!-- utf8 -->
<g id="node18" class="node">
<title>utf8</title>
<g id="a_node18"><a xlink:href="/type/utf8" xlink:title="utf8">
<ellipse fill="none" stroke="#000000" cx="571.75" cy="-18" rx="27" ry="18"/>
<text text-anchor="middle" x="571.75" y="-14.3" font-family="FreeSans" font-size="14.00" fill="#000000">utf8</text>
</a>
</g>
</g>
<!-- utf8&#45;&gt;Any -->
<g id="edge12" class="edge">
<title>utf8&#45;&gt;Any</title>
<path fill="none" stroke="#000000" d="M570.57,-36.23C567.73,-77.76 560.75,-180 560.75,-180 560.75,-180 550.05,-194.92 540.01,-208.92"/>
<polygon fill="#000000" stroke="#000000" points="536.93,-207.22 533.94,-217.38 542.61,-211.3 536.93,-207.22"/>
</g>
<!-- utf8&#45;&gt;Blob -->
<g id="edge22" class="edge">
<title>utf8&#45;&gt;Blob</title>
<path fill="none" stroke="#6666ff" d="M550.39,-29.09C542.64,-32.75 535.75,-36 535.75,-36 535.75,-36 375.75,-72 375.75,-72 375.75,-72 371.48,-73.69 365.64,-76"/>
<polygon fill="#6666ff" stroke="#6666ff" points="364.27,-72.77 356.26,-79.7 366.85,-79.28 364.27,-72.77"/>
</g>
</g>
</svg>
