<?xml version="1.0" encoding="UTF-8" standalone="no"?>
<!DOCTYPE svg PUBLIC "-//W3C//DTD SVG 1.1//EN"
 "http://www.w3.org/Graphics/SVG/1.1/DTD/svg11.dtd">
<!-- Generated by graphviz version 2.43.0 (0)
 -->
<!-- Title: perl6&#45;type&#45;graph Pages: 1 -->
<svg width="1718pt" height="260pt"
 viewBox="0.00 0.00 1717.74 260.00" xmlns="http://www.w3.org/2000/svg" xmlns:xlink="http://www.w3.org/1999/xlink">
<g id="graph0" class="graph" transform="scale(1 1) rotate(0) translate(4 256)">
<title>perl6&#45;type&#45;graph</title>
<polygon fill="#ffffff" stroke="transparent" points="-4,4 -4,-256 1713.74,-256 1713.74,4 -4,4"/>
<!-- Pod::Block -->
<g id="node1" class="node">
<title>Pod::Block</title>
<g id="a_node1"><a xlink:href="/type/Pod::Block" xlink:title="Pod::Block">
<ellipse fill="none" stroke="#000000" cx="843.69" cy="-90" rx="53.09" ry="18"/>
<text text-anchor="middle" x="843.69" y="-86.3" font-family="FreeSans" font-size="14.00" fill="#000000">Pod::Block</text>
</a>
</g>
</g>
<!-- Any -->
<g id="node3" class="node">
<title>Any</title>
<g id="a_node3"><a xlink:href="/type/Any" xlink:title="Any">
<ellipse fill="none" stroke="#000000" cx="843.69" cy="-162" rx="27" ry="18"/>
<text text-anchor="middle" x="843.69" y="-158.3" font-family="FreeSans" font-size="14.00" fill="#000000">Any</text>
</a>
</g>
</g>
<!-- Pod::Block&#45;&gt;Any -->
<g id="edge1" class="edge">
<title>Pod::Block&#45;&gt;Any</title>
<path fill="none" stroke="#000000" d="M843.69,-108.3C843.69,-116.02 843.69,-125.29 843.69,-133.89"/>
<polygon fill="#000000" stroke="#000000" points="840.19,-133.9 843.69,-143.9 847.19,-133.9 840.19,-133.9"/>
</g>
<!-- Mu -->
<g id="node2" class="node">
<title>Mu</title>
<g id="a_node2"><a xlink:href="/type/Mu" xlink:title="Mu">
<ellipse fill="none" stroke="#000000" cx="843.69" cy="-234" rx="27" ry="18"/>
<text text-anchor="middle" x="843.69" y="-230.3" font-family="FreeSans" font-size="14.00" fill="#000000">Mu</text>
</a>
</g>
</g>
<!-- Any&#45;&gt;Mu -->
<g id="edge2" class="edge">
<title>Any&#45;&gt;Mu</title>
<path fill="none" stroke="#000000" d="M843.69,-180.3C843.69,-188.02 843.69,-197.29 843.69,-205.89"/>
<polygon fill="#000000" stroke="#000000" points="840.19,-205.9 843.69,-215.9 847.19,-205.9 840.19,-205.9"/>
</g>
<!-- Pod::Heading -->
<g id="node4" class="node">
<title>Pod::Heading</title>
<g id="a_node4"><a xlink:href="/type/Pod::Heading" xlink:title="Pod::Heading">
<ellipse fill="none" stroke="#000000" cx="63.69" cy="-18" rx="63.89" ry="18"/>
<text text-anchor="middle" x="63.69" y="-14.3" font-family="FreeSans" font-size="14.00" fill="#000000">Pod::Heading</text>
</a>
</g>
</g>
<!-- Pod::Heading&#45;&gt;Pod::Block -->
<g id="edge3" class="edge">
<title>Pod::Heading&#45;&gt;Pod::Block</title>
<path fill="none" stroke="#000000" d="M111.16,-30.05C125.11,-33.3 136.69,-36 136.69,-36 136.69,-36 610.05,-71.48 782.12,-84.38"/>
<polygon fill="#000000" stroke="#000000" points="782.05,-87.89 792.28,-85.15 782.57,-80.91 782.05,-87.89"/>
</g>
<!-- Pod::Item -->
<g id="node5" class="node">
<title>Pod::Item</title>
<g id="a_node5"><a xlink:href="/type/Pod::Item" xlink:title="Pod::Item">
<ellipse fill="none" stroke="#000000" cx="193.69" cy="-18" rx="48.19" ry="18"/>
<text text-anchor="middle" x="193.69" y="-14.3" font-family="FreeSans" font-size="14.00" fill="#000000">Pod::Item</text>
</a>
</g>
</g>
<!-- Pod::Item&#45;&gt;Pod::Block -->
<g id="edge4" class="edge">
<title>Pod::Item&#45;&gt;Pod::Block</title>
<path fill="none" stroke="#000000" d="M230.12,-29.86C241.29,-33.19 250.69,-36 250.69,-36 250.69,-36 631.55,-70.04 782.82,-83.56"/>
<polygon fill="#000000" stroke="#000000" points="782.61,-87.05 792.88,-84.46 783.23,-80.08 782.61,-87.05"/>
</g>
<!-- Pod::Block::Comment -->
<g id="node6" class="node">
<title>Pod::Block::Comment</title>
<g id="a_node6"><a xlink:href="/type/Pod::Block::Comment" xlink:title="Pod::Block::Comment">
<ellipse fill="none" stroke="#000000" cx="355.69" cy="-18" rx="96.38" ry="18"/>
<text text-anchor="middle" x="355.69" y="-14.3" font-family="FreeSans" font-size="14.00" fill="#000000">Pod::Block::Comment</text>
</a>
</g>
</g>
<!-- Pod::Block::Comment&#45;&gt;Pod::Block -->
<g id="edge5" class="edge">
<title>Pod::Block::Comment&#45;&gt;Pod::Block</title>
<path fill="none" stroke="#000000" d="M425.73,-30.34C444.99,-33.46 460.69,-36 460.69,-36 460.69,-36 677.89,-66.06 785.16,-80.9"/>
<polygon fill="#000000" stroke="#000000" points="784.8,-84.38 795.19,-82.29 785.76,-77.45 784.8,-84.38"/>
</g>
<!-- Pod::FormattingCode -->
<g id="node7" class="node">
<title>Pod::FormattingCode</title>
<g id="a_node7"><a xlink:href="/type/Pod::FormattingCode" xlink:title="Pod::FormattingCode">
<ellipse fill="none" stroke="#000000" cx="563.69" cy="-18" rx="94.48" ry="18"/>
<text text-anchor="middle" x="563.69" y="-14.3" font-family="FreeSans" font-size="14.00" fill="#000000">Pod::FormattingCode</text>
</a>
</g>
</g>
<!-- Pod::FormattingCode&#45;&gt;Pod::Block -->
<g id="edge6" class="edge">
<title>Pod::FormattingCode&#45;&gt;Pod::Block</title>
<path fill="none" stroke="#000000" d="M618.68,-32.75C669.04,-45.34 743.02,-63.83 792.24,-76.14"/>
<polygon fill="#000000" stroke="#000000" points="791.5,-79.56 802.05,-78.59 793.19,-72.77 791.5,-79.56"/>
</g>
<!-- Pod::Block::Table -->
<g id="node8" class="node">
<title>Pod::Block::Table</title>
<g id="a_node8"><a xlink:href="/type/Pod::Block::Table" xlink:title="Pod::Block::Table">
<ellipse fill="none" stroke="#000000" cx="756.69" cy="-18" rx="80.69" ry="18"/>
<text text-anchor="middle" x="756.69" y="-14.3" font-family="FreeSans" font-size="14.00" fill="#000000">Pod::Block::Table</text>
</a>
</g>
</g>
<!-- Pod::Block::Table&#45;&gt;Pod::Block -->
<g id="edge7" class="edge">
<title>Pod::Block::Table&#45;&gt;Pod::Block</title>
<path fill="none" stroke="#000000" d="M777.31,-35.59C788.94,-44.94 803.61,-56.75 816.2,-66.88"/>
<polygon fill="#000000" stroke="#000000" points="814.14,-69.71 824.12,-73.25 818.52,-64.26 814.14,-69.71"/>
</g>
<!-- Pod::Block::Para -->
<g id="node9" class="node">
<title>Pod::Block::Para</title>
<g id="a_node9"><a xlink:href="/type/Pod::Block::Para" xlink:title="Pod::Block::Para">
<ellipse fill="none" stroke="#000000" cx="931.69" cy="-18" rx="76.89" ry="18"/>
<text text-anchor="middle" x="931.69" y="-14.3" font-family="FreeSans" font-size="14.00" fill="#000000">Pod::Block::Para</text>
</a>
</g>
</g>
<!-- Pod::Block::Para&#45;&gt;Pod::Block -->
<g id="edge8" class="edge">
<title>Pod::Block::Para&#45;&gt;Pod::Block</title>
<path fill="none" stroke="#000000" d="M910.84,-35.59C899.08,-44.94 884.24,-56.75 871.51,-66.88"/>
<polygon fill="#000000" stroke="#000000" points="869.14,-64.29 863.49,-73.25 873.5,-69.76 869.14,-64.29"/>
</g>
<!-- Pod::Block::Declarator -->
<g id="node10" class="node">
<title>Pod::Block::Declarator</title>
<g id="a_node10"><a xlink:href="/type/Pod::Block::Declarator" xlink:title="Pod::Block::Declarator">
<ellipse fill="none" stroke="#000000" cx="1124.69" cy="-18" rx="98.58" ry="18"/>
<text text-anchor="middle" x="1124.69" y="-14.3" font-family="FreeSans" font-size="14.00" fill="#000000">Pod::Block::Declarator</text>
</a>
</g>
</g>
<!-- Pod::Block::Declarator&#45;&gt;Pod::Block -->
<g id="edge9" class="edge">
<title>Pod::Block::Declarator&#45;&gt;Pod::Block</title>
<path fill="none" stroke="#000000" d="M1068.84,-32.91C1018.23,-45.52 944.25,-63.95 895.08,-76.2"/>
<polygon fill="#000000" stroke="#000000" points="894.14,-72.83 885.29,-78.64 895.84,-79.62 894.14,-72.83"/>
</g>
<!-- Pod::Block::Code -->
<g id="node11" class="node">
<title>Pod::Block::Code</title>
<g id="a_node11"><a xlink:href="/type/Pod::Block::Code" xlink:title="Pod::Block::Code">
<ellipse fill="none" stroke="#000000" cx="1320.69" cy="-18" rx="79.09" ry="18"/>
<text text-anchor="middle" x="1320.69" y="-14.3" font-family="FreeSans" font-size="14.00" fill="#000000">Pod::Block::Code</text>
</a>
</g>
</g>
<!-- Pod::Block::Code&#45;&gt;Pod::Block -->
<g id="edge10" class="edge">
<title>Pod::Block::Code&#45;&gt;Pod::Block</title>
<path fill="none" stroke="#000000" d="M1262.49,-30.24C1246.12,-33.41 1232.69,-36 1232.69,-36 1232.69,-36 1010.99,-66.21 902.33,-81.01"/>
<polygon fill="#000000" stroke="#000000" points="901.61,-77.58 892.17,-82.39 902.56,-84.51 901.61,-77.58"/>
</g>
<!-- Pod::Block::Named -->
<g id="node12" class="node">
<title>Pod::Block::Named</title>
<g id="a_node12"><a xlink:href="/type/Pod::Block::Named" xlink:title="Pod::Block::Named">
<ellipse fill="none" stroke="#000000" cx="1504.69" cy="-18" rx="87.18" ry="18"/>
<text text-anchor="middle" x="1504.69" y="-14.3" font-family="FreeSans" font-size="14.00" fill="#000000">Pod::Block::Named</text>
</a>
</g>
</g>
<!-- Pod::Block::Named&#45;&gt;Pod::Block -->
<g id="edge11" class="edge">
<title>Pod::Block::Named&#45;&gt;Pod::Block</title>
<path fill="none" stroke="#000000" d="M1440.93,-30.29C1423.2,-33.43 1408.69,-36 1408.69,-36 1408.69,-36 1050.42,-69.61 904.47,-83.3"/>
<polygon fill="#000000" stroke="#000000" points="903.96,-79.83 894.33,-84.25 904.61,-86.8 903.96,-79.83"/>
</g>
<!-- Pod::Defn -->
<g id="node13" class="node">
<title>Pod::Defn</title>
<g id="a_node13"><a xlink:href="/type/Pod::Defn" xlink:title="Pod::Defn">
<ellipse fill="none" stroke="#000000" cx="1659.69" cy="-18" rx="50.09" ry="18"/>
<text text-anchor="middle" x="1659.69" y="-14.3" font-family="FreeSans" font-size="14.00" fill="#000000">Pod::Defn</text>
</a>
</g>
</g>
<!-- Pod::Defn&#45;&gt;Pod::Block -->
<g id="edge12" class="edge">
<title>Pod::Defn&#45;&gt;Pod::Block</title>
<path fill="none" stroke="#000000" d="M1621.99,-29.86C1610.43,-33.19 1600.69,-36 1600.69,-36 1600.69,-36 1086.3,-72.01 905.57,-84.67"/>
<polygon fill="#000000" stroke="#000000" points="905.16,-81.19 895.43,-85.38 905.65,-88.17 905.16,-81.19"/>
</g>
</g>
</svg>
