<?xml version="1.0" encoding="UTF-8" standalone="no"?>
<!DOCTYPE svg PUBLIC "-//W3C//DTD SVG 1.1//EN"
 "http://www.w3.org/Graphics/SVG/1.1/DTD/svg11.dtd">
<!-- Generated by graphviz version 2.43.0 (0)
 -->
<!-- Title: perl6&#45;type&#45;graph Pages: 1 -->
<svg width="632pt" height="332pt"
 viewBox="0.00 0.00 631.89 332.00" xmlns="http://www.w3.org/2000/svg" xmlns:xlink="http://www.w3.org/1999/xlink">
<g id="graph0" class="graph" transform="scale(1 1) rotate(0) translate(4 328)">
<title>perl6&#45;type&#45;graph</title>
<polygon fill="#ffffff" stroke="transparent" points="-4,4 -4,-328 627.89,-328 627.89,4 -4,4"/>
<!-- IO::Path -->
<g id="node1" class="node">
<title>IO::Path</title>
<g id="a_node1"><a xlink:href="/type/IO::Path" xlink:title="IO::Path">
<ellipse fill="none" stroke="#000000" cx="316.24" cy="-90" rx="43.59" ry="18"/>
<text text-anchor="middle" x="316.24" y="-86.3" font-family="FreeSans" font-size="14.00" fill="#000000">IO::Path</text>
</a>
</g>
</g>
<!-- Cool -->
<g id="node4" class="node">
<title>Cool</title>
<g id="a_node4"><a xlink:href="/type/Cool" xlink:title="Cool">
<ellipse fill="none" stroke="#000000" cx="279.24" cy="-162" rx="28.7" ry="18"/>
<text text-anchor="middle" x="279.24" y="-158.3" font-family="FreeSans" font-size="14.00" fill="#000000">Cool</text>
</a>
</g>
</g>
<!-- IO::Path&#45;&gt;Cool -->
<g id="edge1" class="edge">
<title>IO::Path&#45;&gt;Cool</title>
<path fill="none" stroke="#000000" d="M307.29,-107.95C302.91,-116.23 297.54,-126.38 292.68,-135.58"/>
<polygon fill="#000000" stroke="#000000" points="289.44,-134.22 287.86,-144.69 295.63,-137.49 289.44,-134.22"/>
</g>
<!-- IO -->
<g id="node5" class="node">
<title>IO</title>
<g id="a_node5"><a xlink:href="/type/IO" xlink:title="IO">
<ellipse fill="none" stroke="#6666ff" cx="353.24" cy="-162" rx="27" ry="18"/>
<text text-anchor="middle" x="353.24" y="-158.3" font-family="FreeSans" font-size="14.00" fill="#6666ff">IO</text>
</a>
</g>
</g>
<!-- IO::Path&#45;&gt;IO -->
<g id="edge8" class="edge">
<title>IO::Path&#45;&gt;IO</title>
<path fill="none" stroke="#6666ff" d="M325.2,-107.95C329.58,-116.23 334.95,-126.38 339.81,-135.58"/>
<polygon fill="#6666ff" stroke="#6666ff" points="336.86,-137.49 344.62,-144.69 343.05,-134.22 336.86,-137.49"/>
</g>
<!-- Mu -->
<g id="node2" class="node">
<title>Mu</title>
<g id="a_node2"><a xlink:href="/type/Mu" xlink:title="Mu">
<ellipse fill="none" stroke="#000000" cx="279.24" cy="-306" rx="27" ry="18"/>
<text text-anchor="middle" x="279.24" y="-302.3" font-family="FreeSans" font-size="14.00" fill="#000000">Mu</text>
</a>
</g>
</g>
<!-- Any -->
<g id="node3" class="node">
<title>Any</title>
<g id="a_node3"><a xlink:href="/type/Any" xlink:title="Any">
<ellipse fill="none" stroke="#000000" cx="279.24" cy="-234" rx="27" ry="18"/>
<text text-anchor="middle" x="279.24" y="-230.3" font-family="FreeSans" font-size="14.00" fill="#000000">Any</text>
</a>
</g>
</g>
<!-- Any&#45;&gt;Mu -->
<g id="edge2" class="edge">
<title>Any&#45;&gt;Mu</title>
<path fill="none" stroke="#000000" d="M279.24,-252.3C279.24,-260.02 279.24,-269.29 279.24,-277.89"/>
<polygon fill="#000000" stroke="#000000" points="275.74,-277.9 279.24,-287.9 282.74,-277.9 275.74,-277.9"/>
</g>
<!-- Cool&#45;&gt;Any -->
<g id="edge3" class="edge">
<title>Cool&#45;&gt;Any</title>
<path fill="none" stroke="#000000" d="M279.24,-180.3C279.24,-188.02 279.24,-197.29 279.24,-205.89"/>
<polygon fill="#000000" stroke="#000000" points="275.74,-205.9 279.24,-215.9 282.74,-205.9 275.74,-205.9"/>
</g>
<!-- IO::Path::QNX -->
<g id="node6" class="node">
<title>IO::Path::QNX</title>
<g id="a_node6"><a xlink:href="/type/IO::Path::QNX" xlink:title="IO::Path::QNX">
<ellipse fill="none" stroke="#000000" cx="68.24" cy="-18" rx="68.49" ry="18"/>
<text text-anchor="middle" x="68.24" y="-14.3" font-family="FreeSans" font-size="14.00" fill="#000000">IO::Path::QNX</text>
</a>
</g>
</g>
<!-- IO::Path::QNX&#45;&gt;IO::Path -->
<g id="edge4" class="edge">
<title>IO::Path::QNX&#45;&gt;IO::Path</title>
<path fill="none" stroke="#000000" d="M113.15,-31.68C158.05,-44.35 226.7,-63.73 271.53,-76.38"/>
<polygon fill="#000000" stroke="#000000" points="270.7,-79.78 281.27,-79.13 272.6,-73.04 270.7,-79.78"/>
</g>
<!-- IO::Path::Cygwin -->
<g id="node7" class="node">
<title>IO::Path::Cygwin</title>
<g id="a_node7"><a xlink:href="/type/IO::Path::Cygwin" xlink:title="IO::Path::Cygwin">
<ellipse fill="none" stroke="#000000" cx="232.24" cy="-18" rx="77.19" ry="18"/>
<text text-anchor="middle" x="232.24" y="-14.3" font-family="FreeSans" font-size="14.00" fill="#000000">IO::Path::Cygwin</text>
</a>
</g>
</g>
<!-- IO::Path::Cygwin&#45;&gt;IO::Path -->
<g id="edge5" class="edge">
<title>IO::Path::Cygwin&#45;&gt;IO::Path</title>
<path fill="none" stroke="#000000" d="M252.15,-35.59C263.35,-44.92 277.47,-56.69 289.61,-66.8"/>
<polygon fill="#000000" stroke="#000000" points="287.71,-69.78 297.63,-73.49 292.19,-64.4 287.71,-69.78"/>
</g>
<!-- IO::Path::Win32 -->
<g id="node8" class="node">
<title>IO::Path::Win32</title>
<g id="a_node8"><a xlink:href="/type/IO::Path::Win32" xlink:title="IO::Path::Win32">
<ellipse fill="none" stroke="#000000" cx="401.24" cy="-18" rx="73.39" ry="18"/>
<text text-anchor="middle" x="401.24" y="-14.3" font-family="FreeSans" font-size="14.00" fill="#000000">IO::Path::Win32</text>
</a>
</g>
</g>
<!-- IO::Path::Win32&#45;&gt;IO::Path -->
<g id="edge6" class="edge">
<title>IO::Path::Win32&#45;&gt;IO::Path</title>
<path fill="none" stroke="#000000" d="M381.1,-35.59C369.66,-45.01 355.21,-56.91 342.85,-67.09"/>
<polygon fill="#000000" stroke="#000000" points="340.57,-64.43 335.08,-73.49 345.02,-69.83 340.57,-64.43"/>
</g>
<!-- IO::Path::Unix -->
<g id="node9" class="node">
<title>IO::Path::Unix</title>
<g id="a_node9"><a xlink:href="/type/IO::Path::Unix" xlink:title="IO::Path::Unix">
<ellipse fill="none" stroke="#000000" cx="558.24" cy="-18" rx="65.79" ry="18"/>
<text text-anchor="middle" x="558.24" y="-14.3" font-family="FreeSans" font-size="14.00" fill="#000000">IO::Path::Unix</text>
</a>
</g>
</g>
<!-- IO::Path::Unix&#45;&gt;IO::Path -->
<g id="edge7" class="edge">
<title>IO::Path::Unix&#45;&gt;IO::Path</title>
<path fill="none" stroke="#000000" d="M514.7,-31.6C471.14,-44.19 404.49,-63.47 360.64,-76.16"/>
<polygon fill="#000000" stroke="#000000" points="359.46,-72.86 350.83,-79 361.41,-79.58 359.46,-72.86"/>
</g>
</g>
</svg>
