<?xml version="1.0" encoding="UTF-8" standalone="no"?>
<!DOCTYPE svg PUBLIC "-//W3C//DTD SVG 1.1//EN"
 "http://www.w3.org/Graphics/SVG/1.1/DTD/svg11.dtd">
<!-- Generated by graphviz version 2.43.0 (0)
 -->
<!-- Title: perl6&#45;type&#45;graph Pages: 1 -->
<svg width="350pt" height="404pt"
 viewBox="0.00 0.00 349.87 404.00" xmlns="http://www.w3.org/2000/svg" xmlns:xlink="http://www.w3.org/1999/xlink">
<g id="graph0" class="graph" transform="scale(1 1) rotate(0) translate(4 400)">
<title>perl6&#45;type&#45;graph</title>
<polygon fill="#ffffff" stroke="transparent" points="-4,4 -4,-400 345.87,-400 345.87,4 -4,4"/>
<!-- X::Syntax::AddCategorical::TooFewParts -->
<g id="node1" class="node">
<title>X::Syntax::AddCategorical::TooFewParts</title>
<g id="a_node1"><a xlink:href="/type/X::Syntax::AddCategorical::TooFewParts" xlink:title="X::Syntax::AddCategorical::TooFewParts">
<ellipse fill="none" stroke="#000000" cx="170.93" cy="-18" rx="170.87" ry="18"/>
<text text-anchor="middle" x="170.93" y="-14.3" font-family="FreeSans" font-size="14.00" fill="#000000">X::Syntax::AddCategorical::TooFewParts</text>
</a>
</g>
</g>
<!-- Exception -->
<g id="node4" class="node">
<title>Exception</title>
<g id="a_node4"><a xlink:href="/type/Exception" xlink:title="Exception">
<ellipse fill="none" stroke="#000000" cx="170.93" cy="-234" rx="49.29" ry="18"/>
<text text-anchor="middle" x="170.93" y="-230.3" font-family="FreeSans" font-size="14.00" fill="#000000">Exception</text>
</a>
</g>
</g>
<!-- X::Syntax::AddCategorical::TooFewParts&#45;&gt;Exception -->
<g id="edge1" class="edge">
<title>X::Syntax::AddCategorical::TooFewParts&#45;&gt;Exception</title>
<path fill="none" stroke="#000000" d="M164.82,-36.06C159.26,-51.55 151.93,-72 151.93,-72 151.93,-72 151.93,-108 151.93,-108 151.93,-108 161.21,-169.01 166.8,-205.78"/>
<polygon fill="#000000" stroke="#000000" points="163.37,-206.52 168.33,-215.88 170.29,-205.47 163.37,-206.52"/>
</g>
<!-- X::Syntax -->
<g id="node6" class="node">
<title>X::Syntax</title>
<g id="a_node6"><a xlink:href="/type/X::Syntax" xlink:title="X::Syntax">
<ellipse fill="none" stroke="#6666ff" cx="208.93" cy="-90" rx="48.19" ry="18"/>
<text text-anchor="middle" x="208.93" y="-86.3" font-family="FreeSans" font-size="14.00" fill="#6666ff">X::Syntax</text>
</a>
</g>
</g>
<!-- X::Syntax::AddCategorical::TooFewParts&#45;&gt;X::Syntax -->
<g id="edge6" class="edge">
<title>X::Syntax::AddCategorical::TooFewParts&#45;&gt;X::Syntax</title>
<path fill="none" stroke="#6666ff" d="M180.33,-36.3C184.7,-44.36 189.99,-54.11 194.83,-63.02"/>
<polygon fill="#6666ff" stroke="#6666ff" points="191.8,-64.78 199.65,-71.9 197.95,-61.44 191.8,-64.78"/>
</g>
<!-- Mu -->
<g id="node2" class="node">
<title>Mu</title>
<g id="a_node2"><a xlink:href="/type/Mu" xlink:title="Mu">
<ellipse fill="none" stroke="#000000" cx="170.93" cy="-378" rx="27" ry="18"/>
<text text-anchor="middle" x="170.93" y="-374.3" font-family="FreeSans" font-size="14.00" fill="#000000">Mu</text>
</a>
</g>
</g>
<!-- Any -->
<g id="node3" class="node">
<title>Any</title>
<g id="a_node3"><a xlink:href="/type/Any" xlink:title="Any">
<ellipse fill="none" stroke="#000000" cx="170.93" cy="-306" rx="27" ry="18"/>
<text text-anchor="middle" x="170.93" y="-302.3" font-family="FreeSans" font-size="14.00" fill="#000000">Any</text>
</a>
</g>
</g>
<!-- Any&#45;&gt;Mu -->
<g id="edge2" class="edge">
<title>Any&#45;&gt;Mu</title>
<path fill="none" stroke="#000000" d="M170.93,-324.3C170.93,-332.02 170.93,-341.29 170.93,-349.89"/>
<polygon fill="#000000" stroke="#000000" points="167.43,-349.9 170.93,-359.9 174.43,-349.9 167.43,-349.9"/>
</g>
<!-- Exception&#45;&gt;Any -->
<g id="edge3" class="edge">
<title>Exception&#45;&gt;Any</title>
<path fill="none" stroke="#000000" d="M170.93,-252.3C170.93,-260.02 170.93,-269.29 170.93,-277.89"/>
<polygon fill="#000000" stroke="#000000" points="167.43,-277.9 170.93,-287.9 174.43,-277.9 167.43,-277.9"/>
</g>
<!-- X::Comp -->
<g id="node5" class="node">
<title>X::Comp</title>
<g id="a_node5"><a xlink:href="/type/X::Comp" xlink:title="X::Comp">
<ellipse fill="none" stroke="#6666ff" cx="243.93" cy="-162" rx="44.69" ry="18"/>
<text text-anchor="middle" x="243.93" y="-158.3" font-family="FreeSans" font-size="14.00" fill="#6666ff">X::Comp</text>
</a>
</g>
</g>
<!-- X::Comp&#45;&gt;Exception -->
<g id="edge4" class="edge">
<title>X::Comp&#45;&gt;Exception</title>
<path fill="none" stroke="#000000" d="M227.37,-178.88C217.82,-188.04 205.65,-199.71 195.06,-209.87"/>
<polygon fill="#000000" stroke="#000000" points="192.48,-207.49 187.69,-216.94 197.33,-212.54 192.48,-207.49"/>
</g>
<!-- X::Syntax&#45;&gt;Exception -->
<g id="edge5" class="edge">
<title>X::Syntax&#45;&gt;Exception</title>
<path fill="none" stroke="#000000" d="M202.82,-108.06C197.26,-123.55 189.93,-144 189.93,-144 189.93,-144 182.29,-179.83 176.69,-206.03"/>
<polygon fill="#000000" stroke="#000000" points="173.26,-205.33 174.6,-215.84 180.11,-206.79 173.26,-205.33"/>
</g>
<!-- X::Syntax&#45;&gt;X::Comp -->
<g id="edge7" class="edge">
<title>X::Syntax&#45;&gt;X::Comp</title>
<path fill="none" stroke="#6666ff" d="M217.41,-107.95C221.49,-116.11 226.48,-126.09 231.02,-135.18"/>
<polygon fill="#6666ff" stroke="#6666ff" points="227.94,-136.83 235.54,-144.21 234.2,-133.7 227.94,-136.83"/>
</g>
</g>
</svg>
