<?xml version="1.0" encoding="UTF-8" standalone="no"?>
<!DOCTYPE svg PUBLIC "-//W3C//DTD SVG 1.1//EN"
 "http://www.w3.org/Graphics/SVG/1.1/DTD/svg11.dtd">
<!-- Generated by graphviz version 2.43.0 (0)
 -->
<!-- Title: perl6&#45;type&#45;graph Pages: 1 -->
<svg width="380pt" height="476pt"
 viewBox="0.00 0.00 380.30 476.00" xmlns="http://www.w3.org/2000/svg" xmlns:xlink="http://www.w3.org/1999/xlink">
<g id="graph0" class="graph" transform="scale(1 1) rotate(0) translate(4 472)">
<title>perl6&#45;type&#45;graph</title>
<polygon fill="white" stroke="transparent" points="-4,4 -4,-472 376.3,-472 376.3,4 -4,4"/>
<!-- Routine -->
<g id="node1" class="node">
<title>Routine</title>
<g id="a_node1"><a xlink:href="/type/Routine" xlink:title="Routine">
<ellipse fill="none" stroke="#000000" cx="163" cy="-162" rx="40.89" ry="18"/>
<text text-anchor="middle" x="163" y="-158.3" font-family="FreeSans" font-size="14.00" fill="#000000">Routine</text>
</a>
</g>
</g>
<!-- Block -->
<g id="node6" class="node">
<title>Block</title>
<g id="a_node6"><a xlink:href="/type/Block" xlink:title="Block">
<ellipse fill="none" stroke="#000000" cx="163" cy="-234" rx="32.49" ry="18"/>
<text text-anchor="middle" x="163" y="-230.3" font-family="FreeSans" font-size="14.00" fill="#000000">Block</text>
</a>
</g>
</g>
<!-- Routine&#45;&gt;Block -->
<g id="edge1" class="edge">
<title>Routine&#45;&gt;Block</title>
<path fill="none" stroke="#000000" d="M163,-180.3C163,-188.02 163,-197.29 163,-205.89"/>
<polygon fill="#000000" stroke="#000000" points="159.5,-205.9 163,-215.9 166.5,-205.9 159.5,-205.9"/>
</g>
<!-- Mu -->
<g id="node2" class="node">
<title>Mu</title>
<g id="a_node2"><a xlink:href="/type/Mu" xlink:title="Mu">
<ellipse fill="none" stroke="#000000" cx="120" cy="-450" rx="27" ry="18"/>
<text text-anchor="middle" x="120" y="-446.3" font-family="FreeSans" font-size="14.00" fill="#000000">Mu</text>
</a>
</g>
</g>
<!-- Any -->
<g id="node3" class="node">
<title>Any</title>
<g id="a_node3"><a xlink:href="/type/Any" xlink:title="Any">
<ellipse fill="none" stroke="#000000" cx="120" cy="-378" rx="27" ry="18"/>
<text text-anchor="middle" x="120" y="-374.3" font-family="FreeSans" font-size="14.00" fill="#000000">Any</text>
</a>
</g>
</g>
<!-- Any&#45;&gt;Mu -->
<g id="edge2" class="edge">
<title>Any&#45;&gt;Mu</title>
<path fill="none" stroke="#000000" d="M120,-396.3C120,-404.02 120,-413.29 120,-421.89"/>
<polygon fill="#000000" stroke="#000000" points="116.5,-421.9 120,-431.9 123.5,-421.9 116.5,-421.9"/>
</g>
<!-- Callable -->
<g id="node4" class="node">
<title>Callable</title>
<g id="a_node4"><a xlink:href="/type/Callable" xlink:title="Callable">
<ellipse fill="none" stroke="#6666ff" cx="207" cy="-378" rx="42.49" ry="18"/>
<text text-anchor="middle" x="207" y="-374.3" font-family="FreeSans" font-size="14.00" fill="#6666ff">Callable</text>
</a>
</g>
</g>
<!-- Code -->
<g id="node5" class="node">
<title>Code</title>
<g id="a_node5"><a xlink:href="/type/Code" xlink:title="Code">
<ellipse fill="none" stroke="#000000" cx="163" cy="-306" rx="31.7" ry="18"/>
<text text-anchor="middle" x="163" y="-302.3" font-family="FreeSans" font-size="14.00" fill="#000000">Code</text>
</a>
</g>
</g>
<!-- Code&#45;&gt;Any -->
<g id="edge3" class="edge">
<title>Code&#45;&gt;Any</title>
<path fill="none" stroke="#000000" d="M153.03,-323.24C147.76,-331.81 141.19,-342.51 135.3,-352.1"/>
<polygon fill="#000000" stroke="#000000" points="132.17,-350.5 129.92,-360.85 138.14,-354.16 132.17,-350.5"/>
</g>
<!-- Code&#45;&gt;Callable -->
<g id="edge10" class="edge">
<title>Code&#45;&gt;Callable</title>
<path fill="none" stroke="#6666ff" d="M173.21,-323.24C178.51,-331.68 185.13,-342.2 191.09,-351.69"/>
<polygon fill="#6666ff" stroke="#6666ff" points="188.26,-353.76 196.54,-360.37 194.19,-350.04 188.26,-353.76"/>
</g>
<!-- Block&#45;&gt;Code -->
<g id="edge4" class="edge">
<title>Block&#45;&gt;Code</title>
<path fill="none" stroke="#000000" d="M163,-252.3C163,-260.02 163,-269.29 163,-277.89"/>
<polygon fill="#000000" stroke="#000000" points="159.5,-277.9 163,-287.9 166.5,-277.9 159.5,-277.9"/>
</g>
<!-- Sub -->
<g id="node7" class="node">
<title>Sub</title>
<g id="a_node7"><a xlink:href="/type/Sub" xlink:title="Sub">
<ellipse fill="none" stroke="#000000" cx="27" cy="-90" rx="27" ry="18"/>
<text text-anchor="middle" x="27" y="-86.3" font-family="FreeSans" font-size="14.00" fill="#000000">Sub</text>
</a>
</g>
</g>
<!-- Sub&#45;&gt;Routine -->
<g id="edge5" class="edge">
<title>Sub&#45;&gt;Routine</title>
<path fill="none" stroke="#000000" d="M47.66,-101.63C69.1,-112.67 103.01,-130.12 128.52,-143.25"/>
<polygon fill="#000000" stroke="#000000" points="127.01,-146.41 137.5,-147.88 130.21,-140.19 127.01,-146.41"/>
</g>
<!-- Macro -->
<g id="node8" class="node">
<title>Macro</title>
<g id="a_node8"><a xlink:href="/type/Macro" xlink:title="Macro">
<ellipse fill="none" stroke="#000000" cx="108" cy="-90" rx="36" ry="18"/>
<text text-anchor="middle" x="108" y="-86.3" font-family="FreeSans" font-size="14.00" fill="#000000">Macro</text>
</a>
</g>
</g>
<!-- Macro&#45;&gt;Routine -->
<g id="edge6" class="edge">
<title>Macro&#45;&gt;Routine</title>
<path fill="none" stroke="#000000" d="M120.48,-106.88C127.41,-115.71 136.18,-126.87 143.96,-136.76"/>
<polygon fill="#000000" stroke="#000000" points="141.26,-138.99 150.19,-144.69 146.76,-134.67 141.26,-138.99"/>
</g>
<!-- Submethod -->
<g id="node9" class="node">
<title>Submethod</title>
<g id="a_node9"><a xlink:href="/type/Submethod" xlink:title="Submethod">
<ellipse fill="none" stroke="#000000" cx="218" cy="-90" rx="55.79" ry="18"/>
<text text-anchor="middle" x="218" y="-86.3" font-family="FreeSans" font-size="14.00" fill="#000000">Submethod</text>
</a>
</g>
</g>
<!-- Submethod&#45;&gt;Routine -->
<g id="edge7" class="edge">
<title>Submethod&#45;&gt;Routine</title>
<path fill="none" stroke="#000000" d="M204.97,-107.59C198.18,-116.22 189.76,-126.94 182.25,-136.5"/>
<polygon fill="#000000" stroke="#000000" points="179.37,-134.5 175.94,-144.53 184.87,-138.83 179.37,-134.5"/>
</g>
<!-- Method -->
<g id="node10" class="node">
<title>Method</title>
<g id="a_node10"><a xlink:href="/type/Method" xlink:title="Method">
<ellipse fill="none" stroke="#000000" cx="332" cy="-90" rx="40.09" ry="18"/>
<text text-anchor="middle" x="332" y="-86.3" font-family="FreeSans" font-size="14.00" fill="#000000">Method</text>
</a>
</g>
</g>
<!-- Method&#45;&gt;Routine -->
<g id="edge8" class="edge">
<title>Method&#45;&gt;Routine</title>
<path fill="none" stroke="#000000" d="M303.33,-102.87C275.29,-114.49 232.4,-132.25 201.42,-145.09"/>
<polygon fill="#000000" stroke="#000000" points="199.71,-142.01 191.81,-149.07 202.39,-148.47 199.71,-142.01"/>
</g>
<!-- Regex -->
<g id="node11" class="node">
<title>Regex</title>
<g id="a_node11"><a xlink:href="/type/Regex" xlink:title="Regex">
<ellipse fill="none" stroke="#000000" cx="332" cy="-18" rx="36.29" ry="18"/>
<text text-anchor="middle" x="332" y="-14.3" font-family="FreeSans" font-size="14.00" fill="#000000">Regex</text>
</a>
</g>
</g>
<!-- Regex&#45;&gt;Method -->
<g id="edge9" class="edge">
<title>Regex&#45;&gt;Method</title>
<path fill="none" stroke="#000000" d="M332,-36.3C332,-44.02 332,-53.29 332,-61.89"/>
<polygon fill="#000000" stroke="#000000" points="328.5,-61.9 332,-71.9 335.5,-61.9 328.5,-61.9"/>
</g>
</g>
</svg>
