<?xml version="1.0" encoding="UTF-8" standalone="no"?>
<!DOCTYPE svg PUBLIC "-//W3C//DTD SVG 1.1//EN"
 "http://www.w3.org/Graphics/SVG/1.1/DTD/svg11.dtd">
<!-- Generated by graphviz version 2.43.0 (0)
 -->
<!-- Title: perl6&#45;type&#45;graph Pages: 1 -->
<svg width="210pt" height="404pt"
 viewBox="0.00 0.00 209.84 404.00" xmlns="http://www.w3.org/2000/svg" xmlns:xlink="http://www.w3.org/1999/xlink">
<g id="graph0" class="graph" transform="scale(1 1) rotate(0) translate(4 400)">
<title>perl6&#45;type&#45;graph</title>
<polygon fill="#ffffff" stroke="transparent" points="-4,4 -4,-400 205.84,-400 205.84,4 -4,4"/>
<!-- X::IO::Dir -->
<g id="node1" class="node">
<title>X::IO::Dir</title>
<g id="a_node1"><a xlink:href="/type/X::IO::Dir" xlink:title="X::IO::Dir">
<ellipse fill="none" stroke="#000000" cx="49.4" cy="-18" rx="47.39" ry="18"/>
<text text-anchor="middle" x="49.4" y="-14.3" font-family="FreeSans" font-size="14.00" fill="#000000">X::IO::Dir</text>
</a>
</g>
</g>
<!-- Exception -->
<g id="node4" class="node">
<title>Exception</title>
<g id="a_node4"><a xlink:href="/type/Exception" xlink:title="Exception">
<ellipse fill="none" stroke="#000000" cx="49.4" cy="-234" rx="49.29" ry="18"/>
<text text-anchor="middle" x="49.4" y="-230.3" font-family="FreeSans" font-size="14.00" fill="#000000">Exception</text>
</a>
</g>
</g>
<!-- X::IO::Dir&#45;&gt;Exception -->
<g id="edge1" class="edge">
<title>X::IO::Dir&#45;&gt;Exception</title>
<path fill="none" stroke="#000000" d="M41.71,-35.79C34.55,-72.74 34,-161.33 40.08,-206.11"/>
<polygon fill="#000000" stroke="#000000" points="36.62,-206.67 41.67,-215.99 43.53,-205.56 36.62,-206.67"/>
</g>
<!-- X::IO::Dir&#45;&gt;Exception -->
<g id="edge2" class="edge">
<title>X::IO::Dir&#45;&gt;Exception</title>
<path fill="none" stroke="#000000" d="M49.4,-36.15C49.4,-73.17 49.4,-160.82 49.4,-205.61"/>
<polygon fill="#000000" stroke="#000000" points="45.9,-205.77 49.4,-215.77 52.9,-205.77 45.9,-205.77"/>
</g>
<!-- X::IO::Dir&#45;&gt;Exception -->
<g id="edge3" class="edge">
<title>X::IO::Dir&#45;&gt;Exception</title>
<path fill="none" stroke="#000000" d="M57.08,-35.79C64.25,-72.74 64.79,-161.33 58.71,-206.11"/>
<polygon fill="#000000" stroke="#000000" points="55.26,-205.56 57.12,-215.99 62.17,-206.67 55.26,-205.56"/>
</g>
<!-- X::IO -->
<g id="node6" class="node">
<title>X::IO</title>
<g id="a_node6"><a xlink:href="/type/X::IO" xlink:title="X::IO">
<ellipse fill="none" stroke="#6666ff" cx="126.4" cy="-90" rx="31.4" ry="18"/>
<text text-anchor="middle" x="126.4" y="-86.3" font-family="FreeSans" font-size="14.00" fill="#6666ff">X::IO</text>
</a>
</g>
</g>
<!-- X::IO::Dir&#45;&gt;X::IO -->
<g id="edge8" class="edge">
<title>X::IO::Dir&#45;&gt;X::IO</title>
<path fill="none" stroke="#6666ff" d="M66.87,-34.88C77.47,-44.52 91.13,-56.94 102.7,-67.46"/>
<polygon fill="#6666ff" stroke="#6666ff" points="100.55,-70.24 110.31,-74.37 105.26,-65.06 100.55,-70.24"/>
</g>
<!-- Mu -->
<g id="node2" class="node">
<title>Mu</title>
<g id="a_node2"><a xlink:href="/type/Mu" xlink:title="Mu">
<ellipse fill="none" stroke="#000000" cx="49.4" cy="-378" rx="27" ry="18"/>
<text text-anchor="middle" x="49.4" y="-374.3" font-family="FreeSans" font-size="14.00" fill="#000000">Mu</text>
</a>
</g>
</g>
<!-- Any -->
<g id="node3" class="node">
<title>Any</title>
<g id="a_node3"><a xlink:href="/type/Any" xlink:title="Any">
<ellipse fill="none" stroke="#000000" cx="49.4" cy="-306" rx="27" ry="18"/>
<text text-anchor="middle" x="49.4" y="-302.3" font-family="FreeSans" font-size="14.00" fill="#000000">Any</text>
</a>
</g>
</g>
<!-- Any&#45;&gt;Mu -->
<g id="edge4" class="edge">
<title>Any&#45;&gt;Mu</title>
<path fill="none" stroke="#000000" d="M49.4,-324.3C49.4,-332.02 49.4,-341.29 49.4,-349.89"/>
<polygon fill="#000000" stroke="#000000" points="45.9,-349.9 49.4,-359.9 52.9,-349.9 45.9,-349.9"/>
</g>
<!-- Exception&#45;&gt;Any -->
<g id="edge5" class="edge">
<title>Exception&#45;&gt;Any</title>
<path fill="none" stroke="#000000" d="M49.4,-252.3C49.4,-260.02 49.4,-269.29 49.4,-277.89"/>
<polygon fill="#000000" stroke="#000000" points="45.9,-277.9 49.4,-287.9 52.9,-277.9 45.9,-277.9"/>
</g>
<!-- X::OS -->
<g id="node5" class="node">
<title>X::OS</title>
<g id="a_node5"><a xlink:href="/type/X::OS" xlink:title="X::OS">
<ellipse fill="none" stroke="#6666ff" cx="167.4" cy="-162" rx="34.39" ry="18"/>
<text text-anchor="middle" x="167.4" y="-158.3" font-family="FreeSans" font-size="14.00" fill="#6666ff">X::OS</text>
</a>
</g>
</g>
<!-- X::OS&#45;&gt;Exception -->
<g id="edge6" class="edge">
<title>X::OS&#45;&gt;Exception</title>
<path fill="none" stroke="#000000" d="M145.48,-176C127.91,-186.43 102.96,-201.23 82.89,-213.13"/>
<polygon fill="#000000" stroke="#000000" points="80.87,-210.26 74.05,-218.37 84.44,-216.28 80.87,-210.26"/>
</g>
<!-- X::IO&#45;&gt;Exception -->
<g id="edge7" class="edge">
<title>X::IO&#45;&gt;Exception</title>
<path fill="none" stroke="#000000" d="M117.93,-107.74C104.9,-133.52 81.4,-180 81.4,-180 81.4,-180 72.98,-193.93 64.79,-207.51"/>
<polygon fill="#000000" stroke="#000000" points="61.69,-205.86 59.52,-216.23 67.69,-209.48 61.69,-205.86"/>
</g>
<!-- X::IO&#45;&gt;X::OS -->
<g id="edge9" class="edge">
<title>X::IO&#45;&gt;X::OS</title>
<path fill="none" stroke="#6666ff" d="M135.9,-107.24C140.85,-115.68 147.01,-126.2 152.57,-135.69"/>
<polygon fill="#6666ff" stroke="#6666ff" points="149.58,-137.51 157.65,-144.37 155.62,-133.97 149.58,-137.51"/>
</g>
</g>
</svg>
