<?xml version="1.0" encoding="UTF-8" standalone="no"?>
<!DOCTYPE svg PUBLIC "-//W3C//DTD SVG 1.1//EN"
 "http://www.w3.org/Graphics/SVG/1.1/DTD/svg11.dtd">
<!-- Generated by graphviz version 2.43.0 (0)
 -->
<!-- Title: perl6&#45;type&#45;graph Pages: 1 -->
<svg width="434pt" height="188pt"
 viewBox="0.00 0.00 434.08 188.00" xmlns="http://www.w3.org/2000/svg" xmlns:xlink="http://www.w3.org/1999/xlink">
<g id="graph0" class="graph" transform="scale(1 1) rotate(0) translate(4 184)">
<title>perl6&#45;type&#45;graph</title>
<polygon fill="#ffffff" stroke="transparent" points="-4,4 -4,-184 430.08,-184 430.08,4 -4,4"/>
<!-- Scheduler -->
<g id="node1" class="node">
<title>Scheduler</title>
<g id="a_node1"><a xlink:href="/type/Scheduler" xlink:title="Scheduler">
<ellipse fill="none" stroke="#6666ff" cx="139.89" cy="-90" rx="50.09" ry="18"/>
<text text-anchor="middle" x="139.89" y="-86.3" font-family="FreeSans" font-size="14.00" fill="#6666ff">Scheduler</text>
</a>
</g>
</g>
<!-- Mu -->
<g id="node2" class="node">
<title>Mu</title>
<g id="a_node2"><a xlink:href="/type/Mu" xlink:title="Mu">
<ellipse fill="none" stroke="#000000" cx="297.89" cy="-162" rx="27" ry="18"/>
<text text-anchor="middle" x="297.89" y="-158.3" font-family="FreeSans" font-size="14.00" fill="#000000">Mu</text>
</a>
</g>
</g>
<!-- Any -->
<g id="node3" class="node">
<title>Any</title>
<g id="a_node3"><a xlink:href="/type/Any" xlink:title="Any">
<ellipse fill="none" stroke="#000000" cx="297.89" cy="-90" rx="27" ry="18"/>
<text text-anchor="middle" x="297.89" y="-86.3" font-family="FreeSans" font-size="14.00" fill="#000000">Any</text>
</a>
</g>
</g>
<!-- Any&#45;&gt;Mu -->
<g id="edge1" class="edge">
<title>Any&#45;&gt;Mu</title>
<path fill="none" stroke="#000000" d="M297.89,-108.3C297.89,-116.02 297.89,-125.29 297.89,-133.89"/>
<polygon fill="#000000" stroke="#000000" points="294.39,-133.9 297.89,-143.9 301.39,-133.9 294.39,-133.9"/>
</g>
<!-- CurrentThreadScheduler -->
<g id="node4" class="node">
<title>CurrentThreadScheduler</title>
<g id="a_node4"><a xlink:href="/type/CurrentThreadScheduler" xlink:title="CurrentThreadScheduler">
<ellipse fill="none" stroke="#000000" cx="107.89" cy="-18" rx="107.78" ry="18"/>
<text text-anchor="middle" x="107.89" y="-14.3" font-family="FreeSans" font-size="14.00" fill="#000000">CurrentThreadScheduler</text>
</a>
</g>
</g>
<!-- CurrentThreadScheduler&#45;&gt;Scheduler -->
<g id="edge4" class="edge">
<title>CurrentThreadScheduler&#45;&gt;Scheduler</title>
<path fill="none" stroke="#6666ff" d="M115.8,-36.3C119.44,-44.27 123.84,-53.9 127.88,-62.74"/>
<polygon fill="#6666ff" stroke="#6666ff" points="124.73,-64.26 132.07,-71.9 131.1,-61.35 124.73,-64.26"/>
</g>
<!-- CurrentThreadScheduler&#45;&gt;Any -->
<g id="edge2" class="edge">
<title>CurrentThreadScheduler&#45;&gt;Any</title>
<path fill="none" stroke="#000000" d="M150.53,-34.71C185.18,-47.48 233.35,-65.22 265.06,-76.9"/>
<polygon fill="#000000" stroke="#000000" points="264.14,-80.3 274.73,-80.47 266.56,-73.73 264.14,-80.3"/>
</g>
<!-- ThreadPoolScheduler -->
<g id="node5" class="node">
<title>ThreadPoolScheduler</title>
<g id="a_node5"><a xlink:href="/type/ThreadPoolScheduler" xlink:title="ThreadPoolScheduler">
<ellipse fill="none" stroke="#000000" cx="329.89" cy="-18" rx="96.38" ry="18"/>
<text text-anchor="middle" x="329.89" y="-14.3" font-family="FreeSans" font-size="14.00" fill="#000000">ThreadPoolScheduler</text>
</a>
</g>
</g>
<!-- ThreadPoolScheduler&#45;&gt;Scheduler -->
<g id="edge5" class="edge">
<title>ThreadPoolScheduler&#45;&gt;Scheduler</title>
<path fill="none" stroke="#6666ff" d="M288.19,-34.36C257.01,-45.85 214.5,-61.51 182.98,-73.12"/>
<polygon fill="#6666ff" stroke="#6666ff" points="181.75,-69.85 173.58,-76.59 184.17,-76.42 181.75,-69.85"/>
</g>
<!-- ThreadPoolScheduler&#45;&gt;Any -->
<g id="edge3" class="edge">
<title>ThreadPoolScheduler&#45;&gt;Any</title>
<path fill="none" stroke="#000000" d="M322.14,-35.95C318.36,-44.23 313.72,-54.38 309.51,-63.58"/>
<polygon fill="#000000" stroke="#000000" points="306.32,-62.14 305.35,-72.69 312.69,-65.05 306.32,-62.14"/>
</g>
</g>
</svg>
