<?xml version="1.0" encoding="UTF-8" standalone="no"?>
<!DOCTYPE svg PUBLIC "-//W3C//DTD SVG 1.1//EN"
 "http://www.w3.org/Graphics/SVG/1.1/DTD/svg11.dtd">
<!-- Generated by graphviz version 2.43.0 (0)
 -->
<!-- Title: perl6&#45;type&#45;graph Pages: 1 -->
<svg width="1145pt" height="332pt"
 viewBox="0.00 0.00 1144.59 332.00" xmlns="http://www.w3.org/2000/svg" xmlns:xlink="http://www.w3.org/1999/xlink">
<g id="graph0" class="graph" transform="scale(1 1) rotate(0) translate(4 328)">
<title>perl6&#45;type&#45;graph</title>
<polygon fill="white" stroke="transparent" points="-4,4 -4,-328 1140.59,-328 1140.59,4 -4,4"/>
<!-- Numeric -->
<g id="node1" class="node">
<title>Numeric</title>
<g id="a_node1"><a xlink:href="/type/Numeric" xlink:title="Numeric">
<ellipse fill="none" stroke="#6666ff" cx="800.05" cy="-234" rx="44.39" ry="18"/>
<text text-anchor="middle" x="800.05" y="-230.3" font-family="FreeSans" font-size="14.00" fill="#6666ff">Numeric</text>
</a>
</g>
</g>
<!-- Real -->
<g id="node2" class="node">
<title>Real</title>
<g id="a_node2"><a xlink:href="/type/Real" xlink:title="Real">
<ellipse fill="none" stroke="#6666ff" cx="441.05" cy="-162" rx="28.7" ry="18"/>
<text text-anchor="middle" x="441.05" y="-158.3" font-family="FreeSans" font-size="14.00" fill="#6666ff">Real</text>
</a>
</g>
</g>
<!-- Real&#45;&gt;Numeric -->
<g id="edge24" class="edge">
<title>Real&#45;&gt;Numeric</title>
<path fill="none" stroke="#6666ff" d="M466.15,-170.9C480.25,-175.34 495.05,-180 495.05,-180 495.05,-180 663.87,-209.34 750.31,-224.36"/>
<polygon fill="#6666ff" stroke="#6666ff" points="749.72,-227.81 760.17,-226.07 750.92,-220.91 749.72,-227.81"/>
</g>
<!-- Mu -->
<g id="node3" class="node">
<title>Mu</title>
<g id="a_node3"><a xlink:href="/type/Mu" xlink:title="Mu">
<ellipse fill="none" stroke="#000000" cx="533.05" cy="-306" rx="27" ry="18"/>
<text text-anchor="middle" x="533.05" y="-302.3" font-family="FreeSans" font-size="14.00" fill="#000000">Mu</text>
</a>
</g>
</g>
<!-- Any -->
<g id="node4" class="node">
<title>Any</title>
<g id="a_node4"><a xlink:href="/type/Any" xlink:title="Any">
<ellipse fill="none" stroke="#000000" cx="533.05" cy="-234" rx="27" ry="18"/>
<text text-anchor="middle" x="533.05" y="-230.3" font-family="FreeSans" font-size="14.00" fill="#000000">Any</text>
</a>
</g>
</g>
<!-- Any&#45;&gt;Mu -->
<g id="edge1" class="edge">
<title>Any&#45;&gt;Mu</title>
<path fill="none" stroke="#000000" d="M533.05,-252.3C533.05,-260.02 533.05,-269.29 533.05,-277.89"/>
<polygon fill="#000000" stroke="#000000" points="529.55,-277.9 533.05,-287.9 536.55,-277.9 529.55,-277.9"/>
</g>
<!-- Cool -->
<g id="node5" class="node">
<title>Cool</title>
<g id="a_node5"><a xlink:href="/type/Cool" xlink:title="Cool">
<ellipse fill="none" stroke="#000000" cx="533.05" cy="-162" rx="28.7" ry="18"/>
<text text-anchor="middle" x="533.05" y="-158.3" font-family="FreeSans" font-size="14.00" fill="#000000">Cool</text>
</a>
</g>
</g>
<!-- Cool&#45;&gt;Any -->
<g id="edge2" class="edge">
<title>Cool&#45;&gt;Any</title>
<path fill="none" stroke="#000000" d="M533.05,-180.3C533.05,-188.02 533.05,-197.29 533.05,-205.89"/>
<polygon fill="#000000" stroke="#000000" points="529.55,-205.9 533.05,-215.9 536.55,-205.9 529.55,-205.9"/>
</g>
<!-- Complex -->
<g id="node6" class="node">
<title>Complex</title>
<g id="a_node6"><a xlink:href="/type/Complex" xlink:title="Complex">
<ellipse fill="none" stroke="#000000" cx="964.05" cy="-90" rx="45.49" ry="18"/>
<text text-anchor="middle" x="964.05" y="-86.3" font-family="FreeSans" font-size="14.00" fill="#000000">Complex</text>
</a>
</g>
</g>
<!-- Complex&#45;&gt;Numeric -->
<g id="edge25" class="edge">
<title>Complex&#45;&gt;Numeric</title>
<path fill="none" stroke="#6666ff" d="M955.96,-107.74C943.5,-133.52 921.05,-180 921.05,-180 921.05,-180 873.67,-200.75 838.21,-216.28"/>
<polygon fill="#6666ff" stroke="#6666ff" points="836.78,-213.09 829.03,-220.31 839.59,-219.5 836.78,-213.09"/>
</g>
<!-- Complex&#45;&gt;Cool -->
<g id="edge3" class="edge">
<title>Complex&#45;&gt;Cool</title>
<path fill="none" stroke="#000000" d="M929.54,-101.86C918.96,-105.19 910.05,-108 910.05,-108 910.05,-108 666.44,-142.25 570.87,-155.68"/>
<polygon fill="#000000" stroke="#000000" points="570.18,-152.24 560.77,-157.1 571.16,-159.18 570.18,-152.24"/>
</g>
<!-- Stringy -->
<g id="node7" class="node">
<title>Stringy</title>
<g id="a_node7"><a xlink:href="/type/Stringy" xlink:title="Stringy">
<ellipse fill="none" stroke="#6666ff" cx="874.05" cy="-162" rx="38.19" ry="18"/>
<text text-anchor="middle" x="874.05" y="-158.3" font-family="FreeSans" font-size="14.00" fill="#6666ff">Stringy</text>
</a>
</g>
</g>
<!-- Str -->
<g id="node8" class="node">
<title>Str</title>
<g id="a_node8"><a xlink:href="/type/Str" xlink:title="Str">
<ellipse fill="none" stroke="#000000" cx="874.05" cy="-90" rx="27" ry="18"/>
<text text-anchor="middle" x="874.05" y="-86.3" font-family="FreeSans" font-size="14.00" fill="#000000">Str</text>
</a>
</g>
</g>
<!-- Str&#45;&gt;Cool -->
<g id="edge4" class="edge">
<title>Str&#45;&gt;Cool</title>
<path fill="none" stroke="#000000" d="M848.69,-96.2C789.09,-108.44 639.83,-139.08 570.07,-153.4"/>
<polygon fill="#000000" stroke="#000000" points="569.07,-150.03 559.97,-155.47 570.47,-156.89 569.07,-150.03"/>
</g>
<!-- Str&#45;&gt;Stringy -->
<g id="edge26" class="edge">
<title>Str&#45;&gt;Stringy</title>
<path fill="none" stroke="#6666ff" d="M874.05,-108.3C874.05,-116.02 874.05,-125.29 874.05,-133.89"/>
<polygon fill="#6666ff" stroke="#6666ff" points="870.55,-133.9 874.05,-143.9 877.55,-133.9 870.55,-133.9"/>
</g>
<!-- ComplexStr -->
<g id="node9" class="node">
<title>ComplexStr</title>
<g id="a_node9"><a xlink:href="/type/ComplexStr" xlink:title="ComplexStr">
<ellipse fill="none" stroke="#000000" cx="1080.05" cy="-18" rx="56.59" ry="18"/>
<text text-anchor="middle" x="1080.05" y="-14.3" font-family="FreeSans" font-size="14.00" fill="#000000">ComplexStr</text>
</a>
</g>
</g>
<!-- ComplexStr&#45;&gt;Complex -->
<g id="edge5" class="edge">
<title>ComplexStr&#45;&gt;Complex</title>
<path fill="none" stroke="#000000" d="M1054.88,-34.19C1037.81,-44.49 1015.09,-58.2 996.65,-69.33"/>
<polygon fill="#000000" stroke="#000000" points="994.73,-66.39 987.98,-74.56 998.35,-72.39 994.73,-66.39"/>
</g>
<!-- ComplexStr&#45;&gt;Str -->
<g id="edge6" class="edge">
<title>ComplexStr&#45;&gt;Str</title>
<path fill="none" stroke="#000000" d="M1041.05,-31.16C990.86,-46.81 910.05,-72 910.05,-72 910.05,-72 907.87,-73.03 904.58,-74.58"/>
<polygon fill="#000000" stroke="#000000" points="902.95,-71.48 895.4,-78.91 905.94,-77.81 902.95,-71.48"/>
</g>
<!-- Instant -->
<g id="node10" class="node">
<title>Instant</title>
<g id="a_node10"><a xlink:href="/type/Instant" xlink:title="Instant">
<ellipse fill="none" stroke="#000000" cx="297.05" cy="-90" rx="37.09" ry="18"/>
<text text-anchor="middle" x="297.05" y="-86.3" font-family="FreeSans" font-size="14.00" fill="#000000">Instant</text>
</a>
</g>
</g>
<!-- Instant&#45;&gt;Real -->
<g id="edge27" class="edge">
<title>Instant&#45;&gt;Real</title>
<path fill="none" stroke="#6666ff" d="M322.46,-103.35C346.91,-115.24 383.92,-133.23 410.08,-145.95"/>
<polygon fill="#6666ff" stroke="#6666ff" points="408.66,-149.15 419.18,-150.37 411.72,-142.85 408.66,-149.15"/>
</g>
<!-- Instant&#45;&gt;Cool -->
<g id="edge7" class="edge">
<title>Instant&#45;&gt;Cool</title>
<path fill="none" stroke="#000000" d="M325.66,-101.57C335.01,-105.03 343.05,-108 343.05,-108 343.05,-108 479.05,-144 479.05,-144 479.05,-144 487.72,-146.73 498.11,-150"/>
<polygon fill="#000000" stroke="#000000" points="497.35,-153.43 507.94,-153.1 499.46,-146.76 497.35,-153.43"/>
</g>
<!-- Rational -->
<g id="node11" class="node">
<title>Rational</title>
<g id="a_node11"><a xlink:href="/type/Rational" xlink:title="Rational">
<ellipse fill="none" stroke="#6666ff" cx="119.05" cy="-90" rx="42.79" ry="18"/>
<text text-anchor="middle" x="119.05" y="-86.3" font-family="FreeSans" font-size="14.00" fill="#6666ff">Rational</text>
</a>
</g>
</g>
<!-- Rational&#45;&gt;Real -->
<g id="edge28" class="edge">
<title>Rational&#45;&gt;Real</title>
<path fill="none" stroke="#6666ff" d="M156.3,-99.1C218.43,-112.6 342.46,-139.57 404.27,-153.01"/>
<polygon fill="#6666ff" stroke="#6666ff" points="403.84,-156.49 414.35,-155.2 405.32,-149.65 403.84,-156.49"/>
</g>
<!-- Duration -->
<g id="node12" class="node">
<title>Duration</title>
<g id="a_node12"><a xlink:href="/type/Duration" xlink:title="Duration">
<ellipse fill="none" stroke="#000000" cx="396.05" cy="-90" rx="44.39" ry="18"/>
<text text-anchor="middle" x="396.05" y="-86.3" font-family="FreeSans" font-size="14.00" fill="#000000">Duration</text>
</a>
</g>
</g>
<!-- Duration&#45;&gt;Real -->
<g id="edge29" class="edge">
<title>Duration&#45;&gt;Real</title>
<path fill="none" stroke="#6666ff" d="M406.71,-107.59C412.23,-116.17 419.07,-126.81 425.19,-136.33"/>
<polygon fill="#6666ff" stroke="#6666ff" points="422.42,-138.49 430.77,-145.01 428.31,-134.71 422.42,-138.49"/>
</g>
<!-- Duration&#45;&gt;Cool -->
<g id="edge8" class="edge">
<title>Duration&#45;&gt;Cool</title>
<path fill="none" stroke="#000000" d="M422.46,-104.5C445.25,-116.14 478.19,-132.97 502.19,-145.23"/>
<polygon fill="#000000" stroke="#000000" points="500.73,-148.42 511.23,-149.85 503.91,-142.18 500.73,-148.42"/>
</g>
<!-- Num -->
<g id="node13" class="node">
<title>Num</title>
<g id="a_node13"><a xlink:href="/type/Num" xlink:title="Num">
<ellipse fill="none" stroke="#000000" cx="636.05" cy="-90" rx="29.8" ry="18"/>
<text text-anchor="middle" x="636.05" y="-86.3" font-family="FreeSans" font-size="14.00" fill="#000000">Num</text>
</a>
</g>
</g>
<!-- Num&#45;&gt;Real -->
<g id="edge30" class="edge">
<title>Num&#45;&gt;Real</title>
<path fill="none" stroke="#6666ff" d="M612.46,-101.28C604.25,-104.86 597.05,-108 597.05,-108 597.05,-108 521.28,-133.74 475.35,-149.35"/>
<polygon fill="#6666ff" stroke="#6666ff" points="474.11,-146.07 465.77,-152.6 476.36,-152.7 474.11,-146.07"/>
</g>
<!-- Num&#45;&gt;Cool -->
<g id="edge9" class="edge">
<title>Num&#45;&gt;Cool</title>
<path fill="none" stroke="#000000" d="M616.67,-104.17C600.89,-114.89 578.41,-130.17 560.73,-142.18"/>
<polygon fill="#000000" stroke="#000000" points="558.29,-139.61 551.99,-148.13 562.22,-145.4 558.29,-139.61"/>
</g>
<!-- Int -->
<g id="node14" class="node">
<title>Int</title>
<g id="a_node14"><a xlink:href="/type/Int" xlink:title="Int">
<ellipse fill="none" stroke="#000000" cx="561.05" cy="-90" rx="27" ry="18"/>
<text text-anchor="middle" x="561.05" y="-86.3" font-family="FreeSans" font-size="14.00" fill="#000000">Int</text>
</a>
</g>
</g>
<!-- Int&#45;&gt;Real -->
<g id="edge31" class="edge">
<title>Int&#45;&gt;Real</title>
<path fill="none" stroke="#6666ff" d="M541.23,-102.56C521.89,-113.84 492.25,-131.13 470.22,-143.98"/>
<polygon fill="#6666ff" stroke="#6666ff" points="468.17,-141.13 461.29,-149.19 471.69,-147.17 468.17,-141.13"/>
</g>
<!-- Int&#45;&gt;Cool -->
<g id="edge10" class="edge">
<title>Int&#45;&gt;Cool</title>
<path fill="none" stroke="#000000" d="M554.41,-107.59C551.18,-115.66 547.22,-125.57 543.59,-134.65"/>
<polygon fill="#000000" stroke="#000000" points="540.29,-133.46 539.83,-144.04 546.79,-136.06 540.29,-133.46"/>
</g>
<!-- NumStr -->
<g id="node15" class="node">
<title>NumStr</title>
<g id="a_node15"><a xlink:href="/type/NumStr" xlink:title="NumStr">
<ellipse fill="none" stroke="#000000" cx="965.05" cy="-18" rx="40.89" ry="18"/>
<text text-anchor="middle" x="965.05" y="-14.3" font-family="FreeSans" font-size="14.00" fill="#000000">NumStr</text>
</a>
</g>
</g>
<!-- NumStr&#45;&gt;Str -->
<g id="edge12" class="edge">
<title>NumStr&#45;&gt;Str</title>
<path fill="none" stroke="#000000" d="M945.3,-34.19C931.75,-44.61 913.67,-58.52 899.11,-69.72"/>
<polygon fill="#000000" stroke="#000000" points="896.79,-67.09 891,-75.96 901.06,-72.63 896.79,-67.09"/>
</g>
<!-- NumStr&#45;&gt;Num -->
<g id="edge11" class="edge">
<title>NumStr&#45;&gt;Num</title>
<path fill="none" stroke="#000000" d="M933.66,-29.67C923.62,-33.09 915.05,-36 915.05,-36 915.05,-36 750.65,-67.23 674.25,-81.74"/>
<polygon fill="#000000" stroke="#000000" points="673.25,-78.37 664.08,-83.68 674.55,-85.25 673.25,-78.37"/>
</g>
<!-- Endian -->
<g id="node16" class="node">
<title>Endian</title>
<g id="a_node16"><a xlink:href="/type/Endian" xlink:title="Endian">
<ellipse fill="none" stroke="#33bb33" cx="398.05" cy="-18" rx="38.19" ry="18"/>
<text text-anchor="middle" x="398.05" y="-14.3" font-family="FreeSans" font-size="14.00" fill="#33bb33">Endian</text>
</a>
</g>
</g>
<!-- Endian&#45;&gt;Int -->
<g id="edge13" class="edge">
<title>Endian&#45;&gt;Int</title>
<path fill="none" stroke="#000000" d="M425.33,-30.72C454.12,-43.08 499.42,-62.53 529.66,-75.52"/>
<polygon fill="#000000" stroke="#000000" points="528.35,-78.77 538.92,-79.5 531.11,-72.33 528.35,-78.77"/>
</g>
<!-- int -->
<g id="node17" class="node">
<title>int</title>
<g id="a_node17"><a xlink:href="/type/int" xlink:title="int">
<ellipse fill="none" stroke="#000000" cx="481.05" cy="-18" rx="27" ry="18"/>
<text text-anchor="middle" x="481.05" y="-14.3" font-family="FreeSans" font-size="14.00" fill="#000000">int</text>
</a>
</g>
</g>
<!-- int&#45;&gt;Int -->
<g id="edge14" class="edge">
<title>int&#45;&gt;Int</title>
<path fill="none" stroke="#000000" d="M496.85,-32.83C508.47,-42.99 524.44,-56.97 537.55,-68.44"/>
<polygon fill="#000000" stroke="#000000" points="535.44,-71.25 545.27,-75.2 540.05,-65.98 535.44,-71.25"/>
</g>
<!-- Signal -->
<g id="node18" class="node">
<title>Signal</title>
<g id="a_node18"><a xlink:href="/type/Signal" xlink:title="Signal">
<ellipse fill="none" stroke="#33bb33" cx="561.05" cy="-18" rx="35.19" ry="18"/>
<text text-anchor="middle" x="561.05" y="-14.3" font-family="FreeSans" font-size="14.00" fill="#33bb33">Signal</text>
</a>
</g>
</g>
<!-- Signal&#45;&gt;Int -->
<g id="edge15" class="edge">
<title>Signal&#45;&gt;Int</title>
<path fill="none" stroke="#000000" d="M561.05,-36.3C561.05,-44.02 561.05,-53.29 561.05,-61.89"/>
<polygon fill="#000000" stroke="#000000" points="557.55,-61.9 561.05,-71.9 564.55,-61.9 557.55,-61.9"/>
</g>
<!-- IntStr -->
<g id="node19" class="node">
<title>IntStr</title>
<g id="a_node19"><a xlink:href="/type/IntStr" xlink:title="IntStr">
<ellipse fill="none" stroke="#000000" cx="874.05" cy="-18" rx="31.7" ry="18"/>
<text text-anchor="middle" x="874.05" y="-14.3" font-family="FreeSans" font-size="14.00" fill="#000000">IntStr</text>
</a>
</g>
</g>
<!-- IntStr&#45;&gt;Str -->
<g id="edge17" class="edge">
<title>IntStr&#45;&gt;Str</title>
<path fill="none" stroke="#000000" d="M874.05,-36.3C874.05,-44.02 874.05,-53.29 874.05,-61.89"/>
<polygon fill="#000000" stroke="#000000" points="870.55,-61.9 874.05,-71.9 877.55,-61.9 870.55,-61.9"/>
</g>
<!-- IntStr&#45;&gt;Int -->
<g id="edge16" class="edge">
<title>IntStr&#45;&gt;Int</title>
<path fill="none" stroke="#000000" d="M849.4,-29.48C841.17,-32.97 834.05,-36 834.05,-36 834.05,-36 597.05,-72 597.05,-72 597.05,-72 594.87,-73.03 591.58,-74.58"/>
<polygon fill="#000000" stroke="#000000" points="589.95,-71.48 582.4,-78.91 592.94,-77.81 589.95,-71.48"/>
</g>
<!-- PromiseStatus -->
<g id="node20" class="node">
<title>PromiseStatus</title>
<g id="a_node20"><a xlink:href="/type/PromiseStatus" xlink:title="PromiseStatus">
<ellipse fill="none" stroke="#33bb33" cx="682.05" cy="-18" rx="67.69" ry="18"/>
<text text-anchor="middle" x="682.05" y="-14.3" font-family="FreeSans" font-size="14.00" fill="#33bb33">PromiseStatus</text>
</a>
</g>
</g>
<!-- PromiseStatus&#45;&gt;Int -->
<g id="edge18" class="edge">
<title>PromiseStatus&#45;&gt;Int</title>
<path fill="none" stroke="#000000" d="M655.19,-34.54C635.72,-45.8 609.43,-61.01 589.57,-72.5"/>
<polygon fill="#000000" stroke="#000000" points="587.58,-69.6 580.68,-77.64 591.09,-75.66 587.58,-69.6"/>
</g>
<!-- Bool -->
<g id="node21" class="node">
<title>Bool</title>
<g id="a_node21"><a xlink:href="/type/Bool" xlink:title="Bool">
<ellipse fill="none" stroke="#33bb33" cx="796.05" cy="-18" rx="28.7" ry="18"/>
<text text-anchor="middle" x="796.05" y="-14.3" font-family="FreeSans" font-size="14.00" fill="#33bb33">Bool</text>
</a>
</g>
</g>
<!-- Bool&#45;&gt;Int -->
<g id="edge19" class="edge">
<title>Bool&#45;&gt;Int</title>
<path fill="none" stroke="#000000" d="M773.67,-29.28C765.88,-32.86 759.05,-36 759.05,-36 759.05,-36 597.05,-72 597.05,-72 597.05,-72 594.87,-73.03 591.58,-74.58"/>
<polygon fill="#000000" stroke="#000000" points="589.95,-71.48 582.4,-78.91 592.94,-77.81 589.95,-71.48"/>
</g>
<!-- Order -->
<g id="node22" class="node">
<title>Order</title>
<g id="a_node22"><a xlink:href="/type/Order" xlink:title="Order">
<ellipse fill="none" stroke="#33bb33" cx="198.05" cy="-18" rx="33.6" ry="18"/>
<text text-anchor="middle" x="198.05" y="-14.3" font-family="FreeSans" font-size="14.00" fill="#33bb33">Order</text>
</a>
</g>
</g>
<!-- Order&#45;&gt;Int -->
<g id="edge20" class="edge">
<title>Order&#45;&gt;Int</title>
<path fill="none" stroke="#000000" d="M224.54,-29.48C233.39,-32.97 241.05,-36 241.05,-36 241.05,-36 520.05,-72 520.05,-72 520.05,-72 523.93,-73.61 529.3,-75.84"/>
<polygon fill="#000000" stroke="#000000" points="528.05,-79.11 538.63,-79.7 530.73,-72.64 528.05,-79.11"/>
</g>
<!-- atomicint -->
<g id="node23" class="node">
<title>atomicint</title>
<g id="a_node23"><a xlink:href="/type/atomicint" xlink:title="atomicint">
<ellipse fill="none" stroke="#000000" cx="296.05" cy="-18" rx="46.29" ry="18"/>
<text text-anchor="middle" x="296.05" y="-14.3" font-family="FreeSans" font-size="14.00" fill="#000000">atomicint</text>
</a>
</g>
</g>
<!-- atomicint&#45;&gt;Int -->
<g id="edge21" class="edge">
<title>atomicint&#45;&gt;Int</title>
<path fill="none" stroke="#000000" d="M331.19,-29.86C341.97,-33.19 351.05,-36 351.05,-36 351.05,-36 520.05,-72 520.05,-72 520.05,-72 523.93,-73.61 529.3,-75.84"/>
<polygon fill="#000000" stroke="#000000" points="528.05,-79.11 538.63,-79.7 530.73,-72.64 528.05,-79.11"/>
</g>
<!-- Rat -->
<g id="node24" class="node">
<title>Rat</title>
<g id="a_node24"><a xlink:href="/type/Rat" xlink:title="Rat">
<ellipse fill="none" stroke="#000000" cx="119.05" cy="-18" rx="27" ry="18"/>
<text text-anchor="middle" x="119.05" y="-14.3" font-family="FreeSans" font-size="14.00" fill="#000000">Rat</text>
</a>
</g>
</g>
<!-- Rat&#45;&gt;Cool -->
<g id="edge22" class="edge">
<title>Rat&#45;&gt;Cool</title>
<path fill="none" stroke="#000000" d="M140.4,-29.09C148.16,-32.75 155.05,-36 155.05,-36 155.05,-36 482.05,-72 482.05,-72 482.05,-72 503.59,-109.59 518.67,-135.92"/>
<polygon fill="#000000" stroke="#000000" points="515.68,-137.74 523.69,-144.68 521.76,-134.26 515.68,-137.74"/>
</g>
<!-- Rat&#45;&gt;Rational -->
<g id="edge32" class="edge">
<title>Rat&#45;&gt;Rational</title>
<path fill="none" stroke="#6666ff" d="M119.05,-36.3C119.05,-44.02 119.05,-53.29 119.05,-61.89"/>
<polygon fill="#6666ff" stroke="#6666ff" points="115.55,-61.9 119.05,-71.9 122.55,-61.9 115.55,-61.9"/>
</g>
<!-- FatRat -->
<g id="node25" class="node">
<title>FatRat</title>
<g id="a_node25"><a xlink:href="/type/FatRat" xlink:title="FatRat">
<ellipse fill="none" stroke="#000000" cx="37.05" cy="-18" rx="37.09" ry="18"/>
<text text-anchor="middle" x="37.05" y="-14.3" font-family="FreeSans" font-size="14.00" fill="#000000">FatRat</text>
</a>
</g>
</g>
<!-- FatRat&#45;&gt;Cool -->
<g id="edge23" class="edge">
<title>FatRat&#45;&gt;Cool</title>
<path fill="none" stroke="#000000" d="M65.66,-29.57C75.01,-33.03 83.05,-36 83.05,-36 83.05,-36 449.05,-72 449.05,-72 449.05,-72 482.05,-108 482.05,-108 482.05,-108 497.78,-124.36 511.78,-138.9"/>
<polygon fill="#000000" stroke="#000000" points="509.38,-141.46 518.84,-146.24 514.43,-136.6 509.38,-141.46"/>
</g>
<!-- FatRat&#45;&gt;Rational -->
<g id="edge33" class="edge">
<title>FatRat&#45;&gt;Rational</title>
<path fill="none" stroke="#6666ff" d="M54.84,-34.19C66.04,-43.75 80.7,-56.26 93.18,-66.92"/>
<polygon fill="#6666ff" stroke="#6666ff" points="91.13,-69.77 101.01,-73.6 95.67,-64.44 91.13,-69.77"/>
</g>
</g>
</svg>
