<?xml version="1.0" encoding="UTF-8" standalone="no"?>
<!DOCTYPE svg PUBLIC "-//W3C//DTD SVG 1.1//EN"
 "http://www.w3.org/Graphics/SVG/1.1/DTD/svg11.dtd">
<!-- Generated by graphviz version 2.43.0 (0)
 -->
<!-- Title: perl6&#45;type&#45;graph Pages: 1 -->
<svg width="316pt" height="404pt"
 viewBox="0.00 0.00 316.48 404.00" xmlns="http://www.w3.org/2000/svg" xmlns:xlink="http://www.w3.org/1999/xlink">
<g id="graph0" class="graph" transform="scale(1 1) rotate(0) translate(4 400)">
<title>perl6&#45;type&#45;graph</title>
<polygon fill="white" stroke="transparent" points="-4,4 -4,-400 312.48,-400 312.48,4 -4,4"/>
<!-- X::Syntax::Term::MissingInitializer -->
<g id="node1" class="node">
<title>X::Syntax::Term::MissingInitializer</title>
<g id="a_node1"><a xlink:href="/type/X::Syntax::Term::MissingInitializer" xlink:title="X::Syntax::Term::MissingInitializer">
<ellipse fill="none" stroke="#000000" cx="143.64" cy="-18" rx="143.77" ry="18"/>
<text text-anchor="middle" x="143.64" y="-14.3" font-family="FreeSans" font-size="14.00" fill="#000000">X::Syntax::Term::MissingInitializer</text>
</a>
</g>
</g>
<!-- Exception -->
<g id="node4" class="node">
<title>Exception</title>
<g id="a_node4"><a xlink:href="/type/Exception" xlink:title="Exception">
<ellipse fill="none" stroke="#000000" cx="166.64" cy="-234" rx="49.29" ry="18"/>
<text text-anchor="middle" x="166.64" y="-230.3" font-family="FreeSans" font-size="14.00" fill="#000000">Exception</text>
</a>
</g>
</g>
<!-- X::Syntax::Term::MissingInitializer&#45;&gt;Exception -->
<g id="edge1" class="edge">
<title>X::Syntax::Term::MissingInitializer&#45;&gt;Exception</title>
<path fill="none" stroke="#000000" d="M141.6,-36.15C142.05,-73.34 151.28,-161.63 159.11,-206.23"/>
<polygon fill="#000000" stroke="#000000" points="155.67,-206.88 160.96,-216.06 162.55,-205.59 155.67,-206.88"/>
</g>
<!-- X::Syntax::Term::MissingInitializer&#45;&gt;Exception -->
<g id="edge2" class="edge">
<title>X::Syntax::Term::MissingInitializer&#45;&gt;Exception</title>
<path fill="none" stroke="#000000" d="M149.36,-36.15C156.87,-73.17 166.56,-160.82 168.39,-205.61"/>
<polygon fill="#000000" stroke="#000000" points="164.89,-205.87 168.67,-215.77 171.89,-205.67 164.89,-205.87"/>
</g>
<!-- X::Syntax -->
<g id="node6" class="node">
<title>X::Syntax</title>
<g id="a_node6"><a xlink:href="/type/X::Syntax" xlink:title="X::Syntax">
<ellipse fill="none" stroke="#6666ff" cx="228.64" cy="-90" rx="48.19" ry="18"/>
<text text-anchor="middle" x="228.64" y="-86.3" font-family="FreeSans" font-size="14.00" fill="#6666ff">X::Syntax</text>
</a>
</g>
</g>
<!-- X::Syntax::Term::MissingInitializer&#45;&gt;X::Syntax -->
<g id="edge7" class="edge">
<title>X::Syntax::Term::MissingInitializer&#45;&gt;X::Syntax</title>
<path fill="none" stroke="#6666ff" d="M164.21,-35.95C175.47,-45.22 189.55,-56.81 201.68,-66.8"/>
<polygon fill="#6666ff" stroke="#6666ff" points="199.76,-69.75 209.7,-73.41 204.21,-64.35 199.76,-69.75"/>
</g>
<!-- Mu -->
<g id="node2" class="node">
<title>Mu</title>
<g id="a_node2"><a xlink:href="/type/Mu" xlink:title="Mu">
<ellipse fill="none" stroke="#000000" cx="166.64" cy="-378" rx="27" ry="18"/>
<text text-anchor="middle" x="166.64" y="-374.3" font-family="FreeSans" font-size="14.00" fill="#000000">Mu</text>
</a>
</g>
</g>
<!-- Any -->
<g id="node3" class="node">
<title>Any</title>
<g id="a_node3"><a xlink:href="/type/Any" xlink:title="Any">
<ellipse fill="none" stroke="#000000" cx="166.64" cy="-306" rx="27" ry="18"/>
<text text-anchor="middle" x="166.64" y="-302.3" font-family="FreeSans" font-size="14.00" fill="#000000">Any</text>
</a>
</g>
</g>
<!-- Any&#45;&gt;Mu -->
<g id="edge3" class="edge">
<title>Any&#45;&gt;Mu</title>
<path fill="none" stroke="#000000" d="M166.64,-324.3C166.64,-332.02 166.64,-341.29 166.64,-349.89"/>
<polygon fill="#000000" stroke="#000000" points="163.14,-349.9 166.64,-359.9 170.14,-349.9 163.14,-349.9"/>
</g>
<!-- Exception&#45;&gt;Any -->
<g id="edge4" class="edge">
<title>Exception&#45;&gt;Any</title>
<path fill="none" stroke="#000000" d="M166.64,-252.3C166.64,-260.02 166.64,-269.29 166.64,-277.89"/>
<polygon fill="#000000" stroke="#000000" points="163.14,-277.9 166.64,-287.9 170.14,-277.9 163.14,-277.9"/>
</g>
<!-- X::Comp -->
<g id="node5" class="node">
<title>X::Comp</title>
<g id="a_node5"><a xlink:href="/type/X::Comp" xlink:title="X::Comp">
<ellipse fill="none" stroke="#6666ff" cx="263.64" cy="-162" rx="44.69" ry="18"/>
<text text-anchor="middle" x="263.64" y="-158.3" font-family="FreeSans" font-size="14.00" fill="#6666ff">X::Comp</text>
</a>
</g>
</g>
<!-- X::Comp&#45;&gt;Exception -->
<g id="edge5" class="edge">
<title>X::Comp&#45;&gt;Exception</title>
<path fill="none" stroke="#000000" d="M242.59,-178.19C229.08,-187.94 211.34,-200.74 196.4,-211.52"/>
<polygon fill="#000000" stroke="#000000" points="194.04,-208.91 187.98,-217.6 198.14,-214.59 194.04,-208.91"/>
</g>
<!-- X::Syntax&#45;&gt;Exception -->
<g id="edge6" class="edge">
<title>X::Syntax&#45;&gt;Exception</title>
<path fill="none" stroke="#000000" d="M221.28,-107.85C210.61,-132.29 190.73,-177.83 178.11,-206.71"/>
<polygon fill="#000000" stroke="#000000" points="174.78,-205.61 173.98,-216.18 181.19,-208.41 174.78,-205.61"/>
</g>
<!-- X::Syntax&#45;&gt;X::Comp -->
<g id="edge8" class="edge">
<title>X::Syntax&#45;&gt;X::Comp</title>
<path fill="none" stroke="#6666ff" d="M237.11,-107.95C241.19,-116.11 246.18,-126.09 250.73,-135.18"/>
<polygon fill="#6666ff" stroke="#6666ff" points="247.64,-136.83 255.24,-144.21 253.9,-133.7 247.64,-136.83"/>
</g>
</g>
</svg>
