<?xml version="1.0" encoding="UTF-8" standalone="no"?>
<!DOCTYPE svg PUBLIC "-//W3C//DTD SVG 1.1//EN"
 "http://www.w3.org/Graphics/SVG/1.1/DTD/svg11.dtd">
<!-- Generated by graphviz version 2.43.0 (0)
 -->
<!-- Title: perl6&#45;type&#45;graph Pages: 1 -->
<svg width="360pt" height="404pt"
 viewBox="0.00 0.00 360.27 404.00" xmlns="http://www.w3.org/2000/svg" xmlns:xlink="http://www.w3.org/1999/xlink">
<g id="graph0" class="graph" transform="scale(1 1) rotate(0) translate(4 400)">
<title>perl6&#45;type&#45;graph</title>
<polygon fill="#ffffff" stroke="transparent" points="-4,4 -4,-400 356.27,-400 356.27,4 -4,4"/>
<!-- X::Syntax::AddCategorical::TooManyParts -->
<g id="node1" class="node">
<title>X::Syntax::AddCategorical::TooManyParts</title>
<g id="a_node1"><a xlink:href="/type/X::Syntax::AddCategorical::TooManyParts" xlink:title="X::Syntax::AddCategorical::TooManyParts">
<ellipse fill="none" stroke="#000000" cx="176.13" cy="-18" rx="176.27" ry="18"/>
<text text-anchor="middle" x="176.13" y="-14.3" font-family="FreeSans" font-size="14.00" fill="#000000">X::Syntax::AddCategorical::TooManyParts</text>
</a>
</g>
</g>
<!-- Exception -->
<g id="node4" class="node">
<title>Exception</title>
<g id="a_node4"><a xlink:href="/type/Exception" xlink:title="Exception">
<ellipse fill="none" stroke="#000000" cx="176.13" cy="-234" rx="49.29" ry="18"/>
<text text-anchor="middle" x="176.13" y="-230.3" font-family="FreeSans" font-size="14.00" fill="#000000">Exception</text>
</a>
</g>
</g>
<!-- X::Syntax::AddCategorical::TooManyParts&#45;&gt;Exception -->
<g id="edge1" class="edge">
<title>X::Syntax::AddCategorical::TooManyParts&#45;&gt;Exception</title>
<path fill="none" stroke="#000000" d="M170.02,-36.06C164.46,-51.55 157.13,-72 157.13,-72 157.13,-72 157.13,-108 157.13,-108 157.13,-108 166.41,-169.01 172,-205.78"/>
<polygon fill="#000000" stroke="#000000" points="168.57,-206.52 173.53,-215.88 175.49,-205.47 168.57,-206.52"/>
</g>
<!-- X::Syntax -->
<g id="node6" class="node">
<title>X::Syntax</title>
<g id="a_node6"><a xlink:href="/type/X::Syntax" xlink:title="X::Syntax">
<ellipse fill="none" stroke="#6666ff" cx="214.13" cy="-90" rx="48.19" ry="18"/>
<text text-anchor="middle" x="214.13" y="-86.3" font-family="FreeSans" font-size="14.00" fill="#6666ff">X::Syntax</text>
</a>
</g>
</g>
<!-- X::Syntax::AddCategorical::TooManyParts&#45;&gt;X::Syntax -->
<g id="edge6" class="edge">
<title>X::Syntax::AddCategorical::TooManyParts&#45;&gt;X::Syntax</title>
<path fill="none" stroke="#6666ff" d="M185.53,-36.3C189.9,-44.36 195.19,-54.11 200.03,-63.02"/>
<polygon fill="#6666ff" stroke="#6666ff" points="197,-64.78 204.85,-71.9 203.15,-61.44 197,-64.78"/>
</g>
<!-- Mu -->
<g id="node2" class="node">
<title>Mu</title>
<g id="a_node2"><a xlink:href="/type/Mu" xlink:title="Mu">
<ellipse fill="none" stroke="#000000" cx="176.13" cy="-378" rx="27" ry="18"/>
<text text-anchor="middle" x="176.13" y="-374.3" font-family="FreeSans" font-size="14.00" fill="#000000">Mu</text>
</a>
</g>
</g>
<!-- Any -->
<g id="node3" class="node">
<title>Any</title>
<g id="a_node3"><a xlink:href="/type/Any" xlink:title="Any">
<ellipse fill="none" stroke="#000000" cx="176.13" cy="-306" rx="27" ry="18"/>
<text text-anchor="middle" x="176.13" y="-302.3" font-family="FreeSans" font-size="14.00" fill="#000000">Any</text>
</a>
</g>
</g>
<!-- Any&#45;&gt;Mu -->
<g id="edge2" class="edge">
<title>Any&#45;&gt;Mu</title>
<path fill="none" stroke="#000000" d="M176.13,-324.3C176.13,-332.02 176.13,-341.29 176.13,-349.89"/>
<polygon fill="#000000" stroke="#000000" points="172.63,-349.9 176.13,-359.9 179.63,-349.9 172.63,-349.9"/>
</g>
<!-- Exception&#45;&gt;Any -->
<g id="edge3" class="edge">
<title>Exception&#45;&gt;Any</title>
<path fill="none" stroke="#000000" d="M176.13,-252.3C176.13,-260.02 176.13,-269.29 176.13,-277.89"/>
<polygon fill="#000000" stroke="#000000" points="172.63,-277.9 176.13,-287.9 179.63,-277.9 172.63,-277.9"/>
</g>
<!-- X::Comp -->
<g id="node5" class="node">
<title>X::Comp</title>
<g id="a_node5"><a xlink:href="/type/X::Comp" xlink:title="X::Comp">
<ellipse fill="none" stroke="#6666ff" cx="249.13" cy="-162" rx="44.69" ry="18"/>
<text text-anchor="middle" x="249.13" y="-158.3" font-family="FreeSans" font-size="14.00" fill="#6666ff">X::Comp</text>
</a>
</g>
</g>
<!-- X::Comp&#45;&gt;Exception -->
<g id="edge4" class="edge">
<title>X::Comp&#45;&gt;Exception</title>
<path fill="none" stroke="#000000" d="M232.57,-178.88C223.02,-188.04 210.85,-199.71 200.26,-209.87"/>
<polygon fill="#000000" stroke="#000000" points="197.68,-207.49 192.89,-216.94 202.53,-212.54 197.68,-207.49"/>
</g>
<!-- X::Syntax&#45;&gt;Exception -->
<g id="edge5" class="edge">
<title>X::Syntax&#45;&gt;Exception</title>
<path fill="none" stroke="#000000" d="M208.02,-108.06C202.46,-123.55 195.13,-144 195.13,-144 195.13,-144 187.48,-179.83 181.89,-206.03"/>
<polygon fill="#000000" stroke="#000000" points="178.46,-205.33 179.8,-215.84 185.31,-206.79 178.46,-205.33"/>
</g>
<!-- X::Syntax&#45;&gt;X::Comp -->
<g id="edge7" class="edge">
<title>X::Syntax&#45;&gt;X::Comp</title>
<path fill="none" stroke="#6666ff" d="M222.61,-107.95C226.69,-116.11 231.68,-126.09 236.22,-135.18"/>
<polygon fill="#6666ff" stroke="#6666ff" points="233.14,-136.83 240.74,-144.21 239.4,-133.7 233.14,-136.83"/>
</g>
</g>
</svg>
