<?xml version="1.0" encoding="UTF-8" standalone="no"?>
<!DOCTYPE svg PUBLIC "-//W3C//DTD SVG 1.1//EN"
 "http://www.w3.org/Graphics/SVG/1.1/DTD/svg11.dtd">
<!-- Generated by graphviz version 2.43.0 (0)
 -->
<!-- Title: perl6&#45;type&#45;graph Pages: 1 -->
<svg width="337pt" height="404pt"
 viewBox="0.00 0.00 336.87 404.00" xmlns="http://www.w3.org/2000/svg" xmlns:xlink="http://www.w3.org/1999/xlink">
<g id="graph0" class="graph" transform="scale(1 1) rotate(0) translate(4 400)">
<title>perl6&#45;type&#45;graph</title>
<polygon fill="white" stroke="transparent" points="-4,4 -4,-400 332.87,-400 332.87,4 -4,4"/>
<!-- X::Syntax::Regex::SpacesInBareRange -->
<g id="node1" class="node">
<title>X::Syntax::Regex::SpacesInBareRange</title>
<g id="a_node1"><a xlink:href="/type/X::Syntax::Regex::SpacesInBareRange" xlink:title="X::Syntax::Regex::SpacesInBareRange">
<ellipse fill="none" stroke="#000000" cx="164.44" cy="-18" rx="164.37" ry="18"/>
<text text-anchor="middle" x="164.44" y="-14.3" font-family="FreeSans" font-size="14.00" fill="#000000">X::Syntax::Regex::SpacesInBareRange</text>
</a>
</g>
</g>
<!-- Exception -->
<g id="node4" class="node">
<title>Exception</title>
<g id="a_node4"><a xlink:href="/type/Exception" xlink:title="Exception">
<ellipse fill="none" stroke="#000000" cx="164.44" cy="-234" rx="49.29" ry="18"/>
<text text-anchor="middle" x="164.44" y="-230.3" font-family="FreeSans" font-size="14.00" fill="#000000">Exception</text>
</a>
</g>
</g>
<!-- X::Syntax::Regex::SpacesInBareRange&#45;&gt;Exception -->
<g id="edge1" class="edge">
<title>X::Syntax::Regex::SpacesInBareRange&#45;&gt;Exception</title>
<path fill="none" stroke="#000000" d="M158.32,-36.06C152.76,-51.55 145.44,-72 145.44,-72 145.44,-72 145.44,-108 145.44,-108 145.44,-108 154.71,-169.01 160.3,-205.78"/>
<polygon fill="#000000" stroke="#000000" points="156.87,-206.52 161.83,-215.88 163.79,-205.47 156.87,-206.52"/>
</g>
<!-- X::Syntax -->
<g id="node6" class="node">
<title>X::Syntax</title>
<g id="a_node6"><a xlink:href="/type/X::Syntax" xlink:title="X::Syntax">
<ellipse fill="none" stroke="#6666ff" cx="202.44" cy="-90" rx="48.19" ry="18"/>
<text text-anchor="middle" x="202.44" y="-86.3" font-family="FreeSans" font-size="14.00" fill="#6666ff">X::Syntax</text>
</a>
</g>
</g>
<!-- X::Syntax::Regex::SpacesInBareRange&#45;&gt;X::Syntax -->
<g id="edge6" class="edge">
<title>X::Syntax::Regex::SpacesInBareRange&#45;&gt;X::Syntax</title>
<path fill="none" stroke="#6666ff" d="M173.83,-36.3C178.2,-44.36 183.49,-54.11 188.33,-63.02"/>
<polygon fill="#6666ff" stroke="#6666ff" points="185.3,-64.78 193.15,-71.9 191.46,-61.44 185.3,-64.78"/>
</g>
<!-- Mu -->
<g id="node2" class="node">
<title>Mu</title>
<g id="a_node2"><a xlink:href="/type/Mu" xlink:title="Mu">
<ellipse fill="none" stroke="#000000" cx="164.44" cy="-378" rx="27" ry="18"/>
<text text-anchor="middle" x="164.44" y="-374.3" font-family="FreeSans" font-size="14.00" fill="#000000">Mu</text>
</a>
</g>
</g>
<!-- Any -->
<g id="node3" class="node">
<title>Any</title>
<g id="a_node3"><a xlink:href="/type/Any" xlink:title="Any">
<ellipse fill="none" stroke="#000000" cx="164.44" cy="-306" rx="27" ry="18"/>
<text text-anchor="middle" x="164.44" y="-302.3" font-family="FreeSans" font-size="14.00" fill="#000000">Any</text>
</a>
</g>
</g>
<!-- Any&#45;&gt;Mu -->
<g id="edge2" class="edge">
<title>Any&#45;&gt;Mu</title>
<path fill="none" stroke="#000000" d="M164.44,-324.3C164.44,-332.02 164.44,-341.29 164.44,-349.89"/>
<polygon fill="#000000" stroke="#000000" points="160.94,-349.9 164.44,-359.9 167.94,-349.9 160.94,-349.9"/>
</g>
<!-- Exception&#45;&gt;Any -->
<g id="edge3" class="edge">
<title>Exception&#45;&gt;Any</title>
<path fill="none" stroke="#000000" d="M164.44,-252.3C164.44,-260.02 164.44,-269.29 164.44,-277.89"/>
<polygon fill="#000000" stroke="#000000" points="160.94,-277.9 164.44,-287.9 167.94,-277.9 160.94,-277.9"/>
</g>
<!-- X::Comp -->
<g id="node5" class="node">
<title>X::Comp</title>
<g id="a_node5"><a xlink:href="/type/X::Comp" xlink:title="X::Comp">
<ellipse fill="none" stroke="#6666ff" cx="237.44" cy="-162" rx="44.69" ry="18"/>
<text text-anchor="middle" x="237.44" y="-158.3" font-family="FreeSans" font-size="14.00" fill="#6666ff">X::Comp</text>
</a>
</g>
</g>
<!-- X::Comp&#45;&gt;Exception -->
<g id="edge4" class="edge">
<title>X::Comp&#45;&gt;Exception</title>
<path fill="none" stroke="#000000" d="M220.87,-178.88C211.32,-188.04 199.15,-199.71 188.56,-209.87"/>
<polygon fill="#000000" stroke="#000000" points="185.98,-207.49 181.19,-216.94 190.83,-212.54 185.98,-207.49"/>
</g>
<!-- X::Syntax&#45;&gt;Exception -->
<g id="edge5" class="edge">
<title>X::Syntax&#45;&gt;Exception</title>
<path fill="none" stroke="#000000" d="M196.32,-108.06C190.76,-123.55 183.44,-144 183.44,-144 183.44,-144 175.79,-179.83 170.19,-206.03"/>
<polygon fill="#000000" stroke="#000000" points="166.76,-205.33 168.1,-215.84 173.61,-206.79 166.76,-205.33"/>
</g>
<!-- X::Syntax&#45;&gt;X::Comp -->
<g id="edge7" class="edge">
<title>X::Syntax&#45;&gt;X::Comp</title>
<path fill="none" stroke="#6666ff" d="M210.91,-107.95C214.99,-116.11 219.98,-126.09 224.52,-135.18"/>
<polygon fill="#6666ff" stroke="#6666ff" points="221.44,-136.83 229.04,-144.21 227.7,-133.7 221.44,-136.83"/>
</g>
</g>
</svg>
