<?xml version="1.0" encoding="UTF-8" standalone="no"?>
<!DOCTYPE svg PUBLIC "-//W3C//DTD SVG 1.1//EN"
 "http://www.w3.org/Graphics/SVG/1.1/DTD/svg11.dtd">
<!-- Generated by graphviz version 2.43.0 (0)
 -->
<!-- Title: perl6&#45;type&#45;graph Pages: 1 -->
<svg width="1014pt" height="332pt"
 viewBox="0.00 0.00 1013.95 332.00" xmlns="http://www.w3.org/2000/svg" xmlns:xlink="http://www.w3.org/1999/xlink">
<g id="graph0" class="graph" transform="scale(1 1) rotate(0) translate(4 328)">
<title>perl6&#45;type&#45;graph</title>
<polygon fill="white" stroke="transparent" points="-4,4 -4,-328 1009.95,-328 1009.95,4 -4,4"/>
<!-- Real -->
<g id="node1" class="node">
<title>Real</title>
<g id="a_node1"><a xlink:href="/type/Real" xlink:title="Real">
<ellipse fill="none" stroke="#6666ff" cx="315" cy="-162" rx="28.7" ry="18"/>
<text text-anchor="middle" x="315" y="-158.3" font-family="FreeSans" font-size="14.00" fill="#6666ff">Real</text>
</a>
</g>
</g>
<!-- Numeric -->
<g id="node2" class="node">
<title>Numeric</title>
<g id="a_node2"><a xlink:href="/type/Numeric" xlink:title="Numeric">
<ellipse fill="none" stroke="#6666ff" cx="315" cy="-234" rx="44.39" ry="18"/>
<text text-anchor="middle" x="315" y="-230.3" font-family="FreeSans" font-size="14.00" fill="#6666ff">Numeric</text>
</a>
</g>
</g>
<!-- Real&#45;&gt;Numeric -->
<g id="edge21" class="edge">
<title>Real&#45;&gt;Numeric</title>
<path fill="none" stroke="#6666ff" d="M315,-180.3C315,-188.02 315,-197.29 315,-205.89"/>
<polygon fill="#6666ff" stroke="#6666ff" points="311.5,-205.9 315,-215.9 318.5,-205.9 311.5,-205.9"/>
</g>
<!-- Mu -->
<g id="node3" class="node">
<title>Mu</title>
<g id="a_node3"><a xlink:href="/type/Mu" xlink:title="Mu">
<ellipse fill="none" stroke="#000000" cx="418" cy="-306" rx="27" ry="18"/>
<text text-anchor="middle" x="418" y="-302.3" font-family="FreeSans" font-size="14.00" fill="#000000">Mu</text>
</a>
</g>
</g>
<!-- Any -->
<g id="node4" class="node">
<title>Any</title>
<g id="a_node4"><a xlink:href="/type/Any" xlink:title="Any">
<ellipse fill="none" stroke="#000000" cx="418" cy="-234" rx="27" ry="18"/>
<text text-anchor="middle" x="418" y="-230.3" font-family="FreeSans" font-size="14.00" fill="#000000">Any</text>
</a>
</g>
</g>
<!-- Any&#45;&gt;Mu -->
<g id="edge1" class="edge">
<title>Any&#45;&gt;Mu</title>
<path fill="none" stroke="#000000" d="M418,-252.3C418,-260.02 418,-269.29 418,-277.89"/>
<polygon fill="#000000" stroke="#000000" points="414.5,-277.9 418,-287.9 421.5,-277.9 414.5,-277.9"/>
</g>
<!-- Cool -->
<g id="node5" class="node">
<title>Cool</title>
<g id="a_node5"><a xlink:href="/type/Cool" xlink:title="Cool">
<ellipse fill="none" stroke="#000000" cx="418" cy="-162" rx="28.7" ry="18"/>
<text text-anchor="middle" x="418" y="-158.3" font-family="FreeSans" font-size="14.00" fill="#000000">Cool</text>
</a>
</g>
</g>
<!-- Cool&#45;&gt;Any -->
<g id="edge2" class="edge">
<title>Cool&#45;&gt;Any</title>
<path fill="none" stroke="#000000" d="M418,-180.3C418,-188.02 418,-197.29 418,-205.89"/>
<polygon fill="#000000" stroke="#000000" points="414.5,-205.9 418,-215.9 421.5,-205.9 414.5,-205.9"/>
</g>
<!-- Instant -->
<g id="node6" class="node">
<title>Instant</title>
<g id="a_node6"><a xlink:href="/type/Instant" xlink:title="Instant">
<ellipse fill="none" stroke="#000000" cx="315" cy="-90" rx="37.09" ry="18"/>
<text text-anchor="middle" x="315" y="-86.3" font-family="FreeSans" font-size="14.00" fill="#000000">Instant</text>
</a>
</g>
</g>
<!-- Instant&#45;&gt;Real -->
<g id="edge22" class="edge">
<title>Instant&#45;&gt;Real</title>
<path fill="none" stroke="#6666ff" d="M315,-108.3C315,-116.02 315,-125.29 315,-133.89"/>
<polygon fill="#6666ff" stroke="#6666ff" points="311.5,-133.9 315,-143.9 318.5,-133.9 311.5,-133.9"/>
</g>
<!-- Instant&#45;&gt;Cool -->
<g id="edge3" class="edge">
<title>Instant&#45;&gt;Cool</title>
<path fill="none" stroke="#000000" d="M335.84,-105.17C351.66,-115.92 373.55,-130.79 390.75,-142.48"/>
<polygon fill="#000000" stroke="#000000" points="389.03,-145.54 399.27,-148.27 392.96,-139.75 389.03,-145.54"/>
</g>
<!-- Rational -->
<g id="node7" class="node">
<title>Rational</title>
<g id="a_node7"><a xlink:href="/type/Rational" xlink:title="Rational">
<ellipse fill="none" stroke="#6666ff" cx="109" cy="-90" rx="42.79" ry="18"/>
<text text-anchor="middle" x="109" y="-86.3" font-family="FreeSans" font-size="14.00" fill="#6666ff">Rational</text>
</a>
</g>
</g>
<!-- Rational&#45;&gt;Real -->
<g id="edge23" class="edge">
<title>Rational&#45;&gt;Real</title>
<path fill="none" stroke="#6666ff" d="M141.19,-101.94C179.1,-114.82 241.83,-136.14 280.66,-149.33"/>
<polygon fill="#6666ff" stroke="#6666ff" points="279.86,-152.76 290.46,-152.66 282.12,-146.13 279.86,-152.76"/>
</g>
<!-- Duration -->
<g id="node8" class="node">
<title>Duration</title>
<g id="a_node8"><a xlink:href="/type/Duration" xlink:title="Duration">
<ellipse fill="none" stroke="#000000" cx="216" cy="-90" rx="44.39" ry="18"/>
<text text-anchor="middle" x="216" y="-86.3" font-family="FreeSans" font-size="14.00" fill="#000000">Duration</text>
</a>
</g>
</g>
<!-- Duration&#45;&gt;Real -->
<g id="edge24" class="edge">
<title>Duration&#45;&gt;Real</title>
<path fill="none" stroke="#6666ff" d="M237,-105.85C251.94,-116.41 272.14,-130.69 288.23,-142.08"/>
<polygon fill="#6666ff" stroke="#6666ff" points="286.51,-145.14 296.7,-148.06 290.55,-139.43 286.51,-145.14"/>
</g>
<!-- Duration&#45;&gt;Cool -->
<g id="edge4" class="edge">
<title>Duration&#45;&gt;Cool</title>
<path fill="none" stroke="#000000" d="M248.45,-102.25C285.62,-115.12 346.22,-136.13 384.01,-149.22"/>
<polygon fill="#000000" stroke="#000000" points="382.97,-152.57 393.57,-152.53 385.26,-145.95 382.97,-152.57"/>
</g>
<!-- Num -->
<g id="node9" class="node">
<title>Num</title>
<g id="a_node9"><a xlink:href="/type/Num" xlink:title="Num">
<ellipse fill="none" stroke="#000000" cx="548" cy="-90" rx="29.8" ry="18"/>
<text text-anchor="middle" x="548" y="-86.3" font-family="FreeSans" font-size="14.00" fill="#000000">Num</text>
</a>
</g>
</g>
<!-- Num&#45;&gt;Real -->
<g id="edge25" class="edge">
<title>Num&#45;&gt;Real</title>
<path fill="none" stroke="#6666ff" d="M524.41,-101.28C516.2,-104.86 509,-108 509,-108 509,-108 406.67,-135.96 350.65,-151.26"/>
<polygon fill="#6666ff" stroke="#6666ff" points="349.49,-147.95 340.76,-153.96 351.33,-154.7 349.49,-147.95"/>
</g>
<!-- Num&#45;&gt;Cool -->
<g id="edge5" class="edge">
<title>Num&#45;&gt;Cool</title>
<path fill="none" stroke="#000000" d="M526.53,-102.56C505.14,-114.08 472.11,-131.86 448.1,-144.79"/>
<polygon fill="#000000" stroke="#000000" points="446.21,-141.83 439.07,-149.66 449.53,-148 446.21,-141.83"/>
</g>
<!-- Int -->
<g id="node10" class="node">
<title>Int</title>
<g id="a_node10"><a xlink:href="/type/Int" xlink:title="Int">
<ellipse fill="none" stroke="#000000" cx="473" cy="-90" rx="27" ry="18"/>
<text text-anchor="middle" x="473" y="-86.3" font-family="FreeSans" font-size="14.00" fill="#000000">Int</text>
</a>
</g>
</g>
<!-- Int&#45;&gt;Real -->
<g id="edge26" class="edge">
<title>Int&#45;&gt;Real</title>
<path fill="none" stroke="#6666ff" d="M451.03,-100.73C424.1,-112.67 378.23,-132.99 347.29,-146.7"/>
<polygon fill="#6666ff" stroke="#6666ff" points="345.53,-143.65 337.81,-150.9 348.37,-150.05 345.53,-143.65"/>
</g>
<!-- Int&#45;&gt;Cool -->
<g id="edge6" class="edge">
<title>Int&#45;&gt;Cool</title>
<path fill="none" stroke="#000000" d="M461.07,-106.19C453.89,-115.33 444.6,-127.15 436.48,-137.48"/>
<polygon fill="#000000" stroke="#000000" points="433.72,-135.33 430.29,-145.36 439.22,-139.66 433.72,-135.33"/>
</g>
<!-- Stringy -->
<g id="node11" class="node">
<title>Stringy</title>
<g id="a_node11"><a xlink:href="/type/Stringy" xlink:title="Stringy">
<ellipse fill="none" stroke="#6666ff" cx="874" cy="-162" rx="38.19" ry="18"/>
<text text-anchor="middle" x="874" y="-158.3" font-family="FreeSans" font-size="14.00" fill="#6666ff">Stringy</text>
</a>
</g>
</g>
<!-- Str -->
<g id="node12" class="node">
<title>Str</title>
<g id="a_node12"><a xlink:href="/type/Str" xlink:title="Str">
<ellipse fill="none" stroke="#000000" cx="874" cy="-90" rx="27" ry="18"/>
<text text-anchor="middle" x="874" y="-86.3" font-family="FreeSans" font-size="14.00" fill="#000000">Str</text>
</a>
</g>
</g>
<!-- Str&#45;&gt;Cool -->
<g id="edge7" class="edge">
<title>Str&#45;&gt;Cool</title>
<path fill="none" stroke="#000000" d="M847.85,-95.01C770.93,-106.82 545.29,-141.46 455.49,-155.24"/>
<polygon fill="#000000" stroke="#000000" points="454.84,-151.8 445.48,-156.78 455.9,-158.72 454.84,-151.8"/>
</g>
<!-- Str&#45;&gt;Stringy -->
<g id="edge27" class="edge">
<title>Str&#45;&gt;Stringy</title>
<path fill="none" stroke="#6666ff" d="M874,-108.3C874,-116.02 874,-125.29 874,-133.89"/>
<polygon fill="#6666ff" stroke="#6666ff" points="870.5,-133.9 874,-143.9 877.5,-133.9 870.5,-133.9"/>
</g>
<!-- NumStr -->
<g id="node13" class="node">
<title>NumStr</title>
<g id="a_node13"><a xlink:href="/type/NumStr" xlink:title="NumStr">
<ellipse fill="none" stroke="#000000" cx="965" cy="-18" rx="40.89" ry="18"/>
<text text-anchor="middle" x="965" y="-14.3" font-family="FreeSans" font-size="14.00" fill="#000000">NumStr</text>
</a>
</g>
</g>
<!-- NumStr&#45;&gt;Num -->
<g id="edge8" class="edge">
<title>NumStr&#45;&gt;Num</title>
<path fill="none" stroke="#000000" d="M933.62,-29.67C923.57,-33.09 915,-36 915,-36 915,-36 681.17,-69.77 586.8,-83.4"/>
<polygon fill="#000000" stroke="#000000" points="586.19,-79.95 576.8,-84.84 587.2,-86.88 586.19,-79.95"/>
</g>
<!-- NumStr&#45;&gt;Str -->
<g id="edge9" class="edge">
<title>NumStr&#45;&gt;Str</title>
<path fill="none" stroke="#000000" d="M945.25,-34.19C931.71,-44.61 913.62,-58.52 899.06,-69.72"/>
<polygon fill="#000000" stroke="#000000" points="896.75,-67.09 890.95,-75.96 901.01,-72.63 896.75,-67.09"/>
</g>
<!-- Endian -->
<g id="node14" class="node">
<title>Endian</title>
<g id="a_node14"><a xlink:href="/type/Endian" xlink:title="Endian">
<ellipse fill="none" stroke="#33bb33" cx="473" cy="-18" rx="38.19" ry="18"/>
<text text-anchor="middle" x="473" y="-14.3" font-family="FreeSans" font-size="14.00" fill="#33bb33">Endian</text>
</a>
</g>
</g>
<!-- Endian&#45;&gt;Int -->
<g id="edge10" class="edge">
<title>Endian&#45;&gt;Int</title>
<path fill="none" stroke="#000000" d="M473,-36.3C473,-44.02 473,-53.29 473,-61.89"/>
<polygon fill="#000000" stroke="#000000" points="469.5,-61.9 473,-71.9 476.5,-61.9 469.5,-61.9"/>
</g>
<!-- int -->
<g id="node15" class="node">
<title>int</title>
<g id="a_node15"><a xlink:href="/type/int" xlink:title="int">
<ellipse fill="none" stroke="#000000" cx="556" cy="-18" rx="27" ry="18"/>
<text text-anchor="middle" x="556" y="-14.3" font-family="FreeSans" font-size="14.00" fill="#000000">int</text>
</a>
</g>
</g>
<!-- int&#45;&gt;Int -->
<g id="edge11" class="edge">
<title>int&#45;&gt;Int</title>
<path fill="none" stroke="#000000" d="M539.6,-32.83C527.36,-43.15 510.45,-57.42 496.73,-68.99"/>
<polygon fill="#000000" stroke="#000000" points="494.47,-66.31 489.08,-75.44 498.98,-71.67 494.47,-66.31"/>
</g>
<!-- Signal -->
<g id="node16" class="node">
<title>Signal</title>
<g id="a_node16"><a xlink:href="/type/Signal" xlink:title="Signal">
<ellipse fill="none" stroke="#33bb33" cx="636" cy="-18" rx="35.19" ry="18"/>
<text text-anchor="middle" x="636" y="-14.3" font-family="FreeSans" font-size="14.00" fill="#33bb33">Signal</text>
</a>
</g>
</g>
<!-- Signal&#45;&gt;Int -->
<g id="edge12" class="edge">
<title>Signal&#45;&gt;Int</title>
<path fill="none" stroke="#000000" d="M609.69,-29.98C572.49,-45.51 509,-72 509,-72 509,-72 506.82,-73.03 503.53,-74.58"/>
<polygon fill="#000000" stroke="#000000" points="501.91,-71.48 494.36,-78.91 504.89,-77.81 501.91,-71.48"/>
</g>
<!-- IntStr -->
<g id="node17" class="node">
<title>IntStr</title>
<g id="a_node17"><a xlink:href="/type/IntStr" xlink:title="IntStr">
<ellipse fill="none" stroke="#000000" cx="874" cy="-18" rx="31.7" ry="18"/>
<text text-anchor="middle" x="874" y="-14.3" font-family="FreeSans" font-size="14.00" fill="#000000">IntStr</text>
</a>
</g>
</g>
<!-- IntStr&#45;&gt;Int -->
<g id="edge13" class="edge">
<title>IntStr&#45;&gt;Int</title>
<path fill="none" stroke="#000000" d="M849.35,-29.48C841.12,-32.97 834,-36 834,-36 834,-36 509,-72 509,-72 509,-72 506.82,-73.03 503.53,-74.58"/>
<polygon fill="#000000" stroke="#000000" points="501.91,-71.48 494.36,-78.91 504.89,-77.81 501.91,-71.48"/>
</g>
<!-- IntStr&#45;&gt;Str -->
<g id="edge14" class="edge">
<title>IntStr&#45;&gt;Str</title>
<path fill="none" stroke="#000000" d="M874,-36.3C874,-44.02 874,-53.29 874,-61.89"/>
<polygon fill="#000000" stroke="#000000" points="870.5,-61.9 874,-71.9 877.5,-61.9 870.5,-61.9"/>
</g>
<!-- PromiseStatus -->
<g id="node18" class="node">
<title>PromiseStatus</title>
<g id="a_node18"><a xlink:href="/type/PromiseStatus" xlink:title="PromiseStatus">
<ellipse fill="none" stroke="#33bb33" cx="757" cy="-18" rx="67.69" ry="18"/>
<text text-anchor="middle" x="757" y="-14.3" font-family="FreeSans" font-size="14.00" fill="#33bb33">PromiseStatus</text>
</a>
</g>
</g>
<!-- PromiseStatus&#45;&gt;Int -->
<g id="edge15" class="edge">
<title>PromiseStatus&#45;&gt;Int</title>
<path fill="none" stroke="#000000" d="M706.5,-30.15C691.99,-33.35 680,-36 680,-36 680,-36 509,-72 509,-72 509,-72 506.82,-73.03 503.53,-74.58"/>
<polygon fill="#000000" stroke="#000000" points="501.91,-71.48 494.36,-78.91 504.89,-77.81 501.91,-71.48"/>
</g>
<!-- Bool -->
<g id="node19" class="node">
<title>Bool</title>
<g id="a_node19"><a xlink:href="/type/Bool" xlink:title="Bool">
<ellipse fill="none" stroke="#33bb33" cx="193" cy="-18" rx="28.7" ry="18"/>
<text text-anchor="middle" x="193" y="-14.3" font-family="FreeSans" font-size="14.00" fill="#33bb33">Bool</text>
</a>
</g>
</g>
<!-- Bool&#45;&gt;Int -->
<g id="edge16" class="edge">
<title>Bool&#45;&gt;Int</title>
<path fill="none" stroke="#000000" d="M215.38,-29.28C223.17,-32.86 230,-36 230,-36 230,-36 432,-72 432,-72 432,-72 435.88,-73.61 441.25,-75.84"/>
<polygon fill="#000000" stroke="#000000" points="440,-79.11 450.58,-79.7 442.68,-72.64 440,-79.11"/>
</g>
<!-- Order -->
<g id="node20" class="node">
<title>Order</title>
<g id="a_node20"><a xlink:href="/type/Order" xlink:title="Order">
<ellipse fill="none" stroke="#33bb33" cx="273" cy="-18" rx="33.6" ry="18"/>
<text text-anchor="middle" x="273" y="-14.3" font-family="FreeSans" font-size="14.00" fill="#33bb33">Order</text>
</a>
</g>
</g>
<!-- Order&#45;&gt;Int -->
<g id="edge17" class="edge">
<title>Order&#45;&gt;Int</title>
<path fill="none" stroke="#000000" d="M299.5,-29.48C308.35,-32.97 316,-36 316,-36 316,-36 432,-72 432,-72 432,-72 435.88,-73.61 441.25,-75.84"/>
<polygon fill="#000000" stroke="#000000" points="440,-79.11 450.58,-79.7 442.68,-72.64 440,-79.11"/>
</g>
<!-- atomicint -->
<g id="node21" class="node">
<title>atomicint</title>
<g id="a_node21"><a xlink:href="/type/atomicint" xlink:title="atomicint">
<ellipse fill="none" stroke="#000000" cx="371" cy="-18" rx="46.29" ry="18"/>
<text text-anchor="middle" x="371" y="-14.3" font-family="FreeSans" font-size="14.00" fill="#000000">atomicint</text>
</a>
</g>
</g>
<!-- atomicint&#45;&gt;Int -->
<g id="edge18" class="edge">
<title>atomicint&#45;&gt;Int</title>
<path fill="none" stroke="#000000" d="M392.88,-34.02C408.63,-44.83 429.96,-59.46 446.65,-70.92"/>
<polygon fill="#000000" stroke="#000000" points="444.67,-73.8 454.9,-76.58 448.63,-68.03 444.67,-73.8"/>
</g>
<!-- Rat -->
<g id="node22" class="node">
<title>Rat</title>
<g id="a_node22"><a xlink:href="/type/Rat" xlink:title="Rat">
<ellipse fill="none" stroke="#000000" cx="27" cy="-18" rx="27" ry="18"/>
<text text-anchor="middle" x="27" y="-14.3" font-family="FreeSans" font-size="14.00" fill="#000000">Rat</text>
</a>
</g>
</g>
<!-- Rat&#45;&gt;Cool -->
<g id="edge19" class="edge">
<title>Rat&#45;&gt;Cool</title>
<path fill="none" stroke="#000000" d="M48.36,-29.09C56.11,-32.75 63,-36 63,-36 63,-36 361,-72 361,-72 361,-72 385.34,-110 402.21,-136.34"/>
<polygon fill="#000000" stroke="#000000" points="399.47,-138.56 407.81,-145.09 405.36,-134.78 399.47,-138.56"/>
</g>
<!-- Rat&#45;&gt;Rational -->
<g id="edge28" class="edge">
<title>Rat&#45;&gt;Rational</title>
<path fill="none" stroke="#6666ff" d="M43.2,-32.83C54.56,-42.53 70,-55.71 83.06,-66.86"/>
<polygon fill="#6666ff" stroke="#6666ff" points="80.96,-69.66 90.83,-73.49 85.5,-64.34 80.96,-69.66"/>
</g>
<!-- FatRat -->
<g id="node23" class="node">
<title>FatRat</title>
<g id="a_node23"><a xlink:href="/type/FatRat" xlink:title="FatRat">
<ellipse fill="none" stroke="#000000" cx="109" cy="-18" rx="37.09" ry="18"/>
<text text-anchor="middle" x="109" y="-14.3" font-family="FreeSans" font-size="14.00" fill="#000000">FatRat</text>
</a>
</g>
</g>
<!-- FatRat&#45;&gt;Cool -->
<g id="edge20" class="edge">
<title>FatRat&#45;&gt;Cool</title>
<path fill="none" stroke="#000000" d="M137.61,-29.57C146.96,-33.03 155,-36 155,-36 155,-36 394,-72 394,-72 394,-72 403.66,-107.83 410.73,-134.03"/>
<polygon fill="#000000" stroke="#000000" points="407.39,-135.1 413.37,-143.84 414.15,-133.27 407.39,-135.1"/>
</g>
<!-- FatRat&#45;&gt;Rational -->
<g id="edge29" class="edge">
<title>FatRat&#45;&gt;Rational</title>
<path fill="none" stroke="#6666ff" d="M109,-36.3C109,-44.02 109,-53.29 109,-61.89"/>
<polygon fill="#6666ff" stroke="#6666ff" points="105.5,-61.9 109,-71.9 112.5,-61.9 105.5,-61.9"/>
</g>
</g>
</svg>
