<?xml version="1.0" encoding="UTF-8" standalone="no"?>
<!DOCTYPE svg PUBLIC "-//W3C//DTD SVG 1.1//EN"
 "http://www.w3.org/Graphics/SVG/1.1/DTD/svg11.dtd">
<!-- Generated by graphviz version 2.43.0 (0)
 -->
<!-- Title: perl6&#45;type&#45;graph Pages: 1 -->
<svg width="221pt" height="404pt"
 viewBox="0.00 0.00 220.74 404.00" xmlns="http://www.w3.org/2000/svg" xmlns:xlink="http://www.w3.org/1999/xlink">
<g id="graph0" class="graph" transform="scale(1 1) rotate(0) translate(4 400)">
<title>perl6&#45;type&#45;graph</title>
<polygon fill="#ffffff" stroke="transparent" points="-4,4 -4,-400 216.74,-400 216.74,4 -4,4"/>
<!-- X::Syntax::Malformed -->
<g id="node1" class="node">
<title>X::Syntax::Malformed</title>
<g id="a_node1"><a xlink:href="/type/X::Syntax::Malformed" xlink:title="X::Syntax::Malformed">
<ellipse fill="none" stroke="#000000" cx="94.89" cy="-18" rx="94.78" ry="18"/>
<text text-anchor="middle" x="94.89" y="-14.3" font-family="FreeSans" font-size="14.00" fill="#000000">X::Syntax::Malformed</text>
</a>
</g>
</g>
<!-- Exception -->
<g id="node4" class="node">
<title>Exception</title>
<g id="a_node4"><a xlink:href="/type/Exception" xlink:title="Exception">
<ellipse fill="none" stroke="#000000" cx="94.89" cy="-234" rx="49.29" ry="18"/>
<text text-anchor="middle" x="94.89" y="-230.3" font-family="FreeSans" font-size="14.00" fill="#000000">Exception</text>
</a>
</g>
</g>
<!-- X::Syntax::Malformed&#45;&gt;Exception -->
<g id="edge1" class="edge">
<title>X::Syntax::Malformed&#45;&gt;Exception</title>
<path fill="none" stroke="#000000" d="M88.78,-36.06C83.22,-51.55 75.89,-72 75.89,-72 75.89,-72 75.89,-108 75.89,-108 75.89,-108 85.16,-169.01 90.75,-205.78"/>
<polygon fill="#000000" stroke="#000000" points="87.33,-206.52 92.29,-215.88 94.25,-205.47 87.33,-206.52"/>
</g>
<!-- X::Syntax -->
<g id="node6" class="node">
<title>X::Syntax</title>
<g id="a_node6"><a xlink:href="/type/X::Syntax" xlink:title="X::Syntax">
<ellipse fill="none" stroke="#6666ff" cx="132.89" cy="-90" rx="48.19" ry="18"/>
<text text-anchor="middle" x="132.89" y="-86.3" font-family="FreeSans" font-size="14.00" fill="#6666ff">X::Syntax</text>
</a>
</g>
</g>
<!-- X::Syntax::Malformed&#45;&gt;X::Syntax -->
<g id="edge6" class="edge">
<title>X::Syntax::Malformed&#45;&gt;X::Syntax</title>
<path fill="none" stroke="#6666ff" d="M104.09,-35.95C108.52,-44.11 113.94,-54.09 118.87,-63.18"/>
<polygon fill="#6666ff" stroke="#6666ff" points="115.93,-65.09 123.78,-72.21 122.08,-61.75 115.93,-65.09"/>
</g>
<!-- Mu -->
<g id="node2" class="node">
<title>Mu</title>
<g id="a_node2"><a xlink:href="/type/Mu" xlink:title="Mu">
<ellipse fill="none" stroke="#000000" cx="94.89" cy="-378" rx="27" ry="18"/>
<text text-anchor="middle" x="94.89" y="-374.3" font-family="FreeSans" font-size="14.00" fill="#000000">Mu</text>
</a>
</g>
</g>
<!-- Any -->
<g id="node3" class="node">
<title>Any</title>
<g id="a_node3"><a xlink:href="/type/Any" xlink:title="Any">
<ellipse fill="none" stroke="#000000" cx="94.89" cy="-306" rx="27" ry="18"/>
<text text-anchor="middle" x="94.89" y="-302.3" font-family="FreeSans" font-size="14.00" fill="#000000">Any</text>
</a>
</g>
</g>
<!-- Any&#45;&gt;Mu -->
<g id="edge2" class="edge">
<title>Any&#45;&gt;Mu</title>
<path fill="none" stroke="#000000" d="M94.89,-324.3C94.89,-332.02 94.89,-341.29 94.89,-349.89"/>
<polygon fill="#000000" stroke="#000000" points="91.39,-349.9 94.89,-359.9 98.39,-349.9 91.39,-349.9"/>
</g>
<!-- Exception&#45;&gt;Any -->
<g id="edge3" class="edge">
<title>Exception&#45;&gt;Any</title>
<path fill="none" stroke="#000000" d="M94.89,-252.3C94.89,-260.02 94.89,-269.29 94.89,-277.89"/>
<polygon fill="#000000" stroke="#000000" points="91.39,-277.9 94.89,-287.9 98.39,-277.9 91.39,-277.9"/>
</g>
<!-- X::Comp -->
<g id="node5" class="node">
<title>X::Comp</title>
<g id="a_node5"><a xlink:href="/type/X::Comp" xlink:title="X::Comp">
<ellipse fill="none" stroke="#6666ff" cx="167.89" cy="-162" rx="44.69" ry="18"/>
<text text-anchor="middle" x="167.89" y="-158.3" font-family="FreeSans" font-size="14.00" fill="#6666ff">X::Comp</text>
</a>
</g>
</g>
<!-- X::Comp&#45;&gt;Exception -->
<g id="edge4" class="edge">
<title>X::Comp&#45;&gt;Exception</title>
<path fill="none" stroke="#000000" d="M151.33,-178.88C141.78,-188.04 129.61,-199.71 119.02,-209.87"/>
<polygon fill="#000000" stroke="#000000" points="116.44,-207.49 111.64,-216.94 121.28,-212.54 116.44,-207.49"/>
</g>
<!-- X::Syntax&#45;&gt;Exception -->
<g id="edge5" class="edge">
<title>X::Syntax&#45;&gt;Exception</title>
<path fill="none" stroke="#000000" d="M126.78,-108.06C121.22,-123.55 113.89,-144 113.89,-144 113.89,-144 106.24,-179.83 100.65,-206.03"/>
<polygon fill="#000000" stroke="#000000" points="97.22,-205.33 98.55,-215.84 104.07,-206.79 97.22,-205.33"/>
</g>
<!-- X::Syntax&#45;&gt;X::Comp -->
<g id="edge7" class="edge">
<title>X::Syntax&#45;&gt;X::Comp</title>
<path fill="none" stroke="#6666ff" d="M141.36,-107.95C145.45,-116.11 150.44,-126.09 154.98,-135.18"/>
<polygon fill="#6666ff" stroke="#6666ff" points="151.89,-136.83 159.5,-144.21 158.16,-133.7 151.89,-136.83"/>
</g>
</g>
</svg>
