<?xml version="1.0" encoding="UTF-8" standalone="no"?>
<!DOCTYPE svg PUBLIC "-//W3C//DTD SVG 1.1//EN"
 "http://www.w3.org/Graphics/SVG/1.1/DTD/svg11.dtd">
<!-- Generated by graphviz version 2.43.0 (0)
 -->
<!-- Title: perl6&#45;type&#45;graph Pages: 1 -->
<svg width="289pt" height="404pt"
 viewBox="0.00 0.00 289.19 404.00" xmlns="http://www.w3.org/2000/svg" xmlns:xlink="http://www.w3.org/1999/xlink">
<g id="graph0" class="graph" transform="scale(1 1) rotate(0) translate(4 400)">
<title>perl6&#45;type&#45;graph</title>
<polygon fill="white" stroke="transparent" points="-4,4 -4,-400 285.19,-400 285.19,4 -4,4"/>
<!-- X::Syntax::Augment::Illegal -->
<g id="node1" class="node">
<title>X::Syntax::Augment::Illegal</title>
<g id="a_node1"><a xlink:href="/type/X::Syntax::Augment::Illegal" xlink:title="X::Syntax::Augment::Illegal">
<ellipse fill="none" stroke="#000000" cx="116.34" cy="-18" rx="116.18" ry="18"/>
<text text-anchor="middle" x="116.34" y="-14.3" font-family="FreeSans" font-size="14.00" fill="#000000">X::Syntax::Augment::Illegal</text>
</a>
</g>
</g>
<!-- Exception -->
<g id="node4" class="node">
<title>Exception</title>
<g id="a_node4"><a xlink:href="/type/Exception" xlink:title="Exception">
<ellipse fill="none" stroke="#000000" cx="139.34" cy="-234" rx="49.29" ry="18"/>
<text text-anchor="middle" x="139.34" y="-230.3" font-family="FreeSans" font-size="14.00" fill="#000000">Exception</text>
</a>
</g>
</g>
<!-- X::Syntax::Augment::Illegal&#45;&gt;Exception -->
<g id="edge1" class="edge">
<title>X::Syntax::Augment::Illegal&#45;&gt;Exception</title>
<path fill="none" stroke="#000000" d="M114.31,-36.15C114.75,-73.34 123.98,-161.63 131.81,-206.23"/>
<polygon fill="#000000" stroke="#000000" points="128.37,-206.88 133.66,-216.06 135.25,-205.59 128.37,-206.88"/>
</g>
<!-- X::Syntax::Augment::Illegal&#45;&gt;Exception -->
<g id="edge2" class="edge">
<title>X::Syntax::Augment::Illegal&#45;&gt;Exception</title>
<path fill="none" stroke="#000000" d="M122.06,-36.15C129.57,-73.17 139.27,-160.82 141.09,-205.61"/>
<polygon fill="#000000" stroke="#000000" points="137.59,-205.87 141.37,-215.77 144.59,-205.67 137.59,-205.87"/>
</g>
<!-- X::Syntax -->
<g id="node6" class="node">
<title>X::Syntax</title>
<g id="a_node6"><a xlink:href="/type/X::Syntax" xlink:title="X::Syntax">
<ellipse fill="none" stroke="#6666ff" cx="201.34" cy="-90" rx="48.19" ry="18"/>
<text text-anchor="middle" x="201.34" y="-86.3" font-family="FreeSans" font-size="14.00" fill="#6666ff">X::Syntax</text>
</a>
</g>
</g>
<!-- X::Syntax::Augment::Illegal&#45;&gt;X::Syntax -->
<g id="edge7" class="edge">
<title>X::Syntax::Augment::Illegal&#45;&gt;X::Syntax</title>
<path fill="none" stroke="#6666ff" d="M136.92,-35.95C148.17,-45.22 162.26,-56.81 174.38,-66.8"/>
<polygon fill="#6666ff" stroke="#6666ff" points="172.46,-69.75 182.41,-73.41 176.91,-64.35 172.46,-69.75"/>
</g>
<!-- Mu -->
<g id="node2" class="node">
<title>Mu</title>
<g id="a_node2"><a xlink:href="/type/Mu" xlink:title="Mu">
<ellipse fill="none" stroke="#000000" cx="139.34" cy="-378" rx="27" ry="18"/>
<text text-anchor="middle" x="139.34" y="-374.3" font-family="FreeSans" font-size="14.00" fill="#000000">Mu</text>
</a>
</g>
</g>
<!-- Any -->
<g id="node3" class="node">
<title>Any</title>
<g id="a_node3"><a xlink:href="/type/Any" xlink:title="Any">
<ellipse fill="none" stroke="#000000" cx="139.34" cy="-306" rx="27" ry="18"/>
<text text-anchor="middle" x="139.34" y="-302.3" font-family="FreeSans" font-size="14.00" fill="#000000">Any</text>
</a>
</g>
</g>
<!-- Any&#45;&gt;Mu -->
<g id="edge3" class="edge">
<title>Any&#45;&gt;Mu</title>
<path fill="none" stroke="#000000" d="M139.34,-324.3C139.34,-332.02 139.34,-341.29 139.34,-349.89"/>
<polygon fill="#000000" stroke="#000000" points="135.84,-349.9 139.34,-359.9 142.84,-349.9 135.84,-349.9"/>
</g>
<!-- Exception&#45;&gt;Any -->
<g id="edge4" class="edge">
<title>Exception&#45;&gt;Any</title>
<path fill="none" stroke="#000000" d="M139.34,-252.3C139.34,-260.02 139.34,-269.29 139.34,-277.89"/>
<polygon fill="#000000" stroke="#000000" points="135.84,-277.9 139.34,-287.9 142.84,-277.9 135.84,-277.9"/>
</g>
<!-- X::Comp -->
<g id="node5" class="node">
<title>X::Comp</title>
<g id="a_node5"><a xlink:href="/type/X::Comp" xlink:title="X::Comp">
<ellipse fill="none" stroke="#6666ff" cx="236.34" cy="-162" rx="44.69" ry="18"/>
<text text-anchor="middle" x="236.34" y="-158.3" font-family="FreeSans" font-size="14.00" fill="#6666ff">X::Comp</text>
</a>
</g>
</g>
<!-- X::Comp&#45;&gt;Exception -->
<g id="edge5" class="edge">
<title>X::Comp&#45;&gt;Exception</title>
<path fill="none" stroke="#000000" d="M215.29,-178.19C201.78,-187.94 184.04,-200.74 169.1,-211.52"/>
<polygon fill="#000000" stroke="#000000" points="166.74,-208.91 160.68,-217.6 170.84,-214.59 166.74,-208.91"/>
</g>
<!-- X::Syntax&#45;&gt;Exception -->
<g id="edge6" class="edge">
<title>X::Syntax&#45;&gt;Exception</title>
<path fill="none" stroke="#000000" d="M193.98,-107.85C183.31,-132.29 163.43,-177.83 150.82,-206.71"/>
<polygon fill="#000000" stroke="#000000" points="147.48,-205.61 146.69,-216.18 153.89,-208.41 147.48,-205.61"/>
</g>
<!-- X::Syntax&#45;&gt;X::Comp -->
<g id="edge8" class="edge">
<title>X::Syntax&#45;&gt;X::Comp</title>
<path fill="none" stroke="#6666ff" d="M209.81,-107.95C213.9,-116.11 218.88,-126.09 223.43,-135.18"/>
<polygon fill="#6666ff" stroke="#6666ff" points="220.34,-136.83 227.95,-144.21 226.6,-133.7 220.34,-136.83"/>
</g>
</g>
</svg>
