<?xml version="1.0" encoding="UTF-8" standalone="no"?>
<!DOCTYPE svg PUBLIC "-//W3C//DTD SVG 1.1//EN"
 "http://www.w3.org/Graphics/SVG/1.1/DTD/svg11.dtd">
<!-- Generated by graphviz version 2.43.0 (0)
 -->
<!-- Title: perl6&#45;type&#45;graph Pages: 1 -->
<svg width="741pt" height="755pt"
 viewBox="0.00 0.00 741.34 754.73" xmlns="http://www.w3.org/2000/svg" xmlns:xlink="http://www.w3.org/1999/xlink">
<g id="graph0" class="graph" transform="scale(1 1) rotate(0) translate(4 750.73)">
<title>perl6&#45;type&#45;graph</title>
<polygon fill="white" stroke="transparent" points="-4,4 -4,-750.73 737.34,-750.73 737.34,4 -4,4"/>
<!-- Metamodel::BaseDispatcher -->
<g id="node1" class="node">
<title>Metamodel::BaseDispatcher</title>
<g id="a_node1"><a xlink:href="/type/Metamodel::BaseDispatcher" xlink:title="Metamodel::BaseDispatcher">
<ellipse fill="none" stroke="#000000" cx="373.94" cy="-485.95" rx="121.58" ry="18"/>
<text text-anchor="middle" x="373.94" y="-482.25" font-family="FreeSans" font-size="14.00" fill="#000000">Metamodel::BaseDispatcher</text>
</a>
</g>
</g>
<!-- Any -->
<g id="node3" class="node">
<title>Any</title>
<g id="a_node3"><a xlink:href="/type/Any" xlink:title="Any">
<ellipse fill="none" stroke="#000000" cx="415.39" cy="-242.62" rx="27" ry="18"/>
<text text-anchor="middle" x="415.39" y="-238.92" font-family="FreeSans" font-size="14.00" fill="#000000">Any</text>
</a>
</g>
</g>
<!-- Metamodel::BaseDispatcher&#45;&gt;Any -->
<g id="edge1" class="edge">
<title>Metamodel::BaseDispatcher&#45;&gt;Any</title>
<path fill="none" stroke="#000000" d="M377.06,-467.66C384.25,-425.46 402.03,-321.04 410.61,-270.67"/>
<polygon fill="#000000" stroke="#000000" points="414.07,-271.24 412.29,-260.79 407.17,-270.06 414.07,-271.24"/>
</g>
<!-- Mu -->
<g id="node2" class="node">
<title>Mu</title>
<g id="a_node2"><a xlink:href="/type/Mu" xlink:title="Mu">
<ellipse fill="none" stroke="#000000" cx="470.64" cy="-18" rx="27" ry="18"/>
<text text-anchor="middle" x="470.64" y="-14.3" font-family="FreeSans" font-size="14.00" fill="#000000">Mu</text>
</a>
</g>
</g>
<!-- Any&#45;&gt;Mu -->
<g id="edge2" class="edge">
<title>Any&#45;&gt;Mu</title>
<path fill="none" stroke="#000000" d="M419.82,-224.62C429.46,-185.42 452.41,-92.13 463.87,-45.51"/>
<polygon fill="#000000" stroke="#000000" points="467.28,-46.32 466.27,-35.78 460.48,-44.65 467.28,-46.32"/>
</g>
<!-- Metamodel::WrapDispatcher -->
<g id="node4" class="node">
<title>Metamodel::WrapDispatcher</title>
<g id="a_node4"><a xlink:href="/type/Metamodel::WrapDispatcher" xlink:title="Metamodel::WrapDispatcher">
<ellipse fill="none" stroke="#000000" cx="122.19" cy="-477.34" rx="122.38" ry="18"/>
<text text-anchor="middle" x="122.19" y="-473.64" font-family="FreeSans" font-size="14.00" fill="#000000">Metamodel::WrapDispatcher</text>
</a>
</g>
</g>
<!-- Metamodel::WrapDispatcher&#45;&gt;Metamodel::BaseDispatcher -->
<g id="edge3" class="edge">
<title>Metamodel::WrapDispatcher&#45;&gt;Metamodel::BaseDispatcher</title>
<path fill="none" stroke="#000000" d="M241.43,-481.42C242.57,-481.46 243.72,-481.5 244.86,-481.54"/>
<polygon fill="#000000" stroke="#000000" points="245.05,-485.05 255.17,-481.89 245.29,-478.05 245.05,-485.05"/>
</g>
<!-- Metamodel::MultiDispatcher -->
<g id="node5" class="node">
<title>Metamodel::MultiDispatcher</title>
<g id="a_node5"><a xlink:href="/type/Metamodel::MultiDispatcher" xlink:title="Metamodel::MultiDispatcher">
<ellipse fill="none" stroke="#000000" cx="613.1" cy="-564.62" rx="120.48" ry="18"/>
<text text-anchor="middle" x="613.1" y="-560.92" font-family="FreeSans" font-size="14.00" fill="#000000">Metamodel::MultiDispatcher</text>
</a>
</g>
</g>
<!-- Metamodel::MultiDispatcher&#45;&gt;Metamodel::BaseDispatcher -->
<g id="edge4" class="edge">
<title>Metamodel::MultiDispatcher&#45;&gt;Metamodel::BaseDispatcher</title>
<path fill="none" stroke="#000000" d="M563.26,-548.22C525.57,-535.83 473.68,-518.76 433.75,-505.62"/>
<polygon fill="#000000" stroke="#000000" points="434.73,-502.26 424.13,-502.46 432.54,-508.91 434.73,-502.26"/>
</g>
<!-- Metamodel::MethodDispatcher -->
<g id="node6" class="node">
<title>Metamodel::MethodDispatcher</title>
<g id="a_node6"><a xlink:href="/type/Metamodel::MethodDispatcher" xlink:title="Metamodel::MethodDispatcher">
<ellipse fill="none" stroke="#000000" cx="331.68" cy="-728.73" rx="131.08" ry="18"/>
<text text-anchor="middle" x="331.68" y="-725.03" font-family="FreeSans" font-size="14.00" fill="#000000">Metamodel::MethodDispatcher</text>
</a>
</g>
</g>
<!-- Metamodel::MethodDispatcher&#45;&gt;Metamodel::BaseDispatcher -->
<g id="edge5" class="edge">
<title>Metamodel::MethodDispatcher&#45;&gt;Metamodel::BaseDispatcher</title>
<path fill="none" stroke="#000000" d="M334.85,-710.49C342.18,-668.38 360.32,-564.19 369.07,-513.94"/>
<polygon fill="#000000" stroke="#000000" points="372.52,-514.53 370.79,-504.08 365.62,-513.33 372.52,-514.53"/>
</g>
</g>
</svg>
