<?xml version="1.0" encoding="UTF-8" standalone="no"?>
<!DOCTYPE svg PUBLIC "-//W3C//DTD SVG 1.1//EN"
 "http://www.w3.org/Graphics/SVG/1.1/DTD/svg11.dtd">
<!-- Generated by graphviz version 2.43.0 (0)
 -->
<!-- Title: perl6&#45;type&#45;graph Pages: 1 -->
<svg width="1818pt" height="404pt"
 viewBox="0.00 0.00 1818.29 404.00" xmlns="http://www.w3.org/2000/svg" xmlns:xlink="http://www.w3.org/1999/xlink">
<g id="graph0" class="graph" transform="scale(1 1) rotate(0) translate(4 400)">
<title>perl6&#45;type&#45;graph</title>
<polygon fill="white" stroke="transparent" points="-4,4 -4,-400 1814.29,-400 1814.29,4 -4,4"/>
<!-- X::IO -->
<g id="node1" class="node">
<title>X::IO</title>
<g id="a_node1"><a xlink:href="/type/X::IO" xlink:title="X::IO">
<ellipse fill="none" stroke="#6666ff" cx="825.95" cy="-90" rx="31.4" ry="18"/>
<text text-anchor="middle" x="825.95" y="-86.3" font-family="FreeSans" font-size="14.00" fill="#6666ff">X::IO</text>
</a>
</g>
</g>
<!-- Exception -->
<g id="node4" class="node">
<title>Exception</title>
<g id="a_node4"><a xlink:href="/type/Exception" xlink:title="Exception">
<ellipse fill="none" stroke="#000000" cx="869.95" cy="-234" rx="49.29" ry="18"/>
<text text-anchor="middle" x="869.95" y="-230.3" font-family="FreeSans" font-size="14.00" fill="#000000">Exception</text>
</a>
</g>
</g>
<!-- X::IO&#45;&gt;Exception -->
<g id="edge1" class="edge">
<title>X::IO&#45;&gt;Exception</title>
<path fill="none" stroke="#000000" d="M831.17,-107.85C838.67,-132.06 852.58,-176.95 861.54,-205.87"/>
<polygon fill="#000000" stroke="#000000" points="858.29,-207.22 864.59,-215.73 864.98,-205.14 858.29,-207.22"/>
</g>
<!-- X::OS -->
<g id="node5" class="node">
<title>X::OS</title>
<g id="a_node5"><a xlink:href="/type/X::OS" xlink:title="X::OS">
<ellipse fill="none" stroke="#6666ff" cx="784.95" cy="-162" rx="34.39" ry="18"/>
<text text-anchor="middle" x="784.95" y="-158.3" font-family="FreeSans" font-size="14.00" fill="#6666ff">X::OS</text>
</a>
</g>
</g>
<!-- X::IO&#45;&gt;X::OS -->
<g id="edge31" class="edge">
<title>X::IO&#45;&gt;X::OS</title>
<path fill="none" stroke="#6666ff" d="M816.44,-107.24C811.49,-115.68 805.33,-126.2 799.77,-135.69"/>
<polygon fill="#6666ff" stroke="#6666ff" points="796.72,-133.97 794.69,-144.37 802.76,-137.51 796.72,-133.97"/>
</g>
<!-- Mu -->
<g id="node2" class="node">
<title>Mu</title>
<g id="a_node2"><a xlink:href="/type/Mu" xlink:title="Mu">
<ellipse fill="none" stroke="#000000" cx="869.95" cy="-378" rx="27" ry="18"/>
<text text-anchor="middle" x="869.95" y="-374.3" font-family="FreeSans" font-size="14.00" fill="#000000">Mu</text>
</a>
</g>
</g>
<!-- Any -->
<g id="node3" class="node">
<title>Any</title>
<g id="a_node3"><a xlink:href="/type/Any" xlink:title="Any">
<ellipse fill="none" stroke="#000000" cx="869.95" cy="-306" rx="27" ry="18"/>
<text text-anchor="middle" x="869.95" y="-302.3" font-family="FreeSans" font-size="14.00" fill="#000000">Any</text>
</a>
</g>
</g>
<!-- Any&#45;&gt;Mu -->
<g id="edge2" class="edge">
<title>Any&#45;&gt;Mu</title>
<path fill="none" stroke="#000000" d="M869.95,-324.3C869.95,-332.02 869.95,-341.29 869.95,-349.89"/>
<polygon fill="#000000" stroke="#000000" points="866.45,-349.9 869.95,-359.9 873.45,-349.9 866.45,-349.9"/>
</g>
<!-- Exception&#45;&gt;Any -->
<g id="edge3" class="edge">
<title>Exception&#45;&gt;Any</title>
<path fill="none" stroke="#000000" d="M869.95,-252.3C869.95,-260.02 869.95,-269.29 869.95,-277.89"/>
<polygon fill="#000000" stroke="#000000" points="866.45,-277.9 869.95,-287.9 873.45,-277.9 866.45,-277.9"/>
</g>
<!-- X::OS&#45;&gt;Exception -->
<g id="edge4" class="edge">
<title>X::OS&#45;&gt;Exception</title>
<path fill="none" stroke="#000000" d="M802.56,-177.5C814.24,-187.12 829.78,-199.93 843,-210.81"/>
<polygon fill="#000000" stroke="#000000" points="840.93,-213.64 850.88,-217.3 845.38,-208.24 840.93,-213.64"/>
</g>
<!-- X::IO::Cwd -->
<g id="node6" class="node">
<title>X::IO::Cwd</title>
<g id="a_node6"><a xlink:href="/type/X::IO::Cwd" xlink:title="X::IO::Cwd">
<ellipse fill="none" stroke="#000000" cx="53.95" cy="-18" rx="53.89" ry="18"/>
<text text-anchor="middle" x="53.95" y="-14.3" font-family="FreeSans" font-size="14.00" fill="#000000">X::IO::Cwd</text>
</a>
</g>
</g>
<!-- X::IO::Cwd&#45;&gt;X::IO -->
<g id="edge32" class="edge">
<title>X::IO::Cwd&#45;&gt;X::IO</title>
<path fill="none" stroke="#6666ff" d="M94.56,-29.96C106.75,-33.25 116.95,-36 116.95,-36 116.95,-36 633.47,-74.61 784.77,-85.92"/>
<polygon fill="#6666ff" stroke="#6666ff" points="784.79,-89.43 795.02,-86.69 785.31,-82.45 784.79,-89.43"/>
</g>
<!-- X::IO::Cwd&#45;&gt;Exception -->
<g id="edge5" class="edge">
<title>X::IO::Cwd&#45;&gt;Exception</title>
<path fill="none" stroke="#000000" d="M86.31,-32.59C185.23,-71.4 475.95,-180 475.95,-180 475.95,-180 704.82,-211.51 813.76,-225.94"/>
<polygon fill="#000000" stroke="#000000" points="813.54,-229.44 823.92,-227.28 814.46,-222.5 813.54,-229.44"/>
</g>
<!-- X::IO::Cwd&#45;&gt;Exception -->
<g id="edge6" class="edge">
<title>X::IO::Cwd&#45;&gt;Exception</title>
<path fill="none" stroke="#000000" d="M90.53,-31.23C196.27,-68.81 493.95,-180 493.95,-180 493.95,-180 710.74,-209.84 815.16,-224.74"/>
<polygon fill="#000000" stroke="#000000" points="814.81,-228.23 825.21,-226.18 815.8,-221.3 814.81,-228.23"/>
</g>
<!-- X::IO::Move -->
<g id="node7" class="node">
<title>X::IO::Move</title>
<g id="a_node7"><a xlink:href="/type/X::IO::Move" xlink:title="X::IO::Move">
<ellipse fill="none" stroke="#000000" cx="183.95" cy="-18" rx="57.69" ry="18"/>
<text text-anchor="middle" x="183.95" y="-14.3" font-family="FreeSans" font-size="14.00" fill="#000000">X::IO::Move</text>
</a>
</g>
</g>
<!-- X::IO::Move&#45;&gt;X::IO -->
<g id="edge33" class="edge">
<title>X::IO::Move&#45;&gt;X::IO</title>
<path fill="none" stroke="#6666ff" d="M227.23,-30.15C239.67,-33.35 249.95,-36 249.95,-36 249.95,-36 654.12,-73.19 785.34,-85.26"/>
<polygon fill="#6666ff" stroke="#6666ff" points="785.1,-88.76 795.38,-86.19 785.75,-81.79 785.1,-88.76"/>
</g>
<!-- X::IO::Move&#45;&gt;Exception -->
<g id="edge7" class="edge">
<title>X::IO::Move&#45;&gt;Exception</title>
<path fill="none" stroke="#000000" d="M214.69,-33.43C305.29,-72.95 563.95,-180 563.95,-180 563.95,-180 727.51,-209.19 815.55,-224.24"/>
<polygon fill="#000000" stroke="#000000" points="815.19,-227.73 825.64,-225.96 816.37,-220.83 815.19,-227.73"/>
</g>
<!-- X::IO::Move&#45;&gt;Exception -->
<g id="edge8" class="edge">
<title>X::IO::Move&#45;&gt;Exception</title>
<path fill="none" stroke="#000000" d="M219.74,-32.18C317.68,-70.63 581.95,-180 581.95,-180 581.95,-180 734.7,-207.26 817.79,-222.68"/>
<polygon fill="#000000" stroke="#000000" points="817.33,-226.15 827.8,-224.54 818.61,-219.27 817.33,-226.15"/>
</g>
<!-- X::IO::Rename -->
<g id="node8" class="node">
<title>X::IO::Rename</title>
<g id="a_node8"><a xlink:href="/type/X::IO::Rename" xlink:title="X::IO::Rename">
<ellipse fill="none" stroke="#000000" cx="328.95" cy="-18" rx="69.59" ry="18"/>
<text text-anchor="middle" x="328.95" y="-14.3" font-family="FreeSans" font-size="14.00" fill="#000000">X::IO::Rename</text>
</a>
</g>
</g>
<!-- X::IO::Rename&#45;&gt;X::IO -->
<g id="edge34" class="edge">
<title>X::IO::Rename&#45;&gt;X::IO</title>
<path fill="none" stroke="#6666ff" d="M380.76,-30.15C395.65,-33.35 407.95,-36 407.95,-36 407.95,-36 680.33,-70.54 785.34,-83.85"/>
<polygon fill="#6666ff" stroke="#6666ff" points="785.19,-87.36 795.55,-85.15 786.07,-80.42 785.19,-87.36"/>
</g>
<!-- X::IO::Rename&#45;&gt;Exception -->
<g id="edge9" class="edge">
<title>X::IO::Rename&#45;&gt;Exception</title>
<path fill="none" stroke="#000000" d="M355.54,-34.73C430.33,-75.24 635.95,-180 635.95,-180 635.95,-180 749.13,-206.66 818.16,-222.16"/>
<polygon fill="#000000" stroke="#000000" points="817.48,-225.6 828,-224.37 819.01,-218.77 817.48,-225.6"/>
</g>
<!-- X::IO::Rename&#45;&gt;Exception -->
<g id="edge10" class="edge">
<title>X::IO::Rename&#45;&gt;Exception</title>
<path fill="none" stroke="#000000" d="M362.28,-33.86C445.34,-73.71 653.95,-180 653.95,-180 653.95,-180 757.82,-204.47 821.59,-220.16"/>
<polygon fill="#000000" stroke="#000000" points="820.91,-223.59 831.46,-222.59 822.59,-216.8 820.91,-223.59"/>
</g>
<!-- X::IO::Link -->
<g id="node9" class="node">
<title>X::IO::Link</title>
<g id="a_node9"><a xlink:href="/type/X::IO::Link" xlink:title="X::IO::Link">
<ellipse fill="none" stroke="#000000" cx="469.95" cy="-18" rx="53.09" ry="18"/>
<text text-anchor="middle" x="469.95" y="-14.3" font-family="FreeSans" font-size="14.00" fill="#000000">X::IO::Link</text>
</a>
</g>
</g>
<!-- X::IO::Link&#45;&gt;X::IO -->
<g id="edge35" class="edge">
<title>X::IO::Link&#45;&gt;X::IO</title>
<path fill="none" stroke="#6666ff" d="M510.2,-29.86C522.55,-33.19 532.95,-36 532.95,-36 532.95,-36 706.29,-67.36 786.32,-81.83"/>
<polygon fill="#6666ff" stroke="#6666ff" points="786.05,-85.34 796.51,-83.68 787.29,-78.45 786.05,-85.34"/>
</g>
<!-- X::IO::Link&#45;&gt;Exception -->
<g id="edge11" class="edge">
<title>X::IO::Link&#45;&gt;Exception</title>
<path fill="none" stroke="#000000" d="M488.33,-35.03C541.31,-75.75 688.95,-180 688.95,-180 688.95,-180 767.69,-204.27 821.41,-219.96"/>
<polygon fill="#000000" stroke="#000000" points="820.54,-223.35 831.12,-222.78 822.5,-216.63 820.54,-223.35"/>
</g>
<!-- X::IO::Link&#45;&gt;Exception -->
<g id="edge12" class="edge">
<title>X::IO::Link&#45;&gt;Exception</title>
<path fill="none" stroke="#000000" d="M495.6,-34.15C557.15,-74.23 706.95,-180 706.95,-180 706.95,-180 778.1,-201.93 826.48,-217.57"/>
<polygon fill="#000000" stroke="#000000" points="825.54,-220.94 836.13,-220.71 827.7,-214.29 825.54,-220.94"/>
</g>
<!-- X::IO::Dir -->
<g id="node10" class="node">
<title>X::IO::Dir</title>
<g id="a_node10"><a xlink:href="/type/X::IO::Dir" xlink:title="X::IO::Dir">
<ellipse fill="none" stroke="#000000" cx="588.95" cy="-18" rx="47.39" ry="18"/>
<text text-anchor="middle" x="588.95" y="-14.3" font-family="FreeSans" font-size="14.00" fill="#000000">X::IO::Dir</text>
</a>
</g>
</g>
<!-- X::IO::Dir&#45;&gt;X::IO -->
<g id="edge36" class="edge">
<title>X::IO::Dir&#45;&gt;X::IO</title>
<path fill="none" stroke="#6666ff" d="M624.73,-29.86C635.7,-33.19 644.95,-36 644.95,-36 644.95,-36 736.21,-62.72 789.13,-78.22"/>
<polygon fill="#6666ff" stroke="#6666ff" points="788.27,-81.61 798.85,-81.07 790.23,-74.9 788.27,-81.61"/>
</g>
<!-- X::IO::Dir&#45;&gt;Exception -->
<g id="edge13" class="edge">
<title>X::IO::Dir&#45;&gt;Exception</title>
<path fill="none" stroke="#000000" d="M599.33,-35.62C631.25,-76.76 722.95,-180 722.95,-180 722.95,-180 781.26,-202.4 824.55,-218.07"/>
<polygon fill="#000000" stroke="#000000" points="823.48,-221.41 834.08,-221.5 825.85,-214.82 823.48,-221.41"/>
</g>
<!-- X::IO::Dir&#45;&gt;Exception -->
<g id="edge14" class="edge">
<title>X::IO::Dir&#45;&gt;Exception</title>
<path fill="none" stroke="#000000" d="M607.19,-34.73C647.9,-75.24 740.95,-180 740.95,-180 740.95,-180 793.27,-200.1 831.38,-215.54"/>
<polygon fill="#000000" stroke="#000000" points="830.14,-218.81 840.72,-219.35 832.79,-212.33 830.14,-218.81"/>
</g>
<!-- X::IO::Rmdir -->
<g id="node11" class="node">
<title>X::IO::Rmdir</title>
<g id="a_node11"><a xlink:href="/type/X::IO::Rmdir" xlink:title="X::IO::Rmdir">
<ellipse fill="none" stroke="#000000" cx="713.95" cy="-18" rx="59.59" ry="18"/>
<text text-anchor="middle" x="713.95" y="-14.3" font-family="FreeSans" font-size="14.00" fill="#000000">X::IO::Rmdir</text>
</a>
</g>
</g>
<!-- X::IO::Rmdir&#45;&gt;X::IO -->
<g id="edge37" class="edge">
<title>X::IO::Rmdir&#45;&gt;X::IO</title>
<path fill="none" stroke="#6666ff" d="M738.8,-34.54C755.92,-45.24 778.74,-59.5 796.73,-70.74"/>
<polygon fill="#6666ff" stroke="#6666ff" points="795.31,-73.98 805.65,-76.31 799.02,-68.05 795.31,-73.98"/>
</g>
<!-- X::IO::Rmdir&#45;&gt;Exception -->
<g id="edge15" class="edge">
<title>X::IO::Rmdir&#45;&gt;Exception</title>
<path fill="none" stroke="#000000" d="M712.5,-36.23C715.16,-77.76 732.95,-180 732.95,-180 732.95,-180 785.69,-201.84 825.84,-217.48"/>
<polygon fill="#000000" stroke="#000000" points="824.63,-220.76 835.22,-221.11 827.16,-214.23 824.63,-220.76"/>
</g>
<!-- X::IO::Rmdir&#45;&gt;Exception -->
<g id="edge16" class="edge">
<title>X::IO::Rmdir&#45;&gt;Exception</title>
<path fill="none" stroke="#000000" d="M721.3,-35.93C733.08,-77.26 750.95,-180 750.95,-180 750.95,-180 797.83,-199.41 832.85,-214.74"/>
<polygon fill="#000000" stroke="#000000" points="831.81,-218.1 842.37,-218.94 834.63,-211.7 831.81,-218.1"/>
</g>
<!-- X::IO::DoesNotExist -->
<g id="node12" class="node">
<title>X::IO::DoesNotExist</title>
<g id="a_node12"><a xlink:href="/type/X::IO::DoesNotExist" xlink:title="X::IO::DoesNotExist">
<ellipse fill="none" stroke="#000000" cx="880.95" cy="-18" rx="89.88" ry="18"/>
<text text-anchor="middle" x="880.95" y="-14.3" font-family="FreeSans" font-size="14.00" fill="#000000">X::IO::DoesNotExist</text>
</a>
</g>
</g>
<!-- X::IO::DoesNotExist&#45;&gt;X::IO -->
<g id="edge38" class="edge">
<title>X::IO::DoesNotExist&#45;&gt;X::IO</title>
<path fill="none" stroke="#6666ff" d="M867.63,-35.95C860.75,-44.71 852.23,-55.55 844.69,-65.14"/>
<polygon fill="#6666ff" stroke="#6666ff" points="841.81,-63.14 838.38,-73.17 847.31,-67.47 841.81,-63.14"/>
</g>
<!-- X::IO::DoesNotExist&#45;&gt;Exception -->
<g id="edge17" class="edge">
<title>X::IO::DoesNotExist&#45;&gt;Exception</title>
<path fill="none" stroke="#000000" d="M876.19,-36.15C870.75,-73.17 865.97,-160.82 866.66,-205.61"/>
<polygon fill="#000000" stroke="#000000" points="863.17,-205.87 866.95,-215.77 870.16,-205.67 863.17,-205.87"/>
</g>
<!-- X::IO::DoesNotExist&#45;&gt;Exception -->
<g id="edge18" class="edge">
<title>X::IO::DoesNotExist&#45;&gt;Exception</title>
<path fill="none" stroke="#000000" d="M883.94,-36.15C885.58,-73.26 881.32,-161.25 876.01,-205.95"/>
<polygon fill="#000000" stroke="#000000" points="872.51,-205.69 874.67,-216.06 879.45,-206.61 872.51,-205.69"/>
</g>
<!-- X::IO::Unlink -->
<g id="node13" class="node">
<title>X::IO::Unlink</title>
<g id="a_node13"><a xlink:href="/type/X::IO::Unlink" xlink:title="X::IO::Unlink">
<ellipse fill="none" stroke="#000000" cx="1049.95" cy="-18" rx="61.19" ry="18"/>
<text text-anchor="middle" x="1049.95" y="-14.3" font-family="FreeSans" font-size="14.00" fill="#000000">X::IO::Unlink</text>
</a>
</g>
</g>
<!-- X::IO::Unlink&#45;&gt;X::IO -->
<g id="edge39" class="edge">
<title>X::IO::Unlink&#45;&gt;X::IO</title>
<path fill="none" stroke="#6666ff" d="M1009.64,-31.6C967.84,-44.66 903.05,-64.91 862.63,-77.53"/>
<polygon fill="#6666ff" stroke="#6666ff" points="861.41,-74.25 852.91,-80.57 863.5,-80.93 861.41,-74.25"/>
</g>
<!-- X::IO::Unlink&#45;&gt;Exception -->
<g id="edge19" class="edge">
<title>X::IO::Unlink&#45;&gt;Exception</title>
<path fill="none" stroke="#000000" d="M1032.31,-35.44C997.31,-72.69 920.49,-163.74 886.44,-208.01"/>
<polygon fill="#000000" stroke="#000000" points="883.47,-206.13 880.22,-216.21 889.05,-210.36 883.47,-206.13"/>
</g>
<!-- X::IO::Unlink&#45;&gt;Exception -->
<g id="edge20" class="edge">
<title>X::IO::Unlink&#45;&gt;Exception</title>
<path fill="none" stroke="#000000" d="M1039.66,-35.79C1011.5,-73.64 934.27,-165.68 894.3,-209.31"/>
<polygon fill="#000000" stroke="#000000" points="891.52,-207.16 887.29,-216.87 896.66,-211.92 891.52,-207.16"/>
</g>
<!-- X::IO::Mkdir -->
<g id="node14" class="node">
<title>X::IO::Mkdir</title>
<g id="a_node14"><a xlink:href="/type/X::IO::Mkdir" xlink:title="X::IO::Mkdir">
<ellipse fill="none" stroke="#000000" cx="1187.95" cy="-18" rx="58.49" ry="18"/>
<text text-anchor="middle" x="1187.95" y="-14.3" font-family="FreeSans" font-size="14.00" fill="#000000">X::IO::Mkdir</text>
</a>
</g>
</g>
<!-- X::IO::Mkdir&#45;&gt;X::IO -->
<g id="edge40" class="edge">
<title>X::IO::Mkdir&#45;&gt;X::IO</title>
<path fill="none" stroke="#6666ff" d="M1144.11,-29.96C1130.95,-33.25 1119.95,-36 1119.95,-36 1119.95,-36 945.58,-67.43 865.41,-81.88"/>
<polygon fill="#6666ff" stroke="#6666ff" points="864.43,-78.51 855.21,-83.72 865.67,-85.39 864.43,-78.51"/>
</g>
<!-- X::IO::Mkdir&#45;&gt;Exception -->
<g id="edge21" class="edge">
<title>X::IO::Mkdir&#45;&gt;Exception</title>
<path fill="none" stroke="#000000" d="M1161.72,-34.15C1098.68,-74.23 944.95,-180 944.95,-180 944.95,-180 918.4,-196.75 896.76,-211.41"/>
<polygon fill="#000000" stroke="#000000" points="894.74,-208.55 888.47,-217.1 898.7,-214.33 894.74,-208.55"/>
</g>
<!-- X::IO::Mkdir&#45;&gt;Exception -->
<g id="edge22" class="edge">
<title>X::IO::Mkdir&#45;&gt;Exception</title>
<path fill="none" stroke="#000000" d="M1168.56,-35.32C1113.73,-76.25 962.95,-180 962.95,-180 962.95,-180 933.3,-198.7 907.35,-213.89"/>
<polygon fill="#000000" stroke="#000000" points="905.28,-211.04 898.38,-219.07 908.79,-217.1 905.28,-211.04"/>
</g>
<!-- X::IO::Copy -->
<g id="node15" class="node">
<title>X::IO::Copy</title>
<g id="a_node15"><a xlink:href="/type/X::IO::Copy" xlink:title="X::IO::Copy">
<ellipse fill="none" stroke="#000000" cx="1320.95" cy="-18" rx="56.59" ry="18"/>
<text text-anchor="middle" x="1320.95" y="-14.3" font-family="FreeSans" font-size="14.00" fill="#000000">X::IO::Copy</text>
</a>
</g>
</g>
<!-- X::IO::Copy&#45;&gt;X::IO -->
<g id="edge41" class="edge">
<title>X::IO::Copy&#45;&gt;X::IO</title>
<path fill="none" stroke="#6666ff" d="M1278.4,-29.96C1265.63,-33.25 1254.95,-36 1254.95,-36 1254.95,-36 972.86,-70.85 866.17,-84.03"/>
<polygon fill="#6666ff" stroke="#6666ff" points="865.61,-80.57 856.11,-85.27 866.47,-87.52 865.61,-80.57"/>
</g>
<!-- X::IO::Copy&#45;&gt;Exception -->
<g id="edge23" class="edge">
<title>X::IO::Copy&#45;&gt;Exception</title>
<path fill="none" stroke="#000000" d="M1289.21,-33.01C1206.91,-72.18 993.95,-180 993.95,-180 993.95,-180 944.23,-199.81 907.65,-215.21"/>
<polygon fill="#000000" stroke="#000000" points="906.04,-212.09 898.2,-219.21 908.77,-218.53 906.04,-212.09"/>
</g>
<!-- X::IO::Copy&#45;&gt;Exception -->
<g id="edge24" class="edge">
<title>X::IO::Copy&#45;&gt;Exception</title>
<path fill="none" stroke="#000000" d="M1295.24,-34.15C1220.87,-74.23 1011.95,-180 1011.95,-180 1011.95,-180 956.6,-202.05 914.9,-217.71"/>
<polygon fill="#000000" stroke="#000000" points="913.58,-214.46 905.44,-221.24 916.03,-221.02 913.58,-214.46"/>
</g>
<!-- X::IO::Chdir -->
<g id="node16" class="node">
<title>X::IO::Chdir</title>
<g id="a_node16"><a xlink:href="/type/X::IO::Chdir" xlink:title="X::IO::Chdir">
<ellipse fill="none" stroke="#000000" cx="1452.95" cy="-18" rx="57.39" ry="18"/>
<text text-anchor="middle" x="1452.95" y="-14.3" font-family="FreeSans" font-size="14.00" fill="#000000">X::IO::Chdir</text>
</a>
</g>
</g>
<!-- X::IO::Chdir&#45;&gt;X::IO -->
<g id="edge42" class="edge">
<title>X::IO::Chdir&#45;&gt;X::IO</title>
<path fill="none" stroke="#6666ff" d="M1410.03,-30.05C1397.42,-33.3 1386.95,-36 1386.95,-36 1386.95,-36 995.87,-72.95 866.76,-85.14"/>
<polygon fill="#6666ff" stroke="#6666ff" points="866.13,-81.69 856.51,-86.11 866.79,-88.66 866.13,-81.69"/>
</g>
<!-- X::IO::Chdir&#45;&gt;Exception -->
<g id="edge25" class="edge">
<title>X::IO::Chdir&#45;&gt;Exception</title>
<path fill="none" stroke="#000000" d="M1416.91,-32.18C1318.25,-70.63 1051.95,-180 1051.95,-180 1051.95,-180 969.65,-202.84 915.64,-218.53"/>
<polygon fill="#000000" stroke="#000000" points="914.53,-215.21 905.91,-221.37 916.49,-221.93 914.53,-215.21"/>
</g>
<!-- X::IO::Chdir&#45;&gt;Exception -->
<g id="edge26" class="edge">
<title>X::IO::Chdir&#45;&gt;Exception</title>
<path fill="none" stroke="#000000" d="M1422.26,-33.29C1331.22,-72.69 1069.95,-180 1069.95,-180 1069.95,-180 979.36,-205.14 920.02,-220.79"/>
<polygon fill="#000000" stroke="#000000" points="918.84,-217.48 910.05,-223.4 920.61,-224.25 918.84,-217.48"/>
</g>
<!-- X::IO::Symlink -->
<g id="node17" class="node">
<title>X::IO::Symlink</title>
<g id="a_node17"><a xlink:href="/type/X::IO::Symlink" xlink:title="X::IO::Symlink">
<ellipse fill="none" stroke="#000000" cx="1595.95" cy="-18" rx="67.69" ry="18"/>
<text text-anchor="middle" x="1595.95" y="-14.3" font-family="FreeSans" font-size="14.00" fill="#000000">X::IO::Symlink</text>
</a>
</g>
</g>
<!-- X::IO::Symlink&#45;&gt;X::IO -->
<g id="edge43" class="edge">
<title>X::IO::Symlink&#45;&gt;X::IO</title>
<path fill="none" stroke="#6666ff" d="M1545.44,-30.15C1530.93,-33.35 1518.95,-36 1518.95,-36 1518.95,-36 1015.2,-74.53 866.68,-85.88"/>
<polygon fill="#6666ff" stroke="#6666ff" points="866.32,-82.4 856.62,-86.65 866.85,-89.38 866.32,-82.4"/>
</g>
<!-- X::IO::Symlink&#45;&gt;Exception -->
<g id="edge27" class="edge">
<title>X::IO::Symlink&#45;&gt;Exception</title>
<path fill="none" stroke="#000000" d="M1553.6,-32.18C1436.55,-70.63 1117.95,-180 1117.95,-180 1117.95,-180 992.86,-205.8 920.27,-221.4"/>
<polygon fill="#000000" stroke="#000000" points="919.44,-218 910.4,-223.52 920.91,-224.84 919.44,-218"/>
</g>
<!-- X::IO::Symlink&#45;&gt;Exception -->
<g id="edge28" class="edge">
<title>X::IO::Symlink&#45;&gt;Exception</title>
<path fill="none" stroke="#000000" d="M1558.82,-33.15C1449.29,-72.43 1135.95,-180 1135.95,-180 1135.95,-180 1001.11,-207.81 923.35,-223.14"/>
<polygon fill="#000000" stroke="#000000" points="922.38,-219.76 913.24,-225.12 923.73,-226.63 922.38,-219.76"/>
</g>
<!-- X::IO::Chmod -->
<g id="node18" class="node">
<title>X::IO::Chmod</title>
<g id="a_node18"><a xlink:href="/type/X::IO::Chmod" xlink:title="X::IO::Chmod">
<ellipse fill="none" stroke="#000000" cx="1745.95" cy="-18" rx="64.19" ry="18"/>
<text text-anchor="middle" x="1745.95" y="-14.3" font-family="FreeSans" font-size="14.00" fill="#000000">X::IO::Chmod</text>
</a>
</g>
</g>
<!-- X::IO::Chmod&#45;&gt;X::IO -->
<g id="edge44" class="edge">
<title>X::IO::Chmod&#45;&gt;X::IO</title>
<path fill="none" stroke="#6666ff" d="M1698.07,-30.15C1684.31,-33.35 1672.95,-36 1672.95,-36 1672.95,-36 1036.12,-75.85 866.85,-86.44"/>
<polygon fill="#6666ff" stroke="#6666ff" points="866.6,-82.95 856.84,-87.07 867.04,-89.94 866.6,-82.95"/>
</g>
<!-- X::IO::Chmod&#45;&gt;Exception -->
<g id="edge29" class="edge">
<title>X::IO::Chmod&#45;&gt;Exception</title>
<path fill="none" stroke="#000000" d="M1701.17,-31.1C1569.24,-68.54 1191.95,-180 1191.95,-180 1191.95,-180 1014.89,-208.35 923.29,-223.58"/>
<polygon fill="#000000" stroke="#000000" points="922.65,-220.14 913.36,-225.24 923.8,-227.04 922.65,-220.14"/>
</g>
<!-- X::IO::Chmod&#45;&gt;Exception -->
<g id="edge30" class="edge">
<title>X::IO::Chmod&#45;&gt;Exception</title>
<path fill="none" stroke="#000000" d="M1705.31,-32.18C1580.18,-70.63 1209.95,-180 1209.95,-180 1209.95,-180 1021.87,-210.11 925.41,-224.94"/>
<polygon fill="#000000" stroke="#000000" points="924.6,-221.53 915.24,-226.5 925.66,-228.45 924.6,-221.53"/>
</g>
</g>
</svg>
