<?xml version="1.0" encoding="UTF-8" standalone="no"?>
<!DOCTYPE svg PUBLIC "-//W3C//DTD SVG 1.1//EN"
 "http://www.w3.org/Graphics/SVG/1.1/DTD/svg11.dtd">
<!-- Generated by graphviz version 2.43.0 (0)
 -->
<!-- Title: perl6&#45;type&#45;graph Pages: 1 -->
<svg width="267pt" height="404pt"
 viewBox="0.00 0.00 266.68 404.00" xmlns="http://www.w3.org/2000/svg" xmlns:xlink="http://www.w3.org/1999/xlink">
<g id="graph0" class="graph" transform="scale(1 1) rotate(0) translate(4 400)">
<title>perl6&#45;type&#45;graph</title>
<polygon fill="#ffffff" stroke="transparent" points="-4,4 -4,-400 262.68,-400 262.68,4 -4,4"/>
<!-- X::Syntax::Self::WithoutObject -->
<g id="node1" class="node">
<title>X::Syntax::Self::WithoutObject</title>
<g id="a_node1"><a xlink:href="/type/X::Syntax::Self::WithoutObject" xlink:title="X::Syntax::Self::WithoutObject">
<ellipse fill="none" stroke="#000000" cx="129.34" cy="-18" rx="129.18" ry="18"/>
<text text-anchor="middle" x="129.34" y="-14.3" font-family="FreeSans" font-size="14.00" fill="#000000">X::Syntax::Self::WithoutObject</text>
</a>
</g>
</g>
<!-- Exception -->
<g id="node4" class="node">
<title>Exception</title>
<g id="a_node4"><a xlink:href="/type/Exception" xlink:title="Exception">
<ellipse fill="none" stroke="#000000" cx="129.34" cy="-234" rx="49.29" ry="18"/>
<text text-anchor="middle" x="129.34" y="-230.3" font-family="FreeSans" font-size="14.00" fill="#000000">Exception</text>
</a>
</g>
</g>
<!-- X::Syntax::Self::WithoutObject&#45;&gt;Exception -->
<g id="edge1" class="edge">
<title>X::Syntax::Self::WithoutObject&#45;&gt;Exception</title>
<path fill="none" stroke="#000000" d="M123.22,-36.06C117.67,-51.55 110.34,-72 110.34,-72 110.34,-72 110.34,-108 110.34,-108 110.34,-108 119.61,-169.01 125.2,-205.78"/>
<polygon fill="#000000" stroke="#000000" points="121.77,-206.52 126.74,-215.88 128.69,-205.47 121.77,-206.52"/>
</g>
<!-- X::Syntax -->
<g id="node6" class="node">
<title>X::Syntax</title>
<g id="a_node6"><a xlink:href="/type/X::Syntax" xlink:title="X::Syntax">
<ellipse fill="none" stroke="#6666ff" cx="167.34" cy="-90" rx="48.19" ry="18"/>
<text text-anchor="middle" x="167.34" y="-86.3" font-family="FreeSans" font-size="14.00" fill="#6666ff">X::Syntax</text>
</a>
</g>
</g>
<!-- X::Syntax::Self::WithoutObject&#45;&gt;X::Syntax -->
<g id="edge6" class="edge">
<title>X::Syntax::Self::WithoutObject&#45;&gt;X::Syntax</title>
<path fill="none" stroke="#6666ff" d="M138.73,-36.3C143.1,-44.36 148.4,-54.11 153.23,-63.02"/>
<polygon fill="#6666ff" stroke="#6666ff" points="150.21,-64.78 158.05,-71.9 156.36,-61.44 150.21,-64.78"/>
</g>
<!-- Mu -->
<g id="node2" class="node">
<title>Mu</title>
<g id="a_node2"><a xlink:href="/type/Mu" xlink:title="Mu">
<ellipse fill="none" stroke="#000000" cx="129.34" cy="-378" rx="27" ry="18"/>
<text text-anchor="middle" x="129.34" y="-374.3" font-family="FreeSans" font-size="14.00" fill="#000000">Mu</text>
</a>
</g>
</g>
<!-- Any -->
<g id="node3" class="node">
<title>Any</title>
<g id="a_node3"><a xlink:href="/type/Any" xlink:title="Any">
<ellipse fill="none" stroke="#000000" cx="129.34" cy="-306" rx="27" ry="18"/>
<text text-anchor="middle" x="129.34" y="-302.3" font-family="FreeSans" font-size="14.00" fill="#000000">Any</text>
</a>
</g>
</g>
<!-- Any&#45;&gt;Mu -->
<g id="edge2" class="edge">
<title>Any&#45;&gt;Mu</title>
<path fill="none" stroke="#000000" d="M129.34,-324.3C129.34,-332.02 129.34,-341.29 129.34,-349.89"/>
<polygon fill="#000000" stroke="#000000" points="125.84,-349.9 129.34,-359.9 132.84,-349.9 125.84,-349.9"/>
</g>
<!-- Exception&#45;&gt;Any -->
<g id="edge3" class="edge">
<title>Exception&#45;&gt;Any</title>
<path fill="none" stroke="#000000" d="M129.34,-252.3C129.34,-260.02 129.34,-269.29 129.34,-277.89"/>
<polygon fill="#000000" stroke="#000000" points="125.84,-277.9 129.34,-287.9 132.84,-277.9 125.84,-277.9"/>
</g>
<!-- X::Comp -->
<g id="node5" class="node">
<title>X::Comp</title>
<g id="a_node5"><a xlink:href="/type/X::Comp" xlink:title="X::Comp">
<ellipse fill="none" stroke="#6666ff" cx="202.34" cy="-162" rx="44.69" ry="18"/>
<text text-anchor="middle" x="202.34" y="-158.3" font-family="FreeSans" font-size="14.00" fill="#6666ff">X::Comp</text>
</a>
</g>
</g>
<!-- X::Comp&#45;&gt;Exception -->
<g id="edge4" class="edge">
<title>X::Comp&#45;&gt;Exception</title>
<path fill="none" stroke="#000000" d="M185.77,-178.88C176.23,-188.04 164.06,-199.71 153.46,-209.87"/>
<polygon fill="#000000" stroke="#000000" points="150.89,-207.49 146.09,-216.94 155.73,-212.54 150.89,-207.49"/>
</g>
<!-- X::Syntax&#45;&gt;Exception -->
<g id="edge5" class="edge">
<title>X::Syntax&#45;&gt;Exception</title>
<path fill="none" stroke="#000000" d="M161.22,-108.06C155.67,-123.55 148.34,-144 148.34,-144 148.34,-144 140.69,-179.83 135.1,-206.03"/>
<polygon fill="#000000" stroke="#000000" points="131.67,-205.33 133,-215.84 138.51,-206.79 131.67,-205.33"/>
</g>
<!-- X::Syntax&#45;&gt;X::Comp -->
<g id="edge7" class="edge">
<title>X::Syntax&#45;&gt;X::Comp</title>
<path fill="none" stroke="#6666ff" d="M175.81,-107.95C179.9,-116.11 184.88,-126.09 189.43,-135.18"/>
<polygon fill="#6666ff" stroke="#6666ff" points="186.34,-136.83 193.94,-144.21 192.6,-133.7 186.34,-136.83"/>
</g>
</g>
</svg>
