<?xml version="1.0" encoding="UTF-8" standalone="no"?>
<!DOCTYPE svg PUBLIC "-//W3C//DTD SVG 1.1//EN"
 "http://www.w3.org/Graphics/SVG/1.1/DTD/svg11.dtd">
<!-- Generated by graphviz version 2.43.0 (0)
 -->
<!-- Title: perl6&#45;type&#45;graph Pages: 1 -->
<svg width="1693pt" height="1774pt"
 viewBox="0.00 0.00 1692.86 1773.61" xmlns="http://www.w3.org/2000/svg" xmlns:xlink="http://www.w3.org/1999/xlink">
<g id="graph0" class="graph" transform="scale(1 1) rotate(0) translate(4 1769.61)">
<title>perl6&#45;type&#45;graph</title>
<polygon fill="white" stroke="transparent" points="-4,4 -4,-1769.61 1688.86,-1769.61 1688.86,4 -4,4"/>
<!-- Metamodel::Documenting -->
<g id="node1" class="node">
<title>Metamodel::Documenting</title>
<g id="a_node1"><a xlink:href="/type/Metamodel::Documenting" xlink:title="Metamodel::Documenting">
<ellipse fill="none" stroke="#6666ff" cx="1050.48" cy="-849.23" rx="111.28" ry="18"/>
<text text-anchor="middle" x="1050.48" y="-845.53" font-family="FreeSans" font-size="14.00" fill="#6666ff">Metamodel::Documenting</text>
</a>
</g>
</g>
<!-- Mu -->
<g id="node2" class="node">
<title>Mu</title>
<g id="a_node2"><a xlink:href="/type/Mu" xlink:title="Mu">
<ellipse fill="none" stroke="#000000" cx="1657.86" cy="-853.01" rx="27" ry="18"/>
<text text-anchor="middle" x="1657.86" y="-849.31" font-family="FreeSans" font-size="14.00" fill="#000000">Mu</text>
</a>
</g>
</g>
<!-- Any -->
<g id="node3" class="node">
<title>Any</title>
<g id="a_node3"><a xlink:href="/type/Any" xlink:title="Any">
<ellipse fill="none" stroke="#000000" cx="1196.78" cy="-891.86" rx="27" ry="18"/>
<text text-anchor="middle" x="1196.78" y="-888.16" font-family="FreeSans" font-size="14.00" fill="#000000">Any</text>
</a>
</g>
</g>
<!-- Any&#45;&gt;Mu -->
<g id="edge1" class="edge">
<title>Any&#45;&gt;Mu</title>
<path fill="none" stroke="#000000" d="M1223.9,-889.57C1302.63,-882.94 1531.3,-863.68 1621.07,-856.11"/>
<polygon fill="#000000" stroke="#000000" points="1621.39,-859.6 1631.06,-855.27 1620.8,-852.62 1621.39,-859.6"/>
</g>
<!-- Metamodel::Naming -->
<g id="node4" class="node">
<title>Metamodel::Naming</title>
<g id="a_node4"><a xlink:href="/type/Metamodel::Naming" xlink:title="Metamodel::Naming">
<ellipse fill="none" stroke="#6666ff" cx="968.51" cy="-761.2" rx="90.18" ry="18"/>
<text text-anchor="middle" x="968.51" y="-757.5" font-family="FreeSans" font-size="14.00" fill="#6666ff">Metamodel::Naming</text>
</a>
</g>
</g>
<!-- Metamodel::SubsetHOW -->
<g id="node5" class="node">
<title>Metamodel::SubsetHOW</title>
<g id="a_node5"><a xlink:href="/type/Metamodel::SubsetHOW" xlink:title="Metamodel::SubsetHOW">
<ellipse fill="none" stroke="#000000" cx="1458.69" cy="-632.79" rx="108.58" ry="18"/>
<text text-anchor="middle" x="1458.69" y="-629.09" font-family="FreeSans" font-size="14.00" fill="#000000">Metamodel::SubsetHOW</text>
</a>
</g>
</g>
<!-- Metamodel::SubsetHOW&#45;&gt;Metamodel::Documenting -->
<g id="edge10" class="edge">
<title>Metamodel::SubsetHOW&#45;&gt;Metamodel::Documenting</title>
<path fill="none" stroke="#6666ff" d="M1425.98,-650.14C1352.29,-689.21 1173.42,-784.05 1092.03,-827.2"/>
<polygon fill="#6666ff" stroke="#6666ff" points="1090.27,-824.18 1083.07,-831.95 1093.55,-830.36 1090.27,-824.18"/>
</g>
<!-- Metamodel::SubsetHOW&#45;&gt;Any -->
<g id="edge2" class="edge">
<title>Metamodel::SubsetHOW&#45;&gt;Any</title>
<path fill="none" stroke="#000000" d="M1440.69,-650.6C1394.19,-696.59 1270.15,-819.28 1219.15,-869.73"/>
<polygon fill="#000000" stroke="#000000" points="1216.55,-867.38 1211.9,-876.9 1221.47,-872.36 1216.55,-867.38"/>
</g>
<!-- Metamodel::SubsetHOW&#45;&gt;Metamodel::Naming -->
<g id="edge9" class="edge">
<title>Metamodel::SubsetHOW&#45;&gt;Metamodel::Naming</title>
<path fill="none" stroke="#6666ff" d="M1400.54,-648.02C1308.32,-672.18 1129.17,-719.11 1033.09,-744.28"/>
<polygon fill="#6666ff" stroke="#6666ff" points="1032,-740.95 1023.21,-746.87 1033.77,-747.72 1032,-740.95"/>
</g>
<!-- Metamodel::Stashing -->
<g id="node6" class="node">
<title>Metamodel::Stashing</title>
<g id="a_node6"><a xlink:href="/type/Metamodel::Stashing" xlink:title="Metamodel::Stashing">
<ellipse fill="none" stroke="#6666ff" cx="635.31" cy="-682.22" rx="93.68" ry="18"/>
<text text-anchor="middle" x="635.31" y="-678.52" font-family="FreeSans" font-size="14.00" fill="#6666ff">Metamodel::Stashing</text>
</a>
</g>
</g>
<!-- Metamodel::TypePretense -->
<g id="node7" class="node">
<title>Metamodel::TypePretense</title>
<g id="a_node7"><a xlink:href="/type/Metamodel::TypePretense" xlink:title="Metamodel::TypePretense">
<ellipse fill="none" stroke="#6666ff" cx="645.1" cy="-289.69" rx="114.28" ry="18"/>
<text text-anchor="middle" x="645.1" y="-285.99" font-family="FreeSans" font-size="14.00" fill="#6666ff">Metamodel::TypePretense</text>
</a>
</g>
</g>
<!-- Metamodel::MethodDelegation -->
<g id="node8" class="node">
<title>Metamodel::MethodDelegation</title>
<g id="a_node8"><a xlink:href="/type/Metamodel::MethodDelegation" xlink:title="Metamodel::MethodDelegation">
<ellipse fill="none" stroke="#6666ff" cx="1178.83" cy="-18" rx="131.08" ry="18"/>
<text text-anchor="middle" x="1178.83" y="-14.3" font-family="FreeSans" font-size="14.00" fill="#6666ff">Metamodel::MethodDelegation</text>
</a>
</g>
</g>
<!-- Metamodel::PackageHOW -->
<g id="node9" class="node">
<title>Metamodel::PackageHOW</title>
<g id="a_node9"><a xlink:href="/type/Metamodel::PackageHOW" xlink:title="Metamodel::PackageHOW">
<ellipse fill="none" stroke="#000000" cx="1147.97" cy="-420.71" rx="116.18" ry="18"/>
<text text-anchor="middle" x="1147.97" y="-417.01" font-family="FreeSans" font-size="14.00" fill="#000000">Metamodel::PackageHOW</text>
</a>
</g>
</g>
<!-- Metamodel::PackageHOW&#45;&gt;Metamodel::Documenting -->
<g id="edge12" class="edge">
<title>Metamodel::PackageHOW&#45;&gt;Metamodel::Documenting</title>
<path fill="none" stroke="#6666ff" d="M1143.84,-438.85C1128.61,-505.78 1075.52,-739.2 1056.95,-820.8"/>
<polygon fill="#6666ff" stroke="#6666ff" points="1053.47,-820.32 1054.67,-830.85 1060.3,-821.87 1053.47,-820.32"/>
</g>
<!-- Metamodel::PackageHOW&#45;&gt;Any -->
<g id="edge3" class="edge">
<title>Metamodel::PackageHOW&#45;&gt;Any</title>
<path fill="none" stroke="#000000" d="M1149.85,-438.89C1157.31,-510.89 1184.81,-776.35 1193.87,-863.75"/>
<polygon fill="#000000" stroke="#000000" points="1190.39,-864.14 1194.9,-873.73 1197.35,-863.42 1190.39,-864.14"/>
</g>
<!-- Metamodel::PackageHOW&#45;&gt;Metamodel::Naming -->
<g id="edge11" class="edge">
<title>Metamodel::PackageHOW&#45;&gt;Metamodel::Naming</title>
<path fill="none" stroke="#6666ff" d="M1138.32,-439.02C1108.55,-495.5 1018.03,-667.25 982.78,-734.13"/>
<polygon fill="#6666ff" stroke="#6666ff" points="979.56,-732.73 977.99,-743.21 985.75,-736 979.56,-732.73"/>
</g>
<!-- Metamodel::PackageHOW&#45;&gt;Metamodel::Stashing -->
<g id="edge13" class="edge">
<title>Metamodel::PackageHOW&#45;&gt;Metamodel::Stashing</title>
<path fill="none" stroke="#6666ff" d="M1113.93,-438.07C1023.38,-484.26 776.68,-610.1 677.46,-660.71"/>
<polygon fill="#6666ff" stroke="#6666ff" points="675.65,-657.71 668.33,-665.37 678.83,-663.94 675.65,-657.71"/>
</g>
<!-- Metamodel::PackageHOW&#45;&gt;Metamodel::TypePretense -->
<g id="edge14" class="edge">
<title>Metamodel::PackageHOW&#45;&gt;Metamodel::TypePretense</title>
<path fill="none" stroke="#6666ff" d="M1088.31,-405.17C994.61,-380.76 813.45,-333.55 714.22,-307.7"/>
<polygon fill="#6666ff" stroke="#6666ff" points="714.85,-304.25 704.29,-305.11 713.09,-311.02 714.85,-304.25"/>
</g>
<!-- Metamodel::PackageHOW&#45;&gt;Metamodel::MethodDelegation -->
<g id="edge15" class="edge">
<title>Metamodel::PackageHOW&#45;&gt;Metamodel::MethodDelegation</title>
<path fill="none" stroke="#6666ff" d="M1149.35,-402.62C1154.25,-338.75 1170.75,-123.43 1176.68,-46.01"/>
<polygon fill="#6666ff" stroke="#6666ff" points="1180.17,-46.27 1177.45,-36.04 1173.2,-45.74 1180.17,-46.27"/>
</g>
<!-- Metamodel::Versioning -->
<g id="node10" class="node">
<title>Metamodel::Versioning</title>
<g id="a_node10"><a xlink:href="/type/Metamodel::Versioning" xlink:title="Metamodel::Versioning">
<ellipse fill="none" stroke="#6666ff" cx="498.32" cy="-749.1" rx="100.98" ry="18"/>
<text text-anchor="middle" x="498.32" y="-745.4" font-family="FreeSans" font-size="14.00" fill="#6666ff">Metamodel::Versioning</text>
</a>
</g>
</g>
<!-- Metamodel::AttributeContainer -->
<g id="node11" class="node">
<title>Metamodel::AttributeContainer</title>
<g id="a_node11"><a xlink:href="/type/Metamodel::AttributeContainer" xlink:title="Metamodel::AttributeContainer">
<ellipse fill="none" stroke="#6666ff" cx="351.26" cy="-974.82" rx="129.98" ry="18"/>
<text text-anchor="middle" x="351.26" y="-971.12" font-family="FreeSans" font-size="14.00" fill="#6666ff">Metamodel::AttributeContainer</text>
</a>
</g>
</g>
<!-- Metamodel::Finalization -->
<g id="node12" class="node">
<title>Metamodel::Finalization</title>
<g id="a_node12"><a xlink:href="/type/Metamodel::Finalization" xlink:title="Metamodel::Finalization">
<ellipse fill="none" stroke="#6666ff" cx="255.88" cy="-1500.13" rx="103.98" ry="18"/>
<text text-anchor="middle" x="255.88" y="-1496.43" font-family="FreeSans" font-size="14.00" fill="#6666ff">Metamodel::Finalization</text>
</a>
</g>
</g>
<!-- Metamodel::MethodContainer -->
<g id="node13" class="node">
<title>Metamodel::MethodContainer</title>
<g id="a_node13"><a xlink:href="/type/Metamodel::MethodContainer" xlink:title="Metamodel::MethodContainer">
<ellipse fill="none" stroke="#6666ff" cx="1175.53" cy="-1208.14" rx="127.28" ry="18"/>
<text text-anchor="middle" x="1175.53" y="-1204.44" font-family="FreeSans" font-size="14.00" fill="#6666ff">Metamodel::MethodContainer</text>
</a>
</g>
</g>
<!-- Metamodel::PrivateMethodContainer -->
<g id="node14" class="node">
<title>Metamodel::PrivateMethodContainer</title>
<g id="a_node14"><a xlink:href="/type/Metamodel::PrivateMethodContainer" xlink:title="Metamodel::PrivateMethodContainer">
<ellipse fill="none" stroke="#6666ff" cx="1106.56" cy="-1324.76" rx="154.87" ry="18"/>
<text text-anchor="middle" x="1106.56" y="-1321.06" font-family="FreeSans" font-size="14.00" fill="#6666ff">Metamodel::PrivateMethodContainer</text>
</a>
</g>
</g>
<!-- Metamodel::MultiMethodContainer -->
<g id="node15" class="node">
<title>Metamodel::MultiMethodContainer</title>
<g id="a_node15"><a xlink:href="/type/Metamodel::MultiMethodContainer" xlink:title="Metamodel::MultiMethodContainer">
<ellipse fill="none" stroke="#6666ff" cx="797.6" cy="-1332.53" rx="146.47" ry="18"/>
<text text-anchor="middle" x="797.6" y="-1328.83" font-family="FreeSans" font-size="14.00" fill="#6666ff">Metamodel::MultiMethodContainer</text>
</a>
</g>
</g>
<!-- Metamodel::RoleContainer -->
<g id="node16" class="node">
<title>Metamodel::RoleContainer</title>
<g id="a_node16"><a xlink:href="/type/Metamodel::RoleContainer" xlink:title="Metamodel::RoleContainer">
<ellipse fill="none" stroke="#6666ff" cx="306.14" cy="-857.11" rx="115.88" ry="18"/>
<text text-anchor="middle" x="306.14" y="-853.41" font-family="FreeSans" font-size="14.00" fill="#6666ff">Metamodel::RoleContainer</text>
</a>
</g>
</g>
<!-- Metamodel::MultipleInheritance -->
<g id="node17" class="node">
<title>Metamodel::MultipleInheritance</title>
<g id="a_node17"><a xlink:href="/type/Metamodel::MultipleInheritance" xlink:title="Metamodel::MultipleInheritance">
<ellipse fill="none" stroke="#6666ff" cx="966.85" cy="-1143.19" rx="133.78" ry="18"/>
<text text-anchor="middle" x="966.85" y="-1139.49" font-family="FreeSans" font-size="14.00" fill="#6666ff">Metamodel::MultipleInheritance</text>
</a>
</g>
</g>
<!-- Metamodel::DefaultParent -->
<g id="node18" class="node">
<title>Metamodel::DefaultParent</title>
<g id="a_node18"><a xlink:href="/type/Metamodel::DefaultParent" xlink:title="Metamodel::DefaultParent">
<ellipse fill="none" stroke="#6666ff" cx="460.4" cy="-1677.54" rx="113.18" ry="18"/>
<text text-anchor="middle" x="460.4" y="-1673.84" font-family="FreeSans" font-size="14.00" fill="#6666ff">Metamodel::DefaultParent</text>
</a>
</g>
</g>
<!-- Metamodel::C3MRO -->
<g id="node19" class="node">
<title>Metamodel::C3MRO</title>
<g id="a_node19"><a xlink:href="/type/Metamodel::C3MRO" xlink:title="Metamodel::C3MRO">
<ellipse fill="none" stroke="#6666ff" cx="430.07" cy="-1412.12" rx="92.08" ry="18"/>
<text text-anchor="middle" x="430.07" y="-1408.42" font-family="FreeSans" font-size="14.00" fill="#6666ff">Metamodel::C3MRO</text>
</a>
</g>
</g>
<!-- Metamodel::MROBasedMethodDispatch -->
<g id="node20" class="node">
<title>Metamodel::MROBasedMethodDispatch</title>
<g id="a_node20"><a xlink:href="/type/Metamodel::MROBasedMethodDispatch" xlink:title="Metamodel::MROBasedMethodDispatch">
<ellipse fill="none" stroke="#6666ff" cx="637.19" cy="-1540.6" rx="169.77" ry="18"/>
<text text-anchor="middle" x="637.19" y="-1536.9" font-family="FreeSans" font-size="14.00" fill="#6666ff">Metamodel::MROBasedMethodDispatch</text>
</a>
</g>
</g>
<!-- Metamodel::MROBasedTypeChecking -->
<g id="node21" class="node">
<title>Metamodel::MROBasedTypeChecking</title>
<g id="a_node21"><a xlink:href="/type/Metamodel::MROBasedTypeChecking" xlink:title="Metamodel::MROBasedTypeChecking">
<ellipse fill="none" stroke="#6666ff" cx="354.66" cy="-1229.96" rx="163.27" ry="18"/>
<text text-anchor="middle" x="354.66" y="-1226.26" font-family="FreeSans" font-size="14.00" fill="#6666ff">Metamodel::MROBasedTypeChecking</text>
</a>
</g>
</g>
<!-- Metamodel::Trusting -->
<g id="node22" class="node">
<title>Metamodel::Trusting</title>
<g id="a_node22"><a xlink:href="/type/Metamodel::Trusting" xlink:title="Metamodel::Trusting">
<ellipse fill="none" stroke="#6666ff" cx="91.64" cy="-1203.59" rx="91.78" ry="18"/>
<text text-anchor="middle" x="91.64" y="-1199.89" font-family="FreeSans" font-size="14.00" fill="#6666ff">Metamodel::Trusting</text>
</a>
</g>
</g>
<!-- Metamodel::BUILDPLAN -->
<g id="node23" class="node">
<title>Metamodel::BUILDPLAN</title>
<g id="a_node23"><a xlink:href="/type/Metamodel::BUILDPLAN" xlink:title="Metamodel::BUILDPLAN">
<ellipse fill="none" stroke="#6666ff" cx="938.57" cy="-1703.57" rx="109.68" ry="18"/>
<text text-anchor="middle" x="938.57" y="-1699.87" font-family="FreeSans" font-size="14.00" fill="#6666ff">Metamodel::BUILDPLAN</text>
</a>
</g>
</g>
<!-- Metamodel::Mixins -->
<g id="node24" class="node">
<title>Metamodel::Mixins</title>
<g id="a_node24"><a xlink:href="/type/Metamodel::Mixins" xlink:title="Metamodel::Mixins">
<ellipse fill="none" stroke="#6666ff" cx="1111.86" cy="-1622.96" rx="85.29" ry="18"/>
<text text-anchor="middle" x="1111.86" y="-1619.26" font-family="FreeSans" font-size="14.00" fill="#6666ff">Metamodel::Mixins</text>
</a>
</g>
</g>
<!-- Metamodel::BoolificationProtocol -->
<g id="node25" class="node">
<title>Metamodel::BoolificationProtocol</title>
<g id="a_node25"><a xlink:href="/type/Metamodel::BoolificationProtocol" xlink:title="Metamodel::BoolificationProtocol">
<ellipse fill="none" stroke="#6666ff" cx="697.18" cy="-1747.61" rx="139.18" ry="18"/>
<text text-anchor="middle" x="697.18" y="-1743.91" font-family="FreeSans" font-size="14.00" fill="#6666ff">Metamodel::BoolificationProtocol</text>
</a>
</g>
</g>
<!-- Metamodel::ClassHOW -->
<g id="node26" class="node">
<title>Metamodel::ClassHOW</title>
<g id="a_node26"><a xlink:href="/type/Metamodel::ClassHOW" xlink:title="Metamodel::ClassHOW">
<ellipse fill="none" stroke="#000000" cx="681.58" cy="-1205.87" rx="103.18" ry="18"/>
<text text-anchor="middle" x="681.58" y="-1202.17" font-family="FreeSans" font-size="14.00" fill="#000000">Metamodel::ClassHOW</text>
</a>
</g>
</g>
<!-- Metamodel::ClassHOW&#45;&gt;Metamodel::Documenting -->
<g id="edge17" class="edge">
<title>Metamodel::ClassHOW&#45;&gt;Metamodel::Documenting</title>
<path fill="none" stroke="#6666ff" d="M700.12,-1187.94C760.9,-1129.19 954.18,-942.33 1024.55,-874.31"/>
<polygon fill="#6666ff" stroke="#6666ff" points="1027.36,-876.45 1032.12,-866.99 1022.5,-871.42 1027.36,-876.45"/>
</g>
<!-- Metamodel::ClassHOW&#45;&gt;Any -->
<g id="edge4" class="edge">
<title>Metamodel::ClassHOW&#45;&gt;Any</title>
<path fill="none" stroke="#000000" d="M710.01,-1188.54C799.95,-1133.72 1077.64,-964.47 1168.03,-909.38"/>
<polygon fill="#000000" stroke="#000000" points="1169.95,-912.31 1176.66,-904.12 1166.3,-906.33 1169.95,-912.31"/>
</g>
<!-- Metamodel::ClassHOW&#45;&gt;Metamodel::Naming -->
<g id="edge16" class="edge">
<title>Metamodel::ClassHOW&#45;&gt;Metamodel::Naming</title>
<path fill="none" stroke="#6666ff" d="M694.61,-1187.77C728.18,-1141.13 814.99,-1020.55 814.99,-1020.55 814.99,-1020.55 913.3,-854.46 952.58,-788.11"/>
<polygon fill="#6666ff" stroke="#6666ff" points="955.63,-789.82 957.72,-779.43 949.61,-786.26 955.63,-789.82"/>
</g>
<!-- Metamodel::ClassHOW&#45;&gt;Metamodel::Stashing -->
<g id="edge19" class="edge">
<title>Metamodel::ClassHOW&#45;&gt;Metamodel::Stashing</title>
<path fill="none" stroke="#6666ff" d="M673.47,-1187.73C652.6,-1141.01 598.62,-1020.19 598.62,-1020.19 598.62,-1020.19 623.44,-791.58 632.25,-710.4"/>
<polygon fill="#6666ff" stroke="#6666ff" points="635.74,-710.71 633.34,-700.39 628.78,-709.95 635.74,-710.71"/>
</g>
<!-- Metamodel::ClassHOW&#45;&gt;Metamodel::Versioning -->
<g id="edge18" class="edge">
<title>Metamodel::ClassHOW&#45;&gt;Metamodel::Versioning</title>
<path fill="none" stroke="#6666ff" d="M673.47,-1187.73C652.6,-1141.01 598.62,-1020.19 598.62,-1020.19 598.62,-1020.19 534.05,-845.68 508.53,-776.69"/>
<polygon fill="#6666ff" stroke="#6666ff" points="511.81,-775.48 505.06,-767.31 505.25,-777.9 511.81,-775.48"/>
</g>
<!-- Metamodel::ClassHOW&#45;&gt;Metamodel::AttributeContainer -->
<g id="edge20" class="edge">
<title>Metamodel::ClassHOW&#45;&gt;Metamodel::AttributeContainer</title>
<path fill="none" stroke="#6666ff" d="M656.48,-1188.32C597.84,-1147.29 451.77,-1045.12 385.24,-998.58"/>
<polygon fill="#6666ff" stroke="#6666ff" points="386.98,-995.53 376.78,-992.66 382.96,-1001.26 386.98,-995.53"/>
</g>
<!-- Metamodel::ClassHOW&#45;&gt;Metamodel::Finalization -->
<g id="edge21" class="edge">
<title>Metamodel::ClassHOW&#45;&gt;Metamodel::Finalization</title>
<path fill="none" stroke="#6666ff" d="M652.43,-1223.27C569.16,-1272.98 336.18,-1412.07 336.18,-1412.07 336.18,-1412.07 302.85,-1448.62 279.14,-1474.63"/>
<polygon fill="#6666ff" stroke="#6666ff" points="276.28,-1472.56 272.13,-1482.31 281.46,-1477.28 276.28,-1472.56"/>
</g>
<!-- Metamodel::ClassHOW&#45;&gt;Metamodel::MethodContainer -->
<g id="edge22" class="edge">
<title>Metamodel::ClassHOW&#45;&gt;Metamodel::MethodContainer</title>
<path fill="none" stroke="#6666ff" d="M785.13,-1206.35C858.51,-1206.68 957.75,-1207.14 1037.8,-1207.51"/>
<polygon fill="#6666ff" stroke="#6666ff" points="1037.95,-1211.01 1047.97,-1207.55 1037.98,-1204.01 1037.95,-1211.01"/>
</g>
<!-- Metamodel::ClassHOW&#45;&gt;Metamodel::PrivateMethodContainer -->
<g id="edge23" class="edge">
<title>Metamodel::ClassHOW&#45;&gt;Metamodel::PrivateMethodContainer</title>
<path fill="none" stroke="#6666ff" d="M736.27,-1221.17C813.14,-1242.68 953.15,-1281.85 1037.24,-1305.37"/>
<polygon fill="#6666ff" stroke="#6666ff" points="1036.38,-1308.76 1046.96,-1308.09 1038.27,-1302.02 1036.38,-1308.76"/>
</g>
<!-- Metamodel::ClassHOW&#45;&gt;Metamodel::MultiMethodContainer -->
<g id="edge24" class="edge">
<title>Metamodel::ClassHOW&#45;&gt;Metamodel::MultiMethodContainer</title>
<path fill="none" stroke="#6666ff" d="M697.96,-1223.75C717.8,-1245.41 751.37,-1282.06 774,-1306.77"/>
<polygon fill="#6666ff" stroke="#6666ff" points="771.6,-1309.33 780.93,-1314.34 776.76,-1304.6 771.6,-1309.33"/>
</g>
<!-- Metamodel::ClassHOW&#45;&gt;Metamodel::RoleContainer -->
<g id="edge25" class="edge">
<title>Metamodel::ClassHOW&#45;&gt;Metamodel::RoleContainer</title>
<path fill="none" stroke="#6666ff" d="M665.98,-1187.75C619.14,-1133.3 482.85,-974.92 482.85,-974.92 482.85,-974.92 392.63,-914.77 341.12,-880.43"/>
<polygon fill="#6666ff" stroke="#6666ff" points="342.86,-877.38 332.6,-874.75 338.98,-883.21 342.86,-877.38"/>
</g>
<!-- Metamodel::ClassHOW&#45;&gt;Metamodel::MultipleInheritance -->
<g id="edge26" class="edge">
<title>Metamodel::ClassHOW&#45;&gt;Metamodel::MultipleInheritance</title>
<path fill="none" stroke="#6666ff" d="M745.95,-1191.73C787.74,-1182.55 842.5,-1170.51 887.05,-1160.73"/>
<polygon fill="#6666ff" stroke="#6666ff" points="887.95,-1164.11 896.97,-1158.55 886.45,-1157.28 887.95,-1164.11"/>
</g>
<!-- Metamodel::ClassHOW&#45;&gt;Metamodel::DefaultParent -->
<g id="edge27" class="edge">
<title>Metamodel::ClassHOW&#45;&gt;Metamodel::DefaultParent</title>
<path fill="none" stroke="#6666ff" d="M669.99,-1223.86C625.2,-1293.35 465.96,-1540.41 465.96,-1540.41 465.96,-1540.41 463.17,-1609.19 461.55,-1649.33"/>
<polygon fill="#6666ff" stroke="#6666ff" points="458.05,-1649.2 461.14,-1659.33 465.04,-1649.48 458.05,-1649.2"/>
</g>
<!-- Metamodel::ClassHOW&#45;&gt;Metamodel::C3MRO -->
<g id="edge28" class="edge">
<title>Metamodel::ClassHOW&#45;&gt;Metamodel::C3MRO</title>
<path fill="none" stroke="#6666ff" d="M659.7,-1223.81C614.53,-1260.86 510.91,-1345.82 459.76,-1387.77"/>
<polygon fill="#6666ff" stroke="#6666ff" points="457.24,-1385.32 451.72,-1394.36 461.67,-1390.73 457.24,-1385.32"/>
</g>
<!-- Metamodel::ClassHOW&#45;&gt;Metamodel::MROBasedMethodDispatch -->
<g id="edge29" class="edge">
<title>Metamodel::ClassHOW&#45;&gt;Metamodel::MROBasedMethodDispatch</title>
<path fill="none" stroke="#6666ff" d="M677.02,-1224.01C668.22,-1259.03 649.77,-1332.5 649.77,-1332.5 649.77,-1332.5 642.33,-1455.5 638.9,-1512.37"/>
<polygon fill="#6666ff" stroke="#6666ff" points="635.39,-1512.3 638.28,-1522.5 642.38,-1512.73 635.39,-1512.3"/>
</g>
<!-- Metamodel::ClassHOW&#45;&gt;Metamodel::MROBasedTypeChecking -->
<g id="edge30" class="edge">
<title>Metamodel::ClassHOW&#45;&gt;Metamodel::MROBasedTypeChecking</title>
<path fill="none" stroke="#6666ff" d="M586.14,-1212.9C559.42,-1214.87 529.74,-1217.06 500.8,-1219.19"/>
<polygon fill="#6666ff" stroke="#6666ff" points="500.32,-1215.72 490.6,-1219.94 500.83,-1222.7 500.32,-1215.72"/>
</g>
<!-- Metamodel::ClassHOW&#45;&gt;Metamodel::Trusting -->
<g id="edge31" class="edge">
<title>Metamodel::ClassHOW&#45;&gt;Metamodel::Trusting</title>
<path fill="none" stroke="#6666ff" d="M578.14,-1205.47C469.94,-1205.05 301.16,-1204.4 193.54,-1203.99"/>
<polygon fill="#6666ff" stroke="#6666ff" points="193.33,-1200.49 183.32,-1203.95 193.3,-1207.49 193.33,-1200.49"/>
</g>
<!-- Metamodel::ClassHOW&#45;&gt;Metamodel::BUILDPLAN -->
<g id="edge32" class="edge">
<title>Metamodel::ClassHOW&#45;&gt;Metamodel::BUILDPLAN</title>
<path fill="none" stroke="#6666ff" d="M677.02,-1224.01C668.22,-1259.03 649.77,-1332.5 649.77,-1332.5 649.77,-1332.5 852.77,-1593.32 918.38,-1677.63"/>
<polygon fill="#6666ff" stroke="#6666ff" points="915.74,-1679.93 924.64,-1685.67 921.26,-1675.63 915.74,-1679.93"/>
</g>
<!-- Metamodel::ClassHOW&#45;&gt;Metamodel::Mixins -->
<g id="edge33" class="edge">
<title>Metamodel::ClassHOW&#45;&gt;Metamodel::Mixins</title>
<path fill="none" stroke="#6666ff" d="M716.89,-1222.83C788.79,-1257.35 945.44,-1332.57 945.44,-1332.57 945.44,-1332.57 1054.96,-1523.67 1096.31,-1595.82"/>
<polygon fill="#6666ff" stroke="#6666ff" points="1093.44,-1597.86 1101.45,-1604.79 1099.52,-1594.38 1093.44,-1597.86"/>
</g>
<!-- Metamodel::ClassHOW&#45;&gt;Metamodel::BoolificationProtocol -->
<g id="edge34" class="edge">
<title>Metamodel::ClassHOW&#45;&gt;Metamodel::BoolificationProtocol</title>
<path fill="none" stroke="#6666ff" d="M677.02,-1224.01C668.22,-1259.03 649.77,-1332.5 649.77,-1332.5 649.77,-1332.5 808.42,-1540.79 808.42,-1540.79 808.42,-1540.79 741.85,-1664.56 711.71,-1720.61"/>
<polygon fill="#6666ff" stroke="#6666ff" points="708.51,-1719.15 706.86,-1729.62 714.68,-1722.47 708.51,-1719.15"/>
</g>
<!-- Metamodel::DefiniteHOW -->
<g id="node27" class="node">
<title>Metamodel::DefiniteHOW</title>
<g id="a_node27"><a xlink:href="/type/Metamodel::DefiniteHOW" xlink:title="Metamodel::DefiniteHOW">
<ellipse fill="none" stroke="#000000" cx="1563.63" cy="-1068.26" rx="111.28" ry="18"/>
<text text-anchor="middle" x="1563.63" y="-1064.56" font-family="FreeSans" font-size="14.00" fill="#000000">Metamodel::DefiniteHOW</text>
</a>
</g>
</g>
<!-- Metamodel::DefiniteHOW&#45;&gt;Metamodel::Documenting -->
<g id="edge35" class="edge">
<title>Metamodel::DefiniteHOW&#45;&gt;Metamodel::Documenting</title>
<path fill="none" stroke="#6666ff" d="M1523.3,-1051.32C1424.15,-1009.68 1176.52,-905.69 1176.52,-905.69 1176.52,-905.69 1133.46,-886.4 1097.68,-870.37"/>
<polygon fill="#6666ff" stroke="#6666ff" points="1098.85,-867.06 1088.3,-866.17 1095.99,-873.45 1098.85,-867.06"/>
</g>
<!-- Metamodel::DefiniteHOW&#45;&gt;Any -->
<g id="edge5" class="edge">
<title>Metamodel::DefiniteHOW&#45;&gt;Any</title>
<path fill="none" stroke="#000000" d="M1528.12,-1051.18C1456.65,-1016.82 1296.48,-939.79 1228.38,-907.05"/>
<polygon fill="#000000" stroke="#000000" points="1229.55,-903.73 1219.03,-902.55 1226.52,-910.04 1229.55,-903.73"/>
</g>
<!-- Metamodel::ModuleHOW -->
<g id="node28" class="node">
<title>Metamodel::ModuleHOW</title>
<g id="a_node28"><a xlink:href="/type/Metamodel::ModuleHOW" xlink:title="Metamodel::ModuleHOW">
<ellipse fill="none" stroke="#000000" cx="912.84" cy="-432.96" rx="110.48" ry="18"/>
<text text-anchor="middle" x="912.84" y="-429.26" font-family="FreeSans" font-size="14.00" fill="#000000">Metamodel::ModuleHOW</text>
</a>
</g>
</g>
<!-- Metamodel::ModuleHOW&#45;&gt;Metamodel::Documenting -->
<g id="edge37" class="edge">
<title>Metamodel::ModuleHOW&#45;&gt;Metamodel::Documenting</title>
<path fill="none" stroke="#6666ff" d="M920.99,-451.07C951.93,-519.89 1060.45,-761.21 1060.45,-761.21 1060.45,-761.21 1056.6,-795.2 1053.69,-820.94"/>
<polygon fill="#6666ff" stroke="#6666ff" points="1050.2,-820.66 1052.55,-830.99 1057.15,-821.45 1050.2,-820.66"/>
</g>
<!-- Metamodel::ModuleHOW&#45;&gt;Any -->
<g id="edge6" class="edge">
<title>Metamodel::ModuleHOW&#45;&gt;Any</title>
<path fill="none" stroke="#000000" d="M923.97,-450.95C967.95,-522.02 1129.7,-783.44 1181.04,-866.41"/>
<polygon fill="#000000" stroke="#000000" points="1178.09,-868.31 1186.33,-874.97 1184.05,-864.62 1178.09,-868.31"/>
</g>
<!-- Metamodel::ModuleHOW&#45;&gt;Metamodel::Naming -->
<g id="edge36" class="edge">
<title>Metamodel::ModuleHOW&#45;&gt;Metamodel::Naming</title>
<path fill="none" stroke="#6666ff" d="M915.92,-451.07C925.14,-505.43 952.61,-667.45 963.75,-733.1"/>
<polygon fill="#6666ff" stroke="#6666ff" points="960.32,-733.86 965.45,-743.14 967.23,-732.69 960.32,-733.86"/>
</g>
<!-- Metamodel::ModuleHOW&#45;&gt;Metamodel::Stashing -->
<g id="edge39" class="edge">
<title>Metamodel::ModuleHOW&#45;&gt;Metamodel::Stashing</title>
<path fill="none" stroke="#6666ff" d="M892.88,-450.88C844.08,-494.72 718.62,-607.39 662.8,-657.52"/>
<polygon fill="#6666ff" stroke="#6666ff" points="660.19,-655.17 655.09,-664.45 664.87,-660.37 660.19,-655.17"/>
</g>
<!-- Metamodel::ModuleHOW&#45;&gt;Metamodel::TypePretense -->
<g id="edge40" class="edge">
<title>Metamodel::ModuleHOW&#45;&gt;Metamodel::TypePretense</title>
<path fill="none" stroke="#6666ff" d="M880.55,-415.68C831.9,-389.65 739.84,-340.39 686.39,-311.78"/>
<polygon fill="#6666ff" stroke="#6666ff" points="687.98,-308.67 677.51,-307.03 684.68,-314.84 687.98,-308.67"/>
</g>
<!-- Metamodel::ModuleHOW&#45;&gt;Metamodel::MethodDelegation -->
<g id="edge41" class="edge">
<title>Metamodel::ModuleHOW&#45;&gt;Metamodel::MethodDelegation</title>
<path fill="none" stroke="#6666ff" d="M924.44,-414.86C966.53,-349.2 1111.33,-123.31 1161.53,-44.99"/>
<polygon fill="#6666ff" stroke="#6666ff" points="1164.72,-46.5 1167.17,-36.19 1158.83,-42.72 1164.72,-46.5"/>
</g>
<!-- Metamodel::ModuleHOW&#45;&gt;Metamodel::Versioning -->
<g id="edge38" class="edge">
<title>Metamodel::ModuleHOW&#45;&gt;Metamodel::Versioning</title>
<path fill="none" stroke="#6666ff" d="M886.63,-450.47C801.79,-507.18 540.12,-682.08 540.12,-682.08 540.12,-682.08 526.55,-703.85 514.87,-722.57"/>
<polygon fill="#6666ff" stroke="#6666ff" points="511.85,-720.8 509.52,-731.14 517.79,-724.51 511.85,-720.8"/>
</g>
<!-- Metamodel::RolePunning -->
<g id="node29" class="node">
<title>Metamodel::RolePunning</title>
<g id="a_node29"><a xlink:href="/type/Metamodel::RolePunning" xlink:title="Metamodel::RolePunning">
<ellipse fill="none" stroke="#6666ff" cx="798.22" cy="-218.65" rx="109.68" ry="18"/>
<text text-anchor="middle" x="798.22" y="-214.95" font-family="FreeSans" font-size="14.00" fill="#6666ff">Metamodel::RolePunning</text>
</a>
</g>
</g>
<!-- Metamodel::ParametricRoleHOW -->
<g id="node30" class="node">
<title>Metamodel::ParametricRoleHOW</title>
<g id="a_node30"><a xlink:href="/type/Metamodel::ParametricRoleHOW" xlink:title="Metamodel::ParametricRoleHOW">
<ellipse fill="none" stroke="#000000" cx="792.92" cy="-805.2" rx="141.88" ry="18"/>
<text text-anchor="middle" x="792.92" y="-801.5" font-family="FreeSans" font-size="14.00" fill="#000000">Metamodel::ParametricRoleHOW</text>
</a>
</g>
</g>
<!-- Metamodel::ParametricRoleHOW&#45;&gt;Metamodel::Documenting -->
<g id="edge43" class="edge">
<title>Metamodel::ParametricRoleHOW&#45;&gt;Metamodel::Documenting</title>
<path fill="none" stroke="#6666ff" d="M877.61,-819.68C905.3,-824.41 936.07,-829.67 963.89,-834.43"/>
<polygon fill="#6666ff" stroke="#6666ff" points="963.55,-837.92 974,-836.16 964.73,-831.02 963.55,-837.92"/>
</g>
<!-- Metamodel::ParametricRoleHOW&#45;&gt;Any -->
<g id="edge7" class="edge">
<title>Metamodel::ParametricRoleHOW&#45;&gt;Any</title>
<path fill="none" stroke="#000000" d="M844.71,-822.08C897.07,-839.14 970.31,-863.01 970.31,-863.01 970.31,-863.01 1095.59,-878.97 1159.79,-887.14"/>
<polygon fill="#000000" stroke="#000000" points="1159.55,-890.64 1169.91,-888.43 1160.44,-883.7 1159.55,-890.64"/>
</g>
<!-- Metamodel::ParametricRoleHOW&#45;&gt;Metamodel::Naming -->
<g id="edge42" class="edge">
<title>Metamodel::ParametricRoleHOW&#45;&gt;Metamodel::Naming</title>
<path fill="none" stroke="#6666ff" d="M857.31,-789.06C871.94,-785.4 887.51,-781.5 902.22,-777.81"/>
<polygon fill="#6666ff" stroke="#6666ff" points="903.39,-781.12 912.24,-775.3 901.69,-774.33 903.39,-781.12"/>
</g>
<!-- Metamodel::ParametricRoleHOW&#45;&gt;Metamodel::Stashing -->
<g id="edge51" class="edge">
<title>Metamodel::ParametricRoleHOW&#45;&gt;Metamodel::Stashing</title>
<path fill="none" stroke="#6666ff" d="M770,-787.32C742.53,-765.88 696.4,-729.88 665.9,-706.09"/>
<polygon fill="#6666ff" stroke="#6666ff" points="667.78,-703.11 657.74,-699.72 663.48,-708.63 667.78,-703.11"/>
</g>
<!-- Metamodel::ParametricRoleHOW&#45;&gt;Metamodel::TypePretense -->
<g id="edge52" class="edge">
<title>Metamodel::ParametricRoleHOW&#45;&gt;Metamodel::TypePretense</title>
<path fill="none" stroke="#6666ff" d="M787.74,-787.15C765.75,-710.45 679.93,-411.16 653.14,-317.72"/>
<polygon fill="#6666ff" stroke="#6666ff" points="656.43,-316.51 650.31,-307.86 649.7,-318.43 656.43,-316.51"/>
</g>
<!-- Metamodel::ParametricRoleHOW&#45;&gt;Metamodel::Versioning -->
<g id="edge44" class="edge">
<title>Metamodel::ParametricRoleHOW&#45;&gt;Metamodel::Versioning</title>
<path fill="none" stroke="#6666ff" d="M713.97,-790.17C671.69,-782.11 619.74,-772.22 577.43,-764.17"/>
<polygon fill="#6666ff" stroke="#6666ff" points="577.93,-760.7 567.45,-762.27 576.62,-767.58 577.93,-760.7"/>
</g>
<!-- Metamodel::ParametricRoleHOW&#45;&gt;Metamodel::AttributeContainer -->
<g id="edge48" class="edge">
<title>Metamodel::ParametricRoleHOW&#45;&gt;Metamodel::AttributeContainer</title>
<path fill="none" stroke="#6666ff" d="M748.14,-822.4C666.34,-853.81 493.07,-920.35 405.04,-954.17"/>
<polygon fill="#6666ff" stroke="#6666ff" points="403.58,-950.97 395.5,-957.83 406.09,-957.51 403.58,-950.97"/>
</g>
<!-- Metamodel::ParametricRoleHOW&#45;&gt;Metamodel::MethodContainer -->
<g id="edge45" class="edge">
<title>Metamodel::ParametricRoleHOW&#45;&gt;Metamodel::MethodContainer</title>
<path fill="none" stroke="#6666ff" d="M810.1,-823.3C871.41,-887.86 1079.56,-1107.07 1151.13,-1182.44"/>
<polygon fill="#6666ff" stroke="#6666ff" points="1148.97,-1185.25 1158.39,-1190.09 1154.04,-1180.43 1148.97,-1185.25"/>
</g>
<!-- Metamodel::ParametricRoleHOW&#45;&gt;Metamodel::PrivateMethodContainer -->
<g id="edge46" class="edge">
<title>Metamodel::ParametricRoleHOW&#45;&gt;Metamodel::PrivateMethodContainer</title>
<path fill="none" stroke="#6666ff" d="M794.99,-823.37C802.97,-893.57 831.36,-1143.18 831.36,-1143.18 831.36,-1143.18 996.71,-1252.28 1071.07,-1301.35"/>
<polygon fill="#6666ff" stroke="#6666ff" points="1069.4,-1304.43 1079.67,-1307.02 1073.25,-1298.59 1069.4,-1304.43"/>
</g>
<!-- Metamodel::ParametricRoleHOW&#45;&gt;Metamodel::MultiMethodContainer -->
<g id="edge47" class="edge">
<title>Metamodel::ParametricRoleHOW&#45;&gt;Metamodel::MultiMethodContainer</title>
<path fill="none" stroke="#6666ff" d="M794.8,-823.56C800.14,-875.64 814.99,-1020.55 814.99,-1020.55 814.99,-1020.55 803.48,-1227.02 799.19,-1304.03"/>
<polygon fill="#6666ff" stroke="#6666ff" points="795.68,-1304.23 798.61,-1314.41 802.67,-1304.62 795.68,-1304.23"/>
</g>
<!-- Metamodel::ParametricRoleHOW&#45;&gt;Metamodel::RoleContainer -->
<g id="edge49" class="edge">
<title>Metamodel::ParametricRoleHOW&#45;&gt;Metamodel::RoleContainer</title>
<path fill="none" stroke="#6666ff" d="M684.28,-816.78C603,-825.45 492.43,-837.24 411.86,-845.84"/>
<polygon fill="#6666ff" stroke="#6666ff" points="411.26,-842.38 401.69,-846.92 412,-849.34 411.26,-842.38"/>
</g>
<!-- Metamodel::ParametricRoleHOW&#45;&gt;Metamodel::MultipleInheritance -->
<g id="edge50" class="edge">
<title>Metamodel::ParametricRoleHOW&#45;&gt;Metamodel::MultipleInheritance</title>
<path fill="none" stroke="#6666ff" d="M802.27,-823.37C831.06,-879.31 918.45,-1049.14 952.79,-1115.86"/>
<polygon fill="#6666ff" stroke="#6666ff" points="949.77,-1117.64 957.46,-1124.93 955.99,-1114.44 949.77,-1117.64"/>
</g>
<!-- Metamodel::ParametricRoleHOW&#45;&gt;Metamodel::RolePunning -->
<g id="edge53" class="edge">
<title>Metamodel::ParametricRoleHOW&#45;&gt;Metamodel::RolePunning</title>
<path fill="none" stroke="#6666ff" d="M793.08,-787C793.84,-702.77 797.03,-350.43 797.96,-247.19"/>
<polygon fill="#6666ff" stroke="#6666ff" points="801.46,-246.95 798.05,-236.92 794.46,-246.89 801.46,-246.95"/>
</g>
<!-- Metamodel::NativeHOW -->
<g id="node31" class="node">
<title>Metamodel::NativeHOW</title>
<g id="a_node31"><a xlink:href="/type/Metamodel::NativeHOW" xlink:title="Metamodel::NativeHOW">
<ellipse fill="none" stroke="#000000" cx="706.8" cy="-1020.37" rx="106.68" ry="18"/>
<text text-anchor="middle" x="706.8" y="-1016.67" font-family="FreeSans" font-size="14.00" fill="#000000">Metamodel::NativeHOW</text>
</a>
</g>
</g>
<!-- Metamodel::NativeHOW&#45;&gt;Metamodel::Documenting -->
<g id="edge55" class="edge">
<title>Metamodel::NativeHOW&#45;&gt;Metamodel::Documenting</title>
<path fill="none" stroke="#6666ff" d="M741.33,-1003.18C804.25,-971.85 937.44,-905.52 1006.65,-871.06"/>
<polygon fill="#6666ff" stroke="#6666ff" points="1008.59,-874 1015.98,-866.41 1005.47,-867.74 1008.59,-874"/>
</g>
<!-- Metamodel::NativeHOW&#45;&gt;Any -->
<g id="edge8" class="edge">
<title>Metamodel::NativeHOW&#45;&gt;Any</title>
<path fill="none" stroke="#000000" d="M764.93,-1005.13C867.75,-978.16 1078.66,-922.84 1161.89,-901.01"/>
<polygon fill="#000000" stroke="#000000" points="1162.84,-904.38 1171.63,-898.45 1161.06,-897.61 1162.84,-904.38"/>
</g>
<!-- Metamodel::NativeHOW&#45;&gt;Metamodel::Naming -->
<g id="edge54" class="edge">
<title>Metamodel::NativeHOW&#45;&gt;Metamodel::Naming</title>
<path fill="none" stroke="#6666ff" d="M725.97,-1002.41C781.1,-950.71 936.2,-805.3 936.2,-805.3 936.2,-805.3 942.44,-796.78 949.44,-787.23"/>
<polygon fill="#6666ff" stroke="#6666ff" points="952.28,-789.27 955.37,-779.13 946.64,-785.13 952.28,-789.27"/>
</g>
<!-- Metamodel::NativeHOW&#45;&gt;Metamodel::Stashing -->
<g id="edge57" class="edge">
<title>Metamodel::NativeHOW&#45;&gt;Metamodel::Stashing</title>
<path fill="none" stroke="#6666ff" d="M702.03,-1002.39C688.29,-950.65 649.63,-805.1 649.63,-805.1 649.63,-805.1 642.82,-746.64 638.59,-710.36"/>
<polygon fill="#6666ff" stroke="#6666ff" points="642.06,-709.88 637.42,-700.35 635.1,-710.69 642.06,-709.88"/>
</g>
<!-- Metamodel::NativeHOW&#45;&gt;Metamodel::Versioning -->
<g id="edge56" class="edge">
<title>Metamodel::NativeHOW&#45;&gt;Metamodel::Versioning</title>
<path fill="none" stroke="#6666ff" d="M692.8,-1002.15C656.75,-955.25 560.63,-830.17 518.54,-775.41"/>
<polygon fill="#6666ff" stroke="#6666ff" points="521.13,-773.04 512.27,-767.24 515.58,-777.31 521.13,-773.04"/>
</g>
<!-- Metamodel::NativeHOW&#45;&gt;Metamodel::MultipleInheritance -->
<g id="edge58" class="edge">
<title>Metamodel::NativeHOW&#45;&gt;Metamodel::MultipleInheritance</title>
<path fill="none" stroke="#6666ff" d="M742.96,-1037.45C789.47,-1059.42 870.29,-1097.59 921.05,-1121.56"/>
<polygon fill="#6666ff" stroke="#6666ff" points="919.63,-1124.76 930.16,-1125.86 922.62,-1118.43 919.63,-1124.76"/>
</g>
<!-- Metamodel::NativeHOW&#45;&gt;Metamodel::C3MRO -->
<g id="edge59" class="edge">
<title>Metamodel::NativeHOW&#45;&gt;Metamodel::C3MRO</title>
<path fill="none" stroke="#6666ff" d="M694.01,-1038.48C649.48,-1101.53 501.09,-1311.58 448.64,-1385.84"/>
<polygon fill="#6666ff" stroke="#6666ff" points="445.64,-1384.01 442.73,-1394.2 451.36,-1388.05 445.64,-1384.01"/>
</g>
<!-- Metamodel::NativeHOW&#45;&gt;Metamodel::MROBasedMethodDispatch -->
<g id="edge60" class="edge">
<title>Metamodel::NativeHOW&#45;&gt;Metamodel::MROBasedMethodDispatch</title>
<path fill="none" stroke="#6666ff" d="M694.09,-1038.49C661.33,-1085.13 576.64,-1205.75 576.64,-1205.75 576.64,-1205.75 617.6,-1432.25 632.14,-1512.68"/>
<polygon fill="#6666ff" stroke="#6666ff" points="628.71,-1513.38 633.93,-1522.6 635.6,-1512.13 628.71,-1513.38"/>
</g>
<!-- Metamodel::NativeHOW&#45;&gt;Metamodel::MROBasedTypeChecking -->
<g id="edge61" class="edge">
<title>Metamodel::NativeHOW&#45;&gt;Metamodel::MROBasedTypeChecking</title>
<path fill="none" stroke="#6666ff" d="M677.69,-1037.7C614.48,-1075.32 464.66,-1164.49 393.49,-1206.85"/>
<polygon fill="#6666ff" stroke="#6666ff" points="391.61,-1203.9 384.8,-1212.02 395.19,-1209.91 391.61,-1203.9"/>
</g>
</g>
</svg>
