<?xml version="1.0" encoding="UTF-8" standalone="no"?>
<!DOCTYPE svg PUBLIC "-//W3C//DTD SVG 1.1//EN"
 "http://www.w3.org/Graphics/SVG/1.1/DTD/svg11.dtd">
<!-- Generated by graphviz version 2.43.0 (0)
 -->
<!-- Title: perl6&#45;type&#45;graph Pages: 1 -->
<svg width="245pt" height="404pt"
 viewBox="0.00 0.00 244.58 404.00" xmlns="http://www.w3.org/2000/svg" xmlns:xlink="http://www.w3.org/1999/xlink">
<g id="graph0" class="graph" transform="scale(1 1) rotate(0) translate(4 400)">
<title>perl6&#45;type&#45;graph</title>
<polygon fill="#ffffff" stroke="transparent" points="-4,4 -4,-400 240.58,-400 240.58,4 -4,4"/>
<!-- X::Syntax::Regex::Unspace -->
<g id="node1" class="node">
<title>X::Syntax::Regex::Unspace</title>
<g id="a_node1"><a xlink:href="/type/X::Syntax::Regex::Unspace" xlink:title="X::Syntax::Regex::Unspace">
<ellipse fill="none" stroke="#000000" cx="118.29" cy="-18" rx="118.08" ry="18"/>
<text text-anchor="middle" x="118.29" y="-14.3" font-family="FreeSans" font-size="14.00" fill="#000000">X::Syntax::Regex::Unspace</text>
</a>
</g>
</g>
<!-- Exception -->
<g id="node4" class="node">
<title>Exception</title>
<g id="a_node4"><a xlink:href="/type/Exception" xlink:title="Exception">
<ellipse fill="none" stroke="#000000" cx="118.29" cy="-234" rx="49.29" ry="18"/>
<text text-anchor="middle" x="118.29" y="-230.3" font-family="FreeSans" font-size="14.00" fill="#000000">Exception</text>
</a>
</g>
</g>
<!-- X::Syntax::Regex::Unspace&#45;&gt;Exception -->
<g id="edge1" class="edge">
<title>X::Syntax::Regex::Unspace&#45;&gt;Exception</title>
<path fill="none" stroke="#000000" d="M112.17,-36.06C106.62,-51.55 99.29,-72 99.29,-72 99.29,-72 99.29,-108 99.29,-108 99.29,-108 108.56,-169.01 114.15,-205.78"/>
<polygon fill="#000000" stroke="#000000" points="110.72,-206.52 115.69,-215.88 117.64,-205.47 110.72,-206.52"/>
</g>
<!-- X::Syntax -->
<g id="node6" class="node">
<title>X::Syntax</title>
<g id="a_node6"><a xlink:href="/type/X::Syntax" xlink:title="X::Syntax">
<ellipse fill="none" stroke="#6666ff" cx="156.29" cy="-90" rx="48.19" ry="18"/>
<text text-anchor="middle" x="156.29" y="-86.3" font-family="FreeSans" font-size="14.00" fill="#6666ff">X::Syntax</text>
</a>
</g>
</g>
<!-- X::Syntax::Regex::Unspace&#45;&gt;X::Syntax -->
<g id="edge6" class="edge">
<title>X::Syntax::Regex::Unspace&#45;&gt;X::Syntax</title>
<path fill="none" stroke="#6666ff" d="M127.68,-36.3C132.05,-44.36 137.35,-54.11 142.18,-63.02"/>
<polygon fill="#6666ff" stroke="#6666ff" points="139.16,-64.78 147,-71.9 145.31,-61.44 139.16,-64.78"/>
</g>
<!-- Mu -->
<g id="node2" class="node">
<title>Mu</title>
<g id="a_node2"><a xlink:href="/type/Mu" xlink:title="Mu">
<ellipse fill="none" stroke="#000000" cx="118.29" cy="-378" rx="27" ry="18"/>
<text text-anchor="middle" x="118.29" y="-374.3" font-family="FreeSans" font-size="14.00" fill="#000000">Mu</text>
</a>
</g>
</g>
<!-- Any -->
<g id="node3" class="node">
<title>Any</title>
<g id="a_node3"><a xlink:href="/type/Any" xlink:title="Any">
<ellipse fill="none" stroke="#000000" cx="118.29" cy="-306" rx="27" ry="18"/>
<text text-anchor="middle" x="118.29" y="-302.3" font-family="FreeSans" font-size="14.00" fill="#000000">Any</text>
</a>
</g>
</g>
<!-- Any&#45;&gt;Mu -->
<g id="edge2" class="edge">
<title>Any&#45;&gt;Mu</title>
<path fill="none" stroke="#000000" d="M118.29,-324.3C118.29,-332.02 118.29,-341.29 118.29,-349.89"/>
<polygon fill="#000000" stroke="#000000" points="114.79,-349.9 118.29,-359.9 121.79,-349.9 114.79,-349.9"/>
</g>
<!-- Exception&#45;&gt;Any -->
<g id="edge3" class="edge">
<title>Exception&#45;&gt;Any</title>
<path fill="none" stroke="#000000" d="M118.29,-252.3C118.29,-260.02 118.29,-269.29 118.29,-277.89"/>
<polygon fill="#000000" stroke="#000000" points="114.79,-277.9 118.29,-287.9 121.79,-277.9 114.79,-277.9"/>
</g>
<!-- X::Comp -->
<g id="node5" class="node">
<title>X::Comp</title>
<g id="a_node5"><a xlink:href="/type/X::Comp" xlink:title="X::Comp">
<ellipse fill="none" stroke="#6666ff" cx="191.29" cy="-162" rx="44.69" ry="18"/>
<text text-anchor="middle" x="191.29" y="-158.3" font-family="FreeSans" font-size="14.00" fill="#6666ff">X::Comp</text>
</a>
</g>
</g>
<!-- X::Comp&#45;&gt;Exception -->
<g id="edge4" class="edge">
<title>X::Comp&#45;&gt;Exception</title>
<path fill="none" stroke="#000000" d="M174.72,-178.88C165.18,-188.04 153.01,-199.71 142.42,-209.87"/>
<polygon fill="#000000" stroke="#000000" points="139.84,-207.49 135.04,-216.94 144.68,-212.54 139.84,-207.49"/>
</g>
<!-- X::Syntax&#45;&gt;Exception -->
<g id="edge5" class="edge">
<title>X::Syntax&#45;&gt;Exception</title>
<path fill="none" stroke="#000000" d="M150.17,-108.06C144.62,-123.55 137.29,-144 137.29,-144 137.29,-144 129.64,-179.83 124.05,-206.03"/>
<polygon fill="#000000" stroke="#000000" points="120.62,-205.33 121.95,-215.84 127.46,-206.79 120.62,-205.33"/>
</g>
<!-- X::Syntax&#45;&gt;X::Comp -->
<g id="edge7" class="edge">
<title>X::Syntax&#45;&gt;X::Comp</title>
<path fill="none" stroke="#6666ff" d="M164.76,-107.95C168.85,-116.11 173.83,-126.09 178.38,-135.18"/>
<polygon fill="#6666ff" stroke="#6666ff" points="175.29,-136.83 182.9,-144.21 181.55,-133.7 175.29,-136.83"/>
</g>
</g>
</svg>
