<?xml version="1.0" encoding="UTF-8" standalone="no"?>
<!DOCTYPE svg PUBLIC "-//W3C//DTD SVG 1.1//EN"
 "http://www.w3.org/Graphics/SVG/1.1/DTD/svg11.dtd">
<!-- Generated by graphviz version 2.43.0 (0)
 -->
<!-- Title: perl6&#45;type&#45;graph Pages: 1 -->
<svg width="237pt" height="404pt"
 viewBox="0.00 0.00 236.54 404.00" xmlns="http://www.w3.org/2000/svg" xmlns:xlink="http://www.w3.org/1999/xlink">
<g id="graph0" class="graph" transform="scale(1 1) rotate(0) translate(4 400)">
<title>perl6&#45;type&#45;graph</title>
<polygon fill="white" stroke="transparent" points="-4,4 -4,-400 232.54,-400 232.54,4 -4,4"/>
<!-- X::Syntax::P5 -->
<g id="node1" class="node">
<title>X::Syntax::P5</title>
<g id="a_node1"><a xlink:href="/type/X::Syntax::P5" xlink:title="X::Syntax::P5">
<ellipse fill="none" stroke="#000000" cx="63.69" cy="-18" rx="63.89" ry="18"/>
<text text-anchor="middle" x="63.69" y="-14.3" font-family="FreeSans" font-size="14.00" fill="#000000">X::Syntax::P5</text>
</a>
</g>
</g>
<!-- Exception -->
<g id="node4" class="node">
<title>Exception</title>
<g id="a_node4"><a xlink:href="/type/Exception" xlink:title="Exception">
<ellipse fill="none" stroke="#000000" cx="86.69" cy="-234" rx="49.29" ry="18"/>
<text text-anchor="middle" x="86.69" y="-230.3" font-family="FreeSans" font-size="14.00" fill="#000000">Exception</text>
</a>
</g>
</g>
<!-- X::Syntax::P5&#45;&gt;Exception -->
<g id="edge1" class="edge">
<title>X::Syntax::P5&#45;&gt;Exception</title>
<path fill="none" stroke="#000000" d="M61.66,-36.15C62.1,-73.34 71.34,-161.63 79.17,-206.23"/>
<polygon fill="#000000" stroke="#000000" points="75.73,-206.88 81.02,-216.06 82.61,-205.59 75.73,-206.88"/>
</g>
<!-- X::Syntax::P5&#45;&gt;Exception -->
<g id="edge2" class="edge">
<title>X::Syntax::P5&#45;&gt;Exception</title>
<path fill="none" stroke="#000000" d="M69.42,-36.15C76.93,-73.17 86.62,-160.82 88.44,-205.61"/>
<polygon fill="#000000" stroke="#000000" points="84.95,-205.87 88.73,-215.77 91.95,-205.67 84.95,-205.87"/>
</g>
<!-- X::Syntax -->
<g id="node6" class="node">
<title>X::Syntax</title>
<g id="a_node6"><a xlink:href="/type/X::Syntax" xlink:title="X::Syntax">
<ellipse fill="none" stroke="#6666ff" cx="148.69" cy="-90" rx="48.19" ry="18"/>
<text text-anchor="middle" x="148.69" y="-86.3" font-family="FreeSans" font-size="14.00" fill="#6666ff">X::Syntax</text>
</a>
</g>
</g>
<!-- X::Syntax::P5&#45;&gt;X::Syntax -->
<g id="edge7" class="edge">
<title>X::Syntax::P5&#45;&gt;X::Syntax</title>
<path fill="none" stroke="#6666ff" d="M83.41,-35.24C94.83,-44.64 109.38,-56.62 121.84,-66.88"/>
<polygon fill="#6666ff" stroke="#6666ff" points="119.73,-69.68 129.67,-73.33 124.18,-64.28 119.73,-69.68"/>
</g>
<!-- Mu -->
<g id="node2" class="node">
<title>Mu</title>
<g id="a_node2"><a xlink:href="/type/Mu" xlink:title="Mu">
<ellipse fill="none" stroke="#000000" cx="86.69" cy="-378" rx="27" ry="18"/>
<text text-anchor="middle" x="86.69" y="-374.3" font-family="FreeSans" font-size="14.00" fill="#000000">Mu</text>
</a>
</g>
</g>
<!-- Any -->
<g id="node3" class="node">
<title>Any</title>
<g id="a_node3"><a xlink:href="/type/Any" xlink:title="Any">
<ellipse fill="none" stroke="#000000" cx="86.69" cy="-306" rx="27" ry="18"/>
<text text-anchor="middle" x="86.69" y="-302.3" font-family="FreeSans" font-size="14.00" fill="#000000">Any</text>
</a>
</g>
</g>
<!-- Any&#45;&gt;Mu -->
<g id="edge3" class="edge">
<title>Any&#45;&gt;Mu</title>
<path fill="none" stroke="#000000" d="M86.69,-324.3C86.69,-332.02 86.69,-341.29 86.69,-349.89"/>
<polygon fill="#000000" stroke="#000000" points="83.19,-349.9 86.69,-359.9 90.19,-349.9 83.19,-349.9"/>
</g>
<!-- Exception&#45;&gt;Any -->
<g id="edge4" class="edge">
<title>Exception&#45;&gt;Any</title>
<path fill="none" stroke="#000000" d="M86.69,-252.3C86.69,-260.02 86.69,-269.29 86.69,-277.89"/>
<polygon fill="#000000" stroke="#000000" points="83.19,-277.9 86.69,-287.9 90.19,-277.9 83.19,-277.9"/>
</g>
<!-- X::Comp -->
<g id="node5" class="node">
<title>X::Comp</title>
<g id="a_node5"><a xlink:href="/type/X::Comp" xlink:title="X::Comp">
<ellipse fill="none" stroke="#6666ff" cx="183.69" cy="-162" rx="44.69" ry="18"/>
<text text-anchor="middle" x="183.69" y="-158.3" font-family="FreeSans" font-size="14.00" fill="#6666ff">X::Comp</text>
</a>
</g>
</g>
<!-- X::Comp&#45;&gt;Exception -->
<g id="edge5" class="edge">
<title>X::Comp&#45;&gt;Exception</title>
<path fill="none" stroke="#000000" d="M162.65,-178.19C149.14,-187.94 131.4,-200.74 116.46,-211.52"/>
<polygon fill="#000000" stroke="#000000" points="114.1,-208.91 108.04,-217.6 118.19,-214.59 114.1,-208.91"/>
</g>
<!-- X::Syntax&#45;&gt;Exception -->
<g id="edge6" class="edge">
<title>X::Syntax&#45;&gt;Exception</title>
<path fill="none" stroke="#000000" d="M141.34,-107.85C130.66,-132.29 110.78,-177.83 98.17,-206.71"/>
<polygon fill="#000000" stroke="#000000" points="94.83,-205.61 94.04,-216.18 101.25,-208.41 94.83,-205.61"/>
</g>
<!-- X::Syntax&#45;&gt;X::Comp -->
<g id="edge8" class="edge">
<title>X::Syntax&#45;&gt;X::Comp</title>
<path fill="none" stroke="#6666ff" d="M157.17,-107.95C161.25,-116.11 166.24,-126.09 170.78,-135.18"/>
<polygon fill="#6666ff" stroke="#6666ff" points="167.7,-136.83 175.3,-144.21 173.96,-133.7 167.7,-136.83"/>
</g>
</g>
</svg>
