<?xml version="1.0" encoding="UTF-8" standalone="no"?>
<!DOCTYPE svg PUBLIC "-//W3C//DTD SVG 1.1//EN"
 "http://www.w3.org/Graphics/SVG/1.1/DTD/svg11.dtd">
<!-- Generated by graphviz version 2.43.0 (0)
 -->
<!-- Title: perl6&#45;type&#45;graph Pages: 1 -->
<svg width="218pt" height="404pt"
 viewBox="0.00 0.00 217.64 404.00" xmlns="http://www.w3.org/2000/svg" xmlns:xlink="http://www.w3.org/1999/xlink">
<g id="graph0" class="graph" transform="scale(1 1) rotate(0) translate(4 400)">
<title>perl6&#45;type&#45;graph</title>
<polygon fill="white" stroke="transparent" points="-4,4 -4,-400 213.64,-400 213.64,4 -4,4"/>
<!-- X::IO::Chdir -->
<g id="node1" class="node">
<title>X::IO::Chdir</title>
<g id="a_node1"><a xlink:href="/type/X::IO::Chdir" xlink:title="X::IO::Chdir">
<ellipse fill="none" stroke="#000000" cx="57.19" cy="-18" rx="57.39" ry="18"/>
<text text-anchor="middle" x="57.19" y="-14.3" font-family="FreeSans" font-size="14.00" fill="#000000">X::IO::Chdir</text>
</a>
</g>
</g>
<!-- Exception -->
<g id="node4" class="node">
<title>Exception</title>
<g id="a_node4"><a xlink:href="/type/Exception" xlink:title="Exception">
<ellipse fill="none" stroke="#000000" cx="57.19" cy="-234" rx="49.29" ry="18"/>
<text text-anchor="middle" x="57.19" y="-230.3" font-family="FreeSans" font-size="14.00" fill="#000000">Exception</text>
</a>
</g>
</g>
<!-- X::IO::Chdir&#45;&gt;Exception -->
<g id="edge1" class="edge">
<title>X::IO::Chdir&#45;&gt;Exception</title>
<path fill="none" stroke="#000000" d="M49.44,-36.15C42.35,-73.26 41.82,-161.25 47.86,-205.95"/>
<polygon fill="#000000" stroke="#000000" points="44.44,-206.75 49.48,-216.06 51.35,-205.64 44.44,-206.75"/>
</g>
<!-- X::IO::Chdir&#45;&gt;Exception -->
<g id="edge2" class="edge">
<title>X::IO::Chdir&#45;&gt;Exception</title>
<path fill="none" stroke="#000000" d="M57.19,-36.15C57.19,-73.17 57.19,-160.82 57.19,-205.61"/>
<polygon fill="#000000" stroke="#000000" points="53.7,-205.77 57.19,-215.77 60.7,-205.77 53.7,-205.77"/>
</g>
<!-- X::IO::Chdir&#45;&gt;Exception -->
<g id="edge3" class="edge">
<title>X::IO::Chdir&#45;&gt;Exception</title>
<path fill="none" stroke="#000000" d="M64.95,-36.15C72.04,-73.26 72.57,-161.25 66.53,-205.95"/>
<polygon fill="#000000" stroke="#000000" points="63.04,-205.64 64.91,-216.06 69.95,-206.75 63.04,-205.64"/>
</g>
<!-- X::IO -->
<g id="node6" class="node">
<title>X::IO</title>
<g id="a_node6"><a xlink:href="/type/X::IO" xlink:title="X::IO">
<ellipse fill="none" stroke="#6666ff" cx="134.19" cy="-90" rx="31.4" ry="18"/>
<text text-anchor="middle" x="134.19" y="-86.3" font-family="FreeSans" font-size="14.00" fill="#6666ff">X::IO</text>
</a>
</g>
</g>
<!-- X::IO::Chdir&#45;&gt;X::IO -->
<g id="edge8" class="edge">
<title>X::IO::Chdir&#45;&gt;X::IO</title>
<path fill="none" stroke="#6666ff" d="M75.05,-35.24C85.67,-44.88 99.25,-57.23 110.72,-67.66"/>
<polygon fill="#6666ff" stroke="#6666ff" points="108.51,-70.38 118.26,-74.52 113.22,-65.2 108.51,-70.38"/>
</g>
<!-- Mu -->
<g id="node2" class="node">
<title>Mu</title>
<g id="a_node2"><a xlink:href="/type/Mu" xlink:title="Mu">
<ellipse fill="none" stroke="#000000" cx="57.19" cy="-378" rx="27" ry="18"/>
<text text-anchor="middle" x="57.19" y="-374.3" font-family="FreeSans" font-size="14.00" fill="#000000">Mu</text>
</a>
</g>
</g>
<!-- Any -->
<g id="node3" class="node">
<title>Any</title>
<g id="a_node3"><a xlink:href="/type/Any" xlink:title="Any">
<ellipse fill="none" stroke="#000000" cx="57.19" cy="-306" rx="27" ry="18"/>
<text text-anchor="middle" x="57.19" y="-302.3" font-family="FreeSans" font-size="14.00" fill="#000000">Any</text>
</a>
</g>
</g>
<!-- Any&#45;&gt;Mu -->
<g id="edge4" class="edge">
<title>Any&#45;&gt;Mu</title>
<path fill="none" stroke="#000000" d="M57.19,-324.3C57.19,-332.02 57.19,-341.29 57.19,-349.89"/>
<polygon fill="#000000" stroke="#000000" points="53.7,-349.9 57.19,-359.9 60.7,-349.9 53.7,-349.9"/>
</g>
<!-- Exception&#45;&gt;Any -->
<g id="edge5" class="edge">
<title>Exception&#45;&gt;Any</title>
<path fill="none" stroke="#000000" d="M57.19,-252.3C57.19,-260.02 57.19,-269.29 57.19,-277.89"/>
<polygon fill="#000000" stroke="#000000" points="53.7,-277.9 57.19,-287.9 60.7,-277.9 53.7,-277.9"/>
</g>
<!-- X::OS -->
<g id="node5" class="node">
<title>X::OS</title>
<g id="a_node5"><a xlink:href="/type/X::OS" xlink:title="X::OS">
<ellipse fill="none" stroke="#6666ff" cx="175.19" cy="-162" rx="34.39" ry="18"/>
<text text-anchor="middle" x="175.19" y="-158.3" font-family="FreeSans" font-size="14.00" fill="#6666ff">X::OS</text>
</a>
</g>
</g>
<!-- X::OS&#45;&gt;Exception -->
<g id="edge6" class="edge">
<title>X::OS&#45;&gt;Exception</title>
<path fill="none" stroke="#000000" d="M153.28,-176C135.71,-186.43 110.76,-201.23 90.69,-213.13"/>
<polygon fill="#000000" stroke="#000000" points="88.67,-210.26 81.85,-218.37 92.24,-216.28 88.67,-210.26"/>
</g>
<!-- X::IO&#45;&gt;Exception -->
<g id="edge7" class="edge">
<title>X::IO&#45;&gt;Exception</title>
<path fill="none" stroke="#000000" d="M125.73,-107.74C112.7,-133.52 89.19,-180 89.19,-180 89.19,-180 80.78,-193.93 72.59,-207.51"/>
<polygon fill="#000000" stroke="#000000" points="69.49,-205.86 67.32,-216.23 75.48,-209.48 69.49,-205.86"/>
</g>
<!-- X::IO&#45;&gt;X::OS -->
<g id="edge9" class="edge">
<title>X::IO&#45;&gt;X::OS</title>
<path fill="none" stroke="#6666ff" d="M143.7,-107.24C148.65,-115.68 154.81,-126.2 160.37,-135.69"/>
<polygon fill="#6666ff" stroke="#6666ff" points="157.38,-137.51 165.45,-144.37 163.42,-133.97 157.38,-137.51"/>
</g>
</g>
</svg>
