<?xml version="1.0" encoding="UTF-8" standalone="no"?>
<!DOCTYPE svg PUBLIC "-//W3C//DTD SVG 1.1//EN"
 "http://www.w3.org/Graphics/SVG/1.1/DTD/svg11.dtd">
<!-- Generated by graphviz version 2.43.0 (0)
 -->
<!-- Title: perl6&#45;type&#45;graph Pages: 1 -->
<svg width="209pt" height="404pt"
 viewBox="0.00 0.00 209.04 404.00" xmlns="http://www.w3.org/2000/svg" xmlns:xlink="http://www.w3.org/1999/xlink">
<g id="graph0" class="graph" transform="scale(1 1) rotate(0) translate(4 400)">
<title>perl6&#45;type&#45;graph</title>
<polygon fill="#ffffff" stroke="transparent" points="-4,4 -4,-400 205.04,-400 205.04,4 -4,4"/>
<!-- X::Syntax::Missing -->
<g id="node1" class="node">
<title>X::Syntax::Missing</title>
<g id="a_node1"><a xlink:href="/type/X::Syntax::Missing" xlink:title="X::Syntax::Missing">
<ellipse fill="none" stroke="#000000" cx="83.19" cy="-18" rx="83.39" ry="18"/>
<text text-anchor="middle" x="83.19" y="-14.3" font-family="FreeSans" font-size="14.00" fill="#000000">X::Syntax::Missing</text>
</a>
</g>
</g>
<!-- Exception -->
<g id="node4" class="node">
<title>Exception</title>
<g id="a_node4"><a xlink:href="/type/Exception" xlink:title="Exception">
<ellipse fill="none" stroke="#000000" cx="83.19" cy="-234" rx="49.29" ry="18"/>
<text text-anchor="middle" x="83.19" y="-230.3" font-family="FreeSans" font-size="14.00" fill="#000000">Exception</text>
</a>
</g>
</g>
<!-- X::Syntax::Missing&#45;&gt;Exception -->
<g id="edge1" class="edge">
<title>X::Syntax::Missing&#45;&gt;Exception</title>
<path fill="none" stroke="#000000" d="M77.08,-36.06C71.52,-51.55 64.19,-72 64.19,-72 64.19,-72 64.19,-108 64.19,-108 64.19,-108 73.47,-169.01 79.06,-205.78"/>
<polygon fill="#000000" stroke="#000000" points="75.63,-206.52 80.59,-215.88 82.55,-205.47 75.63,-206.52"/>
</g>
<!-- X::Syntax -->
<g id="node6" class="node">
<title>X::Syntax</title>
<g id="a_node6"><a xlink:href="/type/X::Syntax" xlink:title="X::Syntax">
<ellipse fill="none" stroke="#6666ff" cx="121.19" cy="-90" rx="48.19" ry="18"/>
<text text-anchor="middle" x="121.19" y="-86.3" font-family="FreeSans" font-size="14.00" fill="#6666ff">X::Syntax</text>
</a>
</g>
</g>
<!-- X::Syntax::Missing&#45;&gt;X::Syntax -->
<g id="edge6" class="edge">
<title>X::Syntax::Missing&#45;&gt;X::Syntax</title>
<path fill="none" stroke="#6666ff" d="M92.39,-35.95C96.83,-44.11 102.24,-54.09 107.17,-63.18"/>
<polygon fill="#6666ff" stroke="#6666ff" points="104.23,-65.09 112.08,-72.21 110.38,-61.75 104.23,-65.09"/>
</g>
<!-- Mu -->
<g id="node2" class="node">
<title>Mu</title>
<g id="a_node2"><a xlink:href="/type/Mu" xlink:title="Mu">
<ellipse fill="none" stroke="#000000" cx="83.19" cy="-378" rx="27" ry="18"/>
<text text-anchor="middle" x="83.19" y="-374.3" font-family="FreeSans" font-size="14.00" fill="#000000">Mu</text>
</a>
</g>
</g>
<!-- Any -->
<g id="node3" class="node">
<title>Any</title>
<g id="a_node3"><a xlink:href="/type/Any" xlink:title="Any">
<ellipse fill="none" stroke="#000000" cx="83.19" cy="-306" rx="27" ry="18"/>
<text text-anchor="middle" x="83.19" y="-302.3" font-family="FreeSans" font-size="14.00" fill="#000000">Any</text>
</a>
</g>
</g>
<!-- Any&#45;&gt;Mu -->
<g id="edge2" class="edge">
<title>Any&#45;&gt;Mu</title>
<path fill="none" stroke="#000000" d="M83.19,-324.3C83.19,-332.02 83.19,-341.29 83.19,-349.89"/>
<polygon fill="#000000" stroke="#000000" points="79.69,-349.9 83.19,-359.9 86.69,-349.9 79.69,-349.9"/>
</g>
<!-- Exception&#45;&gt;Any -->
<g id="edge3" class="edge">
<title>Exception&#45;&gt;Any</title>
<path fill="none" stroke="#000000" d="M83.19,-252.3C83.19,-260.02 83.19,-269.29 83.19,-277.89"/>
<polygon fill="#000000" stroke="#000000" points="79.69,-277.9 83.19,-287.9 86.69,-277.9 79.69,-277.9"/>
</g>
<!-- X::Comp -->
<g id="node5" class="node">
<title>X::Comp</title>
<g id="a_node5"><a xlink:href="/type/X::Comp" xlink:title="X::Comp">
<ellipse fill="none" stroke="#6666ff" cx="156.19" cy="-162" rx="44.69" ry="18"/>
<text text-anchor="middle" x="156.19" y="-158.3" font-family="FreeSans" font-size="14.00" fill="#6666ff">X::Comp</text>
</a>
</g>
</g>
<!-- X::Comp&#45;&gt;Exception -->
<g id="edge4" class="edge">
<title>X::Comp&#45;&gt;Exception</title>
<path fill="none" stroke="#000000" d="M139.63,-178.88C130.08,-188.04 117.91,-199.71 107.32,-209.87"/>
<polygon fill="#000000" stroke="#000000" points="104.74,-207.49 99.94,-216.94 109.58,-212.54 104.74,-207.49"/>
</g>
<!-- X::Syntax&#45;&gt;Exception -->
<g id="edge5" class="edge">
<title>X::Syntax&#45;&gt;Exception</title>
<path fill="none" stroke="#000000" d="M115.08,-108.06C109.52,-123.55 102.19,-144 102.19,-144 102.19,-144 94.54,-179.83 88.95,-206.03"/>
<polygon fill="#000000" stroke="#000000" points="85.52,-205.33 86.86,-215.84 92.37,-206.79 85.52,-205.33"/>
</g>
<!-- X::Syntax&#45;&gt;X::Comp -->
<g id="edge7" class="edge">
<title>X::Syntax&#45;&gt;X::Comp</title>
<path fill="none" stroke="#6666ff" d="M129.67,-107.95C133.75,-116.11 138.74,-126.09 143.28,-135.18"/>
<polygon fill="#6666ff" stroke="#6666ff" points="140.2,-136.83 147.8,-144.21 146.46,-133.7 140.2,-136.83"/>
</g>
</g>
</svg>
