<?xml version="1.0" encoding="UTF-8" standalone="no"?>
<!DOCTYPE svg PUBLIC "-//W3C//DTD SVG 1.1//EN"
 "http://www.w3.org/Graphics/SVG/1.1/DTD/svg11.dtd">
<!-- Generated by graphviz version 2.43.0 (0)
 -->
<!-- Title: perl6&#45;type&#45;graph Pages: 1 -->
<svg width="1300pt" height="936pt"
 viewBox="0.00 0.00 1300.11 936.34" xmlns="http://www.w3.org/2000/svg" xmlns:xlink="http://www.w3.org/1999/xlink">
<g id="graph0" class="graph" transform="scale(1 1) rotate(0) translate(4 932.34)">
<title>perl6&#45;type&#45;graph</title>
<polygon fill="white" stroke="transparent" points="-4,4 -4,-932.34 1296.11,-932.34 1296.11,4 -4,4"/>
<!-- Metamodel::TypePretense -->
<g id="node1" class="node">
<title>Metamodel::TypePretense</title>
<g id="a_node1"><a xlink:href="/type/Metamodel::TypePretense" xlink:title="Metamodel::TypePretense">
<ellipse fill="none" stroke="#6666ff" cx="580.95" cy="-514.32" rx="114.28" ry="18"/>
<text text-anchor="middle" x="580.95" y="-510.62" font-family="FreeSans" font-size="14.00" fill="#6666ff">Metamodel::TypePretense</text>
</a>
</g>
</g>
<!-- Mu -->
<g id="node2" class="node">
<title>Mu</title>
<g id="a_node2"><a xlink:href="/type/Mu" xlink:title="Mu">
<ellipse fill="none" stroke="#000000" cx="791.19" cy="-910.34" rx="27" ry="18"/>
<text text-anchor="middle" x="791.19" y="-906.64" font-family="FreeSans" font-size="14.00" fill="#000000">Mu</text>
</a>
</g>
</g>
<!-- Any -->
<g id="node3" class="node">
<title>Any</title>
<g id="a_node3"><a xlink:href="/type/Any" xlink:title="Any">
<ellipse fill="none" stroke="#000000" cx="652.56" cy="-582.5" rx="27" ry="18"/>
<text text-anchor="middle" x="652.56" y="-578.8" font-family="FreeSans" font-size="14.00" fill="#000000">Any</text>
</a>
</g>
</g>
<!-- Any&#45;&gt;Mu -->
<g id="edge1" class="edge">
<title>Any&#45;&gt;Mu</title>
<path fill="none" stroke="#000000" d="M660.02,-600.12C682.86,-654.16 752.04,-817.76 779.64,-883.02"/>
<polygon fill="#000000" stroke="#000000" points="776.58,-884.78 783.7,-892.62 783.03,-882.05 776.58,-884.78"/>
</g>
<!-- Metamodel::Naming -->
<g id="node4" class="node">
<title>Metamodel::Naming</title>
<g id="a_node4"><a xlink:href="/type/Metamodel::Naming" xlink:title="Metamodel::Naming">
<ellipse fill="none" stroke="#6666ff" cx="600.42" cy="-407.74" rx="90.18" ry="18"/>
<text text-anchor="middle" x="600.42" y="-404.04" font-family="FreeSans" font-size="14.00" fill="#6666ff">Metamodel::Naming</text>
</a>
</g>
</g>
<!-- Metamodel::Stashing -->
<g id="node5" class="node">
<title>Metamodel::Stashing</title>
<g id="a_node5"><a xlink:href="/type/Metamodel::Stashing" xlink:title="Metamodel::Stashing">
<ellipse fill="none" stroke="#6666ff" cx="581" cy="-326.9" rx="93.68" ry="18"/>
<text text-anchor="middle" x="581" y="-323.2" font-family="FreeSans" font-size="14.00" fill="#6666ff">Metamodel::Stashing</text>
</a>
</g>
</g>
<!-- Metamodel::RolePunning -->
<g id="node6" class="node">
<title>Metamodel::RolePunning</title>
<g id="a_node6"><a xlink:href="/type/Metamodel::RolePunning" xlink:title="Metamodel::RolePunning">
<ellipse fill="none" stroke="#6666ff" cx="821.99" cy="-661.25" rx="109.68" ry="18"/>
<text text-anchor="middle" x="821.99" y="-657.55" font-family="FreeSans" font-size="14.00" fill="#6666ff">Metamodel::RolePunning</text>
</a>
</g>
</g>
<!-- Metamodel::BoolificationProtocol -->
<g id="node7" class="node">
<title>Metamodel::BoolificationProtocol</title>
<g id="a_node7"><a xlink:href="/type/Metamodel::BoolificationProtocol" xlink:title="Metamodel::BoolificationProtocol">
<ellipse fill="none" stroke="#6666ff" cx="235.31" cy="-873.56" rx="139.18" ry="18"/>
<text text-anchor="middle" x="235.31" y="-869.86" font-family="FreeSans" font-size="14.00" fill="#6666ff">Metamodel::BoolificationProtocol</text>
</a>
</g>
</g>
<!-- Metamodel::ParametricRoleGroupHOW -->
<g id="node8" class="node">
<title>Metamodel::ParametricRoleGroupHOW</title>
<g id="a_node8"><a xlink:href="/type/Metamodel::ParametricRoleGroupHOW" xlink:title="Metamodel::ParametricRoleGroupHOW">
<ellipse fill="none" stroke="#000000" cx="461.76" cy="-678.14" rx="166.27" ry="18"/>
<text text-anchor="middle" x="461.76" y="-674.44" font-family="FreeSans" font-size="14.00" fill="#000000">Metamodel::ParametricRoleGroupHOW</text>
</a>
</g>
</g>
<!-- Metamodel::ParametricRoleGroupHOW&#45;&gt;Metamodel::TypePretense -->
<g id="edge9" class="edge">
<title>Metamodel::ParametricRoleGroupHOW&#45;&gt;Metamodel::TypePretense</title>
<path fill="none" stroke="#6666ff" d="M474.97,-659.98C496,-631.07 537.2,-574.45 561.58,-540.95"/>
<polygon fill="#6666ff" stroke="#6666ff" points="564.63,-542.71 567.68,-532.56 558.97,-538.59 564.63,-542.71"/>
</g>
<!-- Metamodel::ParametricRoleGroupHOW&#45;&gt;Any -->
<g id="edge2" class="edge">
<title>Metamodel::ParametricRoleGroupHOW&#45;&gt;Any</title>
<path fill="none" stroke="#000000" d="M497.2,-660.37C533.06,-642.4 587.92,-614.9 621.94,-597.84"/>
<polygon fill="#000000" stroke="#000000" points="623.58,-600.94 630.96,-593.33 620.45,-594.68 623.58,-600.94"/>
</g>
<!-- Metamodel::ParametricRoleGroupHOW&#45;&gt;Metamodel::Naming -->
<g id="edge7" class="edge">
<title>Metamodel::ParametricRoleGroupHOW&#45;&gt;Metamodel::Naming</title>
<path fill="none" stroke="#6666ff" d="M462.11,-659.97C462.95,-617.31 464.96,-514.26 464.96,-514.26 464.96,-514.26 530,-463.12 569.94,-431.7"/>
<polygon fill="#6666ff" stroke="#6666ff" points="572.36,-434.26 578.05,-425.33 568.03,-428.76 572.36,-434.26"/>
</g>
<!-- Metamodel::ParametricRoleGroupHOW&#45;&gt;Metamodel::Stashing -->
<g id="edge8" class="edge">
<title>Metamodel::ParametricRoleGroupHOW&#45;&gt;Metamodel::Stashing</title>
<path fill="none" stroke="#6666ff" d="M462.11,-659.97C462.95,-617.31 464.96,-514.26 464.96,-514.26 464.96,-514.26 508.48,-407.6 508.48,-407.6 508.48,-407.6 536.78,-376.11 558.03,-352.47"/>
<polygon fill="#6666ff" stroke="#6666ff" points="560.83,-354.59 564.91,-344.81 555.62,-349.91 560.83,-354.59"/>
</g>
<!-- Metamodel::ParametricRoleGroupHOW&#45;&gt;Metamodel::RolePunning -->
<g id="edge10" class="edge">
<title>Metamodel::ParametricRoleGroupHOW&#45;&gt;Metamodel::RolePunning</title>
<path fill="none" stroke="#6666ff" d="M614.53,-670.97C645.15,-669.54 676.85,-668.05 705.97,-666.69"/>
<polygon fill="#6666ff" stroke="#6666ff" points="706.34,-670.17 716.16,-666.21 706.01,-663.18 706.34,-670.17"/>
</g>
<!-- Metamodel::ParametricRoleGroupHOW&#45;&gt;Metamodel::BoolificationProtocol -->
<g id="edge11" class="edge">
<title>Metamodel::ParametricRoleGroupHOW&#45;&gt;Metamodel::BoolificationProtocol</title>
<path fill="none" stroke="#6666ff" d="M440.86,-696.17C400.16,-731.29 310.23,-808.9 263.99,-848.81"/>
<polygon fill="#6666ff" stroke="#6666ff" points="261.44,-846.39 256.16,-855.57 266.01,-851.69 261.44,-846.39"/>
</g>
<!-- Metamodel::Documenting -->
<g id="node9" class="node">
<title>Metamodel::Documenting</title>
<g id="a_node9"><a xlink:href="/type/Metamodel::Documenting" xlink:title="Metamodel::Documenting">
<ellipse fill="none" stroke="#6666ff" cx="573.68" cy="-137.78" rx="111.28" ry="18"/>
<text text-anchor="middle" x="573.68" y="-134.08" font-family="FreeSans" font-size="14.00" fill="#6666ff">Metamodel::Documenting</text>
</a>
</g>
</g>
<!-- Metamodel::Versioning -->
<g id="node10" class="node">
<title>Metamodel::Versioning</title>
<g id="a_node10"><a xlink:href="/type/Metamodel::Versioning" xlink:title="Metamodel::Versioning">
<ellipse fill="none" stroke="#6666ff" cx="680.44" cy="-64.76" rx="100.98" ry="18"/>
<text text-anchor="middle" x="680.44" y="-61.06" font-family="FreeSans" font-size="14.00" fill="#6666ff">Metamodel::Versioning</text>
</a>
</g>
</g>
<!-- Metamodel::MethodContainer -->
<g id="node11" class="node">
<title>Metamodel::MethodContainer</title>
<g id="a_node11"><a xlink:href="/type/Metamodel::MethodContainer" xlink:title="Metamodel::MethodContainer">
<ellipse fill="none" stroke="#6666ff" cx="1008.13" cy="-83.64" rx="127.28" ry="18"/>
<text text-anchor="middle" x="1008.13" y="-79.94" font-family="FreeSans" font-size="14.00" fill="#6666ff">Metamodel::MethodContainer</text>
</a>
</g>
</g>
<!-- Metamodel::PrivateMethodContainer -->
<g id="node12" class="node">
<title>Metamodel::PrivateMethodContainer</title>
<g id="a_node12"><a xlink:href="/type/Metamodel::PrivateMethodContainer" xlink:title="Metamodel::PrivateMethodContainer">
<ellipse fill="none" stroke="#6666ff" cx="885.38" cy="-18" rx="154.87" ry="18"/>
<text text-anchor="middle" x="885.38" y="-14.3" font-family="FreeSans" font-size="14.00" fill="#6666ff">Metamodel::PrivateMethodContainer</text>
</a>
</g>
</g>
<!-- Metamodel::MultiMethodContainer -->
<g id="node13" class="node">
<title>Metamodel::MultiMethodContainer</title>
<g id="a_node13"><a xlink:href="/type/Metamodel::MultiMethodContainer" xlink:title="Metamodel::MultiMethodContainer">
<ellipse fill="none" stroke="#6666ff" cx="1145.87" cy="-319.6" rx="146.47" ry="18"/>
<text text-anchor="middle" x="1145.87" y="-315.9" font-family="FreeSans" font-size="14.00" fill="#6666ff">Metamodel::MultiMethodContainer</text>
</a>
</g>
</g>
<!-- Metamodel::AttributeContainer -->
<g id="node14" class="node">
<title>Metamodel::AttributeContainer</title>
<g id="a_node14"><a xlink:href="/type/Metamodel::AttributeContainer" xlink:title="Metamodel::AttributeContainer">
<ellipse fill="none" stroke="#6666ff" cx="1135.6" cy="-455.77" rx="129.98" ry="18"/>
<text text-anchor="middle" x="1135.6" y="-452.07" font-family="FreeSans" font-size="14.00" fill="#6666ff">Metamodel::AttributeContainer</text>
</a>
</g>
</g>
<!-- Metamodel::RoleContainer -->
<g id="node15" class="node">
<title>Metamodel::RoleContainer</title>
<g id="a_node15"><a xlink:href="/type/Metamodel::RoleContainer" xlink:title="Metamodel::RoleContainer">
<ellipse fill="none" stroke="#6666ff" cx="1073.06" cy="-572.33" rx="115.88" ry="18"/>
<text text-anchor="middle" x="1073.06" y="-568.63" font-family="FreeSans" font-size="14.00" fill="#6666ff">Metamodel::RoleContainer</text>
</a>
</g>
</g>
<!-- Metamodel::MultipleInheritance -->
<g id="node16" class="node">
<title>Metamodel::MultipleInheritance</title>
<g id="a_node16"><a xlink:href="/type/Metamodel::MultipleInheritance" xlink:title="Metamodel::MultipleInheritance">
<ellipse fill="none" stroke="#6666ff" cx="1101.4" cy="-187.34" rx="133.78" ry="18"/>
<text text-anchor="middle" x="1101.4" y="-183.64" font-family="FreeSans" font-size="14.00" fill="#6666ff">Metamodel::MultipleInheritance</text>
</a>
</g>
</g>
<!-- Metamodel::ParametricRoleHOW -->
<g id="node17" class="node">
<title>Metamodel::ParametricRoleHOW</title>
<g id="a_node17"><a xlink:href="/type/Metamodel::ParametricRoleHOW" xlink:title="Metamodel::ParametricRoleHOW">
<ellipse fill="none" stroke="#000000" cx="849.91" cy="-340.62" rx="141.88" ry="18"/>
<text text-anchor="middle" x="849.91" y="-336.92" font-family="FreeSans" font-size="14.00" fill="#000000">Metamodel::ParametricRoleHOW</text>
</a>
</g>
</g>
<!-- Metamodel::ParametricRoleHOW&#45;&gt;Metamodel::TypePretense -->
<g id="edge22" class="edge">
<title>Metamodel::ParametricRoleHOW&#45;&gt;Metamodel::TypePretense</title>
<path fill="none" stroke="#6666ff" d="M822.4,-358.39C773.44,-390.01 671.27,-455.99 616.86,-491.13"/>
<polygon fill="#6666ff" stroke="#6666ff" points="614.73,-488.34 608.23,-496.7 618.53,-494.22 614.73,-488.34"/>
</g>
<!-- Metamodel::ParametricRoleHOW&#45;&gt;Any -->
<g id="edge3" class="edge">
<title>Metamodel::ParametricRoleHOW&#45;&gt;Any</title>
<path fill="none" stroke="#000000" d="M835.08,-358.8C799.9,-401.92 711.42,-510.36 672.02,-558.65"/>
<polygon fill="#000000" stroke="#000000" points="669.08,-556.71 665.47,-566.67 674.51,-561.14 669.08,-556.71"/>
</g>
<!-- Metamodel::ParametricRoleHOW&#45;&gt;Metamodel::Naming -->
<g id="edge12" class="edge">
<title>Metamodel::ParametricRoleHOW&#45;&gt;Metamodel::Naming</title>
<path fill="none" stroke="#6666ff" d="M789.2,-356.95C751.47,-367.1 703,-380.14 664.63,-390.46"/>
<polygon fill="#6666ff" stroke="#6666ff" points="663.35,-387.18 654.6,-393.16 665.17,-393.94 663.35,-387.18"/>
</g>
<!-- Metamodel::ParametricRoleHOW&#45;&gt;Metamodel::Stashing -->
<g id="edge21" class="edge">
<title>Metamodel::ParametricRoleHOW&#45;&gt;Metamodel::Stashing</title>
<path fill="none" stroke="#6666ff" d="M718.22,-333.9C706.07,-333.28 693.9,-332.66 682.09,-332.06"/>
<polygon fill="#6666ff" stroke="#6666ff" points="681.98,-328.55 671.81,-331.53 681.62,-335.54 681.98,-328.55"/>
</g>
<!-- Metamodel::ParametricRoleHOW&#45;&gt;Metamodel::RolePunning -->
<g id="edge23" class="edge">
<title>Metamodel::ParametricRoleHOW&#45;&gt;Metamodel::RolePunning</title>
<path fill="none" stroke="#6666ff" d="M848.33,-358.78C843.7,-412 830.12,-567.94 824.49,-632.62"/>
<polygon fill="#6666ff" stroke="#6666ff" points="820.97,-632.63 823.59,-642.89 827.95,-633.23 820.97,-632.63"/>
</g>
<!-- Metamodel::ParametricRoleHOW&#45;&gt;Metamodel::Documenting -->
<g id="edge13" class="edge">
<title>Metamodel::ParametricRoleHOW&#45;&gt;Metamodel::Documenting</title>
<path fill="none" stroke="#6666ff" d="M825.4,-322.62C775.41,-285.91 661.73,-202.44 605.87,-161.42"/>
<polygon fill="#6666ff" stroke="#6666ff" points="607.87,-158.55 597.74,-155.45 603.73,-164.19 607.87,-158.55"/>
</g>
<!-- Metamodel::ParametricRoleHOW&#45;&gt;Metamodel::Versioning -->
<g id="edge14" class="edge">
<title>Metamodel::ParametricRoleHOW&#45;&gt;Metamodel::Versioning</title>
<path fill="none" stroke="#6666ff" d="M838.8,-322.52C809.71,-275.17 731.25,-147.46 696.91,-91.56"/>
<polygon fill="#6666ff" stroke="#6666ff" points="699.82,-89.61 691.6,-82.92 693.85,-93.28 699.82,-89.61"/>
</g>
<!-- Metamodel::ParametricRoleHOW&#45;&gt;Metamodel::MethodContainer -->
<g id="edge15" class="edge">
<title>Metamodel::ParametricRoleHOW&#45;&gt;Metamodel::MethodContainer</title>
<path fill="none" stroke="#6666ff" d="M861.04,-322.55C888.44,-278.04 959.32,-162.93 991.63,-110.44"/>
<polygon fill="#6666ff" stroke="#6666ff" points="994.76,-112.04 997.02,-101.69 988.8,-108.37 994.76,-112.04"/>
</g>
<!-- Metamodel::ParametricRoleHOW&#45;&gt;Metamodel::PrivateMethodContainer -->
<g id="edge16" class="edge">
<title>Metamodel::ParametricRoleHOW&#45;&gt;Metamodel::PrivateMethodContainer</title>
<path fill="none" stroke="#6666ff" d="M851.92,-322.35C857.83,-268.67 875.14,-111.15 882.27,-46.35"/>
<polygon fill="#6666ff" stroke="#6666ff" points="885.78,-46.39 883.4,-36.07 878.83,-45.63 885.78,-46.39"/>
</g>
<!-- Metamodel::ParametricRoleHOW&#45;&gt;Metamodel::MultiMethodContainer -->
<g id="edge17" class="edge">
<title>Metamodel::ParametricRoleHOW&#45;&gt;Metamodel::MultiMethodContainer</title>
<path fill="none" stroke="#6666ff" d="M973.71,-331.83C985.23,-331.01 996.94,-330.18 1008.57,-329.35"/>
<polygon fill="#6666ff" stroke="#6666ff" points="1009.03,-332.83 1018.76,-328.63 1008.54,-325.84 1009.03,-332.83"/>
</g>
<!-- Metamodel::ParametricRoleHOW&#45;&gt;Metamodel::AttributeContainer -->
<g id="edge18" class="edge">
<title>Metamodel::ParametricRoleHOW&#45;&gt;Metamodel::AttributeContainer</title>
<path fill="none" stroke="#6666ff" d="M892.68,-357.86C943.64,-378.4 1028.73,-412.69 1083.48,-434.76"/>
<polygon fill="#6666ff" stroke="#6666ff" points="1082.42,-438.11 1093,-438.6 1085.04,-431.61 1082.42,-438.11"/>
</g>
<!-- Metamodel::ParametricRoleHOW&#45;&gt;Metamodel::RoleContainer -->
<g id="edge19" class="edge">
<title>Metamodel::ParametricRoleHOW&#45;&gt;Metamodel::RoleContainer</title>
<path fill="none" stroke="#6666ff" d="M867.42,-358.8C906.94,-399.83 1003.11,-499.7 1048.53,-546.87"/>
<polygon fill="#6666ff" stroke="#6666ff" points="1046.17,-549.46 1055.63,-554.23 1051.21,-544.6 1046.17,-549.46"/>
</g>
<!-- Metamodel::ParametricRoleHOW&#45;&gt;Metamodel::MultipleInheritance -->
<g id="edge20" class="edge">
<title>Metamodel::ParametricRoleHOW&#45;&gt;Metamodel::MultipleInheritance</title>
<path fill="none" stroke="#6666ff" d="M879.26,-322.74C924.97,-294.88 1013.17,-241.12 1063.59,-210.39"/>
<polygon fill="#6666ff" stroke="#6666ff" points="1065.53,-213.3 1072.25,-205.11 1061.89,-207.33 1065.53,-213.3"/>
</g>
<!-- Metamodel::CurriedRoleHOW -->
<g id="node18" class="node">
<title>Metamodel::CurriedRoleHOW</title>
<g id="a_node18"><a xlink:href="/type/Metamodel::CurriedRoleHOW" xlink:title="Metamodel::CurriedRoleHOW">
<ellipse fill="none" stroke="#000000" cx="614.72" cy="-835.1" rx="128.08" ry="18"/>
<text text-anchor="middle" x="614.72" y="-831.4" font-family="FreeSans" font-size="14.00" fill="#000000">Metamodel::CurriedRoleHOW</text>
</a>
</g>
</g>
<!-- Metamodel::CurriedRoleHOW&#45;&gt;Metamodel::TypePretense -->
<g id="edge25" class="edge">
<title>Metamodel::CurriedRoleHOW&#45;&gt;Metamodel::TypePretense</title>
<path fill="none" stroke="#6666ff" d="M616.47,-816.81C620.43,-775.46 629.73,-678.33 629.73,-678.33 629.73,-678.33 603.22,-589.19 589.29,-542.35"/>
<polygon fill="#6666ff" stroke="#6666ff" points="592.56,-541.09 586.36,-532.5 585.85,-543.08 592.56,-541.09"/>
</g>
<!-- Metamodel::CurriedRoleHOW&#45;&gt;Any -->
<g id="edge4" class="edge">
<title>Metamodel::CurriedRoleHOW&#45;&gt;Any</title>
<path fill="none" stroke="#000000" d="M617.44,-816.94C623.97,-773.33 640.58,-662.51 648.38,-610.39"/>
<polygon fill="#000000" stroke="#000000" points="651.85,-610.91 649.87,-600.5 644.92,-609.87 651.85,-610.91"/>
</g>
<!-- Metamodel::CurriedRoleHOW&#45;&gt;Metamodel::RolePunning -->
<g id="edge24" class="edge">
<title>Metamodel::CurriedRoleHOW&#45;&gt;Metamodel::RolePunning</title>
<path fill="none" stroke="#6666ff" d="M636.12,-817.15C673.53,-785.77 750.84,-720.93 793.01,-685.56"/>
<polygon fill="#6666ff" stroke="#6666ff" points="795.3,-688.21 800.71,-679.1 790.8,-682.85 795.3,-688.21"/>
</g>
<!-- Metamodel::MethodDelegation -->
<g id="node19" class="node">
<title>Metamodel::MethodDelegation</title>
<g id="a_node19"><a xlink:href="/type/Metamodel::MethodDelegation" xlink:title="Metamodel::MethodDelegation">
<ellipse fill="none" stroke="#6666ff" cx="131.29" cy="-241.94" rx="131.08" ry="18"/>
<text text-anchor="middle" x="131.29" y="-238.24" font-family="FreeSans" font-size="14.00" fill="#6666ff">Metamodel::MethodDelegation</text>
</a>
</g>
</g>
<!-- Metamodel::ModuleHOW -->
<g id="node20" class="node">
<title>Metamodel::ModuleHOW</title>
<g id="a_node20"><a xlink:href="/type/Metamodel::ModuleHOW" xlink:title="Metamodel::ModuleHOW">
<ellipse fill="none" stroke="#000000" cx="409.76" cy="-279.27" rx="110.48" ry="18"/>
<text text-anchor="middle" x="409.76" y="-275.57" font-family="FreeSans" font-size="14.00" fill="#000000">Metamodel::ModuleHOW</text>
</a>
</g>
</g>
<!-- Metamodel::ModuleHOW&#45;&gt;Metamodel::TypePretense -->
<g id="edge30" class="edge">
<title>Metamodel::ModuleHOW&#45;&gt;Metamodel::TypePretense</title>
<path fill="none" stroke="#6666ff" d="M422.91,-297.33C452.91,-338.51 526.52,-439.58 561.66,-487.84"/>
<polygon fill="#6666ff" stroke="#6666ff" points="559.04,-490.18 567.76,-496.21 564.7,-486.06 559.04,-490.18"/>
</g>
<!-- Metamodel::ModuleHOW&#45;&gt;Any -->
<g id="edge5" class="edge">
<title>Metamodel::ModuleHOW&#45;&gt;Any</title>
<path fill="none" stroke="#000000" d="M418.15,-297.44C435.12,-334.21 471.94,-414 471.94,-414 471.94,-414 464.96,-514.26 464.96,-514.26 464.96,-514.26 498.68,-528.14 498.68,-528.14 498.68,-528.14 573.81,-554.68 619.08,-570.67"/>
<polygon fill="#000000" stroke="#000000" points="617.92,-573.97 628.52,-574 620.26,-567.37 617.92,-573.97"/>
</g>
<!-- Metamodel::ModuleHOW&#45;&gt;Metamodel::Naming -->
<g id="edge26" class="edge">
<title>Metamodel::ModuleHOW&#45;&gt;Metamodel::Naming</title>
<path fill="none" stroke="#6666ff" d="M435.87,-296.86C469.68,-319.64 528.67,-359.39 566.07,-384.59"/>
<polygon fill="#6666ff" stroke="#6666ff" points="564.38,-387.67 574.63,-390.35 568.29,-381.86 564.38,-387.67"/>
</g>
<!-- Metamodel::ModuleHOW&#45;&gt;Metamodel::Stashing -->
<g id="edge29" class="edge">
<title>Metamodel::ModuleHOW&#45;&gt;Metamodel::Stashing</title>
<path fill="none" stroke="#6666ff" d="M465.83,-294.87C482.47,-299.49 500.8,-304.59 517.85,-309.33"/>
<polygon fill="#6666ff" stroke="#6666ff" points="517.14,-312.77 527.72,-312.08 519.02,-306.03 517.14,-312.77"/>
</g>
<!-- Metamodel::ModuleHOW&#45;&gt;Metamodel::Documenting -->
<g id="edge27" class="edge">
<title>Metamodel::ModuleHOW&#45;&gt;Metamodel::Documenting</title>
<path fill="none" stroke="#6666ff" d="M430.52,-261.35C459.59,-236.26 512.51,-190.57 545.23,-162.33"/>
<polygon fill="#6666ff" stroke="#6666ff" points="547.8,-164.74 553.09,-155.55 543.23,-159.44 547.8,-164.74"/>
</g>
<!-- Metamodel::ModuleHOW&#45;&gt;Metamodel::Versioning -->
<g id="edge28" class="edge">
<title>Metamodel::ModuleHOW&#45;&gt;Metamodel::Versioning</title>
<path fill="none" stroke="#6666ff" d="M416.35,-261.05C430.17,-222.79 460.94,-137.64 460.94,-137.64 460.94,-137.64 494.5,-123.82 494.5,-123.82 494.5,-123.82 566.61,-100.92 621.02,-83.63"/>
<polygon fill="#6666ff" stroke="#6666ff" points="622.14,-86.95 630.61,-80.59 620.02,-80.28 622.14,-86.95"/>
</g>
<!-- Metamodel::ModuleHOW&#45;&gt;Metamodel::MethodDelegation -->
<g id="edge31" class="edge">
<title>Metamodel::ModuleHOW&#45;&gt;Metamodel::MethodDelegation</title>
<path fill="none" stroke="#6666ff" d="M324.32,-267.82C296.29,-264.06 264.82,-259.84 235.55,-255.92"/>
<polygon fill="#6666ff" stroke="#6666ff" points="235.68,-252.41 225.3,-254.55 234.75,-259.34 235.68,-252.41"/>
</g>
<!-- Metamodel::PackageHOW -->
<g id="node21" class="node">
<title>Metamodel::PackageHOW</title>
<g id="a_node21"><a xlink:href="/type/Metamodel::PackageHOW" xlink:title="Metamodel::PackageHOW">
<ellipse fill="none" stroke="#000000" cx="354" cy="-413.88" rx="116.18" ry="18"/>
<text text-anchor="middle" x="354" y="-410.18" font-family="FreeSans" font-size="14.00" fill="#000000">Metamodel::PackageHOW</text>
</a>
</g>
</g>
<!-- Metamodel::PackageHOW&#45;&gt;Metamodel::TypePretense -->
<g id="edge35" class="edge">
<title>Metamodel::PackageHOW&#45;&gt;Metamodel::TypePretense</title>
<path fill="none" stroke="#6666ff" d="M392.5,-430.92C431.3,-448.09 491.27,-474.63 533.1,-493.14"/>
<polygon fill="#6666ff" stroke="#6666ff" points="531.7,-496.35 542.26,-497.2 534.54,-489.95 531.7,-496.35"/>
</g>
<!-- Metamodel::PackageHOW&#45;&gt;Any -->
<g id="edge6" class="edge">
<title>Metamodel::PackageHOW&#45;&gt;Any</title>
<path fill="none" stroke="#000000" d="M373.84,-431.83C405.76,-460.7 464.96,-514.26 464.96,-514.26 464.96,-514.26 498.68,-528.14 498.68,-528.14 498.68,-528.14 573.81,-554.68 619.08,-570.67"/>
<polygon fill="#000000" stroke="#000000" points="617.92,-573.97 628.52,-574 620.26,-567.37 617.92,-573.97"/>
</g>
<!-- Metamodel::PackageHOW&#45;&gt;Metamodel::Naming -->
<g id="edge32" class="edge">
<title>Metamodel::PackageHOW&#45;&gt;Metamodel::Naming</title>
<path fill="none" stroke="#6666ff" d="M468.92,-411.02C479.46,-410.75 490.08,-410.49 500.47,-410.23"/>
<polygon fill="#6666ff" stroke="#6666ff" points="500.86,-413.72 510.77,-409.97 500.69,-406.72 500.86,-413.72"/>
</g>
<!-- Metamodel::PackageHOW&#45;&gt;Metamodel::Stashing -->
<g id="edge34" class="edge">
<title>Metamodel::PackageHOW&#45;&gt;Metamodel::Stashing</title>
<path fill="none" stroke="#6666ff" d="M397.77,-397.11C435.38,-382.7 489.67,-361.9 529.39,-346.67"/>
<polygon fill="#6666ff" stroke="#6666ff" points="530.82,-349.88 538.9,-343.03 528.31,-343.34 530.82,-349.88"/>
</g>
<!-- Metamodel::PackageHOW&#45;&gt;Metamodel::Documenting -->
<g id="edge33" class="edge">
<title>Metamodel::PackageHOW&#45;&gt;Metamodel::Documenting</title>
<path fill="none" stroke="#6666ff" d="M376.29,-396.03C421.95,-359.44 521.85,-279.4 521.85,-279.4 521.85,-279.4 548.44,-206.73 563.53,-165.5"/>
<polygon fill="#6666ff" stroke="#6666ff" points="566.86,-166.59 567.01,-156 560.28,-164.19 566.86,-166.59"/>
</g>
<!-- Metamodel::PackageHOW&#45;&gt;Metamodel::MethodDelegation -->
<g id="edge36" class="edge">
<title>Metamodel::PackageHOW&#45;&gt;Metamodel::MethodDelegation</title>
<path fill="none" stroke="#6666ff" d="M331.01,-396.13C290.83,-365.11 207.83,-301.03 162.5,-266.04"/>
<polygon fill="#6666ff" stroke="#6666ff" points="164.55,-263.2 154.49,-259.86 160.27,-268.74 164.55,-263.2"/>
</g>
</g>
</svg>
