<?xml version="1.0" encoding="UTF-8" standalone="no"?>
<!DOCTYPE svg PUBLIC "-//W3C//DTD SVG 1.1//EN"
 "http://www.w3.org/Graphics/SVG/1.1/DTD/svg11.dtd">
<!-- Generated by graphviz version 2.43.0 (0)
 -->
<!-- Title: perl6&#45;type&#45;graph Pages: 1 -->
<svg width="1183pt" height="332pt"
 viewBox="0.00 0.00 1183.19 332.00" xmlns="http://www.w3.org/2000/svg" xmlns:xlink="http://www.w3.org/1999/xlink">
<g id="graph0" class="graph" transform="scale(1 1) rotate(0) translate(4 328)">
<title>perl6&#45;type&#45;graph</title>
<polygon fill="white" stroke="transparent" points="-4,4 -4,-328 1179.19,-328 1179.19,4 -4,4"/>
<!-- X::Control -->
<g id="node1" class="node">
<title>X::Control</title>
<g id="a_node1"><a xlink:href="/type/X::Control" xlink:title="X::Control">
<ellipse fill="none" stroke="#6666ff" cx="628.44" cy="-90" rx="50.09" ry="18"/>
<text text-anchor="middle" x="628.44" y="-86.3" font-family="FreeSans" font-size="14.00" fill="#6666ff">X::Control</text>
</a>
</g>
</g>
<!-- Exception -->
<g id="node4" class="node">
<title>Exception</title>
<g id="a_node4"><a xlink:href="/type/Exception" xlink:title="Exception">
<ellipse fill="none" stroke="#000000" cx="667.44" cy="-162" rx="49.29" ry="18"/>
<text text-anchor="middle" x="667.44" y="-158.3" font-family="FreeSans" font-size="14.00" fill="#000000">Exception</text>
</a>
</g>
</g>
<!-- X::Control&#45;&gt;Exception -->
<g id="edge1" class="edge">
<title>X::Control&#45;&gt;Exception</title>
<path fill="none" stroke="#000000" d="M637.89,-107.95C642.48,-116.2 648.11,-126.3 653.22,-135.46"/>
<polygon fill="#000000" stroke="#000000" points="650.17,-137.18 658.09,-144.21 656.28,-133.77 650.17,-137.18"/>
</g>
<!-- Mu -->
<g id="node2" class="node">
<title>Mu</title>
<g id="a_node2"><a xlink:href="/type/Mu" xlink:title="Mu">
<ellipse fill="none" stroke="#000000" cx="667.44" cy="-306" rx="27" ry="18"/>
<text text-anchor="middle" x="667.44" y="-302.3" font-family="FreeSans" font-size="14.00" fill="#000000">Mu</text>
</a>
</g>
</g>
<!-- Any -->
<g id="node3" class="node">
<title>Any</title>
<g id="a_node3"><a xlink:href="/type/Any" xlink:title="Any">
<ellipse fill="none" stroke="#000000" cx="667.44" cy="-234" rx="27" ry="18"/>
<text text-anchor="middle" x="667.44" y="-230.3" font-family="FreeSans" font-size="14.00" fill="#000000">Any</text>
</a>
</g>
</g>
<!-- Any&#45;&gt;Mu -->
<g id="edge2" class="edge">
<title>Any&#45;&gt;Mu</title>
<path fill="none" stroke="#000000" d="M667.44,-252.3C667.44,-260.02 667.44,-269.29 667.44,-277.89"/>
<polygon fill="#000000" stroke="#000000" points="663.94,-277.9 667.44,-287.9 670.94,-277.9 663.94,-277.9"/>
</g>
<!-- Exception&#45;&gt;Any -->
<g id="edge3" class="edge">
<title>Exception&#45;&gt;Any</title>
<path fill="none" stroke="#000000" d="M667.44,-180.3C667.44,-188.02 667.44,-197.29 667.44,-205.89"/>
<polygon fill="#000000" stroke="#000000" points="663.94,-205.9 667.44,-215.9 670.94,-205.9 663.94,-205.9"/>
</g>
<!-- CX::Proceed -->
<g id="node5" class="node">
<title>CX::Proceed</title>
<g id="a_node5"><a xlink:href="/type/CX::Proceed" xlink:title="CX::Proceed">
<ellipse fill="none" stroke="#000000" cx="60.44" cy="-18" rx="60.39" ry="18"/>
<text text-anchor="middle" x="60.44" y="-14.3" font-family="FreeSans" font-size="14.00" fill="#000000">CX::Proceed</text>
</a>
</g>
</g>
<!-- CX::Proceed&#45;&gt;X::Control -->
<g id="edge15" class="edge">
<title>CX::Proceed&#45;&gt;X::Control</title>
<path fill="none" stroke="#6666ff" d="M105.7,-30.15C118.7,-33.35 129.44,-36 129.44,-36 129.44,-36 439.47,-68.93 570.78,-82.88"/>
<polygon fill="#6666ff" stroke="#6666ff" points="570.74,-86.39 581.05,-83.97 571.48,-79.43 570.74,-86.39"/>
</g>
<!-- CX::Proceed&#45;&gt;Exception -->
<g id="edge4" class="edge">
<title>CX::Proceed&#45;&gt;Exception</title>
<path fill="none" stroke="#000000" d="M98.83,-31.94C172.05,-56.63 324.44,-108 324.44,-108 324.44,-108 516.33,-137.65 613.06,-152.6"/>
<polygon fill="#000000" stroke="#000000" points="612.54,-156.06 622.96,-154.13 613.61,-149.14 612.54,-156.06"/>
</g>
<!-- CX::Last -->
<g id="node6" class="node">
<title>CX::Last</title>
<g id="a_node6"><a xlink:href="/type/CX::Last" xlink:title="CX::Last">
<ellipse fill="none" stroke="#000000" cx="183.44" cy="-18" rx="44.69" ry="18"/>
<text text-anchor="middle" x="183.44" y="-14.3" font-family="FreeSans" font-size="14.00" fill="#000000">CX::Last</text>
</a>
</g>
</g>
<!-- CX::Last&#45;&gt;X::Control -->
<g id="edge16" class="edge">
<title>CX::Last&#45;&gt;X::Control</title>
<path fill="none" stroke="#6666ff" d="M217.64,-29.77C228.36,-33.14 237.44,-36 237.44,-36 237.44,-36 464.22,-66.74 572.36,-81.4"/>
<polygon fill="#6666ff" stroke="#6666ff" points="572.06,-84.89 582.44,-82.76 573,-77.95 572.06,-84.89"/>
</g>
<!-- CX::Last&#45;&gt;Exception -->
<g id="edge5" class="edge">
<title>CX::Last&#45;&gt;Exception</title>
<path fill="none" stroke="#000000" d="M215,-31C278.87,-55.3 417.44,-108 417.44,-108 417.44,-108 542.73,-134.56 615.92,-150.08"/>
<polygon fill="#000000" stroke="#000000" points="615.37,-153.54 625.88,-152.19 616.82,-146.69 615.37,-153.54"/>
</g>
<!-- CX::Warn -->
<g id="node7" class="node">
<title>CX::Warn</title>
<g id="a_node7"><a xlink:href="/type/CX::Warn" xlink:title="CX::Warn">
<ellipse fill="none" stroke="#000000" cx="295.44" cy="-18" rx="48.99" ry="18"/>
<text text-anchor="middle" x="295.44" y="-14.3" font-family="FreeSans" font-size="14.00" fill="#000000">CX::Warn</text>
</a>
</g>
</g>
<!-- CX::Warn&#45;&gt;X::Control -->
<g id="edge17" class="edge">
<title>CX::Warn&#45;&gt;X::Control</title>
<path fill="none" stroke="#6666ff" d="M332.51,-29.86C343.87,-33.19 353.44,-36 353.44,-36 353.44,-36 495.7,-63.42 575.58,-78.81"/>
<polygon fill="#6666ff" stroke="#6666ff" points="574.99,-82.26 585.48,-80.72 576.32,-75.39 574.99,-82.26"/>
</g>
<!-- CX::Warn&#45;&gt;Exception -->
<g id="edge6" class="edge">
<title>CX::Warn&#45;&gt;Exception</title>
<path fill="none" stroke="#000000" d="M325.69,-32.32C382.04,-57.15 497.44,-108 497.44,-108 497.44,-108 570.9,-130.9 621.24,-146.6"/>
<polygon fill="#000000" stroke="#000000" points="620.39,-150 630.98,-149.63 622.47,-143.31 620.39,-150"/>
</g>
<!-- CX::Return -->
<g id="node8" class="node">
<title>CX::Return</title>
<g id="a_node8"><a xlink:href="/type/CX::Return" xlink:title="CX::Return">
<ellipse fill="none" stroke="#000000" cx="416.44" cy="-18" rx="53.89" ry="18"/>
<text text-anchor="middle" x="416.44" y="-14.3" font-family="FreeSans" font-size="14.00" fill="#000000">CX::Return</text>
</a>
</g>
</g>
<!-- CX::Return&#45;&gt;X::Control -->
<g id="edge18" class="edge">
<title>CX::Return&#45;&gt;X::Control</title>
<path fill="none" stroke="#6666ff" d="M453.37,-31.19C489.31,-43.06 544.01,-61.12 582.69,-73.89"/>
<polygon fill="#6666ff" stroke="#6666ff" points="582.05,-77.37 592.65,-77.18 584.25,-70.72 582.05,-77.37"/>
</g>
<!-- CX::Return&#45;&gt;Exception -->
<g id="edge7" class="edge">
<title>CX::Return&#45;&gt;Exception</title>
<path fill="none" stroke="#000000" d="M440,-34.3C479.17,-59.75 553.44,-108 553.44,-108 553.44,-108 595.58,-127.59 628.62,-142.95"/>
<polygon fill="#000000" stroke="#000000" points="627.54,-146.31 638.09,-147.35 630.49,-139.96 627.54,-146.31"/>
</g>
<!-- CX::Take -->
<g id="node9" class="node">
<title>CX::Take</title>
<g id="a_node9"><a xlink:href="/type/CX::Take" xlink:title="CX::Take">
<ellipse fill="none" stroke="#000000" cx="536.44" cy="-18" rx="48.19" ry="18"/>
<text text-anchor="middle" x="536.44" y="-14.3" font-family="FreeSans" font-size="14.00" fill="#000000">CX::Take</text>
</a>
</g>
</g>
<!-- CX::Take&#45;&gt;X::Control -->
<g id="edge19" class="edge">
<title>CX::Take&#45;&gt;X::Control</title>
<path fill="none" stroke="#6666ff" d="M556.86,-34.54C569.49,-44.14 585.88,-56.62 599.8,-67.2"/>
<polygon fill="#6666ff" stroke="#6666ff" points="598.01,-70.24 608.08,-73.51 602.24,-64.67 598.01,-70.24"/>
</g>
<!-- CX::Take&#45;&gt;Exception -->
<g id="edge8" class="edge">
<title>CX::Take&#45;&gt;Exception</title>
<path fill="none" stroke="#000000" d="M542.81,-36.16C552.4,-62.02 569.44,-108 569.44,-108 569.44,-108 604.01,-126.7 632.09,-141.88"/>
<polygon fill="#000000" stroke="#000000" points="630.46,-144.98 640.92,-146.66 633.79,-138.82 630.46,-144.98"/>
</g>
<!-- CX::Next -->
<g id="node10" class="node">
<title>CX::Next</title>
<g id="a_node10"><a xlink:href="/type/CX::Next" xlink:title="CX::Next">
<ellipse fill="none" stroke="#000000" cx="648.44" cy="-18" rx="46.29" ry="18"/>
<text text-anchor="middle" x="648.44" y="-14.3" font-family="FreeSans" font-size="14.00" fill="#000000">CX::Next</text>
</a>
</g>
</g>
<!-- CX::Next&#45;&gt;X::Control -->
<g id="edge20" class="edge">
<title>CX::Next&#45;&gt;X::Control</title>
<path fill="none" stroke="#6666ff" d="M643.6,-35.95C641.38,-43.74 638.68,-53.18 636.18,-61.92"/>
<polygon fill="#6666ff" stroke="#6666ff" points="632.76,-61.15 633.38,-71.72 639.49,-63.07 632.76,-61.15"/>
</g>
<!-- CX::Next&#45;&gt;Exception -->
<g id="edge9" class="edge">
<title>CX::Next&#45;&gt;Exception</title>
<path fill="none" stroke="#000000" d="M660.57,-35.48C672.02,-51.04 687.44,-72 687.44,-72 687.44,-72 687.44,-108 687.44,-108 687.44,-108 682.45,-121.24 677.45,-134.48"/>
<polygon fill="#000000" stroke="#000000" points="674.14,-133.35 673.88,-143.94 680.69,-135.82 674.14,-133.35"/>
</g>
<!-- CX::Redo -->
<g id="node11" class="node">
<title>CX::Redo</title>
<g id="a_node11"><a xlink:href="/type/CX::Redo" xlink:title="CX::Redo">
<ellipse fill="none" stroke="#000000" cx="761.44" cy="-18" rx="48.99" ry="18"/>
<text text-anchor="middle" x="761.44" y="-14.3" font-family="FreeSans" font-size="14.00" fill="#000000">CX::Redo</text>
</a>
</g>
</g>
<!-- CX::Redo&#45;&gt;X::Control -->
<g id="edge21" class="edge">
<title>CX::Redo&#45;&gt;X::Control</title>
<path fill="none" stroke="#6666ff" d="M731.02,-32.17C709.78,-42.56 681.65,-57.24 660.15,-69.07"/>
<polygon fill="#6666ff" stroke="#6666ff" points="658.42,-66.03 651.38,-73.95 661.82,-72.15 658.42,-66.03"/>
</g>
<!-- CX::Redo&#45;&gt;X::Control -->
<g id="edge22" class="edge">
<title>CX::Redo&#45;&gt;X::Control</title>
<path fill="none" stroke="#6666ff" d="M738.57,-34.02C719.25,-44.89 691.34,-59.64 668.39,-71.12"/>
<polygon fill="#6666ff" stroke="#6666ff" points="666.63,-68.09 659.22,-75.66 669.74,-74.36 666.63,-68.09"/>
</g>
<!-- CX::Redo&#45;&gt;Exception -->
<g id="edge10" class="edge">
<title>CX::Redo&#45;&gt;Exception</title>
<path fill="none" stroke="#000000" d="M746.17,-35.29C727.29,-59.74 696.27,-106.17 679.15,-135.24"/>
<polygon fill="#000000" stroke="#000000" points="676.06,-133.61 674.12,-144.02 682.13,-137.09 676.06,-133.61"/>
</g>
<!-- CX::Redo&#45;&gt;Exception -->
<g id="edge11" class="edge">
<title>CX::Redo&#45;&gt;Exception</title>
<path fill="none" stroke="#000000" d="M754.85,-35.85C741.03,-60.75 710.3,-107.53 689.06,-136.3"/>
<polygon fill="#000000" stroke="#000000" points="686.02,-134.52 682.8,-144.61 691.61,-138.73 686.02,-134.52"/>
</g>
<!-- CX::Emit -->
<g id="node12" class="node">
<title>CX::Emit</title>
<g id="a_node12"><a xlink:href="/type/CX::Emit" xlink:title="CX::Emit">
<ellipse fill="none" stroke="#000000" cx="873.44" cy="-18" rx="45.49" ry="18"/>
<text text-anchor="middle" x="873.44" y="-14.3" font-family="FreeSans" font-size="14.00" fill="#000000">CX::Emit</text>
</a>
</g>
</g>
<!-- CX::Emit&#45;&gt;X::Control -->
<g id="edge23" class="edge">
<title>CX::Emit&#45;&gt;X::Control</title>
<path fill="none" stroke="#6666ff" d="M838.94,-29.86C828.36,-33.19 819.44,-36 819.44,-36 819.44,-36 733.53,-59.84 676.95,-75.54"/>
<polygon fill="#6666ff" stroke="#6666ff" points="675.8,-72.23 667.1,-78.27 677.67,-78.97 675.8,-72.23"/>
</g>
<!-- CX::Emit&#45;&gt;Exception -->
<g id="edge12" class="edge">
<title>CX::Emit&#45;&gt;Exception</title>
<path fill="none" stroke="#000000" d="M851.79,-33.93C814.95,-59.32 739.99,-110.99 697.89,-140.01"/>
<polygon fill="#000000" stroke="#000000" points="695.68,-137.29 689.43,-145.84 699.65,-143.05 695.68,-137.29"/>
</g>
<!-- CX::Succeed -->
<g id="node13" class="node">
<title>CX::Succeed</title>
<g id="a_node13"><a xlink:href="/type/CX::Succeed" xlink:title="CX::Succeed">
<ellipse fill="none" stroke="#000000" cx="998.44" cy="-18" rx="61.99" ry="18"/>
<text text-anchor="middle" x="998.44" y="-14.3" font-family="FreeSans" font-size="14.00" fill="#000000">CX::Succeed</text>
</a>
</g>
</g>
<!-- CX::Succeed&#45;&gt;X::Control -->
<g id="edge24" class="edge">
<title>CX::Succeed&#45;&gt;X::Control</title>
<path fill="none" stroke="#6666ff" d="M952.28,-30.05C938.72,-33.3 927.44,-36 927.44,-36 927.44,-36 768.16,-64.24 682.1,-79.49"/>
<polygon fill="#6666ff" stroke="#6666ff" points="681.48,-76.04 672.24,-81.24 682.7,-82.94 681.48,-76.04"/>
</g>
<!-- CX::Succeed&#45;&gt;Exception -->
<g id="edge13" class="edge">
<title>CX::Succeed&#45;&gt;Exception</title>
<path fill="none" stroke="#000000" d="M965.19,-33.27C903.94,-59.54 773.53,-115.49 707.51,-143.81"/>
<polygon fill="#000000" stroke="#000000" points="706.06,-140.62 698.25,-147.78 708.82,-147.06 706.06,-140.62"/>
</g>
<!-- CX::Done -->
<g id="node14" class="node">
<title>CX::Done</title>
<g id="a_node14"><a xlink:href="/type/CX::Done" xlink:title="CX::Done">
<ellipse fill="none" stroke="#000000" cx="1126.44" cy="-18" rx="48.99" ry="18"/>
<text text-anchor="middle" x="1126.44" y="-14.3" font-family="FreeSans" font-size="14.00" fill="#000000">CX::Done</text>
</a>
</g>
</g>
<!-- CX::Done&#45;&gt;X::Control -->
<g id="edge25" class="edge">
<title>CX::Done&#45;&gt;X::Control</title>
<path fill="none" stroke="#6666ff" d="M1089.7,-29.96C1078.67,-33.25 1069.44,-36 1069.44,-36 1069.44,-36 804.39,-67.85 685.26,-82.17"/>
<polygon fill="#6666ff" stroke="#6666ff" points="684.73,-78.71 675.22,-83.38 685.57,-85.66 684.73,-78.71"/>
</g>
<!-- CX::Done&#45;&gt;Exception -->
<g id="edge14" class="edge">
<title>CX::Done&#45;&gt;Exception</title>
<path fill="none" stroke="#000000" d="M1090.7,-30.36C1015.21,-54.36 846.44,-108 846.44,-108 846.44,-108 767.47,-131.38 714.44,-147.09"/>
<polygon fill="#000000" stroke="#000000" points="713.13,-143.82 704.53,-150.02 715.12,-150.54 713.13,-143.82"/>
</g>
</g>
</svg>
