<?xml version="1.0" encoding="UTF-8" standalone="no"?>
<!DOCTYPE svg PUBLIC "-//W3C//DTD SVG 1.1//EN"
 "http://www.w3.org/Graphics/SVG/1.1/DTD/svg11.dtd">
<!-- Generated by graphviz version 2.43.0 (0)
 -->
<!-- Title: perl6&#45;type&#45;graph Pages: 1 -->
<svg width="219pt" height="404pt"
 viewBox="0.00 0.00 219.04 404.00" xmlns="http://www.w3.org/2000/svg" xmlns:xlink="http://www.w3.org/1999/xlink">
<g id="graph0" class="graph" transform="scale(1 1) rotate(0) translate(4 400)">
<title>perl6&#45;type&#45;graph</title>
<polygon fill="white" stroke="transparent" points="-4,4 -4,-400 215.04,-400 215.04,4 -4,4"/>
<!-- X::IO::Symlink -->
<g id="node1" class="node">
<title>X::IO::Symlink</title>
<g id="a_node1"><a xlink:href="/type/X::IO::Symlink" xlink:title="X::IO::Symlink">
<ellipse fill="none" stroke="#000000" cx="67.59" cy="-18" rx="67.69" ry="18"/>
<text text-anchor="middle" x="67.59" y="-14.3" font-family="FreeSans" font-size="14.00" fill="#000000">X::IO::Symlink</text>
</a>
</g>
</g>
<!-- Exception -->
<g id="node4" class="node">
<title>Exception</title>
<g id="a_node4"><a xlink:href="/type/Exception" xlink:title="Exception">
<ellipse fill="none" stroke="#000000" cx="90.59" cy="-234" rx="49.29" ry="18"/>
<text text-anchor="middle" x="90.59" y="-230.3" font-family="FreeSans" font-size="14.00" fill="#000000">Exception</text>
</a>
</g>
</g>
<!-- X::IO::Symlink&#45;&gt;Exception -->
<g id="edge1" class="edge">
<title>X::IO::Symlink&#45;&gt;Exception</title>
<path fill="none" stroke="#000000" d="M65.56,-36.15C66,-73.34 75.24,-161.63 83.07,-206.23"/>
<polygon fill="#000000" stroke="#000000" points="79.63,-206.88 84.92,-216.06 86.51,-205.59 79.63,-206.88"/>
</g>
<!-- X::IO::Symlink&#45;&gt;Exception -->
<g id="edge2" class="edge">
<title>X::IO::Symlink&#45;&gt;Exception</title>
<path fill="none" stroke="#000000" d="M73.31,-36.15C80.83,-73.17 90.52,-160.82 92.34,-205.61"/>
<polygon fill="#000000" stroke="#000000" points="88.85,-205.87 92.63,-215.77 95.85,-205.67 88.85,-205.87"/>
</g>
<!-- X::IO -->
<g id="node6" class="node">
<title>X::IO</title>
<g id="a_node6"><a xlink:href="/type/X::IO" xlink:title="X::IO">
<ellipse fill="none" stroke="#6666ff" cx="135.59" cy="-90" rx="31.4" ry="18"/>
<text text-anchor="middle" x="135.59" y="-86.3" font-family="FreeSans" font-size="14.00" fill="#6666ff">X::IO</text>
</a>
</g>
</g>
<!-- X::IO::Symlink&#45;&gt;X::IO -->
<g id="edge7" class="edge">
<title>X::IO::Symlink&#45;&gt;X::IO</title>
<path fill="none" stroke="#6666ff" d="M83.71,-35.59C92.72,-44.87 104.08,-56.56 113.87,-66.64"/>
<polygon fill="#6666ff" stroke="#6666ff" points="111.51,-69.23 120.99,-73.96 116.53,-64.35 111.51,-69.23"/>
</g>
<!-- Mu -->
<g id="node2" class="node">
<title>Mu</title>
<g id="a_node2"><a xlink:href="/type/Mu" xlink:title="Mu">
<ellipse fill="none" stroke="#000000" cx="90.59" cy="-378" rx="27" ry="18"/>
<text text-anchor="middle" x="90.59" y="-374.3" font-family="FreeSans" font-size="14.00" fill="#000000">Mu</text>
</a>
</g>
</g>
<!-- Any -->
<g id="node3" class="node">
<title>Any</title>
<g id="a_node3"><a xlink:href="/type/Any" xlink:title="Any">
<ellipse fill="none" stroke="#000000" cx="90.59" cy="-306" rx="27" ry="18"/>
<text text-anchor="middle" x="90.59" y="-302.3" font-family="FreeSans" font-size="14.00" fill="#000000">Any</text>
</a>
</g>
</g>
<!-- Any&#45;&gt;Mu -->
<g id="edge3" class="edge">
<title>Any&#45;&gt;Mu</title>
<path fill="none" stroke="#000000" d="M90.59,-324.3C90.59,-332.02 90.59,-341.29 90.59,-349.89"/>
<polygon fill="#000000" stroke="#000000" points="87.09,-349.9 90.59,-359.9 94.09,-349.9 87.09,-349.9"/>
</g>
<!-- Exception&#45;&gt;Any -->
<g id="edge4" class="edge">
<title>Exception&#45;&gt;Any</title>
<path fill="none" stroke="#000000" d="M90.59,-252.3C90.59,-260.02 90.59,-269.29 90.59,-277.89"/>
<polygon fill="#000000" stroke="#000000" points="87.09,-277.9 90.59,-287.9 94.09,-277.9 87.09,-277.9"/>
</g>
<!-- X::OS -->
<g id="node5" class="node">
<title>X::OS</title>
<g id="a_node5"><a xlink:href="/type/X::OS" xlink:title="X::OS">
<ellipse fill="none" stroke="#6666ff" cx="176.59" cy="-162" rx="34.39" ry="18"/>
<text text-anchor="middle" x="176.59" y="-158.3" font-family="FreeSans" font-size="14.00" fill="#6666ff">X::OS</text>
</a>
</g>
</g>
<!-- X::OS&#45;&gt;Exception -->
<g id="edge5" class="edge">
<title>X::OS&#45;&gt;Exception</title>
<path fill="none" stroke="#000000" d="M158.77,-177.5C146.96,-187.12 131.23,-199.93 117.85,-210.81"/>
<polygon fill="#000000" stroke="#000000" points="115.43,-208.27 109.89,-217.3 119.85,-213.7 115.43,-208.27"/>
</g>
<!-- X::IO&#45;&gt;Exception -->
<g id="edge6" class="edge">
<title>X::IO&#45;&gt;Exception</title>
<path fill="none" stroke="#000000" d="M130.26,-107.85C122.58,-132.06 108.36,-176.95 99.19,-205.87"/>
<polygon fill="#000000" stroke="#000000" points="95.75,-205.14 96.07,-215.73 102.42,-207.26 95.75,-205.14"/>
</g>
<!-- X::IO&#45;&gt;X::OS -->
<g id="edge8" class="edge">
<title>X::IO&#45;&gt;X::OS</title>
<path fill="none" stroke="#6666ff" d="M145.1,-107.24C150.05,-115.68 156.21,-126.2 161.77,-135.69"/>
<polygon fill="#6666ff" stroke="#6666ff" points="158.78,-137.51 166.85,-144.37 164.82,-133.97 158.78,-137.51"/>
</g>
</g>
</svg>
