<?xml version="1.0" encoding="UTF-8" standalone="no"?>
<!DOCTYPE svg PUBLIC "-//W3C//DTD SVG 1.1//EN"
 "http://www.w3.org/Graphics/SVG/1.1/DTD/svg11.dtd">
<!-- Generated by graphviz version 2.43.0 (0)
 -->
<!-- Title: perl6&#45;type&#45;graph Pages: 1 -->
<svg width="345pt" height="260pt"
 viewBox="0.00 0.00 345.29 260.00" xmlns="http://www.w3.org/2000/svg" xmlns:xlink="http://www.w3.org/1999/xlink">
<g id="graph0" class="graph" transform="scale(1 1) rotate(0) translate(4 256)">
<title>perl6&#45;type&#45;graph</title>
<polygon fill="#ffffff" stroke="transparent" points="-4,4 -4,-256 341.29,-256 341.29,4 -4,4"/>
<!-- Sequence -->
<g id="node1" class="node">
<title>Sequence</title>
<g id="a_node1"><a xlink:href="/type/Sequence" xlink:title="Sequence">
<ellipse fill="none" stroke="#6666ff" cx="97.49" cy="-90" rx="50.09" ry="18"/>
<text text-anchor="middle" x="97.49" y="-86.3" font-family="FreeSans" font-size="14.00" fill="#6666ff">Sequence</text>
</a>
</g>
</g>
<!-- PositionalBindFailover -->
<g id="node2" class="node">
<title>PositionalBindFailover</title>
<g id="a_node2"><a xlink:href="/type/PositionalBindFailover" xlink:title="PositionalBindFailover">
<ellipse fill="none" stroke="#6666ff" cx="97.49" cy="-162" rx="97.48" ry="18"/>
<text text-anchor="middle" x="97.49" y="-158.3" font-family="FreeSans" font-size="14.00" fill="#6666ff">PositionalBindFailover</text>
</a>
</g>
</g>
<!-- Sequence&#45;&gt;PositionalBindFailover -->
<g id="edge6" class="edge">
<title>Sequence&#45;&gt;PositionalBindFailover</title>
<path fill="none" stroke="#6666ff" d="M97.49,-108.3C97.49,-116.02 97.49,-125.29 97.49,-133.89"/>
<polygon fill="#6666ff" stroke="#6666ff" points="93.99,-133.9 97.49,-143.9 100.99,-133.9 93.99,-133.9"/>
</g>
<!-- Mu -->
<g id="node3" class="node">
<title>Mu</title>
<g id="a_node3"><a xlink:href="/type/Mu" xlink:title="Mu">
<ellipse fill="none" stroke="#000000" cx="292.49" cy="-234" rx="27" ry="18"/>
<text text-anchor="middle" x="292.49" y="-230.3" font-family="FreeSans" font-size="14.00" fill="#000000">Mu</text>
</a>
</g>
</g>
<!-- Any -->
<g id="node4" class="node">
<title>Any</title>
<g id="a_node4"><a xlink:href="/type/Any" xlink:title="Any">
<ellipse fill="none" stroke="#000000" cx="292.49" cy="-162" rx="27" ry="18"/>
<text text-anchor="middle" x="292.49" y="-158.3" font-family="FreeSans" font-size="14.00" fill="#000000">Any</text>
</a>
</g>
</g>
<!-- Any&#45;&gt;Mu -->
<g id="edge1" class="edge">
<title>Any&#45;&gt;Mu</title>
<path fill="none" stroke="#000000" d="M292.49,-180.3C292.49,-188.02 292.49,-197.29 292.49,-205.89"/>
<polygon fill="#000000" stroke="#000000" points="288.99,-205.9 292.49,-215.9 295.99,-205.9 288.99,-205.9"/>
</g>
<!-- Cool -->
<g id="node5" class="node">
<title>Cool</title>
<g id="a_node5"><a xlink:href="/type/Cool" xlink:title="Cool">
<ellipse fill="none" stroke="#000000" cx="292.49" cy="-90" rx="28.7" ry="18"/>
<text text-anchor="middle" x="292.49" y="-86.3" font-family="FreeSans" font-size="14.00" fill="#000000">Cool</text>
</a>
</g>
</g>
<!-- Cool&#45;&gt;Any -->
<g id="edge2" class="edge">
<title>Cool&#45;&gt;Any</title>
<path fill="none" stroke="#000000" d="M292.49,-108.3C292.49,-116.02 292.49,-125.29 292.49,-133.89"/>
<polygon fill="#000000" stroke="#000000" points="288.99,-133.9 292.49,-143.9 295.99,-133.9 288.99,-133.9"/>
</g>
<!-- Iterable -->
<g id="node6" class="node">
<title>Iterable</title>
<g id="a_node6"><a xlink:href="/type/Iterable" xlink:title="Iterable">
<ellipse fill="none" stroke="#6666ff" cx="205.49" cy="-90" rx="40.09" ry="18"/>
<text text-anchor="middle" x="205.49" y="-86.3" font-family="FreeSans" font-size="14.00" fill="#6666ff">Iterable</text>
</a>
</g>
</g>
<!-- Seq -->
<g id="node7" class="node">
<title>Seq</title>
<g id="a_node7"><a xlink:href="/type/Seq" xlink:title="Seq">
<ellipse fill="none" stroke="#000000" cx="198.49" cy="-18" rx="27" ry="18"/>
<text text-anchor="middle" x="198.49" y="-14.3" font-family="FreeSans" font-size="14.00" fill="#000000">Seq</text>
</a>
</g>
</g>
<!-- Seq&#45;&gt;Sequence -->
<g id="edge8" class="edge">
<title>Seq&#45;&gt;Sequence</title>
<path fill="none" stroke="#6666ff" d="M180.43,-31.51C165.94,-41.56 145.26,-55.89 128.18,-67.73"/>
<polygon fill="#6666ff" stroke="#6666ff" points="125.85,-65.09 119.62,-73.66 129.83,-70.84 125.85,-65.09"/>
</g>
<!-- Seq&#45;&gt;Cool -->
<g id="edge3" class="edge">
<title>Seq&#45;&gt;Cool</title>
<path fill="none" stroke="#000000" d="M216.17,-32.17C230.26,-42.66 250.21,-57.51 266.17,-69.4"/>
<polygon fill="#000000" stroke="#000000" points="264.46,-72.49 274.57,-75.65 268.64,-66.87 264.46,-72.49"/>
</g>
<!-- Seq&#45;&gt;Iterable -->
<g id="edge7" class="edge">
<title>Seq&#45;&gt;Iterable</title>
<path fill="none" stroke="#6666ff" d="M200.22,-36.3C200.99,-44.02 201.92,-53.29 202.78,-61.89"/>
<polygon fill="#6666ff" stroke="#6666ff" points="199.3,-62.29 203.78,-71.9 206.27,-61.6 199.3,-62.29"/>
</g>
<!-- RaceSeq -->
<g id="node8" class="node">
<title>RaceSeq</title>
<g id="a_node8"><a xlink:href="/type/RaceSeq" xlink:title="RaceSeq">
<ellipse fill="none" stroke="#000000" cx="290.49" cy="-18" rx="46.59" ry="18"/>
<text text-anchor="middle" x="290.49" y="-14.3" font-family="FreeSans" font-size="14.00" fill="#000000">RaceSeq</text>
</a>
</g>
</g>
<!-- RaceSeq&#45;&gt;Sequence -->
<g id="edge10" class="edge">
<title>RaceSeq&#45;&gt;Sequence</title>
<path fill="none" stroke="#6666ff" d="M257.75,-30.87C225.61,-42.53 176.38,-60.39 140.96,-73.23"/>
<polygon fill="#6666ff" stroke="#6666ff" points="139.57,-70.01 131.37,-76.71 141.96,-76.59 139.57,-70.01"/>
</g>
<!-- RaceSeq&#45;&gt;Any -->
<g id="edge4" class="edge">
<title>RaceSeq&#45;&gt;Any</title>
<path fill="none" stroke="#000000" d="M302.93,-35.48C314.67,-51.04 330.49,-72 330.49,-72 330.49,-72 330.49,-108 330.49,-108 330.49,-108 319.8,-122.92 309.75,-136.92"/>
<polygon fill="#000000" stroke="#000000" points="306.67,-135.22 303.69,-145.38 312.36,-139.3 306.67,-135.22"/>
</g>
<!-- RaceSeq&#45;&gt;Iterable -->
<g id="edge9" class="edge">
<title>RaceSeq&#45;&gt;Iterable</title>
<path fill="none" stroke="#6666ff" d="M271.63,-34.54C259.99,-44.12 244.89,-56.55 232.06,-67.12"/>
<polygon fill="#6666ff" stroke="#6666ff" points="229.5,-64.69 224.01,-73.75 233.95,-70.09 229.5,-64.69"/>
</g>
<!-- HyperSeq -->
<g id="node9" class="node">
<title>HyperSeq</title>
<g id="a_node9"><a xlink:href="/type/HyperSeq" xlink:title="HyperSeq">
<ellipse fill="none" stroke="#000000" cx="97.49" cy="-18" rx="50.09" ry="18"/>
<text text-anchor="middle" x="97.49" y="-14.3" font-family="FreeSans" font-size="14.00" fill="#000000">HyperSeq</text>
</a>
</g>
</g>
<!-- HyperSeq&#45;&gt;Sequence -->
<g id="edge12" class="edge">
<title>HyperSeq&#45;&gt;Sequence</title>
<path fill="none" stroke="#6666ff" d="M97.49,-36.3C97.49,-44.02 97.49,-53.29 97.49,-61.89"/>
<polygon fill="#6666ff" stroke="#6666ff" points="93.99,-61.9 97.49,-71.9 100.99,-61.9 93.99,-61.9"/>
</g>
<!-- HyperSeq&#45;&gt;Any -->
<g id="edge5" class="edge">
<title>HyperSeq&#45;&gt;Any</title>
<path fill="none" stroke="#000000" d="M79.79,-34.9C62.41,-50.51 38.49,-72 38.49,-72 38.49,-72 38.49,-108 38.49,-108 38.49,-108 186.57,-138.9 256.6,-153.51"/>
<polygon fill="#000000" stroke="#000000" points="256.23,-157.01 266.74,-155.63 257.66,-150.16 256.23,-157.01"/>
</g>
<!-- HyperSeq&#45;&gt;Iterable -->
<g id="edge11" class="edge">
<title>HyperSeq&#45;&gt;Iterable</title>
<path fill="none" stroke="#6666ff" d="M120.66,-34.02C136.49,-44.28 157.65,-57.99 174.87,-69.15"/>
<polygon fill="#6666ff" stroke="#6666ff" points="173.17,-72.22 183.47,-74.73 176.98,-66.35 173.17,-72.22"/>
</g>
</g>
</svg>
