<?xml version="1.0" encoding="UTF-8" standalone="no"?>
<!DOCTYPE svg PUBLIC "-//W3C//DTD SVG 1.1//EN"
 "http://www.w3.org/Graphics/SVG/1.1/DTD/svg11.dtd">
<!-- Generated by graphviz version 2.43.0 (0)
 -->
<!-- Title: perl6&#45;type&#45;graph Pages: 1 -->
<svg width="2092pt" height="1492pt"
 viewBox="0.00 0.00 2092.11 1492.46" xmlns="http://www.w3.org/2000/svg" xmlns:xlink="http://www.w3.org/1999/xlink">
<g id="graph0" class="graph" transform="scale(1 1) rotate(0) translate(4 1488.46)">
<title>perl6&#45;type&#45;graph</title>
<polygon fill="white" stroke="transparent" points="-4,4 -4,-1488.46 2088.11,-1488.46 2088.11,4 -4,4"/>
<!-- Metamodel::BoolificationProtocol -->
<g id="node1" class="node">
<title>Metamodel::BoolificationProtocol</title>
<g id="a_node1"><a xlink:href="/type/Metamodel::BoolificationProtocol" xlink:title="Metamodel::BoolificationProtocol">
<ellipse fill="none" stroke="#6666ff" cx="1152.45" cy="-806.13" rx="139.18" ry="18"/>
<text text-anchor="middle" x="1152.45" y="-802.43" font-family="FreeSans" font-size="14.00" fill="#6666ff">Metamodel::BoolificationProtocol</text>
</a>
</g>
</g>
<!-- Mu -->
<g id="node2" class="node">
<title>Mu</title>
<g id="a_node2"><a xlink:href="/type/Mu" xlink:title="Mu">
<ellipse fill="none" stroke="#000000" cx="1042.84" cy="-18" rx="27" ry="18"/>
<text text-anchor="middle" x="1042.84" y="-14.3" font-family="FreeSans" font-size="14.00" fill="#000000">Mu</text>
</a>
</g>
</g>
<!-- Any -->
<g id="node3" class="node">
<title>Any</title>
<g id="a_node3"><a xlink:href="/type/Any" xlink:title="Any">
<ellipse fill="none" stroke="#000000" cx="1025.45" cy="-520.21" rx="27" ry="18"/>
<text text-anchor="middle" x="1025.45" y="-516.51" font-family="FreeSans" font-size="14.00" fill="#000000">Any</text>
</a>
</g>
</g>
<!-- Any&#45;&gt;Mu -->
<g id="edge1" class="edge">
<title>Any&#45;&gt;Mu</title>
<path fill="none" stroke="#000000" d="M1026.08,-502.04C1028.69,-426.67 1038.68,-138.32 1041.86,-46.36"/>
<polygon fill="#000000" stroke="#000000" points="1045.37,-46.26 1042.21,-36.15 1038.37,-46.02 1045.37,-46.26"/>
</g>
<!-- Metamodel::Naming -->
<g id="node4" class="node">
<title>Metamodel::Naming</title>
<g id="a_node4"><a xlink:href="/type/Metamodel::Naming" xlink:title="Metamodel::Naming">
<ellipse fill="none" stroke="#6666ff" cx="1222.01" cy="-934.07" rx="90.18" ry="18"/>
<text text-anchor="middle" x="1222.01" y="-930.37" font-family="FreeSans" font-size="14.00" fill="#6666ff">Metamodel::Naming</text>
</a>
</g>
</g>
<!-- Metamodel::Documenting -->
<g id="node5" class="node">
<title>Metamodel::Documenting</title>
<g id="a_node5"><a xlink:href="/type/Metamodel::Documenting" xlink:title="Metamodel::Documenting">
<ellipse fill="none" stroke="#6666ff" cx="278.7" cy="-1371.53" rx="111.28" ry="18"/>
<text text-anchor="middle" x="278.7" y="-1367.83" font-family="FreeSans" font-size="14.00" fill="#6666ff">Metamodel::Documenting</text>
</a>
</g>
</g>
<!-- Metamodel::Versioning -->
<g id="node6" class="node">
<title>Metamodel::Versioning</title>
<g id="a_node6"><a xlink:href="/type/Metamodel::Versioning" xlink:title="Metamodel::Versioning">
<ellipse fill="none" stroke="#6666ff" cx="114.02" cy="-848.12" rx="100.98" ry="18"/>
<text text-anchor="middle" x="114.02" y="-844.42" font-family="FreeSans" font-size="14.00" fill="#6666ff">Metamodel::Versioning</text>
</a>
</g>
</g>
<!-- Metamodel::Stashing -->
<g id="node7" class="node">
<title>Metamodel::Stashing</title>
<g id="a_node7"><a xlink:href="/type/Metamodel::Stashing" xlink:title="Metamodel::Stashing">
<ellipse fill="none" stroke="#6666ff" cx="1096.41" cy="-689.66" rx="93.68" ry="18"/>
<text text-anchor="middle" x="1096.41" y="-685.96" font-family="FreeSans" font-size="14.00" fill="#6666ff">Metamodel::Stashing</text>
</a>
</g>
</g>
<!-- Metamodel::AttributeContainer -->
<g id="node8" class="node">
<title>Metamodel::AttributeContainer</title>
<g id="a_node8"><a xlink:href="/type/Metamodel::AttributeContainer" xlink:title="Metamodel::AttributeContainer">
<ellipse fill="none" stroke="#6666ff" cx="1031.38" cy="-1312.39" rx="129.98" ry="18"/>
<text text-anchor="middle" x="1031.38" y="-1308.69" font-family="FreeSans" font-size="14.00" fill="#6666ff">Metamodel::AttributeContainer</text>
</a>
</g>
</g>
<!-- Metamodel::Finalization -->
<g id="node9" class="node">
<title>Metamodel::Finalization</title>
<g id="a_node9"><a xlink:href="/type/Metamodel::Finalization" xlink:title="Metamodel::Finalization">
<ellipse fill="none" stroke="#6666ff" cx="245.01" cy="-546.63" rx="103.98" ry="18"/>
<text text-anchor="middle" x="245.01" y="-542.93" font-family="FreeSans" font-size="14.00" fill="#6666ff">Metamodel::Finalization</text>
</a>
</g>
</g>
<!-- Metamodel::MethodContainer -->
<g id="node10" class="node">
<title>Metamodel::MethodContainer</title>
<g id="a_node10"><a xlink:href="/type/Metamodel::MethodContainer" xlink:title="Metamodel::MethodContainer">
<ellipse fill="none" stroke="#6666ff" cx="587.59" cy="-697.69" rx="127.28" ry="18"/>
<text text-anchor="middle" x="587.59" y="-693.99" font-family="FreeSans" font-size="14.00" fill="#6666ff">Metamodel::MethodContainer</text>
</a>
</g>
</g>
<!-- Metamodel::PrivateMethodContainer -->
<g id="node11" class="node">
<title>Metamodel::PrivateMethodContainer</title>
<g id="a_node11"><a xlink:href="/type/Metamodel::PrivateMethodContainer" xlink:title="Metamodel::PrivateMethodContainer">
<ellipse fill="none" stroke="#6666ff" cx="376.69" cy="-433.13" rx="154.87" ry="18"/>
<text text-anchor="middle" x="376.69" y="-429.43" font-family="FreeSans" font-size="14.00" fill="#6666ff">Metamodel::PrivateMethodContainer</text>
</a>
</g>
</g>
<!-- Metamodel::MultiMethodContainer -->
<g id="node12" class="node">
<title>Metamodel::MultiMethodContainer</title>
<g id="a_node12"><a xlink:href="/type/Metamodel::MultiMethodContainer" xlink:title="Metamodel::MultiMethodContainer">
<ellipse fill="none" stroke="#6666ff" cx="494.49" cy="-1160.72" rx="146.47" ry="18"/>
<text text-anchor="middle" x="494.49" y="-1157.02" font-family="FreeSans" font-size="14.00" fill="#6666ff">Metamodel::MultiMethodContainer</text>
</a>
</g>
</g>
<!-- Metamodel::RoleContainer -->
<g id="node13" class="node">
<title>Metamodel::RoleContainer</title>
<g id="a_node13"><a xlink:href="/type/Metamodel::RoleContainer" xlink:title="Metamodel::RoleContainer">
<ellipse fill="none" stroke="#6666ff" cx="893.87" cy="-1380.01" rx="115.88" ry="18"/>
<text text-anchor="middle" x="893.87" y="-1376.31" font-family="FreeSans" font-size="14.00" fill="#6666ff">Metamodel::RoleContainer</text>
</a>
</g>
</g>
<!-- Metamodel::MultipleInheritance -->
<g id="node14" class="node">
<title>Metamodel::MultipleInheritance</title>
<g id="a_node14"><a xlink:href="/type/Metamodel::MultipleInheritance" xlink:title="Metamodel::MultipleInheritance">
<ellipse fill="none" stroke="#6666ff" cx="162.43" cy="-1194.82" rx="133.78" ry="18"/>
<text text-anchor="middle" x="162.43" y="-1191.12" font-family="FreeSans" font-size="14.00" fill="#6666ff">Metamodel::MultipleInheritance</text>
</a>
</g>
</g>
<!-- Metamodel::DefaultParent -->
<g id="node15" class="node">
<title>Metamodel::DefaultParent</title>
<g id="a_node15"><a xlink:href="/type/Metamodel::DefaultParent" xlink:title="Metamodel::DefaultParent">
<ellipse fill="none" stroke="#6666ff" cx="113.09" cy="-1018.34" rx="113.18" ry="18"/>
<text text-anchor="middle" x="113.09" y="-1014.64" font-family="FreeSans" font-size="14.00" fill="#6666ff">Metamodel::DefaultParent</text>
</a>
</g>
</g>
<!-- Metamodel::C3MRO -->
<g id="node16" class="node">
<title>Metamodel::C3MRO</title>
<g id="a_node16"><a xlink:href="/type/Metamodel::C3MRO" xlink:title="Metamodel::C3MRO">
<ellipse fill="none" stroke="#6666ff" cx="557.08" cy="-374.46" rx="92.08" ry="18"/>
<text text-anchor="middle" x="557.08" y="-370.76" font-family="FreeSans" font-size="14.00" fill="#6666ff">Metamodel::C3MRO</text>
</a>
</g>
</g>
<!-- Metamodel::MROBasedMethodDispatch -->
<g id="node17" class="node">
<title>Metamodel::MROBasedMethodDispatch</title>
<g id="a_node17"><a xlink:href="/type/Metamodel::MROBasedMethodDispatch" xlink:title="Metamodel::MROBasedMethodDispatch">
<ellipse fill="none" stroke="#6666ff" cx="825.16" cy="-653.69" rx="169.77" ry="18"/>
<text text-anchor="middle" x="825.16" y="-649.99" font-family="FreeSans" font-size="14.00" fill="#6666ff">Metamodel::MROBasedMethodDispatch</text>
</a>
</g>
</g>
<!-- Metamodel::MROBasedTypeChecking -->
<g id="node18" class="node">
<title>Metamodel::MROBasedTypeChecking</title>
<g id="a_node18"><a xlink:href="/type/Metamodel::MROBasedTypeChecking" xlink:title="Metamodel::MROBasedTypeChecking">
<ellipse fill="none" stroke="#6666ff" cx="771.6" cy="-1466.46" rx="163.27" ry="18"/>
<text text-anchor="middle" x="771.6" y="-1462.76" font-family="FreeSans" font-size="14.00" fill="#6666ff">Metamodel::MROBasedTypeChecking</text>
</a>
</g>
</g>
<!-- Metamodel::Trusting -->
<g id="node19" class="node">
<title>Metamodel::Trusting</title>
<g id="a_node19"><a xlink:href="/type/Metamodel::Trusting" xlink:title="Metamodel::Trusting">
<ellipse fill="none" stroke="#6666ff" cx="157.1" cy="-688.61" rx="91.78" ry="18"/>
<text text-anchor="middle" x="157.1" y="-684.91" font-family="FreeSans" font-size="14.00" fill="#6666ff">Metamodel::Trusting</text>
</a>
</g>
</g>
<!-- Metamodel::BUILDPLAN -->
<g id="node20" class="node">
<title>Metamodel::BUILDPLAN</title>
<g id="a_node20"><a xlink:href="/type/Metamodel::BUILDPLAN" xlink:title="Metamodel::BUILDPLAN">
<ellipse fill="none" stroke="#6666ff" cx="577.88" cy="-1422.46" rx="109.68" ry="18"/>
<text text-anchor="middle" x="577.88" y="-1418.76" font-family="FreeSans" font-size="14.00" fill="#6666ff">Metamodel::BUILDPLAN</text>
</a>
</g>
</g>
<!-- Metamodel::Mixins -->
<g id="node21" class="node">
<title>Metamodel::Mixins</title>
<g id="a_node21"><a xlink:href="/type/Metamodel::Mixins" xlink:title="Metamodel::Mixins">
<ellipse fill="none" stroke="#6666ff" cx="669.73" cy="-1256.55" rx="85.29" ry="18"/>
<text text-anchor="middle" x="669.73" y="-1252.85" font-family="FreeSans" font-size="14.00" fill="#6666ff">Metamodel::Mixins</text>
</a>
</g>
</g>
<!-- Metamodel::ClassHOW -->
<g id="node22" class="node">
<title>Metamodel::ClassHOW</title>
<g id="a_node22"><a xlink:href="/type/Metamodel::ClassHOW" xlink:title="Metamodel::ClassHOW">
<ellipse fill="none" stroke="#000000" cx="615.69" cy="-923.3" rx="103.18" ry="18"/>
<text text-anchor="middle" x="615.69" y="-919.6" font-family="FreeSans" font-size="14.00" fill="#000000">Metamodel::ClassHOW</text>
</a>
</g>
</g>
<!-- Metamodel::ClassHOW&#45;&gt;Metamodel::BoolificationProtocol -->
<g id="edge23" class="edge">
<title>Metamodel::ClassHOW&#45;&gt;Metamodel::BoolificationProtocol</title>
<path fill="none" stroke="#6666ff" d="M680.17,-909.23C778.22,-887.82 964.69,-847.11 1071.65,-823.77"/>
<polygon fill="#6666ff" stroke="#6666ff" points="1072.4,-827.18 1081.43,-821.63 1070.91,-820.34 1072.4,-827.18"/>
</g>
<!-- Metamodel::ClassHOW&#45;&gt;Any -->
<g id="edge2" class="edge">
<title>Metamodel::ClassHOW&#45;&gt;Any</title>
<path fill="none" stroke="#000000" d="M640.67,-905.62C725.37,-845.66 996.39,-653.81 996.39,-653.81 996.39,-653.81 1010.83,-587.42 1019.35,-548.24"/>
<polygon fill="#000000" stroke="#000000" points="1022.82,-548.74 1021.53,-538.22 1015.98,-547.25 1022.82,-548.74"/>
</g>
<!-- Metamodel::ClassHOW&#45;&gt;Metamodel::Naming -->
<g id="edge5" class="edge">
<title>Metamodel::ClassHOW&#45;&gt;Metamodel::Naming</title>
<path fill="none" stroke="#6666ff" d="M718.55,-925.13C831.09,-927.13 1010.29,-930.31 1121.78,-932.29"/>
<polygon fill="#6666ff" stroke="#6666ff" points="1121.96,-935.79 1132.02,-932.47 1122.08,-928.8 1121.96,-935.79"/>
</g>
<!-- Metamodel::ClassHOW&#45;&gt;Metamodel::Documenting -->
<g id="edge6" class="edge">
<title>Metamodel::ClassHOW&#45;&gt;Metamodel::Documenting</title>
<path fill="none" stroke="#6666ff" d="M595.47,-941.15C532.9,-996.36 346.65,-1160.71 346.65,-1160.71 346.65,-1160.71 306.15,-1286.35 287.69,-1343.65"/>
<polygon fill="#6666ff" stroke="#6666ff" points="284.35,-1342.59 284.61,-1353.19 291.01,-1344.74 284.35,-1342.59"/>
</g>
<!-- Metamodel::ClassHOW&#45;&gt;Metamodel::Versioning -->
<g id="edge7" class="edge">
<title>Metamodel::ClassHOW&#45;&gt;Metamodel::Versioning</title>
<path fill="none" stroke="#6666ff" d="M537.31,-911.56C446.24,-897.91 296.39,-875.45 201.58,-861.24"/>
<polygon fill="#6666ff" stroke="#6666ff" points="201.85,-857.74 191.44,-859.72 200.81,-864.67 201.85,-857.74"/>
</g>
<!-- Metamodel::ClassHOW&#45;&gt;Metamodel::Stashing -->
<g id="edge8" class="edge">
<title>Metamodel::ClassHOW&#45;&gt;Metamodel::Stashing</title>
<path fill="none" stroke="#6666ff" d="M650.65,-906.31C736.61,-864.53 958.12,-756.87 1052.63,-710.94"/>
<polygon fill="#6666ff" stroke="#6666ff" points="1054.44,-713.95 1061.91,-706.43 1051.38,-707.65 1054.44,-713.95"/>
</g>
<!-- Metamodel::ClassHOW&#45;&gt;Metamodel::AttributeContainer -->
<g id="edge9" class="edge">
<title>Metamodel::ClassHOW&#45;&gt;Metamodel::AttributeContainer</title>
<path fill="none" stroke="#6666ff" d="M634.63,-941.03C701.58,-1003.7 927.21,-1214.89 1004.87,-1287.57"/>
<polygon fill="#6666ff" stroke="#6666ff" points="1002.64,-1290.28 1012.33,-1294.55 1007.42,-1285.17 1002.64,-1290.28"/>
</g>
<!-- Metamodel::ClassHOW&#45;&gt;Metamodel::Finalization -->
<g id="edge10" class="edge">
<title>Metamodel::ClassHOW&#45;&gt;Metamodel::Finalization</title>
<path fill="none" stroke="#6666ff" d="M597.81,-905.13C537.25,-843.6 339.76,-642.91 269.83,-571.85"/>
<polygon fill="#6666ff" stroke="#6666ff" points="272.21,-569.28 262.7,-564.61 267.22,-574.19 272.21,-569.28"/>
</g>
<!-- Metamodel::ClassHOW&#45;&gt;Metamodel::MethodContainer -->
<g id="edge11" class="edge">
<title>Metamodel::ClassHOW&#45;&gt;Metamodel::MethodContainer</title>
<path fill="none" stroke="#6666ff" d="M613.44,-905.22C608.56,-866.03 596.97,-773.01 591.12,-725.97"/>
<polygon fill="#6666ff" stroke="#6666ff" points="594.57,-725.35 589.86,-715.86 587.62,-726.22 594.57,-725.35"/>
</g>
<!-- Metamodel::ClassHOW&#45;&gt;Metamodel::PrivateMethodContainer -->
<g id="edge12" class="edge">
<title>Metamodel::ClassHOW&#45;&gt;Metamodel::PrivateMethodContainer</title>
<path fill="none" stroke="#6666ff" d="M603.1,-905.21C565.83,-851.65 458.61,-697.59 458.61,-697.59 458.61,-697.59 406.33,-528.83 385.3,-460.93"/>
<polygon fill="#6666ff" stroke="#6666ff" points="388.62,-459.82 382.32,-451.31 381.94,-461.9 388.62,-459.82"/>
</g>
<!-- Metamodel::ClassHOW&#45;&gt;Metamodel::MultiMethodContainer -->
<g id="edge13" class="edge">
<title>Metamodel::ClassHOW&#45;&gt;Metamodel::MultiMethodContainer</title>
<path fill="none" stroke="#6666ff" d="M606.38,-941.54C585.18,-983.07 533.21,-1084.88 508.28,-1133.72"/>
<polygon fill="#6666ff" stroke="#6666ff" points="505.1,-1132.25 503.67,-1142.75 511.33,-1135.44 505.1,-1132.25"/>
</g>
<!-- Metamodel::ClassHOW&#45;&gt;Metamodel::RoleContainer -->
<g id="edge14" class="edge">
<title>Metamodel::ClassHOW&#45;&gt;Metamodel::RoleContainer</title>
<path fill="none" stroke="#6666ff" d="M626.6,-941.21C669.39,-1011.47 826.02,-1268.62 877.42,-1352.99"/>
<polygon fill="#6666ff" stroke="#6666ff" points="874.55,-1355.01 882.74,-1361.73 880.53,-1351.37 874.55,-1355.01"/>
</g>
<!-- Metamodel::ClassHOW&#45;&gt;Metamodel::MultipleInheritance -->
<g id="edge15" class="edge">
<title>Metamodel::ClassHOW&#45;&gt;Metamodel::MultipleInheritance</title>
<path fill="none" stroke="#6666ff" d="M586.65,-940.7C507.69,-988 289.09,-1118.95 200.48,-1172.03"/>
<polygon fill="#6666ff" stroke="#6666ff" points="198.6,-1169.08 191.82,-1177.22 202.2,-1175.08 198.6,-1169.08"/>
</g>
<!-- Metamodel::ClassHOW&#45;&gt;Metamodel::DefaultParent -->
<g id="edge16" class="edge">
<title>Metamodel::ClassHOW&#45;&gt;Metamodel::DefaultParent</title>
<path fill="none" stroke="#6666ff" d="M545.54,-936.57C453.9,-953.89 293.66,-984.19 196.08,-1002.64"/>
<polygon fill="#6666ff" stroke="#6666ff" points="195.14,-999.26 185.96,-1004.56 196.44,-1006.14 195.14,-999.26"/>
</g>
<!-- Metamodel::ClassHOW&#45;&gt;Metamodel::C3MRO -->
<g id="edge17" class="edge">
<title>Metamodel::ClassHOW&#45;&gt;Metamodel::C3MRO</title>
<path fill="none" stroke="#6666ff" d="M603.1,-905.21C565.83,-851.65 458.61,-697.59 458.61,-697.59 458.61,-697.59 524.61,-481 548.55,-402.47"/>
<polygon fill="#6666ff" stroke="#6666ff" points="551.94,-403.35 551.51,-392.76 545.24,-401.31 551.94,-403.35"/>
</g>
<!-- Metamodel::ClassHOW&#45;&gt;Metamodel::MROBasedMethodDispatch -->
<g id="edge18" class="edge">
<title>Metamodel::ClassHOW&#45;&gt;Metamodel::MROBasedMethodDispatch</title>
<path fill="none" stroke="#6666ff" d="M629.76,-905.19C665.98,-858.57 762.56,-734.26 804.85,-679.83"/>
<polygon fill="#6666ff" stroke="#6666ff" points="807.78,-681.76 811.15,-671.72 802.25,-677.47 807.78,-681.76"/>
</g>
<!-- Metamodel::ClassHOW&#45;&gt;Metamodel::MROBasedTypeChecking -->
<g id="edge19" class="edge">
<title>Metamodel::ClassHOW&#45;&gt;Metamodel::MROBasedTypeChecking</title>
<path fill="none" stroke="#6666ff" d="M623.46,-941.7C652.97,-1011.59 756.47,-1256.67 756.47,-1256.67 756.47,-1256.67 765.41,-1380.68 769.55,-1438.01"/>
<polygon fill="#6666ff" stroke="#6666ff" points="766.07,-1438.49 770.29,-1448.21 773.06,-1437.99 766.07,-1438.49"/>
</g>
<!-- Metamodel::ClassHOW&#45;&gt;Metamodel::Trusting -->
<g id="edge20" class="edge">
<title>Metamodel::ClassHOW&#45;&gt;Metamodel::Trusting</title>
<path fill="none" stroke="#6666ff" d="M582.34,-906.23C500.43,-864.31 289.45,-756.34 199.14,-710.12"/>
<polygon fill="#6666ff" stroke="#6666ff" points="200.51,-706.89 190.02,-705.45 197.32,-713.12 200.51,-706.89"/>
</g>
<!-- Metamodel::ClassHOW&#45;&gt;Metamodel::BUILDPLAN -->
<g id="edge21" class="edge">
<title>Metamodel::ClassHOW&#45;&gt;Metamodel::BUILDPLAN</title>
<path fill="none" stroke="#6666ff" d="M617.74,-941.54C623.97,-997.14 642.33,-1160.74 642.33,-1160.74 642.33,-1160.74 582.99,-1256.42 582.99,-1256.42 582.99,-1256.42 580.21,-1346.72 578.75,-1394.13"/>
<polygon fill="#6666ff" stroke="#6666ff" points="575.25,-1394.27 578.44,-1404.37 582.24,-1394.48 575.25,-1394.27"/>
</g>
<!-- Metamodel::ClassHOW&#45;&gt;Metamodel::Mixins -->
<g id="edge22" class="edge">
<title>Metamodel::ClassHOW&#45;&gt;Metamodel::Mixins</title>
<path fill="none" stroke="#6666ff" d="M618.67,-941.69C627.62,-996.88 654.3,-1161.37 665.1,-1228.03"/>
<polygon fill="#6666ff" stroke="#6666ff" points="661.7,-1228.9 666.76,-1238.21 668.61,-1227.78 661.7,-1228.9"/>
</g>
<!-- Metamodel::BaseType -->
<g id="node23" class="node">
<title>Metamodel::BaseType</title>
<g id="a_node23"><a xlink:href="/type/Metamodel::BaseType" xlink:title="Metamodel::BaseType">
<ellipse fill="none" stroke="#6666ff" cx="1471.33" cy="-1416.55" rx="99.38" ry="18"/>
<text text-anchor="middle" x="1471.33" y="-1412.85" font-family="FreeSans" font-size="14.00" fill="#6666ff">Metamodel::BaseType</text>
</a>
</g>
</g>
<!-- Metamodel::EnumHOW -->
<g id="node24" class="node">
<title>Metamodel::EnumHOW</title>
<g id="a_node24"><a xlink:href="/type/Metamodel::EnumHOW" xlink:title="Metamodel::EnumHOW">
<ellipse fill="none" stroke="#000000" cx="999.2" cy="-1070.84" rx="104.78" ry="18"/>
<text text-anchor="middle" x="999.2" y="-1067.14" font-family="FreeSans" font-size="14.00" fill="#000000">Metamodel::EnumHOW</text>
</a>
</g>
</g>
<!-- Metamodel::EnumHOW&#45;&gt;Metamodel::BoolificationProtocol -->
<g id="edge34" class="edge">
<title>Metamodel::EnumHOW&#45;&gt;Metamodel::BoolificationProtocol</title>
<path fill="none" stroke="#6666ff" d="M1009.73,-1052.64C1036.21,-1006.91 1105.64,-886.99 1136.85,-833.07"/>
<polygon fill="#6666ff" stroke="#6666ff" points="1140.06,-834.51 1142.04,-824.1 1134.01,-831 1140.06,-834.51"/>
</g>
<!-- Metamodel::EnumHOW&#45;&gt;Any -->
<g id="edge3" class="edge">
<title>Metamodel::EnumHOW&#45;&gt;Any</title>
<path fill="none" stroke="#000000" d="M999.3,-1052.71C999.7,-976.93 1001.22,-689.55 1001.22,-689.55 1001.22,-689.55 1014.52,-596.61 1021.41,-548.43"/>
<polygon fill="#000000" stroke="#000000" points="1024.9,-548.72 1022.85,-538.33 1017.97,-547.73 1024.9,-548.72"/>
</g>
<!-- Metamodel::EnumHOW&#45;&gt;Metamodel::Naming -->
<g id="edge24" class="edge">
<title>Metamodel::EnumHOW&#45;&gt;Metamodel::Naming</title>
<path fill="none" stroke="#6666ff" d="M1027.87,-1053.24C1068.01,-1028.6 1140.96,-983.82 1185.1,-956.72"/>
<polygon fill="#6666ff" stroke="#6666ff" points="1187.11,-959.6 1193.8,-951.39 1183.44,-953.64 1187.11,-959.6"/>
</g>
<!-- Metamodel::EnumHOW&#45;&gt;Metamodel::Stashing -->
<g id="edge25" class="edge">
<title>Metamodel::EnumHOW&#45;&gt;Metamodel::Stashing</title>
<path fill="none" stroke="#6666ff" d="M1000.06,-1052.64C1002.9,-992.82 1011.76,-806.05 1011.76,-806.05 1011.76,-806.05 1052.44,-750.12 1077.4,-715.8"/>
<polygon fill="#6666ff" stroke="#6666ff" points="1080.32,-717.74 1083.37,-707.59 1074.66,-713.62 1080.32,-717.74"/>
</g>
<!-- Metamodel::EnumHOW&#45;&gt;Metamodel::AttributeContainer -->
<g id="edge26" class="edge">
<title>Metamodel::EnumHOW&#45;&gt;Metamodel::AttributeContainer</title>
<path fill="none" stroke="#6666ff" d="M1001.62,-1088.99C1007.19,-1130.8 1020.95,-1234.11 1027.63,-1284.22"/>
<polygon fill="#6666ff" stroke="#6666ff" points="1024.19,-1284.9 1028.98,-1294.35 1031.13,-1283.98 1024.19,-1284.9"/>
</g>
<!-- Metamodel::EnumHOW&#45;&gt;Metamodel::MethodContainer -->
<g id="edge27" class="edge">
<title>Metamodel::EnumHOW&#45;&gt;Metamodel::MethodContainer</title>
<path fill="none" stroke="#6666ff" d="M979.62,-1053.09C912.59,-992.32 692.14,-792.47 614.75,-722.31"/>
<polygon fill="#6666ff" stroke="#6666ff" points="617.05,-719.67 607.29,-715.55 612.35,-724.86 617.05,-719.67"/>
</g>
<!-- Metamodel::EnumHOW&#45;&gt;Metamodel::MultiMethodContainer -->
<g id="edge28" class="edge">
<title>Metamodel::EnumHOW&#45;&gt;Metamodel::MultiMethodContainer</title>
<path fill="none" stroke="#6666ff" d="M926.35,-1083.81C837.01,-1099.72 685.44,-1126.72 587.7,-1144.12"/>
<polygon fill="#6666ff" stroke="#6666ff" points="587.05,-1140.68 577.82,-1145.88 588.28,-1147.58 587.05,-1140.68"/>
</g>
<!-- Metamodel::EnumHOW&#45;&gt;Metamodel::RoleContainer -->
<g id="edge29" class="edge">
<title>Metamodel::EnumHOW&#45;&gt;Metamodel::RoleContainer</title>
<path fill="none" stroke="#6666ff" d="M991.73,-1088.99C968.61,-1145.13 899.8,-1312.26 899.8,-1312.26 899.8,-1312.26 897.98,-1333.09 896.35,-1351.65"/>
<polygon fill="#6666ff" stroke="#6666ff" points="892.85,-1351.59 895.46,-1361.86 899.82,-1352.2 892.85,-1351.59"/>
</g>
<!-- Metamodel::EnumHOW&#45;&gt;Metamodel::MROBasedMethodDispatch -->
<g id="edge31" class="edge">
<title>Metamodel::EnumHOW&#45;&gt;Metamodel::MROBasedMethodDispatch</title>
<path fill="none" stroke="#6666ff" d="M991.61,-1052.65C964.13,-986.78 869.71,-760.47 836.68,-681.3"/>
<polygon fill="#6666ff" stroke="#6666ff" points="839.87,-679.86 832.79,-671.98 833.41,-682.55 839.87,-679.86"/>
</g>
<!-- Metamodel::EnumHOW&#45;&gt;Metamodel::MROBasedTypeChecking -->
<g id="edge32" class="edge">
<title>Metamodel::EnumHOW&#45;&gt;Metamodel::MROBasedTypeChecking</title>
<path fill="none" stroke="#6666ff" d="M986.27,-1088.79C938.76,-1154.77 776.58,-1379.96 776.58,-1379.96 776.58,-1379.96 774.7,-1412.7 773.25,-1437.9"/>
<polygon fill="#6666ff" stroke="#6666ff" points="769.74,-1437.93 772.66,-1448.12 776.73,-1438.34 769.74,-1437.93"/>
</g>
<!-- Metamodel::EnumHOW&#45;&gt;Metamodel::BUILDPLAN -->
<g id="edge33" class="edge">
<title>Metamodel::EnumHOW&#45;&gt;Metamodel::BUILDPLAN</title>
<path fill="none" stroke="#6666ff" d="M978.02,-1088.52C908.4,-1146.61 686.59,-1331.73 606.81,-1398.31"/>
<polygon fill="#6666ff" stroke="#6666ff" points="604.54,-1395.65 599.11,-1404.74 609.03,-1401.02 604.54,-1395.65"/>
</g>
<!-- Metamodel::EnumHOW&#45;&gt;Metamodel::Mixins -->
<g id="edge35" class="edge">
<title>Metamodel::EnumHOW&#45;&gt;Metamodel::Mixins</title>
<path fill="none" stroke="#6666ff" d="M968.5,-1088.14C908.39,-1122.03 775.25,-1197.07 708.9,-1234.47"/>
<polygon fill="#6666ff" stroke="#6666ff" points="706.99,-1231.53 699.99,-1239.49 710.42,-1237.63 706.99,-1231.53"/>
</g>
<!-- Metamodel::EnumHOW&#45;&gt;Metamodel::BaseType -->
<g id="edge30" class="edge">
<title>Metamodel::EnumHOW&#45;&gt;Metamodel::BaseType</title>
<path fill="none" stroke="#6666ff" d="M1023.26,-1088.46C1101.72,-1145.91 1350.19,-1327.85 1439.21,-1393.03"/>
<polygon fill="#6666ff" stroke="#6666ff" points="1437.18,-1395.88 1447.32,-1398.96 1441.32,-1390.23 1437.18,-1395.88"/>
</g>
<!-- Metamodel::TypePretense -->
<g id="node25" class="node">
<title>Metamodel::TypePretense</title>
<g id="a_node25"><a xlink:href="/type/Metamodel::TypePretense" xlink:title="Metamodel::TypePretense">
<ellipse fill="none" stroke="#6666ff" cx="1969.72" cy="-627.99" rx="114.28" ry="18"/>
<text text-anchor="middle" x="1969.72" y="-624.29" font-family="FreeSans" font-size="14.00" fill="#6666ff">Metamodel::TypePretense</text>
</a>
</g>
</g>
<!-- Metamodel::RolePunning -->
<g id="node26" class="node">
<title>Metamodel::RolePunning</title>
<g id="a_node26"><a xlink:href="/type/Metamodel::RolePunning" xlink:title="Metamodel::RolePunning">
<ellipse fill="none" stroke="#6666ff" cx="1766.54" cy="-160.96" rx="109.68" ry="18"/>
<text text-anchor="middle" x="1766.54" y="-157.26" font-family="FreeSans" font-size="14.00" fill="#6666ff">Metamodel::RolePunning</text>
</a>
</g>
</g>
<!-- Metamodel::ParametricRoleGroupHOW -->
<g id="node27" class="node">
<title>Metamodel::ParametricRoleGroupHOW</title>
<g id="a_node27"><a xlink:href="/type/Metamodel::ParametricRoleGroupHOW" xlink:title="Metamodel::ParametricRoleGroupHOW">
<ellipse fill="none" stroke="#000000" cx="1502.61" cy="-546.52" rx="166.27" ry="18"/>
<text text-anchor="middle" x="1502.61" y="-542.82" font-family="FreeSans" font-size="14.00" fill="#000000">Metamodel::ParametricRoleGroupHOW</text>
</a>
</g>
</g>
<!-- Metamodel::ParametricRoleGroupHOW&#45;&gt;Metamodel::BoolificationProtocol -->
<g id="edge40" class="edge">
<title>Metamodel::ParametricRoleGroupHOW&#45;&gt;Metamodel::BoolificationProtocol</title>
<path fill="none" stroke="#6666ff" d="M1478.55,-564.37C1417.2,-609.85 1254.91,-730.16 1185.12,-781.91"/>
<polygon fill="#6666ff" stroke="#6666ff" points="1182.63,-779.39 1176.69,-788.16 1186.8,-785.01 1182.63,-779.39"/>
</g>
<!-- Metamodel::ParametricRoleGroupHOW&#45;&gt;Any -->
<g id="edge4" class="edge">
<title>Metamodel::ParametricRoleGroupHOW&#45;&gt;Any</title>
<path fill="none" stroke="#000000" d="M1354.25,-538.34C1252.36,-532.72 1124.71,-525.68 1062.7,-522.26"/>
<polygon fill="#000000" stroke="#000000" points="1062.79,-518.76 1052.61,-521.7 1062.41,-525.75 1062.79,-518.76"/>
</g>
<!-- Metamodel::ParametricRoleGroupHOW&#45;&gt;Metamodel::Naming -->
<g id="edge36" class="edge">
<title>Metamodel::ParametricRoleGroupHOW&#45;&gt;Metamodel::Naming</title>
<path fill="none" stroke="#6666ff" d="M1489.46,-564.7C1444.16,-627.25 1294.56,-833.87 1241.16,-907.62"/>
<polygon fill="#6666ff" stroke="#6666ff" points="1238.17,-905.79 1235.14,-915.94 1243.84,-909.89 1238.17,-905.79"/>
</g>
<!-- Metamodel::ParametricRoleGroupHOW&#45;&gt;Metamodel::Stashing -->
<g id="edge37" class="edge">
<title>Metamodel::ParametricRoleGroupHOW&#45;&gt;Metamodel::Stashing</title>
<path fill="none" stroke="#6666ff" d="M1453.62,-563.79C1377.43,-590.64 1231.06,-642.21 1151.38,-670.29"/>
<polygon fill="#6666ff" stroke="#6666ff" points="1149.8,-667.13 1141.53,-673.76 1152.13,-673.74 1149.8,-667.13"/>
</g>
<!-- Metamodel::ParametricRoleGroupHOW&#45;&gt;Metamodel::TypePretense -->
<g id="edge38" class="edge">
<title>Metamodel::ParametricRoleGroupHOW&#45;&gt;Metamodel::TypePretense</title>
<path fill="none" stroke="#6666ff" d="M1590.47,-561.85C1674.28,-576.46 1799.75,-598.34 1883.13,-612.88"/>
<polygon fill="#6666ff" stroke="#6666ff" points="1882.63,-616.35 1893.09,-614.62 1883.84,-609.45 1882.63,-616.35"/>
</g>
<!-- Metamodel::ParametricRoleGroupHOW&#45;&gt;Metamodel::RolePunning -->
<g id="edge39" class="edge">
<title>Metamodel::ParametricRoleGroupHOW&#45;&gt;Metamodel::RolePunning</title>
<path fill="none" stroke="#6666ff" d="M1514.99,-528.44C1557.59,-466.21 1698.3,-260.65 1748.52,-187.27"/>
<polygon fill="#6666ff" stroke="#6666ff" points="1751.43,-189.23 1754.19,-179 1745.65,-185.27 1751.43,-189.23"/>
</g>
</g>
</svg>
