<?xml version="1.0" encoding="UTF-8" standalone="no"?>
<!DOCTYPE svg PUBLIC "-//W3C//DTD SVG 1.1//EN"
 "http://www.w3.org/Graphics/SVG/1.1/DTD/svg11.dtd">
<!-- Generated by graphviz version 2.43.0 (0)
 -->
<!-- Title: perl6&#45;type&#45;graph Pages: 1 -->
<svg width="321pt" height="260pt"
 viewBox="0.00 0.00 321.49 260.00" xmlns="http://www.w3.org/2000/svg" xmlns:xlink="http://www.w3.org/1999/xlink">
<g id="graph0" class="graph" transform="scale(1 1) rotate(0) translate(4 256)">
<title>perl6&#45;type&#45;graph</title>
<polygon fill="white" stroke="transparent" points="-4,4 -4,-256 317.49,-256 317.49,4 -4,4"/>
<!-- Uni -->
<g id="node1" class="node">
<title>Uni</title>
<g id="a_node1"><a xlink:href="/type/Uni" xlink:title="Uni">
<ellipse fill="none" stroke="#000000" cx="156.75" cy="-90" rx="27" ry="18"/>
<text text-anchor="middle" x="156.75" y="-86.3" font-family="FreeSans" font-size="14.00" fill="#000000">Uni</text>
</a>
</g>
</g>
<!-- Any -->
<g id="node3" class="node">
<title>Any</title>
<g id="a_node3"><a xlink:href="/type/Any" xlink:title="Any">
<ellipse fill="none" stroke="#000000" cx="62.75" cy="-162" rx="27" ry="18"/>
<text text-anchor="middle" x="62.75" y="-158.3" font-family="FreeSans" font-size="14.00" fill="#000000">Any</text>
</a>
</g>
</g>
<!-- Uni&#45;&gt;Any -->
<g id="edge1" class="edge">
<title>Uni&#45;&gt;Any</title>
<path fill="none" stroke="#000000" d="M139.07,-104.17C124.8,-114.79 104.52,-129.89 88.46,-141.85"/>
<polygon fill="#000000" stroke="#000000" points="85.96,-139.35 80.03,-148.13 90.14,-144.96 85.96,-139.35"/>
</g>
<!-- Positional -->
<g id="node4" class="node">
<title>Positional</title>
<g id="a_node4"><a xlink:href="/type/Positional" xlink:title="Positional">
<ellipse fill="none" stroke="#6666ff" cx="156.75" cy="-162" rx="48.99" ry="18"/>
<text text-anchor="middle" x="156.75" y="-158.3" font-family="FreeSans" font-size="14.00" fill="#6666ff">Positional</text>
</a>
</g>
</g>
<!-- Uni&#45;&gt;Positional -->
<g id="edge7" class="edge">
<title>Uni&#45;&gt;Positional</title>
<path fill="none" stroke="#6666ff" d="M156.75,-108.3C156.75,-116.02 156.75,-125.29 156.75,-133.89"/>
<polygon fill="#6666ff" stroke="#6666ff" points="153.25,-133.9 156.75,-143.9 160.25,-133.9 153.25,-133.9"/>
</g>
<!-- Stringy -->
<g id="node5" class="node">
<title>Stringy</title>
<g id="a_node5"><a xlink:href="/type/Stringy" xlink:title="Stringy">
<ellipse fill="none" stroke="#6666ff" cx="261.75" cy="-162" rx="38.19" ry="18"/>
<text text-anchor="middle" x="261.75" y="-158.3" font-family="FreeSans" font-size="14.00" fill="#6666ff">Stringy</text>
</a>
</g>
</g>
<!-- Uni&#45;&gt;Stringy -->
<g id="edge8" class="edge">
<title>Uni&#45;&gt;Stringy</title>
<path fill="none" stroke="#6666ff" d="M175.52,-103.51C191.23,-113.99 213.94,-129.13 232.11,-141.24"/>
<polygon fill="#6666ff" stroke="#6666ff" points="230.35,-144.27 240.61,-146.91 234.23,-138.45 230.35,-144.27"/>
</g>
<!-- Mu -->
<g id="node2" class="node">
<title>Mu</title>
<g id="a_node2"><a xlink:href="/type/Mu" xlink:title="Mu">
<ellipse fill="none" stroke="#000000" cx="62.75" cy="-234" rx="27" ry="18"/>
<text text-anchor="middle" x="62.75" y="-230.3" font-family="FreeSans" font-size="14.00" fill="#000000">Mu</text>
</a>
</g>
</g>
<!-- Any&#45;&gt;Mu -->
<g id="edge2" class="edge">
<title>Any&#45;&gt;Mu</title>
<path fill="none" stroke="#000000" d="M62.75,-180.3C62.75,-188.02 62.75,-197.29 62.75,-205.89"/>
<polygon fill="#000000" stroke="#000000" points="59.25,-205.9 62.75,-215.9 66.25,-205.9 59.25,-205.9"/>
</g>
<!-- NFKD -->
<g id="node6" class="node">
<title>NFKD</title>
<g id="a_node6"><a xlink:href="/type/NFKD" xlink:title="NFKD">
<ellipse fill="none" stroke="#000000" cx="35.75" cy="-18" rx="36" ry="18"/>
<text text-anchor="middle" x="35.75" y="-14.3" font-family="FreeSans" font-size="14.00" fill="#000000">NFKD</text>
</a>
</g>
</g>
<!-- NFKD&#45;&gt;Uni -->
<g id="edge3" class="edge">
<title>NFKD&#45;&gt;Uni</title>
<path fill="none" stroke="#000000" d="M58.22,-32C77.96,-43.42 106.77,-60.09 128.14,-72.45"/>
<polygon fill="#000000" stroke="#000000" points="126.39,-75.48 136.8,-77.46 129.9,-69.42 126.39,-75.48"/>
</g>
<!-- NFC -->
<g id="node7" class="node">
<title>NFC</title>
<g id="a_node7"><a xlink:href="/type/NFC" xlink:title="NFC">
<ellipse fill="none" stroke="#000000" cx="118.75" cy="-18" rx="29.5" ry="18"/>
<text text-anchor="middle" x="118.75" y="-14.3" font-family="FreeSans" font-size="14.00" fill="#000000">NFC</text>
</a>
</g>
</g>
<!-- NFC&#45;&gt;Uni -->
<g id="edge4" class="edge">
<title>NFC&#45;&gt;Uni</title>
<path fill="none" stroke="#000000" d="M127.56,-35.24C132.16,-43.72 137.9,-54.29 143.07,-63.8"/>
<polygon fill="#000000" stroke="#000000" points="140.13,-65.73 147.98,-72.85 146.29,-62.39 140.13,-65.73"/>
</g>
<!-- NFD -->
<g id="node8" class="node">
<title>NFD</title>
<g id="a_node8"><a xlink:href="/type/NFD" xlink:title="NFD">
<ellipse fill="none" stroke="#000000" cx="194.75" cy="-18" rx="29.5" ry="18"/>
<text text-anchor="middle" x="194.75" y="-14.3" font-family="FreeSans" font-size="14.00" fill="#000000">NFD</text>
</a>
</g>
</g>
<!-- NFD&#45;&gt;Uni -->
<g id="edge5" class="edge">
<title>NFD&#45;&gt;Uni</title>
<path fill="none" stroke="#000000" d="M185.93,-35.24C181.33,-43.72 175.59,-54.29 170.43,-63.8"/>
<polygon fill="#000000" stroke="#000000" points="167.21,-62.39 165.51,-72.85 173.36,-65.73 167.21,-62.39"/>
</g>
<!-- NFKC -->
<g id="node9" class="node">
<title>NFKC</title>
<g id="a_node9"><a xlink:href="/type/NFKC" xlink:title="NFKC">
<ellipse fill="none" stroke="#000000" cx="277.75" cy="-18" rx="36" ry="18"/>
<text text-anchor="middle" x="277.75" y="-14.3" font-family="FreeSans" font-size="14.00" fill="#000000">NFKC</text>
</a>
</g>
</g>
<!-- NFKC&#45;&gt;Uni -->
<g id="edge6" class="edge">
<title>NFKC&#45;&gt;Uni</title>
<path fill="none" stroke="#000000" d="M255.27,-32C235.54,-43.42 206.73,-60.09 185.35,-72.45"/>
<polygon fill="#000000" stroke="#000000" points="183.6,-69.42 176.69,-77.46 187.1,-75.48 183.6,-69.42"/>
</g>
</g>
</svg>
