<?xml version="1.0" encoding="UTF-8" standalone="no"?>
<!DOCTYPE svg PUBLIC "-//W3C//DTD SVG 1.1//EN"
 "http://www.w3.org/Graphics/SVG/1.1/DTD/svg11.dtd">
<!-- Generated by graphviz version 2.43.0 (0)
 -->
<!-- Title: perl6&#45;type&#45;graph Pages: 1 -->
<svg width="1944pt" height="2016pt"
 viewBox="0.00 0.00 1944.24 2015.60" xmlns="http://www.w3.org/2000/svg" xmlns:xlink="http://www.w3.org/1999/xlink">
<g id="graph0" class="graph" transform="scale(1 1) rotate(0) translate(4 2011.6)">
<title>perl6&#45;type&#45;graph</title>
<polygon fill="#ffffff" stroke="transparent" points="-4,4 -4,-2011.6 1940.24,-2011.6 1940.24,4 -4,4"/>
<!-- Metamodel::Versioning -->
<g id="node1" class="node">
<title>Metamodel::Versioning</title>
<g id="a_node1"><a xlink:href="/type/Metamodel::Versioning" xlink:title="Metamodel::Versioning">
<ellipse fill="none" stroke="#6666ff" cx="1032.46" cy="-1043.61" rx="100.98" ry="18"/>
<text text-anchor="middle" x="1032.46" y="-1039.91" font-family="FreeSans" font-size="14.00" fill="#6666ff">Metamodel::Versioning</text>
</a>
</g>
</g>
<!-- Mu -->
<g id="node2" class="node">
<title>Mu</title>
<g id="a_node2"><a xlink:href="/type/Mu" xlink:title="Mu">
<ellipse fill="none" stroke="#000000" cx="1442.58" cy="-346.58" rx="27" ry="18"/>
<text text-anchor="middle" x="1442.58" y="-342.88" font-family="FreeSans" font-size="14.00" fill="#000000">Mu</text>
</a>
</g>
</g>
<!-- Any -->
<g id="node3" class="node">
<title>Any</title>
<g id="a_node3"><a xlink:href="/type/Any" xlink:title="Any">
<ellipse fill="none" stroke="#000000" cx="1129.79" cy="-808.18" rx="27" ry="18"/>
<text text-anchor="middle" x="1129.79" y="-804.48" font-family="FreeSans" font-size="14.00" fill="#000000">Any</text>
</a>
</g>
</g>
<!-- Any&#45;&gt;Mu -->
<g id="edge1" class="edge">
<title>Any&#45;&gt;Mu</title>
<path fill="none" stroke="#000000" d="M1140.93,-791.75C1187.76,-722.64 1368.95,-455.24 1425.57,-371.67"/>
<polygon fill="#000000" stroke="#000000" points="1428.54,-373.53 1431.25,-363.29 1422.75,-369.61 1428.54,-373.53"/>
</g>
<!-- Metamodel::Naming -->
<g id="node4" class="node">
<title>Metamodel::Naming</title>
<g id="a_node4"><a xlink:href="/type/Metamodel::Naming" xlink:title="Metamodel::Naming">
<ellipse fill="none" stroke="#6666ff" cx="920.51" cy="-950.62" rx="90.18" ry="18"/>
<text text-anchor="middle" x="920.51" y="-946.92" font-family="FreeSans" font-size="14.00" fill="#6666ff">Metamodel::Naming</text>
</a>
</g>
</g>
<!-- Metamodel::Documenting -->
<g id="node5" class="node">
<title>Metamodel::Documenting</title>
<g id="a_node5"><a xlink:href="/type/Metamodel::Documenting" xlink:title="Metamodel::Documenting">
<ellipse fill="none" stroke="#6666ff" cx="1241.97" cy="-948.63" rx="111.28" ry="18"/>
<text text-anchor="middle" x="1241.97" y="-944.93" font-family="FreeSans" font-size="14.00" fill="#6666ff">Metamodel::Documenting</text>
</a>
</g>
</g>
<!-- Metamodel::Stashing -->
<g id="node6" class="node">
<title>Metamodel::Stashing</title>
<g id="a_node6"><a xlink:href="/type/Metamodel::Stashing" xlink:title="Metamodel::Stashing">
<ellipse fill="none" stroke="#6666ff" cx="1066.98" cy="-883.14" rx="93.68" ry="18"/>
<text text-anchor="middle" x="1066.98" y="-879.44" font-family="FreeSans" font-size="14.00" fill="#6666ff">Metamodel::Stashing</text>
</a>
</g>
</g>
<!-- Metamodel::TypePretense -->
<g id="node7" class="node">
<title>Metamodel::TypePretense</title>
<g id="a_node7"><a xlink:href="/type/Metamodel::TypePretense" xlink:title="Metamodel::TypePretense">
<ellipse fill="none" stroke="#6666ff" cx="368.33" cy="-635.57" rx="114.28" ry="18"/>
<text text-anchor="middle" x="368.33" y="-631.87" font-family="FreeSans" font-size="14.00" fill="#6666ff">Metamodel::TypePretense</text>
</a>
</g>
</g>
<!-- Metamodel::MethodDelegation -->
<g id="node8" class="node">
<title>Metamodel::MethodDelegation</title>
<g id="a_node8"><a xlink:href="/type/Metamodel::MethodDelegation" xlink:title="Metamodel::MethodDelegation">
<ellipse fill="none" stroke="#6666ff" cx="810.85" cy="-18" rx="131.08" ry="18"/>
<text text-anchor="middle" x="810.85" y="-14.3" font-family="FreeSans" font-size="14.00" fill="#6666ff">Metamodel::MethodDelegation</text>
</a>
</g>
</g>
<!-- Metamodel::ModuleHOW -->
<g id="node9" class="node">
<title>Metamodel::ModuleHOW</title>
<g id="a_node9"><a xlink:href="/type/Metamodel::ModuleHOW" xlink:title="Metamodel::ModuleHOW">
<ellipse fill="none" stroke="#000000" cx="867.77" cy="-504.25" rx="110.48" ry="18"/>
<text text-anchor="middle" x="867.77" y="-500.55" font-family="FreeSans" font-size="14.00" fill="#000000">Metamodel::ModuleHOW</text>
</a>
</g>
</g>
<!-- Metamodel::ModuleHOW&#45;&gt;Metamodel::Versioning -->
<g id="edge9" class="edge">
<title>Metamodel::ModuleHOW&#45;&gt;Metamodel::Versioning</title>
<path fill="none" stroke="#6666ff" d="M872.71,-522.26C893.39,-597.54 971.79,-883.04 971.79,-883.04 971.79,-883.04 1012.45,-950.75 1012.45,-950.75 1012.45,-950.75 1020.49,-988.06 1026.38,-1015.38"/>
<polygon fill="#6666ff" stroke="#6666ff" points="1022.98,-1016.22 1028.51,-1025.26 1029.82,-1014.75 1022.98,-1016.22"/>
</g>
<!-- Metamodel::ModuleHOW&#45;&gt;Any -->
<g id="edge2" class="edge">
<title>Metamodel::ModuleHOW&#45;&gt;Any</title>
<path fill="none" stroke="#000000" d="M883.37,-522.35C928.51,-574.71 1059.22,-726.32 1109.63,-784.79"/>
<polygon fill="#000000" stroke="#000000" points="1107.01,-787.12 1116.19,-792.41 1112.31,-782.55 1107.01,-787.12"/>
</g>
<!-- Metamodel::ModuleHOW&#45;&gt;Metamodel::Naming -->
<g id="edge7" class="edge">
<title>Metamodel::ModuleHOW&#45;&gt;Metamodel::Naming</title>
<path fill="none" stroke="#6666ff" d="M869.9,-522.3C878.04,-591.21 907.21,-838.03 917.16,-922.24"/>
<polygon fill="#6666ff" stroke="#6666ff" points="913.7,-922.82 918.35,-932.34 920.66,-922 913.7,-922.82"/>
</g>
<!-- Metamodel::ModuleHOW&#45;&gt;Metamodel::Documenting -->
<g id="edge8" class="edge">
<title>Metamodel::ModuleHOW&#45;&gt;Metamodel::Documenting</title>
<path fill="none" stroke="#6666ff" d="M881.45,-522.24C932.58,-589.45 1109.46,-821.97 1109.46,-821.97 1109.46,-821.97 1177.38,-886.89 1215.97,-923.78"/>
<polygon fill="#6666ff" stroke="#6666ff" points="1213.62,-926.37 1223.26,-930.75 1218.45,-921.31 1213.62,-926.37"/>
</g>
<!-- Metamodel::ModuleHOW&#45;&gt;Metamodel::Stashing -->
<g id="edge10" class="edge">
<title>Metamodel::ModuleHOW&#45;&gt;Metamodel::Stashing</title>
<path fill="none" stroke="#6666ff" d="M877.24,-522.27C909.36,-583.35 1014.24,-782.82 1052.68,-855.95"/>
<polygon fill="#6666ff" stroke="#6666ff" points="1049.7,-857.79 1057.45,-865.01 1055.89,-854.53 1049.7,-857.79"/>
</g>
<!-- Metamodel::ModuleHOW&#45;&gt;Metamodel::TypePretense -->
<g id="edge11" class="edge">
<title>Metamodel::ModuleHOW&#45;&gt;Metamodel::TypePretense</title>
<path fill="none" stroke="#6666ff" d="M809.5,-519.57C716.83,-543.93 536.26,-591.42 437.29,-617.44"/>
<polygon fill="#6666ff" stroke="#6666ff" points="436.17,-614.12 427.38,-620.04 437.95,-620.89 436.17,-614.12"/>
</g>
<!-- Metamodel::ModuleHOW&#45;&gt;Metamodel::MethodDelegation -->
<g id="edge12" class="edge">
<title>Metamodel::ModuleHOW&#45;&gt;Metamodel::MethodDelegation</title>
<path fill="none" stroke="#6666ff" d="M865.64,-486.07C857.01,-412.35 824.57,-135.27 814.12,-45.94"/>
<polygon fill="#6666ff" stroke="#6666ff" points="817.59,-45.53 812.95,-36.01 810.64,-46.35 817.59,-45.53"/>
</g>
<!-- Metamodel::MultipleInheritance -->
<g id="node10" class="node">
<title>Metamodel::MultipleInheritance</title>
<g id="a_node10"><a xlink:href="/type/Metamodel::MultipleInheritance" xlink:title="Metamodel::MultipleInheritance">
<ellipse fill="none" stroke="#6666ff" cx="1101.31" cy="-1240.37" rx="133.78" ry="18"/>
<text text-anchor="middle" x="1101.31" y="-1236.67" font-family="FreeSans" font-size="14.00" fill="#6666ff">Metamodel::MultipleInheritance</text>
</a>
</g>
</g>
<!-- Metamodel::C3MRO -->
<g id="node11" class="node">
<title>Metamodel::C3MRO</title>
<g id="a_node11"><a xlink:href="/type/Metamodel::C3MRO" xlink:title="Metamodel::C3MRO">
<ellipse fill="none" stroke="#6666ff" cx="1741.14" cy="-1100.2" rx="92.08" ry="18"/>
<text text-anchor="middle" x="1741.14" y="-1096.5" font-family="FreeSans" font-size="14.00" fill="#6666ff">Metamodel::C3MRO</text>
</a>
</g>
</g>
<!-- Metamodel::MROBasedMethodDispatch -->
<g id="node12" class="node">
<title>Metamodel::MROBasedMethodDispatch</title>
<g id="a_node12"><a xlink:href="/type/Metamodel::MROBasedMethodDispatch" xlink:title="Metamodel::MROBasedMethodDispatch">
<ellipse fill="none" stroke="#6666ff" cx="1654.01" cy="-1339.44" rx="169.77" ry="18"/>
<text text-anchor="middle" x="1654.01" y="-1335.74" font-family="FreeSans" font-size="14.00" fill="#6666ff">Metamodel::MROBasedMethodDispatch</text>
</a>
</g>
</g>
<!-- Metamodel::MROBasedTypeChecking -->
<g id="node13" class="node">
<title>Metamodel::MROBasedTypeChecking</title>
<g id="a_node13"><a xlink:href="/type/Metamodel::MROBasedTypeChecking" xlink:title="Metamodel::MROBasedTypeChecking">
<ellipse fill="none" stroke="#6666ff" cx="1773.1" cy="-1242.99" rx="163.27" ry="18"/>
<text text-anchor="middle" x="1773.1" y="-1239.29" font-family="FreeSans" font-size="14.00" fill="#6666ff">Metamodel::MROBasedTypeChecking</text>
</a>
</g>
</g>
<!-- Metamodel::NativeHOW -->
<g id="node14" class="node">
<title>Metamodel::NativeHOW</title>
<g id="a_node14"><a xlink:href="/type/Metamodel::NativeHOW" xlink:title="Metamodel::NativeHOW">
<ellipse fill="none" stroke="#000000" cx="1504.2" cy="-839.43" rx="106.68" ry="18"/>
<text text-anchor="middle" x="1504.2" y="-835.73" font-family="FreeSans" font-size="14.00" fill="#000000">Metamodel::NativeHOW</text>
</a>
</g>
</g>
<!-- Metamodel::NativeHOW&#45;&gt;Metamodel::Versioning -->
<g id="edge15" class="edge">
<title>Metamodel::NativeHOW&#45;&gt;Metamodel::Versioning</title>
<path fill="none" stroke="#6666ff" d="M1480.18,-856.99C1437.92,-887.89 1354.7,-948.75 1354.7,-948.75 1354.7,-948.75 1321.23,-962.57 1321.23,-962.57 1321.23,-962.57 1181.69,-1001.73 1096.61,-1025.6"/>
<polygon fill="#6666ff" stroke="#6666ff" points="1095.46,-1022.29 1086.78,-1028.36 1097.35,-1029.03 1095.46,-1022.29"/>
</g>
<!-- Metamodel::NativeHOW&#45;&gt;Any -->
<g id="edge3" class="edge">
<title>Metamodel::NativeHOW&#45;&gt;Any</title>
<path fill="none" stroke="#000000" d="M1408.27,-831.42C1329.7,-824.87 1222.73,-815.94 1167.01,-811.29"/>
<polygon fill="#000000" stroke="#000000" points="1167.15,-807.79 1156.89,-810.44 1166.57,-814.76 1167.15,-807.79"/>
</g>
<!-- Metamodel::NativeHOW&#45;&gt;Metamodel::Naming -->
<g id="edge13" class="edge">
<title>Metamodel::NativeHOW&#45;&gt;Metamodel::Naming</title>
<path fill="none" stroke="#6666ff" d="M1433.21,-852.95C1322.47,-874.05 1109.56,-914.61 996.08,-936.22"/>
<polygon fill="#6666ff" stroke="#6666ff" points="995.25,-932.82 986.08,-938.13 996.56,-939.7 995.25,-932.82"/>
</g>
<!-- Metamodel::NativeHOW&#45;&gt;Metamodel::Documenting -->
<g id="edge14" class="edge">
<title>Metamodel::NativeHOW&#45;&gt;Metamodel::Documenting</title>
<path fill="none" stroke="#6666ff" d="M1464.09,-856.13C1417.85,-875.39 1341.84,-907.04 1291.83,-927.87"/>
<polygon fill="#6666ff" stroke="#6666ff" points="1290.39,-924.68 1282.51,-931.75 1293.08,-931.14 1290.39,-924.68"/>
</g>
<!-- Metamodel::NativeHOW&#45;&gt;Metamodel::Stashing -->
<g id="edge16" class="edge">
<title>Metamodel::NativeHOW&#45;&gt;Metamodel::Stashing</title>
<path fill="none" stroke="#6666ff" d="M1412.28,-848.62C1338.36,-856.01 1234.93,-866.35 1160.57,-873.78"/>
<polygon fill="#6666ff" stroke="#6666ff" points="1159.88,-870.34 1150.28,-874.81 1160.58,-877.3 1159.88,-870.34"/>
</g>
<!-- Metamodel::NativeHOW&#45;&gt;Metamodel::MultipleInheritance -->
<g id="edge17" class="edge">
<title>Metamodel::NativeHOW&#45;&gt;Metamodel::MultipleInheritance</title>
<path fill="none" stroke="#6666ff" d="M1486.11,-857.43C1421.42,-921.81 1201.47,-1140.69 1126.55,-1215.25"/>
<polygon fill="#6666ff" stroke="#6666ff" points="1123.97,-1212.88 1119.36,-1222.41 1128.91,-1217.84 1123.97,-1212.88"/>
</g>
<!-- Metamodel::NativeHOW&#45;&gt;Metamodel::C3MRO -->
<g id="edge18" class="edge">
<title>Metamodel::NativeHOW&#45;&gt;Metamodel::C3MRO</title>
<path fill="none" stroke="#6666ff" d="M1520.49,-857.35C1561.66,-902.66 1670.02,-1021.93 1717.87,-1074.59"/>
<polygon fill="#6666ff" stroke="#6666ff" points="1715.42,-1077.1 1724.74,-1082.15 1720.6,-1072.4 1715.42,-1077.1"/>
</g>
<!-- Metamodel::NativeHOW&#45;&gt;Metamodel::MROBasedMethodDispatch -->
<g id="edge19" class="edge">
<title>Metamodel::NativeHOW&#45;&gt;Metamodel::MROBasedMethodDispatch</title>
<path fill="none" stroke="#6666ff" d="M1508.88,-857.55C1529.15,-936.05 1608.37,-1242.88 1608.37,-1242.88 1608.37,-1242.88 1627.61,-1283.58 1641.1,-1312.14"/>
<polygon fill="#6666ff" stroke="#6666ff" points="1637.98,-1313.73 1645.42,-1321.28 1644.31,-1310.74 1637.98,-1313.73"/>
</g>
<!-- Metamodel::NativeHOW&#45;&gt;Metamodel::MROBasedTypeChecking -->
<g id="edge20" class="edge">
<title>Metamodel::NativeHOW&#45;&gt;Metamodel::MROBasedTypeChecking</title>
<path fill="none" stroke="#6666ff" d="M1514.26,-857.75C1546.82,-917.08 1647.25,-1100.05 1647.25,-1100.05 1647.25,-1100.05 1714.09,-1175.97 1750.35,-1217.15"/>
<polygon fill="#6666ff" stroke="#6666ff" points="1747.93,-1219.7 1757.16,-1224.89 1753.18,-1215.07 1747.93,-1219.7"/>
</g>
<!-- Metamodel::MethodContainer -->
<g id="node15" class="node">
<title>Metamodel::MethodContainer</title>
<g id="a_node15"><a xlink:href="/type/Metamodel::MethodContainer" xlink:title="Metamodel::MethodContainer">
<ellipse fill="none" stroke="#6666ff" cx="750.93" cy="-1680.69" rx="127.28" ry="18"/>
<text text-anchor="middle" x="750.93" y="-1676.99" font-family="FreeSans" font-size="14.00" fill="#6666ff">Metamodel::MethodContainer</text>
</a>
</g>
</g>
<!-- Metamodel::PrivateMethodContainer -->
<g id="node16" class="node">
<title>Metamodel::PrivateMethodContainer</title>
<g id="a_node16"><a xlink:href="/type/Metamodel::PrivateMethodContainer" xlink:title="Metamodel::PrivateMethodContainer">
<ellipse fill="none" stroke="#6666ff" cx="908.17" cy="-1607.68" rx="154.87" ry="18"/>
<text text-anchor="middle" x="908.17" y="-1603.98" font-family="FreeSans" font-size="14.00" fill="#6666ff">Metamodel::PrivateMethodContainer</text>
</a>
</g>
</g>
<!-- Metamodel::MultiMethodContainer -->
<g id="node17" class="node">
<title>Metamodel::MultiMethodContainer</title>
<g id="a_node17"><a xlink:href="/type/Metamodel::MultiMethodContainer" xlink:title="Metamodel::MultiMethodContainer">
<ellipse fill="none" stroke="#6666ff" cx="857.17" cy="-1450.65" rx="146.47" ry="18"/>
<text text-anchor="middle" x="857.17" y="-1446.95" font-family="FreeSans" font-size="14.00" fill="#6666ff">Metamodel::MultiMethodContainer</text>
</a>
</g>
</g>
<!-- Metamodel::AttributeContainer -->
<g id="node18" class="node">
<title>Metamodel::AttributeContainer</title>
<g id="a_node18"><a xlink:href="/type/Metamodel::AttributeContainer" xlink:title="Metamodel::AttributeContainer">
<ellipse fill="none" stroke="#6666ff" cx="615.26" cy="-1608.37" rx="129.98" ry="18"/>
<text text-anchor="middle" x="615.26" y="-1604.67" font-family="FreeSans" font-size="14.00" fill="#6666ff">Metamodel::AttributeContainer</text>
</a>
</g>
</g>
<!-- Metamodel::RoleContainer -->
<g id="node19" class="node">
<title>Metamodel::RoleContainer</title>
<g id="a_node19"><a xlink:href="/type/Metamodel::RoleContainer" xlink:title="Metamodel::RoleContainer">
<ellipse fill="none" stroke="#6666ff" cx="572.65" cy="-1488.42" rx="115.88" ry="18"/>
<text text-anchor="middle" x="572.65" y="-1484.72" font-family="FreeSans" font-size="14.00" fill="#6666ff">Metamodel::RoleContainer</text>
</a>
</g>
</g>
<!-- Metamodel::RolePunning -->
<g id="node20" class="node">
<title>Metamodel::RolePunning</title>
<g id="a_node20"><a xlink:href="/type/Metamodel::RolePunning" xlink:title="Metamodel::RolePunning">
<ellipse fill="none" stroke="#6666ff" cx="109.84" cy="-1051.24" rx="109.68" ry="18"/>
<text text-anchor="middle" x="109.84" y="-1047.54" font-family="FreeSans" font-size="14.00" fill="#6666ff">Metamodel::RolePunning</text>
</a>
</g>
</g>
<!-- Metamodel::ParametricRoleHOW -->
<g id="node21" class="node">
<title>Metamodel::ParametricRoleHOW</title>
<g id="a_node21"><a xlink:href="/type/Metamodel::ParametricRoleHOW" xlink:title="Metamodel::ParametricRoleHOW">
<ellipse fill="none" stroke="#000000" cx="649.08" cy="-1081.05" rx="141.88" ry="18"/>
<text text-anchor="middle" x="649.08" y="-1077.35" font-family="FreeSans" font-size="14.00" fill="#000000">Metamodel::ParametricRoleHOW</text>
</a>
</g>
</g>
<!-- Metamodel::ParametricRoleHOW&#45;&gt;Metamodel::Versioning -->
<g id="edge23" class="edge">
<title>Metamodel::ParametricRoleHOW&#45;&gt;Metamodel::Versioning</title>
<path fill="none" stroke="#6666ff" d="M761.51,-1070.07C816.11,-1064.73 881.1,-1058.39 933.75,-1053.25"/>
<polygon fill="#6666ff" stroke="#6666ff" points="934.16,-1056.72 943.77,-1052.27 933.48,-1049.76 934.16,-1056.72"/>
</g>
<!-- Metamodel::ParametricRoleHOW&#45;&gt;Any -->
<g id="edge4" class="edge">
<title>Metamodel::ParametricRoleHOW&#45;&gt;Any</title>
<path fill="none" stroke="#000000" d="M673.66,-1063.17C722.82,-1027.41 828.57,-950.49 828.57,-950.49 828.57,-950.49 855.92,-936.67 855.92,-936.67 855.92,-936.67 1026.33,-856.72 1098.31,-822.96"/>
<polygon fill="#000000" stroke="#000000" points="1099.82,-826.11 1107.38,-818.7 1096.84,-819.78 1099.82,-826.11"/>
</g>
<!-- Metamodel::ParametricRoleHOW&#45;&gt;Metamodel::Naming -->
<g id="edge21" class="edge">
<title>Metamodel::ParametricRoleHOW&#45;&gt;Metamodel::Naming</title>
<path fill="none" stroke="#6666ff" d="M685.4,-1063.59C734.87,-1039.82 823.34,-997.31 876.51,-971.76"/>
<polygon fill="#6666ff" stroke="#6666ff" points="878.19,-974.84 885.69,-967.35 875.16,-968.53 878.19,-974.84"/>
</g>
<!-- Metamodel::ParametricRoleHOW&#45;&gt;Metamodel::Documenting -->
<g id="edge22" class="edge">
<title>Metamodel::ParametricRoleHOW&#45;&gt;Metamodel::Documenting</title>
<path fill="none" stroke="#6666ff" d="M719.42,-1065.34C831.93,-1040.21 1051.44,-991.19 1166.88,-965.4"/>
<polygon fill="#6666ff" stroke="#6666ff" points="1167.71,-968.81 1176.7,-963.21 1166.18,-961.97 1167.71,-968.81"/>
</g>
<!-- Metamodel::ParametricRoleHOW&#45;&gt;Metamodel::Stashing -->
<g id="edge30" class="edge">
<title>Metamodel::ParametricRoleHOW&#45;&gt;Metamodel::Stashing</title>
<path fill="none" stroke="#6666ff" d="M673.66,-1063.17C722.82,-1027.41 828.57,-950.49 828.57,-950.49 828.57,-950.49 855.92,-936.67 855.92,-936.67 855.92,-936.67 938.8,-915.65 1000.69,-899.96"/>
<polygon fill="#6666ff" stroke="#6666ff" points="1001.59,-903.34 1010.42,-897.49 999.87,-896.55 1001.59,-903.34"/>
</g>
<!-- Metamodel::ParametricRoleHOW&#45;&gt;Metamodel::TypePretense -->
<g id="edge31" class="edge">
<title>Metamodel::ParametricRoleHOW&#45;&gt;Metamodel::TypePretense</title>
<path fill="none" stroke="#6666ff" d="M637.72,-1063.03C594.12,-993.84 437.24,-744.91 385.22,-662.37"/>
<polygon fill="#6666ff" stroke="#6666ff" points="388.11,-660.41 379.82,-653.81 382.19,-664.14 388.11,-660.41"/>
</g>
<!-- Metamodel::ParametricRoleHOW&#45;&gt;Metamodel::MultipleInheritance -->
<g id="edge29" class="edge">
<title>Metamodel::ParametricRoleHOW&#45;&gt;Metamodel::MultipleInheritance</title>
<path fill="none" stroke="#6666ff" d="M697.47,-1098.1C781.46,-1127.68 953.8,-1188.4 1043.76,-1220.1"/>
<polygon fill="#6666ff" stroke="#6666ff" points="1042.67,-1223.42 1053.26,-1223.44 1044.99,-1216.82 1042.67,-1223.42"/>
</g>
<!-- Metamodel::ParametricRoleHOW&#45;&gt;Metamodel::MethodContainer -->
<g id="edge24" class="edge">
<title>Metamodel::ParametricRoleHOW&#45;&gt;Metamodel::MethodContainer</title>
<path fill="none" stroke="#6666ff" d="M664.97,-1098.97C693.59,-1131.23 750.81,-1195.74 750.81,-1195.74 750.81,-1195.74 709.33,-1450.52 709.33,-1450.52 709.33,-1450.52 746.84,-1608.56 746.84,-1608.56 746.84,-1608.56 748.18,-1632.17 749.33,-1652.37"/>
<polygon fill="#6666ff" stroke="#6666ff" points="745.84,-1652.7 749.9,-1662.49 752.83,-1652.3 745.84,-1652.7"/>
</g>
<!-- Metamodel::ParametricRoleHOW&#45;&gt;Metamodel::PrivateMethodContainer -->
<g id="edge25" class="edge">
<title>Metamodel::ParametricRoleHOW&#45;&gt;Metamodel::PrivateMethodContainer</title>
<path fill="none" stroke="#6666ff" d="M664.97,-1098.97C693.59,-1131.23 750.81,-1195.74 750.81,-1195.74 750.81,-1195.74 709.33,-1450.52 709.33,-1450.52 709.33,-1450.52 821.34,-1539.05 877.22,-1583.22"/>
<polygon fill="#6666ff" stroke="#6666ff" points="875.35,-1586.2 885.36,-1589.65 879.69,-1580.71 875.35,-1586.2"/>
</g>
<!-- Metamodel::ParametricRoleHOW&#45;&gt;Metamodel::MultiMethodContainer -->
<g id="edge26" class="edge">
<title>Metamodel::ParametricRoleHOW&#45;&gt;Metamodel::MultiMethodContainer</title>
<path fill="none" stroke="#6666ff" d="M664.97,-1098.97C693.59,-1131.23 750.81,-1195.74 750.81,-1195.74 750.81,-1195.74 818.05,-1356.9 845.6,-1422.93"/>
<polygon fill="#6666ff" stroke="#6666ff" points="842.44,-1424.44 849.52,-1432.32 848.9,-1421.74 842.44,-1424.44"/>
</g>
<!-- Metamodel::ParametricRoleHOW&#45;&gt;Metamodel::AttributeContainer -->
<g id="edge27" class="edge">
<title>Metamodel::ParametricRoleHOW&#45;&gt;Metamodel::AttributeContainer</title>
<path fill="none" stroke="#6666ff" d="M664.97,-1098.97C693.59,-1131.23 750.81,-1195.74 750.81,-1195.74 750.81,-1195.74 689.94,-1488.46 689.94,-1488.46 689.94,-1488.46 653.99,-1546.19 631.97,-1581.54"/>
<polygon fill="#6666ff" stroke="#6666ff" points="628.76,-1580.08 626.44,-1590.42 634.7,-1583.78 628.76,-1580.08"/>
</g>
<!-- Metamodel::ParametricRoleHOW&#45;&gt;Metamodel::RoleContainer -->
<g id="edge28" class="edge">
<title>Metamodel::ParametricRoleHOW&#45;&gt;Metamodel::RoleContainer</title>
<path fill="none" stroke="#6666ff" d="M664.97,-1098.97C693.59,-1131.23 750.81,-1195.74 750.81,-1195.74 750.81,-1195.74 633.09,-1389.14 589.03,-1461.52"/>
<polygon fill="#6666ff" stroke="#6666ff" points="586.01,-1459.75 583.8,-1470.12 591.99,-1463.39 586.01,-1459.75"/>
</g>
<!-- Metamodel::ParametricRoleHOW&#45;&gt;Metamodel::RolePunning -->
<g id="edge32" class="edge">
<title>Metamodel::ParametricRoleHOW&#45;&gt;Metamodel::RolePunning</title>
<path fill="none" stroke="#6666ff" d="M518.89,-1073.85C428.95,-1068.88 310.45,-1062.33 224.16,-1057.56"/>
<polygon fill="#6666ff" stroke="#6666ff" points="224.24,-1054.06 214.06,-1057 223.85,-1061.05 224.24,-1054.06"/>
</g>
<!-- Metamodel::Finalization -->
<g id="node22" class="node">
<title>Metamodel::Finalization</title>
<g id="a_node22"><a xlink:href="/type/Metamodel::Finalization" xlink:title="Metamodel::Finalization">
<ellipse fill="none" stroke="#6666ff" cx="1031.2" cy="-1989.6" rx="103.98" ry="18"/>
<text text-anchor="middle" x="1031.2" y="-1985.9" font-family="FreeSans" font-size="14.00" fill="#6666ff">Metamodel::Finalization</text>
</a>
</g>
</g>
<!-- Metamodel::DefaultParent -->
<g id="node23" class="node">
<title>Metamodel::DefaultParent</title>
<g id="a_node23"><a xlink:href="/type/Metamodel::DefaultParent" xlink:title="Metamodel::DefaultParent">
<ellipse fill="none" stroke="#6666ff" cx="1405.4" cy="-1933.54" rx="113.18" ry="18"/>
<text text-anchor="middle" x="1405.4" y="-1929.84" font-family="FreeSans" font-size="14.00" fill="#6666ff">Metamodel::DefaultParent</text>
</a>
</g>
</g>
<!-- Metamodel::Trusting -->
<g id="node24" class="node">
<title>Metamodel::Trusting</title>
<g id="a_node24"><a xlink:href="/type/Metamodel::Trusting" xlink:title="Metamodel::Trusting">
<ellipse fill="none" stroke="#6666ff" cx="1554.55" cy="-1845.69" rx="91.78" ry="18"/>
<text text-anchor="middle" x="1554.55" y="-1841.99" font-family="FreeSans" font-size="14.00" fill="#6666ff">Metamodel::Trusting</text>
</a>
</g>
</g>
<!-- Metamodel::BUILDPLAN -->
<g id="node25" class="node">
<title>Metamodel::BUILDPLAN</title>
<g id="a_node25"><a xlink:href="/type/Metamodel::BUILDPLAN" xlink:title="Metamodel::BUILDPLAN">
<ellipse fill="none" stroke="#6666ff" cx="1253.05" cy="-1977.57" rx="109.68" ry="18"/>
<text text-anchor="middle" x="1253.05" y="-1973.87" font-family="FreeSans" font-size="14.00" fill="#6666ff">Metamodel::BUILDPLAN</text>
</a>
</g>
</g>
<!-- Metamodel::Mixins -->
<g id="node26" class="node">
<title>Metamodel::Mixins</title>
<g id="a_node26"><a xlink:href="/type/Metamodel::Mixins" xlink:title="Metamodel::Mixins">
<ellipse fill="none" stroke="#6666ff" cx="1787.24" cy="-1565.76" rx="85.29" ry="18"/>
<text text-anchor="middle" x="1787.24" y="-1562.06" font-family="FreeSans" font-size="14.00" fill="#6666ff">Metamodel::Mixins</text>
</a>
</g>
</g>
<!-- Metamodel::BoolificationProtocol -->
<g id="node27" class="node">
<title>Metamodel::BoolificationProtocol</title>
<g id="a_node27"><a xlink:href="/type/Metamodel::BoolificationProtocol" xlink:title="Metamodel::BoolificationProtocol">
<ellipse fill="none" stroke="#6666ff" cx="1677.96" cy="-1721.98" rx="139.18" ry="18"/>
<text text-anchor="middle" x="1677.96" y="-1718.28" font-family="FreeSans" font-size="14.00" fill="#6666ff">Metamodel::BoolificationProtocol</text>
</a>
</g>
</g>
<!-- Metamodel::ClassHOW -->
<g id="node28" class="node">
<title>Metamodel::ClassHOW</title>
<g id="a_node28"><a xlink:href="/type/Metamodel::ClassHOW" xlink:title="Metamodel::ClassHOW">
<ellipse fill="none" stroke="#000000" cx="1248.06" cy="-1441.39" rx="103.18" ry="18"/>
<text text-anchor="middle" x="1248.06" y="-1437.69" font-family="FreeSans" font-size="14.00" fill="#000000">Metamodel::ClassHOW</text>
</a>
</g>
</g>
<!-- Metamodel::ClassHOW&#45;&gt;Metamodel::Versioning -->
<g id="edge35" class="edge">
<title>Metamodel::ClassHOW&#45;&gt;Metamodel::Versioning</title>
<path fill="none" stroke="#6666ff" d="M1247.04,-1423.21C1244.27,-1373.76 1236.8,-1240.51 1236.8,-1240.51 1236.8,-1240.51 1113.16,-1121.37 1058.23,-1068.44"/>
<polygon fill="#6666ff" stroke="#6666ff" points="1060.58,-1065.85 1050.96,-1061.43 1055.73,-1070.89 1060.58,-1065.85"/>
</g>
<!-- Metamodel::ClassHOW&#45;&gt;Any -->
<g id="edge5" class="edge">
<title>Metamodel::ClassHOW&#45;&gt;Any</title>
<path fill="none" stroke="#000000" d="M1247.04,-1423.21C1244.27,-1373.76 1236.8,-1240.51 1236.8,-1240.51 1236.8,-1240.51 1129.23,-948.52 1129.23,-948.52 1129.23,-948.52 1162.17,-883.24 1162.17,-883.24 1162.17,-883.24 1150.66,-856.56 1141.37,-835.02"/>
<polygon fill="#000000" stroke="#000000" points="1144.48,-833.39 1137.3,-825.59 1138.05,-836.16 1144.48,-833.39"/>
</g>
<!-- Metamodel::ClassHOW&#45;&gt;Metamodel::Naming -->
<g id="edge33" class="edge">
<title>Metamodel::ClassHOW&#45;&gt;Metamodel::Naming</title>
<path fill="none" stroke="#6666ff" d="M1223.51,-1423.89C1154.84,-1374.95 965.83,-1240.23 965.83,-1240.23 965.83,-1240.23 930.13,-1043.42 930.13,-1043.42 930.13,-1043.42 926.3,-1006.46 923.47,-979.19"/>
<polygon fill="#6666ff" stroke="#6666ff" points="926.92,-978.54 922.41,-968.95 919.96,-979.26 926.92,-978.54"/>
</g>
<!-- Metamodel::ClassHOW&#45;&gt;Metamodel::Documenting -->
<g id="edge34" class="edge">
<title>Metamodel::ClassHOW&#45;&gt;Metamodel::Documenting</title>
<path fill="none" stroke="#6666ff" d="M1247.84,-1423.27C1246.92,-1348.94 1243.43,-1067.09 1242.31,-976.71"/>
<polygon fill="#6666ff" stroke="#6666ff" points="1245.81,-976.62 1242.19,-966.66 1238.81,-976.7 1245.81,-976.62"/>
</g>
<!-- Metamodel::ClassHOW&#45;&gt;Metamodel::Stashing -->
<g id="edge36" class="edge">
<title>Metamodel::ClassHOW&#45;&gt;Metamodel::Stashing</title>
<path fill="none" stroke="#6666ff" d="M1247.04,-1423.21C1244.27,-1373.76 1236.8,-1240.51 1236.8,-1240.51 1236.8,-1240.51 1119.7,-994.08 1079.98,-910.49"/>
<polygon fill="#6666ff" stroke="#6666ff" points="1083.09,-908.89 1075.64,-901.36 1076.77,-911.89 1083.09,-908.89"/>
</g>
<!-- Metamodel::ClassHOW&#45;&gt;Metamodel::MultipleInheritance -->
<g id="edge43" class="edge">
<title>Metamodel::ClassHOW&#45;&gt;Metamodel::MultipleInheritance</title>
<path fill="none" stroke="#6666ff" d="M1234.78,-1423.2C1208.69,-1387.47 1150.69,-1308.01 1120.46,-1266.61"/>
<polygon fill="#6666ff" stroke="#6666ff" points="1123.18,-1264.39 1114.46,-1258.38 1117.53,-1268.52 1123.18,-1264.39"/>
</g>
<!-- Metamodel::ClassHOW&#45;&gt;Metamodel::C3MRO -->
<g id="edge45" class="edge">
<title>Metamodel::ClassHOW&#45;&gt;Metamodel::C3MRO</title>
<path fill="none" stroke="#6666ff" d="M1273.53,-1423.77C1355.78,-1366.86 1614.29,-1187.98 1707.34,-1123.59"/>
<polygon fill="#6666ff" stroke="#6666ff" points="1709.59,-1126.29 1715.82,-1117.72 1705.6,-1120.53 1709.59,-1126.29"/>
</g>
<!-- Metamodel::ClassHOW&#45;&gt;Metamodel::MROBasedMethodDispatch -->
<g id="edge46" class="edge">
<title>Metamodel::ClassHOW&#45;&gt;Metamodel::MROBasedMethodDispatch</title>
<path fill="none" stroke="#6666ff" d="M1307.09,-1426.57C1378.68,-1408.59 1499.5,-1378.24 1577.99,-1358.53"/>
<polygon fill="#6666ff" stroke="#6666ff" points="1578.98,-1361.89 1587.83,-1356.06 1577.27,-1355.1 1578.98,-1361.89"/>
</g>
<!-- Metamodel::ClassHOW&#45;&gt;Metamodel::MROBasedTypeChecking -->
<g id="edge47" class="edge">
<title>Metamodel::ClassHOW&#45;&gt;Metamodel::MROBasedTypeChecking</title>
<path fill="none" stroke="#6666ff" d="M1286.56,-1424.65C1353.14,-1395.69 1482.77,-1339.31 1482.77,-1339.31 1482.77,-1339.31 1626.79,-1291.53 1711.96,-1263.28"/>
<polygon fill="#6666ff" stroke="#6666ff" points="1713.14,-1266.57 1721.53,-1260.1 1710.94,-1259.93 1713.14,-1266.57"/>
</g>
<!-- Metamodel::ClassHOW&#45;&gt;Metamodel::MethodContainer -->
<g id="edge39" class="edge">
<title>Metamodel::ClassHOW&#45;&gt;Metamodel::MethodContainer</title>
<path fill="none" stroke="#6666ff" d="M1228.41,-1459.2C1181.05,-1502.13 1064.46,-1607.79 1064.46,-1607.79 1064.46,-1607.79 1018.07,-1621.62 1018.07,-1621.62 1018.07,-1621.62 908.46,-1645.85 829.66,-1663.28"/>
<polygon fill="#6666ff" stroke="#6666ff" points="828.74,-1659.9 819.73,-1665.47 830.25,-1666.73 828.74,-1659.9"/>
</g>
<!-- Metamodel::ClassHOW&#45;&gt;Metamodel::PrivateMethodContainer -->
<g id="edge40" class="edge">
<title>Metamodel::ClassHOW&#45;&gt;Metamodel::PrivateMethodContainer</title>
<path fill="none" stroke="#6666ff" d="M1213.28,-1458.41C1151.39,-1488.69 1022.2,-1551.89 953.46,-1585.52"/>
<polygon fill="#6666ff" stroke="#6666ff" points="951.62,-1582.53 944.18,-1590.07 954.7,-1588.81 951.62,-1582.53"/>
</g>
<!-- Metamodel::ClassHOW&#45;&gt;Metamodel::MultiMethodContainer -->
<g id="edge41" class="edge">
<title>Metamodel::ClassHOW&#45;&gt;Metamodel::MultiMethodContainer</title>
<path fill="none" stroke="#6666ff" d="M1145.61,-1443.82C1104.5,-1444.79 1056.23,-1445.94 1011.06,-1447"/>
<polygon fill="#6666ff" stroke="#6666ff" points="1010.78,-1443.51 1000.87,-1447.25 1010.95,-1450.51 1010.78,-1443.51"/>
</g>
<!-- Metamodel::ClassHOW&#45;&gt;Metamodel::AttributeContainer -->
<g id="edge37" class="edge">
<title>Metamodel::ClassHOW&#45;&gt;Metamodel::AttributeContainer</title>
<path fill="none" stroke="#6666ff" d="M1191.07,-1456.43C1075.12,-1487.03 812.07,-1556.44 685.66,-1589.79"/>
<polygon fill="#6666ff" stroke="#6666ff" points="684.48,-1586.49 675.7,-1592.42 686.26,-1593.26 684.48,-1586.49"/>
</g>
<!-- Metamodel::ClassHOW&#45;&gt;Metamodel::RoleContainer -->
<g id="edge42" class="edge">
<title>Metamodel::ClassHOW&#45;&gt;Metamodel::RoleContainer</title>
<path fill="none" stroke="#6666ff" d="M1154.07,-1448.99C1070.35,-1455.76 961.01,-1464.6 961.01,-1464.6 961.01,-1464.6 804.82,-1474.18 690.54,-1481.19"/>
<polygon fill="#6666ff" stroke="#6666ff" points="690.08,-1477.71 680.32,-1481.82 690.51,-1484.7 690.08,-1477.71"/>
</g>
<!-- Metamodel::ClassHOW&#45;&gt;Metamodel::Finalization -->
<g id="edge38" class="edge">
<title>Metamodel::ClassHOW&#45;&gt;Metamodel::Finalization</title>
<path fill="none" stroke="#6666ff" d="M1240.84,-1459.63C1208.94,-1540.29 1080.41,-1865.2 1042.05,-1962.15"/>
<polygon fill="#6666ff" stroke="#6666ff" points="1038.75,-1960.98 1038.33,-1971.57 1045.26,-1963.56 1038.75,-1960.98"/>
</g>
<!-- Metamodel::ClassHOW&#45;&gt;Metamodel::DefaultParent -->
<g id="edge44" class="edge">
<title>Metamodel::ClassHOW&#45;&gt;Metamodel::DefaultParent</title>
<path fill="none" stroke="#6666ff" d="M1253.85,-1459.49C1277.61,-1533.81 1367.76,-1815.81 1396.53,-1905.78"/>
<polygon fill="#6666ff" stroke="#6666ff" points="1393.27,-1907.08 1399.65,-1915.54 1399.94,-1904.95 1393.27,-1907.08"/>
</g>
<!-- Metamodel::ClassHOW&#45;&gt;Metamodel::Trusting -->
<g id="edge48" class="edge">
<title>Metamodel::ClassHOW&#45;&gt;Metamodel::Trusting</title>
<path fill="none" stroke="#6666ff" d="M1261.63,-1459.29C1310.37,-1523.59 1476.84,-1743.18 1534.61,-1819.39"/>
<polygon fill="#6666ff" stroke="#6666ff" points="1531.96,-1821.69 1540.79,-1827.54 1537.54,-1817.46 1531.96,-1821.69"/>
</g>
<!-- Metamodel::ClassHOW&#45;&gt;Metamodel::BUILDPLAN -->
<g id="edge49" class="edge">
<title>Metamodel::ClassHOW&#45;&gt;Metamodel::BUILDPLAN</title>
<path fill="none" stroke="#6666ff" d="M1248.23,-1459.54C1248.96,-1538.54 1251.89,-1852.82 1252.79,-1949.27"/>
<polygon fill="#6666ff" stroke="#6666ff" points="1249.29,-1949.46 1252.88,-1959.43 1256.29,-1949.39 1249.29,-1949.46"/>
</g>
<!-- Metamodel::ClassHOW&#45;&gt;Metamodel::Mixins -->
<g id="edge50" class="edge">
<title>Metamodel::ClassHOW&#45;&gt;Metamodel::Mixins</title>
<path fill="none" stroke="#6666ff" d="M1310.44,-1455.78C1412.48,-1479.32 1614.27,-1525.86 1719.62,-1550.16"/>
<polygon fill="#6666ff" stroke="#6666ff" points="1718.98,-1553.61 1729.51,-1552.44 1720.55,-1546.79 1718.98,-1553.61"/>
</g>
<!-- Metamodel::ClassHOW&#45;&gt;Metamodel::BoolificationProtocol -->
<g id="edge51" class="edge">
<title>Metamodel::ClassHOW&#45;&gt;Metamodel::BoolificationProtocol</title>
<path fill="none" stroke="#6666ff" d="M1274.95,-1458.95C1349.43,-1507.56 1558.4,-1643.95 1642.37,-1698.75"/>
<polygon fill="#6666ff" stroke="#6666ff" points="1640.52,-1701.72 1650.8,-1704.26 1644.34,-1695.86 1640.52,-1701.72"/>
</g>
<!-- Metamodel::ConcreteRoleHOW -->
<g id="node29" class="node">
<title>Metamodel::ConcreteRoleHOW</title>
<g id="a_node29"><a xlink:href="/type/Metamodel::ConcreteRoleHOW" xlink:title="Metamodel::ConcreteRoleHOW">
<ellipse fill="none" stroke="#000000" cx="614.03" cy="-1195.56" rx="135.38" ry="18"/>
<text text-anchor="middle" x="614.03" y="-1191.86" font-family="FreeSans" font-size="14.00" fill="#000000">Metamodel::ConcreteRoleHOW</text>
</a>
</g>
</g>
<!-- Metamodel::ConcreteRoleHOW&#45;&gt;Metamodel::Versioning -->
<g id="edge53" class="edge">
<title>Metamodel::ConcreteRoleHOW&#45;&gt;Metamodel::Versioning</title>
<path fill="none" stroke="#6666ff" d="M660.81,-1178.57C738.97,-1150.19 895.66,-1093.29 978.41,-1063.24"/>
<polygon fill="#6666ff" stroke="#6666ff" points="979.68,-1066.5 987.88,-1059.8 977.29,-1059.92 979.68,-1066.5"/>
</g>
<!-- Metamodel::ConcreteRoleHOW&#45;&gt;Any -->
<g id="edge6" class="edge">
<title>Metamodel::ConcreteRoleHOW&#45;&gt;Any</title>
<path fill="none" stroke="#000000" d="M641.5,-1177.92C691.53,-1145.8 792.36,-1081.06 792.36,-1081.06 792.36,-1081.06 828.57,-950.49 828.57,-950.49 828.57,-950.49 855.92,-936.67 855.92,-936.67 855.92,-936.67 1026.33,-856.72 1098.31,-822.96"/>
<polygon fill="#000000" stroke="#000000" points="1099.82,-826.11 1107.38,-818.7 1096.84,-819.78 1099.82,-826.11"/>
</g>
<!-- Metamodel::ConcreteRoleHOW&#45;&gt;Metamodel::Naming -->
<g id="edge52" class="edge">
<title>Metamodel::ConcreteRoleHOW&#45;&gt;Metamodel::Naming</title>
<path fill="none" stroke="#6666ff" d="M641.5,-1177.92C691.53,-1145.8 792.36,-1081.06 792.36,-1081.06 792.36,-1081.06 858.72,-1013.52 895.94,-975.64"/>
<polygon fill="#6666ff" stroke="#6666ff" points="898.45,-978.07 902.96,-968.48 893.46,-973.16 898.45,-978.07"/>
</g>
<!-- Metamodel::ConcreteRoleHOW&#45;&gt;Metamodel::MultipleInheritance -->
<g id="edge59" class="edge">
<title>Metamodel::ConcreteRoleHOW&#45;&gt;Metamodel::MultipleInheritance</title>
<path fill="none" stroke="#6666ff" d="M725.52,-1205.81C801.61,-1212.81 902.35,-1222.07 980.38,-1229.25"/>
<polygon fill="#6666ff" stroke="#6666ff" points="980.47,-1232.77 990.74,-1230.2 981.11,-1225.8 980.47,-1232.77"/>
</g>
<!-- Metamodel::ConcreteRoleHOW&#45;&gt;Metamodel::MethodContainer -->
<g id="edge55" class="edge">
<title>Metamodel::ConcreteRoleHOW&#45;&gt;Metamodel::MethodContainer</title>
<path fill="none" stroke="#6666ff" d="M619.82,-1213.57C645.39,-1293.06 746.84,-1608.56 746.84,-1608.56 746.84,-1608.56 748.18,-1632.17 749.33,-1652.37"/>
<polygon fill="#6666ff" stroke="#6666ff" points="745.84,-1652.7 749.9,-1662.49 752.83,-1652.3 745.84,-1652.7"/>
</g>
<!-- Metamodel::ConcreteRoleHOW&#45;&gt;Metamodel::PrivateMethodContainer -->
<g id="edge54" class="edge">
<title>Metamodel::ConcreteRoleHOW&#45;&gt;Metamodel::PrivateMethodContainer</title>
<path fill="none" stroke="#6666ff" d="M620.88,-1213.89C642.74,-1272.35 709.33,-1450.52 709.33,-1450.52 709.33,-1450.52 821.34,-1539.05 877.22,-1583.22"/>
<polygon fill="#6666ff" stroke="#6666ff" points="875.35,-1586.2 885.36,-1589.65 879.69,-1580.71 875.35,-1586.2"/>
</g>
<!-- Metamodel::ConcreteRoleHOW&#45;&gt;Metamodel::MultiMethodContainer -->
<g id="edge56" class="edge">
<title>Metamodel::ConcreteRoleHOW&#45;&gt;Metamodel::MultiMethodContainer</title>
<path fill="none" stroke="#6666ff" d="M631.13,-1213.49C673.59,-1258.04 783.96,-1373.84 833.03,-1425.33"/>
<polygon fill="#6666ff" stroke="#6666ff" points="830.66,-1427.91 840.09,-1432.73 835.72,-1423.08 830.66,-1427.91"/>
</g>
<!-- Metamodel::ConcreteRoleHOW&#45;&gt;Metamodel::AttributeContainer -->
<g id="edge57" class="edge">
<title>Metamodel::ConcreteRoleHOW&#45;&gt;Metamodel::AttributeContainer</title>
<path fill="none" stroke="#6666ff" d="M618.78,-1213.88C635.4,-1278 689.94,-1488.46 689.94,-1488.46 689.94,-1488.46 653.99,-1546.19 631.97,-1581.54"/>
<polygon fill="#6666ff" stroke="#6666ff" points="628.76,-1580.08 626.44,-1590.42 634.7,-1583.78 628.76,-1580.08"/>
</g>
<!-- Metamodel::ConcreteRoleHOW&#45;&gt;Metamodel::RoleContainer -->
<g id="edge58" class="edge">
<title>Metamodel::ConcreteRoleHOW&#45;&gt;Metamodel::RoleContainer</title>
<path fill="none" stroke="#6666ff" d="M611.44,-1213.88C604.45,-1263.39 585.12,-1400.16 576.68,-1459.89"/>
<polygon fill="#6666ff" stroke="#6666ff" points="573.17,-1459.72 575.24,-1470.11 580.1,-1460.7 573.17,-1459.72"/>
</g>
</g>
</svg>
