<?xml version="1.0" encoding="UTF-8" standalone="no"?>
<!DOCTYPE svg PUBLIC "-//W3C//DTD SVG 1.1//EN"
 "http://www.w3.org/Graphics/SVG/1.1/DTD/svg11.dtd">
<!-- Generated by graphviz version 2.43.0 (0)
 -->
<!-- Title: perl6&#45;type&#45;graph Pages: 1 -->
<svg width="229pt" height="260pt"
 viewBox="0.00 0.00 229.29 260.00" xmlns="http://www.w3.org/2000/svg" xmlns:xlink="http://www.w3.org/1999/xlink">
<g id="graph0" class="graph" transform="scale(1 1) rotate(0) translate(4 256)">
<title>perl6&#45;type&#45;graph</title>
<polygon fill="#ffffff" stroke="transparent" points="-4,4 -4,-256 225.29,-256 225.29,4 -4,4"/>
<!-- MOP -->
<g id="node1" class="node">
<title>MOP</title>
<g id="a_node1"><a xlink:href="/type/MOP" xlink:title="MOP">
<ellipse fill="none" stroke="#000000" cx="34.89" cy="-90" rx="31.7" ry="18"/>
<text text-anchor="middle" x="34.89" y="-86.3" font-family="FreeSans" font-size="14.00" fill="#000000">MOP</text>
</a>
</g>
</g>
<!-- Any -->
<g id="node3" class="node">
<title>Any</title>
<g id="a_node3"><a xlink:href="/type/Any" xlink:title="Any">
<ellipse fill="none" stroke="#000000" cx="94.89" cy="-162" rx="27" ry="18"/>
<text text-anchor="middle" x="94.89" y="-158.3" font-family="FreeSans" font-size="14.00" fill="#000000">Any</text>
</a>
</g>
</g>
<!-- MOP&#45;&gt;Any -->
<g id="edge1" class="edge">
<title>MOP&#45;&gt;Any</title>
<path fill="none" stroke="#000000" d="M48.21,-106.54C56.16,-115.82 66.41,-127.77 75.28,-138.12"/>
<polygon fill="#000000" stroke="#000000" points="72.86,-140.67 82.02,-145.99 78.17,-136.12 72.86,-140.67"/>
</g>
<!-- Mu -->
<g id="node2" class="node">
<title>Mu</title>
<g id="a_node2"><a xlink:href="/type/Mu" xlink:title="Mu">
<ellipse fill="none" stroke="#000000" cx="94.89" cy="-234" rx="27" ry="18"/>
<text text-anchor="middle" x="94.89" y="-230.3" font-family="FreeSans" font-size="14.00" fill="#000000">Mu</text>
</a>
</g>
</g>
<!-- Any&#45;&gt;Mu -->
<g id="edge2" class="edge">
<title>Any&#45;&gt;Mu</title>
<path fill="none" stroke="#000000" d="M94.89,-180.3C94.89,-188.02 94.89,-197.29 94.89,-205.89"/>
<polygon fill="#000000" stroke="#000000" points="91.39,-205.9 94.89,-215.9 98.39,-205.9 91.39,-205.9"/>
</g>
<!-- Exception -->
<g id="node4" class="node">
<title>Exception</title>
<g id="a_node4"><a xlink:href="/type/Exception" xlink:title="Exception">
<ellipse fill="none" stroke="#000000" cx="171.89" cy="-90" rx="49.29" ry="18"/>
<text text-anchor="middle" x="171.89" y="-86.3" font-family="FreeSans" font-size="14.00" fill="#000000">Exception</text>
</a>
</g>
</g>
<!-- Exception&#45;&gt;Any -->
<g id="edge3" class="edge">
<title>Exception&#45;&gt;Any</title>
<path fill="none" stroke="#000000" d="M154.42,-106.88C143.6,-116.72 129.59,-129.45 117.88,-140.1"/>
<polygon fill="#000000" stroke="#000000" points="115.26,-137.76 110.21,-147.07 119.96,-142.94 115.26,-137.76"/>
</g>
<!-- X::Attribute::Required -->
<g id="node5" class="node">
<title>X::Attribute::Required</title>
<g id="a_node5"><a xlink:href="/type/X::Attribute::Required" xlink:title="X::Attribute::Required">
<ellipse fill="none" stroke="#000000" cx="94.89" cy="-18" rx="94.78" ry="18"/>
<text text-anchor="middle" x="94.89" y="-14.3" font-family="FreeSans" font-size="14.00" fill="#000000">X::Attribute::Required</text>
</a>
</g>
</g>
<!-- X::Attribute::Required&#45;&gt;MOP -->
<g id="edge6" class="edge">
<title>X::Attribute::Required&#45;&gt;MOP</title>
<path fill="none" stroke="#6666ff" d="M80.37,-35.95C72.78,-44.8 63.38,-55.77 55.09,-65.43"/>
<polygon fill="#6666ff" stroke="#6666ff" points="52.31,-63.3 48.46,-73.17 57.63,-67.86 52.31,-63.3"/>
</g>
<!-- X::Attribute::Required&#45;&gt;Any -->
<g id="edge5" class="edge">
<title>X::Attribute::Required&#45;&gt;Any</title>
<path fill="none" stroke="#000000" d="M94.89,-36.13C94.89,-60.33 94.89,-104.79 94.89,-133.61"/>
<polygon fill="#000000" stroke="#000000" points="91.39,-133.81 94.89,-143.81 98.39,-133.81 91.39,-133.81"/>
</g>
<!-- X::Attribute::Required&#45;&gt;Exception -->
<g id="edge4" class="edge">
<title>X::Attribute::Required&#45;&gt;Exception</title>
<path fill="none" stroke="#000000" d="M113.53,-35.95C123.49,-45 135.88,-56.27 146.69,-66.09"/>
<polygon fill="#000000" stroke="#000000" points="144.46,-68.8 154.22,-72.93 149.17,-63.62 144.46,-68.8"/>
</g>
</g>
</svg>
