<?xml version="1.0" encoding="UTF-8" standalone="no"?>
<!DOCTYPE svg PUBLIC "-//W3C//DTD SVG 1.1//EN"
 "http://www.w3.org/Graphics/SVG/1.1/DTD/svg11.dtd">
<!-- Generated by graphviz version 2.43.0 (0)
 -->
<!-- Title: perl6&#45;type&#45;graph Pages: 1 -->
<svg width="323pt" height="404pt"
 viewBox="0.00 0.00 322.57 404.00" xmlns="http://www.w3.org/2000/svg" xmlns:xlink="http://www.w3.org/1999/xlink">
<g id="graph0" class="graph" transform="scale(1 1) rotate(0) translate(4 400)">
<title>perl6&#45;type&#45;graph</title>
<polygon fill="#ffffff" stroke="transparent" points="-4,4 -4,-400 318.57,-400 318.57,4 -4,4"/>
<!-- X::Syntax::Signature::InvocantMarker -->
<g id="node1" class="node">
<title>X::Syntax::Signature::InvocantMarker</title>
<g id="a_node1"><a xlink:href="/type/X::Syntax::Signature::InvocantMarker" xlink:title="X::Syntax::Signature::InvocantMarker">
<ellipse fill="none" stroke="#000000" cx="157.29" cy="-18" rx="157.07" ry="18"/>
<text text-anchor="middle" x="157.29" y="-14.3" font-family="FreeSans" font-size="14.00" fill="#000000">X::Syntax::Signature::InvocantMarker</text>
</a>
</g>
</g>
<!-- Exception -->
<g id="node4" class="node">
<title>Exception</title>
<g id="a_node4"><a xlink:href="/type/Exception" xlink:title="Exception">
<ellipse fill="none" stroke="#000000" cx="157.29" cy="-234" rx="49.29" ry="18"/>
<text text-anchor="middle" x="157.29" y="-230.3" font-family="FreeSans" font-size="14.00" fill="#000000">Exception</text>
</a>
</g>
</g>
<!-- X::Syntax::Signature::InvocantMarker&#45;&gt;Exception -->
<g id="edge1" class="edge">
<title>X::Syntax::Signature::InvocantMarker&#45;&gt;Exception</title>
<path fill="none" stroke="#000000" d="M151.17,-36.06C145.62,-51.55 138.29,-72 138.29,-72 138.29,-72 138.29,-108 138.29,-108 138.29,-108 147.56,-169.01 153.15,-205.78"/>
<polygon fill="#000000" stroke="#000000" points="149.72,-206.52 154.68,-215.88 156.64,-205.47 149.72,-206.52"/>
</g>
<!-- X::Syntax -->
<g id="node6" class="node">
<title>X::Syntax</title>
<g id="a_node6"><a xlink:href="/type/X::Syntax" xlink:title="X::Syntax">
<ellipse fill="none" stroke="#6666ff" cx="195.29" cy="-90" rx="48.19" ry="18"/>
<text text-anchor="middle" x="195.29" y="-86.3" font-family="FreeSans" font-size="14.00" fill="#6666ff">X::Syntax</text>
</a>
</g>
</g>
<!-- X::Syntax::Signature::InvocantMarker&#45;&gt;X::Syntax -->
<g id="edge6" class="edge">
<title>X::Syntax::Signature::InvocantMarker&#45;&gt;X::Syntax</title>
<path fill="none" stroke="#6666ff" d="M166.68,-36.3C171.05,-44.36 176.34,-54.11 181.18,-63.02"/>
<polygon fill="#6666ff" stroke="#6666ff" points="178.15,-64.78 186,-71.9 184.31,-61.44 178.15,-64.78"/>
</g>
<!-- Mu -->
<g id="node2" class="node">
<title>Mu</title>
<g id="a_node2"><a xlink:href="/type/Mu" xlink:title="Mu">
<ellipse fill="none" stroke="#000000" cx="157.29" cy="-378" rx="27" ry="18"/>
<text text-anchor="middle" x="157.29" y="-374.3" font-family="FreeSans" font-size="14.00" fill="#000000">Mu</text>
</a>
</g>
</g>
<!-- Any -->
<g id="node3" class="node">
<title>Any</title>
<g id="a_node3"><a xlink:href="/type/Any" xlink:title="Any">
<ellipse fill="none" stroke="#000000" cx="157.29" cy="-306" rx="27" ry="18"/>
<text text-anchor="middle" x="157.29" y="-302.3" font-family="FreeSans" font-size="14.00" fill="#000000">Any</text>
</a>
</g>
</g>
<!-- Any&#45;&gt;Mu -->
<g id="edge2" class="edge">
<title>Any&#45;&gt;Mu</title>
<path fill="none" stroke="#000000" d="M157.29,-324.3C157.29,-332.02 157.29,-341.29 157.29,-349.89"/>
<polygon fill="#000000" stroke="#000000" points="153.79,-349.9 157.29,-359.9 160.79,-349.9 153.79,-349.9"/>
</g>
<!-- Exception&#45;&gt;Any -->
<g id="edge3" class="edge">
<title>Exception&#45;&gt;Any</title>
<path fill="none" stroke="#000000" d="M157.29,-252.3C157.29,-260.02 157.29,-269.29 157.29,-277.89"/>
<polygon fill="#000000" stroke="#000000" points="153.79,-277.9 157.29,-287.9 160.79,-277.9 153.79,-277.9"/>
</g>
<!-- X::Comp -->
<g id="node5" class="node">
<title>X::Comp</title>
<g id="a_node5"><a xlink:href="/type/X::Comp" xlink:title="X::Comp">
<ellipse fill="none" stroke="#6666ff" cx="230.29" cy="-162" rx="44.69" ry="18"/>
<text text-anchor="middle" x="230.29" y="-158.3" font-family="FreeSans" font-size="14.00" fill="#6666ff">X::Comp</text>
</a>
</g>
</g>
<!-- X::Comp&#45;&gt;Exception -->
<g id="edge4" class="edge">
<title>X::Comp&#45;&gt;Exception</title>
<path fill="none" stroke="#000000" d="M213.72,-178.88C204.18,-188.04 192.01,-199.71 181.41,-209.87"/>
<polygon fill="#000000" stroke="#000000" points="178.83,-207.49 174.04,-216.94 183.68,-212.54 178.83,-207.49"/>
</g>
<!-- X::Syntax&#45;&gt;Exception -->
<g id="edge5" class="edge">
<title>X::Syntax&#45;&gt;Exception</title>
<path fill="none" stroke="#000000" d="M189.17,-108.06C183.62,-123.55 176.29,-144 176.29,-144 176.29,-144 168.64,-179.83 163.04,-206.03"/>
<polygon fill="#000000" stroke="#000000" points="159.61,-205.33 160.95,-215.84 166.46,-206.79 159.61,-205.33"/>
</g>
<!-- X::Syntax&#45;&gt;X::Comp -->
<g id="edge7" class="edge">
<title>X::Syntax&#45;&gt;X::Comp</title>
<path fill="none" stroke="#6666ff" d="M203.76,-107.95C207.84,-116.11 212.83,-126.09 217.37,-135.18"/>
<polygon fill="#6666ff" stroke="#6666ff" points="214.29,-136.83 221.89,-144.21 220.55,-133.7 214.29,-136.83"/>
</g>
</g>
</svg>
