<?xml version="1.0" encoding="UTF-8" standalone="no"?>
<!DOCTYPE svg PUBLIC "-//W3C//DTD SVG 1.1//EN"
 "http://www.w3.org/Graphics/SVG/1.1/DTD/svg11.dtd">
<!-- Generated by graphviz version 2.43.0 (0)
 -->
<!-- Title: perl6&#45;type&#45;graph Pages: 1 -->
<svg width="886pt" height="332pt"
 viewBox="0.00 0.00 886.38 332.00" xmlns="http://www.w3.org/2000/svg" xmlns:xlink="http://www.w3.org/1999/xlink">
<g id="graph0" class="graph" transform="scale(1 1) rotate(0) translate(4 328)">
<title>perl6&#45;type&#45;graph</title>
<polygon fill="#ffffff" stroke="transparent" points="-4,4 -4,-328 882.38,-328 882.38,4 -4,4"/>
<!-- X::TypeCheck -->
<g id="node1" class="node">
<title>X::TypeCheck</title>
<g id="a_node1"><a xlink:href="/type/X::TypeCheck" xlink:title="X::TypeCheck">
<ellipse fill="none" stroke="#000000" cx="454.64" cy="-90" rx="66.89" ry="18"/>
<text text-anchor="middle" x="454.64" y="-86.3" font-family="FreeSans" font-size="14.00" fill="#000000">X::TypeCheck</text>
</a>
</g>
</g>
<!-- Exception -->
<g id="node4" class="node">
<title>Exception</title>
<g id="a_node4"><a xlink:href="/type/Exception" xlink:title="Exception">
<ellipse fill="none" stroke="#000000" cx="454.64" cy="-162" rx="49.29" ry="18"/>
<text text-anchor="middle" x="454.64" y="-158.3" font-family="FreeSans" font-size="14.00" fill="#000000">Exception</text>
</a>
</g>
</g>
<!-- X::TypeCheck&#45;&gt;Exception -->
<g id="edge1" class="edge">
<title>X::TypeCheck&#45;&gt;Exception</title>
<path fill="none" stroke="#000000" d="M454.64,-108.3C454.64,-116.02 454.64,-125.29 454.64,-133.89"/>
<polygon fill="#000000" stroke="#000000" points="451.14,-133.9 454.64,-143.9 458.14,-133.9 451.14,-133.9"/>
</g>
<!-- Mu -->
<g id="node2" class="node">
<title>Mu</title>
<g id="a_node2"><a xlink:href="/type/Mu" xlink:title="Mu">
<ellipse fill="none" stroke="#000000" cx="454.64" cy="-306" rx="27" ry="18"/>
<text text-anchor="middle" x="454.64" y="-302.3" font-family="FreeSans" font-size="14.00" fill="#000000">Mu</text>
</a>
</g>
</g>
<!-- Any -->
<g id="node3" class="node">
<title>Any</title>
<g id="a_node3"><a xlink:href="/type/Any" xlink:title="Any">
<ellipse fill="none" stroke="#000000" cx="454.64" cy="-234" rx="27" ry="18"/>
<text text-anchor="middle" x="454.64" y="-230.3" font-family="FreeSans" font-size="14.00" fill="#000000">Any</text>
</a>
</g>
</g>
<!-- Any&#45;&gt;Mu -->
<g id="edge2" class="edge">
<title>Any&#45;&gt;Mu</title>
<path fill="none" stroke="#000000" d="M454.64,-252.3C454.64,-260.02 454.64,-269.29 454.64,-277.89"/>
<polygon fill="#000000" stroke="#000000" points="451.14,-277.9 454.64,-287.9 458.14,-277.9 451.14,-277.9"/>
</g>
<!-- Exception&#45;&gt;Any -->
<g id="edge3" class="edge">
<title>Exception&#45;&gt;Any</title>
<path fill="none" stroke="#000000" d="M454.64,-180.3C454.64,-188.02 454.64,-197.29 454.64,-205.89"/>
<polygon fill="#000000" stroke="#000000" points="451.14,-205.9 454.64,-215.9 458.14,-205.9 451.14,-205.9"/>
</g>
<!-- X::TypeCheck::Assignment -->
<g id="node5" class="node">
<title>X::TypeCheck::Assignment</title>
<g id="a_node5"><a xlink:href="/type/X::TypeCheck::Assignment" xlink:title="X::TypeCheck::Assignment">
<ellipse fill="none" stroke="#000000" cx="117.64" cy="-18" rx="117.78" ry="18"/>
<text text-anchor="middle" x="117.64" y="-14.3" font-family="FreeSans" font-size="14.00" fill="#000000">X::TypeCheck::Assignment</text>
</a>
</g>
</g>
<!-- X::TypeCheck::Assignment&#45;&gt;X::TypeCheck -->
<g id="edge4" class="edge">
<title>X::TypeCheck::Assignment&#45;&gt;X::TypeCheck</title>
<path fill="none" stroke="#000000" d="M184.62,-32.91C245.5,-45.56 334.56,-64.06 393.54,-76.31"/>
<polygon fill="#000000" stroke="#000000" points="392.96,-79.76 403.46,-78.37 394.38,-72.91 392.96,-79.76"/>
</g>
<!-- X::TypeCheck::Splice -->
<g id="node6" class="node">
<title>X::TypeCheck::Splice</title>
<g id="a_node6"><a xlink:href="/type/X::TypeCheck::Splice" xlink:title="X::TypeCheck::Splice">
<ellipse fill="none" stroke="#000000" cx="348.64" cy="-18" rx="95.58" ry="18"/>
<text text-anchor="middle" x="348.64" y="-14.3" font-family="FreeSans" font-size="14.00" fill="#000000">X::TypeCheck::Splice</text>
</a>
</g>
</g>
<!-- X::TypeCheck::Splice&#45;&gt;X::TypeCheck -->
<g id="edge5" class="edge">
<title>X::TypeCheck::Splice&#45;&gt;X::TypeCheck</title>
<path fill="none" stroke="#000000" d="M373.49,-35.41C388.05,-45.03 406.6,-57.28 422.29,-67.64"/>
<polygon fill="#000000" stroke="#000000" points="420.4,-70.58 430.67,-73.17 424.26,-64.74 420.4,-70.58"/>
</g>
<!-- X::TypeCheck::Return -->
<g id="node7" class="node">
<title>X::TypeCheck::Return</title>
<g id="a_node7"><a xlink:href="/type/X::TypeCheck::Return" xlink:title="X::TypeCheck::Return">
<ellipse fill="none" stroke="#000000" cx="560.64" cy="-18" rx="98.28" ry="18"/>
<text text-anchor="middle" x="560.64" y="-14.3" font-family="FreeSans" font-size="14.00" fill="#000000">X::TypeCheck::Return</text>
</a>
</g>
</g>
<!-- X::TypeCheck::Return&#45;&gt;X::TypeCheck -->
<g id="edge6" class="edge">
<title>X::TypeCheck::Return&#45;&gt;X::TypeCheck</title>
<path fill="none" stroke="#000000" d="M535.52,-35.59C521.19,-45.05 503.06,-57.03 487.6,-67.24"/>
<polygon fill="#000000" stroke="#000000" points="485.27,-64.58 478.85,-73.01 489.12,-70.42 485.27,-64.58"/>
</g>
<!-- X::TypeCheck::Binding -->
<g id="node8" class="node">
<title>X::TypeCheck::Binding</title>
<g id="a_node8"><a xlink:href="/type/X::TypeCheck::Binding" xlink:title="X::TypeCheck::Binding">
<ellipse fill="none" stroke="#000000" cx="777.64" cy="-18" rx="100.98" ry="18"/>
<text text-anchor="middle" x="777.64" y="-14.3" font-family="FreeSans" font-size="14.00" fill="#000000">X::TypeCheck::Binding</text>
</a>
</g>
</g>
<!-- X::TypeCheck::Binding&#45;&gt;X::TypeCheck -->
<g id="edge7" class="edge">
<title>X::TypeCheck::Binding&#45;&gt;X::TypeCheck</title>
<path fill="none" stroke="#000000" d="M716.13,-32.33C658.37,-44.85 572.48,-63.46 515.07,-75.9"/>
<polygon fill="#000000" stroke="#000000" points="514.09,-72.54 505.05,-78.07 515.57,-79.38 514.09,-72.54"/>
</g>
</g>
</svg>
