<?xml version="1.0" encoding="UTF-8" standalone="no"?>
<!DOCTYPE svg PUBLIC "-//W3C//DTD SVG 1.1//EN"
 "http://www.w3.org/Graphics/SVG/1.1/DTD/svg11.dtd">
<!-- Generated by graphviz version 2.43.0 (0)
 -->
<!-- Title: perl6&#45;type&#45;graph Pages: 1 -->
<svg width="387pt" height="476pt"
 viewBox="0.00 0.00 386.84 476.00" xmlns="http://www.w3.org/2000/svg" xmlns:xlink="http://www.w3.org/1999/xlink">
<g id="graph0" class="graph" transform="scale(1 1) rotate(0) translate(4 472)">
<title>perl6&#45;type&#45;graph</title>
<polygon fill="white" stroke="transparent" points="-4,4 -4,-472 382.84,-472 382.84,4 -4,4"/>
<!-- Callable -->
<g id="node1" class="node">
<title>Callable</title>
<g id="a_node1"><a xlink:href="/type/Callable" xlink:title="Callable">
<ellipse fill="none" stroke="#6666ff" cx="149.3" cy="-378" rx="42.49" ry="18"/>
<text text-anchor="middle" x="149.3" y="-374.3" font-family="FreeSans" font-size="14.00" fill="#6666ff">Callable</text>
</a>
</g>
</g>
<!-- Mu -->
<g id="node2" class="node">
<title>Mu</title>
<g id="a_node2"><a xlink:href="/type/Mu" xlink:title="Mu">
<ellipse fill="none" stroke="#000000" cx="242.3" cy="-450" rx="27" ry="18"/>
<text text-anchor="middle" x="242.3" y="-446.3" font-family="FreeSans" font-size="14.00" fill="#000000">Mu</text>
</a>
</g>
</g>
<!-- Any -->
<g id="node3" class="node">
<title>Any</title>
<g id="a_node3"><a xlink:href="/type/Any" xlink:title="Any">
<ellipse fill="none" stroke="#000000" cx="242.3" cy="-378" rx="27" ry="18"/>
<text text-anchor="middle" x="242.3" y="-374.3" font-family="FreeSans" font-size="14.00" fill="#000000">Any</text>
</a>
</g>
</g>
<!-- Any&#45;&gt;Mu -->
<g id="edge1" class="edge">
<title>Any&#45;&gt;Mu</title>
<path fill="none" stroke="#000000" d="M242.3,-396.3C242.3,-404.02 242.3,-413.29 242.3,-421.89"/>
<polygon fill="#000000" stroke="#000000" points="238.8,-421.9 242.3,-431.9 245.8,-421.9 238.8,-421.9"/>
</g>
<!-- ForeignCode -->
<g id="node4" class="node">
<title>ForeignCode</title>
<g id="a_node4"><a xlink:href="/type/ForeignCode" xlink:title="ForeignCode">
<ellipse fill="none" stroke="#000000" cx="137.3" cy="-306" rx="61.99" ry="18"/>
<text text-anchor="middle" x="137.3" y="-302.3" font-family="FreeSans" font-size="14.00" fill="#000000">ForeignCode</text>
</a>
</g>
</g>
<!-- ForeignCode&#45;&gt;Callable -->
<g id="edge12" class="edge">
<title>ForeignCode&#45;&gt;Callable</title>
<path fill="none" stroke="#6666ff" d="M140.26,-324.3C141.59,-332.02 143.17,-341.29 144.65,-349.89"/>
<polygon fill="#6666ff" stroke="#6666ff" points="141.22,-350.63 146.36,-359.9 148.12,-349.45 141.22,-350.63"/>
</g>
<!-- ForeignCode&#45;&gt;Any -->
<g id="edge2" class="edge">
<title>ForeignCode&#45;&gt;Any</title>
<path fill="none" stroke="#000000" d="M160.86,-322.71C177.03,-333.49 198.52,-347.82 215.36,-359.05"/>
<polygon fill="#000000" stroke="#000000" points="213.44,-361.97 223.7,-364.6 217.32,-356.14 213.44,-361.97"/>
</g>
<!-- Code -->
<g id="node5" class="node">
<title>Code</title>
<g id="a_node5"><a xlink:href="/type/Code" xlink:title="Code">
<ellipse fill="none" stroke="#000000" cx="249.3" cy="-306" rx="31.7" ry="18"/>
<text text-anchor="middle" x="249.3" y="-302.3" font-family="FreeSans" font-size="14.00" fill="#000000">Code</text>
</a>
</g>
</g>
<!-- Code&#45;&gt;Callable -->
<g id="edge13" class="edge">
<title>Code&#45;&gt;Callable</title>
<path fill="none" stroke="#6666ff" d="M230.02,-320.5C215.42,-330.71 195.12,-344.92 178.53,-356.54"/>
<polygon fill="#6666ff" stroke="#6666ff" points="176.43,-353.73 170.24,-362.34 180.44,-359.47 176.43,-353.73"/>
</g>
<!-- Code&#45;&gt;Any -->
<g id="edge3" class="edge">
<title>Code&#45;&gt;Any</title>
<path fill="none" stroke="#000000" d="M247.57,-324.3C246.79,-332.02 245.87,-341.29 245.01,-349.89"/>
<polygon fill="#000000" stroke="#000000" points="241.52,-349.6 244.01,-359.9 248.48,-350.29 241.52,-349.6"/>
</g>
<!-- Block -->
<g id="node6" class="node">
<title>Block</title>
<g id="a_node6"><a xlink:href="/type/Block" xlink:title="Block">
<ellipse fill="none" stroke="#000000" cx="189.3" cy="-234" rx="32.49" ry="18"/>
<text text-anchor="middle" x="189.3" y="-230.3" font-family="FreeSans" font-size="14.00" fill="#000000">Block</text>
</a>
</g>
</g>
<!-- Block&#45;&gt;Code -->
<g id="edge4" class="edge">
<title>Block&#45;&gt;Code</title>
<path fill="none" stroke="#000000" d="M202.61,-250.54C210.46,-259.69 220.54,-271.45 229.32,-281.69"/>
<polygon fill="#000000" stroke="#000000" points="226.85,-284.19 236.02,-289.51 232.17,-279.64 226.85,-284.19"/>
</g>
<!-- WhateverCode -->
<g id="node7" class="node">
<title>WhateverCode</title>
<g id="a_node7"><a xlink:href="/type/WhateverCode" xlink:title="WhateverCode">
<ellipse fill="none" stroke="#000000" cx="309.3" cy="-234" rx="69.59" ry="18"/>
<text text-anchor="middle" x="309.3" y="-230.3" font-family="FreeSans" font-size="14.00" fill="#000000">WhateverCode</text>
</a>
</g>
</g>
<!-- WhateverCode&#45;&gt;Code -->
<g id="edge5" class="edge">
<title>WhateverCode&#45;&gt;Code</title>
<path fill="none" stroke="#000000" d="M294.77,-251.95C287.19,-260.8 277.78,-271.77 269.5,-281.43"/>
<polygon fill="#000000" stroke="#000000" points="266.72,-279.3 262.86,-289.17 272.03,-283.86 266.72,-279.3"/>
</g>
<!-- Routine -->
<g id="node8" class="node">
<title>Routine</title>
<g id="a_node8"><a xlink:href="/type/Routine" xlink:title="Routine">
<ellipse fill="none" stroke="#000000" cx="189.3" cy="-162" rx="40.89" ry="18"/>
<text text-anchor="middle" x="189.3" y="-158.3" font-family="FreeSans" font-size="14.00" fill="#000000">Routine</text>
</a>
</g>
</g>
<!-- Routine&#45;&gt;Block -->
<g id="edge6" class="edge">
<title>Routine&#45;&gt;Block</title>
<path fill="none" stroke="#000000" d="M189.3,-180.3C189.3,-188.02 189.3,-197.29 189.3,-205.89"/>
<polygon fill="#000000" stroke="#000000" points="185.8,-205.9 189.3,-215.9 192.8,-205.9 185.8,-205.9"/>
</g>
<!-- Method -->
<g id="node9" class="node">
<title>Method</title>
<g id="a_node9"><a xlink:href="/type/Method" xlink:title="Method">
<ellipse fill="none" stroke="#000000" cx="40.3" cy="-90" rx="40.09" ry="18"/>
<text text-anchor="middle" x="40.3" y="-86.3" font-family="FreeSans" font-size="14.00" fill="#000000">Method</text>
</a>
</g>
</g>
<!-- Method&#45;&gt;Routine -->
<g id="edge7" class="edge">
<title>Method&#45;&gt;Routine</title>
<path fill="none" stroke="#000000" d="M66.93,-103.51C90.94,-114.79 126.44,-131.47 153.03,-143.96"/>
<polygon fill="#000000" stroke="#000000" points="151.85,-147.27 162.39,-148.36 154.82,-140.94 151.85,-147.27"/>
</g>
<!-- Macro -->
<g id="node10" class="node">
<title>Macro</title>
<g id="a_node10"><a xlink:href="/type/Macro" xlink:title="Macro">
<ellipse fill="none" stroke="#000000" cx="134.3" cy="-90" rx="36" ry="18"/>
<text text-anchor="middle" x="134.3" y="-86.3" font-family="FreeSans" font-size="14.00" fill="#000000">Macro</text>
</a>
</g>
</g>
<!-- Macro&#45;&gt;Routine -->
<g id="edge8" class="edge">
<title>Macro&#45;&gt;Routine</title>
<path fill="none" stroke="#000000" d="M146.78,-106.88C153.71,-115.71 162.48,-126.87 170.25,-136.76"/>
<polygon fill="#000000" stroke="#000000" points="167.55,-138.99 176.48,-144.69 173.06,-134.67 167.55,-138.99"/>
</g>
<!-- Submethod -->
<g id="node11" class="node">
<title>Submethod</title>
<g id="a_node11"><a xlink:href="/type/Submethod" xlink:title="Submethod">
<ellipse fill="none" stroke="#000000" cx="244.3" cy="-90" rx="55.79" ry="18"/>
<text text-anchor="middle" x="244.3" y="-86.3" font-family="FreeSans" font-size="14.00" fill="#000000">Submethod</text>
</a>
</g>
</g>
<!-- Submethod&#45;&gt;Routine -->
<g id="edge9" class="edge">
<title>Submethod&#45;&gt;Routine</title>
<path fill="none" stroke="#000000" d="M231.26,-107.59C224.48,-116.22 216.06,-126.94 208.54,-136.5"/>
<polygon fill="#000000" stroke="#000000" points="205.66,-134.5 202.24,-144.53 211.17,-138.83 205.66,-134.5"/>
</g>
<!-- Sub -->
<g id="node12" class="node">
<title>Sub</title>
<g id="a_node12"><a xlink:href="/type/Sub" xlink:title="Sub">
<ellipse fill="none" stroke="#000000" cx="345.3" cy="-90" rx="27" ry="18"/>
<text text-anchor="middle" x="345.3" y="-86.3" font-family="FreeSans" font-size="14.00" fill="#000000">Sub</text>
</a>
</g>
</g>
<!-- Sub&#45;&gt;Routine -->
<g id="edge10" class="edge">
<title>Sub&#45;&gt;Routine</title>
<path fill="none" stroke="#000000" d="M323.94,-101.09C316.19,-104.75 309.3,-108 309.3,-108 309.3,-108 261.91,-128.93 226.69,-144.48"/>
<polygon fill="#000000" stroke="#000000" points="224.86,-141.47 217.13,-148.71 227.69,-147.87 224.86,-141.47"/>
</g>
<!-- Regex -->
<g id="node13" class="node">
<title>Regex</title>
<g id="a_node13"><a xlink:href="/type/Regex" xlink:title="Regex">
<ellipse fill="none" stroke="#000000" cx="40.3" cy="-18" rx="36.29" ry="18"/>
<text text-anchor="middle" x="40.3" y="-14.3" font-family="FreeSans" font-size="14.00" fill="#000000">Regex</text>
</a>
</g>
</g>
<!-- Regex&#45;&gt;Method -->
<g id="edge11" class="edge">
<title>Regex&#45;&gt;Method</title>
<path fill="none" stroke="#000000" d="M40.3,-36.3C40.3,-44.02 40.3,-53.29 40.3,-61.89"/>
<polygon fill="#000000" stroke="#000000" points="36.8,-61.9 40.3,-71.9 43.8,-61.9 36.8,-61.9"/>
</g>
</g>
</svg>
