<?xml version="1.0" encoding="UTF-8" standalone="no"?>
<!DOCTYPE svg PUBLIC "-//W3C//DTD SVG 1.1//EN"
 "http://www.w3.org/Graphics/SVG/1.1/DTD/svg11.dtd">
<!-- Generated by graphviz version 2.43.0 (0)
 -->
<!-- Title: perl6&#45;type&#45;graph Pages: 1 -->
<svg width="213pt" height="404pt"
 viewBox="0.00 0.00 212.94 404.00" xmlns="http://www.w3.org/2000/svg" xmlns:xlink="http://www.w3.org/1999/xlink">
<g id="graph0" class="graph" transform="scale(1 1) rotate(0) translate(4 400)">
<title>perl6&#45;type&#45;graph</title>
<polygon fill="white" stroke="transparent" points="-4,4 -4,-400 208.94,-400 208.94,4 -4,4"/>
<!-- X::Syntax::Perl5Var -->
<g id="node1" class="node">
<title>X::Syntax::Perl5Var</title>
<g id="a_node1"><a xlink:href="/type/X::Syntax::Perl5Var" xlink:title="X::Syntax::Perl5Var">
<ellipse fill="none" stroke="#000000" cx="87.09" cy="-18" rx="87.18" ry="18"/>
<text text-anchor="middle" x="87.09" y="-14.3" font-family="FreeSans" font-size="14.00" fill="#000000">X::Syntax::Perl5Var</text>
</a>
</g>
</g>
<!-- Exception -->
<g id="node4" class="node">
<title>Exception</title>
<g id="a_node4"><a xlink:href="/type/Exception" xlink:title="Exception">
<ellipse fill="none" stroke="#000000" cx="87.09" cy="-234" rx="49.29" ry="18"/>
<text text-anchor="middle" x="87.09" y="-230.3" font-family="FreeSans" font-size="14.00" fill="#000000">Exception</text>
</a>
</g>
</g>
<!-- X::Syntax::Perl5Var&#45;&gt;Exception -->
<g id="edge1" class="edge">
<title>X::Syntax::Perl5Var&#45;&gt;Exception</title>
<path fill="none" stroke="#000000" d="M80.98,-36.06C75.42,-51.55 68.09,-72 68.09,-72 68.09,-72 68.09,-108 68.09,-108 68.09,-108 77.37,-169.01 82.96,-205.78"/>
<polygon fill="#000000" stroke="#000000" points="79.53,-206.52 84.49,-215.88 86.45,-205.47 79.53,-206.52"/>
</g>
<!-- X::Syntax -->
<g id="node6" class="node">
<title>X::Syntax</title>
<g id="a_node6"><a xlink:href="/type/X::Syntax" xlink:title="X::Syntax">
<ellipse fill="none" stroke="#6666ff" cx="125.09" cy="-90" rx="48.19" ry="18"/>
<text text-anchor="middle" x="125.09" y="-86.3" font-family="FreeSans" font-size="14.00" fill="#6666ff">X::Syntax</text>
</a>
</g>
</g>
<!-- X::Syntax::Perl5Var&#45;&gt;X::Syntax -->
<g id="edge6" class="edge">
<title>X::Syntax::Perl5Var&#45;&gt;X::Syntax</title>
<path fill="none" stroke="#6666ff" d="M96.29,-35.95C100.73,-44.11 106.14,-54.09 111.07,-63.18"/>
<polygon fill="#6666ff" stroke="#6666ff" points="108.13,-65.09 115.98,-72.21 114.28,-61.75 108.13,-65.09"/>
</g>
<!-- Mu -->
<g id="node2" class="node">
<title>Mu</title>
<g id="a_node2"><a xlink:href="/type/Mu" xlink:title="Mu">
<ellipse fill="none" stroke="#000000" cx="87.09" cy="-378" rx="27" ry="18"/>
<text text-anchor="middle" x="87.09" y="-374.3" font-family="FreeSans" font-size="14.00" fill="#000000">Mu</text>
</a>
</g>
</g>
<!-- Any -->
<g id="node3" class="node">
<title>Any</title>
<g id="a_node3"><a xlink:href="/type/Any" xlink:title="Any">
<ellipse fill="none" stroke="#000000" cx="87.09" cy="-306" rx="27" ry="18"/>
<text text-anchor="middle" x="87.09" y="-302.3" font-family="FreeSans" font-size="14.00" fill="#000000">Any</text>
</a>
</g>
</g>
<!-- Any&#45;&gt;Mu -->
<g id="edge2" class="edge">
<title>Any&#45;&gt;Mu</title>
<path fill="none" stroke="#000000" d="M87.09,-324.3C87.09,-332.02 87.09,-341.29 87.09,-349.89"/>
<polygon fill="#000000" stroke="#000000" points="83.59,-349.9 87.09,-359.9 90.59,-349.9 83.59,-349.9"/>
</g>
<!-- Exception&#45;&gt;Any -->
<g id="edge3" class="edge">
<title>Exception&#45;&gt;Any</title>
<path fill="none" stroke="#000000" d="M87.09,-252.3C87.09,-260.02 87.09,-269.29 87.09,-277.89"/>
<polygon fill="#000000" stroke="#000000" points="83.59,-277.9 87.09,-287.9 90.59,-277.9 83.59,-277.9"/>
</g>
<!-- X::Comp -->
<g id="node5" class="node">
<title>X::Comp</title>
<g id="a_node5"><a xlink:href="/type/X::Comp" xlink:title="X::Comp">
<ellipse fill="none" stroke="#6666ff" cx="160.09" cy="-162" rx="44.69" ry="18"/>
<text text-anchor="middle" x="160.09" y="-158.3" font-family="FreeSans" font-size="14.00" fill="#6666ff">X::Comp</text>
</a>
</g>
</g>
<!-- X::Comp&#45;&gt;Exception -->
<g id="edge4" class="edge">
<title>X::Comp&#45;&gt;Exception</title>
<path fill="none" stroke="#000000" d="M143.53,-178.88C133.98,-188.04 121.81,-199.71 111.22,-209.87"/>
<polygon fill="#000000" stroke="#000000" points="108.64,-207.49 103.84,-216.94 113.48,-212.54 108.64,-207.49"/>
</g>
<!-- X::Syntax&#45;&gt;Exception -->
<g id="edge5" class="edge">
<title>X::Syntax&#45;&gt;Exception</title>
<path fill="none" stroke="#000000" d="M118.98,-108.06C113.42,-123.55 106.09,-144 106.09,-144 106.09,-144 98.44,-179.83 92.85,-206.03"/>
<polygon fill="#000000" stroke="#000000" points="89.42,-205.33 90.76,-215.84 96.27,-206.79 89.42,-205.33"/>
</g>
<!-- X::Syntax&#45;&gt;X::Comp -->
<g id="edge7" class="edge">
<title>X::Syntax&#45;&gt;X::Comp</title>
<path fill="none" stroke="#6666ff" d="M133.56,-107.95C137.65,-116.11 142.64,-126.09 147.18,-135.18"/>
<polygon fill="#6666ff" stroke="#6666ff" points="144.1,-136.83 151.7,-144.21 150.36,-133.7 144.1,-136.83"/>
</g>
</g>
</svg>
