<?xml version="1.0" encoding="UTF-8" standalone="no"?>
<!DOCTYPE svg PUBLIC "-//W3C//DTD SVG 1.1//EN"
 "http://www.w3.org/Graphics/SVG/1.1/DTD/svg11.dtd">
<!-- Generated by graphviz version 2.43.0 (0)
 -->
<!-- Title: perl6&#45;type&#45;graph Pages: 1 -->
<svg width="230pt" height="404pt"
 viewBox="0.00 0.00 229.99 404.00" xmlns="http://www.w3.org/2000/svg" xmlns:xlink="http://www.w3.org/1999/xlink">
<g id="graph0" class="graph" transform="scale(1 1) rotate(0) translate(4 400)">
<title>perl6&#45;type&#45;graph</title>
<polygon fill="white" stroke="transparent" points="-4,4 -4,-400 225.99,-400 225.99,4 -4,4"/>
<!-- X::IO::Rename -->
<g id="node1" class="node">
<title>X::IO::Rename</title>
<g id="a_node1"><a xlink:href="/type/X::IO::Rename" xlink:title="X::IO::Rename">
<ellipse fill="none" stroke="#000000" cx="69.54" cy="-18" rx="69.59" ry="18"/>
<text text-anchor="middle" x="69.54" y="-14.3" font-family="FreeSans" font-size="14.00" fill="#000000">X::IO::Rename</text>
</a>
</g>
</g>
<!-- Exception -->
<g id="node4" class="node">
<title>Exception</title>
<g id="a_node4"><a xlink:href="/type/Exception" xlink:title="Exception">
<ellipse fill="none" stroke="#000000" cx="69.54" cy="-234" rx="49.29" ry="18"/>
<text text-anchor="middle" x="69.54" y="-230.3" font-family="FreeSans" font-size="14.00" fill="#000000">Exception</text>
</a>
</g>
</g>
<!-- X::IO::Rename&#45;&gt;Exception -->
<g id="edge1" class="edge">
<title>X::IO::Rename&#45;&gt;Exception</title>
<path fill="none" stroke="#000000" d="M61.79,-36.15C54.7,-73.26 54.17,-161.25 60.2,-205.95"/>
<polygon fill="#000000" stroke="#000000" points="56.79,-206.75 61.83,-216.06 63.7,-205.64 56.79,-206.75"/>
</g>
<!-- X::IO::Rename&#45;&gt;Exception -->
<g id="edge2" class="edge">
<title>X::IO::Rename&#45;&gt;Exception</title>
<path fill="none" stroke="#000000" d="M69.54,-36.15C69.54,-73.17 69.54,-160.82 69.54,-205.61"/>
<polygon fill="#000000" stroke="#000000" points="66.04,-205.77 69.54,-215.77 73.04,-205.77 66.04,-205.77"/>
</g>
<!-- X::IO::Rename&#45;&gt;Exception -->
<g id="edge3" class="edge">
<title>X::IO::Rename&#45;&gt;Exception</title>
<path fill="none" stroke="#000000" d="M77.3,-36.15C84.39,-73.26 84.92,-161.25 78.88,-205.95"/>
<polygon fill="#000000" stroke="#000000" points="75.39,-205.64 77.26,-216.06 82.3,-206.75 75.39,-205.64"/>
</g>
<!-- X::IO -->
<g id="node6" class="node">
<title>X::IO</title>
<g id="a_node6"><a xlink:href="/type/X::IO" xlink:title="X::IO">
<ellipse fill="none" stroke="#6666ff" cx="146.54" cy="-90" rx="31.4" ry="18"/>
<text text-anchor="middle" x="146.54" y="-86.3" font-family="FreeSans" font-size="14.00" fill="#6666ff">X::IO</text>
</a>
</g>
</g>
<!-- X::IO::Rename&#45;&gt;X::IO -->
<g id="edge8" class="edge">
<title>X::IO::Rename&#45;&gt;X::IO</title>
<path fill="none" stroke="#6666ff" d="M87.79,-35.59C98.34,-45.18 111.73,-57.35 123.06,-67.65"/>
<polygon fill="#6666ff" stroke="#6666ff" points="120.76,-70.29 130.52,-74.43 125.47,-65.11 120.76,-70.29"/>
</g>
<!-- Mu -->
<g id="node2" class="node">
<title>Mu</title>
<g id="a_node2"><a xlink:href="/type/Mu" xlink:title="Mu">
<ellipse fill="none" stroke="#000000" cx="69.54" cy="-378" rx="27" ry="18"/>
<text text-anchor="middle" x="69.54" y="-374.3" font-family="FreeSans" font-size="14.00" fill="#000000">Mu</text>
</a>
</g>
</g>
<!-- Any -->
<g id="node3" class="node">
<title>Any</title>
<g id="a_node3"><a xlink:href="/type/Any" xlink:title="Any">
<ellipse fill="none" stroke="#000000" cx="69.54" cy="-306" rx="27" ry="18"/>
<text text-anchor="middle" x="69.54" y="-302.3" font-family="FreeSans" font-size="14.00" fill="#000000">Any</text>
</a>
</g>
</g>
<!-- Any&#45;&gt;Mu -->
<g id="edge4" class="edge">
<title>Any&#45;&gt;Mu</title>
<path fill="none" stroke="#000000" d="M69.54,-324.3C69.54,-332.02 69.54,-341.29 69.54,-349.89"/>
<polygon fill="#000000" stroke="#000000" points="66.04,-349.9 69.54,-359.9 73.04,-349.9 66.04,-349.9"/>
</g>
<!-- Exception&#45;&gt;Any -->
<g id="edge5" class="edge">
<title>Exception&#45;&gt;Any</title>
<path fill="none" stroke="#000000" d="M69.54,-252.3C69.54,-260.02 69.54,-269.29 69.54,-277.89"/>
<polygon fill="#000000" stroke="#000000" points="66.04,-277.9 69.54,-287.9 73.04,-277.9 66.04,-277.9"/>
</g>
<!-- X::OS -->
<g id="node5" class="node">
<title>X::OS</title>
<g id="a_node5"><a xlink:href="/type/X::OS" xlink:title="X::OS">
<ellipse fill="none" stroke="#6666ff" cx="187.54" cy="-162" rx="34.39" ry="18"/>
<text text-anchor="middle" x="187.54" y="-158.3" font-family="FreeSans" font-size="14.00" fill="#6666ff">X::OS</text>
</a>
</g>
</g>
<!-- X::OS&#45;&gt;Exception -->
<g id="edge6" class="edge">
<title>X::OS&#45;&gt;Exception</title>
<path fill="none" stroke="#000000" d="M165.63,-176C148.05,-186.43 123.11,-201.23 103.03,-213.13"/>
<polygon fill="#000000" stroke="#000000" points="101.01,-210.26 94.2,-218.37 104.59,-216.28 101.01,-210.26"/>
</g>
<!-- X::IO&#45;&gt;Exception -->
<g id="edge7" class="edge">
<title>X::IO&#45;&gt;Exception</title>
<path fill="none" stroke="#000000" d="M138.08,-107.74C125.04,-133.52 101.54,-180 101.54,-180 101.54,-180 93.13,-193.93 84.93,-207.51"/>
<polygon fill="#000000" stroke="#000000" points="81.84,-205.86 79.67,-216.23 87.83,-209.48 81.84,-205.86"/>
</g>
<!-- X::IO&#45;&gt;X::OS -->
<g id="edge9" class="edge">
<title>X::IO&#45;&gt;X::OS</title>
<path fill="none" stroke="#6666ff" d="M156.05,-107.24C161,-115.68 167.16,-126.2 172.72,-135.69"/>
<polygon fill="#6666ff" stroke="#6666ff" points="169.73,-137.51 177.8,-144.37 175.77,-133.97 169.73,-137.51"/>
</g>
</g>
</svg>
