<?xml version="1.0" encoding="UTF-8" standalone="no"?>
<!DOCTYPE svg PUBLIC "-//W3C//DTD SVG 1.1//EN"
 "http://www.w3.org/Graphics/SVG/1.1/DTD/svg11.dtd">
<!-- Generated by graphviz version 2.43.0 (0)
 -->
<!-- Title: perl6&#45;type&#45;graph Pages: 1 -->
<svg width="850pt" height="188pt"
 viewBox="0.00 0.00 849.88 188.00" xmlns="http://www.w3.org/2000/svg" xmlns:xlink="http://www.w3.org/1999/xlink">
<g id="graph0" class="graph" transform="scale(1 1) rotate(0) translate(4 184)">
<title>perl6&#45;type&#45;graph</title>
<polygon fill="white" stroke="transparent" points="-4,4 -4,-184 845.88,-184 845.88,4 -4,4"/>
<!-- CompUnit::Repository::Locally -->
<g id="node1" class="node">
<title>CompUnit::Repository::Locally</title>
<g id="a_node1"><a xlink:href="/type/CompUnit::Repository::Locally" xlink:title="CompUnit::Repository::Locally">
<ellipse fill="none" stroke="#6666ff" cx="429.04" cy="-90" rx="129.18" ry="18"/>
<text text-anchor="middle" x="429.04" y="-86.3" font-family="FreeSans" font-size="14.00" fill="#6666ff">CompUnit::Repository::Locally</text>
</a>
</g>
</g>
<!-- Mu -->
<g id="node2" class="node">
<title>Mu</title>
<g id="a_node2"><a xlink:href="/type/Mu" xlink:title="Mu">
<ellipse fill="none" stroke="#000000" cx="603.04" cy="-162" rx="27" ry="18"/>
<text text-anchor="middle" x="603.04" y="-158.3" font-family="FreeSans" font-size="14.00" fill="#000000">Mu</text>
</a>
</g>
</g>
<!-- Any -->
<g id="node3" class="node">
<title>Any</title>
<g id="a_node3"><a xlink:href="/type/Any" xlink:title="Any">
<ellipse fill="none" stroke="#000000" cx="603.04" cy="-90" rx="27" ry="18"/>
<text text-anchor="middle" x="603.04" y="-86.3" font-family="FreeSans" font-size="14.00" fill="#000000">Any</text>
</a>
</g>
</g>
<!-- Any&#45;&gt;Mu -->
<g id="edge1" class="edge">
<title>Any&#45;&gt;Mu</title>
<path fill="none" stroke="#000000" d="M603.04,-108.3C603.04,-116.02 603.04,-125.29 603.04,-133.89"/>
<polygon fill="#000000" stroke="#000000" points="599.54,-133.9 603.04,-143.9 606.54,-133.9 599.54,-133.9"/>
</g>
<!-- CompUnit::Repository -->
<g id="node4" class="node">
<title>CompUnit::Repository</title>
<g id="a_node4"><a xlink:href="/type/CompUnit::Repository" xlink:title="CompUnit::Repository">
<ellipse fill="none" stroke="#6666ff" cx="745.04" cy="-90" rx="96.68" ry="18"/>
<text text-anchor="middle" x="745.04" y="-86.3" font-family="FreeSans" font-size="14.00" fill="#6666ff">CompUnit::Repository</text>
</a>
</g>
</g>
<!-- CompUnit::Repository::FileSystem -->
<g id="node5" class="node">
<title>CompUnit::Repository::FileSystem</title>
<g id="a_node5"><a xlink:href="/type/CompUnit::Repository::FileSystem" xlink:title="CompUnit::Repository::FileSystem">
<ellipse fill="none" stroke="#000000" cx="669.04" cy="-18" rx="144.87" ry="18"/>
<text text-anchor="middle" x="669.04" y="-14.3" font-family="FreeSans" font-size="14.00" fill="#000000">CompUnit::Repository::FileSystem</text>
</a>
</g>
</g>
<!-- CompUnit::Repository::FileSystem&#45;&gt;CompUnit::Repository::Locally -->
<g id="edge4" class="edge">
<title>CompUnit::Repository::FileSystem&#45;&gt;CompUnit::Repository::Locally</title>
<path fill="none" stroke="#6666ff" d="M614.88,-34.8C578.45,-45.42 530.31,-59.46 492.15,-70.59"/>
<polygon fill="#6666ff" stroke="#6666ff" points="490.79,-67.34 482.17,-73.5 492.75,-74.06 490.79,-67.34"/>
</g>
<!-- CompUnit::Repository::FileSystem&#45;&gt;Any -->
<g id="edge2" class="edge">
<title>CompUnit::Repository::FileSystem&#45;&gt;Any</title>
<path fill="none" stroke="#000000" d="M653.06,-35.95C644.39,-45.14 633.56,-56.62 624.2,-66.55"/>
<polygon fill="#000000" stroke="#000000" points="621.39,-64.43 617.07,-74.11 626.48,-69.24 621.39,-64.43"/>
</g>
<!-- CompUnit::Repository::FileSystem&#45;&gt;CompUnit::Repository -->
<g id="edge5" class="edge">
<title>CompUnit::Repository::FileSystem&#45;&gt;CompUnit::Repository</title>
<path fill="none" stroke="#6666ff" d="M687.43,-35.95C696.96,-44.72 708.74,-55.57 719.16,-65.17"/>
<polygon fill="#6666ff" stroke="#6666ff" points="717.08,-68.01 726.81,-72.21 721.83,-62.86 717.08,-68.01"/>
</g>
<!-- CompUnit::Repository::Installable -->
<g id="node6" class="node">
<title>CompUnit::Repository::Installable</title>
<g id="a_node6"><a xlink:href="/type/CompUnit::Repository::Installable" xlink:title="CompUnit::Repository::Installable">
<ellipse fill="none" stroke="#6666ff" cx="141.04" cy="-90" rx="141.07" ry="18"/>
<text text-anchor="middle" x="141.04" y="-86.3" font-family="FreeSans" font-size="14.00" fill="#6666ff">CompUnit::Repository::Installable</text>
</a>
</g>
</g>
<!-- CompUnit::Repository::Installation -->
<g id="node7" class="node">
<title>CompUnit::Repository::Installation</title>
<g id="a_node7"><a xlink:href="/type/CompUnit::Repository::Installation" xlink:title="CompUnit::Repository::Installation">
<ellipse fill="none" stroke="#000000" cx="362.04" cy="-18" rx="143.77" ry="18"/>
<text text-anchor="middle" x="362.04" y="-14.3" font-family="FreeSans" font-size="14.00" fill="#000000">CompUnit::Repository::Installation</text>
</a>
</g>
</g>
<!-- CompUnit::Repository::Installation&#45;&gt;CompUnit::Repository::Locally -->
<g id="edge6" class="edge">
<title>CompUnit::Repository::Installation&#45;&gt;CompUnit::Repository::Locally</title>
<path fill="none" stroke="#6666ff" d="M378.26,-35.95C386.45,-44.5 396.53,-55.04 405.55,-64.46"/>
<polygon fill="#6666ff" stroke="#6666ff" points="403.06,-66.92 412.5,-71.72 408.12,-62.08 403.06,-66.92"/>
</g>
<!-- CompUnit::Repository::Installation&#45;&gt;Any -->
<g id="edge3" class="edge">
<title>CompUnit::Repository::Installation&#45;&gt;Any</title>
<path fill="none" stroke="#000000" d="M421.61,-34.4C482.13,-50.05 567.04,-72 567.04,-72 567.04,-72 569.22,-73.03 572.51,-74.58"/>
<polygon fill="#000000" stroke="#000000" points="571.14,-77.81 581.68,-78.91 574.13,-71.48 571.14,-77.81"/>
</g>
<!-- CompUnit::Repository::Installation&#45;&gt;CompUnit::Repository::Installable -->
<g id="edge7" class="edge">
<title>CompUnit::Repository::Installation&#45;&gt;CompUnit::Repository::Installable</title>
<path fill="none" stroke="#6666ff" d="M311.89,-34.88C278.95,-45.32 235.68,-59.02 200.93,-70.03"/>
<polygon fill="#6666ff" stroke="#6666ff" points="199.85,-66.7 191.37,-73.06 201.96,-73.37 199.85,-66.7"/>
</g>
</g>
</svg>
