<?xml version="1.0" encoding="UTF-8" standalone="no"?>
<!DOCTYPE svg PUBLIC "-//W3C//DTD SVG 1.1//EN"
 "http://www.w3.org/Graphics/SVG/1.1/DTD/svg11.dtd">
<!-- Generated by graphviz version 2.43.0 (0)
 -->
<!-- Title: perl6&#45;type&#45;graph Pages: 1 -->
<svg width="309pt" height="404pt"
 viewBox="0.00 0.00 308.68 404.00" xmlns="http://www.w3.org/2000/svg" xmlns:xlink="http://www.w3.org/1999/xlink">
<g id="graph0" class="graph" transform="scale(1 1) rotate(0) translate(4 400)">
<title>perl6&#45;type&#45;graph</title>
<polygon fill="white" stroke="transparent" points="-4,4 -4,-400 304.68,-400 304.68,4 -4,4"/>
<!-- X::Syntax::Regex::Unterminated -->
<g id="node1" class="node">
<title>X::Syntax::Regex::Unterminated</title>
<g id="a_node1"><a xlink:href="/type/X::Syntax::Regex::Unterminated" xlink:title="X::Syntax::Regex::Unterminated">
<ellipse fill="none" stroke="#000000" cx="135.84" cy="-18" rx="135.68" ry="18"/>
<text text-anchor="middle" x="135.84" y="-14.3" font-family="FreeSans" font-size="14.00" fill="#000000">X::Syntax::Regex::Unterminated</text>
</a>
</g>
</g>
<!-- Exception -->
<g id="node4" class="node">
<title>Exception</title>
<g id="a_node4"><a xlink:href="/type/Exception" xlink:title="Exception">
<ellipse fill="none" stroke="#000000" cx="158.84" cy="-234" rx="49.29" ry="18"/>
<text text-anchor="middle" x="158.84" y="-230.3" font-family="FreeSans" font-size="14.00" fill="#000000">Exception</text>
</a>
</g>
</g>
<!-- X::Syntax::Regex::Unterminated&#45;&gt;Exception -->
<g id="edge1" class="edge">
<title>X::Syntax::Regex::Unterminated&#45;&gt;Exception</title>
<path fill="none" stroke="#000000" d="M133.8,-36.15C134.25,-73.34 143.48,-161.63 151.31,-206.23"/>
<polygon fill="#000000" stroke="#000000" points="147.87,-206.88 153.16,-216.06 154.75,-205.59 147.87,-206.88"/>
</g>
<!-- X::Syntax::Regex::Unterminated&#45;&gt;Exception -->
<g id="edge2" class="edge">
<title>X::Syntax::Regex::Unterminated&#45;&gt;Exception</title>
<path fill="none" stroke="#000000" d="M141.56,-36.15C149.07,-73.17 158.77,-160.82 160.59,-205.61"/>
<polygon fill="#000000" stroke="#000000" points="157.09,-205.87 160.87,-215.77 164.09,-205.67 157.09,-205.87"/>
</g>
<!-- X::Syntax -->
<g id="node6" class="node">
<title>X::Syntax</title>
<g id="a_node6"><a xlink:href="/type/X::Syntax" xlink:title="X::Syntax">
<ellipse fill="none" stroke="#6666ff" cx="220.84" cy="-90" rx="48.19" ry="18"/>
<text text-anchor="middle" x="220.84" y="-86.3" font-family="FreeSans" font-size="14.00" fill="#6666ff">X::Syntax</text>
</a>
</g>
</g>
<!-- X::Syntax::Regex::Unterminated&#45;&gt;X::Syntax -->
<g id="edge7" class="edge">
<title>X::Syntax::Regex::Unterminated&#45;&gt;X::Syntax</title>
<path fill="none" stroke="#6666ff" d="M156.41,-35.95C167.67,-45.22 181.76,-56.81 193.88,-66.8"/>
<polygon fill="#6666ff" stroke="#6666ff" points="191.96,-69.75 201.9,-73.41 196.41,-64.35 191.96,-69.75"/>
</g>
<!-- Mu -->
<g id="node2" class="node">
<title>Mu</title>
<g id="a_node2"><a xlink:href="/type/Mu" xlink:title="Mu">
<ellipse fill="none" stroke="#000000" cx="158.84" cy="-378" rx="27" ry="18"/>
<text text-anchor="middle" x="158.84" y="-374.3" font-family="FreeSans" font-size="14.00" fill="#000000">Mu</text>
</a>
</g>
</g>
<!-- Any -->
<g id="node3" class="node">
<title>Any</title>
<g id="a_node3"><a xlink:href="/type/Any" xlink:title="Any">
<ellipse fill="none" stroke="#000000" cx="158.84" cy="-306" rx="27" ry="18"/>
<text text-anchor="middle" x="158.84" y="-302.3" font-family="FreeSans" font-size="14.00" fill="#000000">Any</text>
</a>
</g>
</g>
<!-- Any&#45;&gt;Mu -->
<g id="edge3" class="edge">
<title>Any&#45;&gt;Mu</title>
<path fill="none" stroke="#000000" d="M158.84,-324.3C158.84,-332.02 158.84,-341.29 158.84,-349.89"/>
<polygon fill="#000000" stroke="#000000" points="155.34,-349.9 158.84,-359.9 162.34,-349.9 155.34,-349.9"/>
</g>
<!-- Exception&#45;&gt;Any -->
<g id="edge4" class="edge">
<title>Exception&#45;&gt;Any</title>
<path fill="none" stroke="#000000" d="M158.84,-252.3C158.84,-260.02 158.84,-269.29 158.84,-277.89"/>
<polygon fill="#000000" stroke="#000000" points="155.34,-277.9 158.84,-287.9 162.34,-277.9 155.34,-277.9"/>
</g>
<!-- X::Comp -->
<g id="node5" class="node">
<title>X::Comp</title>
<g id="a_node5"><a xlink:href="/type/X::Comp" xlink:title="X::Comp">
<ellipse fill="none" stroke="#6666ff" cx="255.84" cy="-162" rx="44.69" ry="18"/>
<text text-anchor="middle" x="255.84" y="-158.3" font-family="FreeSans" font-size="14.00" fill="#6666ff">X::Comp</text>
</a>
</g>
</g>
<!-- X::Comp&#45;&gt;Exception -->
<g id="edge5" class="edge">
<title>X::Comp&#45;&gt;Exception</title>
<path fill="none" stroke="#000000" d="M234.79,-178.19C221.28,-187.94 203.54,-200.74 188.6,-211.52"/>
<polygon fill="#000000" stroke="#000000" points="186.24,-208.91 180.18,-217.6 190.34,-214.59 186.24,-208.91"/>
</g>
<!-- X::Syntax&#45;&gt;Exception -->
<g id="edge6" class="edge">
<title>X::Syntax&#45;&gt;Exception</title>
<path fill="none" stroke="#000000" d="M213.48,-107.85C202.81,-132.29 182.93,-177.83 170.31,-206.71"/>
<polygon fill="#000000" stroke="#000000" points="166.98,-205.61 166.18,-216.18 173.39,-208.41 166.98,-205.61"/>
</g>
<!-- X::Syntax&#45;&gt;X::Comp -->
<g id="edge8" class="edge">
<title>X::Syntax&#45;&gt;X::Comp</title>
<path fill="none" stroke="#6666ff" d="M229.31,-107.95C233.39,-116.11 238.38,-126.09 242.93,-135.18"/>
<polygon fill="#6666ff" stroke="#6666ff" points="239.84,-136.83 247.44,-144.21 246.1,-133.7 239.84,-136.83"/>
</g>
</g>
</svg>
