<?xml version="1.0" encoding="UTF-8" standalone="no"?>
<!DOCTYPE svg PUBLIC "-//W3C//DTD SVG 1.1//EN"
 "http://www.w3.org/Graphics/SVG/1.1/DTD/svg11.dtd">
<!-- Generated by graphviz version 2.43.0 (0)
 -->
<!-- Title: perl6&#45;type&#45;graph Pages: 1 -->
<svg width="1717pt" height="1267pt"
 viewBox="0.00 0.00 1716.60 1267.20" xmlns="http://www.w3.org/2000/svg" xmlns:xlink="http://www.w3.org/1999/xlink">
<g id="graph0" class="graph" transform="scale(1 1) rotate(0) translate(4 1263.2)">
<title>perl6&#45;type&#45;graph</title>
<polygon fill="#ffffff" stroke="transparent" points="-4,4 -4,-1263.2 1712.6,-1263.2 1712.6,4 -4,4"/>
<!-- Metamodel::MROBasedMethodDispatch -->
<g id="node1" class="node">
<title>Metamodel::MROBasedMethodDispatch</title>
<g id="a_node1"><a xlink:href="/type/Metamodel::MROBasedMethodDispatch" xlink:title="Metamodel::MROBasedMethodDispatch">
<ellipse fill="none" stroke="#6666ff" cx="455.64" cy="-397.01" rx="169.77" ry="18"/>
<text text-anchor="middle" x="455.64" y="-393.31" font-family="FreeSans" font-size="14.00" fill="#6666ff">Metamodel::MROBasedMethodDispatch</text>
</a>
</g>
</g>
<!-- Mu -->
<g id="node2" class="node">
<title>Mu</title>
<g id="a_node2"><a xlink:href="/type/Mu" xlink:title="Mu">
<ellipse fill="none" stroke="#000000" cx="1681.6" cy="-18" rx="27" ry="18"/>
<text text-anchor="middle" x="1681.6" y="-14.3" font-family="FreeSans" font-size="14.00" fill="#000000">Mu</text>
</a>
</g>
</g>
<!-- Any -->
<g id="node3" class="node">
<title>Any</title>
<g id="a_node3"><a xlink:href="/type/Any" xlink:title="Any">
<ellipse fill="none" stroke="#000000" cx="1235.68" cy="-448.56" rx="27" ry="18"/>
<text text-anchor="middle" x="1235.68" y="-444.86" font-family="FreeSans" font-size="14.00" fill="#000000">Any</text>
</a>
</g>
</g>
<!-- Any&#45;&gt;Mu -->
<g id="edge1" class="edge">
<title>Any&#45;&gt;Mu</title>
<path fill="none" stroke="#000000" d="M1251.03,-433.74C1317.21,-369.84 1578.43,-117.62 1658.28,-40.51"/>
<polygon fill="#000000" stroke="#000000" points="1661.09,-42.67 1665.85,-33.2 1656.23,-37.63 1661.09,-42.67"/>
</g>
<!-- Metamodel::Naming -->
<g id="node4" class="node">
<title>Metamodel::Naming</title>
<g id="a_node4"><a xlink:href="/type/Metamodel::Naming" xlink:title="Metamodel::Naming">
<ellipse fill="none" stroke="#6666ff" cx="1236.97" cy="-712.17" rx="90.18" ry="18"/>
<text text-anchor="middle" x="1236.97" y="-708.47" font-family="FreeSans" font-size="14.00" fill="#6666ff">Metamodel::Naming</text>
</a>
</g>
</g>
<!-- Metamodel::Documenting -->
<g id="node5" class="node">
<title>Metamodel::Documenting</title>
<g id="a_node5"><a xlink:href="/type/Metamodel::Documenting" xlink:title="Metamodel::Documenting">
<ellipse fill="none" stroke="#6666ff" cx="1485.82" cy="-587.17" rx="111.28" ry="18"/>
<text text-anchor="middle" x="1485.82" y="-583.47" font-family="FreeSans" font-size="14.00" fill="#6666ff">Metamodel::Documenting</text>
</a>
</g>
</g>
<!-- Metamodel::Versioning -->
<g id="node6" class="node">
<title>Metamodel::Versioning</title>
<g id="a_node6"><a xlink:href="/type/Metamodel::Versioning" xlink:title="Metamodel::Versioning">
<ellipse fill="none" stroke="#6666ff" cx="688.27" cy="-136.88" rx="100.98" ry="18"/>
<text text-anchor="middle" x="688.27" y="-133.18" font-family="FreeSans" font-size="14.00" fill="#6666ff">Metamodel::Versioning</text>
</a>
</g>
</g>
<!-- Metamodel::Stashing -->
<g id="node7" class="node">
<title>Metamodel::Stashing</title>
<g id="a_node7"><a xlink:href="/type/Metamodel::Stashing" xlink:title="Metamodel::Stashing">
<ellipse fill="none" stroke="#6666ff" cx="726.89" cy="-426.53" rx="93.68" ry="18"/>
<text text-anchor="middle" x="726.89" y="-422.83" font-family="FreeSans" font-size="14.00" fill="#6666ff">Metamodel::Stashing</text>
</a>
</g>
</g>
<!-- Metamodel::MultipleInheritance -->
<g id="node8" class="node">
<title>Metamodel::MultipleInheritance</title>
<g id="a_node8"><a xlink:href="/type/Metamodel::MultipleInheritance" xlink:title="Metamodel::MultipleInheritance">
<ellipse fill="none" stroke="#6666ff" cx="1460.36" cy="-407.94" rx="133.78" ry="18"/>
<text text-anchor="middle" x="1460.36" y="-404.24" font-family="FreeSans" font-size="14.00" fill="#6666ff">Metamodel::MultipleInheritance</text>
</a>
</g>
</g>
<!-- Metamodel::C3MRO -->
<g id="node9" class="node">
<title>Metamodel::C3MRO</title>
<g id="a_node9"><a xlink:href="/type/Metamodel::C3MRO" xlink:title="Metamodel::C3MRO">
<ellipse fill="none" stroke="#6666ff" cx="884.93" cy="-77.54" rx="92.08" ry="18"/>
<text text-anchor="middle" x="884.93" y="-73.84" font-family="FreeSans" font-size="14.00" fill="#6666ff">Metamodel::C3MRO</text>
</a>
</g>
</g>
<!-- Metamodel::MROBasedTypeChecking -->
<g id="node10" class="node">
<title>Metamodel::MROBasedTypeChecking</title>
<g id="a_node10"><a xlink:href="/type/Metamodel::MROBasedTypeChecking" xlink:title="Metamodel::MROBasedTypeChecking">
<ellipse fill="none" stroke="#6666ff" cx="991.65" cy="-432.3" rx="163.27" ry="18"/>
<text text-anchor="middle" x="991.65" y="-428.6" font-family="FreeSans" font-size="14.00" fill="#6666ff">Metamodel::MROBasedTypeChecking</text>
</a>
</g>
</g>
<!-- Metamodel::NativeHOW -->
<g id="node11" class="node">
<title>Metamodel::NativeHOW</title>
<g id="a_node11"><a xlink:href="/type/Metamodel::NativeHOW" xlink:title="Metamodel::NativeHOW">
<ellipse fill="none" stroke="#000000" cx="1142.04" cy="-127.26" rx="106.68" ry="18"/>
<text text-anchor="middle" x="1142.04" y="-123.56" font-family="FreeSans" font-size="14.00" fill="#000000">Metamodel::NativeHOW</text>
</a>
</g>
</g>
<!-- Metamodel::NativeHOW&#45;&gt;Metamodel::MROBasedMethodDispatch -->
<g id="edge11" class="edge">
<title>Metamodel::NativeHOW&#45;&gt;Metamodel::MROBasedMethodDispatch</title>
<path fill="none" stroke="#6666ff" d="M1099.88,-143.83C980.79,-190.63 641.96,-323.78 509.58,-375.81"/>
<polygon fill="#6666ff" stroke="#6666ff" points="508.06,-372.64 500.03,-379.56 510.62,-379.16 508.06,-372.64"/>
</g>
<!-- Metamodel::NativeHOW&#45;&gt;Any -->
<g id="edge2" class="edge">
<title>Metamodel::NativeHOW&#45;&gt;Any</title>
<path fill="none" stroke="#000000" d="M1147.34,-145.45C1162.95,-199.02 1208.83,-356.44 1227.57,-420.73"/>
<polygon fill="#000000" stroke="#000000" points="1224.27,-421.95 1230.43,-430.57 1230.99,-419.99 1224.27,-421.95"/>
</g>
<!-- Metamodel::NativeHOW&#45;&gt;Metamodel::Naming -->
<g id="edge5" class="edge">
<title>Metamodel::NativeHOW&#45;&gt;Metamodel::Naming</title>
<path fill="none" stroke="#6666ff" d="M1144.98,-145.4C1158.63,-229.49 1215.76,-581.47 1232.4,-684.02"/>
<polygon fill="#6666ff" stroke="#6666ff" points="1228.96,-684.64 1234.01,-693.95 1235.87,-683.51 1228.96,-684.64"/>
</g>
<!-- Metamodel::NativeHOW&#45;&gt;Metamodel::Documenting -->
<g id="edge6" class="edge">
<title>Metamodel::NativeHOW&#45;&gt;Metamodel::Documenting</title>
<path fill="none" stroke="#6666ff" d="M1152.5,-145.37C1166.67,-169.92 1190.24,-210.72 1190.24,-210.72 1190.24,-210.72 1324.87,-407.89 1324.87,-407.89 1324.87,-407.89 1418.39,-512.06 1462.85,-561.59"/>
<polygon fill="#6666ff" stroke="#6666ff" points="1460.51,-564.22 1469.8,-569.32 1465.72,-559.54 1460.51,-564.22"/>
</g>
<!-- Metamodel::NativeHOW&#45;&gt;Metamodel::Versioning -->
<g id="edge7" class="edge">
<title>Metamodel::NativeHOW&#45;&gt;Metamodel::Versioning</title>
<path fill="none" stroke="#6666ff" d="M1036.22,-129.5C964.81,-131.02 870.78,-133.01 798.47,-134.54"/>
<polygon fill="#6666ff" stroke="#6666ff" points="798.34,-131.05 788.41,-134.76 798.48,-138.04 798.34,-131.05"/>
</g>
<!-- Metamodel::NativeHOW&#45;&gt;Metamodel::Stashing -->
<g id="edge8" class="edge">
<title>Metamodel::NativeHOW&#45;&gt;Metamodel::Stashing</title>
<path fill="none" stroke="#6666ff" d="M1117.62,-144.86C1046.51,-196.12 839.59,-345.29 759.28,-403.18"/>
<polygon fill="#6666ff" stroke="#6666ff" points="757.09,-400.45 751.02,-409.14 761.18,-406.13 757.09,-400.45"/>
</g>
<!-- Metamodel::NativeHOW&#45;&gt;Metamodel::MultipleInheritance -->
<g id="edge9" class="edge">
<title>Metamodel::NativeHOW&#45;&gt;Metamodel::MultipleInheritance</title>
<path fill="none" stroke="#6666ff" d="M1152.5,-145.37C1166.67,-169.92 1190.24,-210.72 1190.24,-210.72 1190.24,-210.72 1355.69,-331.53 1427.62,-384.04"/>
<polygon fill="#6666ff" stroke="#6666ff" points="1425.77,-387.02 1435.91,-390.09 1429.9,-381.37 1425.77,-387.02"/>
</g>
<!-- Metamodel::NativeHOW&#45;&gt;Metamodel::C3MRO -->
<g id="edge10" class="edge">
<title>Metamodel::NativeHOW&#45;&gt;Metamodel::C3MRO</title>
<path fill="none" stroke="#6666ff" d="M1071.78,-113.67C1037.41,-107.02 995.98,-99.01 960.88,-92.22"/>
<polygon fill="#6666ff" stroke="#6666ff" points="961.16,-88.71 950.68,-90.25 959.83,-95.59 961.16,-88.71"/>
</g>
<!-- Metamodel::NativeHOW&#45;&gt;Metamodel::MROBasedTypeChecking -->
<g id="edge12" class="edge">
<title>Metamodel::NativeHOW&#45;&gt;Metamodel::MROBasedTypeChecking</title>
<path fill="none" stroke="#6666ff" d="M1133.08,-145.43C1107.69,-196.93 1035.14,-344.08 1005.01,-405.19"/>
<polygon fill="#6666ff" stroke="#6666ff" points="1001.84,-403.71 1000.56,-414.23 1008.12,-406.81 1001.84,-403.71"/>
</g>
<!-- Metamodel::AttributeContainer -->
<g id="node12" class="node">
<title>Metamodel::AttributeContainer</title>
<g id="a_node12"><a xlink:href="/type/Metamodel::AttributeContainer" xlink:title="Metamodel::AttributeContainer">
<ellipse fill="none" stroke="#6666ff" cx="352.64" cy="-721.05" rx="129.98" ry="18"/>
<text text-anchor="middle" x="352.64" y="-717.35" font-family="FreeSans" font-size="14.00" fill="#6666ff">Metamodel::AttributeContainer</text>
</a>
</g>
</g>
<!-- Metamodel::MethodContainer -->
<g id="node13" class="node">
<title>Metamodel::MethodContainer</title>
<g id="a_node13"><a xlink:href="/type/Metamodel::MethodContainer" xlink:title="Metamodel::MethodContainer">
<ellipse fill="none" stroke="#6666ff" cx="1180.91" cy="-1213.78" rx="127.28" ry="18"/>
<text text-anchor="middle" x="1180.91" y="-1210.08" font-family="FreeSans" font-size="14.00" fill="#6666ff">Metamodel::MethodContainer</text>
</a>
</g>
</g>
<!-- Metamodel::MultiMethodContainer -->
<g id="node14" class="node">
<title>Metamodel::MultiMethodContainer</title>
<g id="a_node14"><a xlink:href="/type/Metamodel::MultiMethodContainer" xlink:title="Metamodel::MultiMethodContainer">
<ellipse fill="none" stroke="#6666ff" cx="899.25" cy="-1241.2" rx="146.47" ry="18"/>
<text text-anchor="middle" x="899.25" y="-1237.5" font-family="FreeSans" font-size="14.00" fill="#6666ff">Metamodel::MultiMethodContainer</text>
</a>
</g>
</g>
<!-- Metamodel::RoleContainer -->
<g id="node15" class="node">
<title>Metamodel::RoleContainer</title>
<g id="a_node15"><a xlink:href="/type/Metamodel::RoleContainer" xlink:title="Metamodel::RoleContainer">
<ellipse fill="none" stroke="#6666ff" cx="629.29" cy="-1208.94" rx="115.88" ry="18"/>
<text text-anchor="middle" x="629.29" y="-1205.24" font-family="FreeSans" font-size="14.00" fill="#6666ff">Metamodel::RoleContainer</text>
</a>
</g>
</g>
<!-- Metamodel::BaseType -->
<g id="node16" class="node">
<title>Metamodel::BaseType</title>
<g id="a_node16"><a xlink:href="/type/Metamodel::BaseType" xlink:title="Metamodel::BaseType">
<ellipse fill="none" stroke="#6666ff" cx="99.44" cy="-1160.01" rx="99.38" ry="18"/>
<text text-anchor="middle" x="99.44" y="-1156.31" font-family="FreeSans" font-size="14.00" fill="#6666ff">Metamodel::BaseType</text>
</a>
</g>
</g>
<!-- Metamodel::BUILDPLAN -->
<g id="node17" class="node">
<title>Metamodel::BUILDPLAN</title>
<g id="a_node17"><a xlink:href="/type/Metamodel::BUILDPLAN" xlink:title="Metamodel::BUILDPLAN">
<ellipse fill="none" stroke="#6666ff" cx="1222.08" cy="-1075.66" rx="109.68" ry="18"/>
<text text-anchor="middle" x="1222.08" y="-1071.96" font-family="FreeSans" font-size="14.00" fill="#6666ff">Metamodel::BUILDPLAN</text>
</a>
</g>
</g>
<!-- Metamodel::BoolificationProtocol -->
<g id="node18" class="node">
<title>Metamodel::BoolificationProtocol</title>
<g id="a_node18"><a xlink:href="/type/Metamodel::BoolificationProtocol" xlink:title="Metamodel::BoolificationProtocol">
<ellipse fill="none" stroke="#6666ff" cx="505.81" cy="-1111.74" rx="139.18" ry="18"/>
<text text-anchor="middle" x="505.81" y="-1108.04" font-family="FreeSans" font-size="14.00" fill="#6666ff">Metamodel::BoolificationProtocol</text>
</a>
</g>
</g>
<!-- Metamodel::Mixins -->
<g id="node19" class="node">
<title>Metamodel::Mixins</title>
<g id="a_node19"><a xlink:href="/type/Metamodel::Mixins" xlink:title="Metamodel::Mixins">
<ellipse fill="none" stroke="#6666ff" cx="399.42" cy="-913.78" rx="85.29" ry="18"/>
<text text-anchor="middle" x="399.42" y="-910.08" font-family="FreeSans" font-size="14.00" fill="#6666ff">Metamodel::Mixins</text>
</a>
</g>
</g>
<!-- Metamodel::EnumHOW -->
<g id="node20" class="node">
<title>Metamodel::EnumHOW</title>
<g id="a_node20"><a xlink:href="/type/Metamodel::EnumHOW" xlink:title="Metamodel::EnumHOW">
<ellipse fill="none" stroke="#000000" cx="734.45" cy="-859.24" rx="104.78" ry="18"/>
<text text-anchor="middle" x="734.45" y="-855.54" font-family="FreeSans" font-size="14.00" fill="#000000">Metamodel::EnumHOW</text>
</a>
</g>
</g>
<!-- Metamodel::EnumHOW&#45;&gt;Metamodel::MROBasedMethodDispatch -->
<g id="edge20" class="edge">
<title>Metamodel::EnumHOW&#45;&gt;Metamodel::MROBasedMethodDispatch</title>
<path fill="none" stroke="#6666ff" d="M723.52,-841.12C680.53,-769.85 522.93,-508.57 471.79,-423.77"/>
<polygon fill="#6666ff" stroke="#6666ff" points="474.66,-421.76 466.49,-415 468.66,-425.37 474.66,-421.76"/>
</g>
<!-- Metamodel::EnumHOW&#45;&gt;Any -->
<g id="edge3" class="edge">
<title>Metamodel::EnumHOW&#45;&gt;Any</title>
<path fill="none" stroke="#000000" d="M751.84,-841.38C790.67,-801.52 881.04,-708.74 881.04,-708.74 881.04,-708.74 1126.46,-528.69 1208.98,-468.15"/>
<polygon fill="#000000" stroke="#000000" points="1211.12,-470.92 1217.11,-462.19 1206.98,-465.28 1211.12,-470.92"/>
</g>
<!-- Metamodel::EnumHOW&#45;&gt;Metamodel::Naming -->
<g id="edge13" class="edge">
<title>Metamodel::EnumHOW&#45;&gt;Metamodel::Naming</title>
<path fill="none" stroke="#6666ff" d="M787.76,-843.64C881.9,-816.09 1077.01,-758.98 1176.22,-729.95"/>
<polygon fill="#6666ff" stroke="#6666ff" points="1177.47,-733.23 1186.09,-727.06 1175.51,-726.51 1177.47,-733.23"/>
</g>
<!-- Metamodel::EnumHOW&#45;&gt;Metamodel::Stashing -->
<g id="edge14" class="edge">
<title>Metamodel::EnumHOW&#45;&gt;Metamodel::Stashing</title>
<path fill="none" stroke="#6666ff" d="M734.14,-841.2C732.96,-773.85 728.82,-536.79 727.39,-454.74"/>
<polygon fill="#6666ff" stroke="#6666ff" points="730.88,-454.59 727.21,-444.65 723.88,-454.71 730.88,-454.59"/>
</g>
<!-- Metamodel::EnumHOW&#45;&gt;Metamodel::MROBasedTypeChecking -->
<g id="edge21" class="edge">
<title>Metamodel::EnumHOW&#45;&gt;Metamodel::MROBasedTypeChecking</title>
<path fill="none" stroke="#6666ff" d="M745.34,-841.17C785.67,-774.21 926.75,-540.03 975.18,-459.64"/>
<polygon fill="#6666ff" stroke="#6666ff" points="978.45,-460.99 980.61,-450.62 972.45,-457.38 978.45,-460.99"/>
</g>
<!-- Metamodel::EnumHOW&#45;&gt;Metamodel::AttributeContainer -->
<g id="edge15" class="edge">
<title>Metamodel::EnumHOW&#45;&gt;Metamodel::AttributeContainer</title>
<path fill="none" stroke="#6666ff" d="M689.53,-842.98C619.59,-817.67 484.79,-768.88 408.62,-741.31"/>
<polygon fill="#6666ff" stroke="#6666ff" points="409.77,-738.01 399.18,-737.9 407.39,-744.59 409.77,-738.01"/>
</g>
<!-- Metamodel::EnumHOW&#45;&gt;Metamodel::MethodContainer -->
<g id="edge16" class="edge">
<title>Metamodel::EnumHOW&#45;&gt;Metamodel::MethodContainer</title>
<path fill="none" stroke="#6666ff" d="M756.9,-877.06C830.74,-935.7 1066.2,-1122.68 1150.51,-1189.64"/>
<polygon fill="#6666ff" stroke="#6666ff" points="1148.42,-1192.44 1158.42,-1195.92 1152.77,-1186.96 1148.42,-1192.44"/>
</g>
<!-- Metamodel::EnumHOW&#45;&gt;Metamodel::MultiMethodContainer -->
<g id="edge17" class="edge">
<title>Metamodel::EnumHOW&#45;&gt;Metamodel::MultiMethodContainer</title>
<path fill="none" stroke="#6666ff" d="M742.29,-877.41C768.81,-938.86 855.26,-1139.25 887.23,-1213.34"/>
<polygon fill="#6666ff" stroke="#6666ff" points="884.19,-1215.13 891.37,-1222.93 890.62,-1212.36 884.19,-1215.13"/>
</g>
<!-- Metamodel::EnumHOW&#45;&gt;Metamodel::RoleContainer -->
<g id="edge18" class="edge">
<title>Metamodel::EnumHOW&#45;&gt;Metamodel::RoleContainer</title>
<path fill="none" stroke="#6666ff" d="M728.95,-877.55C711.66,-935.03 658.39,-1112.15 637.66,-1181.09"/>
<polygon fill="#6666ff" stroke="#6666ff" points="634.27,-1180.23 634.74,-1190.82 640.97,-1182.25 634.27,-1180.23"/>
</g>
<!-- Metamodel::EnumHOW&#45;&gt;Metamodel::BaseType -->
<g id="edge19" class="edge">
<title>Metamodel::EnumHOW&#45;&gt;Metamodel::BaseType</title>
<path fill="none" stroke="#6666ff" d="M698.49,-876.27C589.67,-927.82 264.03,-1082.05 144.28,-1138.77"/>
<polygon fill="#6666ff" stroke="#6666ff" points="142.55,-1135.72 135.01,-1143.16 145.54,-1142.05 142.55,-1135.72"/>
</g>
<!-- Metamodel::EnumHOW&#45;&gt;Metamodel::BUILDPLAN -->
<g id="edge22" class="edge">
<title>Metamodel::EnumHOW&#45;&gt;Metamodel::BUILDPLAN</title>
<path fill="none" stroke="#6666ff" d="M772.31,-876.04C860.23,-915.06 1078.09,-1011.75 1174.67,-1054.62"/>
<polygon fill="#6666ff" stroke="#6666ff" points="1173.35,-1057.86 1183.91,-1058.72 1176.19,-1051.46 1173.35,-1057.86"/>
</g>
<!-- Metamodel::EnumHOW&#45;&gt;Metamodel::BoolificationProtocol -->
<g id="edge23" class="edge">
<title>Metamodel::EnumHOW&#45;&gt;Metamodel::BoolificationProtocol</title>
<path fill="none" stroke="#6666ff" d="M718.01,-877.4C677.97,-921.62 575.29,-1035.01 529.03,-1086.1"/>
<polygon fill="#6666ff" stroke="#6666ff" points="526.23,-1083.98 522.11,-1093.75 531.41,-1088.68 526.23,-1083.98"/>
</g>
<!-- Metamodel::EnumHOW&#45;&gt;Metamodel::Mixins -->
<g id="edge24" class="edge">
<title>Metamodel::EnumHOW&#45;&gt;Metamodel::Mixins</title>
<path fill="none" stroke="#6666ff" d="M658.43,-871.62C604.18,-880.45 531.45,-892.28 476.88,-901.17"/>
<polygon fill="#6666ff" stroke="#6666ff" points="476.22,-897.73 466.91,-902.79 477.34,-904.64 476.22,-897.73"/>
</g>
<!-- Metamodel::Finalization -->
<g id="node21" class="node">
<title>Metamodel::Finalization</title>
<g id="a_node21"><a xlink:href="/type/Metamodel::Finalization" xlink:title="Metamodel::Finalization">
<ellipse fill="none" stroke="#6666ff" cx="1295.83" cy="-210.84" rx="103.98" ry="18"/>
<text text-anchor="middle" x="1295.83" y="-207.14" font-family="FreeSans" font-size="14.00" fill="#6666ff">Metamodel::Finalization</text>
</a>
</g>
</g>
<!-- Metamodel::PrivateMethodContainer -->
<g id="node22" class="node">
<title>Metamodel::PrivateMethodContainer</title>
<g id="a_node22"><a xlink:href="/type/Metamodel::PrivateMethodContainer" xlink:title="Metamodel::PrivateMethodContainer">
<ellipse fill="none" stroke="#6666ff" cx="272.5" cy="-486.72" rx="154.87" ry="18"/>
<text text-anchor="middle" x="272.5" y="-483.02" font-family="FreeSans" font-size="14.00" fill="#6666ff">Metamodel::PrivateMethodContainer</text>
</a>
</g>
</g>
<!-- Metamodel::DefaultParent -->
<g id="node23" class="node">
<title>Metamodel::DefaultParent</title>
<g id="a_node23"><a xlink:href="/type/Metamodel::DefaultParent" xlink:title="Metamodel::DefaultParent">
<ellipse fill="none" stroke="#6666ff" cx="1468.77" cy="-1099.73" rx="113.18" ry="18"/>
<text text-anchor="middle" x="1468.77" y="-1096.03" font-family="FreeSans" font-size="14.00" fill="#6666ff">Metamodel::DefaultParent</text>
</a>
</g>
</g>
<!-- Metamodel::Trusting -->
<g id="node24" class="node">
<title>Metamodel::Trusting</title>
<g id="a_node24"><a xlink:href="/type/Metamodel::Trusting" xlink:title="Metamodel::Trusting">
<ellipse fill="none" stroke="#6666ff" cx="1551.79" cy="-900.69" rx="91.78" ry="18"/>
<text text-anchor="middle" x="1551.79" y="-896.99" font-family="FreeSans" font-size="14.00" fill="#6666ff">Metamodel::Trusting</text>
</a>
</g>
</g>
<!-- Metamodel::ClassHOW -->
<g id="node25" class="node">
<title>Metamodel::ClassHOW</title>
<g id="a_node25"><a xlink:href="/type/Metamodel::ClassHOW" xlink:title="Metamodel::ClassHOW">
<ellipse fill="none" stroke="#000000" cx="985.98" cy="-708.87" rx="103.18" ry="18"/>
<text text-anchor="middle" x="985.98" y="-705.17" font-family="FreeSans" font-size="14.00" fill="#000000">Metamodel::ClassHOW</text>
</a>
</g>
</g>
<!-- Metamodel::ClassHOW&#45;&gt;Metamodel::MROBasedMethodDispatch -->
<g id="edge38" class="edge">
<title>Metamodel::ClassHOW&#45;&gt;Metamodel::MROBasedMethodDispatch</title>
<path fill="none" stroke="#6666ff" d="M956.33,-691.43C866.34,-638.51 596.3,-479.72 494.79,-420.03"/>
<polygon fill="#6666ff" stroke="#6666ff" points="496.46,-416.95 486.07,-414.9 492.91,-422.98 496.46,-416.95"/>
</g>
<!-- Metamodel::ClassHOW&#45;&gt;Any -->
<g id="edge4" class="edge">
<title>Metamodel::ClassHOW&#45;&gt;Any</title>
<path fill="none" stroke="#000000" d="M1003.14,-690.98C1047.37,-644.87 1165.17,-522.07 1214,-471.16"/>
<polygon fill="#000000" stroke="#000000" points="1216.56,-473.55 1220.96,-463.91 1211.51,-468.7 1216.56,-473.55"/>
</g>
<!-- Metamodel::ClassHOW&#45;&gt;Metamodel::Naming -->
<g id="edge25" class="edge">
<title>Metamodel::ClassHOW&#45;&gt;Metamodel::Naming</title>
<path fill="none" stroke="#6666ff" d="M1089.15,-710.23C1104.79,-710.43 1120.91,-710.64 1136.49,-710.85"/>
<polygon fill="#6666ff" stroke="#6666ff" points="1136.6,-714.35 1146.64,-710.98 1136.69,-707.35 1136.6,-714.35"/>
</g>
<!-- Metamodel::ClassHOW&#45;&gt;Metamodel::Documenting -->
<g id="edge26" class="edge">
<title>Metamodel::ClassHOW&#45;&gt;Metamodel::Documenting</title>
<path fill="none" stroke="#6666ff" d="M1046.27,-694.19C1138.78,-671.67 1315.37,-628.67 1414.23,-604.6"/>
<polygon fill="#6666ff" stroke="#6666ff" points="1415.25,-607.95 1424.14,-602.19 1413.59,-601.15 1415.25,-607.95"/>
</g>
<!-- Metamodel::ClassHOW&#45;&gt;Metamodel::Versioning -->
<g id="edge27" class="edge">
<title>Metamodel::ClassHOW&#45;&gt;Metamodel::Versioning</title>
<path fill="none" stroke="#6666ff" d="M975.54,-690.72C940.15,-629.18 826.91,-432.25 826.91,-432.25 826.91,-432.25 735.25,-236.97 700.99,-163.98"/>
<polygon fill="#6666ff" stroke="#6666ff" points="704.15,-162.48 696.74,-154.91 697.82,-165.45 704.15,-162.48"/>
</g>
<!-- Metamodel::ClassHOW&#45;&gt;Metamodel::Stashing -->
<g id="edge28" class="edge">
<title>Metamodel::ClassHOW&#45;&gt;Metamodel::Stashing</title>
<path fill="none" stroke="#6666ff" d="M969.38,-690.78C924.68,-642.07 801.72,-508.08 750.14,-451.87"/>
<polygon fill="#6666ff" stroke="#6666ff" points="752.7,-449.48 743.36,-444.47 747.54,-454.21 752.7,-449.48"/>
</g>
<!-- Metamodel::ClassHOW&#45;&gt;Metamodel::MultipleInheritance -->
<g id="edge35" class="edge">
<title>Metamodel::ClassHOW&#45;&gt;Metamodel::MultipleInheritance</title>
<path fill="none" stroke="#6666ff" d="M1013.53,-691.39C1094.58,-639.98 1332.19,-489.25 1423.78,-431.15"/>
<polygon fill="#6666ff" stroke="#6666ff" points="1425.86,-433.97 1432.43,-425.66 1422.11,-428.06 1425.86,-433.97"/>
</g>
<!-- Metamodel::ClassHOW&#45;&gt;Metamodel::C3MRO -->
<g id="edge37" class="edge">
<title>Metamodel::ClassHOW&#45;&gt;Metamodel::C3MRO</title>
<path fill="none" stroke="#6666ff" d="M975.54,-690.72C940.15,-629.18 826.91,-432.25 826.91,-432.25 826.91,-432.25 866.59,-189.63 880.32,-105.7"/>
<polygon fill="#6666ff" stroke="#6666ff" points="883.81,-106.05 881.97,-95.61 876.9,-104.92 883.81,-106.05"/>
</g>
<!-- Metamodel::ClassHOW&#45;&gt;Metamodel::MROBasedTypeChecking -->
<g id="edge39" class="edge">
<title>Metamodel::ClassHOW&#45;&gt;Metamodel::MROBasedTypeChecking</title>
<path fill="none" stroke="#6666ff" d="M986.35,-690.72C987.32,-643.64 989.9,-517.32 991.07,-460.58"/>
<polygon fill="#6666ff" stroke="#6666ff" points="994.57,-460.59 991.27,-450.52 987.57,-460.44 994.57,-460.59"/>
</g>
<!-- Metamodel::ClassHOW&#45;&gt;Metamodel::AttributeContainer -->
<g id="edge29" class="edge">
<title>Metamodel::ClassHOW&#45;&gt;Metamodel::AttributeContainer</title>
<path fill="none" stroke="#6666ff" d="M883.17,-710.85C776.8,-712.89 610,-716.1 491.86,-718.38"/>
<polygon fill="#6666ff" stroke="#6666ff" points="491.59,-714.88 481.65,-718.57 491.72,-721.88 491.59,-714.88"/>
</g>
<!-- Metamodel::ClassHOW&#45;&gt;Metamodel::MethodContainer -->
<g id="edge31" class="edge">
<title>Metamodel::ClassHOW&#45;&gt;Metamodel::MethodContainer</title>
<path fill="none" stroke="#6666ff" d="M992.16,-727.05C1017.31,-801.05 1110.64,-1075.6 1110.64,-1075.6 1110.64,-1075.6 1146.67,-1146.45 1167.13,-1186.68"/>
<polygon fill="#6666ff" stroke="#6666ff" points="1164.07,-1188.39 1171.73,-1195.72 1170.31,-1185.22 1164.07,-1188.39"/>
</g>
<!-- Metamodel::ClassHOW&#45;&gt;Metamodel::MultiMethodContainer -->
<g id="edge33" class="edge">
<title>Metamodel::ClassHOW&#45;&gt;Metamodel::MultiMethodContainer</title>
<path fill="none" stroke="#6666ff" d="M983.04,-726.88C970.27,-805.32 919.43,-1117.35 903.83,-1213.11"/>
<polygon fill="#6666ff" stroke="#6666ff" points="900.34,-1212.76 902.19,-1223.19 907.25,-1213.88 900.34,-1212.76"/>
</g>
<!-- Metamodel::ClassHOW&#45;&gt;Metamodel::RoleContainer -->
<g id="edge34" class="edge">
<title>Metamodel::ClassHOW&#45;&gt;Metamodel::RoleContainer</title>
<path fill="none" stroke="#6666ff" d="M973.07,-726.96C919.16,-802.54 711.82,-1093.23 648.06,-1182.63"/>
<polygon fill="#6666ff" stroke="#6666ff" points="645.13,-1180.7 642.17,-1190.87 650.83,-1184.77 645.13,-1180.7"/>
</g>
<!-- Metamodel::ClassHOW&#45;&gt;Metamodel::BUILDPLAN -->
<g id="edge41" class="edge">
<title>Metamodel::ClassHOW&#45;&gt;Metamodel::BUILDPLAN</title>
<path fill="none" stroke="#6666ff" d="M997.53,-726.81C1035.89,-786.41 1159.25,-978.05 1204.89,-1048.96"/>
<polygon fill="#6666ff" stroke="#6666ff" points="1202.2,-1051.24 1210.55,-1057.75 1208.08,-1047.45 1202.2,-1051.24"/>
</g>
<!-- Metamodel::ClassHOW&#45;&gt;Metamodel::BoolificationProtocol -->
<g id="edge43" class="edge">
<title>Metamodel::ClassHOW&#45;&gt;Metamodel::BoolificationProtocol</title>
<path fill="none" stroke="#6666ff" d="M968.74,-726.72C930.26,-766.59 840.69,-859.37 840.69,-859.37 840.69,-859.37 620.94,-1024.98 537.47,-1087.89"/>
<polygon fill="#6666ff" stroke="#6666ff" points="535.24,-1085.18 529.36,-1093.99 539.45,-1090.77 535.24,-1085.18"/>
</g>
<!-- Metamodel::ClassHOW&#45;&gt;Metamodel::Mixins -->
<g id="edge42" class="edge">
<title>Metamodel::ClassHOW&#45;&gt;Metamodel::Mixins</title>
<path fill="none" stroke="#6666ff" d="M939.46,-725.12C832.04,-762.65 567.19,-855.17 453.11,-895.02"/>
<polygon fill="#6666ff" stroke="#6666ff" points="451.82,-891.76 443.53,-898.37 454.13,-898.37 451.82,-891.76"/>
</g>
<!-- Metamodel::ClassHOW&#45;&gt;Metamodel::Finalization -->
<g id="edge30" class="edge">
<title>Metamodel::ClassHOW&#45;&gt;Metamodel::Finalization</title>
<path fill="none" stroke="#6666ff" d="M997.19,-690.85C1043.92,-615.73 1223.4,-327.25 1279.19,-237.59"/>
<polygon fill="#6666ff" stroke="#6666ff" points="1282.32,-239.18 1284.63,-228.84 1276.38,-235.48 1282.32,-239.18"/>
</g>
<!-- Metamodel::ClassHOW&#45;&gt;Metamodel::PrivateMethodContainer -->
<g id="edge32" class="edge">
<title>Metamodel::ClassHOW&#45;&gt;Metamodel::PrivateMethodContainer</title>
<path fill="none" stroke="#6666ff" d="M935.52,-693.16C808.76,-653.69 477.03,-550.4 336.69,-506.71"/>
<polygon fill="#6666ff" stroke="#6666ff" points="337.51,-503.3 326.92,-503.67 335.42,-509.98 337.51,-503.3"/>
</g>
<!-- Metamodel::ClassHOW&#45;&gt;Metamodel::DefaultParent -->
<g id="edge36" class="edge">
<title>Metamodel::ClassHOW&#45;&gt;Metamodel::DefaultParent</title>
<path fill="none" stroke="#6666ff" d="M1007.98,-726.68C1086.06,-789.89 1349.98,-1003.56 1439.1,-1075.7"/>
<polygon fill="#6666ff" stroke="#6666ff" points="1436.95,-1078.47 1446.92,-1082.04 1441.35,-1073.03 1436.95,-1078.47"/>
</g>
<!-- Metamodel::ClassHOW&#45;&gt;Metamodel::Trusting -->
<g id="edge40" class="edge">
<title>Metamodel::ClassHOW&#45;&gt;Metamodel::Trusting</title>
<path fill="none" stroke="#6666ff" d="M1033.25,-724.89C1137.15,-760.12 1384.99,-844.14 1496.16,-881.83"/>
<polygon fill="#6666ff" stroke="#6666ff" points="1495.25,-885.21 1505.85,-885.11 1497.5,-878.58 1495.25,-885.21"/>
</g>
</g>
</svg>
