<?xml version="1.0" encoding="UTF-8" standalone="no"?>
<!DOCTYPE svg PUBLIC "-//W3C//DTD SVG 1.1//EN"
 "http://www.w3.org/Graphics/SVG/1.1/DTD/svg11.dtd">
<!-- Generated by graphviz version 2.43.0 (0)
 -->
<!-- Title: perl6&#45;type&#45;graph Pages: 1 -->
<svg width="256pt" height="404pt"
 viewBox="0.00 0.00 256.28 404.00" xmlns="http://www.w3.org/2000/svg" xmlns:xlink="http://www.w3.org/1999/xlink">
<g id="graph0" class="graph" transform="scale(1 1) rotate(0) translate(4 400)">
<title>perl6&#45;type&#45;graph</title>
<polygon fill="#ffffff" stroke="transparent" points="-4,4 -4,-400 252.28,-400 252.28,4 -4,4"/>
<!-- X::Syntax::Regex::NullRegex -->
<g id="node1" class="node">
<title>X::Syntax::Regex::NullRegex</title>
<g id="a_node1"><a xlink:href="/type/X::Syntax::Regex::NullRegex" xlink:title="X::Syntax::Regex::NullRegex">
<ellipse fill="none" stroke="#000000" cx="124.14" cy="-18" rx="124.28" ry="18"/>
<text text-anchor="middle" x="124.14" y="-14.3" font-family="FreeSans" font-size="14.00" fill="#000000">X::Syntax::Regex::NullRegex</text>
</a>
</g>
</g>
<!-- Exception -->
<g id="node4" class="node">
<title>Exception</title>
<g id="a_node4"><a xlink:href="/type/Exception" xlink:title="Exception">
<ellipse fill="none" stroke="#000000" cx="124.14" cy="-234" rx="49.29" ry="18"/>
<text text-anchor="middle" x="124.14" y="-230.3" font-family="FreeSans" font-size="14.00" fill="#000000">Exception</text>
</a>
</g>
</g>
<!-- X::Syntax::Regex::NullRegex&#45;&gt;Exception -->
<g id="edge1" class="edge">
<title>X::Syntax::Regex::NullRegex&#45;&gt;Exception</title>
<path fill="none" stroke="#000000" d="M118.02,-36.06C112.47,-51.55 105.14,-72 105.14,-72 105.14,-72 105.14,-108 105.14,-108 105.14,-108 114.41,-169.01 120,-205.78"/>
<polygon fill="#000000" stroke="#000000" points="116.57,-206.52 121.54,-215.88 123.49,-205.47 116.57,-206.52"/>
</g>
<!-- X::Syntax -->
<g id="node6" class="node">
<title>X::Syntax</title>
<g id="a_node6"><a xlink:href="/type/X::Syntax" xlink:title="X::Syntax">
<ellipse fill="none" stroke="#6666ff" cx="162.14" cy="-90" rx="48.19" ry="18"/>
<text text-anchor="middle" x="162.14" y="-86.3" font-family="FreeSans" font-size="14.00" fill="#6666ff">X::Syntax</text>
</a>
</g>
</g>
<!-- X::Syntax::Regex::NullRegex&#45;&gt;X::Syntax -->
<g id="edge6" class="edge">
<title>X::Syntax::Regex::NullRegex&#45;&gt;X::Syntax</title>
<path fill="none" stroke="#6666ff" d="M133.53,-36.3C137.9,-44.36 143.2,-54.11 148.03,-63.02"/>
<polygon fill="#6666ff" stroke="#6666ff" points="145.01,-64.78 152.85,-71.9 151.16,-61.44 145.01,-64.78"/>
</g>
<!-- Mu -->
<g id="node2" class="node">
<title>Mu</title>
<g id="a_node2"><a xlink:href="/type/Mu" xlink:title="Mu">
<ellipse fill="none" stroke="#000000" cx="124.14" cy="-378" rx="27" ry="18"/>
<text text-anchor="middle" x="124.14" y="-374.3" font-family="FreeSans" font-size="14.00" fill="#000000">Mu</text>
</a>
</g>
</g>
<!-- Any -->
<g id="node3" class="node">
<title>Any</title>
<g id="a_node3"><a xlink:href="/type/Any" xlink:title="Any">
<ellipse fill="none" stroke="#000000" cx="124.14" cy="-306" rx="27" ry="18"/>
<text text-anchor="middle" x="124.14" y="-302.3" font-family="FreeSans" font-size="14.00" fill="#000000">Any</text>
</a>
</g>
</g>
<!-- Any&#45;&gt;Mu -->
<g id="edge2" class="edge">
<title>Any&#45;&gt;Mu</title>
<path fill="none" stroke="#000000" d="M124.14,-324.3C124.14,-332.02 124.14,-341.29 124.14,-349.89"/>
<polygon fill="#000000" stroke="#000000" points="120.64,-349.9 124.14,-359.9 127.64,-349.9 120.64,-349.9"/>
</g>
<!-- Exception&#45;&gt;Any -->
<g id="edge3" class="edge">
<title>Exception&#45;&gt;Any</title>
<path fill="none" stroke="#000000" d="M124.14,-252.3C124.14,-260.02 124.14,-269.29 124.14,-277.89"/>
<polygon fill="#000000" stroke="#000000" points="120.64,-277.9 124.14,-287.9 127.64,-277.9 120.64,-277.9"/>
</g>
<!-- X::Comp -->
<g id="node5" class="node">
<title>X::Comp</title>
<g id="a_node5"><a xlink:href="/type/X::Comp" xlink:title="X::Comp">
<ellipse fill="none" stroke="#6666ff" cx="197.14" cy="-162" rx="44.69" ry="18"/>
<text text-anchor="middle" x="197.14" y="-158.3" font-family="FreeSans" font-size="14.00" fill="#6666ff">X::Comp</text>
</a>
</g>
</g>
<!-- X::Comp&#45;&gt;Exception -->
<g id="edge4" class="edge">
<title>X::Comp&#45;&gt;Exception</title>
<path fill="none" stroke="#000000" d="M180.57,-178.88C171.03,-188.04 158.86,-199.71 148.27,-209.87"/>
<polygon fill="#000000" stroke="#000000" points="145.69,-207.49 140.89,-216.94 150.53,-212.54 145.69,-207.49"/>
</g>
<!-- X::Syntax&#45;&gt;Exception -->
<g id="edge5" class="edge">
<title>X::Syntax&#45;&gt;Exception</title>
<path fill="none" stroke="#000000" d="M156.02,-108.06C150.47,-123.55 143.14,-144 143.14,-144 143.14,-144 135.49,-179.83 129.9,-206.03"/>
<polygon fill="#000000" stroke="#000000" points="126.47,-205.33 127.8,-215.84 133.31,-206.79 126.47,-205.33"/>
</g>
<!-- X::Syntax&#45;&gt;X::Comp -->
<g id="edge7" class="edge">
<title>X::Syntax&#45;&gt;X::Comp</title>
<path fill="none" stroke="#6666ff" d="M170.61,-107.95C174.7,-116.11 179.68,-126.09 184.23,-135.18"/>
<polygon fill="#6666ff" stroke="#6666ff" points="181.14,-136.83 188.74,-144.21 187.4,-133.7 181.14,-136.83"/>
</g>
</g>
</svg>
