<?xml version="1.0" encoding="UTF-8" standalone="no"?>
<!DOCTYPE svg PUBLIC "-//W3C//DTD SVG 1.1//EN"
 "http://www.w3.org/Graphics/SVG/1.1/DTD/svg11.dtd">
<!-- Generated by graphviz version 2.43.0 (0)
 -->
<!-- Title: perl6&#45;type&#45;graph Pages: 1 -->
<svg width="2105pt" height="1600pt"
 viewBox="0.00 0.00 2105.33 1599.65" xmlns="http://www.w3.org/2000/svg" xmlns:xlink="http://www.w3.org/1999/xlink">
<g id="graph0" class="graph" transform="scale(1 1) rotate(0) translate(4 1595.65)">
<title>perl6&#45;type&#45;graph</title>
<polygon fill="white" stroke="transparent" points="-4,4 -4,-1595.65 2101.33,-1595.65 2101.33,4 -4,4"/>
<!-- Metamodel::MultipleInheritance -->
<g id="node1" class="node">
<title>Metamodel::MultipleInheritance</title>
<g id="a_node1"><a xlink:href="/type/Metamodel::MultipleInheritance" xlink:title="Metamodel::MultipleInheritance">
<ellipse fill="none" stroke="#6666ff" cx="936.1" cy="-1189.46" rx="133.78" ry="18"/>
<text text-anchor="middle" x="936.1" y="-1185.76" font-family="FreeSans" font-size="14.00" fill="#6666ff">Metamodel::MultipleInheritance</text>
</a>
</g>
</g>
<!-- Mu -->
<g id="node2" class="node">
<title>Mu</title>
<g id="a_node2"><a xlink:href="/type/Mu" xlink:title="Mu">
<ellipse fill="none" stroke="#000000" cx="1411.65" cy="-18" rx="27" ry="18"/>
<text text-anchor="middle" x="1411.65" y="-14.3" font-family="FreeSans" font-size="14.00" fill="#000000">Mu</text>
</a>
</g>
</g>
<!-- Any -->
<g id="node3" class="node">
<title>Any</title>
<g id="a_node3"><a xlink:href="/type/Any" xlink:title="Any">
<ellipse fill="none" stroke="#000000" cx="1176.46" cy="-534.46" rx="27" ry="18"/>
<text text-anchor="middle" x="1176.46" y="-530.76" font-family="FreeSans" font-size="14.00" fill="#000000">Any</text>
</a>
</g>
</g>
<!-- Any&#45;&gt;Mu -->
<g id="edge1" class="edge">
<title>Any&#45;&gt;Mu</title>
<path fill="none" stroke="#000000" d="M1184.42,-516.98C1219.14,-440.73 1357.49,-136.93 1399.49,-44.69"/>
<polygon fill="#000000" stroke="#000000" points="1402.73,-46.03 1403.69,-35.48 1396.36,-43.13 1402.73,-46.03"/>
</g>
<!-- Metamodel::Naming -->
<g id="node4" class="node">
<title>Metamodel::Naming</title>
<g id="a_node4"><a xlink:href="/type/Metamodel::Naming" xlink:title="Metamodel::Naming">
<ellipse fill="none" stroke="#6666ff" cx="1078" cy="-1038.05" rx="90.18" ry="18"/>
<text text-anchor="middle" x="1078" y="-1034.35" font-family="FreeSans" font-size="14.00" fill="#6666ff">Metamodel::Naming</text>
</a>
</g>
</g>
<!-- Metamodel::Documenting -->
<g id="node5" class="node">
<title>Metamodel::Documenting</title>
<g id="a_node5"><a xlink:href="/type/Metamodel::Documenting" xlink:title="Metamodel::Documenting">
<ellipse fill="none" stroke="#6666ff" cx="783.35" cy="-1348.08" rx="111.28" ry="18"/>
<text text-anchor="middle" x="783.35" y="-1344.38" font-family="FreeSans" font-size="14.00" fill="#6666ff">Metamodel::Documenting</text>
</a>
</g>
</g>
<!-- Metamodel::Versioning -->
<g id="node6" class="node">
<title>Metamodel::Versioning</title>
<g id="a_node6"><a xlink:href="/type/Metamodel::Versioning" xlink:title="Metamodel::Versioning">
<ellipse fill="none" stroke="#6666ff" cx="1057.57" cy="-1270.29" rx="100.98" ry="18"/>
<text text-anchor="middle" x="1057.57" y="-1266.59" font-family="FreeSans" font-size="14.00" fill="#6666ff">Metamodel::Versioning</text>
</a>
</g>
</g>
<!-- Metamodel::Stashing -->
<g id="node7" class="node">
<title>Metamodel::Stashing</title>
<g id="a_node7"><a xlink:href="/type/Metamodel::Stashing" xlink:title="Metamodel::Stashing">
<ellipse fill="none" stroke="#6666ff" cx="959.15" cy="-477.27" rx="93.68" ry="18"/>
<text text-anchor="middle" x="959.15" y="-473.57" font-family="FreeSans" font-size="14.00" fill="#6666ff">Metamodel::Stashing</text>
</a>
</g>
</g>
<!-- Metamodel::AttributeContainer -->
<g id="node8" class="node">
<title>Metamodel::AttributeContainer</title>
<g id="a_node8"><a xlink:href="/type/Metamodel::AttributeContainer" xlink:title="Metamodel::AttributeContainer">
<ellipse fill="none" stroke="#6666ff" cx="1423.82" cy="-694.99" rx="129.98" ry="18"/>
<text text-anchor="middle" x="1423.82" y="-691.29" font-family="FreeSans" font-size="14.00" fill="#6666ff">Metamodel::AttributeContainer</text>
</a>
</g>
</g>
<!-- Metamodel::Finalization -->
<g id="node9" class="node">
<title>Metamodel::Finalization</title>
<g id="a_node9"><a xlink:href="/type/Metamodel::Finalization" xlink:title="Metamodel::Finalization">
<ellipse fill="none" stroke="#6666ff" cx="251.94" cy="-527.28" rx="103.98" ry="18"/>
<text text-anchor="middle" x="251.94" y="-523.58" font-family="FreeSans" font-size="14.00" fill="#6666ff">Metamodel::Finalization</text>
</a>
</g>
</g>
<!-- Metamodel::MethodContainer -->
<g id="node10" class="node">
<title>Metamodel::MethodContainer</title>
<g id="a_node10"><a xlink:href="/type/Metamodel::MethodContainer" xlink:title="Metamodel::MethodContainer">
<ellipse fill="none" stroke="#6666ff" cx="1158.42" cy="-727.06" rx="127.28" ry="18"/>
<text text-anchor="middle" x="1158.42" y="-723.36" font-family="FreeSans" font-size="14.00" fill="#6666ff">Metamodel::MethodContainer</text>
</a>
</g>
</g>
<!-- Metamodel::PrivateMethodContainer -->
<g id="node11" class="node">
<title>Metamodel::PrivateMethodContainer</title>
<g id="a_node11"><a xlink:href="/type/Metamodel::PrivateMethodContainer" xlink:title="Metamodel::PrivateMethodContainer">
<ellipse fill="none" stroke="#6666ff" cx="1061.86" cy="-822.83" rx="154.87" ry="18"/>
<text text-anchor="middle" x="1061.86" y="-819.13" font-family="FreeSans" font-size="14.00" fill="#6666ff">Metamodel::PrivateMethodContainer</text>
</a>
</g>
</g>
<!-- Metamodel::MultiMethodContainer -->
<g id="node12" class="node">
<title>Metamodel::MultiMethodContainer</title>
<g id="a_node12"><a xlink:href="/type/Metamodel::MultiMethodContainer" xlink:title="Metamodel::MultiMethodContainer">
<ellipse fill="none" stroke="#6666ff" cx="1053.45" cy="-1513.03" rx="146.47" ry="18"/>
<text text-anchor="middle" x="1053.45" y="-1509.33" font-family="FreeSans" font-size="14.00" fill="#6666ff">Metamodel::MultiMethodContainer</text>
</a>
</g>
</g>
<!-- Metamodel::RoleContainer -->
<g id="node13" class="node">
<title>Metamodel::RoleContainer</title>
<g id="a_node13"><a xlink:href="/type/Metamodel::RoleContainer" xlink:title="Metamodel::RoleContainer">
<ellipse fill="none" stroke="#6666ff" cx="1205.79" cy="-1458.9" rx="115.88" ry="18"/>
<text text-anchor="middle" x="1205.79" y="-1455.2" font-family="FreeSans" font-size="14.00" fill="#6666ff">Metamodel::RoleContainer</text>
</a>
</g>
</g>
<!-- Metamodel::DefaultParent -->
<g id="node14" class="node">
<title>Metamodel::DefaultParent</title>
<g id="a_node14"><a xlink:href="/type/Metamodel::DefaultParent" xlink:title="Metamodel::DefaultParent">
<ellipse fill="none" stroke="#6666ff" cx="486.03" cy="-1573.65" rx="113.18" ry="18"/>
<text text-anchor="middle" x="486.03" y="-1569.95" font-family="FreeSans" font-size="14.00" fill="#6666ff">Metamodel::DefaultParent</text>
</a>
</g>
</g>
<!-- Metamodel::C3MRO -->
<g id="node15" class="node">
<title>Metamodel::C3MRO</title>
<g id="a_node15"><a xlink:href="/type/Metamodel::C3MRO" xlink:title="Metamodel::C3MRO">
<ellipse fill="none" stroke="#6666ff" cx="301.66" cy="-985.65" rx="92.08" ry="18"/>
<text text-anchor="middle" x="301.66" y="-981.95" font-family="FreeSans" font-size="14.00" fill="#6666ff">Metamodel::C3MRO</text>
</a>
</g>
</g>
<!-- Metamodel::MROBasedMethodDispatch -->
<g id="node16" class="node">
<title>Metamodel::MROBasedMethodDispatch</title>
<g id="a_node16"><a xlink:href="/type/Metamodel::MROBasedMethodDispatch" xlink:title="Metamodel::MROBasedMethodDispatch">
<ellipse fill="none" stroke="#6666ff" cx="438.19" cy="-442.89" rx="169.77" ry="18"/>
<text text-anchor="middle" x="438.19" y="-439.19" font-family="FreeSans" font-size="14.00" fill="#6666ff">Metamodel::MROBasedMethodDispatch</text>
</a>
</g>
</g>
<!-- Metamodel::MROBasedTypeChecking -->
<g id="node17" class="node">
<title>Metamodel::MROBasedTypeChecking</title>
<g id="a_node17"><a xlink:href="/type/Metamodel::MROBasedTypeChecking" xlink:title="Metamodel::MROBasedTypeChecking">
<ellipse fill="none" stroke="#6666ff" cx="599.74" cy="-331.19" rx="163.27" ry="18"/>
<text text-anchor="middle" x="599.74" y="-327.49" font-family="FreeSans" font-size="14.00" fill="#6666ff">Metamodel::MROBasedTypeChecking</text>
</a>
</g>
</g>
<!-- Metamodel::Trusting -->
<g id="node18" class="node">
<title>Metamodel::Trusting</title>
<g id="a_node18"><a xlink:href="/type/Metamodel::Trusting" xlink:title="Metamodel::Trusting">
<ellipse fill="none" stroke="#6666ff" cx="172.31" cy="-1255.52" rx="91.78" ry="18"/>
<text text-anchor="middle" x="172.31" y="-1251.82" font-family="FreeSans" font-size="14.00" fill="#6666ff">Metamodel::Trusting</text>
</a>
</g>
</g>
<!-- Metamodel::BUILDPLAN -->
<g id="node19" class="node">
<title>Metamodel::BUILDPLAN</title>
<g id="a_node19"><a xlink:href="/type/Metamodel::BUILDPLAN" xlink:title="Metamodel::BUILDPLAN">
<ellipse fill="none" stroke="#6666ff" cx="155.67" cy="-724.06" rx="109.68" ry="18"/>
<text text-anchor="middle" x="155.67" y="-720.36" font-family="FreeSans" font-size="14.00" fill="#6666ff">Metamodel::BUILDPLAN</text>
</a>
</g>
</g>
<!-- Metamodel::Mixins -->
<g id="node20" class="node">
<title>Metamodel::Mixins</title>
<g id="a_node20"><a xlink:href="/type/Metamodel::Mixins" xlink:title="Metamodel::Mixins">
<ellipse fill="none" stroke="#6666ff" cx="85.14" cy="-974.41" rx="85.29" ry="18"/>
<text text-anchor="middle" x="85.14" y="-970.71" font-family="FreeSans" font-size="14.00" fill="#6666ff">Metamodel::Mixins</text>
</a>
</g>
</g>
<!-- Metamodel::BoolificationProtocol -->
<g id="node21" class="node">
<title>Metamodel::BoolificationProtocol</title>
<g id="a_node21"><a xlink:href="/type/Metamodel::BoolificationProtocol" xlink:title="Metamodel::BoolificationProtocol">
<ellipse fill="none" stroke="#6666ff" cx="313.26" cy="-1429.95" rx="139.18" ry="18"/>
<text text-anchor="middle" x="313.26" y="-1426.25" font-family="FreeSans" font-size="14.00" fill="#6666ff">Metamodel::BoolificationProtocol</text>
</a>
</g>
</g>
<!-- Metamodel::ClassHOW -->
<g id="node22" class="node">
<title>Metamodel::ClassHOW</title>
<g id="a_node22"><a xlink:href="/type/Metamodel::ClassHOW" xlink:title="Metamodel::ClassHOW">
<ellipse fill="none" stroke="#000000" cx="681.95" cy="-949.7" rx="103.18" ry="18"/>
<text text-anchor="middle" x="681.95" y="-946" font-family="FreeSans" font-size="14.00" fill="#000000">Metamodel::ClassHOW</text>
</a>
</g>
</g>
<!-- Metamodel::ClassHOW&#45;&gt;Metamodel::MultipleInheritance -->
<g id="edge16" class="edge">
<title>Metamodel::ClassHOW&#45;&gt;Metamodel::MultipleInheritance</title>
<path fill="none" stroke="#6666ff" d="M701.06,-967.72C745.96,-1010.09 858.33,-1116.09 909.71,-1164.56"/>
<polygon fill="#6666ff" stroke="#6666ff" points="907.45,-1167.24 917.12,-1171.56 912.25,-1162.15 907.45,-1167.24"/>
</g>
<!-- Metamodel::ClassHOW&#45;&gt;Any -->
<g id="edge2" class="edge">
<title>Metamodel::ClassHOW&#45;&gt;Any</title>
<path fill="none" stroke="#000000" d="M703.2,-931.86C783.17,-864.7 1065.85,-627.33 1151.61,-555.32"/>
<polygon fill="#000000" stroke="#000000" points="1154.1,-557.8 1159.51,-548.69 1149.6,-552.44 1154.1,-557.8"/>
</g>
<!-- Metamodel::ClassHOW&#45;&gt;Metamodel::Naming -->
<g id="edge6" class="edge">
<title>Metamodel::ClassHOW&#45;&gt;Metamodel::Naming</title>
<path fill="none" stroke="#6666ff" d="M745.58,-963.9C817.21,-979.88 933.27,-1005.77 1007.57,-1022.34"/>
<polygon fill="#6666ff" stroke="#6666ff" points="1007.25,-1025.86 1017.77,-1024.62 1008.77,-1019.02 1007.25,-1025.86"/>
</g>
<!-- Metamodel::ClassHOW&#45;&gt;Metamodel::Documenting -->
<g id="edge7" class="edge">
<title>Metamodel::ClassHOW&#45;&gt;Metamodel::Documenting</title>
<path fill="none" stroke="#6666ff" d="M686.57,-967.85C702.71,-1031.24 756.61,-1243.03 776.18,-1319.9"/>
<polygon fill="#6666ff" stroke="#6666ff" points="772.84,-1320.99 778.7,-1329.82 779.63,-1319.27 772.84,-1320.99"/>
</g>
<!-- Metamodel::ClassHOW&#45;&gt;Metamodel::Versioning -->
<g id="edge8" class="edge">
<title>Metamodel::ClassHOW&#45;&gt;Metamodel::Versioning</title>
<path fill="none" stroke="#6666ff" d="M690.87,-967.72C718.47,-1023.46 800.61,-1189.39 800.61,-1189.39 800.61,-1189.39 839.94,-1203.27 839.94,-1203.27 839.94,-1203.27 932.74,-1231.85 997.14,-1251.68"/>
<polygon fill="#6666ff" stroke="#6666ff" points="996.23,-1255.07 1006.82,-1254.66 998.29,-1248.38 996.23,-1255.07"/>
</g>
<!-- Metamodel::ClassHOW&#45;&gt;Metamodel::Stashing -->
<g id="edge9" class="edge">
<title>Metamodel::ClassHOW&#45;&gt;Metamodel::Stashing</title>
<path fill="none" stroke="#6666ff" d="M696.15,-931.7C737,-879.91 851.91,-734.21 851.91,-734.21 851.91,-734.21 920.02,-571.01 947.68,-504.74"/>
<polygon fill="#6666ff" stroke="#6666ff" points="950.99,-505.92 951.61,-495.34 944.53,-503.22 950.99,-505.92"/>
</g>
<!-- Metamodel::ClassHOW&#45;&gt;Metamodel::AttributeContainer -->
<g id="edge10" class="edge">
<title>Metamodel::ClassHOW&#45;&gt;Metamodel::AttributeContainer</title>
<path fill="none" stroke="#6666ff" d="M712.58,-932.32C773.82,-897.56 905.57,-822.79 905.57,-822.79 905.57,-822.79 951.57,-808.94 951.57,-808.94 951.57,-808.94 1249.16,-740.99 1249.16,-740.99 1249.16,-740.99 1304.84,-726.32 1353.33,-713.56"/>
<polygon fill="#6666ff" stroke="#6666ff" points="1354.45,-716.88 1363.23,-710.95 1352.66,-710.11 1354.45,-716.88"/>
</g>
<!-- Metamodel::ClassHOW&#45;&gt;Metamodel::Finalization -->
<g id="edge11" class="edge">
<title>Metamodel::ClassHOW&#45;&gt;Metamodel::Finalization</title>
<path fill="none" stroke="#6666ff" d="M663.75,-931.82C595.77,-865.04 356.6,-630.09 277.53,-552.42"/>
<polygon fill="#6666ff" stroke="#6666ff" points="279.98,-549.92 270.39,-545.4 275.07,-554.91 279.98,-549.92"/>
</g>
<!-- Metamodel::ClassHOW&#45;&gt;Metamodel::MethodContainer -->
<g id="edge12" class="edge">
<title>Metamodel::ClassHOW&#45;&gt;Metamodel::MethodContainer</title>
<path fill="none" stroke="#6666ff" d="M712.58,-932.32C773.82,-897.56 905.57,-822.79 905.57,-822.79 905.57,-822.79 1029.8,-775.75 1104.11,-747.62"/>
<polygon fill="#6666ff" stroke="#6666ff" points="1105.68,-750.77 1113.8,-743.95 1103.21,-744.22 1105.68,-750.77"/>
</g>
<!-- Metamodel::ClassHOW&#45;&gt;Metamodel::PrivateMethodContainer -->
<g id="edge13" class="edge">
<title>Metamodel::ClassHOW&#45;&gt;Metamodel::PrivateMethodContainer</title>
<path fill="none" stroke="#6666ff" d="M730.07,-933.63C798.95,-910.63 925.66,-868.31 1000.98,-843.16"/>
<polygon fill="#6666ff" stroke="#6666ff" points="1002.43,-846.36 1010.81,-839.88 1000.21,-839.73 1002.43,-846.36"/>
</g>
<!-- Metamodel::ClassHOW&#45;&gt;Metamodel::MultiMethodContainer -->
<g id="edge14" class="edge">
<title>Metamodel::ClassHOW&#45;&gt;Metamodel::MultiMethodContainer</title>
<path fill="none" stroke="#6666ff" d="M690.87,-967.72C718.47,-1023.46 800.61,-1189.39 800.61,-1189.39 800.61,-1189.39 972.17,-1408.99 1032.65,-1486.41"/>
<polygon fill="#6666ff" stroke="#6666ff" points="1030.22,-1488.98 1039.14,-1494.7 1035.74,-1484.67 1030.22,-1488.98"/>
</g>
<!-- Metamodel::ClassHOW&#45;&gt;Metamodel::RoleContainer -->
<g id="edge15" class="edge">
<title>Metamodel::ClassHOW&#45;&gt;Metamodel::RoleContainer</title>
<path fill="none" stroke="#6666ff" d="M690.87,-967.72C718.47,-1023.46 800.61,-1189.39 800.61,-1189.39 800.61,-1189.39 1072.41,-1370.18 1170.78,-1435.62"/>
<polygon fill="#6666ff" stroke="#6666ff" points="1168.94,-1438.59 1179.2,-1441.22 1172.82,-1432.77 1168.94,-1438.59"/>
</g>
<!-- Metamodel::ClassHOW&#45;&gt;Metamodel::DefaultParent -->
<g id="edge17" class="edge">
<title>Metamodel::ClassHOW&#45;&gt;Metamodel::DefaultParent</title>
<path fill="none" stroke="#6666ff" d="M676.3,-967.7C648.73,-1055.49 528.36,-1438.83 494.77,-1545.83"/>
<polygon fill="#6666ff" stroke="#6666ff" points="491.36,-1544.99 491.71,-1555.58 498.04,-1547.08 491.36,-1544.99"/>
</g>
<!-- Metamodel::ClassHOW&#45;&gt;Metamodel::C3MRO -->
<g id="edge18" class="edge">
<title>Metamodel::ClassHOW&#45;&gt;Metamodel::C3MRO</title>
<path fill="none" stroke="#6666ff" d="M590.86,-958.31C531.66,-963.91 454.69,-971.18 395.04,-976.82"/>
<polygon fill="#6666ff" stroke="#6666ff" points="394.49,-973.36 384.86,-977.78 395.15,-980.33 394.49,-973.36"/>
</g>
<!-- Metamodel::ClassHOW&#45;&gt;Metamodel::MROBasedMethodDispatch -->
<g id="edge19" class="edge">
<title>Metamodel::ClassHOW&#45;&gt;Metamodel::MROBasedMethodDispatch</title>
<path fill="none" stroke="#6666ff" d="M673.28,-931.66C636.74,-855.7 495.25,-561.53 451.3,-470.14"/>
<polygon fill="#6666ff" stroke="#6666ff" points="454.38,-468.47 446.89,-460.98 448.07,-471.5 454.38,-468.47"/>
</g>
<!-- Metamodel::ClassHOW&#45;&gt;Metamodel::MROBasedTypeChecking -->
<g id="edge20" class="edge">
<title>Metamodel::ClassHOW&#45;&gt;Metamodel::MROBasedTypeChecking</title>
<path fill="none" stroke="#6666ff" d="M678.07,-931.69C666.92,-879.87 635.53,-734.1 635.53,-734.1 635.53,-734.1 610.4,-451.16 602.25,-359.49"/>
<polygon fill="#6666ff" stroke="#6666ff" points="605.72,-358.94 601.35,-349.29 598.75,-359.56 605.72,-358.94"/>
</g>
<!-- Metamodel::ClassHOW&#45;&gt;Metamodel::Trusting -->
<g id="edge21" class="edge">
<title>Metamodel::ClassHOW&#45;&gt;Metamodel::Trusting</title>
<path fill="none" stroke="#6666ff" d="M653.09,-967.02C566.1,-1019.22 306.5,-1175 209.45,-1233.23"/>
<polygon fill="#6666ff" stroke="#6666ff" points="207.62,-1230.25 200.85,-1238.4 211.23,-1236.25 207.62,-1230.25"/>
</g>
<!-- Metamodel::ClassHOW&#45;&gt;Metamodel::BUILDPLAN -->
<g id="edge22" class="edge">
<title>Metamodel::ClassHOW&#45;&gt;Metamodel::BUILDPLAN</title>
<path fill="none" stroke="#6666ff" d="M642.83,-932.92C548.34,-892.42 307.91,-789.33 204.34,-744.93"/>
<polygon fill="#6666ff" stroke="#6666ff" points="205.62,-741.67 195.05,-740.94 202.86,-748.1 205.62,-741.67"/>
</g>
<!-- Metamodel::ClassHOW&#45;&gt;Metamodel::Mixins -->
<g id="edge23" class="edge">
<title>Metamodel::ClassHOW&#45;&gt;Metamodel::Mixins</title>
<path fill="none" stroke="#6666ff" d="M581.39,-953.86C468.96,-958.52 288.34,-965.99 178.8,-970.53"/>
<polygon fill="#6666ff" stroke="#6666ff" points="178.6,-967.03 168.75,-970.95 178.89,-974.03 178.6,-967.03"/>
</g>
<!-- Metamodel::ClassHOW&#45;&gt;Metamodel::BoolificationProtocol -->
<g id="edge24" class="edge">
<title>Metamodel::ClassHOW&#45;&gt;Metamodel::BoolificationProtocol</title>
<path fill="none" stroke="#6666ff" d="M668.17,-967.65C611.94,-1040.9 399.66,-1317.41 333.25,-1403.92"/>
<polygon fill="#6666ff" stroke="#6666ff" points="330.42,-1401.85 327.11,-1411.91 335.97,-1406.11 330.42,-1401.85"/>
</g>
<!-- Metamodel::TypePretense -->
<g id="node23" class="node">
<title>Metamodel::TypePretense</title>
<g id="a_node23"><a xlink:href="/type/Metamodel::TypePretense" xlink:title="Metamodel::TypePretense">
<ellipse fill="none" stroke="#6666ff" cx="1900.12" cy="-1373.64" rx="114.28" ry="18"/>
<text text-anchor="middle" x="1900.12" y="-1369.94" font-family="FreeSans" font-size="14.00" fill="#6666ff">Metamodel::TypePretense</text>
</a>
</g>
</g>
<!-- Metamodel::RolePunning -->
<g id="node24" class="node">
<title>Metamodel::RolePunning</title>
<g id="a_node24"><a xlink:href="/type/Metamodel::RolePunning" xlink:title="Metamodel::RolePunning">
<ellipse fill="none" stroke="#6666ff" cx="1987.49" cy="-914.9" rx="109.68" ry="18"/>
<text text-anchor="middle" x="1987.49" y="-911.2" font-family="FreeSans" font-size="14.00" fill="#6666ff">Metamodel::RolePunning</text>
</a>
</g>
</g>
<!-- Metamodel::ParametricRoleHOW -->
<g id="node25" class="node">
<title>Metamodel::ParametricRoleHOW</title>
<g id="a_node25"><a xlink:href="/type/Metamodel::ParametricRoleHOW" xlink:title="Metamodel::ParametricRoleHOW">
<ellipse fill="none" stroke="#000000" cx="1430.7" cy="-1040.63" rx="141.88" ry="18"/>
<text text-anchor="middle" x="1430.7" y="-1036.93" font-family="FreeSans" font-size="14.00" fill="#000000">Metamodel::ParametricRoleHOW</text>
</a>
</g>
</g>
<!-- Metamodel::ParametricRoleHOW&#45;&gt;Metamodel::MultipleInheritance -->
<g id="edge33" class="edge">
<title>Metamodel::ParametricRoleHOW&#45;&gt;Metamodel::MultipleInheritance</title>
<path fill="none" stroke="#6666ff" d="M1375.4,-1057.27C1283.28,-1084.99 1098.86,-1140.49 1000.83,-1169.98"/>
<polygon fill="#6666ff" stroke="#6666ff" points="999.61,-1166.7 991.04,-1172.93 1001.63,-1173.4 999.61,-1166.7"/>
</g>
<!-- Metamodel::ParametricRoleHOW&#45;&gt;Any -->
<g id="edge3" class="edge">
<title>Metamodel::ParametricRoleHOW&#45;&gt;Any</title>
<path fill="none" stroke="#000000" d="M1422.37,-1022.42C1391.79,-955.52 1287.41,-727.16 1287.41,-727.16 1287.41,-727.16 1221.6,-612.86 1191.35,-560.32"/>
<polygon fill="#000000" stroke="#000000" points="1194.33,-558.48 1186.31,-551.56 1188.26,-561.97 1194.33,-558.48"/>
</g>
<!-- Metamodel::ParametricRoleHOW&#45;&gt;Metamodel::Naming -->
<g id="edge25" class="edge">
<title>Metamodel::ParametricRoleHOW&#45;&gt;Metamodel::Naming</title>
<path fill="none" stroke="#6666ff" d="M1289.02,-1039.59C1251.97,-1039.32 1212.81,-1039.04 1178.4,-1038.79"/>
<polygon fill="#6666ff" stroke="#6666ff" points="1178.39,-1035.29 1168.36,-1038.71 1178.34,-1042.29 1178.39,-1035.29"/>
</g>
<!-- Metamodel::ParametricRoleHOW&#45;&gt;Metamodel::Documenting -->
<g id="edge26" class="edge">
<title>Metamodel::ParametricRoleHOW&#45;&gt;Metamodel::Documenting</title>
<path fill="none" stroke="#6666ff" d="M1394.04,-1058.04C1282.99,-1110.78 950.47,-1268.71 828.69,-1326.55"/>
<polygon fill="#6666ff" stroke="#6666ff" points="827.14,-1323.41 819.61,-1330.86 830.14,-1329.73 827.14,-1323.41"/>
</g>
<!-- Metamodel::ParametricRoleHOW&#45;&gt;Metamodel::Versioning -->
<g id="edge27" class="edge">
<title>Metamodel::ParametricRoleHOW&#45;&gt;Metamodel::Versioning</title>
<path fill="none" stroke="#6666ff" d="M1402.04,-1058.27C1335.13,-1099.45 1168.71,-1201.89 1094.41,-1247.62"/>
<polygon fill="#6666ff" stroke="#6666ff" points="1092.5,-1244.69 1085.82,-1252.91 1096.17,-1250.65 1092.5,-1244.69"/>
</g>
<!-- Metamodel::ParametricRoleHOW&#45;&gt;Metamodel::Stashing -->
<g id="edge34" class="edge">
<title>Metamodel::ParametricRoleHOW&#45;&gt;Metamodel::Stashing</title>
<path fill="none" stroke="#6666ff" d="M1422.37,-1022.42C1391.79,-955.52 1287.41,-727.16 1287.41,-727.16 1287.41,-727.16 1072.87,-563.84 990.67,-501.27"/>
<polygon fill="#6666ff" stroke="#6666ff" points="992.31,-498.12 982.23,-494.84 988.07,-503.69 992.31,-498.12"/>
</g>
<!-- Metamodel::ParametricRoleHOW&#45;&gt;Metamodel::AttributeContainer -->
<g id="edge31" class="edge">
<title>Metamodel::ParametricRoleHOW&#45;&gt;Metamodel::AttributeContainer</title>
<path fill="none" stroke="#6666ff" d="M1430.34,-1022.53C1429.21,-965.97 1425.76,-792.19 1424.39,-723.43"/>
<polygon fill="#6666ff" stroke="#6666ff" points="1427.89,-723.25 1424.19,-713.33 1420.89,-723.39 1427.89,-723.25"/>
</g>
<!-- Metamodel::ParametricRoleHOW&#45;&gt;Metamodel::MethodContainer -->
<g id="edge28" class="edge">
<title>Metamodel::ParametricRoleHOW&#45;&gt;Metamodel::MethodContainer</title>
<path fill="none" stroke="#6666ff" d="M1414.88,-1022.41C1368.72,-969.25 1234.05,-814.16 1180.63,-752.64"/>
<polygon fill="#6666ff" stroke="#6666ff" points="1183.14,-750.19 1173.94,-744.93 1177.85,-754.78 1183.14,-750.19"/>
</g>
<!-- Metamodel::ParametricRoleHOW&#45;&gt;Metamodel::PrivateMethodContainer -->
<g id="edge29" class="edge">
<title>Metamodel::ParametricRoleHOW&#45;&gt;Metamodel::PrivateMethodContainer</title>
<path fill="none" stroke="#6666ff" d="M1400.82,-1022.99C1334.55,-983.85 1175.19,-889.75 1101.04,-845.97"/>
<polygon fill="#6666ff" stroke="#6666ff" points="1102.4,-842.7 1092.01,-840.63 1098.84,-848.73 1102.4,-842.7"/>
</g>
<!-- Metamodel::ParametricRoleHOW&#45;&gt;Metamodel::MultiMethodContainer -->
<g id="edge30" class="edge">
<title>Metamodel::ParametricRoleHOW&#45;&gt;Metamodel::MultiMethodContainer</title>
<path fill="none" stroke="#6666ff" d="M1412.75,-1058.78C1385.11,-1086.73 1335.29,-1137.13 1335.29,-1137.13 1335.29,-1137.13 1088.5,-1458.85 1088.5,-1458.85 1088.5,-1458.85 1079.46,-1472.82 1070.56,-1486.58"/>
<polygon fill="#6666ff" stroke="#6666ff" points="1067.62,-1484.69 1065.12,-1494.99 1073.49,-1488.49 1067.62,-1484.69"/>
</g>
<!-- Metamodel::ParametricRoleHOW&#45;&gt;Metamodel::RoleContainer -->
<g id="edge32" class="edge">
<title>Metamodel::ParametricRoleHOW&#45;&gt;Metamodel::RoleContainer</title>
<path fill="none" stroke="#6666ff" d="M1412.75,-1058.78C1385.11,-1086.73 1335.29,-1137.13 1335.29,-1137.13 1335.29,-1137.13 1248.49,-1352.81 1217.01,-1431.01"/>
<polygon fill="#6666ff" stroke="#6666ff" points="1213.61,-1430.1 1213.12,-1440.68 1220.1,-1432.71 1213.61,-1430.1"/>
</g>
<!-- Metamodel::ParametricRoleHOW&#45;&gt;Metamodel::TypePretense -->
<g id="edge35" class="edge">
<title>Metamodel::ParametricRoleHOW&#45;&gt;Metamodel::TypePretense</title>
<path fill="none" stroke="#6666ff" d="M1463.37,-1058.37C1514.81,-1086.29 1608.86,-1137.36 1608.86,-1137.36 1608.86,-1137.36 1795.81,-1289.01 1870.15,-1349.32"/>
<polygon fill="#6666ff" stroke="#6666ff" points="1868.26,-1352.29 1878.23,-1355.88 1872.67,-1346.86 1868.26,-1352.29"/>
</g>
<!-- Metamodel::ParametricRoleHOW&#45;&gt;Metamodel::RolePunning -->
<g id="edge36" class="edge">
<title>Metamodel::ParametricRoleHOW&#45;&gt;Metamodel::RolePunning</title>
<path fill="none" stroke="#6666ff" d="M1500.37,-1024.9C1605.77,-1001.09 1804.91,-956.13 1913.06,-931.71"/>
<polygon fill="#6666ff" stroke="#6666ff" points="1913.94,-935.1 1922.92,-929.48 1912.39,-928.27 1913.94,-935.1"/>
</g>
<!-- Metamodel::ConcreteRoleHOW -->
<g id="node26" class="node">
<title>Metamodel::ConcreteRoleHOW</title>
<g id="a_node26"><a xlink:href="/type/Metamodel::ConcreteRoleHOW" xlink:title="Metamodel::ConcreteRoleHOW">
<ellipse fill="none" stroke="#000000" cx="1472.07" cy="-1137.25" rx="135.38" ry="18"/>
<text text-anchor="middle" x="1472.07" y="-1133.55" font-family="FreeSans" font-size="14.00" fill="#000000">Metamodel::ConcreteRoleHOW</text>
</a>
</g>
</g>
<!-- Metamodel::ConcreteRoleHOW&#45;&gt;Metamodel::MultipleInheritance -->
<g id="edge44" class="edge">
<title>Metamodel::ConcreteRoleHOW&#45;&gt;Metamodel::MultipleInheritance</title>
<path fill="none" stroke="#6666ff" d="M1362.96,-1147.87C1273.43,-1156.6 1146.86,-1168.93 1054.8,-1177.9"/>
<polygon fill="#6666ff" stroke="#6666ff" points="1054.21,-1174.44 1044.6,-1178.89 1054.89,-1181.41 1054.21,-1174.44"/>
</g>
<!-- Metamodel::ConcreteRoleHOW&#45;&gt;Any -->
<g id="edge4" class="edge">
<title>Metamodel::ConcreteRoleHOW&#45;&gt;Any</title>
<path fill="none" stroke="#000000" d="M1438.63,-1119.75C1385.42,-1091.9 1287.41,-1040.61 1287.41,-1040.61 1287.41,-1040.61 1287.41,-727.16 1287.41,-727.16 1287.41,-727.16 1221.6,-612.86 1191.35,-560.32"/>
<polygon fill="#000000" stroke="#000000" points="1194.33,-558.48 1186.31,-551.56 1188.26,-561.97 1194.33,-558.48"/>
</g>
<!-- Metamodel::ConcreteRoleHOW&#45;&gt;Metamodel::Naming -->
<g id="edge37" class="edge">
<title>Metamodel::ConcreteRoleHOW&#45;&gt;Metamodel::Naming</title>
<path fill="none" stroke="#6666ff" d="M1408.76,-1121.31C1336.24,-1103.05 1217.96,-1073.28 1144.23,-1054.73"/>
<polygon fill="#6666ff" stroke="#6666ff" points="1144.69,-1051.23 1134.14,-1052.18 1142.98,-1058.02 1144.69,-1051.23"/>
</g>
<!-- Metamodel::ConcreteRoleHOW&#45;&gt;Metamodel::Versioning -->
<g id="edge38" class="edge">
<title>Metamodel::ConcreteRoleHOW&#45;&gt;Metamodel::Versioning</title>
<path fill="none" stroke="#6666ff" d="M1420,-1153.96C1342.58,-1178.81 1197.59,-1225.35 1116.43,-1251.4"/>
<polygon fill="#6666ff" stroke="#6666ff" points="1115.31,-1248.09 1106.86,-1254.47 1117.45,-1254.75 1115.31,-1248.09"/>
</g>
<!-- Metamodel::ConcreteRoleHOW&#45;&gt;Metamodel::AttributeContainer -->
<g id="edge42" class="edge">
<title>Metamodel::ConcreteRoleHOW&#45;&gt;Metamodel::AttributeContainer</title>
<path fill="none" stroke="#6666ff" d="M1491.24,-1119.08C1520.76,-1091.09 1573.98,-1040.64 1573.98,-1040.64 1573.98,-1040.64 1471.32,-804.33 1435.77,-722.5"/>
<polygon fill="#6666ff" stroke="#6666ff" points="1438.88,-720.87 1431.69,-713.09 1432.46,-723.66 1438.88,-720.87"/>
</g>
<!-- Metamodel::ConcreteRoleHOW&#45;&gt;Metamodel::MethodContainer -->
<g id="edge40" class="edge">
<title>Metamodel::ConcreteRoleHOW&#45;&gt;Metamodel::MethodContainer</title>
<path fill="none" stroke="#6666ff" d="M1438.63,-1119.75C1385.42,-1091.9 1287.41,-1040.61 1287.41,-1040.61 1287.41,-1040.61 1218.14,-822.87 1218.14,-822.87 1218.14,-822.87 1192.75,-782.13 1175.08,-753.78"/>
<polygon fill="#6666ff" stroke="#6666ff" points="1177.91,-751.71 1169.65,-745.08 1171.97,-755.42 1177.91,-751.71"/>
</g>
<!-- Metamodel::ConcreteRoleHOW&#45;&gt;Metamodel::PrivateMethodContainer -->
<g id="edge39" class="edge">
<title>Metamodel::ConcreteRoleHOW&#45;&gt;Metamodel::PrivateMethodContainer</title>
<path fill="none" stroke="#6666ff" d="M1438.63,-1119.75C1385.42,-1091.9 1287.41,-1040.61 1287.41,-1040.61 1287.41,-1040.61 1147.73,-905.75 1088.21,-848.28"/>
<polygon fill="#6666ff" stroke="#6666ff" points="1090.33,-845.45 1080.7,-841.02 1085.46,-850.49 1090.33,-845.45"/>
</g>
<!-- Metamodel::ConcreteRoleHOW&#45;&gt;Metamodel::MultiMethodContainer -->
<g id="edge41" class="edge">
<title>Metamodel::ConcreteRoleHOW&#45;&gt;Metamodel::MultiMethodContainer</title>
<path fill="none" stroke="#6666ff" d="M1450.63,-1155.22C1369.85,-1222.95 1088.5,-1458.85 1088.5,-1458.85 1088.5,-1458.85 1079.46,-1472.82 1070.56,-1486.58"/>
<polygon fill="#6666ff" stroke="#6666ff" points="1067.62,-1484.69 1065.12,-1494.99 1073.49,-1488.49 1067.62,-1484.69"/>
</g>
<!-- Metamodel::ConcreteRoleHOW&#45;&gt;Metamodel::RoleContainer -->
<g id="edge43" class="edge">
<title>Metamodel::ConcreteRoleHOW&#45;&gt;Metamodel::RoleContainer</title>
<path fill="none" stroke="#6666ff" d="M1456.99,-1155.46C1412.14,-1209.64 1279.44,-1369.94 1227.23,-1433"/>
<polygon fill="#6666ff" stroke="#6666ff" points="1224.38,-1430.95 1220.7,-1440.89 1229.78,-1435.42 1224.38,-1430.95"/>
</g>
<!-- Metamodel::NativeHOW -->
<g id="node27" class="node">
<title>Metamodel::NativeHOW</title>
<g id="a_node27"><a xlink:href="/type/Metamodel::NativeHOW" xlink:title="Metamodel::NativeHOW">
<ellipse fill="none" stroke="#000000" cx="743.72" cy="-734.15" rx="106.68" ry="18"/>
<text text-anchor="middle" x="743.72" y="-730.45" font-family="FreeSans" font-size="14.00" fill="#000000">Metamodel::NativeHOW</text>
</a>
</g>
</g>
<!-- Metamodel::NativeHOW&#45;&gt;Metamodel::MultipleInheritance -->
<g id="edge49" class="edge">
<title>Metamodel::NativeHOW&#45;&gt;Metamodel::MultipleInheritance</title>
<path fill="none" stroke="#6666ff" d="M751.38,-752.28C781.06,-822.53 888.62,-1077.08 924.42,-1161.81"/>
<polygon fill="#6666ff" stroke="#6666ff" points="921.3,-1163.43 928.42,-1171.28 927.75,-1160.71 921.3,-1163.43"/>
</g>
<!-- Metamodel::NativeHOW&#45;&gt;Any -->
<g id="edge5" class="edge">
<title>Metamodel::NativeHOW&#45;&gt;Any</title>
<path fill="none" stroke="#000000" d="M780.61,-717.13C864.11,-678.6 1066.38,-585.26 1144.72,-549.1"/>
<polygon fill="#000000" stroke="#000000" points="1146.46,-552.15 1154.08,-544.79 1143.53,-545.8 1146.46,-552.15"/>
</g>
<!-- Metamodel::NativeHOW&#45;&gt;Metamodel::Naming -->
<g id="edge45" class="edge">
<title>Metamodel::NativeHOW&#45;&gt;Metamodel::Naming</title>
<path fill="none" stroke="#6666ff" d="M763.63,-752.25C820.89,-804.32 986.1,-954.5 1051.18,-1013.68"/>
<polygon fill="#6666ff" stroke="#6666ff" points="1048.86,-1016.29 1058.61,-1020.43 1053.57,-1011.11 1048.86,-1016.29"/>
</g>
<!-- Metamodel::NativeHOW&#45;&gt;Metamodel::Documenting -->
<g id="edge46" class="edge">
<title>Metamodel::NativeHOW&#45;&gt;Metamodel::Documenting</title>
<path fill="none" stroke="#6666ff" d="M747.32,-752.18C757.7,-804.02 786.89,-949.88 786.89,-949.88 786.89,-949.88 784.41,-1228.89 783.6,-1319.81"/>
<polygon fill="#6666ff" stroke="#6666ff" points="780.1,-1319.9 783.51,-1329.94 787.1,-1319.97 780.1,-1319.9"/>
</g>
<!-- Metamodel::NativeHOW&#45;&gt;Metamodel::Versioning -->
<g id="edge47" class="edge">
<title>Metamodel::NativeHOW&#45;&gt;Metamodel::Versioning</title>
<path fill="none" stroke="#6666ff" d="M756.77,-752.29C817.75,-836.98 1071.59,-1189.54 1071.59,-1189.54 1071.59,-1189.54 1066.55,-1218.57 1062.51,-1241.82"/>
<polygon fill="#6666ff" stroke="#6666ff" points="1059.01,-1241.52 1060.75,-1251.97 1065.91,-1242.72 1059.01,-1241.52"/>
</g>
<!-- Metamodel::NativeHOW&#45;&gt;Metamodel::Stashing -->
<g id="edge48" class="edge">
<title>Metamodel::NativeHOW&#45;&gt;Metamodel::Stashing</title>
<path fill="none" stroke="#6666ff" d="M758.86,-716.09C796.41,-671.32 893.88,-555.1 937.5,-503.09"/>
<polygon fill="#6666ff" stroke="#6666ff" points="940.27,-505.23 944.02,-495.32 934.91,-500.73 940.27,-505.23"/>
</g>
<!-- Metamodel::NativeHOW&#45;&gt;Metamodel::C3MRO -->
<g id="edge50" class="edge">
<title>Metamodel::NativeHOW&#45;&gt;Metamodel::C3MRO</title>
<path fill="none" stroke="#6666ff" d="M713.33,-751.44C635.15,-795.92 427.08,-914.29 340.41,-963.61"/>
<polygon fill="#6666ff" stroke="#6666ff" points="338.63,-960.59 331.67,-968.58 342.09,-966.67 338.63,-960.59"/>
</g>
<!-- Metamodel::NativeHOW&#45;&gt;Metamodel::MROBasedMethodDispatch -->
<g id="edge51" class="edge">
<title>Metamodel::NativeHOW&#45;&gt;Metamodel::MROBasedMethodDispatch</title>
<path fill="none" stroke="#6666ff" d="M725.06,-716.37C672.76,-666.51 524.57,-525.23 464.23,-467.72"/>
<polygon fill="#6666ff" stroke="#6666ff" points="466.64,-465.18 456.99,-460.81 461.81,-470.24 466.64,-465.18"/>
</g>
<!-- Metamodel::NativeHOW&#45;&gt;Metamodel::MROBasedTypeChecking -->
<g id="edge52" class="edge">
<title>Metamodel::NativeHOW&#45;&gt;Metamodel::MROBasedTypeChecking</title>
<path fill="none" stroke="#6666ff" d="M737.25,-716.06C714.37,-652.01 637.12,-435.8 609.59,-358.75"/>
<polygon fill="#6666ff" stroke="#6666ff" points="612.85,-357.48 606.19,-349.24 606.26,-359.83 612.85,-357.48"/>
</g>
</g>
</svg>
