<?xml version="1.0" encoding="UTF-8" standalone="no"?>
<!DOCTYPE svg PUBLIC "-//W3C//DTD SVG 1.1//EN"
 "http://www.w3.org/Graphics/SVG/1.1/DTD/svg11.dtd">
<!-- Generated by graphviz version 2.43.0 (0)
 -->
<!-- Title: perl6&#45;type&#45;graph Pages: 1 -->
<svg width="1670pt" height="332pt"
 viewBox="0.00 0.00 1670.28 332.00" xmlns="http://www.w3.org/2000/svg" xmlns:xlink="http://www.w3.org/1999/xlink">
<g id="graph0" class="graph" transform="scale(1 1) rotate(0) translate(4 328)">
<title>perl6&#45;type&#45;graph</title>
<polygon fill="white" stroke="transparent" points="-4,4 -4,-328 1666.28,-328 1666.28,4 -4,4"/>
<!-- X::Proc::Async -->
<g id="node1" class="node">
<title>X::Proc::Async</title>
<g id="a_node1"><a xlink:href="/type/X::Proc::Async" xlink:title="X::Proc::Async">
<ellipse fill="none" stroke="#6666ff" cx="816.34" cy="-90" rx="68.49" ry="18"/>
<text text-anchor="middle" x="816.34" y="-86.3" font-family="FreeSans" font-size="14.00" fill="#6666ff">X::Proc::Async</text>
</a>
</g>
</g>
<!-- Exception -->
<g id="node4" class="node">
<title>Exception</title>
<g id="a_node4"><a xlink:href="/type/Exception" xlink:title="Exception">
<ellipse fill="none" stroke="#000000" cx="816.34" cy="-162" rx="49.29" ry="18"/>
<text text-anchor="middle" x="816.34" y="-158.3" font-family="FreeSans" font-size="14.00" fill="#000000">Exception</text>
</a>
</g>
</g>
<!-- X::Proc::Async&#45;&gt;Exception -->
<g id="edge1" class="edge">
<title>X::Proc::Async&#45;&gt;Exception</title>
<path fill="none" stroke="#000000" d="M816.34,-108.3C816.34,-116.02 816.34,-125.29 816.34,-133.89"/>
<polygon fill="#000000" stroke="#000000" points="812.84,-133.9 816.34,-143.9 819.84,-133.9 812.84,-133.9"/>
</g>
<!-- Mu -->
<g id="node2" class="node">
<title>Mu</title>
<g id="a_node2"><a xlink:href="/type/Mu" xlink:title="Mu">
<ellipse fill="none" stroke="#000000" cx="816.34" cy="-306" rx="27" ry="18"/>
<text text-anchor="middle" x="816.34" y="-302.3" font-family="FreeSans" font-size="14.00" fill="#000000">Mu</text>
</a>
</g>
</g>
<!-- Any -->
<g id="node3" class="node">
<title>Any</title>
<g id="a_node3"><a xlink:href="/type/Any" xlink:title="Any">
<ellipse fill="none" stroke="#000000" cx="816.34" cy="-234" rx="27" ry="18"/>
<text text-anchor="middle" x="816.34" y="-230.3" font-family="FreeSans" font-size="14.00" fill="#000000">Any</text>
</a>
</g>
</g>
<!-- Any&#45;&gt;Mu -->
<g id="edge2" class="edge">
<title>Any&#45;&gt;Mu</title>
<path fill="none" stroke="#000000" d="M816.34,-252.3C816.34,-260.02 816.34,-269.29 816.34,-277.89"/>
<polygon fill="#000000" stroke="#000000" points="812.84,-277.9 816.34,-287.9 819.84,-277.9 812.84,-277.9"/>
</g>
<!-- Exception&#45;&gt;Any -->
<g id="edge3" class="edge">
<title>Exception&#45;&gt;Any</title>
<path fill="none" stroke="#000000" d="M816.34,-180.3C816.34,-188.02 816.34,-197.29 816.34,-205.89"/>
<polygon fill="#000000" stroke="#000000" points="812.84,-205.9 816.34,-215.9 819.84,-205.9 812.84,-205.9"/>
</g>
<!-- X::Proc::Async::BindOrUse -->
<g id="node5" class="node">
<title>X::Proc::Async::BindOrUse</title>
<g id="a_node5"><a xlink:href="/type/X::Proc::Async::BindOrUse" xlink:title="X::Proc::Async::BindOrUse">
<ellipse fill="none" stroke="#000000" cx="116.34" cy="-18" rx="116.18" ry="18"/>
<text text-anchor="middle" x="116.34" y="-14.3" font-family="FreeSans" font-size="14.00" fill="#000000">X::Proc::Async::BindOrUse</text>
</a>
</g>
</g>
<!-- X::Proc::Async::BindOrUse&#45;&gt;X::Proc::Async -->
<g id="edge10" class="edge">
<title>X::Proc::Async::BindOrUse&#45;&gt;X::Proc::Async</title>
<path fill="none" stroke="#6666ff" d="M200.76,-30.48C223.21,-33.53 241.34,-36 241.34,-36 241.34,-36 587.69,-67.92 742.78,-82.22"/>
<polygon fill="#6666ff" stroke="#6666ff" points="742.88,-85.74 753.16,-83.18 743.52,-78.77 742.88,-85.74"/>
</g>
<!-- X::Proc::Async::BindOrUse&#45;&gt;Exception -->
<g id="edge4" class="edge">
<title>X::Proc::Async::BindOrUse&#45;&gt;Exception</title>
<path fill="none" stroke="#000000" d="M182.9,-32.91C302.71,-57.94 542.34,-108 542.34,-108 542.34,-108 684.45,-135.49 763.98,-150.87"/>
<polygon fill="#000000" stroke="#000000" points="763.35,-154.31 773.83,-152.78 764.67,-147.44 763.35,-154.31"/>
</g>
<!-- X::Proc::Async::CharsOrBytes -->
<g id="node6" class="node">
<title>X::Proc::Async::CharsOrBytes</title>
<g id="a_node6"><a xlink:href="/type/X::Proc::Async::CharsOrBytes" xlink:title="X::Proc::Async::CharsOrBytes">
<ellipse fill="none" stroke="#000000" cx="379.34" cy="-18" rx="128.88" ry="18"/>
<text text-anchor="middle" x="379.34" y="-14.3" font-family="FreeSans" font-size="14.00" fill="#000000">X::Proc::Async::CharsOrBytes</text>
</a>
</g>
</g>
<!-- X::Proc::Async::CharsOrBytes&#45;&gt;X::Proc::Async -->
<g id="edge11" class="edge">
<title>X::Proc::Async::CharsOrBytes&#45;&gt;X::Proc::Async</title>
<path fill="none" stroke="#6666ff" d="M460.51,-32C543.78,-45.34 671.8,-65.85 749.44,-78.28"/>
<polygon fill="#6666ff" stroke="#6666ff" points="749.16,-81.78 759.59,-79.91 750.27,-74.87 749.16,-81.78"/>
</g>
<!-- X::Proc::Async::CharsOrBytes&#45;&gt;Exception -->
<g id="edge5" class="edge">
<title>X::Proc::Async::CharsOrBytes&#45;&gt;Exception</title>
<path fill="none" stroke="#000000" d="M427.78,-34.74C512.87,-62.39 688.03,-119.31 770.94,-146.25"/>
<polygon fill="#000000" stroke="#000000" points="769.98,-149.62 780.58,-149.38 772.15,-142.96 769.98,-149.62"/>
</g>
<!-- X::Proc::Async::OpenForWriting -->
<g id="node7" class="node">
<title>X::Proc::Async::OpenForWriting</title>
<g id="a_node7"><a xlink:href="/type/X::Proc::Async::OpenForWriting" xlink:title="X::Proc::Async::OpenForWriting">
<ellipse fill="none" stroke="#000000" cx="662.34" cy="-18" rx="135.68" ry="18"/>
<text text-anchor="middle" x="662.34" y="-14.3" font-family="FreeSans" font-size="14.00" fill="#000000">X::Proc::Async::OpenForWriting</text>
</a>
</g>
</g>
<!-- X::Proc::Async::OpenForWriting&#45;&gt;X::Proc::Async -->
<g id="edge12" class="edge">
<title>X::Proc::Async::OpenForWriting&#45;&gt;X::Proc::Async</title>
<path fill="none" stroke="#6666ff" d="M698.45,-35.41C721.21,-45.76 750.68,-59.16 774.47,-69.97"/>
<polygon fill="#6666ff" stroke="#6666ff" points="773.06,-73.17 783.61,-74.12 775.95,-66.8 773.06,-73.17"/>
</g>
<!-- X::Proc::Async::OpenForWriting&#45;&gt;Exception -->
<g id="edge6" class="edge">
<title>X::Proc::Async::OpenForWriting&#45;&gt;Exception</title>
<path fill="none" stroke="#000000" d="M677.19,-36.16C699.56,-62.02 739.34,-108 739.34,-108 739.34,-108 764.27,-125.16 785.76,-139.95"/>
<polygon fill="#000000" stroke="#000000" points="783.85,-142.88 794.07,-145.67 787.82,-137.12 783.85,-142.88"/>
</g>
<!-- X::Proc::Async::AlreadyStarted -->
<g id="node8" class="node">
<title>X::Proc::Async::AlreadyStarted</title>
<g id="a_node8"><a xlink:href="/type/X::Proc::Async::AlreadyStarted" xlink:title="X::Proc::Async::AlreadyStarted">
<ellipse fill="none" stroke="#000000" cx="947.34" cy="-18" rx="131.08" ry="18"/>
<text text-anchor="middle" x="947.34" y="-14.3" font-family="FreeSans" font-size="14.00" fill="#000000">X::Proc::Async::AlreadyStarted</text>
</a>
</g>
</g>
<!-- X::Proc::Async::AlreadyStarted&#45;&gt;X::Proc::Async -->
<g id="edge13" class="edge">
<title>X::Proc::Async::AlreadyStarted&#45;&gt;X::Proc::Async</title>
<path fill="none" stroke="#6666ff" d="M916.29,-35.59C897.74,-45.5 874.04,-58.17 854.37,-68.68"/>
<polygon fill="#6666ff" stroke="#6666ff" points="852.54,-65.69 845.37,-73.49 855.84,-71.86 852.54,-65.69"/>
</g>
<!-- X::Proc::Async::AlreadyStarted&#45;&gt;Exception -->
<g id="edge7" class="edge">
<title>X::Proc::Async::AlreadyStarted&#45;&gt;Exception</title>
<path fill="none" stroke="#000000" d="M936.93,-36.16C921.24,-62.02 893.34,-108 893.34,-108 893.34,-108 868.41,-125.16 846.92,-139.95"/>
<polygon fill="#000000" stroke="#000000" points="844.86,-137.12 838.61,-145.67 848.83,-142.88 844.86,-137.12"/>
</g>
<!-- X::Proc::Async::TapBeforeSpawn -->
<g id="node9" class="node">
<title>X::Proc::Async::TapBeforeSpawn</title>
<g id="a_node9"><a xlink:href="/type/X::Proc::Async::TapBeforeSpawn" xlink:title="X::Proc::Async::TapBeforeSpawn">
<ellipse fill="none" stroke="#000000" cx="1238.34" cy="-18" rx="141.88" ry="18"/>
<text text-anchor="middle" x="1238.34" y="-14.3" font-family="FreeSans" font-size="14.00" fill="#000000">X::Proc::Async::TapBeforeSpawn</text>
</a>
</g>
</g>
<!-- X::Proc::Async::TapBeforeSpawn&#45;&gt;X::Proc::Async -->
<g id="edge14" class="edge">
<title>X::Proc::Async::TapBeforeSpawn&#45;&gt;X::Proc::Async</title>
<path fill="none" stroke="#6666ff" d="M1155.97,-32.66C1076.14,-45.91 956.57,-65.74 882.67,-78"/>
<polygon fill="#6666ff" stroke="#6666ff" points="881.84,-74.59 872.55,-79.68 882.99,-81.49 881.84,-74.59"/>
</g>
<!-- X::Proc::Async::TapBeforeSpawn&#45;&gt;Exception -->
<g id="edge8" class="edge">
<title>X::Proc::Async::TapBeforeSpawn&#45;&gt;Exception</title>
<path fill="none" stroke="#000000" d="M1190.75,-35.01C1108.58,-62.66 941.22,-118.98 861.08,-145.95"/>
<polygon fill="#000000" stroke="#000000" points="859.65,-142.73 851.28,-149.24 861.88,-149.37 859.65,-142.73"/>
</g>
<!-- X::Proc::Async::MustBeStarted -->
<g id="node10" class="node">
<title>X::Proc::Async::MustBeStarted</title>
<g id="a_node10"><a xlink:href="/type/X::Proc::Async::MustBeStarted" xlink:title="X::Proc::Async::MustBeStarted">
<ellipse fill="none" stroke="#000000" cx="1530.34" cy="-18" rx="131.88" ry="18"/>
<text text-anchor="middle" x="1530.34" y="-14.3" font-family="FreeSans" font-size="14.00" fill="#000000">X::Proc::Async::MustBeStarted</text>
</a>
</g>
</g>
<!-- X::Proc::Async::MustBeStarted&#45;&gt;X::Proc::Async -->
<g id="edge15" class="edge">
<title>X::Proc::Async::MustBeStarted&#45;&gt;X::Proc::Async</title>
<path fill="none" stroke="#6666ff" d="M1435.12,-30.48C1409.79,-33.53 1389.34,-36 1389.34,-36 1389.34,-36 1044.62,-67.89 889.93,-82.19"/>
<polygon fill="#6666ff" stroke="#6666ff" points="889.21,-78.74 879.57,-83.15 889.85,-85.72 889.21,-78.74"/>
</g>
<!-- X::Proc::Async::MustBeStarted&#45;&gt;Exception -->
<g id="edge9" class="edge">
<title>X::Proc::Async::MustBeStarted&#45;&gt;Exception</title>
<path fill="none" stroke="#000000" d="M1458.94,-33.2C1315.52,-61.72 995.37,-125.4 869.05,-150.52"/>
<polygon fill="#000000" stroke="#000000" points="867.99,-147.16 858.86,-152.54 869.35,-154.03 867.99,-147.16"/>
</g>
</g>
</svg>
