<?xml version="1.0" encoding="UTF-8" standalone="no"?>
<!DOCTYPE svg PUBLIC "-//W3C//DTD SVG 1.1//EN"
 "http://www.w3.org/Graphics/SVG/1.1/DTD/svg11.dtd">
<!-- Generated by graphviz version 2.43.0 (0)
 -->
<!-- Title: perl6&#45;type&#45;graph Pages: 1 -->
<svg width="1898pt" height="2071pt"
 viewBox="0.00 0.00 1898.02 2071.07" xmlns="http://www.w3.org/2000/svg" xmlns:xlink="http://www.w3.org/1999/xlink">
<g id="graph0" class="graph" transform="scale(1 1) rotate(0) translate(4 2067.07)">
<title>perl6&#45;type&#45;graph</title>
<polygon fill="white" stroke="transparent" points="-4,4 -4,-2067.07 1894.02,-2067.07 1894.02,4 -4,4"/>
<!-- Metamodel::AttributeContainer -->
<g id="node1" class="node">
<title>Metamodel::AttributeContainer</title>
<g id="a_node1"><a xlink:href="/type/Metamodel::AttributeContainer" xlink:title="Metamodel::AttributeContainer">
<ellipse fill="none" stroke="#6666ff" cx="433.65" cy="-1159.04" rx="129.98" ry="18"/>
<text text-anchor="middle" x="433.65" y="-1155.34" font-family="FreeSans" font-size="14.00" fill="#6666ff">Metamodel::AttributeContainer</text>
</a>
</g>
</g>
<!-- Mu -->
<g id="node2" class="node">
<title>Mu</title>
<g id="a_node2"><a xlink:href="/type/Mu" xlink:title="Mu">
<ellipse fill="none" stroke="#000000" cx="1615.12" cy="-244.94" rx="27" ry="18"/>
<text text-anchor="middle" x="1615.12" y="-241.24" font-family="FreeSans" font-size="14.00" fill="#000000">Mu</text>
</a>
</g>
</g>
<!-- Any -->
<g id="node3" class="node">
<title>Any</title>
<g id="a_node3"><a xlink:href="/type/Any" xlink:title="Any">
<ellipse fill="none" stroke="#000000" cx="1169.41" cy="-813.53" rx="27" ry="18"/>
<text text-anchor="middle" x="1169.41" y="-809.83" font-family="FreeSans" font-size="14.00" fill="#000000">Any</text>
</a>
</g>
</g>
<!-- Any&#45;&gt;Mu -->
<g id="edge1" class="edge">
<title>Any&#45;&gt;Mu</title>
<path fill="none" stroke="#000000" d="M1182.04,-797.43C1244.61,-717.61 1521.5,-364.37 1596.39,-268.83"/>
<polygon fill="#000000" stroke="#000000" points="1599.19,-270.93 1602.61,-260.9 1593.68,-266.61 1599.19,-270.93"/>
</g>
<!-- Metamodel::Naming -->
<g id="node4" class="node">
<title>Metamodel::Naming</title>
<g id="a_node4"><a xlink:href="/type/Metamodel::Naming" xlink:title="Metamodel::Naming">
<ellipse fill="none" stroke="#6666ff" cx="473.06" cy="-1296.43" rx="90.18" ry="18"/>
<text text-anchor="middle" x="473.06" y="-1292.73" font-family="FreeSans" font-size="14.00" fill="#6666ff">Metamodel::Naming</text>
</a>
</g>
</g>
<!-- Metamodel::Documenting -->
<g id="node5" class="node">
<title>Metamodel::Documenting</title>
<g id="a_node5"><a xlink:href="/type/Metamodel::Documenting" xlink:title="Metamodel::Documenting">
<ellipse fill="none" stroke="#6666ff" cx="1398.53" cy="-681.49" rx="111.28" ry="18"/>
<text text-anchor="middle" x="1398.53" y="-677.79" font-family="FreeSans" font-size="14.00" fill="#6666ff">Metamodel::Documenting</text>
</a>
</g>
</g>
<!-- Metamodel::Versioning -->
<g id="node6" class="node">
<title>Metamodel::Versioning</title>
<g id="a_node6"><a xlink:href="/type/Metamodel::Versioning" xlink:title="Metamodel::Versioning">
<ellipse fill="none" stroke="#6666ff" cx="370.93" cy="-960.07" rx="100.98" ry="18"/>
<text text-anchor="middle" x="370.93" y="-956.37" font-family="FreeSans" font-size="14.00" fill="#6666ff">Metamodel::Versioning</text>
</a>
</g>
</g>
<!-- Metamodel::Stashing -->
<g id="node7" class="node">
<title>Metamodel::Stashing</title>
<g id="a_node7"><a xlink:href="/type/Metamodel::Stashing" xlink:title="Metamodel::Stashing">
<ellipse fill="none" stroke="#6666ff" cx="926.7" cy="-1098.17" rx="93.68" ry="18"/>
<text text-anchor="middle" x="926.7" y="-1094.47" font-family="FreeSans" font-size="14.00" fill="#6666ff">Metamodel::Stashing</text>
</a>
</g>
</g>
<!-- Metamodel::Finalization -->
<g id="node8" class="node">
<title>Metamodel::Finalization</title>
<g id="a_node8"><a xlink:href="/type/Metamodel::Finalization" xlink:title="Metamodel::Finalization">
<ellipse fill="none" stroke="#6666ff" cx="1739.09" cy="-970.68" rx="103.98" ry="18"/>
<text text-anchor="middle" x="1739.09" y="-966.98" font-family="FreeSans" font-size="14.00" fill="#6666ff">Metamodel::Finalization</text>
</a>
</g>
</g>
<!-- Metamodel::MethodContainer -->
<g id="node9" class="node">
<title>Metamodel::MethodContainer</title>
<g id="a_node9"><a xlink:href="/type/Metamodel::MethodContainer" xlink:title="Metamodel::MethodContainer">
<ellipse fill="none" stroke="#6666ff" cx="679.09" cy="-1035.56" rx="127.28" ry="18"/>
<text text-anchor="middle" x="679.09" y="-1031.86" font-family="FreeSans" font-size="14.00" fill="#6666ff">Metamodel::MethodContainer</text>
</a>
</g>
</g>
<!-- Metamodel::PrivateMethodContainer -->
<g id="node10" class="node">
<title>Metamodel::PrivateMethodContainer</title>
<g id="a_node10"><a xlink:href="/type/Metamodel::PrivateMethodContainer" xlink:title="Metamodel::PrivateMethodContainer">
<ellipse fill="none" stroke="#6666ff" cx="1003.24" cy="-512.97" rx="154.87" ry="18"/>
<text text-anchor="middle" x="1003.24" y="-509.27" font-family="FreeSans" font-size="14.00" fill="#6666ff">Metamodel::PrivateMethodContainer</text>
</a>
</g>
</g>
<!-- Metamodel::MultiMethodContainer -->
<g id="node11" class="node">
<title>Metamodel::MultiMethodContainer</title>
<g id="a_node11"><a xlink:href="/type/Metamodel::MultiMethodContainer" xlink:title="Metamodel::MultiMethodContainer">
<ellipse fill="none" stroke="#6666ff" cx="933.93" cy="-903.51" rx="146.47" ry="18"/>
<text text-anchor="middle" x="933.93" y="-899.81" font-family="FreeSans" font-size="14.00" fill="#6666ff">Metamodel::MultiMethodContainer</text>
</a>
</g>
</g>
<!-- Metamodel::RoleContainer -->
<g id="node12" class="node">
<title>Metamodel::RoleContainer</title>
<g id="a_node12"><a xlink:href="/type/Metamodel::RoleContainer" xlink:title="Metamodel::RoleContainer">
<ellipse fill="none" stroke="#6666ff" cx="622.34" cy="-1207.26" rx="115.88" ry="18"/>
<text text-anchor="middle" x="622.34" y="-1203.56" font-family="FreeSans" font-size="14.00" fill="#6666ff">Metamodel::RoleContainer</text>
</a>
</g>
</g>
<!-- Metamodel::MultipleInheritance -->
<g id="node13" class="node">
<title>Metamodel::MultipleInheritance</title>
<g id="a_node13"><a xlink:href="/type/Metamodel::MultipleInheritance" xlink:title="Metamodel::MultipleInheritance">
<ellipse fill="none" stroke="#6666ff" cx="1142.47" cy="-559.96" rx="133.78" ry="18"/>
<text text-anchor="middle" x="1142.47" y="-556.26" font-family="FreeSans" font-size="14.00" fill="#6666ff">Metamodel::MultipleInheritance</text>
</a>
</g>
</g>
<!-- Metamodel::DefaultParent -->
<g id="node14" class="node">
<title>Metamodel::DefaultParent</title>
<g id="a_node14"><a xlink:href="/type/Metamodel::DefaultParent" xlink:title="Metamodel::DefaultParent">
<ellipse fill="none" stroke="#6666ff" cx="1776.93" cy="-1189.16" rx="113.18" ry="18"/>
<text text-anchor="middle" x="1776.93" y="-1185.46" font-family="FreeSans" font-size="14.00" fill="#6666ff">Metamodel::DefaultParent</text>
</a>
</g>
</g>
<!-- Metamodel::C3MRO -->
<g id="node15" class="node">
<title>Metamodel::C3MRO</title>
<g id="a_node15"><a xlink:href="/type/Metamodel::C3MRO" xlink:title="Metamodel::C3MRO">
<ellipse fill="none" stroke="#6666ff" cx="1765.29" cy="-1446.3" rx="92.08" ry="18"/>
<text text-anchor="middle" x="1765.29" y="-1442.6" font-family="FreeSans" font-size="14.00" fill="#6666ff">Metamodel::C3MRO</text>
</a>
</g>
</g>
<!-- Metamodel::MROBasedMethodDispatch -->
<g id="node16" class="node">
<title>Metamodel::MROBasedMethodDispatch</title>
<g id="a_node16"><a xlink:href="/type/Metamodel::MROBasedMethodDispatch" xlink:title="Metamodel::MROBasedMethodDispatch">
<ellipse fill="none" stroke="#6666ff" cx="1447.69" cy="-1691.23" rx="169.77" ry="18"/>
<text text-anchor="middle" x="1447.69" y="-1687.53" font-family="FreeSans" font-size="14.00" fill="#6666ff">Metamodel::MROBasedMethodDispatch</text>
</a>
</g>
</g>
<!-- Metamodel::MROBasedTypeChecking -->
<g id="node17" class="node">
<title>Metamodel::MROBasedTypeChecking</title>
<g id="a_node17"><a xlink:href="/type/Metamodel::MROBasedTypeChecking" xlink:title="Metamodel::MROBasedTypeChecking">
<ellipse fill="none" stroke="#6666ff" cx="1481.94" cy="-1493.92" rx="163.27" ry="18"/>
<text text-anchor="middle" x="1481.94" y="-1490.22" font-family="FreeSans" font-size="14.00" fill="#6666ff">Metamodel::MROBasedTypeChecking</text>
</a>
</g>
</g>
<!-- Metamodel::Trusting -->
<g id="node18" class="node">
<title>Metamodel::Trusting</title>
<g id="a_node18"><a xlink:href="/type/Metamodel::Trusting" xlink:title="Metamodel::Trusting">
<ellipse fill="none" stroke="#6666ff" cx="689.9" cy="-1782.35" rx="91.78" ry="18"/>
<text text-anchor="middle" x="689.9" y="-1778.65" font-family="FreeSans" font-size="14.00" fill="#6666ff">Metamodel::Trusting</text>
</a>
</g>
</g>
<!-- Metamodel::BUILDPLAN -->
<g id="node19" class="node">
<title>Metamodel::BUILDPLAN</title>
<g id="a_node19"><a xlink:href="/type/Metamodel::BUILDPLAN" xlink:title="Metamodel::BUILDPLAN">
<ellipse fill="none" stroke="#6666ff" cx="945.37" cy="-1881.31" rx="109.68" ry="18"/>
<text text-anchor="middle" x="945.37" y="-1877.61" font-family="FreeSans" font-size="14.00" fill="#6666ff">Metamodel::BUILDPLAN</text>
</a>
</g>
</g>
<!-- Metamodel::Mixins -->
<g id="node20" class="node">
<title>Metamodel::Mixins</title>
<g id="a_node20"><a xlink:href="/type/Metamodel::Mixins" xlink:title="Metamodel::Mixins">
<ellipse fill="none" stroke="#6666ff" cx="1148.37" cy="-1872.43" rx="85.29" ry="18"/>
<text text-anchor="middle" x="1148.37" y="-1868.73" font-family="FreeSans" font-size="14.00" fill="#6666ff">Metamodel::Mixins</text>
</a>
</g>
</g>
<!-- Metamodel::BoolificationProtocol -->
<g id="node21" class="node">
<title>Metamodel::BoolificationProtocol</title>
<g id="a_node21"><a xlink:href="/type/Metamodel::BoolificationProtocol" xlink:title="Metamodel::BoolificationProtocol">
<ellipse fill="none" stroke="#6666ff" cx="1320.42" cy="-1815.05" rx="139.18" ry="18"/>
<text text-anchor="middle" x="1320.42" y="-1811.35" font-family="FreeSans" font-size="14.00" fill="#6666ff">Metamodel::BoolificationProtocol</text>
</a>
</g>
</g>
<!-- Metamodel::ClassHOW -->
<g id="node22" class="node">
<title>Metamodel::ClassHOW</title>
<g id="a_node22"><a xlink:href="/type/Metamodel::ClassHOW" xlink:title="Metamodel::ClassHOW">
<ellipse fill="none" stroke="#000000" cx="1139.37" cy="-1246.77" rx="103.18" ry="18"/>
<text text-anchor="middle" x="1139.37" y="-1243.07" font-family="FreeSans" font-size="14.00" fill="#000000">Metamodel::ClassHOW</text>
</a>
</g>
</g>
<!-- Metamodel::ClassHOW&#45;&gt;Metamodel::AttributeContainer -->
<g id="edge10" class="edge">
<title>Metamodel::ClassHOW&#45;&gt;Metamodel::AttributeContainer</title>
<path fill="none" stroke="#6666ff" d="M1054.95,-1236.27C926.32,-1220.29 681.41,-1189.84 540.55,-1172.33"/>
<polygon fill="#6666ff" stroke="#6666ff" points="540.94,-1168.85 530.59,-1171.09 540.08,-1175.8 540.94,-1168.85"/>
</g>
<!-- Metamodel::ClassHOW&#45;&gt;Any -->
<g id="edge2" class="edge">
<title>Metamodel::ClassHOW&#45;&gt;Any</title>
<path fill="none" stroke="#000000" d="M1140.63,-1228.71C1145.3,-1161.27 1161.76,-923.93 1167.46,-841.77"/>
<polygon fill="#000000" stroke="#000000" points="1170.96,-841.89 1168.16,-831.67 1163.97,-841.41 1170.96,-841.89"/>
</g>
<!-- Metamodel::ClassHOW&#45;&gt;Metamodel::Naming -->
<g id="edge6" class="edge">
<title>Metamodel::ClassHOW&#45;&gt;Metamodel::Naming</title>
<path fill="none" stroke="#6666ff" d="M1044.26,-1253.86C917.53,-1263.3 694.6,-1279.92 567.97,-1289.35"/>
<polygon fill="#6666ff" stroke="#6666ff" points="567.61,-1285.87 557.89,-1290.11 568.13,-1292.85 567.61,-1285.87"/>
</g>
<!-- Metamodel::ClassHOW&#45;&gt;Metamodel::Documenting -->
<g id="edge7" class="edge">
<title>Metamodel::ClassHOW&#45;&gt;Metamodel::Documenting</title>
<path fill="none" stroke="#6666ff" d="M1147.7,-1228.6C1185.44,-1146.29 1340.48,-808.11 1385.95,-708.94"/>
<polygon fill="#6666ff" stroke="#6666ff" points="1389.25,-710.14 1390.23,-699.59 1382.88,-707.22 1389.25,-710.14"/>
</g>
<!-- Metamodel::ClassHOW&#45;&gt;Metamodel::Versioning -->
<g id="edge8" class="edge">
<title>Metamodel::ClassHOW&#45;&gt;Metamodel::Versioning</title>
<path fill="none" stroke="#6666ff" d="M1093.76,-1230.45C961.58,-1183.16 587.69,-1049.39 587.69,-1049.39 587.69,-1049.39 550.1,-1035.52 550.1,-1035.52 550.1,-1035.52 473.01,-1003.06 419.96,-980.72"/>
<polygon fill="#6666ff" stroke="#6666ff" points="421.26,-977.47 410.69,-976.82 418.55,-983.92 421.26,-977.47"/>
</g>
<!-- Metamodel::ClassHOW&#45;&gt;Metamodel::Stashing -->
<g id="edge9" class="edge">
<title>Metamodel::ClassHOW&#45;&gt;Metamodel::Stashing</title>
<path fill="none" stroke="#6666ff" d="M1114.14,-1229.14C1075.74,-1202.31 1002.61,-1151.21 959.93,-1121.39"/>
<polygon fill="#6666ff" stroke="#6666ff" points="961.77,-1118.4 951.57,-1115.55 957.76,-1124.14 961.77,-1118.4"/>
</g>
<!-- Metamodel::ClassHOW&#45;&gt;Metamodel::Finalization -->
<g id="edge11" class="edge">
<title>Metamodel::ClassHOW&#45;&gt;Metamodel::Finalization</title>
<path fill="none" stroke="#6666ff" d="M1175.99,-1229.91C1280.12,-1181.97 1577.87,-1044.9 1692.93,-991.93"/>
<polygon fill="#6666ff" stroke="#6666ff" points="1694.57,-995.03 1702.19,-987.66 1691.64,-988.67 1694.57,-995.03"/>
</g>
<!-- Metamodel::ClassHOW&#45;&gt;Metamodel::MethodContainer -->
<g id="edge12" class="edge">
<title>Metamodel::ClassHOW&#45;&gt;Metamodel::MethodContainer</title>
<path fill="none" stroke="#6666ff" d="M1102.48,-1229.84C1019.45,-1191.74 817.97,-1099.29 726.12,-1057.14"/>
<polygon fill="#6666ff" stroke="#6666ff" points="727.34,-1053.85 716.79,-1052.86 724.42,-1060.21 727.34,-1053.85"/>
</g>
<!-- Metamodel::ClassHOW&#45;&gt;Metamodel::PrivateMethodContainer -->
<g id="edge13" class="edge">
<title>Metamodel::ClassHOW&#45;&gt;Metamodel::PrivateMethodContainer</title>
<path fill="none" stroke="#6666ff" d="M1136.28,-1228.32C1124.31,-1157.03 1081.76,-903.57 1081.76,-903.57 1081.76,-903.57 1006.99,-559.81 1006.99,-559.81 1006.99,-559.81 1006.29,-551.13 1005.5,-541.23"/>
<polygon fill="#6666ff" stroke="#6666ff" points="1008.98,-540.91 1004.7,-531.22 1002.01,-541.47 1008.98,-540.91"/>
</g>
<!-- Metamodel::ClassHOW&#45;&gt;Metamodel::MultiMethodContainer -->
<g id="edge14" class="edge">
<title>Metamodel::ClassHOW&#45;&gt;Metamodel::MultiMethodContainer</title>
<path fill="none" stroke="#6666ff" d="M1128.62,-1228.8C1094.79,-1172.28 990.42,-997.9 950.08,-930.5"/>
<polygon fill="#6666ff" stroke="#6666ff" points="952.96,-928.5 944.82,-921.72 946.96,-932.1 952.96,-928.5"/>
</g>
<!-- Metamodel::ClassHOW&#45;&gt;Metamodel::RoleContainer -->
<g id="edge15" class="edge">
<title>Metamodel::ClassHOW&#45;&gt;Metamodel::RoleContainer</title>
<path fill="none" stroke="#6666ff" d="M1044.54,-1239.52C957.72,-1232.89 829.04,-1223.05 736.58,-1215.99"/>
<polygon fill="#6666ff" stroke="#6666ff" points="736.58,-1212.48 726.34,-1215.21 736.05,-1219.46 736.58,-1212.48"/>
</g>
<!-- Metamodel::ClassHOW&#45;&gt;Metamodel::MultipleInheritance -->
<g id="edge16" class="edge">
<title>Metamodel::ClassHOW&#45;&gt;Metamodel::MultipleInheritance</title>
<path fill="none" stroke="#6666ff" d="M1139.43,-1228.7C1139.71,-1146.67 1140.82,-813.35 1140.82,-813.35 1140.82,-813.35 1141.85,-654.47 1142.29,-588.33"/>
<polygon fill="#6666ff" stroke="#6666ff" points="1145.79,-588.21 1142.35,-578.19 1138.79,-588.16 1145.79,-588.21"/>
</g>
<!-- Metamodel::ClassHOW&#45;&gt;Metamodel::DefaultParent -->
<g id="edge17" class="edge">
<title>Metamodel::ClassHOW&#45;&gt;Metamodel::DefaultParent</title>
<path fill="none" stroke="#6666ff" d="M1231.4,-1238.45C1347.03,-1228 1545.2,-1210.1 1668.19,-1198.98"/>
<polygon fill="#6666ff" stroke="#6666ff" points="1668.74,-1202.45 1678.38,-1198.06 1668.11,-1195.48 1668.74,-1202.45"/>
</g>
<!-- Metamodel::ClassHOW&#45;&gt;Metamodel::C3MRO -->
<g id="edge18" class="edge">
<title>Metamodel::ClassHOW&#45;&gt;Metamodel::C3MRO</title>
<path fill="none" stroke="#6666ff" d="M1189.01,-1262.59C1303.45,-1299.08 1585.32,-1388.93 1707.38,-1427.84"/>
<polygon fill="#6666ff" stroke="#6666ff" points="1706.35,-1431.19 1716.94,-1430.89 1708.48,-1424.52 1706.35,-1431.19"/>
</g>
<!-- Metamodel::ClassHOW&#45;&gt;Metamodel::MROBasedMethodDispatch -->
<g id="edge19" class="edge">
<title>Metamodel::ClassHOW&#45;&gt;Metamodel::MROBasedMethodDispatch</title>
<path fill="none" stroke="#6666ff" d="M1151.84,-1264.74C1199.78,-1333.85 1372.36,-1582.64 1429.31,-1664.74"/>
<polygon fill="#6666ff" stroke="#6666ff" points="1426.49,-1666.81 1435.07,-1673.04 1432.24,-1662.82 1426.49,-1666.81"/>
</g>
<!-- Metamodel::ClassHOW&#45;&gt;Metamodel::MROBasedTypeChecking -->
<g id="edge20" class="edge">
<title>Metamodel::ClassHOW&#45;&gt;Metamodel::MROBasedTypeChecking</title>
<path fill="none" stroke="#6666ff" d="M1163.74,-1264.35C1223.98,-1307.81 1380.05,-1420.4 1448.7,-1469.94"/>
<polygon fill="#6666ff" stroke="#6666ff" points="1446.86,-1472.92 1457.02,-1475.94 1450.95,-1467.25 1446.86,-1472.92"/>
</g>
<!-- Metamodel::ClassHOW&#45;&gt;Metamodel::Trusting -->
<g id="edge21" class="edge">
<title>Metamodel::ClassHOW&#45;&gt;Metamodel::Trusting</title>
<path fill="none" stroke="#6666ff" d="M1129.58,-1264.8C1097.39,-1324.08 996.88,-1509.13 996.88,-1509.13 996.88,-1509.13 793.43,-1690.2 717.78,-1757.53"/>
<polygon fill="#6666ff" stroke="#6666ff" points="715.18,-1755.16 710.04,-1764.42 719.84,-1760.39 715.18,-1755.16"/>
</g>
<!-- Metamodel::ClassHOW&#45;&gt;Metamodel::BUILDPLAN -->
<g id="edge22" class="edge">
<title>Metamodel::ClassHOW&#45;&gt;Metamodel::BUILDPLAN</title>
<path fill="none" stroke="#6666ff" d="M1133.78,-1265.08C1106.45,-1354.45 987.03,-1745.06 953.91,-1853.37"/>
<polygon fill="#6666ff" stroke="#6666ff" points="950.47,-1852.65 950.9,-1863.23 957.17,-1854.69 950.47,-1852.65"/>
</g>
<!-- Metamodel::ClassHOW&#45;&gt;Metamodel::Mixins -->
<g id="edge23" class="edge">
<title>Metamodel::ClassHOW&#45;&gt;Metamodel::Mixins</title>
<path fill="none" stroke="#6666ff" d="M1139.63,-1264.82C1140.9,-1352.76 1146.42,-1736.47 1147.97,-1844.2"/>
<polygon fill="#6666ff" stroke="#6666ff" points="1144.47,-1844.35 1148.11,-1854.3 1151.47,-1844.25 1144.47,-1844.35"/>
</g>
<!-- Metamodel::ClassHOW&#45;&gt;Metamodel::BoolificationProtocol -->
<g id="edge24" class="edge">
<title>Metamodel::ClassHOW&#45;&gt;Metamodel::BoolificationProtocol</title>
<path fill="none" stroke="#6666ff" d="M1145,-1265.02C1170.8,-1348.64 1276.46,-1691.16 1276.46,-1691.16 1276.46,-1691.16 1297.66,-1750.91 1310.62,-1787.42"/>
<polygon fill="#6666ff" stroke="#6666ff" points="1307.39,-1788.78 1314.03,-1797.03 1313.98,-1786.44 1307.39,-1788.78"/>
</g>
<!-- Metamodel::BaseType -->
<g id="node23" class="node">
<title>Metamodel::BaseType</title>
<g id="a_node23"><a xlink:href="/type/Metamodel::BaseType" xlink:title="Metamodel::BaseType">
<ellipse fill="none" stroke="#6666ff" cx="412.22" cy="-2045.07" rx="99.38" ry="18"/>
<text text-anchor="middle" x="412.22" y="-2041.37" font-family="FreeSans" font-size="14.00" fill="#6666ff">Metamodel::BaseType</text>
</a>
</g>
</g>
<!-- Metamodel::EnumHOW -->
<g id="node24" class="node">
<title>Metamodel::EnumHOW</title>
<g id="a_node24"><a xlink:href="/type/Metamodel::EnumHOW" xlink:title="Metamodel::EnumHOW">
<ellipse fill="none" stroke="#000000" cx="890.64" cy="-1509.02" rx="104.78" ry="18"/>
<text text-anchor="middle" x="890.64" y="-1505.32" font-family="FreeSans" font-size="14.00" fill="#000000">Metamodel::EnumHOW</text>
</a>
</g>
</g>
<!-- Metamodel::EnumHOW&#45;&gt;Metamodel::AttributeContainer -->
<g id="edge27" class="edge">
<title>Metamodel::EnumHOW&#45;&gt;Metamodel::AttributeContainer</title>
<path fill="none" stroke="#6666ff" d="M867.67,-1491.42C792.17,-1433.61 551.63,-1249.4 465.07,-1183.1"/>
<polygon fill="#6666ff" stroke="#6666ff" points="467.01,-1180.18 456.94,-1176.88 462.75,-1185.74 467.01,-1180.18"/>
</g>
<!-- Metamodel::EnumHOW&#45;&gt;Any -->
<g id="edge3" class="edge">
<title>Metamodel::EnumHOW&#45;&gt;Any</title>
<path fill="none" stroke="#000000" d="M897.96,-1490.77C936.19,-1395.39 1113.08,-954.09 1158.67,-840.34"/>
<polygon fill="#000000" stroke="#000000" points="1161.96,-841.53 1162.43,-830.95 1155.46,-838.93 1161.96,-841.53"/>
</g>
<!-- Metamodel::EnumHOW&#45;&gt;Metamodel::Naming -->
<g id="edge25" class="edge">
<title>Metamodel::EnumHOW&#45;&gt;Metamodel::Naming</title>
<path fill="none" stroke="#6666ff" d="M856.82,-1491.8C781.1,-1453.25 598.1,-1360.09 515.16,-1317.86"/>
<polygon fill="#6666ff" stroke="#6666ff" points="516.53,-1314.63 506.03,-1313.21 513.35,-1320.87 516.53,-1314.63"/>
</g>
<!-- Metamodel::EnumHOW&#45;&gt;Metamodel::Stashing -->
<g id="edge26" class="edge">
<title>Metamodel::EnumHOW&#45;&gt;Metamodel::Stashing</title>
<path fill="none" stroke="#6666ff" d="M892.24,-1490.84C897.93,-1426.02 917.24,-1205.95 924.18,-1126.81"/>
<polygon fill="#6666ff" stroke="#6666ff" points="927.69,-1126.88 925.08,-1116.61 920.72,-1126.27 927.69,-1126.88"/>
</g>
<!-- Metamodel::EnumHOW&#45;&gt;Metamodel::MethodContainer -->
<g id="edge28" class="edge">
<title>Metamodel::EnumHOW&#45;&gt;Metamodel::MethodContainer</title>
<path fill="none" stroke="#6666ff" d="M882.61,-1491.04C850.34,-1418.82 730.06,-1149.63 691.24,-1062.77"/>
<polygon fill="#6666ff" stroke="#6666ff" points="694.4,-1061.26 687.13,-1053.56 688.01,-1064.12 694.4,-1061.26"/>
</g>
<!-- Metamodel::EnumHOW&#45;&gt;Metamodel::MultiMethodContainer -->
<g id="edge29" class="edge">
<title>Metamodel::EnumHOW&#45;&gt;Metamodel::MultiMethodContainer</title>
<path fill="none" stroke="#6666ff" d="M888.03,-1490.83C876.58,-1411.3 831.51,-1098.06 831.51,-1098.06 831.51,-1098.06 891.39,-984.31 919.58,-930.77"/>
<polygon fill="#6666ff" stroke="#6666ff" points="922.73,-932.29 924.29,-921.81 916.54,-929.03 922.73,-932.29"/>
</g>
<!-- Metamodel::EnumHOW&#45;&gt;Metamodel::RoleContainer -->
<g id="edge30" class="edge">
<title>Metamodel::EnumHOW&#45;&gt;Metamodel::RoleContainer</title>
<path fill="none" stroke="#6666ff" d="M874.66,-1491.05C829.09,-1439.79 698.34,-1292.73 645.21,-1232.97"/>
<polygon fill="#6666ff" stroke="#6666ff" points="647.5,-1230.29 638.24,-1225.14 642.27,-1234.94 647.5,-1230.29"/>
</g>
<!-- Metamodel::EnumHOW&#45;&gt;Metamodel::MROBasedMethodDispatch -->
<g id="edge32" class="edge">
<title>Metamodel::EnumHOW&#45;&gt;Metamodel::MROBasedMethodDispatch</title>
<path fill="none" stroke="#6666ff" d="M939.59,-1525.03C1040.87,-1558.16 1273.3,-1634.19 1385.22,-1670.8"/>
<polygon fill="#6666ff" stroke="#6666ff" points="1384.42,-1674.22 1395.01,-1674 1386.6,-1667.57 1384.42,-1674.22"/>
</g>
<!-- Metamodel::EnumHOW&#45;&gt;Metamodel::MROBasedTypeChecking -->
<g id="edge33" class="edge">
<title>Metamodel::EnumHOW&#45;&gt;Metamodel::MROBasedTypeChecking</title>
<path fill="none" stroke="#6666ff" d="M994.32,-1506.37C1082.23,-1504.13 1210.03,-1500.86 1312.74,-1498.24"/>
<polygon fill="#6666ff" stroke="#6666ff" points="1313.01,-1501.74 1322.92,-1497.98 1312.83,-1494.74 1313.01,-1501.74"/>
</g>
<!-- Metamodel::EnumHOW&#45;&gt;Metamodel::BUILDPLAN -->
<g id="edge34" class="edge">
<title>Metamodel::EnumHOW&#45;&gt;Metamodel::BUILDPLAN</title>
<path fill="none" stroke="#6666ff" d="M893.32,-1527.23C902.16,-1587.35 930.46,-1779.86 941.19,-1852.87"/>
<polygon fill="#6666ff" stroke="#6666ff" points="937.78,-1853.75 942.7,-1863.13 944.71,-1852.73 937.78,-1853.75"/>
</g>
<!-- Metamodel::EnumHOW&#45;&gt;Metamodel::Mixins -->
<g id="edge36" class="edge">
<title>Metamodel::EnumHOW&#45;&gt;Metamodel::Mixins</title>
<path fill="none" stroke="#6666ff" d="M903.42,-1527.04C945.5,-1586.37 1079.86,-1775.82 1129.61,-1845.97"/>
<polygon fill="#6666ff" stroke="#6666ff" points="1126.88,-1848.16 1135.52,-1854.3 1132.59,-1844.11 1126.88,-1848.16"/>
</g>
<!-- Metamodel::EnumHOW&#45;&gt;Metamodel::BoolificationProtocol -->
<g id="edge35" class="edge">
<title>Metamodel::EnumHOW&#45;&gt;Metamodel::BoolificationProtocol</title>
<path fill="none" stroke="#6666ff" d="M915.29,-1526.57C988.34,-1578.58 1203.7,-1731.94 1287,-1791.25"/>
<polygon fill="#6666ff" stroke="#6666ff" points="1285.16,-1794.23 1295.34,-1797.18 1289.22,-1788.53 1285.16,-1794.23"/>
</g>
<!-- Metamodel::EnumHOW&#45;&gt;Metamodel::BaseType -->
<g id="edge31" class="edge">
<title>Metamodel::EnumHOW&#45;&gt;Metamodel::BaseType</title>
<path fill="none" stroke="#6666ff" d="M871.35,-1526.95C805.95,-1587.73 596.66,-1782.24 596.66,-1782.24 596.66,-1782.24 477.5,-1952.04 430.74,-2018.68"/>
<polygon fill="#6666ff" stroke="#6666ff" points="427.77,-2016.81 424.89,-2027.01 433.5,-2020.83 427.77,-2016.81"/>
</g>
<!-- Metamodel::TypePretense -->
<g id="node25" class="node">
<title>Metamodel::TypePretense</title>
<g id="a_node25"><a xlink:href="/type/Metamodel::TypePretense" xlink:title="Metamodel::TypePretense">
<ellipse fill="none" stroke="#6666ff" cx="114.39" cy="-291.59" rx="114.28" ry="18"/>
<text text-anchor="middle" x="114.39" y="-287.89" font-family="FreeSans" font-size="14.00" fill="#6666ff">Metamodel::TypePretense</text>
</a>
</g>
</g>
<!-- Metamodel::RolePunning -->
<g id="node26" class="node">
<title>Metamodel::RolePunning</title>
<g id="a_node26"><a xlink:href="/type/Metamodel::RolePunning" xlink:title="Metamodel::RolePunning">
<ellipse fill="none" stroke="#6666ff" cx="509.83" cy="-18" rx="109.68" ry="18"/>
<text text-anchor="middle" x="509.83" y="-14.3" font-family="FreeSans" font-size="14.00" fill="#6666ff">Metamodel::RolePunning</text>
</a>
</g>
</g>
<!-- Metamodel::ParametricRoleHOW -->
<g id="node27" class="node">
<title>Metamodel::ParametricRoleHOW</title>
<g id="a_node27"><a xlink:href="/type/Metamodel::ParametricRoleHOW" xlink:title="Metamodel::ParametricRoleHOW">
<ellipse fill="none" stroke="#000000" cx="652.91" cy="-597.39" rx="141.88" ry="18"/>
<text text-anchor="middle" x="652.91" y="-593.69" font-family="FreeSans" font-size="14.00" fill="#000000">Metamodel::ParametricRoleHOW</text>
</a>
</g>
</g>
<!-- Metamodel::ParametricRoleHOW&#45;&gt;Metamodel::AttributeContainer -->
<g id="edge43" class="edge">
<title>Metamodel::ParametricRoleHOW&#45;&gt;Metamodel::AttributeContainer</title>
<path fill="none" stroke="#6666ff" d="M654.5,-615.4C656.13,-633.8 658.42,-659.67 658.42,-659.67 658.42,-659.67 492.93,-1027.35 445.95,-1131.72"/>
<polygon fill="#6666ff" stroke="#6666ff" points="442.7,-1130.42 441.78,-1140.98 449.08,-1133.29 442.7,-1130.42"/>
</g>
<!-- Metamodel::ParametricRoleHOW&#45;&gt;Any -->
<g id="edge4" class="edge">
<title>Metamodel::ParametricRoleHOW&#45;&gt;Any</title>
<path fill="none" stroke="#000000" d="M694.3,-614.71C794.21,-656.52 1046.93,-762.28 1136.95,-799.95"/>
<polygon fill="#000000" stroke="#000000" points="1135.8,-803.26 1146.38,-803.89 1138.5,-796.8 1135.8,-803.26"/>
</g>
<!-- Metamodel::ParametricRoleHOW&#45;&gt;Metamodel::Naming -->
<g id="edge37" class="edge">
<title>Metamodel::ParametricRoleHOW&#45;&gt;Metamodel::Naming</title>
<path fill="none" stroke="#6666ff" d="M654.5,-615.4C656.13,-633.8 658.42,-659.67 658.42,-659.67 658.42,-659.67 550.1,-1035.52 550.1,-1035.52 550.1,-1035.52 565.24,-1159.14 565.24,-1159.14 565.24,-1159.14 505.06,-1207.12 505.06,-1207.12 505.06,-1207.12 492.34,-1242.61 482.94,-1268.85"/>
<polygon fill="#6666ff" stroke="#6666ff" points="479.61,-1267.76 479.53,-1278.36 486.2,-1270.12 479.61,-1267.76"/>
</g>
<!-- Metamodel::ParametricRoleHOW&#45;&gt;Metamodel::Documenting -->
<g id="edge38" class="edge">
<title>Metamodel::ParametricRoleHOW&#45;&gt;Metamodel::Documenting</title>
<path fill="none" stroke="#6666ff" d="M758.95,-609.35C902.36,-625.52 1156.36,-654.17 1297.27,-670.07"/>
<polygon fill="#6666ff" stroke="#6666ff" points="1296.89,-673.54 1307.21,-671.19 1297.67,-666.59 1296.89,-673.54"/>
</g>
<!-- Metamodel::ParametricRoleHOW&#45;&gt;Metamodel::Versioning -->
<g id="edge39" class="edge">
<title>Metamodel::ParametricRoleHOW&#45;&gt;Metamodel::Versioning</title>
<path fill="none" stroke="#6666ff" d="M654.5,-615.4C656.13,-633.8 658.42,-659.67 658.42,-659.67 658.42,-659.67 464.34,-862.46 395.11,-934.81"/>
<polygon fill="#6666ff" stroke="#6666ff" points="392.43,-932.54 388.05,-942.18 397.49,-937.38 392.43,-932.54"/>
</g>
<!-- Metamodel::ParametricRoleHOW&#45;&gt;Metamodel::Stashing -->
<g id="edge46" class="edge">
<title>Metamodel::ParametricRoleHOW&#45;&gt;Metamodel::Stashing</title>
<path fill="none" stroke="#6666ff" d="M660.84,-615.62C689.51,-681.51 786.09,-903.46 786.09,-903.46 786.09,-903.46 869.38,-1018.8 907.75,-1071.93"/>
<polygon fill="#6666ff" stroke="#6666ff" points="905.03,-1074.14 913.72,-1080.2 910.7,-1070.04 905.03,-1074.14"/>
</g>
<!-- Metamodel::ParametricRoleHOW&#45;&gt;Metamodel::MethodContainer -->
<g id="edge40" class="edge">
<title>Metamodel::ParametricRoleHOW&#45;&gt;Metamodel::MethodContainer</title>
<path fill="none" stroke="#6666ff" d="M654.5,-615.4C656.13,-633.8 658.42,-659.67 658.42,-659.67 658.42,-659.67 672.74,-920.16 677.54,-1007.44"/>
<polygon fill="#6666ff" stroke="#6666ff" points="674.04,-1007.63 678.09,-1017.43 681.03,-1007.25 674.04,-1007.63"/>
</g>
<!-- Metamodel::ParametricRoleHOW&#45;&gt;Metamodel::PrivateMethodContainer -->
<g id="edge41" class="edge">
<title>Metamodel::ParametricRoleHOW&#45;&gt;Metamodel::PrivateMethodContainer</title>
<path fill="none" stroke="#6666ff" d="M719.22,-581.41C778.06,-567.23 864.05,-546.51 925.98,-531.59"/>
<polygon fill="#6666ff" stroke="#6666ff" points="926.81,-534.99 935.71,-529.24 925.17,-528.18 926.81,-534.99"/>
</g>
<!-- Metamodel::ParametricRoleHOW&#45;&gt;Metamodel::MultiMethodContainer -->
<g id="edge42" class="edge">
<title>Metamodel::ParametricRoleHOW&#45;&gt;Metamodel::MultiMethodContainer</title>
<path fill="none" stroke="#6666ff" d="M669.65,-615.62C717.48,-667.73 854.89,-817.41 910.32,-877.8"/>
<polygon fill="#6666ff" stroke="#6666ff" points="907.94,-880.37 917.28,-885.37 913.09,-875.64 907.94,-880.37"/>
</g>
<!-- Metamodel::ParametricRoleHOW&#45;&gt;Metamodel::RoleContainer -->
<g id="edge44" class="edge">
<title>Metamodel::ParametricRoleHOW&#45;&gt;Metamodel::RoleContainer</title>
<path fill="none" stroke="#6666ff" d="M654.5,-615.4C656.13,-633.8 658.42,-659.67 658.42,-659.67 658.42,-659.67 550.1,-1035.52 550.1,-1035.52 550.1,-1035.52 590.45,-1131.44 610.84,-1179.91"/>
<polygon fill="#6666ff" stroke="#6666ff" points="607.64,-1181.34 614.75,-1189.2 614.1,-1178.63 607.64,-1181.34"/>
</g>
<!-- Metamodel::ParametricRoleHOW&#45;&gt;Metamodel::MultipleInheritance -->
<g id="edge45" class="edge">
<title>Metamodel::ParametricRoleHOW&#45;&gt;Metamodel::MultipleInheritance</title>
<path fill="none" stroke="#6666ff" d="M774.55,-588.09C847.85,-582.49 941.06,-575.36 1015.32,-569.68"/>
<polygon fill="#6666ff" stroke="#6666ff" points="1015.97,-573.14 1025.67,-568.89 1015.43,-566.16 1015.97,-573.14"/>
</g>
<!-- Metamodel::ParametricRoleHOW&#45;&gt;Metamodel::TypePretense -->
<g id="edge47" class="edge">
<title>Metamodel::ParametricRoleHOW&#45;&gt;Metamodel::TypePretense</title>
<path fill="none" stroke="#6666ff" d="M621.63,-579.62C529.02,-527.04 256.33,-372.19 153.89,-314.02"/>
<polygon fill="#6666ff" stroke="#6666ff" points="155.51,-310.92 145.09,-309.02 152.05,-317.01 155.51,-310.92"/>
</g>
<!-- Metamodel::ParametricRoleHOW&#45;&gt;Metamodel::RolePunning -->
<g id="edge48" class="edge">
<title>Metamodel::ParametricRoleHOW&#45;&gt;Metamodel::RolePunning</title>
<path fill="none" stroke="#6666ff" d="M648.39,-579.09C627.68,-495.21 541.74,-147.2 516.71,-45.83"/>
<polygon fill="#6666ff" stroke="#6666ff" points="520.08,-44.88 514.28,-36.01 513.28,-46.56 520.08,-44.88"/>
</g>
<!-- Metamodel::ConcreteRoleHOW -->
<g id="node28" class="node">
<title>Metamodel::ConcreteRoleHOW</title>
<g id="a_node28"><a xlink:href="/type/Metamodel::ConcreteRoleHOW" xlink:title="Metamodel::ConcreteRoleHOW">
<ellipse fill="none" stroke="#000000" cx="521.64" cy="-659.51" rx="135.38" ry="18"/>
<text text-anchor="middle" x="521.64" y="-655.81" font-family="FreeSans" font-size="14.00" fill="#000000">Metamodel::ConcreteRoleHOW</text>
</a>
</g>
</g>
<!-- Metamodel::ConcreteRoleHOW&#45;&gt;Metamodel::AttributeContainer -->
<g id="edge54" class="edge">
<title>Metamodel::ConcreteRoleHOW&#45;&gt;Metamodel::AttributeContainer</title>
<path fill="none" stroke="#6666ff" d="M518.69,-677.87C508.18,-743.15 473.26,-960.2 473.26,-960.2 473.26,-960.2 450.17,-1076.13 439.25,-1130.95"/>
<polygon fill="#6666ff" stroke="#6666ff" points="435.76,-1130.56 437.24,-1141.05 442.62,-1131.92 435.76,-1130.56"/>
</g>
<!-- Metamodel::ConcreteRoleHOW&#45;&gt;Any -->
<g id="edge5" class="edge">
<title>Metamodel::ConcreteRoleHOW&#45;&gt;Any</title>
<path fill="none" stroke="#000000" d="M587.92,-675.27C723.68,-707.55 1029.39,-780.24 1133.73,-805.05"/>
<polygon fill="#000000" stroke="#000000" points="1133.22,-808.52 1143.75,-807.43 1134.84,-801.71 1133.22,-808.52"/>
</g>
<!-- Metamodel::ConcreteRoleHOW&#45;&gt;Metamodel::Naming -->
<g id="edge49" class="edge">
<title>Metamodel::ConcreteRoleHOW&#45;&gt;Metamodel::Naming</title>
<path fill="none" stroke="#6666ff" d="M523.01,-677.65C528.7,-752.76 550.1,-1035.52 550.1,-1035.52 550.1,-1035.52 565.24,-1159.14 565.24,-1159.14 565.24,-1159.14 505.06,-1207.12 505.06,-1207.12 505.06,-1207.12 492.34,-1242.61 482.94,-1268.85"/>
<polygon fill="#6666ff" stroke="#6666ff" points="479.61,-1267.76 479.53,-1278.36 486.2,-1270.12 479.61,-1267.76"/>
</g>
<!-- Metamodel::ConcreteRoleHOW&#45;&gt;Metamodel::Versioning -->
<g id="edge50" class="edge">
<title>Metamodel::ConcreteRoleHOW&#45;&gt;Metamodel::Versioning</title>
<path fill="none" stroke="#6666ff" d="M512.44,-677.86C486.89,-728.81 414.97,-872.23 384.67,-932.67"/>
<polygon fill="#6666ff" stroke="#6666ff" points="381.36,-931.46 380.01,-941.96 387.62,-934.59 381.36,-931.46"/>
</g>
<!-- Metamodel::ConcreteRoleHOW&#45;&gt;Metamodel::MethodContainer -->
<g id="edge52" class="edge">
<title>Metamodel::ConcreteRoleHOW&#45;&gt;Metamodel::MethodContainer</title>
<path fill="none" stroke="#6666ff" d="M529.23,-677.65C554.64,-738.32 636.77,-934.48 667.41,-1007.68"/>
<polygon fill="#6666ff" stroke="#6666ff" points="664.29,-1009.29 671.38,-1017.16 670.75,-1006.59 664.29,-1009.29"/>
</g>
<!-- Metamodel::ConcreteRoleHOW&#45;&gt;Metamodel::PrivateMethodContainer -->
<g id="edge51" class="edge">
<title>Metamodel::ConcreteRoleHOW&#45;&gt;Metamodel::PrivateMethodContainer</title>
<path fill="none" stroke="#6666ff" d="M594.84,-644.32C662.95,-630.18 754,-611.28 754,-611.28 754,-611.28 796.2,-597.43 796.2,-597.43 796.2,-597.43 889.71,-559.29 951.04,-534.27"/>
<polygon fill="#6666ff" stroke="#6666ff" points="952.65,-537.39 960.59,-530.37 950.01,-530.91 952.65,-537.39"/>
</g>
<!-- Metamodel::ConcreteRoleHOW&#45;&gt;Metamodel::MultiMethodContainer -->
<g id="edge53" class="edge">
<title>Metamodel::ConcreteRoleHOW&#45;&gt;Metamodel::MultiMethodContainer</title>
<path fill="none" stroke="#6666ff" d="M551.62,-677.26C624.95,-720.66 813.33,-832.14 895.09,-880.53"/>
<polygon fill="#6666ff" stroke="#6666ff" points="893.67,-883.75 904.06,-885.83 897.23,-877.73 893.67,-883.75"/>
</g>
<!-- Metamodel::ConcreteRoleHOW&#45;&gt;Metamodel::RoleContainer -->
<g id="edge55" class="edge">
<title>Metamodel::ConcreteRoleHOW&#45;&gt;Metamodel::RoleContainer</title>
<path fill="none" stroke="#6666ff" d="M523.01,-677.65C528.7,-752.76 550.1,-1035.52 550.1,-1035.52 550.1,-1035.52 590.45,-1131.44 610.84,-1179.91"/>
<polygon fill="#6666ff" stroke="#6666ff" points="607.64,-1181.34 614.75,-1189.2 614.1,-1178.63 607.64,-1181.34"/>
</g>
<!-- Metamodel::ConcreteRoleHOW&#45;&gt;Metamodel::MultipleInheritance -->
<g id="edge56" class="edge">
<title>Metamodel::ConcreteRoleHOW&#45;&gt;Metamodel::MultipleInheritance</title>
<path fill="none" stroke="#6666ff" d="M608.29,-645.62C723.43,-627.16 926.22,-594.64 1046.07,-575.42"/>
<polygon fill="#6666ff" stroke="#6666ff" points="1046.66,-578.87 1055.98,-573.83 1045.55,-571.96 1046.66,-578.87"/>
</g>
</g>
</svg>
