<?xml version="1.0" encoding="UTF-8" standalone="no"?>
<!DOCTYPE svg PUBLIC "-//W3C//DTD SVG 1.1//EN"
 "http://www.w3.org/Graphics/SVG/1.1/DTD/svg11.dtd">
<!-- Generated by graphviz version 2.43.0 (0)
 -->
<!-- Title: perl6&#45;type&#45;graph Pages: 1 -->
<svg width="371pt" height="404pt"
 viewBox="0.00 0.00 370.67 404.00" xmlns="http://www.w3.org/2000/svg" xmlns:xlink="http://www.w3.org/1999/xlink">
<g id="graph0" class="graph" transform="scale(1 1) rotate(0) translate(4 400)">
<title>perl6&#45;type&#45;graph</title>
<polygon fill="white" stroke="transparent" points="-4,4 -4,-400 366.67,-400 366.67,4 -4,4"/>
<!-- X::Syntax::Augment::WithoutMonkeyTyping -->
<g id="node1" class="node">
<title>X::Syntax::Augment::WithoutMonkeyTyping</title>
<g id="a_node1"><a xlink:href="/type/X::Syntax::Augment::WithoutMonkeyTyping" xlink:title="X::Syntax::Augment::WithoutMonkeyTyping">
<ellipse fill="none" stroke="#000000" cx="181.33" cy="-18" rx="181.17" ry="18"/>
<text text-anchor="middle" x="181.33" y="-14.3" font-family="FreeSans" font-size="14.00" fill="#000000">X::Syntax::Augment::WithoutMonkeyTyping</text>
</a>
</g>
</g>
<!-- Exception -->
<g id="node4" class="node">
<title>Exception</title>
<g id="a_node4"><a xlink:href="/type/Exception" xlink:title="Exception">
<ellipse fill="none" stroke="#000000" cx="204.33" cy="-234" rx="49.29" ry="18"/>
<text text-anchor="middle" x="204.33" y="-230.3" font-family="FreeSans" font-size="14.00" fill="#000000">Exception</text>
</a>
</g>
</g>
<!-- X::Syntax::Augment::WithoutMonkeyTyping&#45;&gt;Exception -->
<g id="edge1" class="edge">
<title>X::Syntax::Augment::WithoutMonkeyTyping&#45;&gt;Exception</title>
<path fill="none" stroke="#000000" d="M179.3,-36.15C179.74,-73.34 188.98,-161.63 196.81,-206.23"/>
<polygon fill="#000000" stroke="#000000" points="193.37,-206.88 198.66,-216.06 200.25,-205.59 193.37,-206.88"/>
</g>
<!-- X::Syntax::Augment::WithoutMonkeyTyping&#45;&gt;Exception -->
<g id="edge2" class="edge">
<title>X::Syntax::Augment::WithoutMonkeyTyping&#45;&gt;Exception</title>
<path fill="none" stroke="#000000" d="M187.05,-36.15C194.57,-73.17 204.26,-160.82 206.08,-205.61"/>
<polygon fill="#000000" stroke="#000000" points="202.59,-205.87 206.37,-215.77 209.59,-205.67 202.59,-205.87"/>
</g>
<!-- X::Syntax -->
<g id="node6" class="node">
<title>X::Syntax</title>
<g id="a_node6"><a xlink:href="/type/X::Syntax" xlink:title="X::Syntax">
<ellipse fill="none" stroke="#6666ff" cx="266.33" cy="-90" rx="48.19" ry="18"/>
<text text-anchor="middle" x="266.33" y="-86.3" font-family="FreeSans" font-size="14.00" fill="#6666ff">X::Syntax</text>
</a>
</g>
</g>
<!-- X::Syntax::Augment::WithoutMonkeyTyping&#45;&gt;X::Syntax -->
<g id="edge7" class="edge">
<title>X::Syntax::Augment::WithoutMonkeyTyping&#45;&gt;X::Syntax</title>
<path fill="none" stroke="#6666ff" d="M201.91,-35.95C213.17,-45.22 227.25,-56.81 239.38,-66.8"/>
<polygon fill="#6666ff" stroke="#6666ff" points="237.46,-69.75 247.4,-73.41 241.91,-64.35 237.46,-69.75"/>
</g>
<!-- Mu -->
<g id="node2" class="node">
<title>Mu</title>
<g id="a_node2"><a xlink:href="/type/Mu" xlink:title="Mu">
<ellipse fill="none" stroke="#000000" cx="204.33" cy="-378" rx="27" ry="18"/>
<text text-anchor="middle" x="204.33" y="-374.3" font-family="FreeSans" font-size="14.00" fill="#000000">Mu</text>
</a>
</g>
</g>
<!-- Any -->
<g id="node3" class="node">
<title>Any</title>
<g id="a_node3"><a xlink:href="/type/Any" xlink:title="Any">
<ellipse fill="none" stroke="#000000" cx="204.33" cy="-306" rx="27" ry="18"/>
<text text-anchor="middle" x="204.33" y="-302.3" font-family="FreeSans" font-size="14.00" fill="#000000">Any</text>
</a>
</g>
</g>
<!-- Any&#45;&gt;Mu -->
<g id="edge3" class="edge">
<title>Any&#45;&gt;Mu</title>
<path fill="none" stroke="#000000" d="M204.33,-324.3C204.33,-332.02 204.33,-341.29 204.33,-349.89"/>
<polygon fill="#000000" stroke="#000000" points="200.83,-349.9 204.33,-359.9 207.83,-349.9 200.83,-349.9"/>
</g>
<!-- Exception&#45;&gt;Any -->
<g id="edge4" class="edge">
<title>Exception&#45;&gt;Any</title>
<path fill="none" stroke="#000000" d="M204.33,-252.3C204.33,-260.02 204.33,-269.29 204.33,-277.89"/>
<polygon fill="#000000" stroke="#000000" points="200.83,-277.9 204.33,-287.9 207.83,-277.9 200.83,-277.9"/>
</g>
<!-- X::Comp -->
<g id="node5" class="node">
<title>X::Comp</title>
<g id="a_node5"><a xlink:href="/type/X::Comp" xlink:title="X::Comp">
<ellipse fill="none" stroke="#6666ff" cx="301.33" cy="-162" rx="44.69" ry="18"/>
<text text-anchor="middle" x="301.33" y="-158.3" font-family="FreeSans" font-size="14.00" fill="#6666ff">X::Comp</text>
</a>
</g>
</g>
<!-- X::Comp&#45;&gt;Exception -->
<g id="edge5" class="edge">
<title>X::Comp&#45;&gt;Exception</title>
<path fill="none" stroke="#000000" d="M280.29,-178.19C266.78,-187.94 249.03,-200.74 234.09,-211.52"/>
<polygon fill="#000000" stroke="#000000" points="231.74,-208.91 225.68,-217.6 235.83,-214.59 231.74,-208.91"/>
</g>
<!-- X::Syntax&#45;&gt;Exception -->
<g id="edge6" class="edge">
<title>X::Syntax&#45;&gt;Exception</title>
<path fill="none" stroke="#000000" d="M258.98,-107.85C248.3,-132.29 228.42,-177.83 215.81,-206.71"/>
<polygon fill="#000000" stroke="#000000" points="212.47,-205.61 211.68,-216.18 218.89,-208.41 212.47,-205.61"/>
</g>
<!-- X::Syntax&#45;&gt;X::Comp -->
<g id="edge8" class="edge">
<title>X::Syntax&#45;&gt;X::Comp</title>
<path fill="none" stroke="#6666ff" d="M274.81,-107.95C278.89,-116.11 283.88,-126.09 288.42,-135.18"/>
<polygon fill="#6666ff" stroke="#6666ff" points="285.34,-136.83 292.94,-144.21 291.6,-133.7 285.34,-136.83"/>
</g>
</g>
</svg>
