<?xml version="1.0" encoding="UTF-8" standalone="no"?>
<!DOCTYPE svg PUBLIC "-//W3C//DTD SVG 1.1//EN"
 "http://www.w3.org/Graphics/SVG/1.1/DTD/svg11.dtd">
<!-- Generated by graphviz version 2.43.0 (0)
 -->
<!-- Title: perl6&#45;type&#45;graph Pages: 1 -->
<svg width="227pt" height="404pt"
 viewBox="0.00 0.00 227.24 404.00" xmlns="http://www.w3.org/2000/svg" xmlns:xlink="http://www.w3.org/1999/xlink">
<g id="graph0" class="graph" transform="scale(1 1) rotate(0) translate(4 400)">
<title>perl6&#45;type&#45;graph</title>
<polygon fill="white" stroke="transparent" points="-4,4 -4,-400 223.24,-400 223.24,4 -4,4"/>
<!-- X::Syntax::CannotMeta -->
<g id="node1" class="node">
<title>X::Syntax::CannotMeta</title>
<g id="a_node1"><a xlink:href="/type/X::Syntax::CannotMeta" xlink:title="X::Syntax::CannotMeta">
<ellipse fill="none" stroke="#000000" cx="101.39" cy="-18" rx="101.28" ry="18"/>
<text text-anchor="middle" x="101.39" y="-14.3" font-family="FreeSans" font-size="14.00" fill="#000000">X::Syntax::CannotMeta</text>
</a>
</g>
</g>
<!-- Exception -->
<g id="node4" class="node">
<title>Exception</title>
<g id="a_node4"><a xlink:href="/type/Exception" xlink:title="Exception">
<ellipse fill="none" stroke="#000000" cx="101.39" cy="-234" rx="49.29" ry="18"/>
<text text-anchor="middle" x="101.39" y="-230.3" font-family="FreeSans" font-size="14.00" fill="#000000">Exception</text>
</a>
</g>
</g>
<!-- X::Syntax::CannotMeta&#45;&gt;Exception -->
<g id="edge1" class="edge">
<title>X::Syntax::CannotMeta&#45;&gt;Exception</title>
<path fill="none" stroke="#000000" d="M95.27,-36.06C89.72,-51.55 82.39,-72 82.39,-72 82.39,-72 82.39,-108 82.39,-108 82.39,-108 91.66,-169.01 97.25,-205.78"/>
<polygon fill="#000000" stroke="#000000" points="93.83,-206.52 98.79,-215.88 100.75,-205.47 93.83,-206.52"/>
</g>
<!-- X::Syntax -->
<g id="node6" class="node">
<title>X::Syntax</title>
<g id="a_node6"><a xlink:href="/type/X::Syntax" xlink:title="X::Syntax">
<ellipse fill="none" stroke="#6666ff" cx="139.39" cy="-90" rx="48.19" ry="18"/>
<text text-anchor="middle" x="139.39" y="-86.3" font-family="FreeSans" font-size="14.00" fill="#6666ff">X::Syntax</text>
</a>
</g>
</g>
<!-- X::Syntax::CannotMeta&#45;&gt;X::Syntax -->
<g id="edge6" class="edge">
<title>X::Syntax::CannotMeta&#45;&gt;X::Syntax</title>
<path fill="none" stroke="#6666ff" d="M110.59,-35.95C115.02,-44.11 120.44,-54.09 125.37,-63.18"/>
<polygon fill="#6666ff" stroke="#6666ff" points="122.43,-65.09 130.28,-72.21 128.58,-61.75 122.43,-65.09"/>
</g>
<!-- Mu -->
<g id="node2" class="node">
<title>Mu</title>
<g id="a_node2"><a xlink:href="/type/Mu" xlink:title="Mu">
<ellipse fill="none" stroke="#000000" cx="101.39" cy="-378" rx="27" ry="18"/>
<text text-anchor="middle" x="101.39" y="-374.3" font-family="FreeSans" font-size="14.00" fill="#000000">Mu</text>
</a>
</g>
</g>
<!-- Any -->
<g id="node3" class="node">
<title>Any</title>
<g id="a_node3"><a xlink:href="/type/Any" xlink:title="Any">
<ellipse fill="none" stroke="#000000" cx="101.39" cy="-306" rx="27" ry="18"/>
<text text-anchor="middle" x="101.39" y="-302.3" font-family="FreeSans" font-size="14.00" fill="#000000">Any</text>
</a>
</g>
</g>
<!-- Any&#45;&gt;Mu -->
<g id="edge2" class="edge">
<title>Any&#45;&gt;Mu</title>
<path fill="none" stroke="#000000" d="M101.39,-324.3C101.39,-332.02 101.39,-341.29 101.39,-349.89"/>
<polygon fill="#000000" stroke="#000000" points="97.89,-349.9 101.39,-359.9 104.89,-349.9 97.89,-349.9"/>
</g>
<!-- Exception&#45;&gt;Any -->
<g id="edge3" class="edge">
<title>Exception&#45;&gt;Any</title>
<path fill="none" stroke="#000000" d="M101.39,-252.3C101.39,-260.02 101.39,-269.29 101.39,-277.89"/>
<polygon fill="#000000" stroke="#000000" points="97.89,-277.9 101.39,-287.9 104.89,-277.9 97.89,-277.9"/>
</g>
<!-- X::Comp -->
<g id="node5" class="node">
<title>X::Comp</title>
<g id="a_node5"><a xlink:href="/type/X::Comp" xlink:title="X::Comp">
<ellipse fill="none" stroke="#6666ff" cx="174.39" cy="-162" rx="44.69" ry="18"/>
<text text-anchor="middle" x="174.39" y="-158.3" font-family="FreeSans" font-size="14.00" fill="#6666ff">X::Comp</text>
</a>
</g>
</g>
<!-- X::Comp&#45;&gt;Exception -->
<g id="edge4" class="edge">
<title>X::Comp&#45;&gt;Exception</title>
<path fill="none" stroke="#000000" d="M157.83,-178.88C148.28,-188.04 136.11,-199.71 125.52,-209.87"/>
<polygon fill="#000000" stroke="#000000" points="122.94,-207.49 118.14,-216.94 127.78,-212.54 122.94,-207.49"/>
</g>
<!-- X::Syntax&#45;&gt;Exception -->
<g id="edge5" class="edge">
<title>X::Syntax&#45;&gt;Exception</title>
<path fill="none" stroke="#000000" d="M133.27,-108.06C127.72,-123.55 120.39,-144 120.39,-144 120.39,-144 112.74,-179.83 107.15,-206.03"/>
<polygon fill="#000000" stroke="#000000" points="103.72,-205.33 105.05,-215.84 110.57,-206.79 103.72,-205.33"/>
</g>
<!-- X::Syntax&#45;&gt;X::Comp -->
<g id="edge7" class="edge">
<title>X::Syntax&#45;&gt;X::Comp</title>
<path fill="none" stroke="#6666ff" d="M147.86,-107.95C151.95,-116.11 156.94,-126.09 161.48,-135.18"/>
<polygon fill="#6666ff" stroke="#6666ff" points="158.39,-136.83 166,-144.21 164.65,-133.7 158.39,-136.83"/>
</g>
</g>
</svg>
