<?xml version="1.0" encoding="UTF-8" standalone="no"?>
<!DOCTYPE svg PUBLIC "-//W3C//DTD SVG 1.1//EN"
 "http://www.w3.org/Graphics/SVG/1.1/DTD/svg11.dtd">
<!-- Generated by graphviz version 2.43.0 (0)
 -->
<!-- Title: perl6&#45;type&#45;graph Pages: 1 -->
<svg width="219pt" height="404pt"
 viewBox="0.00 0.00 218.79 404.00" xmlns="http://www.w3.org/2000/svg" xmlns:xlink="http://www.w3.org/1999/xlink">
<g id="graph0" class="graph" transform="scale(1 1) rotate(0) translate(4 400)">
<title>perl6&#45;type&#45;graph</title>
<polygon fill="#ffffff" stroke="transparent" points="-4,4 -4,-400 214.79,-400 214.79,4 -4,4"/>
<!-- X::Syntax::VirtualCall -->
<g id="node1" class="node">
<title>X::Syntax::VirtualCall</title>
<g id="a_node1"><a xlink:href="/type/X::Syntax::VirtualCall" xlink:title="X::Syntax::VirtualCall">
<ellipse fill="none" stroke="#000000" cx="92.94" cy="-18" rx="92.88" ry="18"/>
<text text-anchor="middle" x="92.94" y="-14.3" font-family="FreeSans" font-size="14.00" fill="#000000">X::Syntax::VirtualCall</text>
</a>
</g>
</g>
<!-- Exception -->
<g id="node4" class="node">
<title>Exception</title>
<g id="a_node4"><a xlink:href="/type/Exception" xlink:title="Exception">
<ellipse fill="none" stroke="#000000" cx="92.94" cy="-234" rx="49.29" ry="18"/>
<text text-anchor="middle" x="92.94" y="-230.3" font-family="FreeSans" font-size="14.00" fill="#000000">Exception</text>
</a>
</g>
</g>
<!-- X::Syntax::VirtualCall&#45;&gt;Exception -->
<g id="edge1" class="edge">
<title>X::Syntax::VirtualCall&#45;&gt;Exception</title>
<path fill="none" stroke="#000000" d="M86.83,-36.06C81.27,-51.55 73.94,-72 73.94,-72 73.94,-72 73.94,-108 73.94,-108 73.94,-108 83.21,-169.01 88.8,-205.78"/>
<polygon fill="#000000" stroke="#000000" points="85.38,-206.52 90.34,-215.88 92.3,-205.47 85.38,-206.52"/>
</g>
<!-- X::Syntax -->
<g id="node6" class="node">
<title>X::Syntax</title>
<g id="a_node6"><a xlink:href="/type/X::Syntax" xlink:title="X::Syntax">
<ellipse fill="none" stroke="#6666ff" cx="130.94" cy="-90" rx="48.19" ry="18"/>
<text text-anchor="middle" x="130.94" y="-86.3" font-family="FreeSans" font-size="14.00" fill="#6666ff">X::Syntax</text>
</a>
</g>
</g>
<!-- X::Syntax::VirtualCall&#45;&gt;X::Syntax -->
<g id="edge6" class="edge">
<title>X::Syntax::VirtualCall&#45;&gt;X::Syntax</title>
<path fill="none" stroke="#6666ff" d="M102.14,-35.95C106.57,-44.11 111.99,-54.09 116.92,-63.18"/>
<polygon fill="#6666ff" stroke="#6666ff" points="113.98,-65.09 121.83,-72.21 120.13,-61.75 113.98,-65.09"/>
</g>
<!-- Mu -->
<g id="node2" class="node">
<title>Mu</title>
<g id="a_node2"><a xlink:href="/type/Mu" xlink:title="Mu">
<ellipse fill="none" stroke="#000000" cx="92.94" cy="-378" rx="27" ry="18"/>
<text text-anchor="middle" x="92.94" y="-374.3" font-family="FreeSans" font-size="14.00" fill="#000000">Mu</text>
</a>
</g>
</g>
<!-- Any -->
<g id="node3" class="node">
<title>Any</title>
<g id="a_node3"><a xlink:href="/type/Any" xlink:title="Any">
<ellipse fill="none" stroke="#000000" cx="92.94" cy="-306" rx="27" ry="18"/>
<text text-anchor="middle" x="92.94" y="-302.3" font-family="FreeSans" font-size="14.00" fill="#000000">Any</text>
</a>
</g>
</g>
<!-- Any&#45;&gt;Mu -->
<g id="edge2" class="edge">
<title>Any&#45;&gt;Mu</title>
<path fill="none" stroke="#000000" d="M92.94,-324.3C92.94,-332.02 92.94,-341.29 92.94,-349.89"/>
<polygon fill="#000000" stroke="#000000" points="89.44,-349.9 92.94,-359.9 96.44,-349.9 89.44,-349.9"/>
</g>
<!-- Exception&#45;&gt;Any -->
<g id="edge3" class="edge">
<title>Exception&#45;&gt;Any</title>
<path fill="none" stroke="#000000" d="M92.94,-252.3C92.94,-260.02 92.94,-269.29 92.94,-277.89"/>
<polygon fill="#000000" stroke="#000000" points="89.44,-277.9 92.94,-287.9 96.44,-277.9 89.44,-277.9"/>
</g>
<!-- X::Comp -->
<g id="node5" class="node">
<title>X::Comp</title>
<g id="a_node5"><a xlink:href="/type/X::Comp" xlink:title="X::Comp">
<ellipse fill="none" stroke="#6666ff" cx="165.94" cy="-162" rx="44.69" ry="18"/>
<text text-anchor="middle" x="165.94" y="-158.3" font-family="FreeSans" font-size="14.00" fill="#6666ff">X::Comp</text>
</a>
</g>
</g>
<!-- X::Comp&#45;&gt;Exception -->
<g id="edge4" class="edge">
<title>X::Comp&#45;&gt;Exception</title>
<path fill="none" stroke="#000000" d="M149.38,-178.88C139.83,-188.04 127.66,-199.71 117.07,-209.87"/>
<polygon fill="#000000" stroke="#000000" points="114.49,-207.49 109.69,-216.94 119.33,-212.54 114.49,-207.49"/>
</g>
<!-- X::Syntax&#45;&gt;Exception -->
<g id="edge5" class="edge">
<title>X::Syntax&#45;&gt;Exception</title>
<path fill="none" stroke="#000000" d="M124.83,-108.06C119.27,-123.55 111.94,-144 111.94,-144 111.94,-144 104.29,-179.83 98.7,-206.03"/>
<polygon fill="#000000" stroke="#000000" points="95.27,-205.33 96.61,-215.84 102.12,-206.79 95.27,-205.33"/>
</g>
<!-- X::Syntax&#45;&gt;X::Comp -->
<g id="edge7" class="edge">
<title>X::Syntax&#45;&gt;X::Comp</title>
<path fill="none" stroke="#6666ff" d="M139.41,-107.95C143.5,-116.11 148.49,-126.09 153.03,-135.18"/>
<polygon fill="#6666ff" stroke="#6666ff" points="149.94,-136.83 157.55,-144.21 156.21,-133.7 149.94,-136.83"/>
</g>
</g>
</svg>
