<?xml version="1.0" encoding="UTF-8" standalone="no"?>
<!DOCTYPE svg PUBLIC "-//W3C//DTD SVG 1.1//EN"
 "http://www.w3.org/Graphics/SVG/1.1/DTD/svg11.dtd">
<!-- Generated by graphviz version 2.43.0 (0)
 -->
<!-- Title: raku&#45;type&#45;graph Pages: 1 -->
<svg width="465pt" height="404pt"
 viewBox="0.00 0.00 464.54 404.00" xmlns="http://www.w3.org/2000/svg" xmlns:xlink="http://www.w3.org/1999/xlink">
<g id="graph0" class="graph" transform="scale(1 1) rotate(0) translate(4 400)">
<title>raku&#45;type&#45;graph</title>
<polygon fill="#ffffff" stroke="transparent" points="-4,4 -4,-400 460.54,-400 460.54,4 -4,4"/>
<!-- Allomorph -->
<g id="node1" class="node">
<title>Allomorph</title>
<g id="a_node1"><a xlink:href="/type/Allomorph" xlink:title="Allomorph">
<ellipse fill="none" stroke="#000000" cx="319" cy="-90" rx="50.09" ry="18"/>
<text text-anchor="middle" x="319" y="-86.3" font-family="FreeSans" font-size="14.00" fill="#000000">Allomorph</text>
</a>
</g>
</g>
<!-- Str -->
<g id="node6" class="node">
<title>Str</title>
<g id="a_node6"><a xlink:href="/type/Str" xlink:title="Str">
<ellipse fill="none" stroke="#000000" cx="319" cy="-162" rx="27" ry="18"/>
<text text-anchor="middle" x="319" y="-158.3" font-family="FreeSans" font-size="14.00" fill="#000000">Str</text>
</a>
</g>
</g>
<!-- Allomorph&#45;&gt;Str -->
<g id="edge1" class="edge">
<title>Allomorph&#45;&gt;Str</title>
<path fill="none" stroke="#000000" d="M319,-108.3C319,-116.02 319,-125.29 319,-133.89"/>
<polygon fill="#000000" stroke="#000000" points="315.5,-133.9 319,-143.9 322.5,-133.9 315.5,-133.9"/>
</g>
<!-- Mu -->
<g id="node2" class="node">
<title>Mu</title>
<g id="a_node2"><a xlink:href="/type/Mu" xlink:title="Mu">
<ellipse fill="none" stroke="#000000" cx="239" cy="-378" rx="27" ry="18"/>
<text text-anchor="middle" x="239" y="-374.3" font-family="FreeSans" font-size="14.00" fill="#000000">Mu</text>
</a>
</g>
</g>
<!-- Any -->
<g id="node3" class="node">
<title>Any</title>
<g id="a_node3"><a xlink:href="/type/Any" xlink:title="Any">
<ellipse fill="none" stroke="#000000" cx="239" cy="-306" rx="27" ry="18"/>
<text text-anchor="middle" x="239" y="-302.3" font-family="FreeSans" font-size="14.00" fill="#000000">Any</text>
</a>
</g>
</g>
<!-- Any&#45;&gt;Mu -->
<g id="edge2" class="edge">
<title>Any&#45;&gt;Mu</title>
<path fill="none" stroke="#000000" d="M239,-324.3C239,-332.02 239,-341.29 239,-349.89"/>
<polygon fill="#000000" stroke="#000000" points="235.5,-349.9 239,-359.9 242.5,-349.9 235.5,-349.9"/>
</g>
<!-- Cool -->
<g id="node4" class="node">
<title>Cool</title>
<g id="a_node4"><a xlink:href="/type/Cool" xlink:title="Cool">
<ellipse fill="none" stroke="#000000" cx="239" cy="-234" rx="28.7" ry="18"/>
<text text-anchor="middle" x="239" y="-230.3" font-family="FreeSans" font-size="14.00" fill="#000000">Cool</text>
</a>
</g>
</g>
<!-- Cool&#45;&gt;Any -->
<g id="edge3" class="edge">
<title>Cool&#45;&gt;Any</title>
<path fill="none" stroke="#000000" d="M239,-252.3C239,-260.02 239,-269.29 239,-277.89"/>
<polygon fill="#000000" stroke="#000000" points="235.5,-277.9 239,-287.9 242.5,-277.9 235.5,-277.9"/>
</g>
<!-- Stringy -->
<g id="node5" class="node">
<title>Stringy</title>
<g id="a_node5"><a xlink:href="/type/Stringy" xlink:title="Stringy">
<ellipse fill="none" stroke="#6666ff" cx="324" cy="-234" rx="38.19" ry="18"/>
<text text-anchor="middle" x="324" y="-230.3" font-family="FreeSans" font-size="14.00" fill="#6666ff">Stringy</text>
</a>
</g>
</g>
<!-- Str&#45;&gt;Cool -->
<g id="edge4" class="edge">
<title>Str&#45;&gt;Cool</title>
<path fill="none" stroke="#000000" d="M303.19,-176.83C291.66,-186.93 275.81,-200.79 262.75,-212.21"/>
<polygon fill="#000000" stroke="#000000" points="260.27,-209.74 255.05,-218.96 264.88,-215.01 260.27,-209.74"/>
</g>
<!-- Str&#45;&gt;Stringy -->
<g id="edge17" class="edge">
<title>Str&#45;&gt;Stringy</title>
<path fill="none" stroke="#6666ff" d="M320.24,-180.3C320.79,-188.02 321.45,-197.29 322.06,-205.89"/>
<polygon fill="#6666ff" stroke="#6666ff" points="318.57,-206.17 322.78,-215.9 325.56,-205.67 318.57,-206.17"/>
</g>
<!-- Numeric -->
<g id="node7" class="node">
<title>Numeric</title>
<g id="a_node7"><a xlink:href="/type/Numeric" xlink:title="Numeric">
<ellipse fill="none" stroke="#6666ff" cx="365" cy="-306" rx="44.39" ry="18"/>
<text text-anchor="middle" x="365" y="-302.3" font-family="FreeSans" font-size="14.00" fill="#6666ff">Numeric</text>
</a>
</g>
</g>
<!-- Real -->
<g id="node8" class="node">
<title>Real</title>
<g id="a_node8"><a xlink:href="/type/Real" xlink:title="Real">
<ellipse fill="none" stroke="#6666ff" cx="142" cy="-234" rx="28.7" ry="18"/>
<text text-anchor="middle" x="142" y="-230.3" font-family="FreeSans" font-size="14.00" fill="#6666ff">Real</text>
</a>
</g>
</g>
<!-- Real&#45;&gt;Numeric -->
<g id="edge18" class="edge">
<title>Real&#45;&gt;Numeric</title>
<path fill="none" stroke="#6666ff" d="M167.15,-242.89C204.5,-254.62 275.17,-276.8 321.16,-291.24"/>
<polygon fill="#6666ff" stroke="#6666ff" points="320.27,-294.63 330.86,-294.28 322.37,-287.95 320.27,-294.63"/>
</g>
<!-- Rational -->
<g id="node9" class="node">
<title>Rational</title>
<g id="a_node9"><a xlink:href="/type/Rational" xlink:title="Rational">
<ellipse fill="none" stroke="#6666ff" cx="115" cy="-162" rx="42.79" ry="18"/>
<text text-anchor="middle" x="115" y="-158.3" font-family="FreeSans" font-size="14.00" fill="#6666ff">Rational</text>
</a>
</g>
</g>
<!-- Rational&#45;&gt;Real -->
<g id="edge19" class="edge">
<title>Rational&#45;&gt;Real</title>
<path fill="none" stroke="#6666ff" d="M121.54,-179.95C124.62,-187.94 128.37,-197.67 131.82,-206.6"/>
<polygon fill="#6666ff" stroke="#6666ff" points="128.66,-208.14 135.52,-216.21 135.19,-205.62 128.66,-208.14"/>
</g>
<!-- Rat -->
<g id="node10" class="node">
<title>Rat</title>
<g id="a_node10"><a xlink:href="/type/Rat" xlink:title="Rat">
<ellipse fill="none" stroke="#000000" cx="186" cy="-90" rx="27" ry="18"/>
<text text-anchor="middle" x="186" y="-86.3" font-family="FreeSans" font-size="14.00" fill="#000000">Rat</text>
</a>
</g>
</g>
<!-- Rat&#45;&gt;Cool -->
<g id="edge5" class="edge">
<title>Rat&#45;&gt;Cool</title>
<path fill="none" stroke="#000000" d="M189.66,-108.16C195.18,-134.02 205,-180 205,-180 205,-180 214.45,-194.74 223.39,-208.67"/>
<polygon fill="#000000" stroke="#000000" points="220.45,-210.57 228.8,-217.1 226.35,-206.79 220.45,-210.57"/>
</g>
<!-- Rat&#45;&gt;Rational -->
<g id="edge20" class="edge">
<title>Rat&#45;&gt;Rational</title>
<path fill="none" stroke="#6666ff" d="M171.29,-105.5C161.78,-114.87 149.21,-127.27 138.36,-137.97"/>
<polygon fill="#6666ff" stroke="#6666ff" points="135.84,-135.54 131.18,-145.05 140.76,-140.52 135.84,-135.54"/>
</g>
<!-- RatStr -->
<g id="node11" class="node">
<title>RatStr</title>
<g id="a_node11"><a xlink:href="/type/RatStr" xlink:title="RatStr">
<ellipse fill="none" stroke="#000000" cx="190" cy="-18" rx="36" ry="18"/>
<text text-anchor="middle" x="190" y="-14.3" font-family="FreeSans" font-size="14.00" fill="#000000">RatStr</text>
</a>
</g>
</g>
<!-- RatStr&#45;&gt;Allomorph -->
<g id="edge6" class="edge">
<title>RatStr&#45;&gt;Allomorph</title>
<path fill="none" stroke="#000000" d="M213.36,-31.68C232.89,-42.27 261.05,-57.55 283.39,-69.67"/>
<polygon fill="#000000" stroke="#000000" points="281.79,-72.79 292.25,-74.48 285.13,-66.64 281.79,-72.79"/>
</g>
<!-- RatStr&#45;&gt;Rat -->
<g id="edge7" class="edge">
<title>RatStr&#45;&gt;Rat</title>
<path fill="none" stroke="#000000" d="M189.01,-36.3C188.57,-44.02 188.04,-53.29 187.55,-61.89"/>
<polygon fill="#000000" stroke="#000000" points="184.05,-61.71 186.98,-71.9 191.04,-62.11 184.05,-61.71"/>
</g>
<!-- Int -->
<g id="node12" class="node">
<title>Int</title>
<g id="a_node12"><a xlink:href="/type/Int" xlink:title="Int">
<ellipse fill="none" stroke="#000000" cx="27" cy="-162" rx="27" ry="18"/>
<text text-anchor="middle" x="27" y="-158.3" font-family="FreeSans" font-size="14.00" fill="#000000">Int</text>
</a>
</g>
</g>
<!-- Int&#45;&gt;Cool -->
<g id="edge8" class="edge">
<title>Int&#45;&gt;Cool</title>
<path fill="none" stroke="#000000" d="M48.36,-173.09C56.11,-176.75 63,-180 63,-180 63,-180 152.75,-207.03 204.07,-222.48"/>
<polygon fill="#000000" stroke="#000000" points="203.2,-225.87 213.78,-225.41 205.22,-219.17 203.2,-225.87"/>
</g>
<!-- Int&#45;&gt;Real -->
<g id="edge21" class="edge">
<title>Int&#45;&gt;Real</title>
<path fill="none" stroke="#6666ff" d="M46.25,-174.72C64.52,-185.84 92.22,-202.7 113.13,-215.43"/>
<polygon fill="#6666ff" stroke="#6666ff" points="111.55,-218.56 121.92,-220.77 115.19,-212.59 111.55,-218.56"/>
</g>
<!-- IntStr -->
<g id="node13" class="node">
<title>IntStr</title>
<g id="a_node13"><a xlink:href="/type/IntStr" xlink:title="IntStr">
<ellipse fill="none" stroke="#000000" cx="86" cy="-18" rx="31.7" ry="18"/>
<text text-anchor="middle" x="86" y="-14.3" font-family="FreeSans" font-size="14.00" fill="#000000">IntStr</text>
</a>
</g>
</g>
<!-- IntStr&#45;&gt;Allomorph -->
<g id="edge9" class="edge">
<title>IntStr&#45;&gt;Allomorph</title>
<path fill="none" stroke="#000000" d="M113.64,-27.3C152.69,-39.04 224.54,-60.62 272.05,-74.89"/>
<polygon fill="#000000" stroke="#000000" points="271.21,-78.3 281.8,-77.82 273.23,-71.59 271.21,-78.3"/>
</g>
<!-- IntStr&#45;&gt;Int -->
<g id="edge10" class="edge">
<title>IntStr&#45;&gt;Int</title>
<path fill="none" stroke="#000000" d="M79,-35.85C68.84,-60.29 49.92,-105.83 37.92,-134.71"/>
<polygon fill="#000000" stroke="#000000" points="34.6,-133.6 33.99,-144.18 41.06,-136.28 34.6,-133.6"/>
</g>
<!-- Num -->
<g id="node14" class="node">
<title>Num</title>
<g id="a_node14"><a xlink:href="/type/Num" xlink:title="Num">
<ellipse fill="none" stroke="#000000" cx="244" cy="-162" rx="29.8" ry="18"/>
<text text-anchor="middle" x="244" y="-158.3" font-family="FreeSans" font-size="14.00" fill="#000000">Num</text>
</a>
</g>
</g>
<!-- Num&#45;&gt;Cool -->
<g id="edge11" class="edge">
<title>Num&#45;&gt;Cool</title>
<path fill="none" stroke="#000000" d="M242.76,-180.3C242.21,-188.02 241.55,-197.29 240.94,-205.89"/>
<polygon fill="#000000" stroke="#000000" points="237.44,-205.67 240.22,-215.9 244.43,-206.17 237.44,-205.67"/>
</g>
<!-- Num&#45;&gt;Real -->
<g id="edge22" class="edge">
<title>Num&#45;&gt;Real</title>
<path fill="none" stroke="#6666ff" d="M224.81,-176.17C209.19,-186.89 186.92,-202.17 169.42,-214.18"/>
<polygon fill="#6666ff" stroke="#6666ff" points="167.02,-211.58 160.75,-220.13 170.98,-217.36 167.02,-211.58"/>
</g>
<!-- NumStr -->
<g id="node15" class="node">
<title>NumStr</title>
<g id="a_node15"><a xlink:href="/type/NumStr" xlink:title="NumStr">
<ellipse fill="none" stroke="#000000" cx="285" cy="-18" rx="40.89" ry="18"/>
<text text-anchor="middle" x="285" y="-14.3" font-family="FreeSans" font-size="14.00" fill="#000000">NumStr</text>
</a>
</g>
</g>
<!-- NumStr&#45;&gt;Allomorph -->
<g id="edge12" class="edge">
<title>NumStr&#45;&gt;Allomorph</title>
<path fill="none" stroke="#000000" d="M293.23,-35.95C297.2,-44.11 302.04,-54.09 306.46,-63.18"/>
<polygon fill="#000000" stroke="#000000" points="303.33,-64.75 310.85,-72.21 309.62,-61.69 303.33,-64.75"/>
</g>
<!-- NumStr&#45;&gt;Num -->
<g id="edge13" class="edge">
<title>NumStr&#45;&gt;Num</title>
<path fill="none" stroke="#000000" d="M277.09,-35.77C269.77,-51.3 260,-72 260,-72 260,-72 253.62,-107.52 248.91,-133.68"/>
<polygon fill="#000000" stroke="#000000" points="245.41,-133.38 247.08,-143.84 252.3,-134.62 245.41,-133.38"/>
</g>
<!-- Complex -->
<g id="node16" class="node">
<title>Complex</title>
<g id="a_node16"><a xlink:href="/type/Complex" xlink:title="Complex">
<ellipse fill="none" stroke="#000000" cx="409" cy="-162" rx="45.49" ry="18"/>
<text text-anchor="middle" x="409" y="-158.3" font-family="FreeSans" font-size="14.00" fill="#000000">Complex</text>
</a>
</g>
</g>
<!-- Complex&#45;&gt;Cool -->
<g id="edge14" class="edge">
<title>Complex&#45;&gt;Cool</title>
<path fill="none" stroke="#000000" d="M378.05,-175.43C339.04,-191.09 277,-216 277,-216 277,-216 274.57,-217.09 270.94,-218.71"/>
<polygon fill="#000000" stroke="#000000" points="269.24,-215.64 261.54,-222.91 272.1,-222.03 269.24,-215.64"/>
</g>
<!-- Complex&#45;&gt;Numeric -->
<g id="edge23" class="edge">
<title>Complex&#45;&gt;Numeric</title>
<path fill="none" stroke="#6666ff" d="M403.69,-180.13C396.16,-204.44 382.3,-249.18 373.37,-277.99"/>
<polygon fill="#6666ff" stroke="#6666ff" points="369.94,-277.22 370.33,-287.81 376.63,-279.29 369.94,-277.22"/>
</g>
<!-- ComplexStr -->
<g id="node17" class="node">
<title>ComplexStr</title>
<g id="a_node17"><a xlink:href="/type/ComplexStr" xlink:title="ComplexStr">
<ellipse fill="none" stroke="#000000" cx="400" cy="-18" rx="56.59" ry="18"/>
<text text-anchor="middle" x="400" y="-14.3" font-family="FreeSans" font-size="14.00" fill="#000000">ComplexStr</text>
</a>
</g>
</g>
<!-- ComplexStr&#45;&gt;Allomorph -->
<g id="edge15" class="edge">
<title>ComplexStr&#45;&gt;Allomorph</title>
<path fill="none" stroke="#000000" d="M381.21,-35.24C370.51,-44.49 356.92,-56.23 345.18,-66.37"/>
<polygon fill="#000000" stroke="#000000" points="342.68,-63.91 337.41,-73.09 347.26,-69.2 342.68,-63.91"/>
</g>
<!-- ComplexStr&#45;&gt;Complex -->
<g id="edge16" class="edge">
<title>ComplexStr&#45;&gt;Complex</title>
<path fill="none" stroke="#000000" d="M401.09,-36.13C402.62,-60.33 405.44,-104.79 407.26,-133.61"/>
<polygon fill="#000000" stroke="#000000" points="403.78,-134.05 407.91,-143.81 410.77,-133.61 403.78,-134.05"/>
</g>
</g>
</svg>
