<?xml version="1.0" encoding="UTF-8" standalone="no"?>
<!DOCTYPE svg PUBLIC "-//W3C//DTD SVG 1.1//EN"
 "http://www.w3.org/Graphics/SVG/1.1/DTD/svg11.dtd">
<!-- Generated by graphviz version 2.43.0 (0)
 -->
<!-- Title: perl6&#45;type&#45;graph Pages: 1 -->
<svg width="1512pt" height="1548pt"
 viewBox="0.00 0.00 1512.04 1547.62" xmlns="http://www.w3.org/2000/svg" xmlns:xlink="http://www.w3.org/1999/xlink">
<g id="graph0" class="graph" transform="scale(1 1) rotate(0) translate(4 1543.62)">
<title>perl6&#45;type&#45;graph</title>
<polygon fill="white" stroke="transparent" points="-4,4 -4,-1543.62 1508.04,-1543.62 1508.04,4 -4,4"/>
<!-- Metamodel::C3MRO -->
<g id="node1" class="node">
<title>Metamodel::C3MRO</title>
<g id="a_node1"><a xlink:href="/type/Metamodel::C3MRO" xlink:title="Metamodel::C3MRO">
<ellipse fill="none" stroke="#6666ff" cx="579.75" cy="-614.36" rx="92.08" ry="18"/>
<text text-anchor="middle" x="579.75" y="-610.66" font-family="FreeSans" font-size="14.00" fill="#6666ff">Metamodel::C3MRO</text>
</a>
</g>
</g>
<!-- Mu -->
<g id="node2" class="node">
<title>Mu</title>
<g id="a_node2"><a xlink:href="/type/Mu" xlink:title="Mu">
<ellipse fill="none" stroke="#000000" cx="1477.04" cy="-18" rx="27" ry="18"/>
<text text-anchor="middle" x="1477.04" y="-14.3" font-family="FreeSans" font-size="14.00" fill="#000000">Mu</text>
</a>
</g>
</g>
<!-- Any -->
<g id="node3" class="node">
<title>Any</title>
<g id="a_node3"><a xlink:href="/type/Any" xlink:title="Any">
<ellipse fill="none" stroke="#000000" cx="1145.05" cy="-416.85" rx="27" ry="18"/>
<text text-anchor="middle" x="1145.05" y="-413.15" font-family="FreeSans" font-size="14.00" fill="#000000">Any</text>
</a>
</g>
</g>
<!-- Any&#45;&gt;Mu -->
<g id="edge1" class="edge">
<title>Any&#45;&gt;Mu</title>
<path fill="none" stroke="#000000" d="M1158.47,-400.72C1210.1,-338.69 1396.02,-115.34 1457.29,-41.72"/>
<polygon fill="#000000" stroke="#000000" points="1460.1,-43.82 1463.81,-33.89 1454.72,-39.34 1460.1,-43.82"/>
</g>
<!-- Metamodel::Naming -->
<g id="node4" class="node">
<title>Metamodel::Naming</title>
<g id="a_node4"><a xlink:href="/type/Metamodel::Naming" xlink:title="Metamodel::Naming">
<ellipse fill="none" stroke="#6666ff" cx="917.56" cy="-1211.48" rx="90.18" ry="18"/>
<text text-anchor="middle" x="917.56" y="-1207.78" font-family="FreeSans" font-size="14.00" fill="#6666ff">Metamodel::Naming</text>
</a>
</g>
</g>
<!-- Metamodel::Documenting -->
<g id="node5" class="node">
<title>Metamodel::Documenting</title>
<g id="a_node5"><a xlink:href="/type/Metamodel::Documenting" xlink:title="Metamodel::Documenting">
<ellipse fill="none" stroke="#6666ff" cx="1308.79" cy="-1094.2" rx="111.28" ry="18"/>
<text text-anchor="middle" x="1308.79" y="-1090.5" font-family="FreeSans" font-size="14.00" fill="#6666ff">Metamodel::Documenting</text>
</a>
</g>
</g>
<!-- Metamodel::Versioning -->
<g id="node6" class="node">
<title>Metamodel::Versioning</title>
<g id="a_node6"><a xlink:href="/type/Metamodel::Versioning" xlink:title="Metamodel::Versioning">
<ellipse fill="none" stroke="#6666ff" cx="548.52" cy="-1054.62" rx="100.98" ry="18"/>
<text text-anchor="middle" x="548.52" y="-1050.92" font-family="FreeSans" font-size="14.00" fill="#6666ff">Metamodel::Versioning</text>
</a>
</g>
</g>
<!-- Metamodel::Stashing -->
<g id="node7" class="node">
<title>Metamodel::Stashing</title>
<g id="a_node7"><a xlink:href="/type/Metamodel::Stashing" xlink:title="Metamodel::Stashing">
<ellipse fill="none" stroke="#6666ff" cx="749.05" cy="-435.92" rx="93.68" ry="18"/>
<text text-anchor="middle" x="749.05" y="-432.22" font-family="FreeSans" font-size="14.00" fill="#6666ff">Metamodel::Stashing</text>
</a>
</g>
</g>
<!-- Metamodel::AttributeContainer -->
<g id="node8" class="node">
<title>Metamodel::AttributeContainer</title>
<g id="a_node8"><a xlink:href="/type/Metamodel::AttributeContainer" xlink:title="Metamodel::AttributeContainer">
<ellipse fill="none" stroke="#6666ff" cx="1327.26" cy="-896.81" rx="129.98" ry="18"/>
<text text-anchor="middle" x="1327.26" y="-893.11" font-family="FreeSans" font-size="14.00" fill="#6666ff">Metamodel::AttributeContainer</text>
</a>
</g>
</g>
<!-- Metamodel::Finalization -->
<g id="node9" class="node">
<title>Metamodel::Finalization</title>
<g id="a_node9"><a xlink:href="/type/Metamodel::Finalization" xlink:title="Metamodel::Finalization">
<ellipse fill="none" stroke="#6666ff" cx="186.99" cy="-674.35" rx="103.98" ry="18"/>
<text text-anchor="middle" x="186.99" y="-670.65" font-family="FreeSans" font-size="14.00" fill="#6666ff">Metamodel::Finalization</text>
</a>
</g>
</g>
<!-- Metamodel::MethodContainer -->
<g id="node10" class="node">
<title>Metamodel::MethodContainer</title>
<g id="a_node10"><a xlink:href="/type/Metamodel::MethodContainer" xlink:title="Metamodel::MethodContainer">
<ellipse fill="none" stroke="#6666ff" cx="508.81" cy="-319.36" rx="127.28" ry="18"/>
<text text-anchor="middle" x="508.81" y="-315.66" font-family="FreeSans" font-size="14.00" fill="#6666ff">Metamodel::MethodContainer</text>
</a>
</g>
</g>
<!-- Metamodel::PrivateMethodContainer -->
<g id="node11" class="node">
<title>Metamodel::PrivateMethodContainer</title>
<g id="a_node11"><a xlink:href="/type/Metamodel::PrivateMethodContainer" xlink:title="Metamodel::PrivateMethodContainer">
<ellipse fill="none" stroke="#6666ff" cx="296.21" cy="-480.52" rx="154.87" ry="18"/>
<text text-anchor="middle" x="296.21" y="-476.82" font-family="FreeSans" font-size="14.00" fill="#6666ff">Metamodel::PrivateMethodContainer</text>
</a>
</g>
</g>
<!-- Metamodel::MultiMethodContainer -->
<g id="node12" class="node">
<title>Metamodel::MultiMethodContainer</title>
<g id="a_node12"><a xlink:href="/type/Metamodel::MultiMethodContainer" xlink:title="Metamodel::MultiMethodContainer">
<ellipse fill="none" stroke="#6666ff" cx="146.24" cy="-874.45" rx="146.47" ry="18"/>
<text text-anchor="middle" x="146.24" y="-870.75" font-family="FreeSans" font-size="14.00" fill="#6666ff">Metamodel::MultiMethodContainer</text>
</a>
</g>
</g>
<!-- Metamodel::RoleContainer -->
<g id="node13" class="node">
<title>Metamodel::RoleContainer</title>
<g id="a_node13"><a xlink:href="/type/Metamodel::RoleContainer" xlink:title="Metamodel::RoleContainer">
<ellipse fill="none" stroke="#6666ff" cx="1101.09" cy="-1440.82" rx="115.88" ry="18"/>
<text text-anchor="middle" x="1101.09" y="-1437.12" font-family="FreeSans" font-size="14.00" fill="#6666ff">Metamodel::RoleContainer</text>
</a>
</g>
</g>
<!-- Metamodel::MultipleInheritance -->
<g id="node14" class="node">
<title>Metamodel::MultipleInheritance</title>
<g id="a_node14"><a xlink:href="/type/Metamodel::MultipleInheritance" xlink:title="Metamodel::MultipleInheritance">
<ellipse fill="none" stroke="#6666ff" cx="1148.09" cy="-1166.65" rx="133.78" ry="18"/>
<text text-anchor="middle" x="1148.09" y="-1162.95" font-family="FreeSans" font-size="14.00" fill="#6666ff">Metamodel::MultipleInheritance</text>
</a>
</g>
</g>
<!-- Metamodel::DefaultParent -->
<g id="node15" class="node">
<title>Metamodel::DefaultParent</title>
<g id="a_node15"><a xlink:href="/type/Metamodel::DefaultParent" xlink:title="Metamodel::DefaultParent">
<ellipse fill="none" stroke="#6666ff" cx="598.91" cy="-1496.46" rx="113.18" ry="18"/>
<text text-anchor="middle" x="598.91" y="-1492.76" font-family="FreeSans" font-size="14.00" fill="#6666ff">Metamodel::DefaultParent</text>
</a>
</g>
</g>
<!-- Metamodel::MROBasedMethodDispatch -->
<g id="node16" class="node">
<title>Metamodel::MROBasedMethodDispatch</title>
<g id="a_node16"><a xlink:href="/type/Metamodel::MROBasedMethodDispatch" xlink:title="Metamodel::MROBasedMethodDispatch">
<ellipse fill="none" stroke="#6666ff" cx="911.08" cy="-382.97" rx="169.77" ry="18"/>
<text text-anchor="middle" x="911.08" y="-379.27" font-family="FreeSans" font-size="14.00" fill="#6666ff">Metamodel::MROBasedMethodDispatch</text>
</a>
</g>
</g>
<!-- Metamodel::MROBasedTypeChecking -->
<g id="node17" class="node">
<title>Metamodel::MROBasedTypeChecking</title>
<g id="a_node17"><a xlink:href="/type/Metamodel::MROBasedTypeChecking" xlink:title="Metamodel::MROBasedTypeChecking">
<ellipse fill="none" stroke="#6666ff" cx="1300.52" cy="-671.04" rx="163.27" ry="18"/>
<text text-anchor="middle" x="1300.52" y="-667.34" font-family="FreeSans" font-size="14.00" fill="#6666ff">Metamodel::MROBasedTypeChecking</text>
</a>
</g>
</g>
<!-- Metamodel::Trusting -->
<g id="node18" class="node">
<title>Metamodel::Trusting</title>
<g id="a_node18"><a xlink:href="/type/Metamodel::Trusting" xlink:title="Metamodel::Trusting">
<ellipse fill="none" stroke="#6666ff" cx="257.61" cy="-1275.91" rx="91.78" ry="18"/>
<text text-anchor="middle" x="257.61" y="-1272.21" font-family="FreeSans" font-size="14.00" fill="#6666ff">Metamodel::Trusting</text>
</a>
</g>
</g>
<!-- Metamodel::BUILDPLAN -->
<g id="node19" class="node">
<title>Metamodel::BUILDPLAN</title>
<g id="a_node19"><a xlink:href="/type/Metamodel::BUILDPLAN" xlink:title="Metamodel::BUILDPLAN">
<ellipse fill="none" stroke="#6666ff" cx="162.72" cy="-1080.79" rx="109.68" ry="18"/>
<text text-anchor="middle" x="162.72" y="-1077.09" font-family="FreeSans" font-size="14.00" fill="#6666ff">Metamodel::BUILDPLAN</text>
</a>
</g>
</g>
<!-- Metamodel::Mixins -->
<g id="node20" class="node">
<title>Metamodel::Mixins</title>
<g id="a_node20"><a xlink:href="/type/Metamodel::Mixins" xlink:title="Metamodel::Mixins">
<ellipse fill="none" stroke="#6666ff" cx="420.71" cy="-1419.69" rx="85.29" ry="18"/>
<text text-anchor="middle" x="420.71" y="-1415.99" font-family="FreeSans" font-size="14.00" fill="#6666ff">Metamodel::Mixins</text>
</a>
</g>
</g>
<!-- Metamodel::BoolificationProtocol -->
<g id="node21" class="node">
<title>Metamodel::BoolificationProtocol</title>
<g id="a_node21"><a xlink:href="/type/Metamodel::BoolificationProtocol" xlink:title="Metamodel::BoolificationProtocol">
<ellipse fill="none" stroke="#6666ff" cx="859.12" cy="-1521.62" rx="139.18" ry="18"/>
<text text-anchor="middle" x="859.12" y="-1517.92" font-family="FreeSans" font-size="14.00" fill="#6666ff">Metamodel::BoolificationProtocol</text>
</a>
</g>
</g>
<!-- Metamodel::ClassHOW -->
<g id="node22" class="node">
<title>Metamodel::ClassHOW</title>
<g id="a_node22"><a xlink:href="/type/Metamodel::ClassHOW" xlink:title="Metamodel::ClassHOW">
<ellipse fill="none" stroke="#000000" cx="738.13" cy="-911.05" rx="103.18" ry="18"/>
<text text-anchor="middle" x="738.13" y="-907.35" font-family="FreeSans" font-size="14.00" fill="#000000">Metamodel::ClassHOW</text>
</a>
</g>
</g>
<!-- Metamodel::ClassHOW&#45;&gt;Metamodel::C3MRO -->
<g id="edge16" class="edge">
<title>Metamodel::ClassHOW&#45;&gt;Metamodel::C3MRO</title>
<path fill="none" stroke="#6666ff" d="M728.46,-892.94C701.62,-842.66 626.08,-701.16 594.22,-641.47"/>
<polygon fill="#6666ff" stroke="#6666ff" points="597.29,-639.79 589.49,-632.62 591.11,-643.09 597.29,-639.79"/>
</g>
<!-- Metamodel::ClassHOW&#45;&gt;Any -->
<g id="edge2" class="edge">
<title>Metamodel::ClassHOW&#45;&gt;Any</title>
<path fill="none" stroke="#000000" d="M752.85,-893.17C814.9,-817.81 1055.15,-526.04 1125.55,-440.53"/>
<polygon fill="#000000" stroke="#000000" points="1128.35,-442.63 1132.01,-432.69 1122.95,-438.18 1128.35,-442.63"/>
</g>
<!-- Metamodel::ClassHOW&#45;&gt;Metamodel::Naming -->
<g id="edge4" class="edge">
<title>Metamodel::ClassHOW&#45;&gt;Metamodel::Naming</title>
<path fill="none" stroke="#6666ff" d="M749.08,-929.39C779.56,-980.42 865.47,-1124.27 901.42,-1184.46"/>
<polygon fill="#6666ff" stroke="#6666ff" points="898.61,-1186.58 906.75,-1193.38 904.62,-1183 898.61,-1186.58"/>
</g>
<!-- Metamodel::ClassHOW&#45;&gt;Metamodel::Documenting -->
<g id="edge5" class="edge">
<title>Metamodel::ClassHOW&#45;&gt;Metamodel::Documenting</title>
<path fill="none" stroke="#6666ff" d="M787.77,-926.98C892.51,-960.6 1135.73,-1038.66 1248.89,-1074.97"/>
<polygon fill="#6666ff" stroke="#6666ff" points="1247.86,-1078.32 1258.45,-1078.04 1249.99,-1071.65 1247.86,-1078.32"/>
</g>
<!-- Metamodel::ClassHOW&#45;&gt;Metamodel::Versioning -->
<g id="edge6" class="edge">
<title>Metamodel::ClassHOW&#45;&gt;Metamodel::Versioning</title>
<path fill="none" stroke="#6666ff" d="M714.88,-928.66C680.96,-954.34 617.81,-1002.16 579.83,-1030.92"/>
<polygon fill="#6666ff" stroke="#6666ff" points="577.52,-1028.27 571.66,-1037.1 581.75,-1033.85 577.52,-1028.27"/>
</g>
<!-- Metamodel::ClassHOW&#45;&gt;Metamodel::Stashing -->
<g id="edge7" class="edge">
<title>Metamodel::ClassHOW&#45;&gt;Metamodel::Stashing</title>
<path fill="none" stroke="#6666ff" d="M738.54,-893.01C740.2,-820.76 746.38,-552.04 748.4,-464.03"/>
<polygon fill="#6666ff" stroke="#6666ff" points="751.9,-464.06 748.63,-453.99 744.9,-463.9 751.9,-464.06"/>
</g>
<!-- Metamodel::ClassHOW&#45;&gt;Metamodel::AttributeContainer -->
<g id="edge8" class="edge">
<title>Metamodel::ClassHOW&#45;&gt;Metamodel::AttributeContainer</title>
<path fill="none" stroke="#6666ff" d="M840.75,-908.57C937.2,-906.24 1082.27,-902.73 1188.91,-900.16"/>
<polygon fill="#6666ff" stroke="#6666ff" points="1189.2,-903.65 1199.11,-899.91 1189.03,-896.65 1189.2,-903.65"/>
</g>
<!-- Metamodel::ClassHOW&#45;&gt;Metamodel::Finalization -->
<g id="edge9" class="edge">
<title>Metamodel::ClassHOW&#45;&gt;Metamodel::Finalization</title>
<path fill="none" stroke="#6666ff" d="M698.94,-894.22C600.46,-851.93 342.9,-741.31 235.31,-695.1"/>
<polygon fill="#6666ff" stroke="#6666ff" points="236.55,-691.83 225.98,-691.1 233.79,-698.26 236.55,-691.83"/>
</g>
<!-- Metamodel::ClassHOW&#45;&gt;Metamodel::MethodContainer -->
<g id="edge10" class="edge">
<title>Metamodel::ClassHOW&#45;&gt;Metamodel::MethodContainer</title>
<path fill="none" stroke="#6666ff" d="M734.19,-892.95C720.19,-828.57 673.64,-614.52 673.64,-614.52 673.64,-614.52 564.66,-419.38 523.93,-346.44"/>
<polygon fill="#6666ff" stroke="#6666ff" points="526.8,-344.4 518.87,-337.38 520.69,-347.82 526.8,-344.4"/>
</g>
<!-- Metamodel::ClassHOW&#45;&gt;Metamodel::PrivateMethodContainer -->
<g id="edge11" class="edge">
<title>Metamodel::ClassHOW&#45;&gt;Metamodel::PrivateMethodContainer</title>
<path fill="none" stroke="#6666ff" d="M719.7,-893.1C650.07,-825.27 402.86,-584.43 322.01,-505.66"/>
<polygon fill="#6666ff" stroke="#6666ff" points="324.32,-503.02 314.71,-498.55 319.43,-508.04 324.32,-503.02"/>
</g>
<!-- Metamodel::ClassHOW&#45;&gt;Metamodel::MultiMethodContainer -->
<g id="edge12" class="edge">
<title>Metamodel::ClassHOW&#45;&gt;Metamodel::MultiMethodContainer</title>
<path fill="none" stroke="#6666ff" d="M640.72,-905.03C544.46,-899.07 396.19,-889.9 287.1,-883.16"/>
<polygon fill="#6666ff" stroke="#6666ff" points="287.19,-879.66 277,-882.53 286.76,-886.64 287.19,-879.66"/>
</g>
<!-- Metamodel::ClassHOW&#45;&gt;Metamodel::RoleContainer -->
<g id="edge13" class="edge">
<title>Metamodel::ClassHOW&#45;&gt;Metamodel::RoleContainer</title>
<path fill="none" stroke="#6666ff" d="M754.29,-928.96C812.71,-993.67 1009.49,-1211.67 1009.49,-1211.67 1009.49,-1211.67 1065.86,-1352.68 1090.16,-1413.47"/>
<polygon fill="#6666ff" stroke="#6666ff" points="1086.95,-1414.85 1093.91,-1422.84 1093.45,-1412.25 1086.95,-1414.85"/>
</g>
<!-- Metamodel::ClassHOW&#45;&gt;Metamodel::MultipleInheritance -->
<g id="edge14" class="edge">
<title>Metamodel::ClassHOW&#45;&gt;Metamodel::MultipleInheritance</title>
<path fill="none" stroke="#6666ff" d="M765.99,-928.42C837.83,-973.21 1029.43,-1092.67 1110.76,-1143.37"/>
<polygon fill="#6666ff" stroke="#6666ff" points="1109.32,-1146.6 1119.65,-1148.92 1113.02,-1140.66 1109.32,-1146.6"/>
</g>
<!-- Metamodel::ClassHOW&#45;&gt;Metamodel::DefaultParent -->
<g id="edge15" class="edge">
<title>Metamodel::ClassHOW&#45;&gt;Metamodel::DefaultParent</title>
<path fill="none" stroke="#6666ff" d="M733.81,-929.21C713.8,-1013.37 630.02,-1365.65 605.61,-1468.28"/>
<polygon fill="#6666ff" stroke="#6666ff" points="602.16,-1467.68 603.25,-1478.22 608.97,-1469.3 602.16,-1467.68"/>
</g>
<!-- Metamodel::ClassHOW&#45;&gt;Metamodel::MROBasedMethodDispatch -->
<g id="edge17" class="edge">
<title>Metamodel::ClassHOW&#45;&gt;Metamodel::MROBasedMethodDispatch</title>
<path fill="none" stroke="#6666ff" d="M744.08,-892.87C769.73,-814.56 870.9,-505.65 901.96,-410.81"/>
<polygon fill="#6666ff" stroke="#6666ff" points="905.37,-411.66 905.15,-401.07 898.72,-409.48 905.37,-411.66"/>
</g>
<!-- Metamodel::ClassHOW&#45;&gt;Metamodel::MROBasedTypeChecking -->
<g id="edge18" class="edge">
<title>Metamodel::ClassHOW&#45;&gt;Metamodel::MROBasedTypeChecking</title>
<path fill="none" stroke="#6666ff" d="M780.64,-894.6C882.47,-855.19 1131.9,-758.64 1131.9,-758.64 1131.9,-758.64 1164.17,-744.83 1164.17,-744.83 1164.17,-744.83 1218.93,-715.19 1259.04,-693.48"/>
<polygon fill="#6666ff" stroke="#6666ff" points="1260.73,-696.55 1267.86,-688.71 1257.4,-690.39 1260.73,-696.55"/>
</g>
<!-- Metamodel::ClassHOW&#45;&gt;Metamodel::Trusting -->
<g id="edge19" class="edge">
<title>Metamodel::ClassHOW&#45;&gt;Metamodel::Trusting</title>
<path fill="none" stroke="#6666ff" d="M703.49,-928.08C626.16,-966.1 446.18,-1054.59 446.18,-1054.59 446.18,-1054.59 329.33,-1191.74 279.59,-1250.11"/>
<polygon fill="#6666ff" stroke="#6666ff" points="276.86,-1247.92 273.04,-1257.8 282.19,-1252.46 276.86,-1247.92"/>
</g>
<!-- Metamodel::ClassHOW&#45;&gt;Metamodel::BUILDPLAN -->
<g id="edge20" class="edge">
<title>Metamodel::ClassHOW&#45;&gt;Metamodel::BUILDPLAN</title>
<path fill="none" stroke="#6666ff" d="M685.54,-926.56C579.46,-957.86 340.25,-1028.42 225.9,-1062.15"/>
<polygon fill="#6666ff" stroke="#6666ff" points="224.83,-1058.82 216.23,-1065.01 226.81,-1065.54 224.83,-1058.82"/>
</g>
<!-- Metamodel::ClassHOW&#45;&gt;Metamodel::Mixins -->
<g id="edge21" class="edge">
<title>Metamodel::ClassHOW&#45;&gt;Metamodel::Mixins</title>
<path fill="none" stroke="#6666ff" d="M727.08,-929.24C703.59,-967.88 650.86,-1054.65 650.86,-1054.65 650.86,-1054.65 490.42,-1309.11 437.45,-1393.13"/>
<polygon fill="#6666ff" stroke="#6666ff" points="434.33,-1391.51 431.96,-1401.84 440.26,-1395.24 434.33,-1391.51"/>
</g>
<!-- Metamodel::ClassHOW&#45;&gt;Metamodel::BoolificationProtocol -->
<g id="edge22" class="edge">
<title>Metamodel::ClassHOW&#45;&gt;Metamodel::BoolificationProtocol</title>
<path fill="none" stroke="#6666ff" d="M741.75,-929.32C758.97,-1016.22 832.61,-1387.83 853.54,-1493.49"/>
<polygon fill="#6666ff" stroke="#6666ff" points="850.13,-1494.29 855.51,-1503.42 857,-1492.93 850.13,-1494.29"/>
</g>
<!-- Metamodel::NativeHOW -->
<g id="node23" class="node">
<title>Metamodel::NativeHOW</title>
<g id="a_node23"><a xlink:href="/type/Metamodel::NativeHOW" xlink:title="Metamodel::NativeHOW">
<ellipse fill="none" stroke="#000000" cx="1055.98" cy="-744.68" rx="106.68" ry="18"/>
<text text-anchor="middle" x="1055.98" y="-740.98" font-family="FreeSans" font-size="14.00" fill="#000000">Metamodel::NativeHOW</text>
</a>
</g>
</g>
<!-- Metamodel::NativeHOW&#45;&gt;Metamodel::C3MRO -->
<g id="edge28" class="edge">
<title>Metamodel::NativeHOW&#45;&gt;Metamodel::C3MRO</title>
<path fill="none" stroke="#6666ff" d="M999.95,-729.34C910.75,-704.94 736.99,-657.39 643.29,-631.75"/>
<polygon fill="#6666ff" stroke="#6666ff" points="643.94,-628.3 633.37,-629.04 642.09,-635.05 643.94,-628.3"/>
</g>
<!-- Metamodel::NativeHOW&#45;&gt;Any -->
<g id="edge3" class="edge">
<title>Metamodel::NativeHOW&#45;&gt;Any</title>
<path fill="none" stroke="#000000" d="M1060.9,-726.58C1075.65,-672.29 1119.61,-510.47 1137.43,-444.91"/>
<polygon fill="#000000" stroke="#000000" points="1140.9,-445.45 1140.15,-434.89 1134.15,-443.62 1140.9,-445.45"/>
</g>
<!-- Metamodel::NativeHOW&#45;&gt;Metamodel::Naming -->
<g id="edge23" class="edge">
<title>Metamodel::NativeHOW&#45;&gt;Metamodel::Naming</title>
<path fill="none" stroke="#6666ff" d="M1050.64,-762.69C1029.49,-834.02 951.51,-1096.98 925.82,-1183.6"/>
<polygon fill="#6666ff" stroke="#6666ff" points="922.45,-1182.68 922.96,-1193.26 929.16,-1184.67 922.45,-1182.68"/>
</g>
<!-- Metamodel::NativeHOW&#45;&gt;Metamodel::Documenting -->
<g id="edge24" class="edge">
<title>Metamodel::NativeHOW&#45;&gt;Metamodel::Documenting</title>
<path fill="none" stroke="#6666ff" d="M1069.22,-762.98C1111.03,-820.78 1240.4,-999.64 1289.56,-1067.61"/>
<polygon fill="#6666ff" stroke="#6666ff" points="1286.99,-1070.03 1295.69,-1076.08 1292.66,-1065.92 1286.99,-1070.03"/>
</g>
<!-- Metamodel::NativeHOW&#45;&gt;Metamodel::Versioning -->
<g id="edge25" class="edge">
<title>Metamodel::NativeHOW&#45;&gt;Metamodel::Versioning</title>
<path fill="none" stroke="#6666ff" d="M1033.2,-762.5C978.27,-805.45 843.07,-911.19 843.07,-911.19 843.07,-911.19 674.71,-993.17 592.57,-1033.17"/>
<polygon fill="#6666ff" stroke="#6666ff" points="590.92,-1030.08 583.47,-1037.6 593.99,-1036.37 590.92,-1030.08"/>
</g>
<!-- Metamodel::NativeHOW&#45;&gt;Metamodel::Stashing -->
<g id="edge26" class="edge">
<title>Metamodel::NativeHOW&#45;&gt;Metamodel::Stashing</title>
<path fill="none" stroke="#6666ff" d="M1038.16,-726.74C986.13,-674.41 834.4,-521.78 774.14,-461.16"/>
<polygon fill="#6666ff" stroke="#6666ff" points="776.46,-458.53 766.93,-453.91 771.49,-463.47 776.46,-458.53"/>
</g>
<!-- Metamodel::NativeHOW&#45;&gt;Metamodel::MultipleInheritance -->
<g id="edge27" class="edge">
<title>Metamodel::NativeHOW&#45;&gt;Metamodel::MultipleInheritance</title>
<path fill="none" stroke="#6666ff" d="M1059.94,-762.81C1074.41,-829.09 1124.49,-1058.52 1141.99,-1138.72"/>
<polygon fill="#6666ff" stroke="#6666ff" points="1138.6,-1139.56 1144.15,-1148.59 1145.44,-1138.07 1138.6,-1139.56"/>
</g>
<!-- Metamodel::NativeHOW&#45;&gt;Metamodel::MROBasedMethodDispatch -->
<g id="edge29" class="edge">
<title>Metamodel::NativeHOW&#45;&gt;Metamodel::MROBasedMethodDispatch</title>
<path fill="none" stroke="#6666ff" d="M1048.6,-726.24C1024.91,-667.1 950.71,-481.88 922.3,-410.97"/>
<polygon fill="#6666ff" stroke="#6666ff" points="925.42,-409.35 918.45,-401.36 918.92,-411.95 925.42,-409.35"/>
</g>
<!-- Metamodel::NativeHOW&#45;&gt;Metamodel::MROBasedTypeChecking -->
<g id="edge30" class="edge">
<title>Metamodel::NativeHOW&#45;&gt;Metamodel::MROBasedTypeChecking</title>
<path fill="none" stroke="#6666ff" d="M1108.14,-728.97C1145.08,-717.85 1194.9,-702.84 1234.58,-690.89"/>
<polygon fill="#6666ff" stroke="#6666ff" points="1235.62,-694.24 1244.18,-688 1233.6,-687.54 1235.62,-694.24"/>
</g>
</g>
</svg>
