<?xml version="1.0" encoding="UTF-8" standalone="no"?>
<!DOCTYPE svg PUBLIC "-//W3C//DTD SVG 1.1//EN"
 "http://www.w3.org/Graphics/SVG/1.1/DTD/svg11.dtd">
<!-- Generated by graphviz version 2.43.0 (0)
 -->
<!-- Title: perl6&#45;type&#45;graph Pages: 1 -->
<svg width="750pt" height="332pt"
 viewBox="0.00 0.00 750.19 332.00" xmlns="http://www.w3.org/2000/svg" xmlns:xlink="http://www.w3.org/1999/xlink">
<g id="graph0" class="graph" transform="scale(1 1) rotate(0) translate(4 328)">
<title>perl6&#45;type&#45;graph</title>
<polygon fill="white" stroke="transparent" points="-4,4 -4,-328 746.19,-328 746.19,4 -4,4"/>
<!-- Int -->
<g id="node1" class="node">
<title>Int</title>
<g id="a_node1"><a xlink:href="/type/Int" xlink:title="Int">
<ellipse fill="none" stroke="#000000" cx="436.35" cy="-90" rx="27" ry="18"/>
<text text-anchor="middle" x="436.35" y="-86.3" font-family="FreeSans" font-size="14.00" fill="#000000">Int</text>
</a>
</g>
</g>
<!-- Cool -->
<g id="node4" class="node">
<title>Cool</title>
<g id="a_node4"><a xlink:href="/type/Cool" xlink:title="Cool">
<ellipse fill="none" stroke="#000000" cx="575.35" cy="-162" rx="28.7" ry="18"/>
<text text-anchor="middle" x="575.35" y="-158.3" font-family="FreeSans" font-size="14.00" fill="#000000">Cool</text>
</a>
</g>
</g>
<!-- Int&#45;&gt;Cool -->
<g id="edge1" class="edge">
<title>Int&#45;&gt;Cool</title>
<path fill="none" stroke="#000000" d="M457.16,-101.48C480.22,-113.1 517.68,-131.96 544.23,-145.33"/>
<polygon fill="#000000" stroke="#000000" points="542.97,-148.61 553.48,-149.99 546.12,-142.36 542.97,-148.61"/>
</g>
<!-- Real -->
<g id="node6" class="node">
<title>Real</title>
<g id="a_node6"><a xlink:href="/type/Real" xlink:title="Real">
<ellipse fill="none" stroke="#6666ff" cx="436.35" cy="-162" rx="28.7" ry="18"/>
<text text-anchor="middle" x="436.35" y="-158.3" font-family="FreeSans" font-size="14.00" fill="#6666ff">Real</text>
</a>
</g>
</g>
<!-- Int&#45;&gt;Real -->
<g id="edge14" class="edge">
<title>Int&#45;&gt;Real</title>
<path fill="none" stroke="#6666ff" d="M436.35,-108.3C436.35,-116.02 436.35,-125.29 436.35,-133.89"/>
<polygon fill="#6666ff" stroke="#6666ff" points="432.85,-133.9 436.35,-143.9 439.85,-133.9 432.85,-133.9"/>
</g>
<!-- Mu -->
<g id="node2" class="node">
<title>Mu</title>
<g id="a_node2"><a xlink:href="/type/Mu" xlink:title="Mu">
<ellipse fill="none" stroke="#000000" cx="575.35" cy="-306" rx="27" ry="18"/>
<text text-anchor="middle" x="575.35" y="-302.3" font-family="FreeSans" font-size="14.00" fill="#000000">Mu</text>
</a>
</g>
</g>
<!-- Any -->
<g id="node3" class="node">
<title>Any</title>
<g id="a_node3"><a xlink:href="/type/Any" xlink:title="Any">
<ellipse fill="none" stroke="#000000" cx="575.35" cy="-234" rx="27" ry="18"/>
<text text-anchor="middle" x="575.35" y="-230.3" font-family="FreeSans" font-size="14.00" fill="#000000">Any</text>
</a>
</g>
</g>
<!-- Any&#45;&gt;Mu -->
<g id="edge2" class="edge">
<title>Any&#45;&gt;Mu</title>
<path fill="none" stroke="#000000" d="M575.35,-252.3C575.35,-260.02 575.35,-269.29 575.35,-277.89"/>
<polygon fill="#000000" stroke="#000000" points="571.85,-277.9 575.35,-287.9 578.85,-277.9 571.85,-277.9"/>
</g>
<!-- Cool&#45;&gt;Any -->
<g id="edge3" class="edge">
<title>Cool&#45;&gt;Any</title>
<path fill="none" stroke="#000000" d="M575.35,-180.3C575.35,-188.02 575.35,-197.29 575.35,-205.89"/>
<polygon fill="#000000" stroke="#000000" points="571.85,-205.9 575.35,-215.9 578.85,-205.9 571.85,-205.9"/>
</g>
<!-- Numeric -->
<g id="node5" class="node">
<title>Numeric</title>
<g id="a_node5"><a xlink:href="/type/Numeric" xlink:title="Numeric">
<ellipse fill="none" stroke="#6666ff" cx="436.35" cy="-234" rx="44.39" ry="18"/>
<text text-anchor="middle" x="436.35" y="-230.3" font-family="FreeSans" font-size="14.00" fill="#6666ff">Numeric</text>
</a>
</g>
</g>
<!-- Real&#45;&gt;Numeric -->
<g id="edge15" class="edge">
<title>Real&#45;&gt;Numeric</title>
<path fill="none" stroke="#6666ff" d="M436.35,-180.3C436.35,-188.02 436.35,-197.29 436.35,-205.89"/>
<polygon fill="#6666ff" stroke="#6666ff" points="432.85,-205.9 436.35,-215.9 439.85,-205.9 432.85,-205.9"/>
</g>
<!-- Endian -->
<g id="node7" class="node">
<title>Endian</title>
<g id="a_node7"><a xlink:href="/type/Endian" xlink:title="Endian">
<ellipse fill="none" stroke="#33bb33" cx="38.35" cy="-18" rx="38.19" ry="18"/>
<text text-anchor="middle" x="38.35" y="-14.3" font-family="FreeSans" font-size="14.00" fill="#33bb33">Endian</text>
</a>
</g>
</g>
<!-- Endian&#45;&gt;Int -->
<g id="edge4" class="edge">
<title>Endian&#45;&gt;Int</title>
<path fill="none" stroke="#000000" d="M67.85,-29.67C77.29,-33.09 85.35,-36 85.35,-36 85.35,-36 310.71,-70.03 400.27,-83.55"/>
<polygon fill="#000000" stroke="#000000" points="399.84,-87.03 410.25,-85.06 400.89,-80.11 399.84,-87.03"/>
</g>
<!-- int -->
<g id="node8" class="node">
<title>int</title>
<g id="a_node8"><a xlink:href="/type/int" xlink:title="int">
<ellipse fill="none" stroke="#000000" cx="121.35" cy="-18" rx="27" ry="18"/>
<text text-anchor="middle" x="121.35" y="-14.3" font-family="FreeSans" font-size="14.00" fill="#000000">int</text>
</a>
</g>
</g>
<!-- int&#45;&gt;Int -->
<g id="edge5" class="edge">
<title>int&#45;&gt;Int</title>
<path fill="none" stroke="#000000" d="M142.7,-29.09C150.46,-32.75 157.35,-36 157.35,-36 157.35,-36 325.35,-67.92 400.62,-82.21"/>
<polygon fill="#000000" stroke="#000000" points="400.12,-85.68 410.6,-84.11 401.43,-78.8 400.12,-85.68"/>
</g>
<!-- Signal -->
<g id="node9" class="node">
<title>Signal</title>
<g id="a_node9"><a xlink:href="/type/Signal" xlink:title="Signal">
<ellipse fill="none" stroke="#33bb33" cx="201.35" cy="-18" rx="35.19" ry="18"/>
<text text-anchor="middle" x="201.35" y="-14.3" font-family="FreeSans" font-size="14.00" fill="#33bb33">Signal</text>
</a>
</g>
</g>
<!-- Signal&#45;&gt;Int -->
<g id="edge6" class="edge">
<title>Signal&#45;&gt;Int</title>
<path fill="none" stroke="#000000" d="M228.46,-29.48C237.52,-32.97 245.35,-36 245.35,-36 245.35,-36 347.12,-64.24 402.08,-79.49"/>
<polygon fill="#000000" stroke="#000000" points="401.2,-82.88 411.77,-82.18 403.07,-76.13 401.2,-82.88"/>
</g>
<!-- Stringy -->
<g id="node10" class="node">
<title>Stringy</title>
<g id="a_node10"><a xlink:href="/type/Stringy" xlink:title="Stringy">
<ellipse fill="none" stroke="#6666ff" cx="685.35" cy="-162" rx="38.19" ry="18"/>
<text text-anchor="middle" x="685.35" y="-158.3" font-family="FreeSans" font-size="14.00" fill="#6666ff">Stringy</text>
</a>
</g>
</g>
<!-- Str -->
<g id="node11" class="node">
<title>Str</title>
<g id="a_node11"><a xlink:href="/type/Str" xlink:title="Str">
<ellipse fill="none" stroke="#000000" cx="685.35" cy="-90" rx="27" ry="18"/>
<text text-anchor="middle" x="685.35" y="-86.3" font-family="FreeSans" font-size="14.00" fill="#000000">Str</text>
</a>
</g>
</g>
<!-- Str&#45;&gt;Cool -->
<g id="edge7" class="edge">
<title>Str&#45;&gt;Cool</title>
<path fill="none" stroke="#000000" d="M666.19,-103.19C648.78,-114.27 622.9,-130.74 603.22,-143.27"/>
<polygon fill="#000000" stroke="#000000" points="601.21,-140.39 594.66,-148.71 604.97,-146.3 601.21,-140.39"/>
</g>
<!-- Str&#45;&gt;Stringy -->
<g id="edge16" class="edge">
<title>Str&#45;&gt;Stringy</title>
<path fill="none" stroke="#6666ff" d="M685.35,-108.3C685.35,-116.02 685.35,-125.29 685.35,-133.89"/>
<polygon fill="#6666ff" stroke="#6666ff" points="681.85,-133.9 685.35,-143.9 688.85,-133.9 681.85,-133.9"/>
</g>
<!-- IntStr -->
<g id="node12" class="node">
<title>IntStr</title>
<g id="a_node12"><a xlink:href="/type/IntStr" xlink:title="IntStr">
<ellipse fill="none" stroke="#000000" cx="710.35" cy="-18" rx="31.7" ry="18"/>
<text text-anchor="middle" x="710.35" y="-14.3" font-family="FreeSans" font-size="14.00" fill="#000000">IntStr</text>
</a>
</g>
</g>
<!-- IntStr&#45;&gt;Int -->
<g id="edge8" class="edge">
<title>IntStr&#45;&gt;Int</title>
<path fill="none" stroke="#000000" d="M685.08,-29.48C676.64,-32.97 669.35,-36 669.35,-36 669.35,-36 536.69,-66.18 471.57,-80.99"/>
<polygon fill="#000000" stroke="#000000" points="470.7,-77.6 461.73,-83.23 472.25,-84.42 470.7,-77.6"/>
</g>
<!-- IntStr&#45;&gt;Str -->
<g id="edge9" class="edge">
<title>IntStr&#45;&gt;Str</title>
<path fill="none" stroke="#000000" d="M704.29,-35.95C701.44,-43.94 697.96,-53.67 694.77,-62.6"/>
<polygon fill="#000000" stroke="#000000" points="691.41,-61.62 691.34,-72.21 698,-63.97 691.41,-61.62"/>
</g>
<!-- PromiseStatus -->
<g id="node13" class="node">
<title>PromiseStatus</title>
<g id="a_node13"><a xlink:href="/type/PromiseStatus" xlink:title="PromiseStatus">
<ellipse fill="none" stroke="#33bb33" cx="322.35" cy="-18" rx="67.69" ry="18"/>
<text text-anchor="middle" x="322.35" y="-14.3" font-family="FreeSans" font-size="14.00" fill="#33bb33">PromiseStatus</text>
</a>
</g>
</g>
<!-- PromiseStatus&#45;&gt;Int -->
<g id="edge10" class="edge">
<title>PromiseStatus&#45;&gt;Int</title>
<path fill="none" stroke="#000000" d="M347.93,-34.71C365.98,-45.79 390.15,-60.63 408.66,-72"/>
<polygon fill="#000000" stroke="#000000" points="406.88,-75.01 417.23,-77.26 410.54,-69.05 406.88,-75.01"/>
</g>
<!-- Bool -->
<g id="node14" class="node">
<title>Bool</title>
<g id="a_node14"><a xlink:href="/type/Bool" xlink:title="Bool">
<ellipse fill="none" stroke="#33bb33" cx="436.35" cy="-18" rx="28.7" ry="18"/>
<text text-anchor="middle" x="436.35" y="-14.3" font-family="FreeSans" font-size="14.00" fill="#33bb33">Bool</text>
</a>
</g>
</g>
<!-- Bool&#45;&gt;Int -->
<g id="edge11" class="edge">
<title>Bool&#45;&gt;Int</title>
<path fill="none" stroke="#000000" d="M436.35,-36.3C436.35,-44.02 436.35,-53.29 436.35,-61.89"/>
<polygon fill="#000000" stroke="#000000" points="432.85,-61.9 436.35,-71.9 439.85,-61.9 432.85,-61.9"/>
</g>
<!-- Order -->
<g id="node15" class="node">
<title>Order</title>
<g id="a_node15"><a xlink:href="/type/Order" xlink:title="Order">
<ellipse fill="none" stroke="#33bb33" cx="516.35" cy="-18" rx="33.6" ry="18"/>
<text text-anchor="middle" x="516.35" y="-14.3" font-family="FreeSans" font-size="14.00" fill="#33bb33">Order</text>
</a>
</g>
</g>
<!-- Order&#45;&gt;Int -->
<g id="edge12" class="edge">
<title>Order&#45;&gt;Int</title>
<path fill="none" stroke="#000000" d="M499.38,-33.85C487.94,-43.85 472.69,-57.2 460.06,-68.25"/>
<polygon fill="#000000" stroke="#000000" points="457.42,-65.91 452.2,-75.13 462.03,-71.18 457.42,-65.91"/>
</g>
<!-- atomicint -->
<g id="node16" class="node">
<title>atomicint</title>
<g id="a_node16"><a xlink:href="/type/atomicint" xlink:title="atomicint">
<ellipse fill="none" stroke="#000000" cx="614.35" cy="-18" rx="46.29" ry="18"/>
<text text-anchor="middle" x="614.35" y="-14.3" font-family="FreeSans" font-size="14.00" fill="#000000">atomicint</text>
</a>
</g>
</g>
<!-- atomicint&#45;&gt;Int -->
<g id="edge13" class="edge">
<title>atomicint&#45;&gt;Int</title>
<path fill="none" stroke="#000000" d="M582.93,-31.35C550.73,-44.02 500.91,-63.61 468.46,-76.37"/>
<polygon fill="#000000" stroke="#000000" points="467.01,-73.18 458.98,-80.1 469.57,-79.7 467.01,-73.18"/>
</g>
</g>
</svg>
