<?xml version="1.0" encoding="UTF-8" standalone="no"?>
<!DOCTYPE svg PUBLIC "-//W3C//DTD SVG 1.1//EN"
 "http://www.w3.org/Graphics/SVG/1.1/DTD/svg11.dtd">
<!-- Generated by graphviz version 2.43.0 (0)
 -->
<!-- Title: perl6&#45;type&#45;graph Pages: 1 -->
<svg width="1850pt" height="1652pt"
 viewBox="0.00 0.00 1850.23 1652.28" xmlns="http://www.w3.org/2000/svg" xmlns:xlink="http://www.w3.org/1999/xlink">
<g id="graph0" class="graph" transform="scale(1 1) rotate(0) translate(4 1648.28)">
<title>perl6&#45;type&#45;graph</title>
<polygon fill="white" stroke="transparent" points="-4,4 -4,-1648.28 1846.23,-1648.28 1846.23,4 -4,4"/>
<!-- Metamodel::PrivateMethodContainer -->
<g id="node1" class="node">
<title>Metamodel::PrivateMethodContainer</title>
<g id="a_node1"><a xlink:href="/type/Metamodel::PrivateMethodContainer" xlink:title="Metamodel::PrivateMethodContainer">
<ellipse fill="none" stroke="#6666ff" cx="938.86" cy="-959.41" rx="154.87" ry="18"/>
<text text-anchor="middle" x="938.86" y="-955.71" font-family="FreeSans" font-size="14.00" fill="#6666ff">Metamodel::PrivateMethodContainer</text>
</a>
</g>
</g>
<!-- Mu -->
<g id="node2" class="node">
<title>Mu</title>
<g id="a_node2"><a xlink:href="/type/Mu" xlink:title="Mu">
<ellipse fill="none" stroke="#000000" cx="753.51" cy="-18" rx="27" ry="18"/>
<text text-anchor="middle" x="753.51" y="-14.3" font-family="FreeSans" font-size="14.00" fill="#000000">Mu</text>
</a>
</g>
</g>
<!-- Any -->
<g id="node3" class="node">
<title>Any</title>
<g id="a_node3"><a xlink:href="/type/Any" xlink:title="Any">
<ellipse fill="none" stroke="#000000" cx="867.5" cy="-482.26" rx="27" ry="18"/>
<text text-anchor="middle" x="867.5" y="-478.56" font-family="FreeSans" font-size="14.00" fill="#000000">Any</text>
</a>
</g>
</g>
<!-- Any&#45;&gt;Mu -->
<g id="edge1" class="edge">
<title>Any&#45;&gt;Mu</title>
<path fill="none" stroke="#000000" d="M863.1,-464.34C845.68,-393.4 781.46,-131.82 760.31,-45.7"/>
<polygon fill="#000000" stroke="#000000" points="763.68,-44.74 757.9,-35.86 756.88,-46.41 763.68,-44.74"/>
</g>
<!-- Metamodel::Naming -->
<g id="node4" class="node">
<title>Metamodel::Naming</title>
<g id="a_node4"><a xlink:href="/type/Metamodel::Naming" xlink:title="Metamodel::Naming">
<ellipse fill="none" stroke="#6666ff" cx="1083.58" cy="-1190.72" rx="90.18" ry="18"/>
<text text-anchor="middle" x="1083.58" y="-1187.02" font-family="FreeSans" font-size="14.00" fill="#6666ff">Metamodel::Naming</text>
</a>
</g>
</g>
<!-- Metamodel::Documenting -->
<g id="node5" class="node">
<title>Metamodel::Documenting</title>
<g id="a_node5"><a xlink:href="/type/Metamodel::Documenting" xlink:title="Metamodel::Documenting">
<ellipse fill="none" stroke="#6666ff" cx="1042.17" cy="-1408.24" rx="111.28" ry="18"/>
<text text-anchor="middle" x="1042.17" y="-1404.54" font-family="FreeSans" font-size="14.00" fill="#6666ff">Metamodel::Documenting</text>
</a>
</g>
</g>
<!-- Metamodel::Versioning -->
<g id="node6" class="node">
<title>Metamodel::Versioning</title>
<g id="a_node6"><a xlink:href="/type/Metamodel::Versioning" xlink:title="Metamodel::Versioning">
<ellipse fill="none" stroke="#6666ff" cx="952.56" cy="-1137.77" rx="100.98" ry="18"/>
<text text-anchor="middle" x="952.56" y="-1134.07" font-family="FreeSans" font-size="14.00" fill="#6666ff">Metamodel::Versioning</text>
</a>
</g>
</g>
<!-- Metamodel::MethodContainer -->
<g id="node7" class="node">
<title>Metamodel::MethodContainer</title>
<g id="a_node7"><a xlink:href="/type/Metamodel::MethodContainer" xlink:title="Metamodel::MethodContainer">
<ellipse fill="none" stroke="#6666ff" cx="683.26" cy="-625.14" rx="127.28" ry="18"/>
<text text-anchor="middle" x="683.26" y="-621.44" font-family="FreeSans" font-size="14.00" fill="#6666ff">Metamodel::MethodContainer</text>
</a>
</g>
</g>
<!-- Metamodel::MultiMethodContainer -->
<g id="node8" class="node">
<title>Metamodel::MultiMethodContainer</title>
<g id="a_node8"><a xlink:href="/type/Metamodel::MultiMethodContainer" xlink:title="Metamodel::MultiMethodContainer">
<ellipse fill="none" stroke="#6666ff" cx="1250.29" cy="-1234.76" rx="146.47" ry="18"/>
<text text-anchor="middle" x="1250.29" y="-1231.06" font-family="FreeSans" font-size="14.00" fill="#6666ff">Metamodel::MultiMethodContainer</text>
</a>
</g>
</g>
<!-- Metamodel::AttributeContainer -->
<g id="node9" class="node">
<title>Metamodel::AttributeContainer</title>
<g id="a_node9"><a xlink:href="/type/Metamodel::AttributeContainer" xlink:title="Metamodel::AttributeContainer">
<ellipse fill="none" stroke="#6666ff" cx="861.18" cy="-801.3" rx="129.98" ry="18"/>
<text text-anchor="middle" x="861.18" y="-797.6" font-family="FreeSans" font-size="14.00" fill="#6666ff">Metamodel::AttributeContainer</text>
</a>
</g>
</g>
<!-- Metamodel::RoleContainer -->
<g id="node10" class="node">
<title>Metamodel::RoleContainer</title>
<g id="a_node10"><a xlink:href="/type/Metamodel::RoleContainer" xlink:title="Metamodel::RoleContainer">
<ellipse fill="none" stroke="#6666ff" cx="1246.81" cy="-1085.08" rx="115.88" ry="18"/>
<text text-anchor="middle" x="1246.81" y="-1081.38" font-family="FreeSans" font-size="14.00" fill="#6666ff">Metamodel::RoleContainer</text>
</a>
</g>
</g>
<!-- Metamodel::MultipleInheritance -->
<g id="node11" class="node">
<title>Metamodel::MultipleInheritance</title>
<g id="a_node11"><a xlink:href="/type/Metamodel::MultipleInheritance" xlink:title="Metamodel::MultipleInheritance">
<ellipse fill="none" stroke="#6666ff" cx="952.79" cy="-628.62" rx="133.78" ry="18"/>
<text text-anchor="middle" x="952.79" y="-624.92" font-family="FreeSans" font-size="14.00" fill="#6666ff">Metamodel::MultipleInheritance</text>
</a>
</g>
</g>
<!-- Metamodel::Stashing -->
<g id="node12" class="node">
<title>Metamodel::Stashing</title>
<g id="a_node12"><a xlink:href="/type/Metamodel::Stashing" xlink:title="Metamodel::Stashing">
<ellipse fill="none" stroke="#6666ff" cx="562.45" cy="-735.63" rx="93.68" ry="18"/>
<text text-anchor="middle" x="562.45" y="-731.93" font-family="FreeSans" font-size="14.00" fill="#6666ff">Metamodel::Stashing</text>
</a>
</g>
</g>
<!-- Metamodel::TypePretense -->
<g id="node13" class="node">
<title>Metamodel::TypePretense</title>
<g id="a_node13"><a xlink:href="/type/Metamodel::TypePretense" xlink:title="Metamodel::TypePretense">
<ellipse fill="none" stroke="#6666ff" cx="1570.69" cy="-435.61" rx="114.28" ry="18"/>
<text text-anchor="middle" x="1570.69" y="-431.91" font-family="FreeSans" font-size="14.00" fill="#6666ff">Metamodel::TypePretense</text>
</a>
</g>
</g>
<!-- Metamodel::RolePunning -->
<g id="node14" class="node">
<title>Metamodel::RolePunning</title>
<g id="a_node14"><a xlink:href="/type/Metamodel::RolePunning" xlink:title="Metamodel::RolePunning">
<ellipse fill="none" stroke="#6666ff" cx="1732.39" cy="-803.14" rx="109.68" ry="18"/>
<text text-anchor="middle" x="1732.39" y="-799.44" font-family="FreeSans" font-size="14.00" fill="#6666ff">Metamodel::RolePunning</text>
</a>
</g>
</g>
<!-- Metamodel::ParametricRoleHOW -->
<g id="node15" class="node">
<title>Metamodel::ParametricRoleHOW</title>
<g id="a_node15"><a xlink:href="/type/Metamodel::ParametricRoleHOW" xlink:title="Metamodel::ParametricRoleHOW">
<ellipse fill="none" stroke="#000000" cx="1226.72" cy="-800.11" rx="141.88" ry="18"/>
<text text-anchor="middle" x="1226.72" y="-796.41" font-family="FreeSans" font-size="14.00" fill="#000000">Metamodel::ParametricRoleHOW</text>
</a>
</g>
</g>
<!-- Metamodel::ParametricRoleHOW&#45;&gt;Metamodel::PrivateMethodContainer -->
<g id="edge9" class="edge">
<title>Metamodel::ParametricRoleHOW&#45;&gt;Metamodel::PrivateMethodContainer</title>
<path fill="none" stroke="#6666ff" d="M1194.81,-817.76C1142.29,-846.83 1037.68,-904.72 979.78,-936.76"/>
<polygon fill="#6666ff" stroke="#6666ff" points="977.96,-933.77 970.91,-941.68 981.35,-939.9 977.96,-933.77"/>
</g>
<!-- Metamodel::ParametricRoleHOW&#45;&gt;Any -->
<g id="edge2" class="edge">
<title>Metamodel::ParametricRoleHOW&#45;&gt;Any</title>
<path fill="none" stroke="#000000" d="M1203.21,-782.33C1164.11,-752.76 1089.97,-696.69 1089.97,-696.69 1089.97,-696.69 1088.28,-628.73 1088.28,-628.73 1088.28,-628.73 954.5,-539.98 895.22,-500.65"/>
<polygon fill="#000000" stroke="#000000" points="896.97,-497.61 886.7,-495 893.1,-503.45 896.97,-497.61"/>
</g>
<!-- Metamodel::ParametricRoleHOW&#45;&gt;Metamodel::Naming -->
<g id="edge5" class="edge">
<title>Metamodel::ParametricRoleHOW&#45;&gt;Metamodel::Naming</title>
<path fill="none" stroke="#6666ff" d="M1220.1,-818.16C1197.26,-880.5 1121.59,-1086.97 1093.87,-1162.62"/>
<polygon fill="#6666ff" stroke="#6666ff" points="1090.44,-1161.81 1090.29,-1172.4 1097.02,-1164.21 1090.44,-1161.81"/>
</g>
<!-- Metamodel::ParametricRoleHOW&#45;&gt;Metamodel::Documenting -->
<g id="edge6" class="edge">
<title>Metamodel::ParametricRoleHOW&#45;&gt;Metamodel::Documenting</title>
<path fill="none" stroke="#6666ff" d="M1217.48,-818.26C1181.79,-888.41 1054.91,-1137.82 1054.91,-1137.82 1054.91,-1137.82 991.64,-1190.6 991.64,-1190.6 991.64,-1190.6 1022.04,-1321.55 1035.69,-1380.3"/>
<polygon fill="#6666ff" stroke="#6666ff" points="1032.28,-1381.11 1037.95,-1390.06 1039.1,-1379.52 1032.28,-1381.11"/>
</g>
<!-- Metamodel::ParametricRoleHOW&#45;&gt;Metamodel::Versioning -->
<g id="edge7" class="edge">
<title>Metamodel::ParametricRoleHOW&#45;&gt;Metamodel::Versioning</title>
<path fill="none" stroke="#6666ff" d="M1211.98,-818.26C1166.22,-874.62 1026.51,-1046.7 973.37,-1112.14"/>
<polygon fill="#6666ff" stroke="#6666ff" points="970.63,-1109.96 967.04,-1119.93 976.06,-1114.38 970.63,-1109.96"/>
</g>
<!-- Metamodel::ParametricRoleHOW&#45;&gt;Metamodel::MethodContainer -->
<g id="edge8" class="edge">
<title>Metamodel::ParametricRoleHOW&#45;&gt;Metamodel::MethodContainer</title>
<path fill="none" stroke="#6666ff" d="M1174.61,-783.33C1073.75,-750.86 852.31,-679.56 744.57,-644.87"/>
<polygon fill="#6666ff" stroke="#6666ff" points="745.41,-641.47 734.81,-641.73 743.26,-648.13 745.41,-641.47"/>
</g>
<!-- Metamodel::ParametricRoleHOW&#45;&gt;Metamodel::MultiMethodContainer -->
<g id="edge10" class="edge">
<title>Metamodel::ParametricRoleHOW&#45;&gt;Metamodel::MultiMethodContainer</title>
<path fill="none" stroke="#6666ff" d="M1220.49,-818.36C1199.04,-881.23 1129.52,-1084.95 1129.52,-1084.95 1129.52,-1084.95 1194.63,-1165.72 1229.24,-1208.64"/>
<polygon fill="#6666ff" stroke="#6666ff" points="1226.72,-1211.1 1235.72,-1216.69 1232.17,-1206.71 1226.72,-1211.1"/>
</g>
<!-- Metamodel::ParametricRoleHOW&#45;&gt;Metamodel::AttributeContainer -->
<g id="edge11" class="edge">
<title>Metamodel::ParametricRoleHOW&#45;&gt;Metamodel::AttributeContainer</title>
<path fill="none" stroke="#6666ff" d="M1084.87,-800.57C1057.43,-800.66 1028.7,-800.75 1001.32,-800.84"/>
<polygon fill="#6666ff" stroke="#6666ff" points="1001.29,-797.34 991.3,-800.87 1001.31,-804.34 1001.29,-797.34"/>
</g>
<!-- Metamodel::ParametricRoleHOW&#45;&gt;Metamodel::RoleContainer -->
<g id="edge12" class="edge">
<title>Metamodel::ParametricRoleHOW&#45;&gt;Metamodel::RoleContainer</title>
<path fill="none" stroke="#6666ff" d="M1228,-818.37C1231.41,-866.72 1240.7,-998.37 1244.81,-1056.66"/>
<polygon fill="#6666ff" stroke="#6666ff" points="1241.34,-1057.24 1245.54,-1066.97 1248.32,-1056.75 1241.34,-1057.24"/>
</g>
<!-- Metamodel::ParametricRoleHOW&#45;&gt;Metamodel::MultipleInheritance -->
<g id="edge13" class="edge">
<title>Metamodel::ParametricRoleHOW&#45;&gt;Metamodel::MultipleInheritance</title>
<path fill="none" stroke="#6666ff" d="M1198.43,-782.4C1148.58,-751.19 1045.12,-686.42 989.71,-651.73"/>
<polygon fill="#6666ff" stroke="#6666ff" points="991.25,-648.57 980.92,-646.23 987.54,-654.5 991.25,-648.57"/>
</g>
<!-- Metamodel::ParametricRoleHOW&#45;&gt;Metamodel::Stashing -->
<g id="edge14" class="edge">
<title>Metamodel::ParametricRoleHOW&#45;&gt;Metamodel::Stashing</title>
<path fill="none" stroke="#6666ff" d="M1114.03,-789.17C985.27,-776.67 776.86,-756.44 656.47,-744.76"/>
<polygon fill="#6666ff" stroke="#6666ff" points="656.46,-741.24 646.17,-743.76 655.78,-748.21 656.46,-741.24"/>
</g>
<!-- Metamodel::ParametricRoleHOW&#45;&gt;Metamodel::TypePretense -->
<g id="edge15" class="edge">
<title>Metamodel::ParametricRoleHOW&#45;&gt;Metamodel::TypePretense</title>
<path fill="none" stroke="#6666ff" d="M1250.55,-782.14C1289.75,-752.59 1363.54,-696.97 1363.54,-696.97 1363.54,-696.97 1497.91,-527.44 1550.21,-461.45"/>
<polygon fill="#6666ff" stroke="#6666ff" points="1552.99,-463.59 1556.46,-453.58 1547.5,-459.24 1552.99,-463.59"/>
</g>
<!-- Metamodel::ParametricRoleHOW&#45;&gt;Metamodel::RolePunning -->
<g id="edge16" class="edge">
<title>Metamodel::ParametricRoleHOW&#45;&gt;Metamodel::RolePunning</title>
<path fill="none" stroke="#6666ff" d="M1368.58,-800.96C1445.31,-801.42 1539.06,-801.98 1612.17,-802.42"/>
<polygon fill="#6666ff" stroke="#6666ff" points="1612.32,-805.92 1622.34,-802.48 1612.36,-798.92 1612.32,-805.92"/>
</g>
<!-- Metamodel::ConcreteRoleHOW -->
<g id="node16" class="node">
<title>Metamodel::ConcreteRoleHOW</title>
<g id="a_node16"><a xlink:href="/type/Metamodel::ConcreteRoleHOW" xlink:title="Metamodel::ConcreteRoleHOW">
<ellipse fill="none" stroke="#000000" cx="1226.75" cy="-696.83" rx="135.38" ry="18"/>
<text text-anchor="middle" x="1226.75" y="-693.13" font-family="FreeSans" font-size="14.00" fill="#000000">Metamodel::ConcreteRoleHOW</text>
</a>
</g>
</g>
<!-- Metamodel::ConcreteRoleHOW&#45;&gt;Metamodel::PrivateMethodContainer -->
<g id="edge19" class="edge">
<title>Metamodel::ConcreteRoleHOW&#45;&gt;Metamodel::PrivateMethodContainer</title>
<path fill="none" stroke="#6666ff" d="M1202.12,-714.58C1161.14,-744.09 1083.43,-800.05 1083.43,-800.05 1083.43,-800.05 1002.93,-888.79 962.07,-933.83"/>
<polygon fill="#6666ff" stroke="#6666ff" points="959.29,-931.68 955.16,-941.44 964.47,-936.39 959.29,-931.68"/>
</g>
<!-- Metamodel::ConcreteRoleHOW&#45;&gt;Any -->
<g id="edge3" class="edge">
<title>Metamodel::ConcreteRoleHOW&#45;&gt;Any</title>
<path fill="none" stroke="#000000" d="M1197.05,-679.09C1129.29,-638.62 964,-539.9 896.71,-499.71"/>
<polygon fill="#000000" stroke="#000000" points="898.27,-496.56 887.89,-494.44 894.68,-502.57 898.27,-496.56"/>
</g>
<!-- Metamodel::ConcreteRoleHOW&#45;&gt;Metamodel::Naming -->
<g id="edge17" class="edge">
<title>Metamodel::ConcreteRoleHOW&#45;&gt;Metamodel::Naming</title>
<path fill="none" stroke="#6666ff" d="M1202.12,-714.58C1161.14,-744.09 1083.43,-800.05 1083.43,-800.05 1083.43,-800.05 1095.14,-959.58 1095.14,-959.58 1095.14,-959.58 1088.08,-1100.64 1085,-1162.37"/>
<polygon fill="#6666ff" stroke="#6666ff" points="1081.49,-1162.42 1084.48,-1172.58 1088.48,-1162.77 1081.49,-1162.42"/>
</g>
<!-- Metamodel::ConcreteRoleHOW&#45;&gt;Metamodel::Versioning -->
<g id="edge18" class="edge">
<title>Metamodel::ConcreteRoleHOW&#45;&gt;Metamodel::Versioning</title>
<path fill="none" stroke="#6666ff" d="M1202.12,-714.58C1161.14,-744.09 1083.43,-800.05 1083.43,-800.05 1083.43,-800.05 1095.14,-959.58 1095.14,-959.58 1095.14,-959.58 1013.04,-1062.19 973.44,-1111.68"/>
<polygon fill="#6666ff" stroke="#6666ff" points="970.53,-1109.71 967.02,-1119.7 976,-1114.08 970.53,-1109.71"/>
</g>
<!-- Metamodel::ConcreteRoleHOW&#45;&gt;Metamodel::MethodContainer -->
<g id="edge20" class="edge">
<title>Metamodel::ConcreteRoleHOW&#45;&gt;Metamodel::MethodContainer</title>
<path fill="none" stroke="#6666ff" d="M1130.53,-684.14C1033.99,-671.4 885.81,-651.86 786.77,-638.79"/>
<polygon fill="#6666ff" stroke="#6666ff" points="787.11,-635.31 776.74,-637.47 786.2,-642.25 787.11,-635.31"/>
</g>
<!-- Metamodel::ConcreteRoleHOW&#45;&gt;Metamodel::MultiMethodContainer -->
<g id="edge21" class="edge">
<title>Metamodel::ConcreteRoleHOW&#45;&gt;Metamodel::MultiMethodContainer</title>
<path fill="none" stroke="#6666ff" d="M1251.38,-714.6C1292.34,-744.14 1370,-800.16 1370,-800.16 1370,-800.16 1364.1,-1085.21 1364.1,-1085.21 1364.1,-1085.21 1302.74,-1165.83 1270.13,-1208.69"/>
<polygon fill="#6666ff" stroke="#6666ff" points="1267.29,-1206.64 1264.02,-1216.72 1272.86,-1210.88 1267.29,-1206.64"/>
</g>
<!-- Metamodel::ConcreteRoleHOW&#45;&gt;Metamodel::AttributeContainer -->
<g id="edge22" class="edge">
<title>Metamodel::ConcreteRoleHOW&#45;&gt;Metamodel::AttributeContainer</title>
<path fill="none" stroke="#6666ff" d="M1169.63,-713.15C1104.17,-731.86 997.04,-762.47 927.83,-782.25"/>
<polygon fill="#6666ff" stroke="#6666ff" points="926.56,-778.98 917.9,-785.09 928.48,-785.71 926.56,-778.98"/>
</g>
<!-- Metamodel::ConcreteRoleHOW&#45;&gt;Metamodel::RoleContainer -->
<g id="edge23" class="edge">
<title>Metamodel::ConcreteRoleHOW&#45;&gt;Metamodel::RoleContainer</title>
<path fill="none" stroke="#6666ff" d="M1251.38,-714.6C1292.34,-744.14 1370,-800.16 1370,-800.16 1370,-800.16 1289.63,-986.04 1258.73,-1057.53"/>
<polygon fill="#6666ff" stroke="#6666ff" points="1255.46,-1056.26 1254.71,-1066.82 1261.89,-1059.03 1255.46,-1056.26"/>
</g>
<!-- Metamodel::ConcreteRoleHOW&#45;&gt;Metamodel::MultipleInheritance -->
<g id="edge24" class="edge">
<title>Metamodel::ConcreteRoleHOW&#45;&gt;Metamodel::MultipleInheritance</title>
<path fill="none" stroke="#6666ff" d="M1162.87,-680.93C1122.09,-670.77 1069.09,-657.57 1026.52,-646.98"/>
<polygon fill="#6666ff" stroke="#6666ff" points="1027.33,-643.57 1016.78,-644.55 1025.64,-650.36 1027.33,-643.57"/>
</g>
<!-- Metamodel::Finalization -->
<g id="node17" class="node">
<title>Metamodel::Finalization</title>
<g id="a_node17"><a xlink:href="/type/Metamodel::Finalization" xlink:title="Metamodel::Finalization">
<ellipse fill="none" stroke="#6666ff" cx="260.83" cy="-679.43" rx="103.98" ry="18"/>
<text text-anchor="middle" x="260.83" y="-675.73" font-family="FreeSans" font-size="14.00" fill="#6666ff">Metamodel::Finalization</text>
</a>
</g>
</g>
<!-- Metamodel::DefaultParent -->
<g id="node18" class="node">
<title>Metamodel::DefaultParent</title>
<g id="a_node18"><a xlink:href="/type/Metamodel::DefaultParent" xlink:title="Metamodel::DefaultParent">
<ellipse fill="none" stroke="#6666ff" cx="224.32" cy="-1332.14" rx="113.18" ry="18"/>
<text text-anchor="middle" x="224.32" y="-1328.44" font-family="FreeSans" font-size="14.00" fill="#6666ff">Metamodel::DefaultParent</text>
</a>
</g>
</g>
<!-- Metamodel::C3MRO -->
<g id="node19" class="node">
<title>Metamodel::C3MRO</title>
<g id="a_node19"><a xlink:href="/type/Metamodel::C3MRO" xlink:title="Metamodel::C3MRO">
<ellipse fill="none" stroke="#6666ff" cx="151.75" cy="-1008.63" rx="92.08" ry="18"/>
<text text-anchor="middle" x="151.75" y="-1004.93" font-family="FreeSans" font-size="14.00" fill="#6666ff">Metamodel::C3MRO</text>
</a>
</g>
</g>
<!-- Metamodel::MROBasedMethodDispatch -->
<g id="node20" class="node">
<title>Metamodel::MROBasedMethodDispatch</title>
<g id="a_node20"><a xlink:href="/type/Metamodel::MROBasedMethodDispatch" xlink:title="Metamodel::MROBasedMethodDispatch">
<ellipse fill="none" stroke="#6666ff" cx="169.63" cy="-1174.1" rx="169.77" ry="18"/>
<text text-anchor="middle" x="169.63" y="-1170.4" font-family="FreeSans" font-size="14.00" fill="#6666ff">Metamodel::MROBasedMethodDispatch</text>
</a>
</g>
</g>
<!-- Metamodel::MROBasedTypeChecking -->
<g id="node21" class="node">
<title>Metamodel::MROBasedTypeChecking</title>
<g id="a_node21"><a xlink:href="/type/Metamodel::MROBasedTypeChecking" xlink:title="Metamodel::MROBasedTypeChecking">
<ellipse fill="none" stroke="#6666ff" cx="335.39" cy="-1456.02" rx="163.27" ry="18"/>
<text text-anchor="middle" x="335.39" y="-1452.32" font-family="FreeSans" font-size="14.00" fill="#6666ff">Metamodel::MROBasedTypeChecking</text>
</a>
</g>
</g>
<!-- Metamodel::Trusting -->
<g id="node22" class="node">
<title>Metamodel::Trusting</title>
<g id="a_node22"><a xlink:href="/type/Metamodel::Trusting" xlink:title="Metamodel::Trusting">
<ellipse fill="none" stroke="#6666ff" cx="186.21" cy="-842.55" rx="91.78" ry="18"/>
<text text-anchor="middle" x="186.21" y="-838.85" font-family="FreeSans" font-size="14.00" fill="#6666ff">Metamodel::Trusting</text>
</a>
</g>
</g>
<!-- Metamodel::BUILDPLAN -->
<g id="node23" class="node">
<title>Metamodel::BUILDPLAN</title>
<g id="a_node23"><a xlink:href="/type/Metamodel::BUILDPLAN" xlink:title="Metamodel::BUILDPLAN">
<ellipse fill="none" stroke="#6666ff" cx="617.26" cy="-1601.19" rx="109.68" ry="18"/>
<text text-anchor="middle" x="617.26" y="-1597.49" font-family="FreeSans" font-size="14.00" fill="#6666ff">Metamodel::BUILDPLAN</text>
</a>
</g>
</g>
<!-- Metamodel::Mixins -->
<g id="node24" class="node">
<title>Metamodel::Mixins</title>
<g id="a_node24"><a xlink:href="/type/Metamodel::Mixins" xlink:title="Metamodel::Mixins">
<ellipse fill="none" stroke="#6666ff" cx="820.24" cy="-1626.28" rx="85.29" ry="18"/>
<text text-anchor="middle" x="820.24" y="-1622.58" font-family="FreeSans" font-size="14.00" fill="#6666ff">Metamodel::Mixins</text>
</a>
</g>
</g>
<!-- Metamodel::BoolificationProtocol -->
<g id="node25" class="node">
<title>Metamodel::BoolificationProtocol</title>
<g id="a_node25"><a xlink:href="/type/Metamodel::BoolificationProtocol" xlink:title="Metamodel::BoolificationProtocol">
<ellipse fill="none" stroke="#6666ff" cx="459.8" cy="-1557.15" rx="139.18" ry="18"/>
<text text-anchor="middle" x="459.8" y="-1553.45" font-family="FreeSans" font-size="14.00" fill="#6666ff">Metamodel::BoolificationProtocol</text>
</a>
</g>
</g>
<!-- Metamodel::ClassHOW -->
<g id="node26" class="node">
<title>Metamodel::ClassHOW</title>
<g id="a_node26"><a xlink:href="/type/Metamodel::ClassHOW" xlink:title="Metamodel::ClassHOW">
<ellipse fill="none" stroke="#000000" cx="640.12" cy="-1096.72" rx="103.18" ry="18"/>
<text text-anchor="middle" x="640.12" y="-1093.02" font-family="FreeSans" font-size="14.00" fill="#000000">Metamodel::ClassHOW</text>
</a>
</g>
</g>
<!-- Metamodel::ClassHOW&#45;&gt;Metamodel::PrivateMethodContainer -->
<g id="edge32" class="edge">
<title>Metamodel::ClassHOW&#45;&gt;Metamodel::PrivateMethodContainer</title>
<path fill="none" stroke="#6666ff" d="M676.75,-1079.88C730.73,-1055.07 831.68,-1008.67 891.31,-981.27"/>
<polygon fill="#6666ff" stroke="#6666ff" points="892.89,-984.39 900.51,-977.04 889.96,-978.03 892.89,-984.39"/>
</g>
<!-- Metamodel::ClassHOW&#45;&gt;Any -->
<g id="edge4" class="edge">
<title>Metamodel::ClassHOW&#45;&gt;Any</title>
<path fill="none" stroke="#000000" d="M645.58,-1078.68C665.01,-1014.51 729.6,-801.19 729.6,-801.19 729.6,-801.19 812.24,-625.32 812.24,-625.32 812.24,-625.32 841.02,-550.8 857.04,-509.33"/>
<polygon fill="#000000" stroke="#000000" points="860.38,-510.39 860.72,-499.8 853.85,-507.87 860.38,-510.39"/>
</g>
<!-- Metamodel::ClassHOW&#45;&gt;Metamodel::Naming -->
<g id="edge25" class="edge">
<title>Metamodel::ClassHOW&#45;&gt;Metamodel::Naming</title>
<path fill="none" stroke="#6666ff" d="M702.83,-1111.06C773.91,-1127.32 880,-1151.59 880,-1151.59 880,-1151.59 950.4,-1165.12 1008.4,-1176.27"/>
<polygon fill="#6666ff" stroke="#6666ff" points="1007.84,-1179.72 1018.32,-1178.17 1009.16,-1172.85 1007.84,-1179.72"/>
</g>
<!-- Metamodel::ClassHOW&#45;&gt;Metamodel::Documenting -->
<g id="edge26" class="edge">
<title>Metamodel::ClassHOW&#45;&gt;Metamodel::Documenting</title>
<path fill="none" stroke="#6666ff" d="M662.89,-1114.36C731,-1167.14 933.3,-1323.88 1011.15,-1384.2"/>
<polygon fill="#6666ff" stroke="#6666ff" points="1009.11,-1387.04 1019.16,-1390.4 1013.4,-1381.51 1009.11,-1387.04"/>
</g>
<!-- Metamodel::ClassHOW&#45;&gt;Metamodel::Versioning -->
<g id="edge27" class="edge">
<title>Metamodel::ClassHOW&#45;&gt;Metamodel::Versioning</title>
<path fill="none" stroke="#6666ff" d="M723.03,-1107.61C765.55,-1113.2 817.43,-1120.01 861.11,-1125.75"/>
<polygon fill="#6666ff" stroke="#6666ff" points="860.79,-1129.24 871.16,-1127.07 861.7,-1122.3 860.79,-1129.24"/>
</g>
<!-- Metamodel::ClassHOW&#45;&gt;Metamodel::MethodContainer -->
<g id="edge31" class="edge">
<title>Metamodel::ClassHOW&#45;&gt;Metamodel::MethodContainer</title>
<path fill="none" stroke="#6666ff" d="M641.78,-1078.52C648.38,-1006.46 672.68,-740.75 680.69,-653.27"/>
<polygon fill="#6666ff" stroke="#6666ff" points="684.18,-653.56 681.6,-643.28 677.2,-652.92 684.18,-653.56"/>
</g>
<!-- Metamodel::ClassHOW&#45;&gt;Metamodel::MultiMethodContainer -->
<g id="edge33" class="edge">
<title>Metamodel::ClassHOW&#45;&gt;Metamodel::MultiMethodContainer</title>
<path fill="none" stroke="#6666ff" d="M694.29,-1112.16C798.83,-1141.96 1018.2,-1204.5 1018.2,-1204.5 1018.2,-1204.5 1080.04,-1212.56 1139.88,-1220.36"/>
<polygon fill="#6666ff" stroke="#6666ff" points="1139.47,-1223.84 1149.84,-1221.66 1140.38,-1216.9 1139.47,-1223.84"/>
</g>
<!-- Metamodel::ClassHOW&#45;&gt;Metamodel::AttributeContainer -->
<g id="edge29" class="edge">
<title>Metamodel::ClassHOW&#45;&gt;Metamodel::AttributeContainer</title>
<path fill="none" stroke="#6666ff" d="M653.61,-1078.68C691.23,-1028.41 797.38,-886.56 841.53,-827.55"/>
<polygon fill="#6666ff" stroke="#6666ff" points="844.39,-829.57 847.58,-819.47 838.79,-825.38 844.39,-829.57"/>
</g>
<!-- Metamodel::ClassHOW&#45;&gt;Metamodel::RoleContainer -->
<g id="edge34" class="edge">
<title>Metamodel::ClassHOW&#45;&gt;Metamodel::RoleContainer</title>
<path fill="none" stroke="#6666ff" d="M743.03,-1094.74C847.53,-1092.74 1009.47,-1089.63 1121.4,-1087.49"/>
<polygon fill="#6666ff" stroke="#6666ff" points="1121.81,-1090.98 1131.74,-1087.29 1121.67,-1083.98 1121.81,-1090.98"/>
</g>
<!-- Metamodel::ClassHOW&#45;&gt;Metamodel::MultipleInheritance -->
<g id="edge35" class="edge">
<title>Metamodel::ClassHOW&#45;&gt;Metamodel::MultipleInheritance</title>
<path fill="none" stroke="#6666ff" d="M645.58,-1078.68C665.01,-1014.51 729.6,-801.19 729.6,-801.19 729.6,-801.19 860.15,-700.25 921.56,-652.77"/>
<polygon fill="#6666ff" stroke="#6666ff" points="923.98,-655.32 929.75,-646.44 919.69,-649.78 923.98,-655.32"/>
</g>
<!-- Metamodel::ClassHOW&#45;&gt;Metamodel::Stashing -->
<g id="edge28" class="edge">
<title>Metamodel::ClassHOW&#45;&gt;Metamodel::Stashing</title>
<path fill="none" stroke="#6666ff" d="M636.16,-1078.32C623.49,-1019.4 583.85,-835.13 568.56,-764.02"/>
<polygon fill="#6666ff" stroke="#6666ff" points="571.93,-763.04 566.4,-754 565.08,-764.51 571.93,-763.04"/>
</g>
<!-- Metamodel::ClassHOW&#45;&gt;Metamodel::Finalization -->
<g id="edge30" class="edge">
<title>Metamodel::ClassHOW&#45;&gt;Metamodel::Finalization</title>
<path fill="none" stroke="#6666ff" d="M623.82,-1078.79C563.76,-1012.71 354.64,-782.64 284.2,-705.14"/>
<polygon fill="#6666ff" stroke="#6666ff" points="286.38,-702.34 277.06,-697.29 281.2,-707.04 286.38,-702.34"/>
</g>
<!-- Metamodel::ClassHOW&#45;&gt;Metamodel::DefaultParent -->
<g id="edge36" class="edge">
<title>Metamodel::ClassHOW&#45;&gt;Metamodel::DefaultParent</title>
<path fill="none" stroke="#6666ff" d="M609.54,-1114.03C535.43,-1155.99 346.23,-1263.12 263.75,-1309.81"/>
<polygon fill="#6666ff" stroke="#6666ff" points="261.92,-1306.83 254.94,-1314.8 265.37,-1312.92 261.92,-1306.83"/>
</g>
<!-- Metamodel::ClassHOW&#45;&gt;Metamodel::C3MRO -->
<g id="edge37" class="edge">
<title>Metamodel::ClassHOW&#45;&gt;Metamodel::C3MRO</title>
<path fill="none" stroke="#6666ff" d="M568.32,-1083.77C477.89,-1067.46 323.08,-1039.53 229.8,-1022.71"/>
<polygon fill="#6666ff" stroke="#6666ff" points="230.31,-1019.24 219.85,-1020.91 229.07,-1026.13 230.31,-1019.24"/>
</g>
<!-- Metamodel::ClassHOW&#45;&gt;Metamodel::MROBasedMethodDispatch -->
<g id="edge38" class="edge">
<title>Metamodel::ClassHOW&#45;&gt;Metamodel::MROBasedMethodDispatch</title>
<path fill="none" stroke="#6666ff" d="M564.79,-1109.11C485.42,-1122.16 359.95,-1142.8 271.73,-1157.31"/>
<polygon fill="#6666ff" stroke="#6666ff" points="271,-1153.88 261.7,-1158.96 272.14,-1160.79 271,-1153.88"/>
</g>
<!-- Metamodel::ClassHOW&#45;&gt;Metamodel::MROBasedTypeChecking -->
<g id="edge39" class="edge">
<title>Metamodel::ClassHOW&#45;&gt;Metamodel::MROBasedTypeChecking</title>
<path fill="none" stroke="#6666ff" d="M625.01,-1114.54C575.15,-1173.32 415.75,-1361.26 357.22,-1430.28"/>
<polygon fill="#6666ff" stroke="#6666ff" points="354.39,-1428.2 350.59,-1438.09 359.73,-1432.73 354.39,-1428.2"/>
</g>
<!-- Metamodel::ClassHOW&#45;&gt;Metamodel::Trusting -->
<g id="edge40" class="edge">
<title>Metamodel::ClassHOW&#45;&gt;Metamodel::Trusting</title>
<path fill="none" stroke="#6666ff" d="M609.28,-1079.45C529.2,-1034.61 314.75,-914.53 225.76,-864.69"/>
<polygon fill="#6666ff" stroke="#6666ff" points="227.23,-861.51 216.8,-859.67 223.81,-867.61 227.23,-861.51"/>
</g>
<!-- Metamodel::ClassHOW&#45;&gt;Metamodel::BUILDPLAN -->
<g id="edge41" class="edge">
<title>Metamodel::ClassHOW&#45;&gt;Metamodel::BUILDPLAN</title>
<path fill="none" stroke="#6666ff" d="M639.29,-1114.97C635.86,-1190.68 622.74,-1480.32 618.55,-1572.7"/>
<polygon fill="#6666ff" stroke="#6666ff" points="615.04,-1572.81 618.09,-1582.96 622.04,-1573.13 615.04,-1572.81"/>
</g>
<!-- Metamodel::ClassHOW&#45;&gt;Metamodel::Mixins -->
<g id="edge42" class="edge">
<title>Metamodel::ClassHOW&#45;&gt;Metamodel::Mixins</title>
<path fill="none" stroke="#6666ff" d="M646.32,-1114.95C673.06,-1193.56 778.61,-1503.89 810.85,-1598.65"/>
<polygon fill="#6666ff" stroke="#6666ff" points="807.54,-1599.79 814.07,-1608.13 814.16,-1597.54 807.54,-1599.79"/>
</g>
<!-- Metamodel::ClassHOW&#45;&gt;Metamodel::BoolificationProtocol -->
<g id="edge43" class="edge">
<title>Metamodel::ClassHOW&#45;&gt;Metamodel::BoolificationProtocol</title>
<path fill="none" stroke="#6666ff" d="M632.98,-1115.03C604.45,-1188.27 500.12,-1456.12 500.12,-1456.12 500.12,-1456.12 482.76,-1499.63 470.82,-1529.55"/>
<polygon fill="#6666ff" stroke="#6666ff" points="467.47,-1528.5 467.01,-1539.09 473.97,-1531.1 467.47,-1528.5"/>
</g>
</g>
</svg>
