<?xml version="1.0" encoding="UTF-8" standalone="no"?>
<!DOCTYPE svg PUBLIC "-//W3C//DTD SVG 1.1//EN"
 "http://www.w3.org/Graphics/SVG/1.1/DTD/svg11.dtd">
<!-- Generated by graphviz version 2.43.0 (0)
 -->
<!-- Title: perl6&#45;type&#45;graph Pages: 1 -->
<svg width="628pt" height="404pt"
 viewBox="0.00 0.00 627.92 404.00" xmlns="http://www.w3.org/2000/svg" xmlns:xlink="http://www.w3.org/1999/xlink">
<g id="graph0" class="graph" transform="scale(1 1) rotate(0) translate(4 400)">
<title>perl6&#45;type&#45;graph</title>
<polygon fill="white" stroke="transparent" points="-4,4 -4,-400 623.92,-400 623.92,4 -4,4"/>
<!-- X::Pod -->
<g id="node1" class="node">
<title>X::Pod</title>
<g id="a_node1"><a xlink:href="/type/X::Pod" xlink:title="X::Pod">
<ellipse fill="none" stroke="#6666ff" cx="257.69" cy="-90" rx="37.09" ry="18"/>
<text text-anchor="middle" x="257.69" y="-86.3" font-family="FreeSans" font-size="14.00" fill="#6666ff">X::Pod</text>
</a>
</g>
</g>
<!-- Mu -->
<g id="node2" class="node">
<title>Mu</title>
<g id="a_node2"><a xlink:href="/type/Mu" xlink:title="Mu">
<ellipse fill="none" stroke="#000000" cx="351.69" cy="-378" rx="27" ry="18"/>
<text text-anchor="middle" x="351.69" y="-374.3" font-family="FreeSans" font-size="14.00" fill="#000000">Mu</text>
</a>
</g>
</g>
<!-- Any -->
<g id="node3" class="node">
<title>Any</title>
<g id="a_node3"><a xlink:href="/type/Any" xlink:title="Any">
<ellipse fill="none" stroke="#000000" cx="351.69" cy="-306" rx="27" ry="18"/>
<text text-anchor="middle" x="351.69" y="-302.3" font-family="FreeSans" font-size="14.00" fill="#000000">Any</text>
</a>
</g>
</g>
<!-- Any&#45;&gt;Mu -->
<g id="edge1" class="edge">
<title>Any&#45;&gt;Mu</title>
<path fill="none" stroke="#000000" d="M351.69,-324.3C351.69,-332.02 351.69,-341.29 351.69,-349.89"/>
<polygon fill="#000000" stroke="#000000" points="348.19,-349.9 351.69,-359.9 355.19,-349.9 348.19,-349.9"/>
</g>
<!-- Exception -->
<g id="node4" class="node">
<title>Exception</title>
<g id="a_node4"><a xlink:href="/type/Exception" xlink:title="Exception">
<ellipse fill="none" stroke="#000000" cx="351.69" cy="-234" rx="49.29" ry="18"/>
<text text-anchor="middle" x="351.69" y="-230.3" font-family="FreeSans" font-size="14.00" fill="#000000">Exception</text>
</a>
</g>
</g>
<!-- Exception&#45;&gt;Any -->
<g id="edge2" class="edge">
<title>Exception&#45;&gt;Any</title>
<path fill="none" stroke="#000000" d="M351.69,-252.3C351.69,-260.02 351.69,-269.29 351.69,-277.89"/>
<polygon fill="#000000" stroke="#000000" points="348.19,-277.9 351.69,-287.9 355.19,-277.9 348.19,-277.9"/>
</g>
<!-- X::Comp -->
<g id="node5" class="node">
<title>X::Comp</title>
<g id="a_node5"><a xlink:href="/type/X::Comp" xlink:title="X::Comp">
<ellipse fill="none" stroke="#6666ff" cx="315.69" cy="-162" rx="44.69" ry="18"/>
<text text-anchor="middle" x="315.69" y="-158.3" font-family="FreeSans" font-size="14.00" fill="#6666ff">X::Comp</text>
</a>
</g>
</g>
<!-- X::Comp&#45;&gt;Exception -->
<g id="edge3" class="edge">
<title>X::Comp&#45;&gt;Exception</title>
<path fill="none" stroke="#000000" d="M324.4,-179.95C328.6,-188.11 333.73,-198.09 338.41,-207.18"/>
<polygon fill="#000000" stroke="#000000" points="335.37,-208.92 343.05,-216.21 341.59,-205.72 335.37,-208.92"/>
</g>
<!-- X::Syntax -->
<g id="node6" class="node">
<title>X::Syntax</title>
<g id="a_node6"><a xlink:href="/type/X::Syntax" xlink:title="X::Syntax">
<ellipse fill="none" stroke="#6666ff" cx="367.69" cy="-90" rx="48.19" ry="18"/>
<text text-anchor="middle" x="367.69" y="-86.3" font-family="FreeSans" font-size="14.00" fill="#6666ff">X::Syntax</text>
</a>
</g>
</g>
<!-- X::Syntax&#45;&gt;Exception -->
<g id="edge4" class="edge">
<title>X::Syntax&#45;&gt;Exception</title>
<path fill="none" stroke="#000000" d="M368.33,-108.06C368.92,-123.55 369.69,-144 369.69,-144 369.69,-144 369.69,-180 369.69,-180 369.69,-180 365.28,-192.98 360.82,-206.1"/>
<polygon fill="#000000" stroke="#000000" points="357.38,-205.34 357.48,-215.94 364.01,-207.6 357.38,-205.34"/>
</g>
<!-- X::Syntax&#45;&gt;X::Comp -->
<g id="edge9" class="edge">
<title>X::Syntax&#45;&gt;X::Comp</title>
<path fill="none" stroke="#6666ff" d="M355.36,-107.59C349.02,-116.13 341.15,-126.72 334.1,-136.21"/>
<polygon fill="#6666ff" stroke="#6666ff" points="331.08,-134.42 327.92,-144.53 336.7,-138.59 331.08,-134.42"/>
</g>
<!-- X::Syntax::Pod::BeginWithoutEnd -->
<g id="node7" class="node">
<title>X::Syntax::Pod::BeginWithoutEnd</title>
<g id="a_node7"><a xlink:href="/type/X::Syntax::Pod::BeginWithoutEnd" xlink:title="X::Syntax::Pod::BeginWithoutEnd">
<ellipse fill="none" stroke="#000000" cx="141.69" cy="-18" rx="141.88" ry="18"/>
<text text-anchor="middle" x="141.69" y="-14.3" font-family="FreeSans" font-size="14.00" fill="#000000">X::Syntax::Pod::BeginWithoutEnd</text>
</a>
</g>
</g>
<!-- X::Syntax::Pod::BeginWithoutEnd&#45;&gt;X::Pod -->
<g id="edge11" class="edge">
<title>X::Syntax::Pod::BeginWithoutEnd&#45;&gt;X::Pod</title>
<path fill="none" stroke="#6666ff" d="M169.47,-35.77C186.6,-46.1 208.59,-59.37 226.34,-70.08"/>
<polygon fill="#6666ff" stroke="#6666ff" points="224.81,-73.25 235.18,-75.42 228.43,-67.26 224.81,-73.25"/>
</g>
<!-- X::Syntax::Pod::BeginWithoutEnd&#45;&gt;Exception -->
<g id="edge5" class="edge">
<title>X::Syntax::Pod::BeginWithoutEnd&#45;&gt;Exception</title>
<path fill="none" stroke="#000000" d="M150.08,-36.23C176.49,-77.76 252.69,-180 252.69,-180 252.69,-180 285.58,-199.37 313.58,-214.69"/>
<polygon fill="#000000" stroke="#000000" points="311.99,-217.81 322.45,-219.49 315.32,-211.65 311.99,-217.81"/>
</g>
<!-- X::Syntax::Pod::BeginWithoutEnd&#45;&gt;Exception -->
<g id="edge6" class="edge">
<title>X::Syntax::Pod::BeginWithoutEnd&#45;&gt;Exception</title>
<path fill="none" stroke="#000000" d="M158.71,-35.93C194.11,-77.26 270.69,-180 270.69,-180 270.69,-180 299.73,-197.1 323.17,-211.88"/>
<polygon fill="#000000" stroke="#000000" points="321.49,-214.96 331.81,-217.38 325.26,-209.06 321.49,-214.96"/>
</g>
<!-- X::Syntax::Pod::BeginWithoutEnd&#45;&gt;X::Syntax -->
<g id="edge10" class="edge">
<title>X::Syntax::Pod::BeginWithoutEnd&#45;&gt;X::Syntax</title>
<path fill="none" stroke="#6666ff" d="M192.69,-34.8C231.53,-46.83 284.52,-63.24 321.99,-74.85"/>
<polygon fill="#6666ff" stroke="#6666ff" points="321.05,-78.22 331.64,-77.83 323.12,-71.53 321.05,-78.22"/>
</g>
<!-- X::Syntax::Pod::BeginWithoutIdentifier -->
<g id="node8" class="node">
<title>X::Syntax::Pod::BeginWithoutIdentifier</title>
<g id="a_node8"><a xlink:href="/type/X::Syntax::Pod::BeginWithoutIdentifier" xlink:title="X::Syntax::Pod::BeginWithoutIdentifier">
<ellipse fill="none" stroke="#000000" cx="460.69" cy="-18" rx="159.47" ry="18"/>
<text text-anchor="middle" x="460.69" y="-14.3" font-family="FreeSans" font-size="14.00" fill="#000000">X::Syntax::Pod::BeginWithoutIdentifier</text>
</a>
</g>
</g>
<!-- X::Syntax::Pod::BeginWithoutIdentifier&#45;&gt;X::Pod -->
<g id="edge13" class="edge">
<title>X::Syntax::Pod::BeginWithoutIdentifier&#45;&gt;X::Pod</title>
<path fill="none" stroke="#6666ff" d="M413.6,-35.24C378.15,-47.46 330.12,-64.02 296.78,-75.52"/>
<polygon fill="#6666ff" stroke="#6666ff" points="295.25,-72.35 286.93,-78.91 297.53,-78.96 295.25,-72.35"/>
</g>
<!-- X::Syntax::Pod::BeginWithoutIdentifier&#45;&gt;Exception -->
<g id="edge7" class="edge">
<title>X::Syntax::Pod::BeginWithoutIdentifier&#45;&gt;Exception</title>
<path fill="none" stroke="#000000" d="M448.09,-36.16C434.29,-62.02 415.69,-108 415.69,-108 415.69,-108 374.69,-180 374.69,-180 374.69,-180 366.54,-193.5 359.62,-206.87"/>
<polygon fill="#000000" stroke="#000000" points="356.43,-205.42 355.14,-215.94 362.71,-208.52 356.43,-205.42"/>
</g>
<!-- X::Syntax::Pod::BeginWithoutIdentifier&#45;&gt;Exception -->
<g id="edge8" class="edge">
<title>X::Syntax::Pod::BeginWithoutIdentifier&#45;&gt;Exception</title>
<path fill="none" stroke="#000000" d="M459.4,-36.16C452.29,-62.02 433.69,-108 433.69,-108 433.69,-108 392.69,-180 392.69,-180 392.69,-180 383.9,-194.56 374.24,-208.41"/>
<polygon fill="#000000" stroke="#000000" points="371.19,-206.65 368.18,-216.81 376.87,-210.75 371.19,-206.65"/>
</g>
<!-- X::Syntax::Pod::BeginWithoutIdentifier&#45;&gt;X::Syntax -->
<g id="edge12" class="edge">
<title>X::Syntax::Pod::BeginWithoutIdentifier&#45;&gt;X::Syntax</title>
<path fill="none" stroke="#6666ff" d="M438.17,-35.95C425.53,-45.46 409.63,-57.43 396.13,-67.59"/>
<polygon fill="#6666ff" stroke="#6666ff" points="393.97,-64.83 388.09,-73.64 398.18,-70.43 393.97,-64.83"/>
</g>
</g>
</svg>
