<?xml version="1.0" encoding="UTF-8" standalone="no"?>
<!DOCTYPE svg PUBLIC "-//W3C//DTD SVG 1.1//EN"
 "http://www.w3.org/Graphics/SVG/1.1/DTD/svg11.dtd">
<!-- Generated by graphviz version 2.43.0 (0)
 -->
<!-- Title: perl6&#45;type&#45;graph Pages: 1 -->
<svg width="217pt" height="404pt"
 viewBox="0.00 0.00 216.99 404.00" xmlns="http://www.w3.org/2000/svg" xmlns:xlink="http://www.w3.org/1999/xlink">
<g id="graph0" class="graph" transform="scale(1 1) rotate(0) translate(4 400)">
<title>perl6&#45;type&#45;graph</title>
<polygon fill="white" stroke="transparent" points="-4,4 -4,-400 212.99,-400 212.99,4 -4,4"/>
<!-- X::IO::Copy -->
<g id="node1" class="node">
<title>X::IO::Copy</title>
<g id="a_node1"><a xlink:href="/type/X::IO::Copy" xlink:title="X::IO::Copy">
<ellipse fill="none" stroke="#000000" cx="56.54" cy="-18" rx="56.59" ry="18"/>
<text text-anchor="middle" x="56.54" y="-14.3" font-family="FreeSans" font-size="14.00" fill="#000000">X::IO::Copy</text>
</a>
</g>
</g>
<!-- Exception -->
<g id="node4" class="node">
<title>Exception</title>
<g id="a_node4"><a xlink:href="/type/Exception" xlink:title="Exception">
<ellipse fill="none" stroke="#000000" cx="56.54" cy="-234" rx="49.29" ry="18"/>
<text text-anchor="middle" x="56.54" y="-230.3" font-family="FreeSans" font-size="14.00" fill="#000000">Exception</text>
</a>
</g>
</g>
<!-- X::IO::Copy&#45;&gt;Exception -->
<g id="edge1" class="edge">
<title>X::IO::Copy&#45;&gt;Exception</title>
<path fill="none" stroke="#000000" d="M48.79,-36.15C41.7,-73.26 41.17,-161.25 47.21,-205.95"/>
<polygon fill="#000000" stroke="#000000" points="43.79,-206.75 48.83,-216.06 50.7,-205.64 43.79,-206.75"/>
</g>
<!-- X::IO::Copy&#45;&gt;Exception -->
<g id="edge2" class="edge">
<title>X::IO::Copy&#45;&gt;Exception</title>
<path fill="none" stroke="#000000" d="M56.54,-36.15C56.54,-73.17 56.54,-160.82 56.54,-205.61"/>
<polygon fill="#000000" stroke="#000000" points="53.05,-205.77 56.54,-215.77 60.05,-205.77 53.05,-205.77"/>
</g>
<!-- X::IO::Copy&#45;&gt;Exception -->
<g id="edge3" class="edge">
<title>X::IO::Copy&#45;&gt;Exception</title>
<path fill="none" stroke="#000000" d="M64.3,-36.15C71.39,-73.26 71.92,-161.25 65.88,-205.95"/>
<polygon fill="#000000" stroke="#000000" points="62.39,-205.64 64.26,-216.06 69.3,-206.75 62.39,-205.64"/>
</g>
<!-- X::IO -->
<g id="node6" class="node">
<title>X::IO</title>
<g id="a_node6"><a xlink:href="/type/X::IO" xlink:title="X::IO">
<ellipse fill="none" stroke="#6666ff" cx="133.54" cy="-90" rx="31.4" ry="18"/>
<text text-anchor="middle" x="133.54" y="-86.3" font-family="FreeSans" font-size="14.00" fill="#6666ff">X::IO</text>
</a>
</g>
</g>
<!-- X::IO::Copy&#45;&gt;X::IO -->
<g id="edge8" class="edge">
<title>X::IO::Copy&#45;&gt;X::IO</title>
<path fill="none" stroke="#6666ff" d="M74.4,-35.24C85.02,-44.88 98.6,-57.23 110.07,-67.66"/>
<polygon fill="#6666ff" stroke="#6666ff" points="107.86,-70.38 117.61,-74.52 112.57,-65.2 107.86,-70.38"/>
</g>
<!-- Mu -->
<g id="node2" class="node">
<title>Mu</title>
<g id="a_node2"><a xlink:href="/type/Mu" xlink:title="Mu">
<ellipse fill="none" stroke="#000000" cx="56.54" cy="-378" rx="27" ry="18"/>
<text text-anchor="middle" x="56.54" y="-374.3" font-family="FreeSans" font-size="14.00" fill="#000000">Mu</text>
</a>
</g>
</g>
<!-- Any -->
<g id="node3" class="node">
<title>Any</title>
<g id="a_node3"><a xlink:href="/type/Any" xlink:title="Any">
<ellipse fill="none" stroke="#000000" cx="56.54" cy="-306" rx="27" ry="18"/>
<text text-anchor="middle" x="56.54" y="-302.3" font-family="FreeSans" font-size="14.00" fill="#000000">Any</text>
</a>
</g>
</g>
<!-- Any&#45;&gt;Mu -->
<g id="edge4" class="edge">
<title>Any&#45;&gt;Mu</title>
<path fill="none" stroke="#000000" d="M56.54,-324.3C56.54,-332.02 56.54,-341.29 56.54,-349.89"/>
<polygon fill="#000000" stroke="#000000" points="53.05,-349.9 56.54,-359.9 60.05,-349.9 53.05,-349.9"/>
</g>
<!-- Exception&#45;&gt;Any -->
<g id="edge5" class="edge">
<title>Exception&#45;&gt;Any</title>
<path fill="none" stroke="#000000" d="M56.54,-252.3C56.54,-260.02 56.54,-269.29 56.54,-277.89"/>
<polygon fill="#000000" stroke="#000000" points="53.05,-277.9 56.54,-287.9 60.05,-277.9 53.05,-277.9"/>
</g>
<!-- X::OS -->
<g id="node5" class="node">
<title>X::OS</title>
<g id="a_node5"><a xlink:href="/type/X::OS" xlink:title="X::OS">
<ellipse fill="none" stroke="#6666ff" cx="174.54" cy="-162" rx="34.39" ry="18"/>
<text text-anchor="middle" x="174.54" y="-158.3" font-family="FreeSans" font-size="14.00" fill="#6666ff">X::OS</text>
</a>
</g>
</g>
<!-- X::OS&#45;&gt;Exception -->
<g id="edge6" class="edge">
<title>X::OS&#45;&gt;Exception</title>
<path fill="none" stroke="#000000" d="M152.63,-176C135.06,-186.43 110.11,-201.23 90.04,-213.13"/>
<polygon fill="#000000" stroke="#000000" points="88.02,-210.26 81.2,-218.37 91.59,-216.28 88.02,-210.26"/>
</g>
<!-- X::IO&#45;&gt;Exception -->
<g id="edge7" class="edge">
<title>X::IO&#45;&gt;Exception</title>
<path fill="none" stroke="#000000" d="M125.08,-107.74C112.05,-133.52 88.54,-180 88.54,-180 88.54,-180 80.13,-193.93 71.94,-207.51"/>
<polygon fill="#000000" stroke="#000000" points="68.84,-205.86 66.67,-216.23 74.83,-209.48 68.84,-205.86"/>
</g>
<!-- X::IO&#45;&gt;X::OS -->
<g id="edge9" class="edge">
<title>X::IO&#45;&gt;X::OS</title>
<path fill="none" stroke="#6666ff" d="M143.05,-107.24C148,-115.68 154.16,-126.2 159.72,-135.69"/>
<polygon fill="#6666ff" stroke="#6666ff" points="156.73,-137.51 164.8,-144.37 162.77,-133.97 156.73,-137.51"/>
</g>
</g>
</svg>
