<?xml version="1.0" encoding="UTF-8" standalone="no"?>
<!DOCTYPE svg PUBLIC "-//W3C//DTD SVG 1.1//EN"
 "http://www.w3.org/Graphics/SVG/1.1/DTD/svg11.dtd">
<!-- Generated by graphviz version 2.43.0 (0)
 -->
<!-- Title: perl6&#45;type&#45;graph Pages: 1 -->
<svg width="2104pt" height="1760pt"
 viewBox="0.00 0.00 2104.48 1759.85" xmlns="http://www.w3.org/2000/svg" xmlns:xlink="http://www.w3.org/1999/xlink">
<g id="graph0" class="graph" transform="scale(1 1) rotate(0) translate(4 1755.85)">
<title>perl6&#45;type&#45;graph</title>
<polygon fill="#ffffff" stroke="transparent" points="-4,4 -4,-1755.85 2100.48,-1755.85 2100.48,4 -4,4"/>
<!-- Metamodel::TypePretense -->
<g id="node1" class="node">
<title>Metamodel::TypePretense</title>
<g id="a_node1"><a xlink:href="/type/Metamodel::TypePretense" xlink:title="Metamodel::TypePretense">
<ellipse fill="none" stroke="#6666ff" cx="1011.22" cy="-886.8" rx="114.28" ry="18"/>
<text text-anchor="middle" x="1011.22" y="-883.1" font-family="FreeSans" font-size="14.00" fill="#6666ff">Metamodel::TypePretense</text>
</a>
</g>
</g>
<!-- Mu -->
<g id="node2" class="node">
<title>Mu</title>
<g id="a_node2"><a xlink:href="/type/Mu" xlink:title="Mu">
<ellipse fill="none" stroke="#000000" cx="654.05" cy="-273.17" rx="27" ry="18"/>
<text text-anchor="middle" x="654.05" y="-269.47" font-family="FreeSans" font-size="14.00" fill="#000000">Mu</text>
</a>
</g>
</g>
<!-- Any -->
<g id="node3" class="node">
<title>Any</title>
<g id="a_node3"><a xlink:href="/type/Any" xlink:title="Any">
<ellipse fill="none" stroke="#000000" cx="957.49" cy="-712.42" rx="27" ry="18"/>
<text text-anchor="middle" x="957.49" y="-708.72" font-family="FreeSans" font-size="14.00" fill="#000000">Any</text>
</a>
</g>
</g>
<!-- Any&#45;&gt;Mu -->
<g id="edge1" class="edge">
<title>Any&#45;&gt;Mu</title>
<path fill="none" stroke="#000000" d="M946.14,-696C900.15,-629.42 727.31,-379.22 671.53,-298.47"/>
<polygon fill="#000000" stroke="#000000" points="674.18,-296.14 665.61,-289.91 668.42,-300.12 674.18,-296.14"/>
</g>
<!-- Metamodel::Naming -->
<g id="node4" class="node">
<title>Metamodel::Naming</title>
<g id="a_node4"><a xlink:href="/type/Metamodel::Naming" xlink:title="Metamodel::Naming">
<ellipse fill="none" stroke="#6666ff" cx="1164.38" cy="-962.39" rx="90.18" ry="18"/>
<text text-anchor="middle" x="1164.38" y="-958.69" font-family="FreeSans" font-size="14.00" fill="#6666ff">Metamodel::Naming</text>
</a>
</g>
</g>
<!-- Metamodel::Documenting -->
<g id="node5" class="node">
<title>Metamodel::Documenting</title>
<g id="a_node5"><a xlink:href="/type/Metamodel::Documenting" xlink:title="Metamodel::Documenting">
<ellipse fill="none" stroke="#6666ff" cx="1663.7" cy="-714.03" rx="111.28" ry="18"/>
<text text-anchor="middle" x="1663.7" y="-710.33" font-family="FreeSans" font-size="14.00" fill="#6666ff">Metamodel::Documenting</text>
</a>
</g>
</g>
<!-- Metamodel::Versioning -->
<g id="node6" class="node">
<title>Metamodel::Versioning</title>
<g id="a_node6"><a xlink:href="/type/Metamodel::Versioning" xlink:title="Metamodel::Versioning">
<ellipse fill="none" stroke="#6666ff" cx="1801.31" cy="-867.23" rx="100.98" ry="18"/>
<text text-anchor="middle" x="1801.31" y="-863.53" font-family="FreeSans" font-size="14.00" fill="#6666ff">Metamodel::Versioning</text>
</a>
</g>
</g>
<!-- Metamodel::Stashing -->
<g id="node7" class="node">
<title>Metamodel::Stashing</title>
<g id="a_node7"><a xlink:href="/type/Metamodel::Stashing" xlink:title="Metamodel::Stashing">
<ellipse fill="none" stroke="#6666ff" cx="1269.62" cy="-852.39" rx="93.68" ry="18"/>
<text text-anchor="middle" x="1269.62" y="-848.69" font-family="FreeSans" font-size="14.00" fill="#6666ff">Metamodel::Stashing</text>
</a>
</g>
</g>
<!-- Metamodel::MethodDelegation -->
<g id="node8" class="node">
<title>Metamodel::MethodDelegation</title>
<g id="a_node8"><a xlink:href="/type/Metamodel::MethodDelegation" xlink:title="Metamodel::MethodDelegation">
<ellipse fill="none" stroke="#6666ff" cx="1455.04" cy="-18" rx="131.08" ry="18"/>
<text text-anchor="middle" x="1455.04" y="-14.3" font-family="FreeSans" font-size="14.00" fill="#6666ff">Metamodel::MethodDelegation</text>
</a>
</g>
</g>
<!-- Metamodel::ModuleHOW -->
<g id="node9" class="node">
<title>Metamodel::ModuleHOW</title>
<g id="a_node9"><a xlink:href="/type/Metamodel::ModuleHOW" xlink:title="Metamodel::ModuleHOW">
<ellipse fill="none" stroke="#000000" cx="1391.9" cy="-501.39" rx="110.48" ry="18"/>
<text text-anchor="middle" x="1391.9" y="-497.69" font-family="FreeSans" font-size="14.00" fill="#000000">Metamodel::ModuleHOW</text>
</a>
</g>
</g>
<!-- Metamodel::ModuleHOW&#45;&gt;Metamodel::TypePretense -->
<g id="edge11" class="edge">
<title>Metamodel::ModuleHOW&#45;&gt;Metamodel::TypePretense</title>
<path fill="none" stroke="#6666ff" d="M1374.3,-519.21C1312.93,-581.34 1108.2,-788.62 1036.38,-861.33"/>
<polygon fill="#6666ff" stroke="#6666ff" points="1033.61,-859.15 1029.07,-868.73 1038.59,-864.07 1033.61,-859.15"/>
</g>
<!-- Metamodel::ModuleHOW&#45;&gt;Any -->
<g id="edge2" class="edge">
<title>Metamodel::ModuleHOW&#45;&gt;Any</title>
<path fill="none" stroke="#000000" d="M1356.72,-518.49C1274.01,-558.66 1068.23,-658.63 989.14,-697.04"/>
<polygon fill="#000000" stroke="#000000" points="987.18,-694.11 979.71,-701.63 990.23,-700.4 987.18,-694.11"/>
</g>
<!-- Metamodel::ModuleHOW&#45;&gt;Metamodel::Naming -->
<g id="edge7" class="edge">
<title>Metamodel::ModuleHOW&#45;&gt;Metamodel::Naming</title>
<path fill="none" stroke="#6666ff" d="M1380.52,-519.77C1335.77,-591.98 1174.42,-852.33 1174.42,-852.33 1174.42,-852.33 1169.96,-901.26 1166.98,-933.87"/>
<polygon fill="#6666ff" stroke="#6666ff" points="1163.46,-933.94 1166.04,-944.21 1170.43,-934.57 1163.46,-933.94"/>
</g>
<!-- Metamodel::ModuleHOW&#45;&gt;Metamodel::Documenting -->
<g id="edge8" class="edge">
<title>Metamodel::ModuleHOW&#45;&gt;Metamodel::Documenting</title>
<path fill="none" stroke="#6666ff" d="M1414.61,-519.16C1463.27,-557.23 1577.67,-646.72 1632.86,-689.89"/>
<polygon fill="#6666ff" stroke="#6666ff" points="1630.84,-692.76 1640.87,-696.16 1635.15,-687.25 1630.84,-692.76"/>
</g>
<!-- Metamodel::ModuleHOW&#45;&gt;Metamodel::Versioning -->
<g id="edge9" class="edge">
<title>Metamodel::ModuleHOW&#45;&gt;Metamodel::Versioning</title>
<path fill="none" stroke="#6666ff" d="M1405.46,-519.51C1443.93,-570.89 1550.97,-713.87 1550.97,-713.87 1550.97,-713.87 1694.43,-801.76 1764.15,-844.47"/>
<polygon fill="#6666ff" stroke="#6666ff" points="1762.72,-847.69 1773.08,-849.93 1766.38,-841.73 1762.72,-847.69"/>
</g>
<!-- Metamodel::ModuleHOW&#45;&gt;Metamodel::Stashing -->
<g id="edge10" class="edge">
<title>Metamodel::ModuleHOW&#45;&gt;Metamodel::Stashing</title>
<path fill="none" stroke="#6666ff" d="M1385.5,-519.77C1365.4,-577.46 1303.46,-755.24 1279.36,-824.43"/>
<polygon fill="#6666ff" stroke="#6666ff" points="1275.94,-823.6 1275.95,-834.2 1282.55,-825.91 1275.94,-823.6"/>
</g>
<!-- Metamodel::ModuleHOW&#45;&gt;Metamodel::MethodDelegation -->
<g id="edge12" class="edge">
<title>Metamodel::ModuleHOW&#45;&gt;Metamodel::MethodDelegation</title>
<path fill="none" stroke="#6666ff" d="M1394.26,-483.33C1403.82,-410.12 1439.73,-135.2 1451.37,-46.08"/>
<polygon fill="#6666ff" stroke="#6666ff" points="1454.84,-46.53 1452.67,-36.16 1447.9,-45.62 1454.84,-46.53"/>
</g>
<!-- Metamodel::MethodContainer -->
<g id="node10" class="node">
<title>Metamodel::MethodContainer</title>
<g id="a_node10"><a xlink:href="/type/Metamodel::MethodContainer" xlink:title="Metamodel::MethodContainer">
<ellipse fill="none" stroke="#6666ff" cx="1872.08" cy="-1399.09" rx="127.28" ry="18"/>
<text text-anchor="middle" x="1872.08" y="-1395.39" font-family="FreeSans" font-size="14.00" fill="#6666ff">Metamodel::MethodContainer</text>
</a>
</g>
</g>
<!-- Metamodel::PrivateMethodContainer -->
<g id="node11" class="node">
<title>Metamodel::PrivateMethodContainer</title>
<g id="a_node11"><a xlink:href="/type/Metamodel::PrivateMethodContainer" xlink:title="Metamodel::PrivateMethodContainer">
<ellipse fill="none" stroke="#6666ff" cx="1941.79" cy="-1171.61" rx="154.87" ry="18"/>
<text text-anchor="middle" x="1941.79" y="-1167.91" font-family="FreeSans" font-size="14.00" fill="#6666ff">Metamodel::PrivateMethodContainer</text>
</a>
</g>
</g>
<!-- Metamodel::MultiMethodContainer -->
<g id="node12" class="node">
<title>Metamodel::MultiMethodContainer</title>
<g id="a_node12"><a xlink:href="/type/Metamodel::MultiMethodContainer" xlink:title="Metamodel::MultiMethodContainer">
<ellipse fill="none" stroke="#6666ff" cx="1068.76" cy="-1664.87" rx="146.47" ry="18"/>
<text text-anchor="middle" x="1068.76" y="-1661.17" font-family="FreeSans" font-size="14.00" fill="#6666ff">Metamodel::MultiMethodContainer</text>
</a>
</g>
</g>
<!-- Metamodel::AttributeContainer -->
<g id="node13" class="node">
<title>Metamodel::AttributeContainer</title>
<g id="a_node13"><a xlink:href="/type/Metamodel::AttributeContainer" xlink:title="Metamodel::AttributeContainer">
<ellipse fill="none" stroke="#6666ff" cx="1729.35" cy="-1590.01" rx="129.98" ry="18"/>
<text text-anchor="middle" x="1729.35" y="-1586.31" font-family="FreeSans" font-size="14.00" fill="#6666ff">Metamodel::AttributeContainer</text>
</a>
</g>
</g>
<!-- Metamodel::RoleContainer -->
<g id="node14" class="node">
<title>Metamodel::RoleContainer</title>
<g id="a_node14"><a xlink:href="/type/Metamodel::RoleContainer" xlink:title="Metamodel::RoleContainer">
<ellipse fill="none" stroke="#6666ff" cx="1532.38" cy="-1706.57" rx="115.88" ry="18"/>
<text text-anchor="middle" x="1532.38" y="-1702.87" font-family="FreeSans" font-size="14.00" fill="#6666ff">Metamodel::RoleContainer</text>
</a>
</g>
</g>
<!-- Metamodel::MultipleInheritance -->
<g id="node15" class="node">
<title>Metamodel::MultipleInheritance</title>
<g id="a_node15"><a xlink:href="/type/Metamodel::MultipleInheritance" xlink:title="Metamodel::MultipleInheritance">
<ellipse fill="none" stroke="#6666ff" cx="1274.78" cy="-1733.85" rx="133.78" ry="18"/>
<text text-anchor="middle" x="1274.78" y="-1730.15" font-family="FreeSans" font-size="14.00" fill="#6666ff">Metamodel::MultipleInheritance</text>
</a>
</g>
</g>
<!-- Metamodel::RolePunning -->
<g id="node16" class="node">
<title>Metamodel::RolePunning</title>
<g id="a_node16"><a xlink:href="/type/Metamodel::RolePunning" xlink:title="Metamodel::RolePunning">
<ellipse fill="none" stroke="#6666ff" cx="831.45" cy="-1366.45" rx="109.68" ry="18"/>
<text text-anchor="middle" x="831.45" y="-1362.75" font-family="FreeSans" font-size="14.00" fill="#6666ff">Metamodel::RolePunning</text>
</a>
</g>
</g>
<!-- Metamodel::ParametricRoleHOW -->
<g id="node17" class="node">
<title>Metamodel::ParametricRoleHOW</title>
<g id="a_node17"><a xlink:href="/type/Metamodel::ParametricRoleHOW" xlink:title="Metamodel::ParametricRoleHOW">
<ellipse fill="none" stroke="#000000" cx="1392.32" cy="-1224.68" rx="141.88" ry="18"/>
<text text-anchor="middle" x="1392.32" y="-1220.98" font-family="FreeSans" font-size="14.00" fill="#000000">Metamodel::ParametricRoleHOW</text>
</a>
</g>
</g>
<!-- Metamodel::ParametricRoleHOW&#45;&gt;Metamodel::TypePretense -->
<g id="edge23" class="edge">
<title>Metamodel::ParametricRoleHOW&#45;&gt;Metamodel::TypePretense</title>
<path fill="none" stroke="#6666ff" d="M1370.58,-1206.85C1298.59,-1147.78 1072.44,-962.25 1072.44,-962.25 1072.44,-962.25 1049.95,-934.53 1032.23,-912.69"/>
<polygon fill="#6666ff" stroke="#6666ff" points="1034.75,-910.24 1025.73,-904.68 1029.31,-914.65 1034.75,-910.24"/>
</g>
<!-- Metamodel::ParametricRoleHOW&#45;&gt;Any -->
<g id="edge3" class="edge">
<title>Metamodel::ParametricRoleHOW&#45;&gt;Any</title>
<path fill="none" stroke="#000000" d="M1382.97,-1206.66C1352.25,-1147.44 1256.32,-962.52 1256.32,-962.52 1256.32,-962.52 1054.38,-793.51 982.51,-733.36"/>
<polygon fill="#000000" stroke="#000000" points="984.32,-730.32 974.41,-726.59 979.83,-735.69 984.32,-730.32"/>
</g>
<!-- Metamodel::ParametricRoleHOW&#45;&gt;Metamodel::Naming -->
<g id="edge13" class="edge">
<title>Metamodel::ParametricRoleHOW&#45;&gt;Metamodel::Naming</title>
<path fill="none" stroke="#6666ff" d="M1376.65,-1206.66C1336.95,-1160.97 1232.29,-1040.53 1186.44,-987.77"/>
<polygon fill="#6666ff" stroke="#6666ff" points="1189.06,-985.45 1179.86,-980.19 1183.77,-990.04 1189.06,-985.45"/>
</g>
<!-- Metamodel::ParametricRoleHOW&#45;&gt;Metamodel::Documenting -->
<g id="edge14" class="edge">
<title>Metamodel::ParametricRoleHOW&#45;&gt;Metamodel::Documenting</title>
<path fill="none" stroke="#6666ff" d="M1401.98,-1206.51C1442.74,-1129.8 1600.85,-832.3 1649.43,-740.89"/>
<polygon fill="#6666ff" stroke="#6666ff" points="1652.56,-742.46 1654.16,-731.98 1646.38,-739.17 1652.56,-742.46"/>
</g>
<!-- Metamodel::ParametricRoleHOW&#45;&gt;Metamodel::Versioning -->
<g id="edge15" class="edge">
<title>Metamodel::ParametricRoleHOW&#45;&gt;Metamodel::Versioning</title>
<path fill="none" stroke="#6666ff" d="M1412.88,-1206.71C1480.4,-1147.7 1695.41,-959.78 1773.02,-891.95"/>
<polygon fill="#6666ff" stroke="#6666ff" points="1775.72,-894.24 1780.95,-885.02 1771.11,-888.97 1775.72,-894.24"/>
</g>
<!-- Metamodel::ParametricRoleHOW&#45;&gt;Metamodel::Stashing -->
<g id="edge22" class="edge">
<title>Metamodel::ParametricRoleHOW&#45;&gt;Metamodel::Stashing</title>
<path fill="none" stroke="#6666ff" d="M1386.32,-1206.48C1366.46,-1146.23 1302.79,-953.05 1278.84,-880.38"/>
<polygon fill="#6666ff" stroke="#6666ff" points="1282.06,-878.97 1275.6,-870.57 1275.41,-881.16 1282.06,-878.97"/>
</g>
<!-- Metamodel::ParametricRoleHOW&#45;&gt;Metamodel::MethodContainer -->
<g id="edge16" class="edge">
<title>Metamodel::ParametricRoleHOW&#45;&gt;Metamodel::MethodContainer</title>
<path fill="none" stroke="#6666ff" d="M1439.19,-1241.72C1528.1,-1274.04 1720.83,-1344.1 1816.25,-1378.79"/>
<polygon fill="#6666ff" stroke="#6666ff" points="1815.13,-1382.11 1825.72,-1382.24 1817.52,-1375.53 1815.13,-1382.11"/>
</g>
<!-- Metamodel::ParametricRoleHOW&#45;&gt;Metamodel::PrivateMethodContainer -->
<g id="edge17" class="edge">
<title>Metamodel::ParametricRoleHOW&#45;&gt;Metamodel::PrivateMethodContainer</title>
<path fill="none" stroke="#6666ff" d="M1505.17,-1213.78C1594.41,-1205.16 1719.08,-1193.12 1812.36,-1184.11"/>
<polygon fill="#6666ff" stroke="#6666ff" points="1812.81,-1187.58 1822.43,-1183.14 1812.14,-1180.61 1812.81,-1187.58"/>
</g>
<!-- Metamodel::ParametricRoleHOW&#45;&gt;Metamodel::MultiMethodContainer -->
<g id="edge18" class="edge">
<title>Metamodel::ParametricRoleHOW&#45;&gt;Metamodel::MultiMethodContainer</title>
<path fill="none" stroke="#6666ff" d="M1379.03,-1242.76C1328.43,-1311.6 1147.65,-1557.54 1088.01,-1638.69"/>
<polygon fill="#6666ff" stroke="#6666ff" points="1085.08,-1636.75 1081.98,-1646.88 1090.72,-1640.9 1085.08,-1636.75"/>
</g>
<!-- Metamodel::ParametricRoleHOW&#45;&gt;Metamodel::AttributeContainer -->
<g id="edge19" class="edge">
<title>Metamodel::ParametricRoleHOW&#45;&gt;Metamodel::AttributeContainer</title>
<path fill="none" stroke="#6666ff" d="M1409.03,-1242.8C1464.28,-1302.69 1641.18,-1494.45 1705.6,-1564.27"/>
<polygon fill="#6666ff" stroke="#6666ff" points="1703.18,-1566.81 1712.53,-1571.79 1708.32,-1562.06 1703.18,-1566.81"/>
</g>
<!-- Metamodel::ParametricRoleHOW&#45;&gt;Metamodel::RoleContainer -->
<g id="edge20" class="edge">
<title>Metamodel::ParametricRoleHOW&#45;&gt;Metamodel::RoleContainer</title>
<path fill="none" stroke="#6666ff" d="M1397.55,-1242.7C1418.79,-1315.75 1498.59,-1590.29 1524.33,-1678.85"/>
<polygon fill="#6666ff" stroke="#6666ff" points="1520.97,-1679.84 1527.12,-1688.47 1527.69,-1677.89 1520.97,-1679.84"/>
</g>
<!-- Metamodel::ParametricRoleHOW&#45;&gt;Metamodel::MultipleInheritance -->
<g id="edge21" class="edge">
<title>Metamodel::ParametricRoleHOW&#45;&gt;Metamodel::MultipleInheritance</title>
<path fill="none" stroke="#6666ff" d="M1388.14,-1242.81C1370.55,-1318.97 1302.57,-1613.46 1281.23,-1705.91"/>
<polygon fill="#6666ff" stroke="#6666ff" points="1277.81,-1705.15 1278.98,-1715.68 1284.63,-1706.72 1277.81,-1705.15"/>
</g>
<!-- Metamodel::ParametricRoleHOW&#45;&gt;Metamodel::RolePunning -->
<g id="edge24" class="edge">
<title>Metamodel::ParametricRoleHOW&#45;&gt;Metamodel::RolePunning</title>
<path fill="none" stroke="#6666ff" d="M1328.53,-1240.81C1222.58,-1267.59 1011.18,-1321.02 901.34,-1348.79"/>
<polygon fill="#6666ff" stroke="#6666ff" points="900.19,-1345.46 891.35,-1351.31 901.91,-1352.25 900.19,-1345.46"/>
</g>
<!-- Metamodel::BoolificationProtocol -->
<g id="node18" class="node">
<title>Metamodel::BoolificationProtocol</title>
<g id="a_node18"><a xlink:href="/type/Metamodel::BoolificationProtocol" xlink:title="Metamodel::BoolificationProtocol">
<ellipse fill="none" stroke="#6666ff" cx="139.09" cy="-1075.04" rx="139.18" ry="18"/>
<text text-anchor="middle" x="139.09" y="-1071.34" font-family="FreeSans" font-size="14.00" fill="#6666ff">Metamodel::BoolificationProtocol</text>
</a>
</g>
</g>
<!-- Metamodel::ParametricRoleGroupHOW -->
<g id="node19" class="node">
<title>Metamodel::ParametricRoleGroupHOW</title>
<g id="a_node19"><a xlink:href="/type/Metamodel::ParametricRoleGroupHOW" xlink:title="Metamodel::ParametricRoleGroupHOW">
<ellipse fill="none" stroke="#000000" cx="666.15" cy="-1020.63" rx="166.27" ry="18"/>
<text text-anchor="middle" x="666.15" y="-1016.93" font-family="FreeSans" font-size="14.00" fill="#000000">Metamodel::ParametricRoleGroupHOW</text>
</a>
</g>
</g>
<!-- Metamodel::ParametricRoleGroupHOW&#45;&gt;Metamodel::TypePretense -->
<g id="edge27" class="edge">
<title>Metamodel::ParametricRoleGroupHOW&#45;&gt;Metamodel::TypePretense</title>
<path fill="none" stroke="#6666ff" d="M710.91,-1003.27C774.52,-978.6 890.86,-933.48 958.55,-907.22"/>
<polygon fill="#6666ff" stroke="#6666ff" points="960.11,-910.37 968.17,-903.49 957.58,-903.85 960.11,-910.37"/>
</g>
<!-- Metamodel::ParametricRoleGroupHOW&#45;&gt;Any -->
<g id="edge4" class="edge">
<title>Metamodel::ParametricRoleGroupHOW&#45;&gt;Any</title>
<path fill="none" stroke="#000000" d="M683.5,-1002.27C733.93,-948.92 880.37,-794 935.84,-735.32"/>
<polygon fill="#000000" stroke="#000000" points="938.72,-737.37 943.05,-727.7 933.63,-732.56 938.72,-737.37"/>
</g>
<!-- Metamodel::ParametricRoleGroupHOW&#45;&gt;Metamodel::Naming -->
<g id="edge25" class="edge">
<title>Metamodel::ParametricRoleGroupHOW&#45;&gt;Metamodel::Naming</title>
<path fill="none" stroke="#6666ff" d="M779.2,-1007.41C869.19,-996.89 993.35,-982.38 1076.12,-972.7"/>
<polygon fill="#6666ff" stroke="#6666ff" points="1076.73,-976.16 1086.25,-971.52 1075.91,-969.2 1076.73,-976.16"/>
</g>
<!-- Metamodel::ParametricRoleGroupHOW&#45;&gt;Metamodel::Stashing -->
<g id="edge26" class="edge">
<title>Metamodel::ParametricRoleGroupHOW&#45;&gt;Metamodel::Stashing</title>
<path fill="none" stroke="#6666ff" d="M726.49,-1003.8C841.21,-971.82 1089.7,-902.55 1206.52,-869.98"/>
<polygon fill="#6666ff" stroke="#6666ff" points="1207.7,-873.29 1216.39,-867.23 1205.82,-866.54 1207.7,-873.29"/>
</g>
<!-- Metamodel::ParametricRoleGroupHOW&#45;&gt;Metamodel::RolePunning -->
<g id="edge28" class="edge">
<title>Metamodel::ParametricRoleGroupHOW&#45;&gt;Metamodel::RolePunning</title>
<path fill="none" stroke="#6666ff" d="M674.8,-1038.73C701.96,-1095.56 785.65,-1270.63 818.25,-1338.84"/>
<polygon fill="#6666ff" stroke="#6666ff" points="815.21,-1340.59 822.68,-1348.11 821.52,-1337.57 815.21,-1340.59"/>
</g>
<!-- Metamodel::ParametricRoleGroupHOW&#45;&gt;Metamodel::BoolificationProtocol -->
<g id="edge29" class="edge">
<title>Metamodel::ParametricRoleGroupHOW&#45;&gt;Metamodel::BoolificationProtocol</title>
<path fill="none" stroke="#6666ff" d="M545.56,-1033.08C459.33,-1041.98 343.83,-1053.91 257.99,-1062.77"/>
<polygon fill="#6666ff" stroke="#6666ff" points="257.52,-1059.3 247.93,-1063.81 258.24,-1066.26 257.52,-1059.3"/>
</g>
<!-- Metamodel::PackageHOW -->
<g id="node20" class="node">
<title>Metamodel::PackageHOW</title>
<g id="a_node20"><a xlink:href="/type/Metamodel::PackageHOW" xlink:title="Metamodel::PackageHOW">
<ellipse fill="none" stroke="#000000" cx="1203.12" cy="-416.88" rx="116.18" ry="18"/>
<text text-anchor="middle" x="1203.12" y="-413.18" font-family="FreeSans" font-size="14.00" fill="#000000">Metamodel::PackageHOW</text>
</a>
</g>
</g>
<!-- Metamodel::PackageHOW&#45;&gt;Metamodel::TypePretense -->
<g id="edge33" class="edge">
<title>Metamodel::PackageHOW&#45;&gt;Metamodel::TypePretense</title>
<path fill="none" stroke="#6666ff" d="M1195.71,-435.02C1166.33,-506.97 1057.83,-772.67 1022.45,-859.29"/>
<polygon fill="#6666ff" stroke="#6666ff" points="1019.14,-858.14 1018.6,-868.72 1025.62,-860.78 1019.14,-858.14"/>
</g>
<!-- Metamodel::PackageHOW&#45;&gt;Any -->
<g id="edge5" class="edge">
<title>Metamodel::PackageHOW&#45;&gt;Any</title>
<path fill="none" stroke="#000000" d="M1188.12,-434.93C1145.73,-485.93 1025,-631.19 977.26,-688.63"/>
<polygon fill="#000000" stroke="#000000" points="974.47,-686.51 970.77,-696.44 979.85,-690.99 974.47,-686.51"/>
</g>
<!-- Metamodel::PackageHOW&#45;&gt;Metamodel::Naming -->
<g id="edge30" class="edge">
<title>Metamodel::PackageHOW&#45;&gt;Metamodel::Naming</title>
<path fill="none" stroke="#6666ff" d="M1201.83,-435.03C1196.15,-515.04 1173.31,-836.57 1166.38,-934.16"/>
<polygon fill="#6666ff" stroke="#6666ff" points="1162.89,-933.94 1165.67,-944.17 1169.87,-934.44 1162.89,-933.94"/>
</g>
<!-- Metamodel::PackageHOW&#45;&gt;Metamodel::Documenting -->
<g id="edge31" class="edge">
<title>Metamodel::PackageHOW&#45;&gt;Metamodel::Documenting</title>
<path fill="none" stroke="#6666ff" d="M1219.38,-434.78C1241.9,-459.55 1279.81,-501.26 1279.81,-501.26 1279.81,-501.26 1525.05,-637.18 1623.51,-691.75"/>
<polygon fill="#6666ff" stroke="#6666ff" points="1621.85,-694.83 1632.29,-696.61 1625.24,-688.71 1621.85,-694.83"/>
</g>
<!-- Metamodel::PackageHOW&#45;&gt;Metamodel::Stashing -->
<g id="edge32" class="edge">
<title>Metamodel::PackageHOW&#45;&gt;Metamodel::Stashing</title>
<path fill="none" stroke="#6666ff" d="M1205.89,-435.04C1216.25,-502.9 1252.74,-741.91 1265.32,-824.26"/>
<polygon fill="#6666ff" stroke="#6666ff" points="1261.86,-824.8 1266.83,-834.16 1268.78,-823.74 1261.86,-824.8"/>
</g>
<!-- Metamodel::PackageHOW&#45;&gt;Metamodel::MethodDelegation -->
<g id="edge34" class="edge">
<title>Metamodel::PackageHOW&#45;&gt;Metamodel::MethodDelegation</title>
<path fill="none" stroke="#6666ff" d="M1214.6,-398.71C1254.93,-334.85 1390.26,-120.58 1438.1,-44.82"/>
<polygon fill="#6666ff" stroke="#6666ff" points="1441.11,-46.61 1443.49,-36.28 1435.19,-42.87 1441.11,-46.61"/>
</g>
<!-- Metamodel::CurriedRoleHOW -->
<g id="node21" class="node">
<title>Metamodel::CurriedRoleHOW</title>
<g id="a_node21"><a xlink:href="/type/Metamodel::CurriedRoleHOW" xlink:title="Metamodel::CurriedRoleHOW">
<ellipse fill="none" stroke="#000000" cx="522.69" cy="-857.29" rx="128.08" ry="18"/>
<text text-anchor="middle" x="522.69" y="-853.59" font-family="FreeSans" font-size="14.00" fill="#000000">Metamodel::CurriedRoleHOW</text>
</a>
</g>
</g>
<!-- Metamodel::CurriedRoleHOW&#45;&gt;Metamodel::TypePretense -->
<g id="edge36" class="edge">
<title>Metamodel::CurriedRoleHOW&#45;&gt;Metamodel::TypePretense</title>
<path fill="none" stroke="#6666ff" d="M640.64,-864.41C717.52,-869.06 817.43,-875.09 894.14,-879.72"/>
<polygon fill="#6666ff" stroke="#6666ff" points="894.13,-883.23 904.33,-880.34 894.55,-876.24 894.13,-883.23"/>
</g>
<!-- Metamodel::CurriedRoleHOW&#45;&gt;Any -->
<g id="edge6" class="edge">
<title>Metamodel::CurriedRoleHOW&#45;&gt;Any</title>
<path fill="none" stroke="#000000" d="M572.57,-840.67C662.01,-810.87 847.46,-749.08 923.67,-723.69"/>
<polygon fill="#000000" stroke="#000000" points="924.87,-726.98 933.25,-720.5 922.66,-720.34 924.87,-726.98"/>
</g>
<!-- Metamodel::CurriedRoleHOW&#45;&gt;Metamodel::RolePunning -->
<g id="edge35" class="edge">
<title>Metamodel::CurriedRoleHOW&#45;&gt;Metamodel::RolePunning</title>
<path fill="none" stroke="#6666ff" d="M519.97,-875.38C513.59,-917.88 498.16,-1020.52 498.16,-1020.52 498.16,-1020.52 730.21,-1261.37 807.06,-1341.14"/>
<polygon fill="#6666ff" stroke="#6666ff" points="804.54,-1343.57 814,-1348.34 809.58,-1338.71 804.54,-1343.57"/>
</g>
</g>
</svg>
