<?xml version="1.0" encoding="UTF-8" standalone="no"?>
<!DOCTYPE svg PUBLIC "-//W3C//DTD SVG 1.1//EN"
 "http://www.w3.org/Graphics/SVG/1.1/DTD/svg11.dtd">
<!-- Generated by graphviz version 2.43.0 (0)
 -->
<!-- Title: perl6&#45;type&#45;graph Pages: 1 -->
<svg width="1865pt" height="1806pt"
 viewBox="0.00 0.00 1865.32 1805.94" xmlns="http://www.w3.org/2000/svg" xmlns:xlink="http://www.w3.org/1999/xlink">
<g id="graph0" class="graph" transform="scale(1 1) rotate(0) translate(4 1801.94)">
<title>perl6&#45;type&#45;graph</title>
<polygon fill="white" stroke="transparent" points="-4,4 -4,-1801.94 1861.32,-1801.94 1861.32,4 -4,4"/>
<!-- Metamodel::MethodContainer -->
<g id="node1" class="node">
<title>Metamodel::MethodContainer</title>
<g id="a_node1"><a xlink:href="/type/Metamodel::MethodContainer" xlink:title="Metamodel::MethodContainer">
<ellipse fill="none" stroke="#6666ff" cx="541.05" cy="-878.79" rx="127.28" ry="18"/>
<text text-anchor="middle" x="541.05" y="-875.09" font-family="FreeSans" font-size="14.00" fill="#6666ff">Metamodel::MethodContainer</text>
</a>
</g>
</g>
<!-- Mu -->
<g id="node2" class="node">
<title>Mu</title>
<g id="a_node2"><a xlink:href="/type/Mu" xlink:title="Mu">
<ellipse fill="none" stroke="#000000" cx="1830.32" cy="-886.89" rx="27" ry="18"/>
<text text-anchor="middle" x="1830.32" y="-883.19" font-family="FreeSans" font-size="14.00" fill="#000000">Mu</text>
</a>
</g>
</g>
<!-- Any -->
<g id="node3" class="node">
<title>Any</title>
<g id="a_node3"><a xlink:href="/type/Any" xlink:title="Any">
<ellipse fill="none" stroke="#000000" cx="1276.3" cy="-920.16" rx="27" ry="18"/>
<text text-anchor="middle" x="1276.3" y="-916.46" font-family="FreeSans" font-size="14.00" fill="#000000">Any</text>
</a>
</g>
</g>
<!-- Any&#45;&gt;Mu -->
<g id="edge1" class="edge">
<title>Any&#45;&gt;Mu</title>
<path fill="none" stroke="#000000" d="M1303.4,-918.53C1394.34,-913.07 1688.82,-895.38 1793.21,-889.12"/>
<polygon fill="#000000" stroke="#000000" points="1793.5,-892.6 1803.28,-888.51 1793.08,-885.62 1793.5,-892.6"/>
</g>
<!-- Metamodel::Naming -->
<g id="node4" class="node">
<title>Metamodel::Naming</title>
<g id="a_node4"><a xlink:href="/type/Metamodel::Naming" xlink:title="Metamodel::Naming">
<ellipse fill="none" stroke="#6666ff" cx="870.82" cy="-948.66" rx="90.18" ry="18"/>
<text text-anchor="middle" x="870.82" y="-944.96" font-family="FreeSans" font-size="14.00" fill="#6666ff">Metamodel::Naming</text>
</a>
</g>
</g>
<!-- Metamodel::Documenting -->
<g id="node5" class="node">
<title>Metamodel::Documenting</title>
<g id="a_node5"><a xlink:href="/type/Metamodel::Documenting" xlink:title="Metamodel::Documenting">
<ellipse fill="none" stroke="#6666ff" cx="1328.68" cy="-1140.44" rx="111.28" ry="18"/>
<text text-anchor="middle" x="1328.68" y="-1136.74" font-family="FreeSans" font-size="14.00" fill="#6666ff">Metamodel::Documenting</text>
</a>
</g>
</g>
<!-- Metamodel::Versioning -->
<g id="node6" class="node">
<title>Metamodel::Versioning</title>
<g id="a_node6"><a xlink:href="/type/Metamodel::Versioning" xlink:title="Metamodel::Versioning">
<ellipse fill="none" stroke="#6666ff" cx="396.42" cy="-672.63" rx="100.98" ry="18"/>
<text text-anchor="middle" x="396.42" y="-668.93" font-family="FreeSans" font-size="14.00" fill="#6666ff">Metamodel::Versioning</text>
</a>
</g>
</g>
<!-- Metamodel::Stashing -->
<g id="node7" class="node">
<title>Metamodel::Stashing</title>
<g id="a_node7"><a xlink:href="/type/Metamodel::Stashing" xlink:title="Metamodel::Stashing">
<ellipse fill="none" stroke="#6666ff" cx="1176.91" cy="-1184.45" rx="93.68" ry="18"/>
<text text-anchor="middle" x="1176.91" y="-1180.75" font-family="FreeSans" font-size="14.00" fill="#6666ff">Metamodel::Stashing</text>
</a>
</g>
</g>
<!-- Metamodel::AttributeContainer -->
<g id="node8" class="node">
<title>Metamodel::AttributeContainer</title>
<g id="a_node8"><a xlink:href="/type/Metamodel::AttributeContainer" xlink:title="Metamodel::AttributeContainer">
<ellipse fill="none" stroke="#6666ff" cx="1099.36" cy="-947.61" rx="129.98" ry="18"/>
<text text-anchor="middle" x="1099.36" y="-943.91" font-family="FreeSans" font-size="14.00" fill="#6666ff">Metamodel::AttributeContainer</text>
</a>
</g>
</g>
<!-- Metamodel::Finalization -->
<g id="node9" class="node">
<title>Metamodel::Finalization</title>
<g id="a_node9"><a xlink:href="/type/Metamodel::Finalization" xlink:title="Metamodel::Finalization">
<ellipse fill="none" stroke="#6666ff" cx="103.99" cy="-1036.44" rx="103.98" ry="18"/>
<text text-anchor="middle" x="103.99" y="-1032.74" font-family="FreeSans" font-size="14.00" fill="#6666ff">Metamodel::Finalization</text>
</a>
</g>
</g>
<!-- Metamodel::PrivateMethodContainer -->
<g id="node10" class="node">
<title>Metamodel::PrivateMethodContainer</title>
<g id="a_node10"><a xlink:href="/type/Metamodel::PrivateMethodContainer" xlink:title="Metamodel::PrivateMethodContainer">
<ellipse fill="none" stroke="#6666ff" cx="490.22" cy="-567.9" rx="154.87" ry="18"/>
<text text-anchor="middle" x="490.22" y="-564.2" font-family="FreeSans" font-size="14.00" fill="#6666ff">Metamodel::PrivateMethodContainer</text>
</a>
</g>
</g>
<!-- Metamodel::MultiMethodContainer -->
<g id="node11" class="node">
<title>Metamodel::MultiMethodContainer</title>
<g id="a_node11"><a xlink:href="/type/Metamodel::MultiMethodContainer" xlink:title="Metamodel::MultiMethodContainer">
<ellipse fill="none" stroke="#6666ff" cx="756.48" cy="-834" rx="146.47" ry="18"/>
<text text-anchor="middle" x="756.48" y="-830.3" font-family="FreeSans" font-size="14.00" fill="#6666ff">Metamodel::MultiMethodContainer</text>
</a>
</g>
</g>
<!-- Metamodel::RoleContainer -->
<g id="node12" class="node">
<title>Metamodel::RoleContainer</title>
<g id="a_node12"><a xlink:href="/type/Metamodel::RoleContainer" xlink:title="Metamodel::RoleContainer">
<ellipse fill="none" stroke="#6666ff" cx="652.28" cy="-949.88" rx="115.88" ry="18"/>
<text text-anchor="middle" x="652.28" y="-946.18" font-family="FreeSans" font-size="14.00" fill="#6666ff">Metamodel::RoleContainer</text>
</a>
</g>
</g>
<!-- Metamodel::MultipleInheritance -->
<g id="node13" class="node">
<title>Metamodel::MultipleInheritance</title>
<g id="a_node13"><a xlink:href="/type/Metamodel::MultipleInheritance" xlink:title="Metamodel::MultipleInheritance">
<ellipse fill="none" stroke="#6666ff" cx="1145.7" cy="-732.87" rx="133.78" ry="18"/>
<text text-anchor="middle" x="1145.7" y="-729.17" font-family="FreeSans" font-size="14.00" fill="#6666ff">Metamodel::MultipleInheritance</text>
</a>
</g>
</g>
<!-- Metamodel::DefaultParent -->
<g id="node14" class="node">
<title>Metamodel::DefaultParent</title>
<g id="a_node14"><a xlink:href="/type/Metamodel::DefaultParent" xlink:title="Metamodel::DefaultParent">
<ellipse fill="none" stroke="#6666ff" cx="281.75" cy="-1642.02" rx="113.18" ry="18"/>
<text text-anchor="middle" x="281.75" y="-1638.32" font-family="FreeSans" font-size="14.00" fill="#6666ff">Metamodel::DefaultParent</text>
</a>
</g>
</g>
<!-- Metamodel::C3MRO -->
<g id="node15" class="node">
<title>Metamodel::C3MRO</title>
<g id="a_node15"><a xlink:href="/type/Metamodel::C3MRO" xlink:title="Metamodel::C3MRO">
<ellipse fill="none" stroke="#6666ff" cx="168.82" cy="-1434.76" rx="92.08" ry="18"/>
<text text-anchor="middle" x="168.82" y="-1431.06" font-family="FreeSans" font-size="14.00" fill="#6666ff">Metamodel::C3MRO</text>
</a>
</g>
</g>
<!-- Metamodel::MROBasedMethodDispatch -->
<g id="node16" class="node">
<title>Metamodel::MROBasedMethodDispatch</title>
<g id="a_node16"><a xlink:href="/type/Metamodel::MROBasedMethodDispatch" xlink:title="Metamodel::MROBasedMethodDispatch">
<ellipse fill="none" stroke="#6666ff" cx="1122.98" cy="-1665.67" rx="169.77" ry="18"/>
<text text-anchor="middle" x="1122.98" y="-1661.97" font-family="FreeSans" font-size="14.00" fill="#6666ff">Metamodel::MROBasedMethodDispatch</text>
</a>
</g>
</g>
<!-- Metamodel::MROBasedTypeChecking -->
<g id="node17" class="node">
<title>Metamodel::MROBasedTypeChecking</title>
<g id="a_node17"><a xlink:href="/type/Metamodel::MROBasedTypeChecking" xlink:title="Metamodel::MROBasedTypeChecking">
<ellipse fill="none" stroke="#6666ff" cx="995.25" cy="-1743.98" rx="163.27" ry="18"/>
<text text-anchor="middle" x="995.25" y="-1740.28" font-family="FreeSans" font-size="14.00" fill="#6666ff">Metamodel::MROBasedTypeChecking</text>
</a>
</g>
</g>
<!-- Metamodel::Trusting -->
<g id="node18" class="node">
<title>Metamodel::Trusting</title>
<g id="a_node18"><a xlink:href="/type/Metamodel::Trusting" xlink:title="Metamodel::Trusting">
<ellipse fill="none" stroke="#6666ff" cx="114.27" cy="-1241.52" rx="91.78" ry="18"/>
<text text-anchor="middle" x="114.27" y="-1237.82" font-family="FreeSans" font-size="14.00" fill="#6666ff">Metamodel::Trusting</text>
</a>
</g>
</g>
<!-- Metamodel::BUILDPLAN -->
<g id="node19" class="node">
<title>Metamodel::BUILDPLAN</title>
<g id="a_node19"><a xlink:href="/type/Metamodel::BUILDPLAN" xlink:title="Metamodel::BUILDPLAN">
<ellipse fill="none" stroke="#6666ff" cx="522.64" cy="-1578.78" rx="109.68" ry="18"/>
<text text-anchor="middle" x="522.64" y="-1575.08" font-family="FreeSans" font-size="14.00" fill="#6666ff">Metamodel::BUILDPLAN</text>
</a>
</g>
</g>
<!-- Metamodel::Mixins -->
<g id="node20" class="node">
<title>Metamodel::Mixins</title>
<g id="a_node20"><a xlink:href="/type/Metamodel::Mixins" xlink:title="Metamodel::Mixins">
<ellipse fill="none" stroke="#6666ff" cx="738.79" cy="-1779.94" rx="85.29" ry="18"/>
<text text-anchor="middle" x="738.79" y="-1776.24" font-family="FreeSans" font-size="14.00" fill="#6666ff">Metamodel::Mixins</text>
</a>
</g>
</g>
<!-- Metamodel::BoolificationProtocol -->
<g id="node21" class="node">
<title>Metamodel::BoolificationProtocol</title>
<g id="a_node21"><a xlink:href="/type/Metamodel::BoolificationProtocol" xlink:title="Metamodel::BoolificationProtocol">
<ellipse fill="none" stroke="#6666ff" cx="627.9" cy="-1725.4" rx="139.18" ry="18"/>
<text text-anchor="middle" x="627.9" y="-1721.7" font-family="FreeSans" font-size="14.00" fill="#6666ff">Metamodel::BoolificationProtocol</text>
</a>
</g>
</g>
<!-- Metamodel::ClassHOW -->
<g id="node22" class="node">
<title>Metamodel::ClassHOW</title>
<g id="a_node22"><a xlink:href="/type/Metamodel::ClassHOW" xlink:title="Metamodel::ClassHOW">
<ellipse fill="none" stroke="#000000" cx="694.02" cy="-1232.79" rx="103.18" ry="18"/>
<text text-anchor="middle" x="694.02" y="-1229.09" font-family="FreeSans" font-size="14.00" fill="#000000">Metamodel::ClassHOW</text>
</a>
</g>
</g>
<!-- Metamodel::ClassHOW&#45;&gt;Metamodel::MethodContainer -->
<g id="edge12" class="edge">
<title>Metamodel::ClassHOW&#45;&gt;Metamodel::MethodContainer</title>
<path fill="none" stroke="#6666ff" d="M683.83,-1214.65C648.73,-1152.18 534.99,-949.75 534.99,-949.75 534.99,-949.75 536.93,-927 538.62,-907.26"/>
<polygon fill="#6666ff" stroke="#6666ff" points="542.13,-907.32 539.49,-897.06 535.15,-906.73 542.13,-907.32"/>
</g>
<!-- Metamodel::ClassHOW&#45;&gt;Any -->
<g id="edge2" class="edge">
<title>Metamodel::ClassHOW&#45;&gt;Any</title>
<path fill="none" stroke="#000000" d="M726.4,-1215.6C842.48,-1153.96 1230.95,-947.71 1230.95,-947.71 1230.95,-947.71 1238.52,-943.11 1247.47,-937.67"/>
<polygon fill="#000000" stroke="#000000" points="1249.55,-940.51 1256.28,-932.32 1245.91,-934.52 1249.55,-940.51"/>
</g>
<!-- Metamodel::ClassHOW&#45;&gt;Metamodel::Naming -->
<g id="edge6" class="edge">
<title>Metamodel::ClassHOW&#45;&gt;Metamodel::Naming</title>
<path fill="none" stroke="#6666ff" d="M705.35,-1214.58C735.66,-1165.87 818.73,-1032.37 854.3,-975.21"/>
<polygon fill="#6666ff" stroke="#6666ff" points="857.27,-977.05 859.58,-966.71 851.33,-973.35 857.27,-977.05"/>
</g>
<!-- Metamodel::ClassHOW&#45;&gt;Metamodel::Documenting -->
<g id="edge7" class="edge">
<title>Metamodel::ClassHOW&#45;&gt;Metamodel::Documenting</title>
<path fill="none" stroke="#6666ff" d="M772.75,-1221C893.34,-1202.95 1109.98,-1170.51 1109.98,-1170.51 1109.98,-1170.51 1174.64,-1161.62 1233.64,-1153.51"/>
<polygon fill="#6666ff" stroke="#6666ff" points="1234.38,-1156.94 1243.81,-1152.11 1233.43,-1150 1234.38,-1156.94"/>
</g>
<!-- Metamodel::ClassHOW&#45;&gt;Metamodel::Versioning -->
<g id="edge8" class="edge">
<title>Metamodel::ClassHOW&#45;&gt;Metamodel::Versioning</title>
<path fill="none" stroke="#6666ff" d="M679.65,-1214.74C622.19,-1142.59 412.06,-878.69 412.06,-878.69 412.06,-878.69 402.86,-757.47 398.57,-700.98"/>
<polygon fill="#6666ff" stroke="#6666ff" points="402.05,-700.62 397.81,-690.91 395.07,-701.15 402.05,-700.62"/>
</g>
<!-- Metamodel::ClassHOW&#45;&gt;Metamodel::Stashing -->
<g id="edge9" class="edge">
<title>Metamodel::ClassHOW&#45;&gt;Metamodel::Stashing</title>
<path fill="none" stroke="#6666ff" d="M783.72,-1223.81C869.11,-1215.26 997.11,-1202.45 1083.66,-1193.78"/>
<polygon fill="#6666ff" stroke="#6666ff" points="1084.14,-1197.25 1093.74,-1192.77 1083.44,-1190.29 1084.14,-1197.25"/>
</g>
<!-- Metamodel::ClassHOW&#45;&gt;Metamodel::AttributeContainer -->
<g id="edge10" class="edge">
<title>Metamodel::ClassHOW&#45;&gt;Metamodel::AttributeContainer</title>
<path fill="none" stroke="#6666ff" d="M719.07,-1215.17C788.96,-1166 986.14,-1027.27 1065.57,-971.38"/>
<polygon fill="#6666ff" stroke="#6666ff" points="1068.06,-973.92 1074.22,-965.3 1064.03,-968.19 1068.06,-973.92"/>
</g>
<!-- Metamodel::ClassHOW&#45;&gt;Metamodel::Finalization -->
<g id="edge11" class="edge">
<title>Metamodel::ClassHOW&#45;&gt;Metamodel::Finalization</title>
<path fill="none" stroke="#6666ff" d="M645.74,-1216.72C537.96,-1180.86 278.15,-1094.4 161.91,-1055.71"/>
<polygon fill="#6666ff" stroke="#6666ff" points="162.71,-1052.29 152.11,-1052.45 160.5,-1058.93 162.71,-1052.29"/>
</g>
<!-- Metamodel::ClassHOW&#45;&gt;Metamodel::PrivateMethodContainer -->
<g id="edge13" class="edge">
<title>Metamodel::ClassHOW&#45;&gt;Metamodel::PrivateMethodContainer</title>
<path fill="none" stroke="#6666ff" d="M679.65,-1214.74C622.19,-1142.59 412.06,-878.69 412.06,-878.69 412.06,-878.69 498.76,-672.75 498.76,-672.75 498.76,-672.75 495.07,-627.5 492.54,-596.46"/>
<polygon fill="#6666ff" stroke="#6666ff" points="496,-595.85 491.7,-586.17 489.03,-596.42 496,-595.85"/>
</g>
<!-- Metamodel::ClassHOW&#45;&gt;Metamodel::MultiMethodContainer -->
<g id="edge14" class="edge">
<title>Metamodel::ClassHOW&#45;&gt;Metamodel::MultiMethodContainer</title>
<path fill="none" stroke="#6666ff" d="M698.86,-1214.67C715.53,-1152.26 769.57,-950.02 769.57,-950.02 769.57,-950.02 763.52,-896.42 759.65,-862.08"/>
<polygon fill="#6666ff" stroke="#6666ff" points="763.13,-861.67 758.53,-852.13 756.17,-862.45 763.13,-861.67"/>
</g>
<!-- Metamodel::ClassHOW&#45;&gt;Metamodel::RoleContainer -->
<g id="edge15" class="edge">
<title>Metamodel::ClassHOW&#45;&gt;Metamodel::RoleContainer</title>
<path fill="none" stroke="#6666ff" d="M691.35,-1214.66C684.27,-1166.67 664.99,-1036.05 656.45,-978.15"/>
<polygon fill="#6666ff" stroke="#6666ff" points="659.91,-977.61 654.99,-968.23 652.98,-978.63 659.91,-977.61"/>
</g>
<!-- Metamodel::ClassHOW&#45;&gt;Metamodel::MultipleInheritance -->
<g id="edge16" class="edge">
<title>Metamodel::ClassHOW&#45;&gt;Metamodel::MultipleInheritance</title>
<path fill="none" stroke="#6666ff" d="M710.83,-1215.02C769.66,-1152.83 962.76,-948.71 962.76,-948.71 962.76,-948.71 1075.13,-816.14 1123.73,-758.79"/>
<polygon fill="#6666ff" stroke="#6666ff" points="1126.63,-760.79 1130.42,-750.9 1121.29,-756.27 1126.63,-760.79"/>
</g>
<!-- Metamodel::ClassHOW&#45;&gt;Metamodel::DefaultParent -->
<g id="edge17" class="edge">
<title>Metamodel::ClassHOW&#45;&gt;Metamodel::DefaultParent</title>
<path fill="none" stroke="#6666ff" d="M676.04,-1250.64C610.41,-1315.78 383.64,-1540.89 307.16,-1616.8"/>
<polygon fill="#6666ff" stroke="#6666ff" points="304.46,-1614.55 299.83,-1624.08 309.39,-1619.52 304.46,-1614.55"/>
</g>
<!-- Metamodel::ClassHOW&#45;&gt;Metamodel::C3MRO -->
<g id="edge18" class="edge">
<title>Metamodel::ClassHOW&#45;&gt;Metamodel::C3MRO</title>
<path fill="none" stroke="#6666ff" d="M651.04,-1249.32C555.16,-1286.19 324.09,-1375.05 220.54,-1414.87"/>
<polygon fill="#6666ff" stroke="#6666ff" points="219,-1411.71 210.92,-1418.57 221.51,-1418.25 219,-1411.71"/>
</g>
<!-- Metamodel::ClassHOW&#45;&gt;Metamodel::MROBasedMethodDispatch -->
<g id="edge19" class="edge">
<title>Metamodel::ClassHOW&#45;&gt;Metamodel::MROBasedMethodDispatch</title>
<path fill="none" stroke="#6666ff" d="M711.64,-1250.57C778.84,-1318.38 1019.24,-1560.99 1097.88,-1640.35"/>
<polygon fill="#6666ff" stroke="#6666ff" points="1095.45,-1642.87 1104.98,-1647.51 1100.43,-1637.94 1095.45,-1642.87"/>
</g>
<!-- Metamodel::ClassHOW&#45;&gt;Metamodel::MROBasedTypeChecking -->
<g id="edge20" class="edge">
<title>Metamodel::ClassHOW&#45;&gt;Metamodel::MROBasedTypeChecking</title>
<path fill="none" stroke="#6666ff" d="M704.74,-1250.98C750.03,-1327.85 925.83,-1626.19 979.56,-1717.37"/>
<polygon fill="#6666ff" stroke="#6666ff" points="976.56,-1719.17 984.65,-1726.01 982.59,-1715.62 976.56,-1719.17"/>
</g>
<!-- Metamodel::ClassHOW&#45;&gt;Metamodel::Trusting -->
<g id="edge21" class="edge">
<title>Metamodel::ClassHOW&#45;&gt;Metamodel::Trusting</title>
<path fill="none" stroke="#6666ff" d="M591.04,-1234.34C485.13,-1235.93 321.19,-1238.4 215.8,-1239.99"/>
<polygon fill="#6666ff" stroke="#6666ff" points="215.74,-1236.49 205.79,-1240.14 215.84,-1243.49 215.74,-1236.49"/>
</g>
<!-- Metamodel::ClassHOW&#45;&gt;Metamodel::BUILDPLAN -->
<g id="edge22" class="edge">
<title>Metamodel::ClassHOW&#45;&gt;Metamodel::BUILDPLAN</title>
<path fill="none" stroke="#6666ff" d="M685.05,-1250.9C656.89,-1307.76 570.12,-1482.92 536.32,-1551.16"/>
<polygon fill="#6666ff" stroke="#6666ff" points="533.03,-1549.92 531.73,-1560.43 539.31,-1553.02 533.03,-1549.92"/>
</g>
<!-- Metamodel::ClassHOW&#45;&gt;Metamodel::Mixins -->
<g id="edge23" class="edge">
<title>Metamodel::ClassHOW&#45;&gt;Metamodel::Mixins</title>
<path fill="none" stroke="#6666ff" d="M696.76,-1250.91C710.22,-1339.79 768.59,-1725.44 768.59,-1725.44 768.59,-1725.44 761.05,-1739.23 753.55,-1752.94"/>
<polygon fill="#6666ff" stroke="#6666ff" points="750.44,-1751.34 748.71,-1761.79 756.58,-1754.7 750.44,-1751.34"/>
</g>
<!-- Metamodel::ClassHOW&#45;&gt;Metamodel::BoolificationProtocol -->
<g id="edge24" class="edge">
<title>Metamodel::ClassHOW&#45;&gt;Metamodel::BoolificationProtocol</title>
<path fill="none" stroke="#6666ff" d="M691.59,-1250.91C681.61,-1325.22 643.79,-1606.99 631.67,-1697.34"/>
<polygon fill="#6666ff" stroke="#6666ff" points="628.18,-1697 630.32,-1707.38 635.12,-1697.94 628.18,-1697"/>
</g>
<!-- Metamodel::BaseType -->
<g id="node23" class="node">
<title>Metamodel::BaseType</title>
<g id="a_node23"><a xlink:href="/type/Metamodel::BaseType" xlink:title="Metamodel::BaseType">
<ellipse fill="none" stroke="#6666ff" cx="1551.84" cy="-1705.64" rx="99.38" ry="18"/>
<text text-anchor="middle" x="1551.84" y="-1701.94" font-family="FreeSans" font-size="14.00" fill="#6666ff">Metamodel::BaseType</text>
</a>
</g>
</g>
<!-- Metamodel::EnumHOW -->
<g id="node24" class="node">
<title>Metamodel::EnumHOW</title>
<g id="a_node24"><a xlink:href="/type/Metamodel::EnumHOW" xlink:title="Metamodel::EnumHOW">
<ellipse fill="none" stroke="#000000" cx="987.87" cy="-1369.82" rx="104.78" ry="18"/>
<text text-anchor="middle" x="987.87" y="-1366.12" font-family="FreeSans" font-size="14.00" fill="#000000">Metamodel::EnumHOW</text>
</a>
</g>
</g>
<!-- Metamodel::EnumHOW&#45;&gt;Metamodel::MethodContainer -->
<g id="edge28" class="edge">
<title>Metamodel::EnumHOW&#45;&gt;Metamodel::MethodContainer</title>
<path fill="none" stroke="#6666ff" d="M968.7,-1352.04C882.51,-1272.09 534.99,-949.75 534.99,-949.75 534.99,-949.75 536.93,-927 538.62,-907.26"/>
<polygon fill="#6666ff" stroke="#6666ff" points="542.13,-907.32 539.49,-897.06 535.15,-906.73 542.13,-907.32"/>
</g>
<!-- Metamodel::EnumHOW&#45;&gt;Any -->
<g id="edge3" class="edge">
<title>Metamodel::EnumHOW&#45;&gt;Any</title>
<path fill="none" stroke="#000000" d="M997.04,-1351.7C1020.66,-1305.03 1081.72,-1184.33 1081.72,-1184.33 1081.72,-1184.33 1209.77,-1010.48 1258.12,-944.84"/>
<polygon fill="#000000" stroke="#000000" points="1261.01,-946.81 1264.13,-936.68 1255.38,-942.66 1261.01,-946.81"/>
</g>
<!-- Metamodel::EnumHOW&#45;&gt;Metamodel::Naming -->
<g id="edge25" class="edge">
<title>Metamodel::EnumHOW&#45;&gt;Metamodel::Naming</title>
<path fill="none" stroke="#6666ff" d="M982.85,-1351.73C964.46,-1285.58 900.81,-1056.58 878.57,-976.54"/>
<polygon fill="#6666ff" stroke="#6666ff" points="881.88,-975.39 875.83,-966.69 875.14,-977.26 881.88,-975.39"/>
</g>
<!-- Metamodel::EnumHOW&#45;&gt;Metamodel::Stashing -->
<g id="edge26" class="edge">
<title>Metamodel::EnumHOW&#45;&gt;Metamodel::Stashing</title>
<path fill="none" stroke="#6666ff" d="M1006,-1352.05C1039.87,-1318.83 1112.85,-1247.27 1151.57,-1209.29"/>
<polygon fill="#6666ff" stroke="#6666ff" points="1154.15,-1211.67 1158.84,-1202.17 1149.25,-1206.67 1154.15,-1211.67"/>
</g>
<!-- Metamodel::EnumHOW&#45;&gt;Metamodel::AttributeContainer -->
<g id="edge27" class="edge">
<title>Metamodel::EnumHOW&#45;&gt;Metamodel::AttributeContainer</title>
<path fill="none" stroke="#6666ff" d="M992.67,-1351.68C1010.18,-1285.37 1070.79,-1055.8 1091.98,-975.56"/>
<polygon fill="#6666ff" stroke="#6666ff" points="1095.42,-976.25 1094.59,-965.69 1088.65,-974.46 1095.42,-976.25"/>
</g>
<!-- Metamodel::EnumHOW&#45;&gt;Metamodel::MultiMethodContainer -->
<g id="edge29" class="edge">
<title>Metamodel::EnumHOW&#45;&gt;Metamodel::MultiMethodContainer</title>
<path fill="none" stroke="#6666ff" d="M978.89,-1351.73C938.89,-1271.1 778.88,-948.61 778.88,-948.61 778.88,-948.61 768.58,-895.94 761.95,-862.01"/>
<polygon fill="#6666ff" stroke="#6666ff" points="765.38,-861.3 760.03,-852.16 758.51,-862.64 765.38,-861.3"/>
</g>
<!-- Metamodel::EnumHOW&#45;&gt;Metamodel::RoleContainer -->
<g id="edge30" class="edge">
<title>Metamodel::EnumHOW&#45;&gt;Metamodel::RoleContainer</title>
<path fill="none" stroke="#6666ff" d="M973.45,-1351.78C920.31,-1285.28 735.29,-1053.76 672.96,-975.76"/>
<polygon fill="#6666ff" stroke="#6666ff" points="675.62,-973.49 666.65,-967.86 670.16,-977.86 675.62,-973.49"/>
</g>
<!-- Metamodel::EnumHOW&#45;&gt;Metamodel::MROBasedMethodDispatch -->
<g id="edge32" class="edge">
<title>Metamodel::EnumHOW&#45;&gt;Metamodel::MROBasedMethodDispatch</title>
<path fill="none" stroke="#6666ff" d="M996.12,-1387.89C1018.97,-1437.92 1083.19,-1578.54 1110.47,-1638.28"/>
<polygon fill="#6666ff" stroke="#6666ff" points="1107.33,-1639.83 1114.67,-1647.47 1113.7,-1636.92 1107.33,-1639.83"/>
</g>
<!-- Metamodel::EnumHOW&#45;&gt;Metamodel::MROBasedTypeChecking -->
<g id="edge33" class="edge">
<title>Metamodel::EnumHOW&#45;&gt;Metamodel::MROBasedTypeChecking</title>
<path fill="none" stroke="#6666ff" d="M985.67,-1387.88C977.82,-1452.1 951.74,-1665.6 951.74,-1665.6 951.74,-1665.6 967.63,-1694.22 980.2,-1716.87"/>
<polygon fill="#6666ff" stroke="#6666ff" points="977.24,-1718.76 985.16,-1725.8 983.36,-1715.36 977.24,-1718.76"/>
</g>
<!-- Metamodel::EnumHOW&#45;&gt;Metamodel::BUILDPLAN -->
<g id="edge34" class="edge">
<title>Metamodel::EnumHOW&#45;&gt;Metamodel::BUILDPLAN</title>
<path fill="none" stroke="#6666ff" d="M950.2,-1386.75C865.9,-1424.61 662.22,-1516.09 569.74,-1557.63"/>
<polygon fill="#6666ff" stroke="#6666ff" points="568.03,-1554.56 560.35,-1561.85 570.9,-1560.94 568.03,-1554.56"/>
</g>
<!-- Metamodel::EnumHOW&#45;&gt;Metamodel::Mixins -->
<g id="edge36" class="edge">
<title>Metamodel::EnumHOW&#45;&gt;Metamodel::Mixins</title>
<path fill="none" stroke="#6666ff" d="M976.85,-1387.98C937.22,-1453.22 801.87,-1676.08 754.96,-1753.32"/>
<polygon fill="#6666ff" stroke="#6666ff" points="751.88,-1751.64 749.68,-1762 757.87,-1755.27 751.88,-1751.64"/>
</g>
<!-- Metamodel::EnumHOW&#45;&gt;Metamodel::BoolificationProtocol -->
<g id="edge35" class="edge">
<title>Metamodel::EnumHOW&#45;&gt;Metamodel::BoolificationProtocol</title>
<path fill="none" stroke="#6666ff" d="M969.53,-1387.95C910.07,-1446.68 722.55,-1631.91 653.64,-1699.98"/>
<polygon fill="#6666ff" stroke="#6666ff" points="650.86,-1697.8 646.21,-1707.32 655.78,-1702.78 650.86,-1697.8"/>
</g>
<!-- Metamodel::EnumHOW&#45;&gt;Metamodel::BaseType -->
<g id="edge31" class="edge">
<title>Metamodel::EnumHOW&#45;&gt;Metamodel::BaseType</title>
<path fill="none" stroke="#6666ff" d="M1017.01,-1387.17C1111.36,-1443.36 1408.54,-1620.31 1514.15,-1683.2"/>
<polygon fill="#6666ff" stroke="#6666ff" points="1512.5,-1686.29 1522.88,-1688.4 1516.08,-1680.28 1512.5,-1686.29"/>
</g>
<!-- Metamodel::TypePretense -->
<g id="node25" class="node">
<title>Metamodel::TypePretense</title>
<g id="a_node25"><a xlink:href="/type/Metamodel::TypePretense" xlink:title="Metamodel::TypePretense">
<ellipse fill="none" stroke="#6666ff" cx="1380.91" cy="-165.47" rx="114.28" ry="18"/>
<text text-anchor="middle" x="1380.91" y="-161.77" font-family="FreeSans" font-size="14.00" fill="#6666ff">Metamodel::TypePretense</text>
</a>
</g>
</g>
<!-- Metamodel::RolePunning -->
<g id="node26" class="node">
<title>Metamodel::RolePunning</title>
<g id="a_node26"><a xlink:href="/type/Metamodel::RolePunning" xlink:title="Metamodel::RolePunning">
<ellipse fill="none" stroke="#6666ff" cx="975.77" cy="-18" rx="109.68" ry="18"/>
<text text-anchor="middle" x="975.77" y="-14.3" font-family="FreeSans" font-size="14.00" fill="#6666ff">Metamodel::RolePunning</text>
</a>
</g>
</g>
<!-- Metamodel::ParametricRoleHOW -->
<g id="node27" class="node">
<title>Metamodel::ParametricRoleHOW</title>
<g id="a_node27"><a xlink:href="/type/Metamodel::ParametricRoleHOW" xlink:title="Metamodel::ParametricRoleHOW">
<ellipse fill="none" stroke="#000000" cx="1004.76" cy="-551.59" rx="141.88" ry="18"/>
<text text-anchor="middle" x="1004.76" y="-547.89" font-family="FreeSans" font-size="14.00" fill="#000000">Metamodel::ParametricRoleHOW</text>
</a>
</g>
</g>
<!-- Metamodel::ParametricRoleHOW&#45;&gt;Metamodel::MethodContainer -->
<g id="edge40" class="edge">
<title>Metamodel::ParametricRoleHOW&#45;&gt;Metamodel::MethodContainer</title>
<path fill="none" stroke="#6666ff" d="M979.5,-569.41C901.3,-624.58 663.19,-792.6 574.67,-855.07"/>
<polygon fill="#6666ff" stroke="#6666ff" points="572.48,-852.32 566.33,-860.95 576.52,-858.04 572.48,-852.32"/>
</g>
<!-- Metamodel::ParametricRoleHOW&#45;&gt;Any -->
<g id="edge4" class="edge">
<title>Metamodel::ParametricRoleHOW&#45;&gt;Any</title>
<path fill="none" stroke="#000000" d="M1005.3,-569.62C1006.68,-615.43 1010.22,-732.72 1010.22,-732.72 1010.22,-732.72 1181.32,-853.25 1249.11,-901"/>
<polygon fill="#000000" stroke="#000000" points="1247.4,-904.08 1257.59,-906.98 1251.43,-898.36 1247.4,-904.08"/>
</g>
<!-- Metamodel::ParametricRoleHOW&#45;&gt;Metamodel::Naming -->
<g id="edge37" class="edge">
<title>Metamodel::ParametricRoleHOW&#45;&gt;Metamodel::Naming</title>
<path fill="none" stroke="#6666ff" d="M998.65,-569.68C977.34,-632.86 906.14,-843.95 880.29,-920.57"/>
<polygon fill="#6666ff" stroke="#6666ff" points="876.84,-919.87 876.96,-930.46 883.47,-922.1 876.84,-919.87"/>
</g>
<!-- Metamodel::ParametricRoleHOW&#45;&gt;Metamodel::Documenting -->
<g id="edge38" class="edge">
<title>Metamodel::ParametricRoleHOW&#45;&gt;Metamodel::Documenting</title>
<path fill="none" stroke="#6666ff" d="M1005.3,-569.62C1006.68,-615.43 1010.22,-732.72 1010.22,-732.72 1010.22,-732.72 1230.95,-947.71 1230.95,-947.71 1230.95,-947.71 1287.85,-1059.93 1314.82,-1113.11"/>
<polygon fill="#6666ff" stroke="#6666ff" points="1311.84,-1114.97 1319.48,-1122.31 1318.08,-1111.81 1311.84,-1114.97"/>
</g>
<!-- Metamodel::ParametricRoleHOW&#45;&gt;Metamodel::Versioning -->
<g id="edge39" class="edge">
<title>Metamodel::ParametricRoleHOW&#45;&gt;Metamodel::Versioning</title>
<path fill="none" stroke="#6666ff" d="M928.33,-566.79C811.89,-589.96 591.28,-633.85 474.11,-657.17"/>
<polygon fill="#6666ff" stroke="#6666ff" points="473.25,-653.77 464.13,-659.15 474.62,-660.63 473.25,-653.77"/>
</g>
<!-- Metamodel::ParametricRoleHOW&#45;&gt;Metamodel::Stashing -->
<g id="edge46" class="edge">
<title>Metamodel::ParametricRoleHOW&#45;&gt;Metamodel::Stashing</title>
<path fill="none" stroke="#6666ff" d="M1003.07,-569.63C995.84,-647.08 967.78,-947.51 967.78,-947.51 967.78,-947.51 1100.38,-1097.74 1154.41,-1158.95"/>
<polygon fill="#6666ff" stroke="#6666ff" points="1151.95,-1161.46 1161.19,-1166.64 1157.2,-1156.82 1151.95,-1161.46"/>
</g>
<!-- Metamodel::ParametricRoleHOW&#45;&gt;Metamodel::AttributeContainer -->
<g id="edge43" class="edge">
<title>Metamodel::ParametricRoleHOW&#45;&gt;Metamodel::AttributeContainer</title>
<path fill="none" stroke="#6666ff" d="M1005.3,-569.62C1006.68,-615.43 1010.22,-732.72 1010.22,-732.72 1010.22,-732.72 1063.82,-861.94 1087.9,-919.97"/>
<polygon fill="#6666ff" stroke="#6666ff" points="1084.7,-921.39 1091.76,-929.29 1091.16,-918.71 1084.7,-921.39"/>
</g>
<!-- Metamodel::ParametricRoleHOW&#45;&gt;Metamodel::PrivateMethodContainer -->
<g id="edge41" class="edge">
<title>Metamodel::ParametricRoleHOW&#45;&gt;Metamodel::PrivateMethodContainer</title>
<path fill="none" stroke="#6666ff" d="M867.21,-555.95C800.24,-558.07 719.36,-560.64 649.7,-562.85"/>
<polygon fill="#6666ff" stroke="#6666ff" points="649.39,-559.35 639.51,-563.17 649.62,-566.35 649.39,-559.35"/>
</g>
<!-- Metamodel::ParametricRoleHOW&#45;&gt;Metamodel::MultiMethodContainer -->
<g id="edge42" class="edge">
<title>Metamodel::ParametricRoleHOW&#45;&gt;Metamodel::MultiMethodContainer</title>
<path fill="none" stroke="#6666ff" d="M988.85,-569.68C946.11,-618.3 828.67,-751.88 779.07,-808.31"/>
<polygon fill="#6666ff" stroke="#6666ff" points="776.23,-806.23 772.26,-816.05 781.49,-810.85 776.23,-806.23"/>
</g>
<!-- Metamodel::ParametricRoleHOW&#45;&gt;Metamodel::RoleContainer -->
<g id="edge44" class="edge">
<title>Metamodel::ParametricRoleHOW&#45;&gt;Metamodel::RoleContainer</title>
<path fill="none" stroke="#6666ff" d="M998.32,-569.68C976.15,-632.03 904.32,-834.05 904.32,-834.05 904.32,-834.05 771.75,-894.98 698.9,-928.46"/>
<polygon fill="#6666ff" stroke="#6666ff" points="697.09,-925.44 689.47,-932.79 700.02,-931.8 697.09,-925.44"/>
</g>
<!-- Metamodel::ParametricRoleHOW&#45;&gt;Metamodel::MultipleInheritance -->
<g id="edge45" class="edge">
<title>Metamodel::ParametricRoleHOW&#45;&gt;Metamodel::MultipleInheritance</title>
<path fill="none" stroke="#6666ff" d="M1018.79,-569.63C1043.9,-601.94 1096.63,-669.75 1125.59,-707"/>
<polygon fill="#6666ff" stroke="#6666ff" points="1122.83,-709.15 1131.73,-714.9 1128.36,-704.85 1122.83,-709.15"/>
</g>
<!-- Metamodel::ParametricRoleHOW&#45;&gt;Metamodel::TypePretense -->
<g id="edge47" class="edge">
<title>Metamodel::ParametricRoleHOW&#45;&gt;Metamodel::TypePretense</title>
<path fill="none" stroke="#6666ff" d="M1022.39,-533.48C1083.36,-470.9 1285.28,-263.63 1356.1,-190.94"/>
<polygon fill="#6666ff" stroke="#6666ff" points="1358.84,-193.14 1363.31,-183.54 1353.82,-188.26 1358.84,-193.14"/>
</g>
<!-- Metamodel::ParametricRoleHOW&#45;&gt;Metamodel::RolePunning -->
<g id="edge48" class="edge">
<title>Metamodel::ParametricRoleHOW&#45;&gt;Metamodel::RolePunning</title>
<path fill="none" stroke="#6666ff" d="M1003.78,-533.53C999.5,-454.91 982.51,-142.15 977.3,-46.16"/>
<polygon fill="#6666ff" stroke="#6666ff" points="980.78,-45.85 976.75,-36.05 973.79,-46.23 980.78,-45.85"/>
</g>
<!-- Metamodel::ConcreteRoleHOW -->
<g id="node28" class="node">
<title>Metamodel::ConcreteRoleHOW</title>
<g id="a_node28"><a xlink:href="/type/Metamodel::ConcreteRoleHOW" xlink:title="Metamodel::ConcreteRoleHOW">
<ellipse fill="none" stroke="#000000" cx="826.1" cy="-483.96" rx="135.38" ry="18"/>
<text text-anchor="middle" x="826.1" y="-480.26" font-family="FreeSans" font-size="14.00" fill="#000000">Metamodel::ConcreteRoleHOW</text>
</a>
</g>
</g>
<!-- Metamodel::ConcreteRoleHOW&#45;&gt;Metamodel::MethodContainer -->
<g id="edge52" class="edge">
<title>Metamodel::ConcreteRoleHOW&#45;&gt;Metamodel::MethodContainer</title>
<path fill="none" stroke="#6666ff" d="M813.11,-501.95C767.48,-565.15 614.35,-777.25 560.21,-852.24"/>
<polygon fill="#6666ff" stroke="#6666ff" points="557.13,-850.53 554.11,-860.69 562.8,-854.63 557.13,-850.53"/>
</g>
<!-- Metamodel::ConcreteRoleHOW&#45;&gt;Any -->
<g id="edge5" class="edge">
<title>Metamodel::ConcreteRoleHOW&#45;&gt;Any</title>
<path fill="none" stroke="#000000" d="M835.58,-502.07C846.06,-522.09 861.47,-551.54 861.47,-551.54 861.47,-551.54 1010.22,-732.72 1010.22,-732.72 1010.22,-732.72 1181.32,-853.25 1249.11,-901"/>
<polygon fill="#000000" stroke="#000000" points="1247.4,-904.08 1257.59,-906.98 1251.43,-898.36 1247.4,-904.08"/>
</g>
<!-- Metamodel::ConcreteRoleHOW&#45;&gt;Metamodel::Naming -->
<g id="edge49" class="edge">
<title>Metamodel::ConcreteRoleHOW&#45;&gt;Metamodel::Naming</title>
<path fill="none" stroke="#6666ff" d="M830.2,-502.29C846.29,-574.32 904.32,-834.05 904.32,-834.05 904.32,-834.05 888.92,-886.72 879.01,-920.65"/>
<polygon fill="#6666ff" stroke="#6666ff" points="875.57,-919.92 876.13,-930.5 882.29,-921.88 875.57,-919.92"/>
</g>
<!-- Metamodel::ConcreteRoleHOW&#45;&gt;Metamodel::Versioning -->
<g id="edge50" class="edge">
<title>Metamodel::ConcreteRoleHOW&#45;&gt;Metamodel::Versioning</title>
<path fill="none" stroke="#6666ff" d="M788.89,-501.36C736.28,-525.95 646.5,-567.92 646.5,-567.92 646.5,-567.92 518.33,-621.58 445.5,-652.07"/>
<polygon fill="#6666ff" stroke="#6666ff" points="443.92,-648.94 436.05,-656.03 446.62,-655.4 443.92,-648.94"/>
</g>
<!-- Metamodel::ConcreteRoleHOW&#45;&gt;Metamodel::AttributeContainer -->
<g id="edge54" class="edge">
<title>Metamodel::ConcreteRoleHOW&#45;&gt;Metamodel::AttributeContainer</title>
<path fill="none" stroke="#6666ff" d="M835.58,-502.07C846.06,-522.09 861.47,-551.54 861.47,-551.54 861.47,-551.54 1029.85,-831.89 1083.29,-920.86"/>
<polygon fill="#6666ff" stroke="#6666ff" points="1080.37,-922.79 1088.52,-929.56 1086.37,-919.19 1080.37,-922.79"/>
</g>
<!-- Metamodel::ConcreteRoleHOW&#45;&gt;Metamodel::PrivateMethodContainer -->
<g id="edge51" class="edge">
<title>Metamodel::ConcreteRoleHOW&#45;&gt;Metamodel::PrivateMethodContainer</title>
<path fill="none" stroke="#6666ff" d="M762.53,-499.85C706.53,-513.84 624.87,-534.25 565.59,-549.07"/>
<polygon fill="#6666ff" stroke="#6666ff" points="564.39,-545.76 555.53,-551.58 566.08,-552.55 564.39,-545.76"/>
</g>
<!-- Metamodel::ConcreteRoleHOW&#45;&gt;Metamodel::MultiMethodContainer -->
<g id="edge53" class="edge">
<title>Metamodel::ConcreteRoleHOW&#45;&gt;Metamodel::MultiMethodContainer</title>
<path fill="none" stroke="#6666ff" d="M822.46,-502.28C811.04,-559.7 775.9,-736.38 762.11,-805.69"/>
<polygon fill="#6666ff" stroke="#6666ff" points="758.61,-805.36 760.09,-815.85 765.47,-806.73 758.61,-805.36"/>
</g>
<!-- Metamodel::ConcreteRoleHOW&#45;&gt;Metamodel::RoleContainer -->
<g id="edge55" class="edge">
<title>Metamodel::ConcreteRoleHOW&#45;&gt;Metamodel::RoleContainer</title>
<path fill="none" stroke="#6666ff" d="M814.72,-502.28C769.97,-574.29 608.65,-833.94 608.65,-833.94 608.65,-833.94 670.04,-878.88 670.04,-878.88 670.04,-878.88 664.29,-901.85 659.34,-921.67"/>
<polygon fill="#6666ff" stroke="#6666ff" points="655.88,-921.05 656.85,-931.6 662.67,-922.75 655.88,-921.05"/>
</g>
<!-- Metamodel::ConcreteRoleHOW&#45;&gt;Metamodel::MultipleInheritance -->
<g id="edge56" class="edge">
<title>Metamodel::ConcreteRoleHOW&#45;&gt;Metamodel::MultipleInheritance</title>
<path fill="none" stroke="#6666ff" d="M835.58,-502.07C846.06,-522.09 861.47,-551.54 861.47,-551.54 861.47,-551.54 1032.25,-660.49 1109.05,-709.49"/>
<polygon fill="#6666ff" stroke="#6666ff" points="1107.62,-712.73 1117.93,-715.15 1111.39,-706.82 1107.62,-712.73"/>
</g>
</g>
</svg>
