<?xml version="1.0" encoding="UTF-8" standalone="no"?>
<!DOCTYPE svg PUBLIC "-//W3C//DTD SVG 1.1//EN"
 "http://www.w3.org/Graphics/SVG/1.1/DTD/svg11.dtd">
<!-- Generated by graphviz version 2.43.0 (0)
 -->
<!-- Title: perl6&#45;type&#45;graph Pages: 1 -->
<svg width="223pt" height="404pt"
 viewBox="0.00 0.00 223.34 404.00" xmlns="http://www.w3.org/2000/svg" xmlns:xlink="http://www.w3.org/1999/xlink">
<g id="graph0" class="graph" transform="scale(1 1) rotate(0) translate(4 400)">
<title>perl6&#45;type&#45;graph</title>
<polygon fill="white" stroke="transparent" points="-4,4 -4,-400 219.34,-400 219.34,4 -4,4"/>
<!-- X::Syntax::Name::Null -->
<g id="node1" class="node">
<title>X::Syntax::Name::Null</title>
<g id="a_node1"><a xlink:href="/type/X::Syntax::Name::Null" xlink:title="X::Syntax::Name::Null">
<ellipse fill="none" stroke="#000000" cx="97.49" cy="-18" rx="97.48" ry="18"/>
<text text-anchor="middle" x="97.49" y="-14.3" font-family="FreeSans" font-size="14.00" fill="#000000">X::Syntax::Name::Null</text>
</a>
</g>
</g>
<!-- Exception -->
<g id="node4" class="node">
<title>Exception</title>
<g id="a_node4"><a xlink:href="/type/Exception" xlink:title="Exception">
<ellipse fill="none" stroke="#000000" cx="97.49" cy="-234" rx="49.29" ry="18"/>
<text text-anchor="middle" x="97.49" y="-230.3" font-family="FreeSans" font-size="14.00" fill="#000000">Exception</text>
</a>
</g>
</g>
<!-- X::Syntax::Name::Null&#45;&gt;Exception -->
<g id="edge1" class="edge">
<title>X::Syntax::Name::Null&#45;&gt;Exception</title>
<path fill="none" stroke="#000000" d="M91.38,-36.06C85.82,-51.55 78.49,-72 78.49,-72 78.49,-72 78.49,-108 78.49,-108 78.49,-108 87.76,-169.01 93.35,-205.78"/>
<polygon fill="#000000" stroke="#000000" points="89.93,-206.52 94.89,-215.88 96.85,-205.47 89.93,-206.52"/>
</g>
<!-- X::Syntax -->
<g id="node6" class="node">
<title>X::Syntax</title>
<g id="a_node6"><a xlink:href="/type/X::Syntax" xlink:title="X::Syntax">
<ellipse fill="none" stroke="#6666ff" cx="135.49" cy="-90" rx="48.19" ry="18"/>
<text text-anchor="middle" x="135.49" y="-86.3" font-family="FreeSans" font-size="14.00" fill="#6666ff">X::Syntax</text>
</a>
</g>
</g>
<!-- X::Syntax::Name::Null&#45;&gt;X::Syntax -->
<g id="edge6" class="edge">
<title>X::Syntax::Name::Null&#45;&gt;X::Syntax</title>
<path fill="none" stroke="#6666ff" d="M106.69,-35.95C111.12,-44.11 116.54,-54.09 121.47,-63.18"/>
<polygon fill="#6666ff" stroke="#6666ff" points="118.53,-65.09 126.38,-72.21 124.68,-61.75 118.53,-65.09"/>
</g>
<!-- Mu -->
<g id="node2" class="node">
<title>Mu</title>
<g id="a_node2"><a xlink:href="/type/Mu" xlink:title="Mu">
<ellipse fill="none" stroke="#000000" cx="97.49" cy="-378" rx="27" ry="18"/>
<text text-anchor="middle" x="97.49" y="-374.3" font-family="FreeSans" font-size="14.00" fill="#000000">Mu</text>
</a>
</g>
</g>
<!-- Any -->
<g id="node3" class="node">
<title>Any</title>
<g id="a_node3"><a xlink:href="/type/Any" xlink:title="Any">
<ellipse fill="none" stroke="#000000" cx="97.49" cy="-306" rx="27" ry="18"/>
<text text-anchor="middle" x="97.49" y="-302.3" font-family="FreeSans" font-size="14.00" fill="#000000">Any</text>
</a>
</g>
</g>
<!-- Any&#45;&gt;Mu -->
<g id="edge2" class="edge">
<title>Any&#45;&gt;Mu</title>
<path fill="none" stroke="#000000" d="M97.49,-324.3C97.49,-332.02 97.49,-341.29 97.49,-349.89"/>
<polygon fill="#000000" stroke="#000000" points="93.99,-349.9 97.49,-359.9 100.99,-349.9 93.99,-349.9"/>
</g>
<!-- Exception&#45;&gt;Any -->
<g id="edge3" class="edge">
<title>Exception&#45;&gt;Any</title>
<path fill="none" stroke="#000000" d="M97.49,-252.3C97.49,-260.02 97.49,-269.29 97.49,-277.89"/>
<polygon fill="#000000" stroke="#000000" points="93.99,-277.9 97.49,-287.9 100.99,-277.9 93.99,-277.9"/>
</g>
<!-- X::Comp -->
<g id="node5" class="node">
<title>X::Comp</title>
<g id="a_node5"><a xlink:href="/type/X::Comp" xlink:title="X::Comp">
<ellipse fill="none" stroke="#6666ff" cx="170.49" cy="-162" rx="44.69" ry="18"/>
<text text-anchor="middle" x="170.49" y="-158.3" font-family="FreeSans" font-size="14.00" fill="#6666ff">X::Comp</text>
</a>
</g>
</g>
<!-- X::Comp&#45;&gt;Exception -->
<g id="edge4" class="edge">
<title>X::Comp&#45;&gt;Exception</title>
<path fill="none" stroke="#000000" d="M153.93,-178.88C144.38,-188.04 132.21,-199.71 121.62,-209.87"/>
<polygon fill="#000000" stroke="#000000" points="119.04,-207.49 114.24,-216.94 123.88,-212.54 119.04,-207.49"/>
</g>
<!-- X::Syntax&#45;&gt;Exception -->
<g id="edge5" class="edge">
<title>X::Syntax&#45;&gt;Exception</title>
<path fill="none" stroke="#000000" d="M129.38,-108.06C123.82,-123.55 116.49,-144 116.49,-144 116.49,-144 108.84,-179.83 103.25,-206.03"/>
<polygon fill="#000000" stroke="#000000" points="99.82,-205.33 101.15,-215.84 106.67,-206.79 99.82,-205.33"/>
</g>
<!-- X::Syntax&#45;&gt;X::Comp -->
<g id="edge7" class="edge">
<title>X::Syntax&#45;&gt;X::Comp</title>
<path fill="none" stroke="#6666ff" d="M143.96,-107.95C148.05,-116.11 153.04,-126.09 157.58,-135.18"/>
<polygon fill="#6666ff" stroke="#6666ff" points="154.49,-136.83 162.1,-144.21 160.76,-133.7 154.49,-136.83"/>
</g>
</g>
</svg>
