<?xml version="1.0" encoding="UTF-8" standalone="no"?>
<!DOCTYPE svg PUBLIC "-//W3C//DTD SVG 1.1//EN"
 "http://www.w3.org/Graphics/SVG/1.1/DTD/svg11.dtd">
<!-- Generated by graphviz version 2.43.0 (0)
 -->
<!-- Title: perl6&#45;type&#45;graph Pages: 1 -->
<svg width="632pt" height="332pt"
 viewBox="0.00 0.00 631.89 332.00" xmlns="http://www.w3.org/2000/svg" xmlns:xlink="http://www.w3.org/1999/xlink">
<g id="graph0" class="graph" transform="scale(1 1) rotate(0) translate(4 328)">
<title>perl6&#45;type&#45;graph</title>
<polygon fill="#ffffff" stroke="transparent" points="-4,4 -4,-328 627.89,-328 627.89,4 -4,4"/>
<!-- IO -->
<g id="node1" class="node">
<title>IO</title>
<g id="a_node1"><a xlink:href="/type/IO" xlink:title="IO">
<ellipse fill="none" stroke="#6666ff" cx="246.24" cy="-162" rx="27" ry="18"/>
<text text-anchor="middle" x="246.24" y="-158.3" font-family="FreeSans" font-size="14.00" fill="#6666ff">IO</text>
</a>
</g>
</g>
<!-- Mu -->
<g id="node2" class="node">
<title>Mu</title>
<g id="a_node2"><a xlink:href="/type/Mu" xlink:title="Mu">
<ellipse fill="none" stroke="#000000" cx="255.24" cy="-306" rx="27" ry="18"/>
<text text-anchor="middle" x="255.24" y="-302.3" font-family="FreeSans" font-size="14.00" fill="#000000">Mu</text>
</a>
</g>
</g>
<!-- Any -->
<g id="node3" class="node">
<title>Any</title>
<g id="a_node3"><a xlink:href="/type/Any" xlink:title="Any">
<ellipse fill="none" stroke="#000000" cx="255.24" cy="-234" rx="27" ry="18"/>
<text text-anchor="middle" x="255.24" y="-230.3" font-family="FreeSans" font-size="14.00" fill="#000000">Any</text>
</a>
</g>
</g>
<!-- Any&#45;&gt;Mu -->
<g id="edge1" class="edge">
<title>Any&#45;&gt;Mu</title>
<path fill="none" stroke="#000000" d="M255.24,-252.3C255.24,-260.02 255.24,-269.29 255.24,-277.89"/>
<polygon fill="#000000" stroke="#000000" points="251.74,-277.9 255.24,-287.9 258.74,-277.9 251.74,-277.9"/>
</g>
<!-- Cool -->
<g id="node4" class="node">
<title>Cool</title>
<g id="a_node4"><a xlink:href="/type/Cool" xlink:title="Cool">
<ellipse fill="none" stroke="#000000" cx="320.24" cy="-162" rx="28.7" ry="18"/>
<text text-anchor="middle" x="320.24" y="-158.3" font-family="FreeSans" font-size="14.00" fill="#000000">Cool</text>
</a>
</g>
</g>
<!-- Cool&#45;&gt;Any -->
<g id="edge2" class="edge">
<title>Cool&#45;&gt;Any</title>
<path fill="none" stroke="#000000" d="M306.46,-177.85C297.58,-187.4 285.88,-200.01 275.9,-210.75"/>
<polygon fill="#000000" stroke="#000000" points="273.25,-208.47 269.01,-218.18 278.38,-213.23 273.25,-208.47"/>
</g>
<!-- IO::Path -->
<g id="node5" class="node">
<title>IO::Path</title>
<g id="a_node5"><a xlink:href="/type/IO::Path" xlink:title="IO::Path">
<ellipse fill="none" stroke="#000000" cx="316.24" cy="-90" rx="43.59" ry="18"/>
<text text-anchor="middle" x="316.24" y="-86.3" font-family="FreeSans" font-size="14.00" fill="#000000">IO::Path</text>
</a>
</g>
</g>
<!-- IO::Path&#45;&gt;IO -->
<g id="edge9" class="edge">
<title>IO::Path&#45;&gt;IO</title>
<path fill="none" stroke="#6666ff" d="M300.36,-106.88C290.75,-116.49 278.37,-128.87 267.88,-139.37"/>
<polygon fill="#6666ff" stroke="#6666ff" points="265.23,-137.06 260.64,-146.61 270.18,-142.01 265.23,-137.06"/>
</g>
<!-- IO::Path&#45;&gt;Cool -->
<g id="edge3" class="edge">
<title>IO::Path&#45;&gt;Cool</title>
<path fill="none" stroke="#000000" d="M317.23,-108.3C317.67,-116.02 318.2,-125.29 318.69,-133.89"/>
<polygon fill="#000000" stroke="#000000" points="315.2,-134.11 319.27,-143.9 322.19,-133.71 315.2,-134.11"/>
</g>
<!-- IO::Special -->
<g id="node6" class="node">
<title>IO::Special</title>
<g id="a_node6"><a xlink:href="/type/IO::Special" xlink:title="IO::Special">
<ellipse fill="none" stroke="#000000" cx="198.24" cy="-90" rx="53.89" ry="18"/>
<text text-anchor="middle" x="198.24" y="-86.3" font-family="FreeSans" font-size="14.00" fill="#000000">IO::Special</text>
</a>
</g>
</g>
<!-- IO::Special&#45;&gt;IO -->
<g id="edge10" class="edge">
<title>IO::Special&#45;&gt;IO</title>
<path fill="none" stroke="#6666ff" d="M209.86,-107.95C215.81,-116.62 223.16,-127.33 229.69,-136.85"/>
<polygon fill="#6666ff" stroke="#6666ff" points="226.85,-138.9 235.39,-145.17 232.62,-134.94 226.85,-138.9"/>
</g>
<!-- IO::Special&#45;&gt;Any -->
<g id="edge4" class="edge">
<title>IO::Special&#45;&gt;Any</title>
<path fill="none" stroke="#000000" d="M200.56,-108.16C204.04,-134.02 210.24,-180 210.24,-180 210.24,-180 223.71,-195.86 235.92,-210.23"/>
<polygon fill="#000000" stroke="#000000" points="233.33,-212.6 242.47,-217.95 238.66,-208.07 233.33,-212.6"/>
</g>
<!-- IO::Path::QNX -->
<g id="node7" class="node">
<title>IO::Path::QNX</title>
<g id="a_node7"><a xlink:href="/type/IO::Path::QNX" xlink:title="IO::Path::QNX">
<ellipse fill="none" stroke="#000000" cx="68.24" cy="-18" rx="68.49" ry="18"/>
<text text-anchor="middle" x="68.24" y="-14.3" font-family="FreeSans" font-size="14.00" fill="#000000">IO::Path::QNX</text>
</a>
</g>
</g>
<!-- IO::Path::QNX&#45;&gt;IO::Path -->
<g id="edge5" class="edge">
<title>IO::Path::QNX&#45;&gt;IO::Path</title>
<path fill="none" stroke="#000000" d="M113.98,-31.56C171.05,-47.23 261.24,-72 261.24,-72 261.24,-72 265.87,-73.43 272.44,-75.46"/>
<polygon fill="#000000" stroke="#000000" points="271.76,-78.91 282.35,-78.52 273.83,-72.23 271.76,-78.91"/>
</g>
<!-- IO::Path::Cygwin -->
<g id="node8" class="node">
<title>IO::Path::Cygwin</title>
<g id="a_node8"><a xlink:href="/type/IO::Path::Cygwin" xlink:title="IO::Path::Cygwin">
<ellipse fill="none" stroke="#000000" cx="232.24" cy="-18" rx="77.19" ry="18"/>
<text text-anchor="middle" x="232.24" y="-14.3" font-family="FreeSans" font-size="14.00" fill="#000000">IO::Path::Cygwin</text>
</a>
</g>
</g>
<!-- IO::Path::Cygwin&#45;&gt;IO::Path -->
<g id="edge6" class="edge">
<title>IO::Path::Cygwin&#45;&gt;IO::Path</title>
<path fill="none" stroke="#000000" d="M252.15,-35.59C263.35,-44.92 277.47,-56.69 289.61,-66.8"/>
<polygon fill="#000000" stroke="#000000" points="287.71,-69.78 297.63,-73.49 292.19,-64.4 287.71,-69.78"/>
</g>
<!-- IO::Path::Win32 -->
<g id="node9" class="node">
<title>IO::Path::Win32</title>
<g id="a_node9"><a xlink:href="/type/IO::Path::Win32" xlink:title="IO::Path::Win32">
<ellipse fill="none" stroke="#000000" cx="401.24" cy="-18" rx="73.39" ry="18"/>
<text text-anchor="middle" x="401.24" y="-14.3" font-family="FreeSans" font-size="14.00" fill="#000000">IO::Path::Win32</text>
</a>
</g>
</g>
<!-- IO::Path::Win32&#45;&gt;IO::Path -->
<g id="edge7" class="edge">
<title>IO::Path::Win32&#45;&gt;IO::Path</title>
<path fill="none" stroke="#000000" d="M381.1,-35.59C369.66,-45.01 355.21,-56.91 342.85,-67.09"/>
<polygon fill="#000000" stroke="#000000" points="340.57,-64.43 335.08,-73.49 345.02,-69.83 340.57,-64.43"/>
</g>
<!-- IO::Path::Unix -->
<g id="node10" class="node">
<title>IO::Path::Unix</title>
<g id="a_node10"><a xlink:href="/type/IO::Path::Unix" xlink:title="IO::Path::Unix">
<ellipse fill="none" stroke="#000000" cx="558.24" cy="-18" rx="65.79" ry="18"/>
<text text-anchor="middle" x="558.24" y="-14.3" font-family="FreeSans" font-size="14.00" fill="#000000">IO::Path::Unix</text>
</a>
</g>
</g>
<!-- IO::Path::Unix&#45;&gt;IO::Path -->
<g id="edge8" class="edge">
<title>IO::Path::Unix&#45;&gt;IO::Path</title>
<path fill="none" stroke="#000000" d="M514.7,-31.6C471.14,-44.19 404.49,-63.47 360.64,-76.16"/>
<polygon fill="#000000" stroke="#000000" points="359.46,-72.86 350.83,-79 361.41,-79.58 359.46,-72.86"/>
</g>
</g>
</svg>
