<?xml version="1.0" encoding="UTF-8" standalone="no"?>
<!DOCTYPE svg PUBLIC "-//W3C//DTD SVG 1.1//EN"
 "http://www.w3.org/Graphics/SVG/1.1/DTD/svg11.dtd">
<!-- Generated by graphviz version 2.43.0 (0)
 -->
<!-- Title: perl6&#45;type&#45;graph Pages: 1 -->
<svg width="2153pt" height="1437pt"
 viewBox="0.00 0.00 2153.00 1436.74" xmlns="http://www.w3.org/2000/svg" xmlns:xlink="http://www.w3.org/1999/xlink">
<g id="graph0" class="graph" transform="scale(1 1) rotate(0) translate(4 1432.74)">
<title>perl6&#45;type&#45;graph</title>
<polygon fill="#ffffff" stroke="transparent" points="-4,4 -4,-1432.74 2149,-1432.74 2149,4 -4,4"/>
<!-- Metamodel::RolePunning -->
<g id="node1" class="node">
<title>Metamodel::RolePunning</title>
<g id="a_node1"><a xlink:href="/type/Metamodel::RolePunning" xlink:title="Metamodel::RolePunning">
<ellipse fill="none" stroke="#6666ff" cx="941.1" cy="-972.65" rx="109.68" ry="18"/>
<text text-anchor="middle" x="941.1" y="-968.95" font-family="FreeSans" font-size="14.00" fill="#6666ff">Metamodel::RolePunning</text>
</a>
</g>
</g>
<!-- Mu -->
<g id="node2" class="node">
<title>Mu</title>
<g id="a_node2"><a xlink:href="/type/Mu" xlink:title="Mu">
<ellipse fill="none" stroke="#000000" cx="1602.65" cy="-1342.65" rx="27" ry="18"/>
<text text-anchor="middle" x="1602.65" y="-1338.95" font-family="FreeSans" font-size="14.00" fill="#000000">Mu</text>
</a>
</g>
</g>
<!-- Any -->
<g id="node3" class="node">
<title>Any</title>
<g id="a_node3"><a xlink:href="/type/Any" xlink:title="Any">
<ellipse fill="none" stroke="#000000" cx="1199.6" cy="-974.2" rx="27" ry="18"/>
<text text-anchor="middle" x="1199.6" y="-970.5" font-family="FreeSans" font-size="14.00" fill="#000000">Any</text>
</a>
</g>
</g>
<!-- Any&#45;&gt;Mu -->
<g id="edge1" class="edge">
<title>Any&#45;&gt;Mu</title>
<path fill="none" stroke="#000000" d="M1215.9,-989.1C1278.71,-1046.51 1505.21,-1253.57 1579.13,-1321.15"/>
<polygon fill="#000000" stroke="#000000" points="1576.85,-1323.8 1586.59,-1327.97 1581.57,-1318.64 1576.85,-1323.8"/>
</g>
<!-- Metamodel::Naming -->
<g id="node4" class="node">
<title>Metamodel::Naming</title>
<g id="a_node4"><a xlink:href="/type/Metamodel::Naming" xlink:title="Metamodel::Naming">
<ellipse fill="none" stroke="#6666ff" cx="1180.71" cy="-226.55" rx="90.18" ry="18"/>
<text text-anchor="middle" x="1180.71" y="-222.85" font-family="FreeSans" font-size="14.00" fill="#6666ff">Metamodel::Naming</text>
</a>
</g>
</g>
<!-- Metamodel::Documenting -->
<g id="node5" class="node">
<title>Metamodel::Documenting</title>
<g id="a_node5"><a xlink:href="/type/Metamodel::Documenting" xlink:title="Metamodel::Documenting">
<ellipse fill="none" stroke="#6666ff" cx="491.6" cy="-1122.37" rx="111.28" ry="18"/>
<text text-anchor="middle" x="491.6" y="-1118.67" font-family="FreeSans" font-size="14.00" fill="#6666ff">Metamodel::Documenting</text>
</a>
</g>
</g>
<!-- Metamodel::Versioning -->
<g id="node6" class="node">
<title>Metamodel::Versioning</title>
<g id="a_node6"><a xlink:href="/type/Metamodel::Versioning" xlink:title="Metamodel::Versioning">
<ellipse fill="none" stroke="#6666ff" cx="284.8" cy="-998.13" rx="100.98" ry="18"/>
<text text-anchor="middle" x="284.8" y="-994.43" font-family="FreeSans" font-size="14.00" fill="#6666ff">Metamodel::Versioning</text>
</a>
</g>
</g>
<!-- Metamodel::MethodContainer -->
<g id="node7" class="node">
<title>Metamodel::MethodContainer</title>
<g id="a_node7"><a xlink:href="/type/Metamodel::MethodContainer" xlink:title="Metamodel::MethodContainer">
<ellipse fill="none" stroke="#6666ff" cx="127.39" cy="-541.2" rx="127.28" ry="18"/>
<text text-anchor="middle" x="127.39" y="-537.5" font-family="FreeSans" font-size="14.00" fill="#6666ff">Metamodel::MethodContainer</text>
</a>
</g>
</g>
<!-- Metamodel::PrivateMethodContainer -->
<g id="node8" class="node">
<title>Metamodel::PrivateMethodContainer</title>
<g id="a_node8"><a xlink:href="/type/Metamodel::PrivateMethodContainer" xlink:title="Metamodel::PrivateMethodContainer">
<ellipse fill="none" stroke="#6666ff" cx="868.42" cy="-23.03" rx="154.87" ry="18"/>
<text text-anchor="middle" x="868.42" y="-19.33" font-family="FreeSans" font-size="14.00" fill="#6666ff">Metamodel::PrivateMethodContainer</text>
</a>
</g>
</g>
<!-- Metamodel::MultiMethodContainer -->
<g id="node9" class="node">
<title>Metamodel::MultiMethodContainer</title>
<g id="a_node9"><a xlink:href="/type/Metamodel::MultiMethodContainer" xlink:title="Metamodel::MultiMethodContainer">
<ellipse fill="none" stroke="#6666ff" cx="203.91" cy="-301.64" rx="146.47" ry="18"/>
<text text-anchor="middle" x="203.91" y="-297.94" font-family="FreeSans" font-size="14.00" fill="#6666ff">Metamodel::MultiMethodContainer</text>
</a>
</g>
</g>
<!-- Metamodel::AttributeContainer -->
<g id="node10" class="node">
<title>Metamodel::AttributeContainer</title>
<g id="a_node10"><a xlink:href="/type/Metamodel::AttributeContainer" xlink:title="Metamodel::AttributeContainer">
<ellipse fill="none" stroke="#6666ff" cx="575.72" cy="-18" rx="129.98" ry="18"/>
<text text-anchor="middle" x="575.72" y="-14.3" font-family="FreeSans" font-size="14.00" fill="#6666ff">Metamodel::AttributeContainer</text>
</a>
</g>
</g>
<!-- Metamodel::RoleContainer -->
<g id="node11" class="node">
<title>Metamodel::RoleContainer</title>
<g id="a_node11"><a xlink:href="/type/Metamodel::RoleContainer" xlink:title="Metamodel::RoleContainer">
<ellipse fill="none" stroke="#6666ff" cx="372.18" cy="-115.63" rx="115.88" ry="18"/>
<text text-anchor="middle" x="372.18" y="-111.93" font-family="FreeSans" font-size="14.00" fill="#6666ff">Metamodel::RoleContainer</text>
</a>
</g>
</g>
<!-- Metamodel::MultipleInheritance -->
<g id="node12" class="node">
<title>Metamodel::MultipleInheritance</title>
<g id="a_node12"><a xlink:href="/type/Metamodel::MultipleInheritance" xlink:title="Metamodel::MultipleInheritance">
<ellipse fill="none" stroke="#6666ff" cx="158.17" cy="-788.18" rx="133.78" ry="18"/>
<text text-anchor="middle" x="158.17" y="-784.48" font-family="FreeSans" font-size="14.00" fill="#6666ff">Metamodel::MultipleInheritance</text>
</a>
</g>
</g>
<!-- Metamodel::Stashing -->
<g id="node13" class="node">
<title>Metamodel::Stashing</title>
<g id="a_node13"><a xlink:href="/type/Metamodel::Stashing" xlink:title="Metamodel::Stashing">
<ellipse fill="none" stroke="#6666ff" cx="1114.59" cy="-400.63" rx="93.68" ry="18"/>
<text text-anchor="middle" x="1114.59" y="-396.93" font-family="FreeSans" font-size="14.00" fill="#6666ff">Metamodel::Stashing</text>
</a>
</g>
</g>
<!-- Metamodel::TypePretense -->
<g id="node14" class="node">
<title>Metamodel::TypePretense</title>
<g id="a_node14"><a xlink:href="/type/Metamodel::TypePretense" xlink:title="Metamodel::TypePretense">
<ellipse fill="none" stroke="#6666ff" cx="1060.53" cy="-802.67" rx="114.28" ry="18"/>
<text text-anchor="middle" x="1060.53" y="-798.97" font-family="FreeSans" font-size="14.00" fill="#6666ff">Metamodel::TypePretense</text>
</a>
</g>
</g>
<!-- Metamodel::ParametricRoleHOW -->
<g id="node15" class="node">
<title>Metamodel::ParametricRoleHOW</title>
<g id="a_node15"><a xlink:href="/type/Metamodel::ParametricRoleHOW" xlink:title="Metamodel::ParametricRoleHOW">
<ellipse fill="none" stroke="#000000" cx="666.53" cy="-573.49" rx="141.88" ry="18"/>
<text text-anchor="middle" x="666.53" y="-569.79" font-family="FreeSans" font-size="14.00" fill="#000000">Metamodel::ParametricRoleHOW</text>
</a>
</g>
</g>
<!-- Metamodel::ParametricRoleHOW&#45;&gt;Metamodel::RolePunning -->
<g id="edge16" class="edge">
<title>Metamodel::ParametricRoleHOW&#45;&gt;Metamodel::RolePunning</title>
<path fill="none" stroke="#6666ff" d="M679.04,-591.68C723,-655.57 870.5,-870 922.65,-945.81"/>
<polygon fill="#6666ff" stroke="#6666ff" points="919.97,-948.1 928.52,-954.35 925.74,-944.13 919.97,-948.1"/>
</g>
<!-- Metamodel::ParametricRoleHOW&#45;&gt;Any -->
<g id="edge2" class="edge">
<title>Metamodel::ParametricRoleHOW&#45;&gt;Any</title>
<path fill="none" stroke="#000000" d="M688.35,-591.46C753.89,-645.44 944.54,-802.47 944.54,-802.47 944.54,-802.47 1105.6,-910.91 1171.75,-955.45"/>
<polygon fill="#000000" stroke="#000000" points="1170.18,-958.61 1180.43,-961.29 1174.09,-952.8 1170.18,-958.61"/>
</g>
<!-- Metamodel::ParametricRoleHOW&#45;&gt;Metamodel::Naming -->
<g id="edge5" class="edge">
<title>Metamodel::ParametricRoleHOW&#45;&gt;Metamodel::Naming</title>
<path fill="none" stroke="#6666ff" d="M693.09,-555.56C779.14,-497.5 1050.23,-314.59 1146.43,-249.68"/>
<polygon fill="#6666ff" stroke="#6666ff" points="1148.58,-252.45 1154.92,-243.95 1144.67,-246.65 1148.58,-252.45"/>
</g>
<!-- Metamodel::ParametricRoleHOW&#45;&gt;Metamodel::Documenting -->
<g id="edge6" class="edge">
<title>Metamodel::ParametricRoleHOW&#45;&gt;Metamodel::Documenting</title>
<path fill="none" stroke="#6666ff" d="M660.71,-591.75C635,-672.42 531.51,-997.16 500.45,-1094.59"/>
<polygon fill="#6666ff" stroke="#6666ff" points="497.06,-1093.73 497.36,-1104.32 503.73,-1095.85 497.06,-1093.73"/>
</g>
<!-- Metamodel::ParametricRoleHOW&#45;&gt;Metamodel::Versioning -->
<g id="edge7" class="edge">
<title>Metamodel::ParametricRoleHOW&#45;&gt;Metamodel::Versioning</title>
<path fill="none" stroke="#6666ff" d="M650.37,-591.46C590.15,-658.46 378.56,-893.83 307.94,-972.39"/>
<polygon fill="#6666ff" stroke="#6666ff" points="305.26,-970.13 301.18,-979.91 310.47,-974.81 305.26,-970.13"/>
</g>
<!-- Metamodel::ParametricRoleHOW&#45;&gt;Metamodel::MethodContainer -->
<g id="edge8" class="edge">
<title>Metamodel::ParametricRoleHOW&#45;&gt;Metamodel::MethodContainer</title>
<path fill="none" stroke="#6666ff" d="M538.08,-565.79C452.39,-560.66 340.22,-553.95 254.76,-548.83"/>
<polygon fill="#6666ff" stroke="#6666ff" points="254.93,-545.33 244.74,-548.23 254.51,-552.32 254.93,-545.33"/>
</g>
<!-- Metamodel::ParametricRoleHOW&#45;&gt;Metamodel::PrivateMethodContainer -->
<g id="edge9" class="edge">
<title>Metamodel::ParametricRoleHOW&#45;&gt;Metamodel::PrivateMethodContainer</title>
<path fill="none" stroke="#6666ff" d="M673.14,-555.49C702.64,-475.05 822.51,-148.2 858.29,-50.65"/>
<polygon fill="#6666ff" stroke="#6666ff" points="861.61,-51.77 861.77,-41.17 855.04,-49.36 861.61,-51.77"/>
</g>
<!-- Metamodel::ParametricRoleHOW&#45;&gt;Metamodel::MultiMethodContainer -->
<g id="edge10" class="edge">
<title>Metamodel::ParametricRoleHOW&#45;&gt;Metamodel::MultiMethodContainer</title>
<path fill="none" stroke="#6666ff" d="M636.54,-555.86C555.72,-508.37 333.45,-377.76 242.98,-324.6"/>
<polygon fill="#6666ff" stroke="#6666ff" points="244.53,-321.46 234.14,-319.41 240.99,-327.49 244.53,-321.46"/>
</g>
<!-- Metamodel::ParametricRoleHOW&#45;&gt;Metamodel::AttributeContainer -->
<g id="edge11" class="edge">
<title>Metamodel::ParametricRoleHOW&#45;&gt;Metamodel::AttributeContainer</title>
<path fill="none" stroke="#6666ff" d="M663.56,-555.32C650.3,-474.22 596.47,-144.91 580.32,-46.14"/>
<polygon fill="#6666ff" stroke="#6666ff" points="583.73,-45.33 578.67,-36.03 576.83,-46.46 583.73,-45.33"/>
</g>
<!-- Metamodel::ParametricRoleHOW&#45;&gt;Metamodel::RoleContainer -->
<g id="edge12" class="edge">
<title>Metamodel::ParametricRoleHOW&#45;&gt;Metamodel::RoleContainer</title>
<path fill="none" stroke="#6666ff" d="M654.99,-555.54C609.67,-485.03 443.64,-226.78 389.43,-142.46"/>
<polygon fill="#6666ff" stroke="#6666ff" points="392.31,-140.47 383.96,-133.95 386.42,-144.26 392.31,-140.47"/>
</g>
<!-- Metamodel::ParametricRoleHOW&#45;&gt;Metamodel::MultipleInheritance -->
<g id="edge13" class="edge">
<title>Metamodel::ParametricRoleHOW&#45;&gt;Metamodel::MultipleInheritance</title>
<path fill="none" stroke="#6666ff" d="M625.36,-590.87C532.85,-629.94 308.78,-724.57 208.34,-766.99"/>
<polygon fill="#6666ff" stroke="#6666ff" points="206.87,-763.82 199.02,-770.93 209.59,-770.27 206.87,-763.82"/>
</g>
<!-- Metamodel::ParametricRoleHOW&#45;&gt;Metamodel::Stashing -->
<g id="edge14" class="edge">
<title>Metamodel::ParametricRoleHOW&#45;&gt;Metamodel::Stashing</title>
<path fill="none" stroke="#6666ff" d="M711.13,-556.28C794.77,-524.02 974.68,-454.61 1063.23,-420.44"/>
<polygon fill="#6666ff" stroke="#6666ff" points="1064.72,-423.62 1072.79,-416.76 1062.2,-417.09 1064.72,-423.62"/>
</g>
<!-- Metamodel::ParametricRoleHOW&#45;&gt;Metamodel::TypePretense -->
<g id="edge15" class="edge">
<title>Metamodel::ParametricRoleHOW&#45;&gt;Metamodel::TypePretense</title>
<path fill="none" stroke="#6666ff" d="M696.79,-591.09C767.35,-632.13 942.74,-734.15 1021.34,-779.87"/>
<polygon fill="#6666ff" stroke="#6666ff" points="1020.03,-783.16 1030.43,-785.16 1023.55,-777.11 1020.03,-783.16"/>
</g>
<!-- Metamodel::BoolificationProtocol -->
<g id="node16" class="node">
<title>Metamodel::BoolificationProtocol</title>
<g id="a_node16"><a xlink:href="/type/Metamodel::BoolificationProtocol" xlink:title="Metamodel::BoolificationProtocol">
<ellipse fill="none" stroke="#6666ff" cx="2005.91" cy="-533.79" rx="139.18" ry="18"/>
<text text-anchor="middle" x="2005.91" y="-530.09" font-family="FreeSans" font-size="14.00" fill="#6666ff">Metamodel::BoolificationProtocol</text>
</a>
</g>
</g>
<!-- Metamodel::ParametricRoleGroupHOW -->
<g id="node17" class="node">
<title>Metamodel::ParametricRoleGroupHOW</title>
<g id="a_node17"><a xlink:href="/type/Metamodel::ParametricRoleGroupHOW" xlink:title="Metamodel::ParametricRoleGroupHOW">
<ellipse fill="none" stroke="#000000" cx="1500.4" cy="-646.73" rx="166.27" ry="18"/>
<text text-anchor="middle" x="1500.4" y="-643.03" font-family="FreeSans" font-size="14.00" fill="#000000">Metamodel::ParametricRoleGroupHOW</text>
</a>
</g>
</g>
<!-- Metamodel::ParametricRoleGroupHOW&#45;&gt;Metamodel::RolePunning -->
<g id="edge20" class="edge">
<title>Metamodel::ParametricRoleGroupHOW&#45;&gt;Metamodel::RolePunning</title>
<path fill="none" stroke="#6666ff" d="M1469.94,-664.48C1375.02,-719.79 1084.76,-888.94 979.63,-950.2"/>
<polygon fill="#6666ff" stroke="#6666ff" points="977.8,-947.22 970.92,-955.27 981.32,-953.26 977.8,-947.22"/>
</g>
<!-- Metamodel::ParametricRoleGroupHOW&#45;&gt;Any -->
<g id="edge3" class="edge">
<title>Metamodel::ParametricRoleGroupHOW&#45;&gt;Any</title>
<path fill="none" stroke="#000000" d="M1483.8,-664.8C1432.76,-720.37 1278.17,-888.66 1221.08,-950.81"/>
<polygon fill="#000000" stroke="#000000" points="1218.19,-948.79 1214,-958.52 1223.34,-953.53 1218.19,-948.79"/>
</g>
<!-- Metamodel::ParametricRoleGroupHOW&#45;&gt;Metamodel::Naming -->
<g id="edge17" class="edge">
<title>Metamodel::ParametricRoleGroupHOW&#45;&gt;Metamodel::Naming</title>
<path fill="none" stroke="#6666ff" d="M1486.67,-628.67C1436.15,-562.28 1260.5,-331.42 1200.77,-252.92"/>
<polygon fill="#6666ff" stroke="#6666ff" points="1203.23,-250.38 1194.39,-244.54 1197.66,-254.62 1203.23,-250.38"/>
</g>
<!-- Metamodel::ParametricRoleGroupHOW&#45;&gt;Metamodel::Stashing -->
<g id="edge18" class="edge">
<title>Metamodel::ParametricRoleGroupHOW&#45;&gt;Metamodel::Stashing</title>
<path fill="none" stroke="#6666ff" d="M1472.35,-628.83C1403.61,-584.99 1226.88,-472.25 1150.56,-423.58"/>
<polygon fill="#6666ff" stroke="#6666ff" points="1152.08,-420.39 1141.77,-417.97 1148.32,-426.29 1152.08,-420.39"/>
</g>
<!-- Metamodel::ParametricRoleGroupHOW&#45;&gt;Metamodel::TypePretense -->
<g id="edge19" class="edge">
<title>Metamodel::ParametricRoleGroupHOW&#45;&gt;Metamodel::TypePretense</title>
<path fill="none" stroke="#6666ff" d="M1451.65,-664.01C1369.4,-693.17 1203.55,-751.96 1116.61,-782.79"/>
<polygon fill="#6666ff" stroke="#6666ff" points="1115.42,-779.49 1107.17,-786.13 1117.76,-786.09 1115.42,-779.49"/>
</g>
<!-- Metamodel::ParametricRoleGroupHOW&#45;&gt;Metamodel::BoolificationProtocol -->
<g id="edge21" class="edge">
<title>Metamodel::ParametricRoleGroupHOW&#45;&gt;Metamodel::BoolificationProtocol</title>
<path fill="none" stroke="#6666ff" d="M1573.1,-630.49C1666.77,-609.56 1829.08,-573.3 1926.09,-551.62"/>
<polygon fill="#6666ff" stroke="#6666ff" points="1927.14,-554.97 1936.14,-549.38 1925.62,-548.14 1927.14,-554.97"/>
</g>
<!-- Metamodel::CurriedRoleHOW -->
<g id="node18" class="node">
<title>Metamodel::CurriedRoleHOW</title>
<g id="a_node18"><a xlink:href="/type/Metamodel::CurriedRoleHOW" xlink:title="Metamodel::CurriedRoleHOW">
<ellipse fill="none" stroke="#000000" cx="1100.79" cy="-1410.74" rx="128.08" ry="18"/>
<text text-anchor="middle" x="1100.79" y="-1407.04" font-family="FreeSans" font-size="14.00" fill="#000000">Metamodel::CurriedRoleHOW</text>
</a>
</g>
</g>
<!-- Metamodel::CurriedRoleHOW&#45;&gt;Metamodel::RolePunning -->
<g id="edge22" class="edge">
<title>Metamodel::CurriedRoleHOW&#45;&gt;Metamodel::RolePunning</title>
<path fill="none" stroke="#6666ff" d="M1094.23,-1392.75C1069.44,-1324.74 981.34,-1083.03 951.26,-1000.5"/>
<polygon fill="#6666ff" stroke="#6666ff" points="954.52,-999.23 947.81,-991.03 947.94,-1001.63 954.52,-999.23"/>
</g>
<!-- Metamodel::CurriedRoleHOW&#45;&gt;Any -->
<g id="edge4" class="edge">
<title>Metamodel::CurriedRoleHOW&#45;&gt;Any</title>
<path fill="none" stroke="#000000" d="M1104.91,-1392.53C1120.3,-1324.52 1174.53,-1084.95 1193.22,-1002.4"/>
<polygon fill="#000000" stroke="#000000" points="1196.67,-1003.01 1195.46,-992.48 1189.84,-1001.46 1196.67,-1003.01"/>
</g>
<!-- Metamodel::CurriedRoleHOW&#45;&gt;Metamodel::TypePretense -->
<g id="edge23" class="edge">
<title>Metamodel::CurriedRoleHOW&#45;&gt;Metamodel::TypePretense</title>
<path fill="none" stroke="#6666ff" d="M1099.58,-1392.54C1093.86,-1306.08 1069.4,-936.65 1062.4,-830.99"/>
<polygon fill="#6666ff" stroke="#6666ff" points="1065.88,-830.54 1061.73,-820.79 1058.89,-831 1065.88,-830.54"/>
</g>
</g>
</svg>
