<?xml version="1.0" encoding="UTF-8" standalone="no"?>
<!DOCTYPE svg PUBLIC "-//W3C//DTD SVG 1.1//EN"
 "http://www.w3.org/Graphics/SVG/1.1/DTD/svg11.dtd">
<!-- Generated by graphviz version 2.43.0 (0)
 -->
<!-- Title: perl6&#45;type&#45;graph Pages: 1 -->
<svg width="1816pt" height="404pt"
 viewBox="0.00 0.00 1816.39 404.00" xmlns="http://www.w3.org/2000/svg" xmlns:xlink="http://www.w3.org/1999/xlink">
<g id="graph0" class="graph" transform="scale(1 1) rotate(0) translate(4 400)">
<title>perl6&#45;type&#45;graph</title>
<polygon fill="#ffffff" stroke="transparent" points="-4,4 -4,-400 1812.39,-400 1812.39,4 -4,4"/>
<!-- X::OS -->
<g id="node1" class="node">
<title>X::OS</title>
<g id="a_node1"><a xlink:href="/type/X::OS" xlink:title="X::OS">
<ellipse fill="none" stroke="#6666ff" cx="957.54" cy="-162" rx="34.39" ry="18"/>
<text text-anchor="middle" x="957.54" y="-158.3" font-family="FreeSans" font-size="14.00" fill="#6666ff">X::OS</text>
</a>
</g>
</g>
<!-- Exception -->
<g id="node4" class="node">
<title>Exception</title>
<g id="a_node4"><a xlink:href="/type/Exception" xlink:title="Exception">
<ellipse fill="none" stroke="#000000" cx="1056.54" cy="-234" rx="49.29" ry="18"/>
<text text-anchor="middle" x="1056.54" y="-230.3" font-family="FreeSans" font-size="14.00" fill="#000000">Exception</text>
</a>
</g>
</g>
<!-- X::OS&#45;&gt;Exception -->
<g id="edge1" class="edge">
<title>X::OS&#45;&gt;Exception</title>
<path fill="none" stroke="#000000" d="M977.1,-176.83C991.18,-186.78 1010.42,-200.39 1026.45,-211.72"/>
<polygon fill="#000000" stroke="#000000" points="1024.78,-214.83 1034.96,-217.74 1028.82,-209.11 1024.78,-214.83"/>
</g>
<!-- Mu -->
<g id="node2" class="node">
<title>Mu</title>
<g id="a_node2"><a xlink:href="/type/Mu" xlink:title="Mu">
<ellipse fill="none" stroke="#000000" cx="1056.54" cy="-378" rx="27" ry="18"/>
<text text-anchor="middle" x="1056.54" y="-374.3" font-family="FreeSans" font-size="14.00" fill="#000000">Mu</text>
</a>
</g>
</g>
<!-- Any -->
<g id="node3" class="node">
<title>Any</title>
<g id="a_node3"><a xlink:href="/type/Any" xlink:title="Any">
<ellipse fill="none" stroke="#000000" cx="1056.54" cy="-306" rx="27" ry="18"/>
<text text-anchor="middle" x="1056.54" y="-302.3" font-family="FreeSans" font-size="14.00" fill="#000000">Any</text>
</a>
</g>
</g>
<!-- Any&#45;&gt;Mu -->
<g id="edge2" class="edge">
<title>Any&#45;&gt;Mu</title>
<path fill="none" stroke="#000000" d="M1056.54,-324.3C1056.54,-332.02 1056.54,-341.29 1056.54,-349.89"/>
<polygon fill="#000000" stroke="#000000" points="1053.04,-349.9 1056.54,-359.9 1060.04,-349.9 1053.04,-349.9"/>
</g>
<!-- Exception&#45;&gt;Any -->
<g id="edge3" class="edge">
<title>Exception&#45;&gt;Any</title>
<path fill="none" stroke="#000000" d="M1056.54,-252.3C1056.54,-260.02 1056.54,-269.29 1056.54,-277.89"/>
<polygon fill="#000000" stroke="#000000" points="1053.04,-277.9 1056.54,-287.9 1060.04,-277.9 1053.04,-277.9"/>
</g>
<!-- X::IO -->
<g id="node5" class="node">
<title>X::IO</title>
<g id="a_node5"><a xlink:href="/type/X::IO" xlink:title="X::IO">
<ellipse fill="none" stroke="#6666ff" cx="951.54" cy="-90" rx="31.4" ry="18"/>
<text text-anchor="middle" x="951.54" y="-86.3" font-family="FreeSans" font-size="14.00" fill="#6666ff">X::IO</text>
</a>
</g>
</g>
<!-- X::IO&#45;&gt;X::OS -->
<g id="edge35" class="edge">
<title>X::IO&#45;&gt;X::OS</title>
<path fill="none" stroke="#6666ff" d="M953.03,-108.3C953.69,-116.02 954.48,-125.29 955.22,-133.89"/>
<polygon fill="#6666ff" stroke="#6666ff" points="951.74,-134.23 956.08,-143.9 958.71,-133.63 951.74,-134.23"/>
</g>
<!-- X::IO&#45;&gt;Exception -->
<g id="edge4" class="edge">
<title>X::IO&#45;&gt;Exception</title>
<path fill="none" stroke="#000000" d="M940.44,-106.9C929.54,-122.51 914.54,-144 914.54,-144 914.54,-144 914.54,-180 914.54,-180 914.54,-180 971.98,-201.44 1013.8,-217.05"/>
<polygon fill="#000000" stroke="#000000" points="1012.66,-220.36 1023.25,-220.57 1015.11,-213.8 1012.66,-220.36"/>
</g>
<!-- X::IO::Rename -->
<g id="node6" class="node">
<title>X::IO::Rename</title>
<g id="a_node6"><a xlink:href="/type/X::IO::Rename" xlink:title="X::IO::Rename">
<ellipse fill="none" stroke="#000000" cx="69.54" cy="-18" rx="69.59" ry="18"/>
<text text-anchor="middle" x="69.54" y="-14.3" font-family="FreeSans" font-size="14.00" fill="#000000">X::IO::Rename</text>
</a>
</g>
</g>
<!-- X::IO::Rename&#45;&gt;Exception -->
<g id="edge5" class="edge">
<title>X::IO::Rename&#45;&gt;Exception</title>
<path fill="none" stroke="#000000" d="M108.19,-33.01C222.72,-72.18 551.54,-180 551.54,-180 551.54,-180 867.07,-213.72 999.37,-227.36"/>
<polygon fill="#000000" stroke="#000000" points="999.02,-230.85 1009.33,-228.39 999.74,-223.88 999.02,-230.85"/>
</g>
<!-- X::IO::Rename&#45;&gt;Exception -->
<g id="edge6" class="edge">
<title>X::IO::Rename&#45;&gt;Exception</title>
<path fill="none" stroke="#000000" d="M113.25,-32.04C235.2,-70.37 569.54,-180 569.54,-180 569.54,-180 871.79,-212.3 1000.12,-226.47"/>
<polygon fill="#000000" stroke="#000000" points="999.83,-229.96 1010.16,-227.58 1000.6,-223 999.83,-229.96"/>
</g>
<!-- X::IO::Rename&#45;&gt;X::IO -->
<g id="edge36" class="edge">
<title>X::IO::Rename&#45;&gt;X::IO</title>
<path fill="none" stroke="#6666ff" d="M121.14,-30.24C135.64,-33.41 147.54,-36 147.54,-36 147.54,-36 746.19,-75.46 910.35,-86.28"/>
<polygon fill="#6666ff" stroke="#6666ff" points="910.31,-89.79 920.52,-86.95 910.77,-82.8 910.31,-89.79"/>
</g>
<!-- X::IO::Rmdir -->
<g id="node7" class="node">
<title>X::IO::Rmdir</title>
<g id="a_node7"><a xlink:href="/type/X::IO::Rmdir" xlink:title="X::IO::Rmdir">
<ellipse fill="none" stroke="#000000" cx="216.54" cy="-18" rx="59.59" ry="18"/>
<text text-anchor="middle" x="216.54" y="-14.3" font-family="FreeSans" font-size="14.00" fill="#000000">X::IO::Rmdir</text>
</a>
</g>
</g>
<!-- X::IO::Rmdir&#45;&gt;Exception -->
<g id="edge7" class="edge">
<title>X::IO::Rmdir&#45;&gt;Exception</title>
<path fill="none" stroke="#000000" d="M250.65,-32.87C353.15,-71.92 650.54,-180 650.54,-180 650.54,-180 888.77,-211.8 1000.33,-226.14"/>
<polygon fill="#000000" stroke="#000000" points="1000.03,-229.63 1010.4,-227.43 1000.92,-222.69 1000.03,-229.63"/>
</g>
<!-- X::IO::Rmdir&#45;&gt;Exception -->
<g id="edge8" class="edge">
<title>X::IO::Rmdir&#45;&gt;Exception</title>
<path fill="none" stroke="#000000" d="M255.58,-31.77C365.45,-69.85 668.54,-180 668.54,-180 668.54,-180 894.24,-210.13 1001.43,-224.96"/>
<polygon fill="#000000" stroke="#000000" points="1001.04,-228.43 1011.42,-226.34 1002,-221.5 1001.04,-228.43"/>
</g>
<!-- X::IO::Rmdir&#45;&gt;X::IO -->
<g id="edge37" class="edge">
<title>X::IO::Rmdir&#45;&gt;X::IO</title>
<path fill="none" stroke="#6666ff" d="M261.41,-30.05C274.59,-33.3 285.54,-36 285.54,-36 285.54,-36 765.45,-74.19 910.51,-85.73"/>
<polygon fill="#6666ff" stroke="#6666ff" points="910.51,-89.25 920.76,-86.55 911.07,-82.27 910.51,-89.25"/>
</g>
<!-- X::IO::Link -->
<g id="node8" class="node">
<title>X::IO::Link</title>
<g id="a_node8"><a xlink:href="/type/X::IO::Link" xlink:title="X::IO::Link">
<ellipse fill="none" stroke="#000000" cx="347.54" cy="-18" rx="53.09" ry="18"/>
<text text-anchor="middle" x="347.54" y="-14.3" font-family="FreeSans" font-size="14.00" fill="#000000">X::IO::Link</text>
</a>
</g>
</g>
<!-- X::IO::Link&#45;&gt;Exception -->
<g id="edge9" class="edge">
<title>X::IO::Link&#45;&gt;Exception</title>
<path fill="none" stroke="#000000" d="M378.2,-32.87C471.01,-71.92 741.54,-180 741.54,-180 741.54,-180 911.69,-209.47 1001.97,-224.46"/>
<polygon fill="#000000" stroke="#000000" points="1001.6,-227.95 1012.03,-226.13 1002.74,-221.04 1001.6,-227.95"/>
</g>
<!-- X::IO::Link&#45;&gt;Exception -->
<g id="edge10" class="edge">
<title>X::IO::Link&#45;&gt;Exception</title>
<path fill="none" stroke="#000000" d="M383.06,-31.63C483.17,-69.59 759.54,-180 759.54,-180 759.54,-180 918.48,-207.53 1003.9,-222.91"/>
<polygon fill="#000000" stroke="#000000" points="1003.47,-226.39 1013.93,-224.72 1004.72,-219.5 1003.47,-226.39"/>
</g>
<!-- X::IO::Link&#45;&gt;X::IO -->
<g id="edge38" class="edge">
<title>X::IO::Link&#45;&gt;X::IO</title>
<path fill="none" stroke="#6666ff" d="M387.8,-29.86C400.15,-33.19 410.54,-36 410.54,-36 410.54,-36 785.11,-72.69 910.9,-85.02"/>
<polygon fill="#6666ff" stroke="#6666ff" points="910.61,-88.51 920.91,-86 911.3,-81.54 910.61,-88.51"/>
</g>
<!-- X::IO::Mkdir -->
<g id="node9" class="node">
<title>X::IO::Mkdir</title>
<g id="a_node9"><a xlink:href="/type/X::IO::Mkdir" xlink:title="X::IO::Mkdir">
<ellipse fill="none" stroke="#000000" cx="477.54" cy="-18" rx="58.49" ry="18"/>
<text text-anchor="middle" x="477.54" y="-14.3" font-family="FreeSans" font-size="14.00" fill="#000000">X::IO::Mkdir</text>
</a>
</g>
</g>
<!-- X::IO::Mkdir&#45;&gt;Exception -->
<g id="edge11" class="edge">
<title>X::IO::Mkdir&#45;&gt;Exception</title>
<path fill="none" stroke="#000000" d="M505.95,-33.86C588.51,-73.71 821.54,-180 821.54,-180 821.54,-180 935.53,-206.73 1004.82,-222.23"/>
<polygon fill="#000000" stroke="#000000" points="1004.18,-225.67 1014.71,-224.43 1005.7,-218.84 1004.18,-225.67"/>
</g>
<!-- X::IO::Mkdir&#45;&gt;Exception -->
<g id="edge12" class="edge">
<title>X::IO::Mkdir&#45;&gt;Exception</title>
<path fill="none" stroke="#000000" d="M511.67,-32.73C602.01,-71.66 839.54,-180 839.54,-180 839.54,-180 944.17,-204.54 1008.21,-220.22"/>
<polygon fill="#000000" stroke="#000000" points="1007.57,-223.67 1018.12,-222.66 1009.24,-216.87 1007.57,-223.67"/>
</g>
<!-- X::IO::Mkdir&#45;&gt;X::IO -->
<g id="edge39" class="edge">
<title>X::IO::Mkdir&#45;&gt;X::IO</title>
<path fill="none" stroke="#6666ff" d="M521.11,-30.05C533.91,-33.3 544.54,-36 544.54,-36 544.54,-36 808.52,-70.38 911.28,-83.76"/>
<polygon fill="#6666ff" stroke="#6666ff" points="910.92,-87.24 921.29,-85.06 911.82,-80.3 910.92,-87.24"/>
</g>
<!-- X::IO::DoesNotExist -->
<g id="node10" class="node">
<title>X::IO::DoesNotExist</title>
<g id="a_node10"><a xlink:href="/type/X::IO::DoesNotExist" xlink:title="X::IO::DoesNotExist">
<ellipse fill="none" stroke="#000000" cx="643.54" cy="-18" rx="89.88" ry="18"/>
<text text-anchor="middle" x="643.54" y="-14.3" font-family="FreeSans" font-size="14.00" fill="#000000">X::IO::DoesNotExist</text>
</a>
</g>
</g>
<!-- X::IO::DoesNotExist&#45;&gt;Exception -->
<g id="edge13" class="edge">
<title>X::IO::DoesNotExist&#45;&gt;Exception</title>
<path fill="none" stroke="#000000" d="M664.26,-35.62C721.72,-76.76 877.54,-180 877.54,-180 877.54,-180 954.95,-204.13 1008.07,-219.83"/>
<polygon fill="#000000" stroke="#000000" points="1007.1,-223.19 1017.68,-222.66 1009.07,-216.48 1007.1,-223.19"/>
</g>
<!-- X::IO::DoesNotExist&#45;&gt;Exception -->
<g id="edge14" class="edge">
<title>X::IO::DoesNotExist&#45;&gt;Exception</title>
<path fill="none" stroke="#000000" d="M672.53,-35.32C738.96,-76.25 895.54,-180 895.54,-180 895.54,-180 965.87,-201.93 1013.66,-217.57"/>
<polygon fill="#000000" stroke="#000000" points="1012.6,-220.91 1023.19,-220.71 1014.79,-214.26 1012.6,-220.91"/>
</g>
<!-- X::IO::DoesNotExist&#45;&gt;X::IO -->
<g id="edge40" class="edge">
<title>X::IO::DoesNotExist&#45;&gt;X::IO</title>
<path fill="none" stroke="#6666ff" d="M700.75,-32C762.7,-46.08 859.77,-68.14 913.16,-80.28"/>
<polygon fill="#6666ff" stroke="#6666ff" points="912.39,-83.69 922.91,-82.49 913.94,-76.86 912.39,-83.69"/>
</g>
<!-- X::IO::Chmod -->
<g id="node11" class="node">
<title>X::IO::Chmod</title>
<g id="a_node11"><a xlink:href="/type/X::IO::Chmod" xlink:title="X::IO::Chmod">
<ellipse fill="none" stroke="#000000" cx="815.54" cy="-18" rx="64.19" ry="18"/>
<text text-anchor="middle" x="815.54" y="-14.3" font-family="FreeSans" font-size="14.00" fill="#000000">X::IO::Chmod</text>
</a>
</g>
</g>
<!-- X::IO::Chmod&#45;&gt;Exception -->
<g id="edge15" class="edge">
<title>X::IO::Chmod&#45;&gt;Exception</title>
<path fill="none" stroke="#000000" d="M821.26,-36.23C841.22,-77.76 901.54,-180 901.54,-180 901.54,-180 964.46,-202.84 1010.23,-218.53"/>
<polygon fill="#000000" stroke="#000000" points="1009.12,-221.85 1019.71,-221.76 1011.37,-215.22 1009.12,-221.85"/>
</g>
<!-- X::IO::Chmod&#45;&gt;Exception -->
<g id="edge16" class="edge">
<title>X::IO::Chmod&#45;&gt;Exception</title>
<path fill="none" stroke="#000000" d="M829.73,-35.62C858.63,-76.76 919.54,-180 919.54,-180 919.54,-180 976.03,-200.51 1016.57,-216.01"/>
<polygon fill="#000000" stroke="#000000" points="1015.38,-219.3 1025.97,-219.63 1017.9,-212.77 1015.38,-219.3"/>
</g>
<!-- X::IO::Chmod&#45;&gt;X::IO -->
<g id="edge41" class="edge">
<title>X::IO::Chmod&#45;&gt;X::IO</title>
<path fill="none" stroke="#6666ff" d="M845.05,-34.19C867.06,-45.52 897.1,-60.98 919.66,-72.59"/>
<polygon fill="#6666ff" stroke="#6666ff" points="918.33,-75.84 928.83,-77.31 921.54,-69.62 918.33,-75.84"/>
</g>
<!-- X::IO::Cwd -->
<g id="node12" class="node">
<title>X::IO::Cwd</title>
<g id="a_node12"><a xlink:href="/type/X::IO::Cwd" xlink:title="X::IO::Cwd">
<ellipse fill="none" stroke="#000000" cx="951.54" cy="-18" rx="53.89" ry="18"/>
<text text-anchor="middle" x="951.54" y="-14.3" font-family="FreeSans" font-size="14.00" fill="#000000">X::IO::Cwd</text>
</a>
</g>
</g>
<!-- X::IO::Cwd&#45;&gt;Exception -->
<g id="edge17" class="edge">
<title>X::IO::Cwd&#45;&gt;Exception</title>
<path fill="none" stroke="#000000" d="M957.58,-36.06C967.11,-51.55 982.54,-72 982.54,-72 982.54,-72 1018.87,-161.98 1040.97,-207.41"/>
<polygon fill="#000000" stroke="#000000" points="1037.85,-209 1045.45,-216.38 1044.11,-205.87 1037.85,-209"/>
</g>
<!-- X::IO::Cwd&#45;&gt;Exception -->
<g id="edge18" class="edge">
<title>X::IO::Cwd&#45;&gt;Exception</title>
<path fill="none" stroke="#000000" d="M970.22,-34.9C984.33,-50.51 1000.54,-72 1000.54,-72 1000.54,-72 1036.22,-160.36 1051.05,-206.17"/>
<polygon fill="#000000" stroke="#000000" points="1047.72,-207.26 1054.03,-215.77 1054.41,-205.18 1047.72,-207.26"/>
</g>
<!-- X::IO::Cwd&#45;&gt;X::IO -->
<g id="edge42" class="edge">
<title>X::IO::Cwd&#45;&gt;X::IO</title>
<path fill="none" stroke="#6666ff" d="M951.54,-36.3C951.54,-44.02 951.54,-53.29 951.54,-61.89"/>
<polygon fill="#6666ff" stroke="#6666ff" points="948.04,-61.9 951.54,-71.9 955.04,-61.9 948.04,-61.9"/>
</g>
<!-- X::IO::Unlink -->
<g id="node13" class="node">
<title>X::IO::Unlink</title>
<g id="a_node13"><a xlink:href="/type/X::IO::Unlink" xlink:title="X::IO::Unlink">
<ellipse fill="none" stroke="#000000" cx="1084.54" cy="-18" rx="61.19" ry="18"/>
<text text-anchor="middle" x="1084.54" y="-14.3" font-family="FreeSans" font-size="14.00" fill="#000000">X::IO::Unlink</text>
</a>
</g>
</g>
<!-- X::IO::Unlink&#45;&gt;Exception -->
<g id="edge19" class="edge">
<title>X::IO::Unlink&#45;&gt;Exception</title>
<path fill="none" stroke="#000000" d="M1078.42,-36.15C1070.04,-73.17 1058.3,-160.82 1055.43,-205.61"/>
<polygon fill="#000000" stroke="#000000" points="1051.93,-205.6 1054.91,-215.77 1058.92,-205.96 1051.93,-205.6"/>
</g>
<!-- X::IO::Unlink&#45;&gt;Exception -->
<g id="edge20" class="edge">
<title>X::IO::Unlink&#45;&gt;Exception</title>
<path fill="none" stroke="#000000" d="M1086.18,-36.15C1084.86,-73.34 1073.57,-161.63 1064.7,-206.23"/>
<polygon fill="#000000" stroke="#000000" points="1061.26,-205.56 1062.62,-216.06 1068.11,-207.01 1061.26,-205.56"/>
</g>
<!-- X::IO::Unlink&#45;&gt;X::IO -->
<g id="edge43" class="edge">
<title>X::IO::Unlink&#45;&gt;X::IO</title>
<path fill="none" stroke="#6666ff" d="M1056.01,-34.02C1034.51,-45.34 1005.03,-60.85 982.88,-72.51"/>
<polygon fill="#6666ff" stroke="#6666ff" points="981.09,-69.49 973.87,-77.25 984.35,-75.69 981.09,-69.49"/>
</g>
<!-- X::IO::Chdir -->
<g id="node14" class="node">
<title>X::IO::Chdir</title>
<g id="a_node14"><a xlink:href="/type/X::IO::Chdir" xlink:title="X::IO::Chdir">
<ellipse fill="none" stroke="#000000" cx="1220.54" cy="-18" rx="57.39" ry="18"/>
<text text-anchor="middle" x="1220.54" y="-14.3" font-family="FreeSans" font-size="14.00" fill="#000000">X::IO::Chdir</text>
</a>
</g>
</g>
<!-- X::IO::Chdir&#45;&gt;Exception -->
<g id="edge21" class="edge">
<title>X::IO::Chdir&#45;&gt;Exception</title>
<path fill="none" stroke="#000000" d="M1204.14,-35.44C1171.99,-72.61 1102.2,-163.36 1071.36,-207.73"/>
<polygon fill="#000000" stroke="#000000" points="1068.32,-205.98 1065.57,-216.21 1074.1,-209.93 1068.32,-205.98"/>
</g>
<!-- X::IO::Chdir&#45;&gt;Exception -->
<g id="edge22" class="edge">
<title>X::IO::Chdir&#45;&gt;Exception</title>
<path fill="none" stroke="#000000" d="M1211.52,-35.79C1186.24,-73.56 1116.13,-165.3 1079.36,-209.04"/>
<polygon fill="#000000" stroke="#000000" points="1076.5,-206.99 1072.68,-216.87 1081.83,-211.53 1076.5,-206.99"/>
</g>
<!-- X::IO::Chdir&#45;&gt;X::IO -->
<g id="edge44" class="edge">
<title>X::IO::Chdir&#45;&gt;X::IO</title>
<path fill="none" stroke="#6666ff" d="M1177.92,-30.09C1125.95,-43.62 1038.91,-66.27 989.27,-79.18"/>
<polygon fill="#6666ff" stroke="#6666ff" points="988.36,-75.8 979.56,-81.71 990.12,-82.58 988.36,-75.8"/>
</g>
<!-- X::IO::Symlink -->
<g id="node15" class="node">
<title>X::IO::Symlink</title>
<g id="a_node15"><a xlink:href="/type/X::IO::Symlink" xlink:title="X::IO::Symlink">
<ellipse fill="none" stroke="#000000" cx="1363.54" cy="-18" rx="67.69" ry="18"/>
<text text-anchor="middle" x="1363.54" y="-14.3" font-family="FreeSans" font-size="14.00" fill="#000000">X::IO::Symlink</text>
</a>
</g>
</g>
<!-- X::IO::Symlink&#45;&gt;Exception -->
<g id="edge23" class="edge">
<title>X::IO::Symlink&#45;&gt;Exception</title>
<path fill="none" stroke="#000000" d="M1333.59,-34.15C1266.99,-74.23 1116.54,-180 1116.54,-180 1116.54,-180 1093.63,-195.57 1075.51,-209.83"/>
<polygon fill="#000000" stroke="#000000" points="1073.18,-207.21 1067.62,-216.23 1077.59,-212.65 1073.18,-207.21"/>
</g>
<!-- X::IO::Symlink&#45;&gt;Exception -->
<g id="edge24" class="edge">
<title>X::IO::Symlink&#45;&gt;Exception</title>
<path fill="none" stroke="#000000" d="M1340.75,-35.03C1282.83,-75.75 1134.54,-180 1134.54,-180 1134.54,-180 1109.29,-197.16 1087.52,-211.95"/>
<polygon fill="#000000" stroke="#000000" points="1085.41,-209.16 1079.1,-217.67 1089.34,-214.94 1085.41,-209.16"/>
</g>
<!-- X::IO::Symlink&#45;&gt;Exception -->
<g id="edge25" class="edge">
<title>X::IO::Symlink&#45;&gt;Exception</title>
<path fill="none" stroke="#000000" d="M1348.66,-35.62C1299.39,-76.76 1152.54,-180 1152.54,-180 1152.54,-180 1123.79,-199.54 1097.17,-214.89"/>
<polygon fill="#000000" stroke="#000000" points="1095.27,-211.94 1088.27,-219.9 1098.7,-218.04 1095.27,-211.94"/>
</g>
<!-- X::IO::Symlink&#45;&gt;X::IO -->
<g id="edge45" class="edge">
<title>X::IO::Symlink&#45;&gt;X::IO</title>
<path fill="none" stroke="#6666ff" d="M1313.04,-30.15C1298.53,-33.35 1286.54,-36 1286.54,-36 1286.54,-36 1079.94,-68.69 991.24,-82.72"/>
<polygon fill="#6666ff" stroke="#6666ff" points="990.6,-79.28 981.27,-84.3 991.7,-86.19 990.6,-79.28"/>
</g>
<!-- X::IO::Copy -->
<g id="node16" class="node">
<title>X::IO::Copy</title>
<g id="a_node16"><a xlink:href="/type/X::IO::Copy" xlink:title="X::IO::Copy">
<ellipse fill="none" stroke="#000000" cx="1505.54" cy="-18" rx="56.59" ry="18"/>
<text text-anchor="middle" x="1505.54" y="-14.3" font-family="FreeSans" font-size="14.00" fill="#000000">X::IO::Copy</text>
</a>
</g>
</g>
<!-- X::IO::Copy&#45;&gt;Exception -->
<g id="edge26" class="edge">
<title>X::IO::Copy&#45;&gt;Exception</title>
<path fill="none" stroke="#000000" d="M1471.32,-32.45C1385.85,-71.14 1173.54,-180 1173.54,-180 1173.54,-180 1125.54,-198.84 1090.6,-214.06"/>
<polygon fill="#000000" stroke="#000000" points="1088.88,-211 1081.15,-218.24 1091.71,-217.4 1088.88,-211"/>
</g>
<!-- X::IO::Copy&#45;&gt;Exception -->
<g id="edge27" class="edge">
<title>X::IO::Copy&#45;&gt;Exception</title>
<path fill="none" stroke="#000000" d="M1477.12,-33.57C1399.83,-73.2 1191.54,-180 1191.54,-180 1191.54,-180 1138.01,-201.02 1098.37,-216.58"/>
<polygon fill="#000000" stroke="#000000" points="1096.91,-213.39 1088.88,-220.31 1099.47,-219.91 1096.91,-213.39"/>
</g>
<!-- X::IO::Copy&#45;&gt;Exception -->
<g id="edge28" class="edge">
<title>X::IO::Copy&#45;&gt;Exception</title>
<path fill="none" stroke="#000000" d="M1483.42,-34.73C1413.85,-75.24 1209.54,-180 1209.54,-180 1209.54,-180 1149.67,-203.51 1104.35,-219.21"/>
<polygon fill="#000000" stroke="#000000" points="1102.97,-215.98 1094.64,-222.53 1105.23,-222.61 1102.97,-215.98"/>
</g>
<!-- X::IO::Copy&#45;&gt;X::IO -->
<g id="edge46" class="edge">
<title>X::IO::Copy&#45;&gt;X::IO</title>
<path fill="none" stroke="#6666ff" d="M1463.28,-30.05C1450.86,-33.3 1440.54,-36 1440.54,-36 1440.54,-36 1109.47,-71.88 992.16,-84.6"/>
<polygon fill="#6666ff" stroke="#6666ff" points="991.7,-81.13 982.13,-85.68 992.45,-88.09 991.7,-81.13"/>
</g>
<!-- X::IO::Dir -->
<g id="node17" class="node">
<title>X::IO::Dir</title>
<g id="a_node17"><a xlink:href="/type/X::IO::Dir" xlink:title="X::IO::Dir">
<ellipse fill="none" stroke="#000000" cx="1627.54" cy="-18" rx="47.39" ry="18"/>
<text text-anchor="middle" x="1627.54" y="-14.3" font-family="FreeSans" font-size="14.00" fill="#000000">X::IO::Dir</text>
</a>
</g>
</g>
<!-- X::IO::Dir&#45;&gt;Exception -->
<g id="edge29" class="edge">
<title>X::IO::Dir&#45;&gt;Exception</title>
<path fill="none" stroke="#000000" d="M1593.45,-30.58C1498.1,-67.49 1239.54,-180 1239.54,-180 1239.54,-180 1154.87,-202.33 1100.36,-218"/>
<polygon fill="#000000" stroke="#000000" points="1099.19,-214.69 1090.56,-220.84 1101.14,-221.42 1099.19,-214.69"/>
</g>
<!-- X::IO::Dir&#45;&gt;Exception -->
<g id="edge30" class="edge">
<title>X::IO::Dir&#45;&gt;Exception</title>
<path fill="none" stroke="#000000" d="M1597.58,-32.04C1509.49,-70.37 1257.54,-180 1257.54,-180 1257.54,-180 1164.75,-204.47 1105.26,-220.15"/>
<polygon fill="#000000" stroke="#000000" points="1104.08,-216.85 1095.3,-222.78 1105.86,-223.62 1104.08,-216.85"/>
</g>
<!-- X::IO::Dir&#45;&gt;Exception -->
<g id="edge31" class="edge">
<title>X::IO::Dir&#45;&gt;Exception</title>
<path fill="none" stroke="#000000" d="M1602.62,-33.43C1521.57,-72.95 1275.54,-180 1275.54,-180 1275.54,-180 1174.2,-206.72 1108.99,-222.22"/>
<polygon fill="#000000" stroke="#000000" points="1107.79,-218.9 1098.86,-224.6 1109.39,-225.72 1107.79,-218.9"/>
</g>
<!-- X::IO::Dir&#45;&gt;X::IO -->
<g id="edge47" class="edge">
<title>X::IO::Dir&#45;&gt;X::IO</title>
<path fill="none" stroke="#6666ff" d="M1591.76,-29.86C1580.79,-33.19 1571.54,-36 1571.54,-36 1571.54,-36 1130.66,-73.69 992.46,-85.5"/>
<polygon fill="#6666ff" stroke="#6666ff" points="991.96,-82.03 982.29,-86.37 992.55,-89.01 991.96,-82.03"/>
</g>
<!-- X::IO::Move -->
<g id="node18" class="node">
<title>X::IO::Move</title>
<g id="a_node18"><a xlink:href="/type/X::IO::Move" xlink:title="X::IO::Move">
<ellipse fill="none" stroke="#000000" cx="1750.54" cy="-18" rx="57.69" ry="18"/>
<text text-anchor="middle" x="1750.54" y="-14.3" font-family="FreeSans" font-size="14.00" fill="#000000">X::IO::Move</text>
</a>
</g>
</g>
<!-- X::IO::Move&#45;&gt;Exception -->
<g id="edge32" class="edge">
<title>X::IO::Move&#45;&gt;Exception</title>
<path fill="none" stroke="#000000" d="M1710.89,-31.23C1602.31,-68.81 1311.54,-180 1311.54,-180 1311.54,-180 1180.79,-205.38 1106.23,-221.02"/>
<polygon fill="#000000" stroke="#000000" points="1105.16,-217.67 1096.1,-223.16 1106.61,-224.51 1105.16,-217.67"/>
</g>
<!-- X::IO::Move&#45;&gt;Exception -->
<g id="edge33" class="edge">
<title>X::IO::Move&#45;&gt;Exception</title>
<path fill="none" stroke="#000000" d="M1715.37,-32.45C1614.19,-71.14 1329.54,-180 1329.54,-180 1329.54,-180 1188.32,-207.42 1109.02,-222.81"/>
<polygon fill="#000000" stroke="#000000" points="1108.35,-219.38 1099.2,-224.72 1109.68,-226.25 1108.35,-219.38"/>
</g>
<!-- X::IO::Move&#45;&gt;Exception -->
<g id="edge34" class="edge">
<title>X::IO::Move&#45;&gt;Exception</title>
<path fill="none" stroke="#000000" d="M1720.72,-33.57C1626.81,-73.2 1347.54,-180 1347.54,-180 1347.54,-180 1195.98,-209.42 1111.27,-224.42"/>
<polygon fill="#000000" stroke="#000000" points="1110.53,-221 1101.28,-226.18 1111.74,-227.9 1110.53,-221"/>
</g>
<!-- X::IO::Move&#45;&gt;X::IO -->
<g id="edge48" class="edge">
<title>X::IO::Move&#45;&gt;X::IO</title>
<path fill="none" stroke="#6666ff" d="M1706.98,-30.05C1694.18,-33.3 1683.54,-36 1683.54,-36 1683.54,-36 1146.8,-74.86 992.55,-86.03"/>
<polygon fill="#6666ff" stroke="#6666ff" points="992.25,-82.54 982.53,-86.76 992.76,-89.53 992.25,-82.54"/>
</g>
</g>
</svg>
