<?xml version="1.0" encoding="UTF-8" standalone="no"?>
<!DOCTYPE svg PUBLIC "-//W3C//DTD SVG 1.1//EN"
 "http://www.w3.org/Graphics/SVG/1.1/DTD/svg11.dtd">
<!-- Generated by graphviz version 2.43.0 (0)
 -->
<!-- Title: perl6&#45;type&#45;graph Pages: 1 -->
<svg width="367pt" height="260pt"
 viewBox="0.00 0.00 367.09 260.00" xmlns="http://www.w3.org/2000/svg" xmlns:xlink="http://www.w3.org/1999/xlink">
<g id="graph0" class="graph" transform="scale(1 1) rotate(0) translate(4 256)">
<title>perl6&#45;type&#45;graph</title>
<polygon fill="white" stroke="transparent" points="-4,4 -4,-256 363.09,-256 363.09,4 -4,4"/>
<!-- Sequence -->
<g id="node1" class="node">
<title>Sequence</title>
<g id="a_node1"><a xlink:href="/type/Sequence" xlink:title="Sequence">
<ellipse fill="none" stroke="#6666ff" cx="97.49" cy="-90" rx="50.09" ry="18"/>
<text text-anchor="middle" x="97.49" y="-86.3" font-family="FreeSans" font-size="14.00" fill="#6666ff">Sequence</text>
</a>
</g>
</g>
<!-- PositionalBindFailover -->
<g id="node2" class="node">
<title>PositionalBindFailover</title>
<g id="a_node2"><a xlink:href="/type/PositionalBindFailover" xlink:title="PositionalBindFailover">
<ellipse fill="none" stroke="#6666ff" cx="97.49" cy="-162" rx="97.48" ry="18"/>
<text text-anchor="middle" x="97.49" y="-158.3" font-family="FreeSans" font-size="14.00" fill="#6666ff">PositionalBindFailover</text>
</a>
</g>
</g>
<!-- Sequence&#45;&gt;PositionalBindFailover -->
<g id="edge6" class="edge">
<title>Sequence&#45;&gt;PositionalBindFailover</title>
<path fill="none" stroke="#6666ff" d="M97.49,-108.3C97.49,-116.02 97.49,-125.29 97.49,-133.89"/>
<polygon fill="#6666ff" stroke="#6666ff" points="93.99,-133.9 97.49,-143.9 100.99,-133.9 93.99,-133.9"/>
</g>
<!-- Mu -->
<g id="node3" class="node">
<title>Mu</title>
<g id="a_node3"><a xlink:href="/type/Mu" xlink:title="Mu">
<ellipse fill="none" stroke="#000000" cx="273.49" cy="-234" rx="27" ry="18"/>
<text text-anchor="middle" x="273.49" y="-230.3" font-family="FreeSans" font-size="14.00" fill="#000000">Mu</text>
</a>
</g>
</g>
<!-- Any -->
<g id="node4" class="node">
<title>Any</title>
<g id="a_node4"><a xlink:href="/type/Any" xlink:title="Any">
<ellipse fill="none" stroke="#000000" cx="273.49" cy="-162" rx="27" ry="18"/>
<text text-anchor="middle" x="273.49" y="-158.3" font-family="FreeSans" font-size="14.00" fill="#000000">Any</text>
</a>
</g>
</g>
<!-- Any&#45;&gt;Mu -->
<g id="edge1" class="edge">
<title>Any&#45;&gt;Mu</title>
<path fill="none" stroke="#000000" d="M273.49,-180.3C273.49,-188.02 273.49,-197.29 273.49,-205.89"/>
<polygon fill="#000000" stroke="#000000" points="269.99,-205.9 273.49,-215.9 276.99,-205.9 269.99,-205.9"/>
</g>
<!-- Iterable -->
<g id="node5" class="node">
<title>Iterable</title>
<g id="a_node5"><a xlink:href="/type/Iterable" xlink:title="Iterable">
<ellipse fill="none" stroke="#6666ff" cx="205.49" cy="-90" rx="40.09" ry="18"/>
<text text-anchor="middle" x="205.49" y="-86.3" font-family="FreeSans" font-size="14.00" fill="#6666ff">Iterable</text>
</a>
</g>
</g>
<!-- HyperSeq -->
<g id="node6" class="node">
<title>HyperSeq</title>
<g id="a_node6"><a xlink:href="/type/HyperSeq" xlink:title="HyperSeq">
<ellipse fill="none" stroke="#000000" cx="205.49" cy="-18" rx="50.09" ry="18"/>
<text text-anchor="middle" x="205.49" y="-14.3" font-family="FreeSans" font-size="14.00" fill="#000000">HyperSeq</text>
</a>
</g>
</g>
<!-- HyperSeq&#45;&gt;Sequence -->
<g id="edge8" class="edge">
<title>HyperSeq&#45;&gt;Sequence</title>
<path fill="none" stroke="#6666ff" d="M182.32,-34.02C166.81,-44.07 146.18,-57.44 129.15,-68.48"/>
<polygon fill="#6666ff" stroke="#6666ff" points="127.11,-65.63 120.62,-74.01 130.92,-71.51 127.11,-65.63"/>
</g>
<!-- HyperSeq&#45;&gt;Any -->
<g id="edge2" class="edge">
<title>HyperSeq&#45;&gt;Any</title>
<path fill="none" stroke="#000000" d="M220.46,-35.19C234.87,-50.78 254.49,-72 254.49,-72 254.49,-72 262.14,-107.83 267.73,-134.03"/>
<polygon fill="#000000" stroke="#000000" points="264.32,-134.79 269.83,-143.84 271.16,-133.33 264.32,-134.79"/>
</g>
<!-- HyperSeq&#45;&gt;Iterable -->
<g id="edge7" class="edge">
<title>HyperSeq&#45;&gt;Iterable</title>
<path fill="none" stroke="#6666ff" d="M205.49,-36.3C205.49,-44.02 205.49,-53.29 205.49,-61.89"/>
<polygon fill="#6666ff" stroke="#6666ff" points="201.99,-61.9 205.49,-71.9 208.99,-61.9 201.99,-61.9"/>
</g>
<!-- Cool -->
<g id="node7" class="node">
<title>Cool</title>
<g id="a_node7"><a xlink:href="/type/Cool" xlink:title="Cool">
<ellipse fill="none" stroke="#000000" cx="330.49" cy="-90" rx="28.7" ry="18"/>
<text text-anchor="middle" x="330.49" y="-86.3" font-family="FreeSans" font-size="14.00" fill="#000000">Cool</text>
</a>
</g>
</g>
<!-- Cool&#45;&gt;Any -->
<g id="edge3" class="edge">
<title>Cool&#45;&gt;Any</title>
<path fill="none" stroke="#000000" d="M317.84,-106.54C310.39,-115.69 300.81,-127.45 292.47,-137.69"/>
<polygon fill="#000000" stroke="#000000" points="289.71,-135.54 286.11,-145.51 295.13,-139.96 289.71,-135.54"/>
</g>
<!-- Seq -->
<g id="node8" class="node">
<title>Seq</title>
<g id="a_node8"><a xlink:href="/type/Seq" xlink:title="Seq">
<ellipse fill="none" stroke="#000000" cx="300.49" cy="-18" rx="27" ry="18"/>
<text text-anchor="middle" x="300.49" y="-14.3" font-family="FreeSans" font-size="14.00" fill="#000000">Seq</text>
</a>
</g>
</g>
<!-- Seq&#45;&gt;Sequence -->
<g id="edge10" class="edge">
<title>Seq&#45;&gt;Sequence</title>
<path fill="none" stroke="#6666ff" d="M279.13,-29.09C271.38,-32.75 264.49,-36 264.49,-36 264.49,-36 192.73,-58.77 143.29,-74.46"/>
<polygon fill="#6666ff" stroke="#6666ff" points="142.2,-71.14 133.73,-77.5 144.32,-77.81 142.2,-71.14"/>
</g>
<!-- Seq&#45;&gt;Iterable -->
<g id="edge9" class="edge">
<title>Seq&#45;&gt;Iterable</title>
<path fill="none" stroke="#6666ff" d="M283.07,-31.84C269.33,-41.96 249.88,-56.29 233.9,-68.07"/>
<polygon fill="#6666ff" stroke="#6666ff" points="231.41,-65.55 225.44,-74.3 235.56,-71.19 231.41,-65.55"/>
</g>
<!-- Seq&#45;&gt;Cool -->
<g id="edge4" class="edge">
<title>Seq&#45;&gt;Cool</title>
<path fill="none" stroke="#000000" d="M307.6,-35.59C311.15,-43.87 315.52,-54.08 319.49,-63.34"/>
<polygon fill="#000000" stroke="#000000" points="316.28,-64.72 323.43,-72.53 322.71,-61.96 316.28,-64.72"/>
</g>
<!-- RaceSeq -->
<g id="node9" class="node">
<title>RaceSeq</title>
<g id="a_node9"><a xlink:href="/type/RaceSeq" xlink:title="RaceSeq">
<ellipse fill="none" stroke="#000000" cx="90.49" cy="-18" rx="46.59" ry="18"/>
<text text-anchor="middle" x="90.49" y="-14.3" font-family="FreeSans" font-size="14.00" fill="#000000">RaceSeq</text>
</a>
</g>
</g>
<!-- RaceSeq&#45;&gt;Sequence -->
<g id="edge12" class="edge">
<title>RaceSeq&#45;&gt;Sequence</title>
<path fill="none" stroke="#6666ff" d="M92.22,-36.3C92.99,-44.02 93.92,-53.29 94.78,-61.89"/>
<polygon fill="#6666ff" stroke="#6666ff" points="91.3,-62.29 95.78,-71.9 98.27,-61.6 91.3,-62.29"/>
</g>
<!-- RaceSeq&#45;&gt;Any -->
<g id="edge5" class="edge">
<title>RaceSeq&#45;&gt;Any</title>
<path fill="none" stroke="#000000" d="M74.61,-35.19C59.31,-50.78 38.49,-72 38.49,-72 38.49,-72 38.49,-108 38.49,-108 38.49,-108 203.49,-144 203.49,-144 203.49,-144 220.96,-148.24 238.45,-152.49"/>
<polygon fill="#000000" stroke="#000000" points="238.07,-156 248.61,-154.96 239.72,-149.2 238.07,-156"/>
</g>
<!-- RaceSeq&#45;&gt;Iterable -->
<g id="edge11" class="edge">
<title>RaceSeq&#45;&gt;Iterable</title>
<path fill="none" stroke="#6666ff" d="M114.32,-33.5C131.59,-44.01 155.1,-58.33 173.93,-69.79"/>
<polygon fill="#6666ff" stroke="#6666ff" points="172.12,-72.78 182.48,-74.99 175.76,-66.8 172.12,-72.78"/>
</g>
</g>
</svg>
