<?xml version="1.0" encoding="UTF-8" standalone="no"?>
<!DOCTYPE svg PUBLIC "-//W3C//DTD SVG 1.1//EN"
 "http://www.w3.org/Graphics/SVG/1.1/DTD/svg11.dtd">
<!-- Generated by graphviz version 2.43.0 (0)
 -->
<!-- Title: perl6&#45;type&#45;graph Pages: 1 -->
<svg width="860pt" height="332pt"
 viewBox="0.00 0.00 860.25 332.00" xmlns="http://www.w3.org/2000/svg" xmlns:xlink="http://www.w3.org/1999/xlink">
<g id="graph0" class="graph" transform="scale(1 1) rotate(0) translate(4 328)">
<title>perl6&#45;type&#45;graph</title>
<polygon fill="#ffffff" stroke="transparent" points="-4,4 -4,-328 856.25,-328 856.25,4 -4,4"/>
<!-- Positional -->
<g id="node1" class="node">
<title>Positional</title>
<g id="a_node1"><a xlink:href="/type/Positional" xlink:title="Positional">
<ellipse fill="none" stroke="#6666ff" cx="360" cy="-162" rx="48.99" ry="18"/>
<text text-anchor="middle" x="360" y="-158.3" font-family="FreeSans" font-size="14.00" fill="#6666ff">Positional</text>
</a>
</g>
</g>
<!-- Mu -->
<g id="node2" class="node">
<title>Mu</title>
<g id="a_node2"><a xlink:href="/type/Mu" xlink:title="Mu">
<ellipse fill="none" stroke="#000000" cx="351" cy="-306" rx="27" ry="18"/>
<text text-anchor="middle" x="351" y="-302.3" font-family="FreeSans" font-size="14.00" fill="#000000">Mu</text>
</a>
</g>
</g>
<!-- Any -->
<g id="node3" class="node">
<title>Any</title>
<g id="a_node3"><a xlink:href="/type/Any" xlink:title="Any">
<ellipse fill="none" stroke="#000000" cx="351" cy="-234" rx="27" ry="18"/>
<text text-anchor="middle" x="351" y="-230.3" font-family="FreeSans" font-size="14.00" fill="#000000">Any</text>
</a>
</g>
</g>
<!-- Any&#45;&gt;Mu -->
<g id="edge1" class="edge">
<title>Any&#45;&gt;Mu</title>
<path fill="none" stroke="#000000" d="M351,-252.3C351,-260.02 351,-269.29 351,-277.89"/>
<polygon fill="#000000" stroke="#000000" points="347.5,-277.9 351,-287.9 354.5,-277.9 347.5,-277.9"/>
</g>
<!-- Associative -->
<g id="node4" class="node">
<title>Associative</title>
<g id="a_node4"><a xlink:href="/type/Associative" xlink:title="Associative">
<ellipse fill="none" stroke="#6666ff" cx="64" cy="-162" rx="55.49" ry="18"/>
<text text-anchor="middle" x="64" y="-158.3" font-family="FreeSans" font-size="14.00" fill="#6666ff">Associative</text>
</a>
</g>
</g>
<!-- Iterable -->
<g id="node5" class="node">
<title>Iterable</title>
<g id="a_node5"><a xlink:href="/type/Iterable" xlink:title="Iterable">
<ellipse fill="none" stroke="#6666ff" cx="178" cy="-162" rx="40.09" ry="18"/>
<text text-anchor="middle" x="178" y="-158.3" font-family="FreeSans" font-size="14.00" fill="#6666ff">Iterable</text>
</a>
</g>
</g>
<!-- IO::Path::Parts -->
<g id="node6" class="node">
<title>IO::Path::Parts</title>
<g id="a_node6"><a xlink:href="/type/IO::Path::Parts" xlink:title="IO::Path::Parts">
<ellipse fill="none" stroke="#000000" cx="75" cy="-90" rx="68.79" ry="18"/>
<text text-anchor="middle" x="75" y="-86.3" font-family="FreeSans" font-size="14.00" fill="#000000">IO::Path::Parts</text>
</a>
</g>
</g>
<!-- IO::Path::Parts&#45;&gt;Positional -->
<g id="edge14" class="edge">
<title>IO::Path::Parts&#45;&gt;Positional</title>
<path fill="none" stroke="#6666ff" d="M124.75,-102.57C191.84,-118.16 303,-144 303,-144 303,-144 307.36,-145.3 313.67,-147.18"/>
<polygon fill="#6666ff" stroke="#6666ff" points="312.67,-150.54 323.26,-150.04 314.67,-143.83 312.67,-150.54"/>
</g>
<!-- IO::Path::Parts&#45;&gt;Any -->
<g id="edge2" class="edge">
<title>IO::Path::Parts&#45;&gt;Any</title>
<path fill="none" stroke="#000000" d="M52.09,-107.19C30.03,-122.78 0,-144 0,-144 0,-144 0,-180 0,-180 0,-180 225.36,-214.03 314.93,-227.55"/>
<polygon fill="#000000" stroke="#000000" points="314.49,-231.03 324.9,-229.06 315.54,-224.11 314.49,-231.03"/>
</g>
<!-- IO::Path::Parts&#45;&gt;Associative -->
<g id="edge15" class="edge">
<title>IO::Path::Parts&#45;&gt;Associative</title>
<path fill="none" stroke="#6666ff" d="M72.28,-108.3C71.07,-116.02 69.61,-125.29 68.26,-133.89"/>
<polygon fill="#6666ff" stroke="#6666ff" points="64.78,-133.47 66.69,-143.9 71.7,-134.56 64.78,-133.47"/>
</g>
<!-- IO::Path::Parts&#45;&gt;Iterable -->
<g id="edge16" class="edge">
<title>IO::Path::Parts&#45;&gt;Iterable</title>
<path fill="none" stroke="#6666ff" d="M98.63,-107.06C113.36,-117.07 132.45,-130.04 148.22,-140.76"/>
<polygon fill="#6666ff" stroke="#6666ff" points="146.34,-143.72 156.58,-146.44 150.28,-137.93 146.34,-143.72"/>
</g>
<!-- Cool -->
<g id="node7" class="node">
<title>Cool</title>
<g id="a_node7"><a xlink:href="/type/Cool" xlink:title="Cool">
<ellipse fill="none" stroke="#000000" cx="265" cy="-162" rx="28.7" ry="18"/>
<text text-anchor="middle" x="265" y="-158.3" font-family="FreeSans" font-size="14.00" fill="#000000">Cool</text>
</a>
</g>
</g>
<!-- Cool&#45;&gt;Any -->
<g id="edge3" class="edge">
<title>Cool&#45;&gt;Any</title>
<path fill="none" stroke="#000000" d="M281.99,-176.83C294.76,-187.22 312.42,-201.6 326.69,-213.21"/>
<polygon fill="#000000" stroke="#000000" points="324.66,-216.08 334.63,-219.67 329.08,-210.65 324.66,-216.08"/>
</g>
<!-- Range -->
<g id="node8" class="node">
<title>Range</title>
<g id="a_node8"><a xlink:href="/type/Range" xlink:title="Range">
<ellipse fill="none" stroke="#000000" cx="233" cy="-90" rx="36.29" ry="18"/>
<text text-anchor="middle" x="233" y="-86.3" font-family="FreeSans" font-size="14.00" fill="#000000">Range</text>
</a>
</g>
</g>
<!-- Range&#45;&gt;Positional -->
<g id="edge17" class="edge">
<title>Range&#45;&gt;Positional</title>
<path fill="none" stroke="#6666ff" d="M256.29,-103.84C275.47,-114.41 302.95,-129.55 324.8,-141.6"/>
<polygon fill="#6666ff" stroke="#6666ff" points="323.34,-144.79 333.79,-146.55 326.72,-138.66 323.34,-144.79"/>
</g>
<!-- Range&#45;&gt;Iterable -->
<g id="edge18" class="edge">
<title>Range&#45;&gt;Iterable</title>
<path fill="none" stroke="#6666ff" d="M220.24,-107.24C213.3,-116.07 204.58,-127.17 196.87,-136.99"/>
<polygon fill="#6666ff" stroke="#6666ff" points="194.11,-134.83 190.69,-144.85 199.62,-139.15 194.11,-134.83"/>
</g>
<!-- Range&#45;&gt;Cool -->
<g id="edge4" class="edge">
<title>Range&#45;&gt;Cool</title>
<path fill="none" stroke="#000000" d="M240.75,-107.95C244.44,-116.03 248.94,-125.88 253.06,-134.89"/>
<polygon fill="#000000" stroke="#000000" points="249.98,-136.57 257.33,-144.21 256.35,-133.66 249.98,-136.57"/>
</g>
<!-- Stringy -->
<g id="node9" class="node">
<title>Stringy</title>
<g id="a_node9"><a xlink:href="/type/Stringy" xlink:title="Stringy">
<ellipse fill="none" stroke="#6666ff" cx="506" cy="-162" rx="38.19" ry="18"/>
<text text-anchor="middle" x="506" y="-158.3" font-family="FreeSans" font-size="14.00" fill="#6666ff">Stringy</text>
</a>
</g>
</g>
<!-- Blob -->
<g id="node10" class="node">
<title>Blob</title>
<g id="a_node10"><a xlink:href="/type/Blob" xlink:title="Blob">
<ellipse fill="none" stroke="#6666ff" cx="494" cy="-90" rx="28.7" ry="18"/>
<text text-anchor="middle" x="494" y="-86.3" font-family="FreeSans" font-size="14.00" fill="#6666ff">Blob</text>
</a>
</g>
</g>
<!-- Blob&#45;&gt;Positional -->
<g id="edge19" class="edge">
<title>Blob&#45;&gt;Positional</title>
<path fill="none" stroke="#6666ff" d="M472.77,-102.09C452.22,-112.83 420.67,-129.31 396.16,-142.11"/>
<polygon fill="#6666ff" stroke="#6666ff" points="394.4,-139.08 387.15,-146.82 397.64,-145.29 394.4,-139.08"/>
</g>
<!-- Blob&#45;&gt;Stringy -->
<g id="edge20" class="edge">
<title>Blob&#45;&gt;Stringy</title>
<path fill="none" stroke="#6666ff" d="M496.9,-107.95C498.23,-115.65 499.82,-124.97 501.31,-133.64"/>
<polygon fill="#6666ff" stroke="#6666ff" points="497.9,-134.46 503.04,-143.72 504.8,-133.28 497.9,-134.46"/>
</g>
<!-- List -->
<g id="node11" class="node">
<title>List</title>
<g id="a_node11"><a xlink:href="/type/List" xlink:title="List">
<ellipse fill="none" stroke="#000000" cx="314" cy="-90" rx="27" ry="18"/>
<text text-anchor="middle" x="314" y="-86.3" font-family="FreeSans" font-size="14.00" fill="#000000">List</text>
</a>
</g>
</g>
<!-- List&#45;&gt;Positional -->
<g id="edge21" class="edge">
<title>List&#45;&gt;Positional</title>
<path fill="none" stroke="#6666ff" d="M324.44,-106.88C330.04,-115.41 337.07,-126.11 343.41,-135.75"/>
<polygon fill="#6666ff" stroke="#6666ff" points="340.54,-137.77 348.96,-144.2 346.39,-133.92 340.54,-137.77"/>
</g>
<!-- List&#45;&gt;Iterable -->
<g id="edge22" class="edge">
<title>List&#45;&gt;Iterable</title>
<path fill="none" stroke="#6666ff" d="M293.34,-101.63C271.9,-112.67 237.99,-130.12 212.48,-143.25"/>
<polygon fill="#6666ff" stroke="#6666ff" points="210.79,-140.19 203.5,-147.88 213.99,-146.41 210.79,-140.19"/>
</g>
<!-- List&#45;&gt;Cool -->
<g id="edge5" class="edge">
<title>List&#45;&gt;Cool</title>
<path fill="none" stroke="#000000" d="M303.13,-106.54C296.93,-115.38 289.04,-126.66 282.04,-136.66"/>
<polygon fill="#000000" stroke="#000000" points="279.05,-134.82 276.18,-145.02 284.79,-138.84 279.05,-134.82"/>
</g>
<!-- Uni -->
<g id="node12" class="node">
<title>Uni</title>
<g id="a_node12"><a xlink:href="/type/Uni" xlink:title="Uni">
<ellipse fill="none" stroke="#000000" cx="574" cy="-90" rx="27" ry="18"/>
<text text-anchor="middle" x="574" y="-86.3" font-family="FreeSans" font-size="14.00" fill="#000000">Uni</text>
</a>
</g>
</g>
<!-- Uni&#45;&gt;Positional -->
<g id="edge23" class="edge">
<title>Uni&#45;&gt;Positional</title>
<path fill="none" stroke="#6666ff" d="M551.52,-100.1C541.54,-104.14 532,-108 532,-108 532,-108 457.26,-131.03 406.32,-146.73"/>
<polygon fill="#6666ff" stroke="#6666ff" points="405,-143.47 396.48,-149.76 407.06,-150.16 405,-143.47"/>
</g>
<!-- Uni&#45;&gt;Any -->
<g id="edge6" class="edge">
<title>Uni&#45;&gt;Any</title>
<path fill="none" stroke="#000000" d="M569.95,-108.16C563.85,-134.02 553,-180 553,-180 553,-180 443.28,-208.79 385.57,-223.93"/>
<polygon fill="#000000" stroke="#000000" points="384.55,-220.58 375.77,-226.5 386.33,-227.35 384.55,-220.58"/>
</g>
<!-- Uni&#45;&gt;Stringy -->
<g id="edge24" class="edge">
<title>Uni&#45;&gt;Stringy</title>
<path fill="none" stroke="#6666ff" d="M559.91,-105.5C550.89,-114.78 539,-127.03 528.67,-137.66"/>
<polygon fill="#6666ff" stroke="#6666ff" points="525.95,-135.44 521.49,-145.05 530.97,-140.32 525.95,-135.44"/>
</g>
<!-- Slip -->
<g id="node13" class="node">
<title>Slip</title>
<g id="a_node13"><a xlink:href="/type/Slip" xlink:title="Slip">
<ellipse fill="none" stroke="#000000" cx="247" cy="-18" rx="27" ry="18"/>
<text text-anchor="middle" x="247" y="-14.3" font-family="FreeSans" font-size="14.00" fill="#000000">Slip</text>
</a>
</g>
</g>
<!-- Slip&#45;&gt;List -->
<g id="edge7" class="edge">
<title>Slip&#45;&gt;List</title>
<path fill="none" stroke="#000000" d="M260.88,-33.5C270.14,-43.17 282.47,-56.06 292.93,-66.98"/>
<polygon fill="#000000" stroke="#000000" points="290.69,-69.71 300.14,-74.51 295.75,-64.87 290.69,-69.71"/>
</g>
<!-- Array -->
<g id="node14" class="node">
<title>Array</title>
<g id="a_node14"><a xlink:href="/type/Array" xlink:title="Array">
<ellipse fill="none" stroke="#000000" cx="324" cy="-18" rx="31.7" ry="18"/>
<text text-anchor="middle" x="324" y="-14.3" font-family="FreeSans" font-size="14.00" fill="#000000">Array</text>
</a>
</g>
</g>
<!-- Array&#45;&gt;List -->
<g id="edge8" class="edge">
<title>Array&#45;&gt;List</title>
<path fill="none" stroke="#000000" d="M321.53,-36.3C320.43,-44.02 319.1,-53.29 317.87,-61.89"/>
<polygon fill="#000000" stroke="#000000" points="314.39,-61.5 316.44,-71.9 321.32,-62.49 314.39,-61.5"/>
</g>
<!-- NFKC -->
<g id="node15" class="node">
<title>NFKC</title>
<g id="a_node15"><a xlink:href="/type/NFKC" xlink:title="NFKC">
<ellipse fill="none" stroke="#000000" cx="574" cy="-18" rx="36" ry="18"/>
<text text-anchor="middle" x="574" y="-14.3" font-family="FreeSans" font-size="14.00" fill="#000000">NFKC</text>
</a>
</g>
</g>
<!-- NFKC&#45;&gt;Uni -->
<g id="edge9" class="edge">
<title>NFKC&#45;&gt;Uni</title>
<path fill="none" stroke="#000000" d="M574,-36.3C574,-44.02 574,-53.29 574,-61.89"/>
<polygon fill="#000000" stroke="#000000" points="570.5,-61.9 574,-71.9 577.5,-61.9 570.5,-61.9"/>
</g>
<!-- NFD -->
<g id="node16" class="node">
<title>NFD</title>
<g id="a_node16"><a xlink:href="/type/NFD" xlink:title="NFD">
<ellipse fill="none" stroke="#000000" cx="657" cy="-18" rx="29.5" ry="18"/>
<text text-anchor="middle" x="657" y="-14.3" font-family="FreeSans" font-size="14.00" fill="#000000">NFD</text>
</a>
</g>
</g>
<!-- NFD&#45;&gt;Uni -->
<g id="edge10" class="edge">
<title>NFD&#45;&gt;Uni</title>
<path fill="none" stroke="#000000" d="M640.2,-33.17C628.12,-43.36 611.65,-57.25 598.16,-68.63"/>
<polygon fill="#000000" stroke="#000000" points="595.59,-66.21 590.21,-75.33 600.11,-71.56 595.59,-66.21"/>
</g>
<!-- NFKD -->
<g id="node17" class="node">
<title>NFKD</title>
<g id="a_node17"><a xlink:href="/type/NFKD" xlink:title="NFKD">
<ellipse fill="none" stroke="#000000" cx="740" cy="-18" rx="36" ry="18"/>
<text text-anchor="middle" x="740" y="-14.3" font-family="FreeSans" font-size="14.00" fill="#000000">NFKD</text>
</a>
</g>
</g>
<!-- NFKD&#45;&gt;Uni -->
<g id="edge11" class="edge">
<title>NFKD&#45;&gt;Uni</title>
<path fill="none" stroke="#000000" d="M713.33,-30.25C684.05,-42.59 637.08,-62.4 605.88,-75.56"/>
<polygon fill="#000000" stroke="#000000" points="604.2,-72.47 596.35,-79.58 606.92,-78.92 604.2,-72.47"/>
</g>
<!-- NFC -->
<g id="node18" class="node">
<title>NFC</title>
<g id="a_node18"><a xlink:href="/type/NFC" xlink:title="NFC">
<ellipse fill="none" stroke="#000000" cx="823" cy="-18" rx="29.5" ry="18"/>
<text text-anchor="middle" x="823" y="-14.3" font-family="FreeSans" font-size="14.00" fill="#000000">NFC</text>
</a>
</g>
</g>
<!-- NFC&#45;&gt;Uni -->
<g id="edge12" class="edge">
<title>NFC&#45;&gt;Uni</title>
<path fill="none" stroke="#000000" d="M800.02,-29.28C792.02,-32.86 785,-36 785,-36 785,-36 668.76,-65.2 608.83,-80.25"/>
<polygon fill="#000000" stroke="#000000" points="607.88,-76.88 599.03,-82.71 609.58,-83.67 607.88,-76.88"/>
</g>
<!-- utf8 -->
<g id="node19" class="node">
<title>utf8</title>
<g id="a_node19"><a xlink:href="/type/utf8" xlink:title="utf8">
<ellipse fill="none" stroke="#000000" cx="421" cy="-18" rx="27" ry="18"/>
<text text-anchor="middle" x="421" y="-14.3" font-family="FreeSans" font-size="14.00" fill="#000000">utf8</text>
</a>
</g>
</g>
<!-- utf8&#45;&gt;Any -->
<g id="edge13" class="edge">
<title>utf8&#45;&gt;Any</title>
<path fill="none" stroke="#000000" d="M420.68,-36.23C419.91,-77.76 418,-180 418,-180 418,-180 394.84,-198.32 375.76,-213.42"/>
<polygon fill="#000000" stroke="#000000" points="373.58,-210.68 367.91,-219.63 377.92,-216.17 373.58,-210.68"/>
</g>
<!-- utf8&#45;&gt;Blob -->
<g id="edge25" class="edge">
<title>utf8&#45;&gt;Blob</title>
<path fill="none" stroke="#6666ff" d="M435.77,-33.17C446.09,-43.06 460.06,-56.45 471.73,-67.64"/>
<polygon fill="#6666ff" stroke="#6666ff" points="469.36,-70.22 479,-74.62 474.2,-65.17 469.36,-70.22"/>
</g>
<!-- Buf -->
<g id="node20" class="node">
<title>Buf</title>
<g id="a_node20"><a xlink:href="/type/Buf" xlink:title="Buf">
<ellipse fill="none" stroke="#6666ff" cx="493" cy="-18" rx="27" ry="18"/>
<text text-anchor="middle" x="493" y="-14.3" font-family="FreeSans" font-size="14.00" fill="#6666ff">Buf</text>
</a>
</g>
</g>
<!-- Buf&#45;&gt;Blob -->
<g id="edge26" class="edge">
<title>Buf&#45;&gt;Blob</title>
<path fill="none" stroke="#6666ff" d="M493.25,-36.3C493.36,-44.02 493.49,-53.29 493.61,-61.89"/>
<polygon fill="#6666ff" stroke="#6666ff" points="490.11,-61.95 493.76,-71.9 497.11,-61.85 490.11,-61.95"/>
</g>
</g>
</svg>
