<?xml version="1.0" encoding="UTF-8" standalone="no"?>
<!DOCTYPE svg PUBLIC "-//W3C//DTD SVG 1.1//EN"
 "http://www.w3.org/Graphics/SVG/1.1/DTD/svg11.dtd">
<!-- Generated by graphviz version 2.43.0 (0)
 -->
<!-- Title: perl6&#45;type&#45;graph Pages: 1 -->
<svg width="234pt" height="404pt"
 viewBox="0.00 0.00 234.39 404.00" xmlns="http://www.w3.org/2000/svg" xmlns:xlink="http://www.w3.org/1999/xlink">
<g id="graph0" class="graph" transform="scale(1 1) rotate(0) translate(4 400)">
<title>perl6&#45;type&#45;graph</title>
<polygon fill="white" stroke="transparent" points="-4,4 -4,-400 230.39,-400 230.39,4 -4,4"/>
<!-- X::Syntax::BlockGobbled -->
<g id="node1" class="node">
<title>X::Syntax::BlockGobbled</title>
<g id="a_node1"><a xlink:href="/type/X::Syntax::BlockGobbled" xlink:title="X::Syntax::BlockGobbled">
<ellipse fill="none" stroke="#000000" cx="108.54" cy="-18" rx="108.58" ry="18"/>
<text text-anchor="middle" x="108.54" y="-14.3" font-family="FreeSans" font-size="14.00" fill="#000000">X::Syntax::BlockGobbled</text>
</a>
</g>
</g>
<!-- Exception -->
<g id="node4" class="node">
<title>Exception</title>
<g id="a_node4"><a xlink:href="/type/Exception" xlink:title="Exception">
<ellipse fill="none" stroke="#000000" cx="108.54" cy="-234" rx="49.29" ry="18"/>
<text text-anchor="middle" x="108.54" y="-230.3" font-family="FreeSans" font-size="14.00" fill="#000000">Exception</text>
</a>
</g>
</g>
<!-- X::Syntax::BlockGobbled&#45;&gt;Exception -->
<g id="edge1" class="edge">
<title>X::Syntax::BlockGobbled&#45;&gt;Exception</title>
<path fill="none" stroke="#000000" d="M102.42,-36.06C96.87,-51.55 89.54,-72 89.54,-72 89.54,-72 89.54,-108 89.54,-108 89.54,-108 98.81,-169.01 104.4,-205.78"/>
<polygon fill="#000000" stroke="#000000" points="100.98,-206.52 105.94,-215.88 107.9,-205.47 100.98,-206.52"/>
</g>
<!-- X::Syntax -->
<g id="node6" class="node">
<title>X::Syntax</title>
<g id="a_node6"><a xlink:href="/type/X::Syntax" xlink:title="X::Syntax">
<ellipse fill="none" stroke="#6666ff" cx="146.54" cy="-90" rx="48.19" ry="18"/>
<text text-anchor="middle" x="146.54" y="-86.3" font-family="FreeSans" font-size="14.00" fill="#6666ff">X::Syntax</text>
</a>
</g>
</g>
<!-- X::Syntax::BlockGobbled&#45;&gt;X::Syntax -->
<g id="edge6" class="edge">
<title>X::Syntax::BlockGobbled&#45;&gt;X::Syntax</title>
<path fill="none" stroke="#6666ff" d="M117.74,-35.95C122.17,-44.11 127.59,-54.09 132.52,-63.18"/>
<polygon fill="#6666ff" stroke="#6666ff" points="129.58,-65.09 137.43,-72.21 135.73,-61.75 129.58,-65.09"/>
</g>
<!-- Mu -->
<g id="node2" class="node">
<title>Mu</title>
<g id="a_node2"><a xlink:href="/type/Mu" xlink:title="Mu">
<ellipse fill="none" stroke="#000000" cx="108.54" cy="-378" rx="27" ry="18"/>
<text text-anchor="middle" x="108.54" y="-374.3" font-family="FreeSans" font-size="14.00" fill="#000000">Mu</text>
</a>
</g>
</g>
<!-- Any -->
<g id="node3" class="node">
<title>Any</title>
<g id="a_node3"><a xlink:href="/type/Any" xlink:title="Any">
<ellipse fill="none" stroke="#000000" cx="108.54" cy="-306" rx="27" ry="18"/>
<text text-anchor="middle" x="108.54" y="-302.3" font-family="FreeSans" font-size="14.00" fill="#000000">Any</text>
</a>
</g>
</g>
<!-- Any&#45;&gt;Mu -->
<g id="edge2" class="edge">
<title>Any&#45;&gt;Mu</title>
<path fill="none" stroke="#000000" d="M108.54,-324.3C108.54,-332.02 108.54,-341.29 108.54,-349.89"/>
<polygon fill="#000000" stroke="#000000" points="105.04,-349.9 108.54,-359.9 112.04,-349.9 105.04,-349.9"/>
</g>
<!-- Exception&#45;&gt;Any -->
<g id="edge3" class="edge">
<title>Exception&#45;&gt;Any</title>
<path fill="none" stroke="#000000" d="M108.54,-252.3C108.54,-260.02 108.54,-269.29 108.54,-277.89"/>
<polygon fill="#000000" stroke="#000000" points="105.04,-277.9 108.54,-287.9 112.04,-277.9 105.04,-277.9"/>
</g>
<!-- X::Comp -->
<g id="node5" class="node">
<title>X::Comp</title>
<g id="a_node5"><a xlink:href="/type/X::Comp" xlink:title="X::Comp">
<ellipse fill="none" stroke="#6666ff" cx="181.54" cy="-162" rx="44.69" ry="18"/>
<text text-anchor="middle" x="181.54" y="-158.3" font-family="FreeSans" font-size="14.00" fill="#6666ff">X::Comp</text>
</a>
</g>
</g>
<!-- X::Comp&#45;&gt;Exception -->
<g id="edge4" class="edge">
<title>X::Comp&#45;&gt;Exception</title>
<path fill="none" stroke="#000000" d="M164.98,-178.88C155.43,-188.04 143.26,-199.71 132.67,-209.87"/>
<polygon fill="#000000" stroke="#000000" points="130.09,-207.49 125.29,-216.94 134.93,-212.54 130.09,-207.49"/>
</g>
<!-- X::Syntax&#45;&gt;Exception -->
<g id="edge5" class="edge">
<title>X::Syntax&#45;&gt;Exception</title>
<path fill="none" stroke="#000000" d="M140.42,-108.06C134.87,-123.55 127.54,-144 127.54,-144 127.54,-144 119.89,-179.83 114.3,-206.03"/>
<polygon fill="#000000" stroke="#000000" points="110.87,-205.33 112.2,-215.84 117.71,-206.79 110.87,-205.33"/>
</g>
<!-- X::Syntax&#45;&gt;X::Comp -->
<g id="edge7" class="edge">
<title>X::Syntax&#45;&gt;X::Comp</title>
<path fill="none" stroke="#6666ff" d="M155.01,-107.95C159.1,-116.11 164.08,-126.09 168.63,-135.18"/>
<polygon fill="#6666ff" stroke="#6666ff" points="165.54,-136.83 173.15,-144.21 171.8,-133.7 165.54,-136.83"/>
</g>
</g>
</svg>
