<?xml version="1.0" encoding="UTF-8" standalone="no"?>
<!DOCTYPE svg PUBLIC "-//W3C//DTD SVG 1.1//EN"
 "http://www.w3.org/Graphics/SVG/1.1/DTD/svg11.dtd">
<!-- Generated by graphviz version 2.43.0 (0)
 -->
<!-- Title: perl6&#45;type&#45;graph Pages: 1 -->
<svg width="234pt" height="260pt"
 viewBox="0.00 0.00 233.74 260.00" xmlns="http://www.w3.org/2000/svg" xmlns:xlink="http://www.w3.org/1999/xlink">
<g id="graph0" class="graph" transform="scale(1 1) rotate(0) translate(4 256)">
<title>perl6&#45;type&#45;graph</title>
<polygon fill="#ffffff" stroke="transparent" points="-4,4 -4,-256 229.74,-256 229.74,4 -4,4"/>
<!-- X::Attribute::Required -->
<g id="node1" class="node">
<title>X::Attribute::Required</title>
<g id="a_node1"><a xlink:href="/type/X::Attribute::Required" xlink:title="X::Attribute::Required">
<ellipse fill="none" stroke="#000000" cx="94.89" cy="-18" rx="94.78" ry="18"/>
<text text-anchor="middle" x="94.89" y="-14.3" font-family="FreeSans" font-size="14.00" fill="#000000">X::Attribute::Required</text>
</a>
</g>
</g>
<!-- Any -->
<g id="node3" class="node">
<title>Any</title>
<g id="a_node3"><a xlink:href="/type/Any" xlink:title="Any">
<ellipse fill="none" stroke="#000000" cx="94.89" cy="-162" rx="27" ry="18"/>
<text text-anchor="middle" x="94.89" y="-158.3" font-family="FreeSans" font-size="14.00" fill="#000000">Any</text>
</a>
</g>
</g>
<!-- X::Attribute::Required&#45;&gt;Any -->
<g id="edge2" class="edge">
<title>X::Attribute::Required&#45;&gt;Any</title>
<path fill="none" stroke="#000000" d="M76.54,-35.77C59.55,-51.3 36.89,-72 36.89,-72 36.89,-72 36.89,-108 36.89,-108 36.89,-108 55.78,-125.26 72,-140.08"/>
<polygon fill="#000000" stroke="#000000" points="69.91,-142.91 79.65,-147.07 74.63,-137.75 69.91,-142.91"/>
</g>
<!-- Exception -->
<g id="node4" class="node">
<title>Exception</title>
<g id="a_node4"><a xlink:href="/type/Exception" xlink:title="Exception">
<ellipse fill="none" stroke="#000000" cx="94.89" cy="-90" rx="49.29" ry="18"/>
<text text-anchor="middle" x="94.89" y="-86.3" font-family="FreeSans" font-size="14.00" fill="#000000">Exception</text>
</a>
</g>
</g>
<!-- X::Attribute::Required&#45;&gt;Exception -->
<g id="edge1" class="edge">
<title>X::Attribute::Required&#45;&gt;Exception</title>
<path fill="none" stroke="#000000" d="M94.89,-36.3C94.89,-44.02 94.89,-53.29 94.89,-61.89"/>
<polygon fill="#000000" stroke="#000000" points="91.39,-61.9 94.89,-71.9 98.39,-61.9 91.39,-61.9"/>
</g>
<!-- MOP -->
<g id="node5" class="node">
<title>MOP</title>
<g id="a_node5"><a xlink:href="/type/MOP" xlink:title="MOP">
<ellipse fill="none" stroke="#000000" cx="193.89" cy="-90" rx="31.7" ry="18"/>
<text text-anchor="middle" x="193.89" y="-86.3" font-family="FreeSans" font-size="14.00" fill="#000000">MOP</text>
</a>
</g>
</g>
<!-- X::Attribute::Required&#45;&gt;MOP -->
<g id="edge6" class="edge">
<title>X::Attribute::Required&#45;&gt;MOP</title>
<path fill="none" stroke="#6666ff" d="M118.35,-35.59C132.69,-45.73 151.11,-58.75 166.17,-69.4"/>
<polygon fill="#6666ff" stroke="#6666ff" points="164.4,-72.43 174.59,-75.35 168.44,-66.72 164.4,-72.43"/>
</g>
<!-- Mu -->
<g id="node2" class="node">
<title>Mu</title>
<g id="a_node2"><a xlink:href="/type/Mu" xlink:title="Mu">
<ellipse fill="none" stroke="#000000" cx="94.89" cy="-234" rx="27" ry="18"/>
<text text-anchor="middle" x="94.89" y="-230.3" font-family="FreeSans" font-size="14.00" fill="#000000">Mu</text>
</a>
</g>
</g>
<!-- Any&#45;&gt;Mu -->
<g id="edge3" class="edge">
<title>Any&#45;&gt;Mu</title>
<path fill="none" stroke="#000000" d="M94.89,-180.3C94.89,-188.02 94.89,-197.29 94.89,-205.89"/>
<polygon fill="#000000" stroke="#000000" points="91.39,-205.9 94.89,-215.9 98.39,-205.9 91.39,-205.9"/>
</g>
<!-- Exception&#45;&gt;Any -->
<g id="edge4" class="edge">
<title>Exception&#45;&gt;Any</title>
<path fill="none" stroke="#000000" d="M94.89,-108.3C94.89,-116.02 94.89,-125.29 94.89,-133.89"/>
<polygon fill="#000000" stroke="#000000" points="91.39,-133.9 94.89,-143.9 98.39,-133.9 91.39,-133.9"/>
</g>
<!-- MOP&#45;&gt;Any -->
<g id="edge5" class="edge">
<title>MOP&#45;&gt;Any</title>
<path fill="none" stroke="#000000" d="M174.8,-104.5C159.59,-115.26 138.11,-130.44 121.26,-142.36"/>
<polygon fill="#000000" stroke="#000000" points="119.06,-139.62 112.92,-148.25 123.11,-145.34 119.06,-139.62"/>
</g>
</g>
</svg>
