<?xml version="1.0" encoding="UTF-8" standalone="no"?>
<!DOCTYPE svg PUBLIC "-//W3C//DTD SVG 1.1//EN"
 "http://www.w3.org/Graphics/SVG/1.1/DTD/svg11.dtd">
<!-- Generated by graphviz version 2.43.0 (0)
 -->
<!-- Title: perl6&#45;type&#45;graph Pages: 1 -->
<svg width="1185pt" height="332pt"
 viewBox="0.00 0.00 1184.59 332.00" xmlns="http://www.w3.org/2000/svg" xmlns:xlink="http://www.w3.org/1999/xlink">
<g id="graph0" class="graph" transform="scale(1 1) rotate(0) translate(4 328)">
<title>perl6&#45;type&#45;graph</title>
<polygon fill="#ffffff" stroke="transparent" points="-4,4 -4,-328 1180.59,-328 1180.59,4 -4,4"/>
<!-- X::Control -->
<g id="node1" class="node">
<title>X::Control</title>
<g id="a_node1"><a xlink:href="/type/X::Control" xlink:title="X::Control">
<ellipse fill="none" stroke="#6666ff" cx="524.85" cy="-90" rx="50.09" ry="18"/>
<text text-anchor="middle" x="524.85" y="-86.3" font-family="FreeSans" font-size="14.00" fill="#6666ff">X::Control</text>
</a>
</g>
</g>
<!-- Exception -->
<g id="node4" class="node">
<title>Exception</title>
<g id="a_node4"><a xlink:href="/type/Exception" xlink:title="Exception">
<ellipse fill="none" stroke="#000000" cx="485.85" cy="-162" rx="49.29" ry="18"/>
<text text-anchor="middle" x="485.85" y="-158.3" font-family="FreeSans" font-size="14.00" fill="#000000">Exception</text>
</a>
</g>
</g>
<!-- X::Control&#45;&gt;Exception -->
<g id="edge1" class="edge">
<title>X::Control&#45;&gt;Exception</title>
<path fill="none" stroke="#000000" d="M515.41,-107.95C510.81,-116.2 505.18,-126.3 500.07,-135.46"/>
<polygon fill="#000000" stroke="#000000" points="497.01,-133.77 495.2,-144.21 503.12,-137.18 497.01,-133.77"/>
</g>
<!-- Mu -->
<g id="node2" class="node">
<title>Mu</title>
<g id="a_node2"><a xlink:href="/type/Mu" xlink:title="Mu">
<ellipse fill="none" stroke="#000000" cx="485.85" cy="-306" rx="27" ry="18"/>
<text text-anchor="middle" x="485.85" y="-302.3" font-family="FreeSans" font-size="14.00" fill="#000000">Mu</text>
</a>
</g>
</g>
<!-- Any -->
<g id="node3" class="node">
<title>Any</title>
<g id="a_node3"><a xlink:href="/type/Any" xlink:title="Any">
<ellipse fill="none" stroke="#000000" cx="485.85" cy="-234" rx="27" ry="18"/>
<text text-anchor="middle" x="485.85" y="-230.3" font-family="FreeSans" font-size="14.00" fill="#000000">Any</text>
</a>
</g>
</g>
<!-- Any&#45;&gt;Mu -->
<g id="edge2" class="edge">
<title>Any&#45;&gt;Mu</title>
<path fill="none" stroke="#000000" d="M485.85,-252.3C485.85,-260.02 485.85,-269.29 485.85,-277.89"/>
<polygon fill="#000000" stroke="#000000" points="482.35,-277.9 485.85,-287.9 489.35,-277.9 482.35,-277.9"/>
</g>
<!-- Exception&#45;&gt;Any -->
<g id="edge3" class="edge">
<title>Exception&#45;&gt;Any</title>
<path fill="none" stroke="#000000" d="M485.85,-180.3C485.85,-188.02 485.85,-197.29 485.85,-205.89"/>
<polygon fill="#000000" stroke="#000000" points="482.35,-205.9 485.85,-215.9 489.35,-205.9 482.35,-205.9"/>
</g>
<!-- CX::Last -->
<g id="node5" class="node">
<title>CX::Last</title>
<g id="a_node5"><a xlink:href="/type/CX::Last" xlink:title="CX::Last">
<ellipse fill="none" stroke="#000000" cx="44.85" cy="-18" rx="44.69" ry="18"/>
<text text-anchor="middle" x="44.85" y="-14.3" font-family="FreeSans" font-size="14.00" fill="#000000">CX::Last</text>
</a>
</g>
</g>
<!-- CX::Last&#45;&gt;X::Control -->
<g id="edge15" class="edge">
<title>CX::Last&#45;&gt;X::Control</title>
<path fill="none" stroke="#6666ff" d="M79.05,-29.77C89.76,-33.14 98.85,-36 98.85,-36 98.85,-36 352.49,-67.56 468.34,-81.97"/>
<polygon fill="#6666ff" stroke="#6666ff" points="468.09,-85.47 478.45,-83.23 468.95,-78.52 468.09,-85.47"/>
</g>
<!-- CX::Last&#45;&gt;Exception -->
<g id="edge4" class="edge">
<title>CX::Last&#45;&gt;Exception</title>
<path fill="none" stroke="#000000" d="M75.93,-31.19C138.1,-55.56 271.85,-108 271.85,-108 271.85,-108 373.09,-133.07 436.3,-148.73"/>
<polygon fill="#000000" stroke="#000000" points="435.55,-152.15 446.1,-151.16 437.23,-145.35 435.55,-152.15"/>
</g>
<!-- CX::Take -->
<g id="node6" class="node">
<title>CX::Take</title>
<g id="a_node6"><a xlink:href="/type/CX::Take" xlink:title="CX::Take">
<ellipse fill="none" stroke="#000000" cx="155.85" cy="-18" rx="48.19" ry="18"/>
<text text-anchor="middle" x="155.85" y="-14.3" font-family="FreeSans" font-size="14.00" fill="#000000">CX::Take</text>
</a>
</g>
</g>
<!-- CX::Take&#45;&gt;X::Control -->
<g id="edge16" class="edge">
<title>CX::Take&#45;&gt;X::Control</title>
<path fill="none" stroke="#6666ff" d="M192.27,-29.86C203.44,-33.19 212.85,-36 212.85,-36 212.85,-36 381.12,-64.58 470.51,-79.77"/>
<polygon fill="#6666ff" stroke="#6666ff" points="470.03,-83.24 480.48,-81.46 471.2,-76.34 470.03,-83.24"/>
</g>
<!-- CX::Take&#45;&gt;Exception -->
<g id="edge5" class="edge">
<title>CX::Take&#45;&gt;Exception</title>
<path fill="none" stroke="#000000" d="M185.16,-32.52C239.15,-57.41 348.85,-108 348.85,-108 348.85,-108 403.4,-129.11 443.66,-144.68"/>
<polygon fill="#000000" stroke="#000000" points="442.44,-147.96 453.03,-148.31 444.97,-141.43 442.44,-147.96"/>
</g>
<!-- CX::Redo -->
<g id="node7" class="node">
<title>CX::Redo</title>
<g id="a_node7"><a xlink:href="/type/CX::Redo" xlink:title="CX::Redo">
<ellipse fill="none" stroke="#000000" cx="270.85" cy="-18" rx="48.99" ry="18"/>
<text text-anchor="middle" x="270.85" y="-14.3" font-family="FreeSans" font-size="14.00" fill="#000000">CX::Redo</text>
</a>
</g>
</g>
<!-- CX::Redo&#45;&gt;X::Control -->
<g id="edge17" class="edge">
<title>CX::Redo&#45;&gt;X::Control</title>
<path fill="none" stroke="#6666ff" d="M304.07,-31.26C312.84,-33.95 319.85,-36 319.85,-36 319.85,-36 413.19,-61.24 474,-76.88"/>
<polygon fill="#6666ff" stroke="#6666ff" points="473.28,-80.31 483.83,-79.4 475.01,-73.53 473.28,-80.31"/>
</g>
<!-- CX::Redo&#45;&gt;X::Control -->
<g id="edge18" class="edge">
<title>CX::Redo&#45;&gt;X::Control</title>
<path fill="none" stroke="#6666ff" d="M311,-28.4C325.31,-32.33 337.85,-36 337.85,-36 337.85,-36 423.12,-59.06 478.6,-74.76"/>
<polygon fill="#6666ff" stroke="#6666ff" points="477.66,-78.13 488.24,-77.5 479.58,-71.4 477.66,-78.13"/>
</g>
<!-- CX::Redo&#45;&gt;Exception -->
<g id="edge6" class="edge">
<title>CX::Redo&#45;&gt;Exception</title>
<path fill="none" stroke="#000000" d="M290.24,-34.74C326.76,-60.8 405.45,-112.87 451.21,-141.32"/>
<polygon fill="#000000" stroke="#000000" points="449.55,-144.41 459.9,-146.68 453.23,-138.45 449.55,-144.41"/>
</g>
<!-- CX::Redo&#45;&gt;Exception -->
<g id="edge7" class="edge">
<title>CX::Redo&#45;&gt;Exception</title>
<path fill="none" stroke="#000000" d="M296.92,-33.4C337.82,-58.41 416.22,-110.02 458.11,-139.37"/>
<polygon fill="#000000" stroke="#000000" points="456.28,-142.36 466.46,-145.27 460.32,-136.64 456.28,-142.36"/>
</g>
<!-- CX::Return -->
<g id="node8" class="node">
<title>CX::Return</title>
<g id="a_node8"><a xlink:href="/type/CX::Return" xlink:title="CX::Return">
<ellipse fill="none" stroke="#000000" cx="391.85" cy="-18" rx="53.89" ry="18"/>
<text text-anchor="middle" x="391.85" y="-14.3" font-family="FreeSans" font-size="14.00" fill="#000000">CX::Return</text>
</a>
</g>
</g>
<!-- CX::Return&#45;&gt;X::Control -->
<g id="edge19" class="edge">
<title>CX::Return&#45;&gt;X::Control</title>
<path fill="none" stroke="#6666ff" d="M419.4,-33.5C439.51,-44.09 466.95,-58.53 488.8,-70.03"/>
<polygon fill="#6666ff" stroke="#6666ff" points="487.3,-73.19 497.78,-74.75 490.56,-67 487.3,-73.19"/>
</g>
<!-- CX::Return&#45;&gt;Exception -->
<g id="edge8" class="edge">
<title>CX::Return&#45;&gt;Exception</title>
<path fill="none" stroke="#000000" d="M403,-35.85C419.32,-60.51 449.85,-106.63 468.94,-135.47"/>
<polygon fill="#000000" stroke="#000000" points="466.27,-137.77 474.71,-144.18 472.11,-133.9 466.27,-137.77"/>
</g>
<!-- CX::Warn -->
<g id="node9" class="node">
<title>CX::Warn</title>
<g id="a_node9"><a xlink:href="/type/CX::Warn" xlink:title="CX::Warn">
<ellipse fill="none" stroke="#000000" cx="512.85" cy="-18" rx="48.99" ry="18"/>
<text text-anchor="middle" x="512.85" y="-14.3" font-family="FreeSans" font-size="14.00" fill="#000000">CX::Warn</text>
</a>
</g>
</g>
<!-- CX::Warn&#45;&gt;X::Control -->
<g id="edge20" class="edge">
<title>CX::Warn&#45;&gt;X::Control</title>
<path fill="none" stroke="#6666ff" d="M515.81,-36.3C517.13,-44.02 518.72,-53.29 520.2,-61.89"/>
<polygon fill="#6666ff" stroke="#6666ff" points="516.77,-62.63 521.91,-71.9 523.67,-61.45 516.77,-62.63"/>
</g>
<!-- CX::Warn&#45;&gt;Exception -->
<g id="edge9" class="edge">
<title>CX::Warn&#45;&gt;Exception</title>
<path fill="none" stroke="#000000" d="M498.23,-35.48C484.44,-51.04 465.85,-72 465.85,-72 465.85,-72 465.85,-108 465.85,-108 465.85,-108 470.84,-121.24 475.84,-134.48"/>
<polygon fill="#000000" stroke="#000000" points="472.6,-135.82 479.41,-143.94 479.15,-133.35 472.6,-135.82"/>
</g>
<!-- CX::Succeed -->
<g id="node10" class="node">
<title>CX::Succeed</title>
<g id="a_node10"><a xlink:href="/type/CX::Succeed" xlink:title="CX::Succeed">
<ellipse fill="none" stroke="#000000" cx="640.85" cy="-18" rx="61.99" ry="18"/>
<text text-anchor="middle" x="640.85" y="-14.3" font-family="FreeSans" font-size="14.00" fill="#000000">CX::Succeed</text>
</a>
</g>
</g>
<!-- CX::Succeed&#45;&gt;X::Control -->
<g id="edge21" class="edge">
<title>CX::Succeed&#45;&gt;X::Control</title>
<path fill="none" stroke="#6666ff" d="M615.1,-34.54C598.39,-44.62 576.44,-57.86 558.37,-68.77"/>
<polygon fill="#6666ff" stroke="#6666ff" points="556.08,-66.06 549.33,-74.23 559.7,-72.06 556.08,-66.06"/>
</g>
<!-- CX::Succeed&#45;&gt;Exception -->
<g id="edge10" class="edge">
<title>CX::Succeed&#45;&gt;Exception</title>
<path fill="none" stroke="#000000" d="M630.12,-35.74C613.61,-61.52 583.85,-108 583.85,-108 583.85,-108 549.28,-126.7 521.2,-141.88"/>
<polygon fill="#000000" stroke="#000000" points="519.5,-138.82 512.37,-146.66 522.83,-144.98 519.5,-138.82"/>
</g>
<!-- CX::Next -->
<g id="node11" class="node">
<title>CX::Next</title>
<g id="a_node11"><a xlink:href="/type/CX::Next" xlink:title="CX::Next">
<ellipse fill="none" stroke="#000000" cx="766.85" cy="-18" rx="46.29" ry="18"/>
<text text-anchor="middle" x="766.85" y="-14.3" font-family="FreeSans" font-size="14.00" fill="#000000">CX::Next</text>
</a>
</g>
</g>
<!-- CX::Next&#45;&gt;X::Control -->
<g id="edge22" class="edge">
<title>CX::Next&#45;&gt;X::Control</title>
<path fill="none" stroke="#6666ff" d="M731.7,-29.86C720.92,-33.19 711.85,-36 711.85,-36 711.85,-36 628.2,-59.71 572.79,-75.41"/>
<polygon fill="#6666ff" stroke="#6666ff" points="571.81,-72.05 563.14,-78.15 573.71,-78.79 571.81,-72.05"/>
</g>
<!-- CX::Next&#45;&gt;Exception -->
<g id="edge11" class="edge">
<title>CX::Next&#45;&gt;Exception</title>
<path fill="none" stroke="#000000" d="M741.46,-33.3C696.8,-58.46 608.85,-108 608.85,-108 608.85,-108 561.79,-128.28 525.88,-143.75"/>
<polygon fill="#000000" stroke="#000000" points="524.37,-140.59 516.57,-147.76 527.14,-147.02 524.37,-140.59"/>
</g>
<!-- CX::Proceed -->
<g id="node12" class="node">
<title>CX::Proceed</title>
<g id="a_node12"><a xlink:href="/type/CX::Proceed" xlink:title="CX::Proceed">
<ellipse fill="none" stroke="#000000" cx="891.85" cy="-18" rx="60.39" ry="18"/>
<text text-anchor="middle" x="891.85" y="-14.3" font-family="FreeSans" font-size="14.00" fill="#000000">CX::Proceed</text>
</a>
</g>
</g>
<!-- CX::Proceed&#45;&gt;X::Control -->
<g id="edge23" class="edge">
<title>CX::Proceed&#45;&gt;X::Control</title>
<path fill="none" stroke="#6666ff" d="M846.33,-30.05C832.96,-33.3 821.85,-36 821.85,-36 821.85,-36 664.35,-64.11 578.74,-79.38"/>
<polygon fill="#6666ff" stroke="#6666ff" points="577.9,-75.98 568.67,-81.18 579.13,-82.87 577.9,-75.98"/>
</g>
<!-- CX::Proceed&#45;&gt;Exception -->
<g id="edge12" class="edge">
<title>CX::Proceed&#45;&gt;Exception</title>
<path fill="none" stroke="#000000" d="M855.7,-32.52C789.12,-57.41 653.85,-108 653.85,-108 653.85,-108 581.25,-130.9 531.5,-146.6"/>
<polygon fill="#000000" stroke="#000000" points="530.37,-143.28 521.89,-149.63 532.48,-149.96 530.37,-143.28"/>
</g>
<!-- CX::Emit -->
<g id="node13" class="node">
<title>CX::Emit</title>
<g id="a_node13"><a xlink:href="/type/CX::Emit" xlink:title="CX::Emit">
<ellipse fill="none" stroke="#000000" cx="1015.85" cy="-18" rx="45.49" ry="18"/>
<text text-anchor="middle" x="1015.85" y="-14.3" font-family="FreeSans" font-size="14.00" fill="#000000">CX::Emit</text>
</a>
</g>
</g>
<!-- CX::Emit&#45;&gt;X::Control -->
<g id="edge24" class="edge">
<title>CX::Emit&#45;&gt;X::Control</title>
<path fill="none" stroke="#6666ff" d="M981.01,-29.77C970.1,-33.14 960.85,-36 960.85,-36 960.85,-36 699.44,-67.78 581.45,-82.12"/>
<polygon fill="#6666ff" stroke="#6666ff" points="581.01,-78.65 571.51,-83.33 581.85,-85.6 581.01,-78.65"/>
</g>
<!-- CX::Emit&#45;&gt;Exception -->
<g id="edge13" class="edge">
<title>CX::Emit&#45;&gt;Exception</title>
<path fill="none" stroke="#000000" d="M981.01,-29.77C970.1,-33.14 960.85,-36 960.85,-36 960.85,-36 713.85,-108 713.85,-108 713.85,-108 603.48,-133.65 536.33,-149.27"/>
<polygon fill="#000000" stroke="#000000" points="535.29,-145.91 526.35,-151.59 536.88,-152.73 535.29,-145.91"/>
</g>
<!-- CX::Done -->
<g id="node14" class="node">
<title>CX::Done</title>
<g id="a_node14"><a xlink:href="/type/CX::Done" xlink:title="CX::Done">
<ellipse fill="none" stroke="#000000" cx="1127.85" cy="-18" rx="48.99" ry="18"/>
<text text-anchor="middle" x="1127.85" y="-14.3" font-family="FreeSans" font-size="14.00" fill="#000000">CX::Done</text>
</a>
</g>
</g>
<!-- CX::Done&#45;&gt;X::Control -->
<g id="edge25" class="edge">
<title>CX::Done&#45;&gt;X::Control</title>
<path fill="none" stroke="#6666ff" d="M1090.79,-29.86C1079.42,-33.19 1069.85,-36 1069.85,-36 1069.85,-36 723.29,-69.7 582.88,-83.36"/>
<polygon fill="#6666ff" stroke="#6666ff" points="582.35,-79.89 572.73,-84.34 583.03,-86.86 582.35,-79.89"/>
</g>
<!-- CX::Done&#45;&gt;Exception -->
<g id="edge14" class="edge">
<title>CX::Done&#45;&gt;Exception</title>
<path fill="none" stroke="#000000" d="M1090.79,-29.86C1079.42,-33.19 1069.85,-36 1069.85,-36 1069.85,-36 789.85,-108 789.85,-108 789.85,-108 626.64,-136.45 539.39,-151.66"/>
<polygon fill="#000000" stroke="#000000" points="538.65,-148.24 529.4,-153.41 539.85,-155.14 538.65,-148.24"/>
</g>
</g>
</svg>
