<?xml version="1.0" encoding="UTF-8" standalone="no"?>
<!DOCTYPE svg PUBLIC "-//W3C//DTD SVG 1.1//EN"
 "http://www.w3.org/Graphics/SVG/1.1/DTD/svg11.dtd">
<!-- Generated by graphviz version 2.43.0 (0)
 -->
<!-- Title: perl6&#45;type&#45;graph Pages: 1 -->
<svg width="1912pt" height="1535pt"
 viewBox="0.00 0.00 1911.60 1535.16" xmlns="http://www.w3.org/2000/svg" xmlns:xlink="http://www.w3.org/1999/xlink">
<g id="graph0" class="graph" transform="scale(1 1) rotate(0) translate(4 1531.16)">
<title>perl6&#45;type&#45;graph</title>
<polygon fill="#ffffff" stroke="transparent" points="-4,4 -4,-1531.16 1907.6,-1531.16 1907.6,4 -4,4"/>
<!-- Metamodel::RoleContainer -->
<g id="node1" class="node">
<title>Metamodel::RoleContainer</title>
<g id="a_node1"><a xlink:href="/type/Metamodel::RoleContainer" xlink:title="Metamodel::RoleContainer">
<ellipse fill="none" stroke="#6666ff" cx="857.05" cy="-662.15" rx="115.88" ry="18"/>
<text text-anchor="middle" x="857.05" y="-658.45" font-family="FreeSans" font-size="14.00" fill="#6666ff">Metamodel::RoleContainer</text>
</a>
</g>
</g>
<!-- Mu -->
<g id="node2" class="node">
<title>Mu</title>
<g id="a_node2"><a xlink:href="/type/Mu" xlink:title="Mu">
<ellipse fill="none" stroke="#000000" cx="541.74" cy="-107.8" rx="27" ry="18"/>
<text text-anchor="middle" x="541.74" y="-104.1" font-family="FreeSans" font-size="14.00" fill="#000000">Mu</text>
</a>
</g>
</g>
<!-- Any -->
<g id="node3" class="node">
<title>Any</title>
<g id="a_node3"><a xlink:href="/type/Any" xlink:title="Any">
<ellipse fill="none" stroke="#000000" cx="805.76" cy="-528.57" rx="27" ry="18"/>
<text text-anchor="middle" x="805.76" y="-524.87" font-family="FreeSans" font-size="14.00" fill="#000000">Any</text>
</a>
</g>
</g>
<!-- Any&#45;&gt;Mu -->
<g id="edge1" class="edge">
<title>Any&#45;&gt;Mu</title>
<path fill="none" stroke="#000000" d="M795.25,-511.81C754.52,-446.89 606.91,-211.65 557.78,-133.35"/>
<polygon fill="#000000" stroke="#000000" points="560.57,-131.21 552.29,-124.6 554.64,-134.93 560.57,-131.21"/>
</g>
<!-- Metamodel::Naming -->
<g id="node4" class="node">
<title>Metamodel::Naming</title>
<g id="a_node4"><a xlink:href="/type/Metamodel::Naming" xlink:title="Metamodel::Naming">
<ellipse fill="none" stroke="#6666ff" cx="1000.53" cy="-1174.97" rx="90.18" ry="18"/>
<text text-anchor="middle" x="1000.53" y="-1171.27" font-family="FreeSans" font-size="14.00" fill="#6666ff">Metamodel::Naming</text>
</a>
</g>
</g>
<!-- Metamodel::Stashing -->
<g id="node5" class="node">
<title>Metamodel::Stashing</title>
<g id="a_node5"><a xlink:href="/type/Metamodel::Stashing" xlink:title="Metamodel::Stashing">
<ellipse fill="none" stroke="#6666ff" cx="1203.4" cy="-1180.23" rx="93.68" ry="18"/>
<text text-anchor="middle" x="1203.4" y="-1176.53" font-family="FreeSans" font-size="14.00" fill="#6666ff">Metamodel::Stashing</text>
</a>
</g>
</g>
<!-- Metamodel::AttributeContainer -->
<g id="node6" class="node">
<title>Metamodel::AttributeContainer</title>
<g id="a_node6"><a xlink:href="/type/Metamodel::AttributeContainer" xlink:title="Metamodel::AttributeContainer">
<ellipse fill="none" stroke="#6666ff" cx="955.07" cy="-904.07" rx="129.98" ry="18"/>
<text text-anchor="middle" x="955.07" y="-900.37" font-family="FreeSans" font-size="14.00" fill="#6666ff">Metamodel::AttributeContainer</text>
</a>
</g>
</g>
<!-- Metamodel::MethodContainer -->
<g id="node7" class="node">
<title>Metamodel::MethodContainer</title>
<g id="a_node7"><a xlink:href="/type/Metamodel::MethodContainer" xlink:title="Metamodel::MethodContainer">
<ellipse fill="none" stroke="#6666ff" cx="956.36" cy="-751.5" rx="127.28" ry="18"/>
<text text-anchor="middle" x="956.36" y="-747.8" font-family="FreeSans" font-size="14.00" fill="#6666ff">Metamodel::MethodContainer</text>
</a>
</g>
</g>
<!-- Metamodel::MultiMethodContainer -->
<g id="node8" class="node">
<title>Metamodel::MultiMethodContainer</title>
<g id="a_node8"><a xlink:href="/type/Metamodel::MultiMethodContainer" xlink:title="Metamodel::MultiMethodContainer">
<ellipse fill="none" stroke="#6666ff" cx="978.32" cy="-1049.09" rx="146.47" ry="18"/>
<text text-anchor="middle" x="978.32" y="-1045.39" font-family="FreeSans" font-size="14.00" fill="#6666ff">Metamodel::MultiMethodContainer</text>
</a>
</g>
</g>
<!-- Metamodel::BaseType -->
<g id="node9" class="node">
<title>Metamodel::BaseType</title>
<g id="a_node9"><a xlink:href="/type/Metamodel::BaseType" xlink:title="Metamodel::BaseType">
<ellipse fill="none" stroke="#6666ff" cx="1293.05" cy="-18" rx="99.38" ry="18"/>
<text text-anchor="middle" x="1293.05" y="-14.3" font-family="FreeSans" font-size="14.00" fill="#6666ff">Metamodel::BaseType</text>
</a>
</g>
</g>
<!-- Metamodel::MROBasedMethodDispatch -->
<g id="node10" class="node">
<title>Metamodel::MROBasedMethodDispatch</title>
<g id="a_node10"><a xlink:href="/type/Metamodel::MROBasedMethodDispatch" xlink:title="Metamodel::MROBasedMethodDispatch">
<ellipse fill="none" stroke="#6666ff" cx="1690.65" cy="-606.96" rx="169.77" ry="18"/>
<text text-anchor="middle" x="1690.65" y="-603.26" font-family="FreeSans" font-size="14.00" fill="#6666ff">Metamodel::MROBasedMethodDispatch</text>
</a>
</g>
</g>
<!-- Metamodel::MROBasedTypeChecking -->
<g id="node11" class="node">
<title>Metamodel::MROBasedTypeChecking</title>
<g id="a_node11"><a xlink:href="/type/Metamodel::MROBasedTypeChecking" xlink:title="Metamodel::MROBasedTypeChecking">
<ellipse fill="none" stroke="#6666ff" cx="1450.45" cy="-382.68" rx="163.27" ry="18"/>
<text text-anchor="middle" x="1450.45" y="-378.98" font-family="FreeSans" font-size="14.00" fill="#6666ff">Metamodel::MROBasedTypeChecking</text>
</a>
</g>
</g>
<!-- Metamodel::BUILDPLAN -->
<g id="node12" class="node">
<title>Metamodel::BUILDPLAN</title>
<g id="a_node12"><a xlink:href="/type/Metamodel::BUILDPLAN" xlink:title="Metamodel::BUILDPLAN">
<ellipse fill="none" stroke="#6666ff" cx="1596.11" cy="-483.08" rx="109.68" ry="18"/>
<text text-anchor="middle" x="1596.11" y="-479.38" font-family="FreeSans" font-size="14.00" fill="#6666ff">Metamodel::BUILDPLAN</text>
</a>
</g>
</g>
<!-- Metamodel::BoolificationProtocol -->
<g id="node13" class="node">
<title>Metamodel::BoolificationProtocol</title>
<g id="a_node13"><a xlink:href="/type/Metamodel::BoolificationProtocol" xlink:title="Metamodel::BoolificationProtocol">
<ellipse fill="none" stroke="#6666ff" cx="1723.67" cy="-752.83" rx="139.18" ry="18"/>
<text text-anchor="middle" x="1723.67" y="-749.13" font-family="FreeSans" font-size="14.00" fill="#6666ff">Metamodel::BoolificationProtocol</text>
</a>
</g>
</g>
<!-- Metamodel::Mixins -->
<g id="node14" class="node">
<title>Metamodel::Mixins</title>
<g id="a_node14"><a xlink:href="/type/Metamodel::Mixins" xlink:title="Metamodel::Mixins">
<ellipse fill="none" stroke="#6666ff" cx="1657.13" cy="-903.45" rx="85.29" ry="18"/>
<text text-anchor="middle" x="1657.13" y="-899.75" font-family="FreeSans" font-size="14.00" fill="#6666ff">Metamodel::Mixins</text>
</a>
</g>
</g>
<!-- Metamodel::EnumHOW -->
<g id="node15" class="node">
<title>Metamodel::EnumHOW</title>
<g id="a_node15"><a xlink:href="/type/Metamodel::EnumHOW" xlink:title="Metamodel::EnumHOW">
<ellipse fill="none" stroke="#000000" cx="1264.41" cy="-620.7" rx="104.78" ry="18"/>
<text text-anchor="middle" x="1264.41" y="-617" font-family="FreeSans" font-size="14.00" fill="#000000">Metamodel::EnumHOW</text>
</a>
</g>
</g>
<!-- Metamodel::EnumHOW&#45;&gt;Metamodel::RoleContainer -->
<g id="edge11" class="edge">
<title>Metamodel::EnumHOW&#45;&gt;Metamodel::RoleContainer</title>
<path fill="none" stroke="#6666ff" d="M1174.26,-629.87C1112.31,-636.18 1029.77,-644.58 964.41,-651.23"/>
<polygon fill="#6666ff" stroke="#6666ff" points="963.67,-647.79 954.08,-652.28 964.38,-654.75 963.67,-647.79"/>
</g>
<!-- Metamodel::EnumHOW&#45;&gt;Any -->
<g id="edge2" class="edge">
<title>Metamodel::EnumHOW&#45;&gt;Any</title>
<path fill="none" stroke="#000000" d="M1196.24,-607C1097.57,-587.18 918.42,-551.2 841.94,-535.84"/>
<polygon fill="#000000" stroke="#000000" points="842.34,-532.35 831.85,-533.81 840.96,-539.21 842.34,-532.35"/>
</g>
<!-- Metamodel::EnumHOW&#45;&gt;Metamodel::Naming -->
<g id="edge6" class="edge">
<title>Metamodel::EnumHOW&#45;&gt;Metamodel::Naming</title>
<path fill="none" stroke="#6666ff" d="M1258.56,-638.83C1232.25,-720.39 1126.16,-1049.19 1126.16,-1049.19 1126.16,-1049.19 1062.3,-1113.12 1025.64,-1149.83"/>
<polygon fill="#6666ff" stroke="#6666ff" points="1022.85,-1147.66 1018.26,-1157.21 1027.8,-1152.61 1022.85,-1147.66"/>
</g>
<!-- Metamodel::EnumHOW&#45;&gt;Metamodel::Stashing -->
<g id="edge7" class="edge">
<title>Metamodel::EnumHOW&#45;&gt;Metamodel::Stashing</title>
<path fill="none" stroke="#6666ff" d="M1259.74,-638.88C1242.85,-704.6 1185.97,-925.96 1185.97,-925.96 1185.97,-925.96 1196.9,-1085.4 1201.45,-1151.77"/>
<polygon fill="#6666ff" stroke="#6666ff" points="1197.97,-1152.21 1202.14,-1161.95 1204.95,-1151.73 1197.97,-1152.21"/>
</g>
<!-- Metamodel::EnumHOW&#45;&gt;Metamodel::AttributeContainer -->
<g id="edge8" class="edge">
<title>Metamodel::EnumHOW&#45;&gt;Metamodel::AttributeContainer</title>
<path fill="none" stroke="#6666ff" d="M1245.06,-638.42C1191.91,-687.11 1043.58,-822.99 982.19,-879.22"/>
<polygon fill="#6666ff" stroke="#6666ff" points="979.82,-876.65 974.81,-885.99 984.55,-881.81 979.82,-876.65"/>
</g>
<!-- Metamodel::EnumHOW&#45;&gt;Metamodel::MethodContainer -->
<g id="edge9" class="edge">
<title>Metamodel::EnumHOW&#45;&gt;Metamodel::MethodContainer</title>
<path fill="none" stroke="#6666ff" d="M1225.09,-637.4C1169.35,-661.06 1067.39,-704.36 1006.35,-730.28"/>
<polygon fill="#6666ff" stroke="#6666ff" points="1004.76,-727.15 996.92,-734.28 1007.49,-733.59 1004.76,-727.15"/>
</g>
<!-- Metamodel::EnumHOW&#45;&gt;Metamodel::MultiMethodContainer -->
<g id="edge10" class="edge">
<title>Metamodel::EnumHOW&#45;&gt;Metamodel::MultiMethodContainer</title>
<path fill="none" stroke="#6666ff" d="M1253.02,-638.86C1213.79,-701.43 1086.65,-904.2 1086.65,-904.2 1086.65,-904.2 1029.07,-981.21 997.87,-1022.94"/>
<polygon fill="#6666ff" stroke="#6666ff" points="995.01,-1020.92 991.82,-1031.03 1000.61,-1025.12 995.01,-1020.92"/>
</g>
<!-- Metamodel::EnumHOW&#45;&gt;Metamodel::BaseType -->
<g id="edge12" class="edge">
<title>Metamodel::EnumHOW&#45;&gt;Metamodel::BaseType</title>
<path fill="none" stroke="#6666ff" d="M1265.27,-602.66C1269.34,-517.06 1286.7,-151.61 1291.7,-46.43"/>
<polygon fill="#6666ff" stroke="#6666ff" points="1295.2,-46.42 1292.18,-36.26 1288.21,-46.08 1295.2,-46.42"/>
</g>
<!-- Metamodel::EnumHOW&#45;&gt;Metamodel::MROBasedMethodDispatch -->
<g id="edge13" class="edge">
<title>Metamodel::EnumHOW&#45;&gt;Metamodel::MROBasedMethodDispatch</title>
<path fill="none" stroke="#6666ff" d="M1367.32,-617.38C1412.48,-615.93 1466.73,-614.18 1517.79,-612.53"/>
<polygon fill="#6666ff" stroke="#6666ff" points="1518.08,-616.03 1527.96,-612.2 1517.85,-609.03 1518.08,-616.03"/>
</g>
<!-- Metamodel::EnumHOW&#45;&gt;Metamodel::MROBasedTypeChecking -->
<g id="edge14" class="edge">
<title>Metamodel::EnumHOW&#45;&gt;Metamodel::MROBasedTypeChecking</title>
<path fill="none" stroke="#6666ff" d="M1278.4,-602.81C1310.92,-561.2 1391.77,-457.75 1429.92,-408.95"/>
<polygon fill="#6666ff" stroke="#6666ff" points="1432.9,-410.81 1436.3,-400.78 1427.39,-406.5 1432.9,-410.81"/>
</g>
<!-- Metamodel::EnumHOW&#45;&gt;Metamodel::BUILDPLAN -->
<g id="edge15" class="edge">
<title>Metamodel::EnumHOW&#45;&gt;Metamodel::BUILDPLAN</title>
<path fill="none" stroke="#6666ff" d="M1304.75,-603.96C1365.48,-578.77 1480.25,-531.15 1546.17,-503.8"/>
<polygon fill="#6666ff" stroke="#6666ff" points="1547.63,-506.98 1555.53,-499.92 1544.95,-500.52 1547.63,-506.98"/>
</g>
<!-- Metamodel::EnumHOW&#45;&gt;Metamodel::BoolificationProtocol -->
<g id="edge16" class="edge">
<title>Metamodel::EnumHOW&#45;&gt;Metamodel::BoolificationProtocol</title>
<path fill="none" stroke="#6666ff" d="M1318.45,-636.24C1402.75,-660.5 1565.38,-707.29 1656.9,-733.62"/>
<polygon fill="#6666ff" stroke="#6666ff" points="1656.03,-737.01 1666.61,-736.41 1657.97,-730.29 1656.03,-737.01"/>
</g>
<!-- Metamodel::EnumHOW&#45;&gt;Metamodel::Mixins -->
<g id="edge17" class="edge">
<title>Metamodel::EnumHOW&#45;&gt;Metamodel::Mixins</title>
<path fill="none" stroke="#6666ff" d="M1288.98,-638.38C1357.05,-687.4 1548.11,-824.96 1624.74,-880.13"/>
<polygon fill="#6666ff" stroke="#6666ff" points="1622.91,-883.13 1633.07,-886.13 1627,-877.45 1622.91,-883.13"/>
</g>
<!-- Metamodel::Documenting -->
<g id="node16" class="node">
<title>Metamodel::Documenting</title>
<g id="a_node16"><a xlink:href="/type/Metamodel::Documenting" xlink:title="Metamodel::Documenting">
<ellipse fill="none" stroke="#6666ff" cx="1042.33" cy="-487.35" rx="111.28" ry="18"/>
<text text-anchor="middle" x="1042.33" y="-483.65" font-family="FreeSans" font-size="14.00" fill="#6666ff">Metamodel::Documenting</text>
</a>
</g>
</g>
<!-- Metamodel::Versioning -->
<g id="node17" class="node">
<title>Metamodel::Versioning</title>
<g id="a_node17"><a xlink:href="/type/Metamodel::Versioning" xlink:title="Metamodel::Versioning">
<ellipse fill="none" stroke="#6666ff" cx="668.64" cy="-730.91" rx="100.98" ry="18"/>
<text text-anchor="middle" x="668.64" y="-727.21" font-family="FreeSans" font-size="14.00" fill="#6666ff">Metamodel::Versioning</text>
</a>
</g>
</g>
<!-- Metamodel::PrivateMethodContainer -->
<g id="node18" class="node">
<title>Metamodel::PrivateMethodContainer</title>
<g id="a_node18"><a xlink:href="/type/Metamodel::PrivateMethodContainer" xlink:title="Metamodel::PrivateMethodContainer">
<ellipse fill="none" stroke="#6666ff" cx="940.46" cy="-1410.36" rx="154.87" ry="18"/>
<text text-anchor="middle" x="940.46" y="-1406.66" font-family="FreeSans" font-size="14.00" fill="#6666ff">Metamodel::PrivateMethodContainer</text>
</a>
</g>
</g>
<!-- Metamodel::MultipleInheritance -->
<g id="node19" class="node">
<title>Metamodel::MultipleInheritance</title>
<g id="a_node19"><a xlink:href="/type/Metamodel::MultipleInheritance" xlink:title="Metamodel::MultipleInheritance">
<ellipse fill="none" stroke="#6666ff" cx="810.29" cy="-1366.35" rx="133.78" ry="18"/>
<text text-anchor="middle" x="810.29" y="-1362.65" font-family="FreeSans" font-size="14.00" fill="#6666ff">Metamodel::MultipleInheritance</text>
</a>
</g>
</g>
<!-- Metamodel::TypePretense -->
<g id="node20" class="node">
<title>Metamodel::TypePretense</title>
<g id="a_node20"><a xlink:href="/type/Metamodel::TypePretense" xlink:title="Metamodel::TypePretense">
<ellipse fill="none" stroke="#6666ff" cx="114.39" cy="-876.06" rx="114.28" ry="18"/>
<text text-anchor="middle" x="114.39" y="-872.36" font-family="FreeSans" font-size="14.00" fill="#6666ff">Metamodel::TypePretense</text>
</a>
</g>
</g>
<!-- Metamodel::RolePunning -->
<g id="node21" class="node">
<title>Metamodel::RolePunning</title>
<g id="a_node21"><a xlink:href="/type/Metamodel::RolePunning" xlink:title="Metamodel::RolePunning">
<ellipse fill="none" stroke="#6666ff" cx="197.94" cy="-1283.87" rx="109.68" ry="18"/>
<text text-anchor="middle" x="197.94" y="-1280.17" font-family="FreeSans" font-size="14.00" fill="#6666ff">Metamodel::RolePunning</text>
</a>
</g>
</g>
<!-- Metamodel::ParametricRoleHOW -->
<g id="node22" class="node">
<title>Metamodel::ParametricRoleHOW</title>
<g id="a_node22"><a xlink:href="/type/Metamodel::ParametricRoleHOW" xlink:title="Metamodel::ParametricRoleHOW">
<ellipse fill="none" stroke="#000000" cx="623.1" cy="-987.87" rx="141.88" ry="18"/>
<text text-anchor="middle" x="623.1" y="-984.17" font-family="FreeSans" font-size="14.00" fill="#000000">Metamodel::ParametricRoleHOW</text>
</a>
</g>
</g>
<!-- Metamodel::ParametricRoleHOW&#45;&gt;Metamodel::RoleContainer -->
<g id="edge25" class="edge">
<title>Metamodel::ParametricRoleHOW&#45;&gt;Metamodel::RoleContainer</title>
<path fill="none" stroke="#6666ff" d="M636.01,-969.9C675.08,-915.51 792.15,-752.52 838.17,-688.44"/>
<polygon fill="#6666ff" stroke="#6666ff" points="841.19,-690.24 844.18,-680.07 835.51,-686.15 841.19,-690.24"/>
</g>
<!-- Metamodel::ParametricRoleHOW&#45;&gt;Any -->
<g id="edge3" class="edge">
<title>Metamodel::ParametricRoleHOW&#45;&gt;Any</title>
<path fill="none" stroke="#000000" d="M633.5,-969.81C667.16,-911.34 770.98,-731.01 770.98,-731.01 770.98,-731.01 739.77,-662.06 739.77,-662.06 739.77,-662.06 773.49,-593.85 792.72,-554.95"/>
<polygon fill="#000000" stroke="#000000" points="795.98,-556.26 797.27,-545.75 789.7,-553.16 795.98,-556.26"/>
</g>
<!-- Metamodel::ParametricRoleHOW&#45;&gt;Metamodel::Naming -->
<g id="edge18" class="edge">
<title>Metamodel::ParametricRoleHOW&#45;&gt;Metamodel::Naming</title>
<path fill="none" stroke="#6666ff" d="M658.61,-1005.48C728.21,-1039.98 882.32,-1116.37 957.54,-1153.66"/>
<polygon fill="#6666ff" stroke="#6666ff" points="956.24,-1156.92 966.75,-1158.22 959.34,-1150.65 956.24,-1156.92"/>
</g>
<!-- Metamodel::ParametricRoleHOW&#45;&gt;Metamodel::Stashing -->
<g id="edge27" class="edge">
<title>Metamodel::ParametricRoleHOW&#45;&gt;Metamodel::Stashing</title>
<path fill="none" stroke="#6666ff" d="M673.84,-1004.69C781.84,-1040.49 1033.84,-1124.03 1146.83,-1161.48"/>
<polygon fill="#6666ff" stroke="#6666ff" points="1145.75,-1164.81 1156.34,-1164.63 1147.95,-1158.17 1145.75,-1164.81"/>
</g>
<!-- Metamodel::ParametricRoleHOW&#45;&gt;Metamodel::AttributeContainer -->
<g id="edge24" class="edge">
<title>Metamodel::ParametricRoleHOW&#45;&gt;Metamodel::AttributeContainer</title>
<path fill="none" stroke="#6666ff" d="M687.11,-971.72C743.03,-957.6 824.17,-937.11 882.5,-922.39"/>
<polygon fill="#6666ff" stroke="#6666ff" points="883.54,-925.74 892.38,-919.9 881.83,-918.95 883.54,-925.74"/>
</g>
<!-- Metamodel::ParametricRoleHOW&#45;&gt;Metamodel::MethodContainer -->
<g id="edge21" class="edge">
<title>Metamodel::ParametricRoleHOW&#45;&gt;Metamodel::MethodContainer</title>
<path fill="none" stroke="#6666ff" d="M648.15,-970.11C707.26,-928.18 855.47,-823.06 922.5,-775.52"/>
<polygon fill="#6666ff" stroke="#6666ff" points="924.89,-778.12 931.02,-769.48 920.84,-772.41 924.89,-778.12"/>
</g>
<!-- Metamodel::ParametricRoleHOW&#45;&gt;Metamodel::MultiMethodContainer -->
<g id="edge23" class="edge">
<title>Metamodel::ParametricRoleHOW&#45;&gt;Metamodel::MultiMethodContainer</title>
<path fill="none" stroke="#6666ff" d="M707.28,-1002.38C760.11,-1011.48 828.35,-1023.24 883.14,-1032.68"/>
<polygon fill="#6666ff" stroke="#6666ff" points="882.75,-1036.17 893.2,-1034.42 883.94,-1029.27 882.75,-1036.17"/>
</g>
<!-- Metamodel::ParametricRoleHOW&#45;&gt;Metamodel::Documenting -->
<g id="edge19" class="edge">
<title>Metamodel::ParametricRoleHOW&#45;&gt;Metamodel::Documenting</title>
<path fill="none" stroke="#6666ff" d="M638.79,-969.71C686.62,-914.33 827.37,-751.39 827.37,-751.39 827.37,-751.39 974.34,-662.25 974.34,-662.25 974.34,-662.25 1012.5,-564.08 1031.64,-514.84"/>
<polygon fill="#6666ff" stroke="#6666ff" points="1034.95,-515.99 1035.31,-505.41 1028.43,-513.46 1034.95,-515.99"/>
</g>
<!-- Metamodel::ParametricRoleHOW&#45;&gt;Metamodel::Versioning -->
<g id="edge20" class="edge">
<title>Metamodel::ParametricRoleHOW&#45;&gt;Metamodel::Versioning</title>
<path fill="none" stroke="#6666ff" d="M626.3,-969.8C634.13,-925.66 654.25,-812.09 663.66,-759.02"/>
<polygon fill="#6666ff" stroke="#6666ff" points="667.14,-759.42 665.44,-748.96 660.25,-758.19 667.14,-759.42"/>
</g>
<!-- Metamodel::ParametricRoleHOW&#45;&gt;Metamodel::PrivateMethodContainer -->
<g id="edge22" class="edge">
<title>Metamodel::ParametricRoleHOW&#45;&gt;Metamodel::PrivateMethodContainer</title>
<path fill="none" stroke="#6666ff" d="M646.55,-1005.84C670.97,-1024.55 705.71,-1051.17 705.71,-1051.17 705.71,-1051.17 945.78,-1366.48 945.78,-1366.48 945.78,-1366.48 944.9,-1373.71 943.86,-1382.29"/>
<polygon fill="#6666ff" stroke="#6666ff" points="940.38,-1381.91 942.65,-1392.26 947.33,-1382.75 940.38,-1381.91"/>
</g>
<!-- Metamodel::ParametricRoleHOW&#45;&gt;Metamodel::MultipleInheritance -->
<g id="edge26" class="edge">
<title>Metamodel::ParametricRoleHOW&#45;&gt;Metamodel::MultipleInheritance</title>
<path fill="none" stroke="#6666ff" d="M646.55,-1005.84C670.97,-1024.55 705.71,-1051.17 705.71,-1051.17 705.71,-1051.17 775.49,-1261.47 801.05,-1338.5"/>
<polygon fill="#6666ff" stroke="#6666ff" points="797.75,-1339.65 804.22,-1348.04 804.39,-1337.45 797.75,-1339.65"/>
</g>
<!-- Metamodel::ParametricRoleHOW&#45;&gt;Metamodel::TypePretense -->
<g id="edge28" class="edge">
<title>Metamodel::ParametricRoleHOW&#45;&gt;Metamodel::TypePretense</title>
<path fill="none" stroke="#6666ff" d="M552.1,-972.27C457,-951.37 288.93,-914.42 191.04,-892.91"/>
<polygon fill="#6666ff" stroke="#6666ff" points="191.73,-889.48 181.21,-890.75 190.22,-896.31 191.73,-889.48"/>
</g>
<!-- Metamodel::ParametricRoleHOW&#45;&gt;Metamodel::RolePunning -->
<g id="edge29" class="edge">
<title>Metamodel::ParametricRoleHOW&#45;&gt;Metamodel::RolePunning</title>
<path fill="none" stroke="#6666ff" d="M571.86,-1004.66C528.37,-1018.9 472.98,-1037.04 472.98,-1037.04 472.98,-1037.04 432.14,-1050.85 432.14,-1050.85 432.14,-1050.85 283.73,-1198.51 223.19,-1258.74"/>
<polygon fill="#6666ff" stroke="#6666ff" points="220.55,-1256.44 215.92,-1265.97 225.48,-1261.4 220.55,-1256.44"/>
</g>
<!-- Metamodel::Finalization -->
<g id="node23" class="node">
<title>Metamodel::Finalization</title>
<g id="a_node23"><a xlink:href="/type/Metamodel::Finalization" xlink:title="Metamodel::Finalization">
<ellipse fill="none" stroke="#6666ff" cx="1559.51" cy="-1406.55" rx="103.98" ry="18"/>
<text text-anchor="middle" x="1559.51" y="-1402.85" font-family="FreeSans" font-size="14.00" fill="#6666ff">Metamodel::Finalization</text>
</a>
</g>
</g>
<!-- Metamodel::DefaultParent -->
<g id="node24" class="node">
<title>Metamodel::DefaultParent</title>
<g id="a_node24"><a xlink:href="/type/Metamodel::DefaultParent" xlink:title="Metamodel::DefaultParent">
<ellipse fill="none" stroke="#6666ff" cx="1695.33" cy="-1268.32" rx="113.18" ry="18"/>
<text text-anchor="middle" x="1695.33" y="-1264.62" font-family="FreeSans" font-size="14.00" fill="#6666ff">Metamodel::DefaultParent</text>
</a>
</g>
</g>
<!-- Metamodel::C3MRO -->
<g id="node25" class="node">
<title>Metamodel::C3MRO</title>
<g id="a_node25"><a xlink:href="/type/Metamodel::C3MRO" xlink:title="Metamodel::C3MRO">
<ellipse fill="none" stroke="#6666ff" cx="1382.96" cy="-1509.16" rx="92.08" ry="18"/>
<text text-anchor="middle" x="1382.96" y="-1505.46" font-family="FreeSans" font-size="14.00" fill="#6666ff">Metamodel::C3MRO</text>
</a>
</g>
</g>
<!-- Metamodel::Trusting -->
<g id="node26" class="node">
<title>Metamodel::Trusting</title>
<g id="a_node26"><a xlink:href="/type/Metamodel::Trusting" xlink:title="Metamodel::Trusting">
<ellipse fill="none" stroke="#6666ff" cx="1811.95" cy="-1082.48" rx="91.78" ry="18"/>
<text text-anchor="middle" x="1811.95" y="-1078.78" font-family="FreeSans" font-size="14.00" fill="#6666ff">Metamodel::Trusting</text>
</a>
</g>
</g>
<!-- Metamodel::ClassHOW -->
<g id="node27" class="node">
<title>Metamodel::ClassHOW</title>
<g id="a_node27"><a xlink:href="/type/Metamodel::ClassHOW" xlink:title="Metamodel::ClassHOW">
<ellipse fill="none" stroke="#000000" cx="1290.91" cy="-926.01" rx="103.18" ry="18"/>
<text text-anchor="middle" x="1290.91" y="-922.31" font-family="FreeSans" font-size="14.00" fill="#000000">Metamodel::ClassHOW</text>
</a>
</g>
</g>
<!-- Metamodel::ClassHOW&#45;&gt;Metamodel::RoleContainer -->
<g id="edge39" class="edge">
<title>Metamodel::ClassHOW&#45;&gt;Metamodel::RoleContainer</title>
<path fill="none" stroke="#6666ff" d="M1270.06,-908.32C1217.8,-863.99 1085.34,-751.61 1085.34,-751.61 1085.34,-751.61 977.04,-709.17 909.63,-682.76"/>
<polygon fill="#6666ff" stroke="#6666ff" points="910.58,-679.37 899.99,-678.98 908.03,-685.89 910.58,-679.37"/>
</g>
<!-- Metamodel::ClassHOW&#45;&gt;Any -->
<g id="edge4" class="edge">
<title>Metamodel::ClassHOW&#45;&gt;Any</title>
<path fill="none" stroke="#000000" d="M1270.06,-908.32C1217.8,-863.99 1085.34,-751.61 1085.34,-751.61 1085.34,-751.61 974.34,-662.25 974.34,-662.25 974.34,-662.25 878.14,-585.96 831.08,-548.65"/>
<polygon fill="#000000" stroke="#000000" points="833.18,-545.84 823.17,-542.37 828.83,-551.33 833.18,-545.84"/>
</g>
<!-- Metamodel::ClassHOW&#45;&gt;Metamodel::Naming -->
<g id="edge30" class="edge">
<title>Metamodel::ClassHOW&#45;&gt;Metamodel::Naming</title>
<path fill="none" stroke="#6666ff" d="M1270.02,-943.91C1218.85,-987.78 1087.16,-1100.69 1028.93,-1150.61"/>
<polygon fill="#6666ff" stroke="#6666ff" points="1026.54,-1148.06 1021.22,-1157.23 1031.09,-1153.37 1026.54,-1148.06"/>
</g>
<!-- Metamodel::ClassHOW&#45;&gt;Metamodel::Stashing -->
<g id="edge33" class="edge">
<title>Metamodel::ClassHOW&#45;&gt;Metamodel::Stashing</title>
<path fill="none" stroke="#6666ff" d="M1284.61,-944.29C1269.48,-988.26 1230.96,-1100.17 1212.95,-1152.48"/>
<polygon fill="#6666ff" stroke="#6666ff" points="1209.58,-1151.52 1209.63,-1162.11 1216.2,-1153.8 1209.58,-1151.52"/>
</g>
<!-- Metamodel::ClassHOW&#45;&gt;Metamodel::AttributeContainer -->
<g id="edge34" class="edge">
<title>Metamodel::ClassHOW&#45;&gt;Metamodel::AttributeContainer</title>
<path fill="none" stroke="#6666ff" d="M1193.77,-919.66C1159.24,-917.41 1119.82,-914.83 1083.1,-912.43"/>
<polygon fill="#6666ff" stroke="#6666ff" points="1083.03,-908.92 1072.82,-911.76 1082.58,-915.91 1083.03,-908.92"/>
</g>
<!-- Metamodel::ClassHOW&#45;&gt;Metamodel::MethodContainer -->
<g id="edge36" class="edge">
<title>Metamodel::ClassHOW&#45;&gt;Metamodel::MethodContainer</title>
<path fill="none" stroke="#6666ff" d="M1257.91,-908.8C1196.9,-876.97 1066.53,-808.97 998.95,-773.72"/>
<polygon fill="#6666ff" stroke="#6666ff" points="1000.33,-770.49 989.85,-768.97 997.09,-776.7 1000.33,-770.49"/>
</g>
<!-- Metamodel::ClassHOW&#45;&gt;Metamodel::MultiMethodContainer -->
<g id="edge38" class="edge">
<title>Metamodel::ClassHOW&#45;&gt;Metamodel::MultiMethodContainer</title>
<path fill="none" stroke="#6666ff" d="M1249.07,-942.48C1192.94,-964.58 1093.19,-1003.86 1031.7,-1028.07"/>
<polygon fill="#6666ff" stroke="#6666ff" points="1030.19,-1024.9 1022.17,-1031.82 1032.76,-1031.41 1030.19,-1024.9"/>
</g>
<!-- Metamodel::ClassHOW&#45;&gt;Metamodel::MROBasedMethodDispatch -->
<g id="edge43" class="edge">
<title>Metamodel::ClassHOW&#45;&gt;Metamodel::MROBasedMethodDispatch</title>
<path fill="none" stroke="#6666ff" d="M1312.97,-908.4C1380.24,-854.71 1582.91,-692.96 1660.23,-631.25"/>
<polygon fill="#6666ff" stroke="#6666ff" points="1662.53,-633.88 1668.17,-624.91 1658.17,-628.41 1662.53,-633.88"/>
</g>
<!-- Metamodel::ClassHOW&#45;&gt;Metamodel::MROBasedTypeChecking -->
<g id="edge44" class="edge">
<title>Metamodel::ClassHOW&#45;&gt;Metamodel::MROBasedTypeChecking</title>
<path fill="none" stroke="#6666ff" d="M1296.21,-907.93C1319.64,-828.16 1413.84,-507.34 1442.28,-410.5"/>
<polygon fill="#6666ff" stroke="#6666ff" points="1445.66,-411.41 1445.12,-400.83 1438.94,-409.43 1445.66,-411.41"/>
</g>
<!-- Metamodel::ClassHOW&#45;&gt;Metamodel::BUILDPLAN -->
<g id="edge46" class="edge">
<title>Metamodel::ClassHOW&#45;&gt;Metamodel::BUILDPLAN</title>
<path fill="none" stroke="#6666ff" d="M1303.25,-908.09C1350.7,-839.23 1521.54,-591.3 1577.91,-509.48"/>
<polygon fill="#6666ff" stroke="#6666ff" points="1580.82,-511.44 1583.61,-501.22 1575.05,-507.47 1580.82,-511.44"/>
</g>
<!-- Metamodel::ClassHOW&#45;&gt;Metamodel::BoolificationProtocol -->
<g id="edge48" class="edge">
<title>Metamodel::ClassHOW&#45;&gt;Metamodel::BoolificationProtocol</title>
<path fill="none" stroke="#6666ff" d="M1332.4,-909.4C1411.62,-877.7 1584.26,-808.62 1671.29,-773.79"/>
<polygon fill="#6666ff" stroke="#6666ff" points="1672.72,-776.99 1680.71,-770.03 1670.12,-770.49 1672.72,-776.99"/>
</g>
<!-- Metamodel::ClassHOW&#45;&gt;Metamodel::Mixins -->
<g id="edge47" class="edge">
<title>Metamodel::ClassHOW&#45;&gt;Metamodel::Mixins</title>
<path fill="none" stroke="#6666ff" d="M1388.57,-919.99C1443.31,-916.62 1511.19,-912.44 1565,-909.13"/>
<polygon fill="#6666ff" stroke="#6666ff" points="1565.46,-912.6 1575.23,-908.5 1565.03,-905.62 1565.46,-912.6"/>
</g>
<!-- Metamodel::ClassHOW&#45;&gt;Metamodel::Documenting -->
<g id="edge31" class="edge">
<title>Metamodel::ClassHOW&#45;&gt;Metamodel::Documenting</title>
<path fill="none" stroke="#6666ff" d="M1280.7,-907.99C1241.99,-839.69 1104.13,-596.4 1057.71,-514.49"/>
<polygon fill="#6666ff" stroke="#6666ff" points="1060.74,-512.73 1052.76,-505.75 1054.65,-516.18 1060.74,-512.73"/>
</g>
<!-- Metamodel::ClassHOW&#45;&gt;Metamodel::Versioning -->
<g id="edge32" class="edge">
<title>Metamodel::ClassHOW&#45;&gt;Metamodel::Versioning</title>
<path fill="none" stroke="#6666ff" d="M1240.51,-910.21C1126.7,-874.52 850.23,-787.84 728.21,-749.58"/>
<polygon fill="#6666ff" stroke="#6666ff" points="729.23,-746.24 718.64,-746.58 727.13,-752.92 729.23,-746.24"/>
</g>
<!-- Metamodel::ClassHOW&#45;&gt;Metamodel::PrivateMethodContainer -->
<g id="edge37" class="edge">
<title>Metamodel::ClassHOW&#45;&gt;Metamodel::PrivateMethodContainer</title>
<path fill="none" stroke="#6666ff" d="M1277.81,-944.11C1224.35,-1017.99 1022.54,-1296.92 959.43,-1384.13"/>
<polygon fill="#6666ff" stroke="#6666ff" points="956.46,-1382.27 953.43,-1392.42 962.13,-1386.37 956.46,-1382.27"/>
</g>
<!-- Metamodel::ClassHOW&#45;&gt;Metamodel::MultipleInheritance -->
<g id="edge40" class="edge">
<title>Metamodel::ClassHOW&#45;&gt;Metamodel::MultipleInheritance</title>
<path fill="none" stroke="#6666ff" d="M1276.64,-943.91C1231.14,-1001.01 1092.47,-1175.02 1092.47,-1175.02 1092.47,-1175.02 920.46,-1291.65 845.03,-1342.79"/>
<polygon fill="#6666ff" stroke="#6666ff" points="842.65,-1340.18 836.33,-1348.69 846.57,-1345.98 842.65,-1340.18"/>
</g>
<!-- Metamodel::ClassHOW&#45;&gt;Metamodel::Finalization -->
<g id="edge35" class="edge">
<title>Metamodel::ClassHOW&#45;&gt;Metamodel::Finalization</title>
<path fill="none" stroke="#6666ff" d="M1300.95,-943.97C1341.79,-1017.04 1495.63,-1292.26 1544.5,-1379.71"/>
<polygon fill="#6666ff" stroke="#6666ff" points="1541.48,-1381.48 1549.42,-1388.5 1547.59,-1378.06 1541.48,-1381.48"/>
</g>
<!-- Metamodel::ClassHOW&#45;&gt;Metamodel::DefaultParent -->
<g id="edge41" class="edge">
<title>Metamodel::ClassHOW&#45;&gt;Metamodel::DefaultParent</title>
<path fill="none" stroke="#6666ff" d="M1311.8,-943.69C1378.91,-1000.49 1589.09,-1178.4 1666.41,-1243.85"/>
<polygon fill="#6666ff" stroke="#6666ff" points="1664.43,-1246.75 1674.32,-1250.54 1668.95,-1241.41 1664.43,-1246.75"/>
</g>
<!-- Metamodel::ClassHOW&#45;&gt;Metamodel::C3MRO -->
<g id="edge42" class="edge">
<title>Metamodel::ClassHOW&#45;&gt;Metamodel::C3MRO</title>
<path fill="none" stroke="#6666ff" d="M1293.76,-944.1C1307,-1027.93 1362.39,-1378.85 1378.53,-1481.1"/>
<polygon fill="#6666ff" stroke="#6666ff" points="1375.08,-1481.66 1380.1,-1490.99 1381.99,-1480.57 1375.08,-1481.66"/>
</g>
<!-- Metamodel::ClassHOW&#45;&gt;Metamodel::Trusting -->
<g id="edge45" class="edge">
<title>Metamodel::ClassHOW&#45;&gt;Metamodel::Trusting</title>
<path fill="none" stroke="#6666ff" d="M1342.77,-941.58C1439.9,-970.75 1648.69,-1033.45 1751.81,-1064.42"/>
<polygon fill="#6666ff" stroke="#6666ff" points="1750.87,-1067.79 1761.45,-1067.32 1752.88,-1061.09 1750.87,-1067.79"/>
</g>
<!-- Metamodel::ConcreteRoleHOW -->
<g id="node28" class="node">
<title>Metamodel::ConcreteRoleHOW</title>
<g id="a_node28"><a xlink:href="/type/Metamodel::ConcreteRoleHOW" xlink:title="Metamodel::ConcreteRoleHOW">
<ellipse fill="none" stroke="#000000" cx="568.92" cy="-1051.01" rx="135.38" ry="18"/>
<text text-anchor="middle" x="568.92" y="-1047.31" font-family="FreeSans" font-size="14.00" fill="#000000">Metamodel::ConcreteRoleHOW</text>
</a>
</g>
</g>
<!-- Metamodel::ConcreteRoleHOW&#45;&gt;Metamodel::RoleContainer -->
<g id="edge55" class="edge">
<title>Metamodel::ConcreteRoleHOW&#45;&gt;Metamodel::RoleContainer</title>
<path fill="none" stroke="#6666ff" d="M621.36,-1034.35C666.3,-1020.08 723.82,-1001.81 723.82,-1001.81 723.82,-1001.81 766.39,-987.99 766.39,-987.99 766.39,-987.99 827.37,-751.39 827.37,-751.39 827.37,-751.39 839.17,-715.93 847.89,-689.71"/>
<polygon fill="#6666ff" stroke="#6666ff" points="851.21,-690.81 851.05,-680.21 844.57,-688.6 851.21,-690.81"/>
</g>
<!-- Metamodel::ConcreteRoleHOW&#45;&gt;Any -->
<g id="edge5" class="edge">
<title>Metamodel::ConcreteRoleHOW&#45;&gt;Any</title>
<path fill="none" stroke="#000000" d="M621.36,-1034.35C666.3,-1020.08 723.82,-1001.81 723.82,-1001.81 723.82,-1001.81 766.39,-987.99 766.39,-987.99 766.39,-987.99 770.98,-731.01 770.98,-731.01 770.98,-731.01 739.77,-662.06 739.77,-662.06 739.77,-662.06 773.49,-593.85 792.72,-554.95"/>
<polygon fill="#000000" stroke="#000000" points="795.98,-556.26 797.27,-545.75 789.7,-553.16 795.98,-556.26"/>
</g>
<!-- Metamodel::ConcreteRoleHOW&#45;&gt;Metamodel::Naming -->
<g id="edge49" class="edge">
<title>Metamodel::ConcreteRoleHOW&#45;&gt;Metamodel::Naming</title>
<path fill="none" stroke="#6666ff" d="M625.79,-1067.34C707.04,-1090.68 855.74,-1133.38 939.31,-1157.39"/>
<polygon fill="#6666ff" stroke="#6666ff" points="938.35,-1160.75 948.93,-1160.15 940.28,-1154.02 938.35,-1160.75"/>
</g>
<!-- Metamodel::ConcreteRoleHOW&#45;&gt;Metamodel::AttributeContainer -->
<g id="edge54" class="edge">
<title>Metamodel::ConcreteRoleHOW&#45;&gt;Metamodel::AttributeContainer</title>
<path fill="none" stroke="#6666ff" d="M621.36,-1034.35C666.3,-1020.08 723.82,-1001.81 723.82,-1001.81 723.82,-1001.81 766.39,-987.99 766.39,-987.99 766.39,-987.99 850.67,-950.5 906.58,-925.64"/>
<polygon fill="#6666ff" stroke="#6666ff" points="908.26,-928.72 915.97,-921.46 905.41,-922.33 908.26,-928.72"/>
</g>
<!-- Metamodel::ConcreteRoleHOW&#45;&gt;Metamodel::MethodContainer -->
<g id="edge52" class="edge">
<title>Metamodel::ConcreteRoleHOW&#45;&gt;Metamodel::MethodContainer</title>
<path fill="none" stroke="#6666ff" d="M621.36,-1034.35C666.3,-1020.08 723.82,-1001.81 723.82,-1001.81 723.82,-1001.81 766.39,-987.99 766.39,-987.99 766.39,-987.99 823.48,-903.94 823.48,-903.94 823.48,-903.94 896.08,-820.66 933.95,-777.21"/>
<polygon fill="#6666ff" stroke="#6666ff" points="936.66,-779.43 940.59,-769.59 931.38,-774.83 936.66,-779.43"/>
</g>
<!-- Metamodel::ConcreteRoleHOW&#45;&gt;Metamodel::MultiMethodContainer -->
<g id="edge53" class="edge">
<title>Metamodel::ConcreteRoleHOW&#45;&gt;Metamodel::MultiMethodContainer</title>
<path fill="none" stroke="#6666ff" d="M704.11,-1050.37C741.74,-1050.2 782.92,-1050 821.67,-1049.82"/>
<polygon fill="#6666ff" stroke="#6666ff" points="822.02,-1053.32 832,-1049.77 821.98,-1046.32 822.02,-1053.32"/>
</g>
<!-- Metamodel::ConcreteRoleHOW&#45;&gt;Metamodel::Versioning -->
<g id="edge50" class="edge">
<title>Metamodel::ConcreteRoleHOW&#45;&gt;Metamodel::Versioning</title>
<path fill="none" stroke="#6666ff" d="M543.63,-1033.05C517.28,-1014.35 479.82,-987.76 479.82,-987.76 479.82,-987.76 601.23,-822.6 649.34,-757.16"/>
<polygon fill="#6666ff" stroke="#6666ff" points="652.26,-759.1 655.36,-748.97 646.62,-754.95 652.26,-759.1"/>
</g>
<!-- Metamodel::ConcreteRoleHOW&#45;&gt;Metamodel::PrivateMethodContainer -->
<g id="edge51" class="edge">
<title>Metamodel::ConcreteRoleHOW&#45;&gt;Metamodel::PrivateMethodContainer</title>
<path fill="none" stroke="#6666ff" d="M590.26,-1068.87C669.98,-1135.61 945.78,-1366.48 945.78,-1366.48 945.78,-1366.48 944.9,-1373.71 943.86,-1382.29"/>
<polygon fill="#6666ff" stroke="#6666ff" points="940.38,-1381.91 942.65,-1392.26 947.33,-1382.75 940.38,-1381.91"/>
</g>
<!-- Metamodel::ConcreteRoleHOW&#45;&gt;Metamodel::MultipleInheritance -->
<g id="edge56" class="edge">
<title>Metamodel::ConcreteRoleHOW&#45;&gt;Metamodel::MultipleInheritance</title>
<path fill="none" stroke="#6666ff" d="M582.94,-1069.33C623.78,-1122.68 742.76,-1278.12 790.31,-1340.25"/>
<polygon fill="#6666ff" stroke="#6666ff" points="787.68,-1342.56 796.53,-1348.38 793.23,-1338.31 787.68,-1342.56"/>
</g>
</g>
</svg>
