<?xml version="1.0" encoding="UTF-8" standalone="no"?>
<!DOCTYPE svg PUBLIC "-//W3C//DTD SVG 1.1//EN"
 "http://www.w3.org/Graphics/SVG/1.1/DTD/svg11.dtd">
<!-- Generated by graphviz version 2.43.0 (0)
 -->
<!-- Title: perl6&#45;type&#45;graph Pages: 1 -->
<svg width="261pt" height="332pt"
 viewBox="0.00 0.00 260.54 332.00" xmlns="http://www.w3.org/2000/svg" xmlns:xlink="http://www.w3.org/1999/xlink">
<g id="graph0" class="graph" transform="scale(1 1) rotate(0) translate(4 328)">
<title>perl6&#45;type&#45;graph</title>
<polygon fill="white" stroke="transparent" points="-4,4 -4,-328 256.54,-328 256.54,4 -4,4"/>
<!-- NumStr -->
<g id="node1" class="node">
<title>NumStr</title>
<g id="a_node1"><a xlink:href="/type/NumStr" xlink:title="NumStr">
<ellipse fill="none" stroke="#000000" cx="128.2" cy="-18" rx="40.89" ry="18"/>
<text text-anchor="middle" x="128.2" y="-14.3" font-family="FreeSans" font-size="14.00" fill="#000000">NumStr</text>
</a>
</g>
</g>
<!-- Num -->
<g id="node7" class="node">
<title>Num</title>
<g id="a_node7"><a xlink:href="/type/Num" xlink:title="Num">
<ellipse fill="none" stroke="#000000" cx="91.2" cy="-90" rx="29.8" ry="18"/>
<text text-anchor="middle" x="91.2" y="-86.3" font-family="FreeSans" font-size="14.00" fill="#000000">Num</text>
</a>
</g>
</g>
<!-- NumStr&#45;&gt;Num -->
<g id="edge1" class="edge">
<title>NumStr&#45;&gt;Num</title>
<path fill="none" stroke="#000000" d="M119.43,-35.59C115,-43.96 109.54,-54.29 104.61,-63.63"/>
<polygon fill="#000000" stroke="#000000" points="101.48,-62.05 99.9,-72.53 107.67,-65.32 101.48,-62.05"/>
</g>
<!-- Str -->
<g id="node9" class="node">
<title>Str</title>
<g id="a_node9"><a xlink:href="/type/Str" xlink:title="Str">
<ellipse fill="none" stroke="#000000" cx="166.2" cy="-90" rx="27" ry="18"/>
<text text-anchor="middle" x="166.2" y="-86.3" font-family="FreeSans" font-size="14.00" fill="#000000">Str</text>
</a>
</g>
</g>
<!-- NumStr&#45;&gt;Str -->
<g id="edge2" class="edge">
<title>NumStr&#45;&gt;Str</title>
<path fill="none" stroke="#000000" d="M137.2,-35.59C141.74,-43.96 147.35,-54.29 152.42,-63.63"/>
<polygon fill="#000000" stroke="#000000" points="149.41,-65.41 157.26,-72.53 155.56,-62.07 149.41,-65.41"/>
</g>
<!-- Mu -->
<g id="node2" class="node">
<title>Mu</title>
<g id="a_node2"><a xlink:href="/type/Mu" xlink:title="Mu">
<ellipse fill="none" stroke="#000000" cx="133.2" cy="-306" rx="27" ry="18"/>
<text text-anchor="middle" x="133.2" y="-302.3" font-family="FreeSans" font-size="14.00" fill="#000000">Mu</text>
</a>
</g>
</g>
<!-- Any -->
<g id="node3" class="node">
<title>Any</title>
<g id="a_node3"><a xlink:href="/type/Any" xlink:title="Any">
<ellipse fill="none" stroke="#000000" cx="133.2" cy="-234" rx="27" ry="18"/>
<text text-anchor="middle" x="133.2" y="-230.3" font-family="FreeSans" font-size="14.00" fill="#000000">Any</text>
</a>
</g>
</g>
<!-- Any&#45;&gt;Mu -->
<g id="edge3" class="edge">
<title>Any&#45;&gt;Mu</title>
<path fill="none" stroke="#000000" d="M133.2,-252.3C133.2,-260.02 133.2,-269.29 133.2,-277.89"/>
<polygon fill="#000000" stroke="#000000" points="129.7,-277.9 133.2,-287.9 136.7,-277.9 129.7,-277.9"/>
</g>
<!-- Cool -->
<g id="node4" class="node">
<title>Cool</title>
<g id="a_node4"><a xlink:href="/type/Cool" xlink:title="Cool">
<ellipse fill="none" stroke="#000000" cx="129.2" cy="-162" rx="28.7" ry="18"/>
<text text-anchor="middle" x="129.2" y="-158.3" font-family="FreeSans" font-size="14.00" fill="#000000">Cool</text>
</a>
</g>
</g>
<!-- Cool&#45;&gt;Any -->
<g id="edge4" class="edge">
<title>Cool&#45;&gt;Any</title>
<path fill="none" stroke="#000000" d="M130.18,-180.3C130.63,-188.02 131.16,-197.29 131.65,-205.89"/>
<polygon fill="#000000" stroke="#000000" points="128.15,-206.11 132.22,-215.9 135.14,-205.71 128.15,-206.11"/>
</g>
<!-- Numeric -->
<g id="node5" class="node">
<title>Numeric</title>
<g id="a_node5"><a xlink:href="/type/Numeric" xlink:title="Numeric">
<ellipse fill="none" stroke="#6666ff" cx="44.2" cy="-234" rx="44.39" ry="18"/>
<text text-anchor="middle" x="44.2" y="-230.3" font-family="FreeSans" font-size="14.00" fill="#6666ff">Numeric</text>
</a>
</g>
</g>
<!-- Real -->
<g id="node6" class="node">
<title>Real</title>
<g id="a_node6"><a xlink:href="/type/Real" xlink:title="Real">
<ellipse fill="none" stroke="#6666ff" cx="51.2" cy="-162" rx="28.7" ry="18"/>
<text text-anchor="middle" x="51.2" y="-158.3" font-family="FreeSans" font-size="14.00" fill="#6666ff">Real</text>
</a>
</g>
</g>
<!-- Real&#45;&gt;Numeric -->
<g id="edge7" class="edge">
<title>Real&#45;&gt;Numeric</title>
<path fill="none" stroke="#6666ff" d="M49.47,-180.3C48.69,-188.02 47.77,-197.29 46.91,-205.89"/>
<polygon fill="#6666ff" stroke="#6666ff" points="43.42,-205.6 45.91,-215.9 50.38,-206.29 43.42,-205.6"/>
</g>
<!-- Num&#45;&gt;Cool -->
<g id="edge5" class="edge">
<title>Num&#45;&gt;Cool</title>
<path fill="none" stroke="#000000" d="M100.01,-107.24C104.61,-115.72 110.35,-126.29 115.52,-135.8"/>
<polygon fill="#000000" stroke="#000000" points="112.58,-137.73 120.43,-144.85 118.74,-134.39 112.58,-137.73"/>
</g>
<!-- Num&#45;&gt;Real -->
<g id="edge8" class="edge">
<title>Num&#45;&gt;Real</title>
<path fill="none" stroke="#6666ff" d="M81.92,-107.24C77.02,-115.81 70.91,-126.51 65.42,-136.1"/>
<polygon fill="#6666ff" stroke="#6666ff" points="62.35,-134.43 60.42,-144.85 68.42,-137.91 62.35,-134.43"/>
</g>
<!-- Stringy -->
<g id="node8" class="node">
<title>Stringy</title>
<g id="a_node8"><a xlink:href="/type/Stringy" xlink:title="Stringy">
<ellipse fill="none" stroke="#6666ff" cx="214.2" cy="-162" rx="38.19" ry="18"/>
<text text-anchor="middle" x="214.2" y="-158.3" font-family="FreeSans" font-size="14.00" fill="#6666ff">Stringy</text>
</a>
</g>
</g>
<!-- Str&#45;&gt;Cool -->
<g id="edge6" class="edge">
<title>Str&#45;&gt;Cool</title>
<path fill="none" stroke="#000000" d="M157.61,-107.24C153.2,-115.6 147.7,-125.98 142.73,-135.39"/>
<polygon fill="#000000" stroke="#000000" points="139.57,-133.89 137.99,-144.37 145.76,-137.16 139.57,-133.89"/>
</g>
<!-- Str&#45;&gt;Stringy -->
<g id="edge9" class="edge">
<title>Str&#45;&gt;Stringy</title>
<path fill="none" stroke="#6666ff" d="M177.09,-106.88C183.02,-115.53 190.49,-126.42 197.17,-136.17"/>
<polygon fill="#6666ff" stroke="#6666ff" points="194.47,-138.43 203.01,-144.69 200.25,-134.47 194.47,-138.43"/>
</g>
</g>
</svg>
