<?xml version="1.0" encoding="UTF-8" standalone="no"?>
<!DOCTYPE svg PUBLIC "-//W3C//DTD SVG 1.1//EN"
 "http://www.w3.org/Graphics/SVG/1.1/DTD/svg11.dtd">
<!-- Generated by graphviz version 2.43.0 (0)
 -->
<!-- Title: perl6&#45;type&#45;graph Pages: 1 -->
<svg width="1554pt" height="332pt"
 viewBox="0.00 0.00 1553.99 332.00" xmlns="http://www.w3.org/2000/svg" xmlns:xlink="http://www.w3.org/1999/xlink">
<g id="graph0" class="graph" transform="scale(1 1) rotate(0) translate(4 328)">
<title>perl6&#45;type&#45;graph</title>
<polygon fill="white" stroke="transparent" points="-4,4 -4,-328 1549.99,-328 1549.99,4 -4,4"/>
<!-- Cool -->
<g id="node1" class="node">
<title>Cool</title>
<g id="a_node1"><a xlink:href="/type/Cool" xlink:title="Cool">
<ellipse fill="none" stroke="#000000" cx="733.49" cy="-162" rx="28.7" ry="18"/>
<text text-anchor="middle" x="733.49" y="-158.3" font-family="FreeSans" font-size="14.00" fill="#000000">Cool</text>
</a>
</g>
</g>
<!-- Any -->
<g id="node3" class="node">
<title>Any</title>
<g id="a_node3"><a xlink:href="/type/Any" xlink:title="Any">
<ellipse fill="none" stroke="#000000" cx="641.49" cy="-234" rx="27" ry="18"/>
<text text-anchor="middle" x="641.49" y="-230.3" font-family="FreeSans" font-size="14.00" fill="#000000">Any</text>
</a>
</g>
</g>
<!-- Cool&#45;&gt;Any -->
<g id="edge1" class="edge">
<title>Cool&#45;&gt;Any</title>
<path fill="none" stroke="#000000" d="M715.75,-176.5C701.83,-187.09 682.27,-201.97 666.72,-213.8"/>
<polygon fill="#000000" stroke="#000000" points="664.39,-211.18 658.55,-220.02 668.63,-216.75 664.39,-211.18"/>
</g>
<!-- Mu -->
<g id="node2" class="node">
<title>Mu</title>
<g id="a_node2"><a xlink:href="/type/Mu" xlink:title="Mu">
<ellipse fill="none" stroke="#000000" cx="641.49" cy="-306" rx="27" ry="18"/>
<text text-anchor="middle" x="641.49" y="-302.3" font-family="FreeSans" font-size="14.00" fill="#000000">Mu</text>
</a>
</g>
</g>
<!-- Any&#45;&gt;Mu -->
<g id="edge2" class="edge">
<title>Any&#45;&gt;Mu</title>
<path fill="none" stroke="#000000" d="M641.49,-252.3C641.49,-260.02 641.49,-269.29 641.49,-277.89"/>
<polygon fill="#000000" stroke="#000000" points="637.99,-277.9 641.49,-287.9 644.99,-277.9 637.99,-277.9"/>
</g>
<!-- Nil -->
<g id="node4" class="node">
<title>Nil</title>
<g id="a_node4"><a xlink:href="/type/Nil" xlink:title="Nil">
<ellipse fill="none" stroke="#000000" cx="815.49" cy="-90" rx="27" ry="18"/>
<text text-anchor="middle" x="815.49" y="-86.3" font-family="FreeSans" font-size="14.00" fill="#000000">Nil</text>
</a>
</g>
</g>
<!-- Nil&#45;&gt;Cool -->
<g id="edge3" class="edge">
<title>Nil&#45;&gt;Cool</title>
<path fill="none" stroke="#000000" d="M799.29,-104.83C787.46,-114.93 771.23,-128.79 757.84,-140.21"/>
<polygon fill="#000000" stroke="#000000" points="755.27,-137.8 749.94,-146.96 759.82,-143.13 755.27,-137.8"/>
</g>
<!-- Positional -->
<g id="node5" class="node">
<title>Positional</title>
<g id="a_node5"><a xlink:href="/type/Positional" xlink:title="Positional">
<ellipse fill="none" stroke="#6666ff" cx="312.49" cy="-162" rx="48.99" ry="18"/>
<text text-anchor="middle" x="312.49" y="-158.3" font-family="FreeSans" font-size="14.00" fill="#6666ff">Positional</text>
</a>
</g>
</g>
<!-- Iterable -->
<g id="node6" class="node">
<title>Iterable</title>
<g id="a_node6"><a xlink:href="/type/Iterable" xlink:title="Iterable">
<ellipse fill="none" stroke="#6666ff" cx="205.49" cy="-162" rx="40.09" ry="18"/>
<text text-anchor="middle" x="205.49" y="-158.3" font-family="FreeSans" font-size="14.00" fill="#6666ff">Iterable</text>
</a>
</g>
</g>
<!-- List -->
<g id="node7" class="node">
<title>List</title>
<g id="a_node7"><a xlink:href="/type/List" xlink:title="List">
<ellipse fill="none" stroke="#000000" cx="249.49" cy="-90" rx="27" ry="18"/>
<text text-anchor="middle" x="249.49" y="-86.3" font-family="FreeSans" font-size="14.00" fill="#000000">List</text>
</a>
</g>
</g>
<!-- List&#45;&gt;Cool -->
<g id="edge4" class="edge">
<title>List&#45;&gt;Cool</title>
<path fill="none" stroke="#000000" d="M270.85,-101.09C278.6,-104.75 285.49,-108 285.49,-108 285.49,-108 695.49,-144 695.49,-144 695.49,-144 697.92,-145.09 701.55,-146.71"/>
<polygon fill="#000000" stroke="#000000" points="700.39,-150.03 710.95,-150.91 703.25,-143.64 700.39,-150.03"/>
</g>
<!-- List&#45;&gt;Positional -->
<g id="edge21" class="edge">
<title>List&#45;&gt;Positional</title>
<path fill="none" stroke="#6666ff" d="M262.85,-105.85C271.03,-114.93 281.67,-126.76 291.01,-137.13"/>
<polygon fill="#6666ff" stroke="#6666ff" points="288.54,-139.62 297.83,-144.71 293.74,-134.94 288.54,-139.62"/>
</g>
<!-- List&#45;&gt;Iterable -->
<g id="edge22" class="edge">
<title>List&#45;&gt;Iterable</title>
<path fill="none" stroke="#6666ff" d="M239.51,-106.88C234.2,-115.32 227.56,-125.9 221.55,-135.45"/>
<polygon fill="#6666ff" stroke="#6666ff" points="218.41,-133.87 216.05,-144.2 224.33,-137.6 218.41,-133.87"/>
</g>
<!-- Stringy -->
<g id="node8" class="node">
<title>Stringy</title>
<g id="a_node8"><a xlink:href="/type/Stringy" xlink:title="Stringy">
<ellipse fill="none" stroke="#6666ff" cx="648.49" cy="-162" rx="38.19" ry="18"/>
<text text-anchor="middle" x="648.49" y="-158.3" font-family="FreeSans" font-size="14.00" fill="#6666ff">Stringy</text>
</a>
</g>
</g>
<!-- Str -->
<g id="node9" class="node">
<title>Str</title>
<g id="a_node9"><a xlink:href="/type/Str" xlink:title="Str">
<ellipse fill="none" stroke="#000000" cx="575.49" cy="-90" rx="27" ry="18"/>
<text text-anchor="middle" x="575.49" y="-86.3" font-family="FreeSans" font-size="14.00" fill="#000000">Str</text>
</a>
</g>
</g>
<!-- Str&#45;&gt;Cool -->
<g id="edge5" class="edge">
<title>Str&#45;&gt;Cool</title>
<path fill="none" stroke="#000000" d="M597.5,-100.72C632.14,-116.02 695.49,-144 695.49,-144 695.49,-144 697.92,-145.09 701.55,-146.71"/>
<polygon fill="#000000" stroke="#000000" points="700.39,-150.03 710.95,-150.91 703.25,-143.64 700.39,-150.03"/>
</g>
<!-- Str&#45;&gt;Stringy -->
<g id="edge23" class="edge">
<title>Str&#45;&gt;Stringy</title>
<path fill="none" stroke="#6666ff" d="M590.26,-105.17C600.22,-114.71 613.56,-127.5 624.96,-138.43"/>
<polygon fill="#6666ff" stroke="#6666ff" points="622.83,-141.25 632.47,-145.64 627.68,-136.19 622.83,-141.25"/>
</g>
<!-- IO -->
<g id="node10" class="node">
<title>IO</title>
<g id="a_node10"><a xlink:href="/type/IO" xlink:title="IO">
<ellipse fill="none" stroke="#6666ff" cx="942.49" cy="-162" rx="27" ry="18"/>
<text text-anchor="middle" x="942.49" y="-158.3" font-family="FreeSans" font-size="14.00" fill="#6666ff">IO</text>
</a>
</g>
</g>
<!-- IO::Path -->
<g id="node11" class="node">
<title>IO::Path</title>
<g id="a_node11"><a xlink:href="/type/IO::Path" xlink:title="IO::Path">
<ellipse fill="none" stroke="#000000" cx="942.49" cy="-90" rx="43.59" ry="18"/>
<text text-anchor="middle" x="942.49" y="-86.3" font-family="FreeSans" font-size="14.00" fill="#000000">IO::Path</text>
</a>
</g>
</g>
<!-- IO::Path&#45;&gt;Cool -->
<g id="edge6" class="edge">
<title>IO::Path&#45;&gt;Cool</title>
<path fill="none" stroke="#000000" d="M909.84,-101.94C871.18,-114.88 807.11,-136.34 767.76,-149.52"/>
<polygon fill="#000000" stroke="#000000" points="766.45,-146.27 758.08,-152.76 768.67,-152.91 766.45,-146.27"/>
</g>
<!-- IO::Path&#45;&gt;IO -->
<g id="edge24" class="edge">
<title>IO::Path&#45;&gt;IO</title>
<path fill="none" stroke="#6666ff" d="M942.49,-108.3C942.49,-116.02 942.49,-125.29 942.49,-133.89"/>
<polygon fill="#6666ff" stroke="#6666ff" points="938.99,-133.9 942.49,-143.9 945.99,-133.9 938.99,-133.9"/>
</g>
<!-- Numeric -->
<g id="node12" class="node">
<title>Numeric</title>
<g id="a_node12"><a xlink:href="/type/Numeric" xlink:title="Numeric">
<ellipse fill="none" stroke="#6666ff" cx="1348.49" cy="-234" rx="44.39" ry="18"/>
<text text-anchor="middle" x="1348.49" y="-230.3" font-family="FreeSans" font-size="14.00" fill="#6666ff">Numeric</text>
</a>
</g>
</g>
<!-- Real -->
<g id="node13" class="node">
<title>Real</title>
<g id="a_node13"><a xlink:href="/type/Real" xlink:title="Real">
<ellipse fill="none" stroke="#6666ff" cx="1265.49" cy="-162" rx="28.7" ry="18"/>
<text text-anchor="middle" x="1265.49" y="-158.3" font-family="FreeSans" font-size="14.00" fill="#6666ff">Real</text>
</a>
</g>
</g>
<!-- Real&#45;&gt;Numeric -->
<g id="edge25" class="edge">
<title>Real&#45;&gt;Numeric</title>
<path fill="none" stroke="#6666ff" d="M1281.89,-176.83C1293.39,-186.53 1309.02,-199.71 1322.24,-210.86"/>
<polygon fill="#6666ff" stroke="#6666ff" points="1320.2,-213.72 1330.1,-217.49 1324.72,-208.37 1320.2,-213.72"/>
</g>
<!-- Rational -->
<g id="node14" class="node">
<title>Rational</title>
<g id="a_node14"><a xlink:href="/type/Rational" xlink:title="Rational">
<ellipse fill="none" stroke="#6666ff" cx="1394.49" cy="-90" rx="42.79" ry="18"/>
<text text-anchor="middle" x="1394.49" y="-86.3" font-family="FreeSans" font-size="14.00" fill="#6666ff">Rational</text>
</a>
</g>
</g>
<!-- Rational&#45;&gt;Real -->
<g id="edge26" class="edge">
<title>Rational&#45;&gt;Real</title>
<path fill="none" stroke="#6666ff" d="M1369.31,-104.66C1348.14,-116.15 1317.83,-132.6 1295.42,-144.76"/>
<polygon fill="#6666ff" stroke="#6666ff" points="1293.47,-141.84 1286.35,-149.68 1296.81,-147.99 1293.47,-141.84"/>
</g>
<!-- Rat -->
<g id="node15" class="node">
<title>Rat</title>
<g id="a_node15"><a xlink:href="/type/Rat" xlink:title="Rat">
<ellipse fill="none" stroke="#000000" cx="971.49" cy="-18" rx="27" ry="18"/>
<text text-anchor="middle" x="971.49" y="-14.3" font-family="FreeSans" font-size="14.00" fill="#000000">Rat</text>
</a>
</g>
</g>
<!-- Rat&#45;&gt;Cool -->
<g id="edge7" class="edge">
<title>Rat&#45;&gt;Cool</title>
<path fill="none" stroke="#000000" d="M945.41,-23.29C868.76,-35.91 649.49,-72 649.49,-72 649.49,-72 649.49,-108 649.49,-108 649.49,-108 680.98,-127.87 705.4,-143.28"/>
<polygon fill="#000000" stroke="#000000" points="703.68,-146.33 714.01,-148.71 707.42,-140.41 703.68,-146.33"/>
</g>
<!-- Rat&#45;&gt;Rational -->
<g id="edge27" class="edge">
<title>Rat&#45;&gt;Rational</title>
<path fill="none" stroke="#6666ff" d="M997.59,-22.86C1031.52,-27.87 1086.49,-36 1086.49,-36 1086.49,-36 1342.49,-72 1342.49,-72 1342.49,-72 1346.26,-73.23 1351.77,-75.03"/>
<polygon fill="#6666ff" stroke="#6666ff" points="1350.97,-78.45 1361.56,-78.23 1353.14,-71.8 1350.97,-78.45"/>
</g>
<!-- Duration -->
<g id="node16" class="node">
<title>Duration</title>
<g id="a_node16"><a xlink:href="/type/Duration" xlink:title="Duration">
<ellipse fill="none" stroke="#000000" cx="1125.49" cy="-90" rx="44.39" ry="18"/>
<text text-anchor="middle" x="1125.49" y="-86.3" font-family="FreeSans" font-size="14.00" fill="#000000">Duration</text>
</a>
</g>
</g>
<!-- Duration&#45;&gt;Cool -->
<g id="edge8" class="edge">
<title>Duration&#45;&gt;Cool</title>
<path fill="none" stroke="#000000" d="M1091.93,-101.77C1081.41,-105.14 1072.49,-108 1072.49,-108 1072.49,-108 859.33,-141.33 771.07,-155.13"/>
<polygon fill="#000000" stroke="#000000" points="770.29,-151.7 760.95,-156.71 771.37,-158.62 770.29,-151.7"/>
</g>
<!-- Duration&#45;&gt;Real -->
<g id="edge28" class="edge">
<title>Duration&#45;&gt;Real</title>
<path fill="none" stroke="#6666ff" d="M1152.48,-104.5C1175.91,-116.21 1209.84,-133.17 1234.4,-145.45"/>
<polygon fill="#6666ff" stroke="#6666ff" points="1233.13,-148.73 1243.64,-150.07 1236.26,-142.47 1233.13,-148.73"/>
</g>
<!-- Complex -->
<g id="node17" class="node">
<title>Complex</title>
<g id="a_node17"><a xlink:href="/type/Complex" xlink:title="Complex">
<ellipse fill="none" stroke="#000000" cx="1500.49" cy="-90" rx="45.49" ry="18"/>
<text text-anchor="middle" x="1500.49" y="-86.3" font-family="FreeSans" font-size="14.00" fill="#000000">Complex</text>
</a>
</g>
</g>
<!-- Complex&#45;&gt;Cool -->
<g id="edge9" class="edge">
<title>Complex&#45;&gt;Cool</title>
<path fill="none" stroke="#000000" d="M1465.99,-101.86C1455.4,-105.19 1446.49,-108 1446.49,-108 1446.49,-108 906.49,-144 906.49,-144 906.49,-144 822.64,-152.24 771.7,-157.25"/>
<polygon fill="#000000" stroke="#000000" points="771.28,-153.77 761.67,-158.23 771.97,-160.74 771.28,-153.77"/>
</g>
<!-- Complex&#45;&gt;Numeric -->
<g id="edge29" class="edge">
<title>Complex&#45;&gt;Numeric</title>
<path fill="none" stroke="#6666ff" d="M1483.64,-106.74C1456.71,-131.9 1403.83,-181.3 1372.8,-210.29"/>
<polygon fill="#6666ff" stroke="#6666ff" points="1370.33,-207.81 1365.41,-217.19 1375.11,-212.92 1370.33,-207.81"/>
</g>
<!-- FatRat -->
<g id="node18" class="node">
<title>FatRat</title>
<g id="a_node18"><a xlink:href="/type/FatRat" xlink:title="FatRat">
<ellipse fill="none" stroke="#000000" cx="1132.49" cy="-18" rx="37.09" ry="18"/>
<text text-anchor="middle" x="1132.49" y="-14.3" font-family="FreeSans" font-size="14.00" fill="#000000">FatRat</text>
</a>
</g>
</g>
<!-- FatRat&#45;&gt;Cool -->
<g id="edge10" class="edge">
<title>FatRat&#45;&gt;Cool</title>
<path fill="none" stroke="#000000" d="M1099.47,-26.2C1033.03,-40.69 889.49,-72 889.49,-72 889.49,-72 851.49,-108 851.49,-108 851.49,-108 800.56,-130.88 765.62,-146.57"/>
<polygon fill="#000000" stroke="#000000" points="763.93,-143.49 756.24,-150.78 766.8,-149.88 763.93,-143.49"/>
</g>
<!-- FatRat&#45;&gt;Rational -->
<g id="edge30" class="edge">
<title>FatRat&#45;&gt;Rational</title>
<path fill="none" stroke="#6666ff" d="M1164.84,-27.17C1223.75,-42.03 1342.49,-72 1342.49,-72 1342.49,-72 1346.26,-73.23 1351.77,-75.03"/>
<polygon fill="#6666ff" stroke="#6666ff" points="1350.97,-78.45 1361.56,-78.23 1353.14,-71.8 1350.97,-78.45"/>
</g>
<!-- Instant -->
<g id="node19" class="node">
<title>Instant</title>
<g id="a_node19"><a xlink:href="/type/Instant" xlink:title="Instant">
<ellipse fill="none" stroke="#000000" cx="1224.49" cy="-90" rx="37.09" ry="18"/>
<text text-anchor="middle" x="1224.49" y="-86.3" font-family="FreeSans" font-size="14.00" fill="#000000">Instant</text>
</a>
</g>
</g>
<!-- Instant&#45;&gt;Cool -->
<g id="edge11" class="edge">
<title>Instant&#45;&gt;Cool</title>
<path fill="none" stroke="#000000" d="M1195.88,-101.57C1186.53,-105.03 1178.49,-108 1178.49,-108 1178.49,-108 879.03,-143.67 771.42,-156.48"/>
<polygon fill="#000000" stroke="#000000" points="770.84,-153.03 761.33,-157.68 771.67,-159.98 770.84,-153.03"/>
</g>
<!-- Instant&#45;&gt;Real -->
<g id="edge31" class="edge">
<title>Instant&#45;&gt;Real</title>
<path fill="none" stroke="#6666ff" d="M1234.21,-107.59C1239.11,-115.96 1245.16,-126.29 1250.63,-135.63"/>
<polygon fill="#6666ff" stroke="#6666ff" points="1247.77,-137.67 1255.84,-144.53 1253.81,-134.13 1247.77,-137.67"/>
</g>
<!-- Capture -->
<g id="node20" class="node">
<title>Capture</title>
<g id="a_node20"><a xlink:href="/type/Capture" xlink:title="Capture">
<ellipse fill="none" stroke="#000000" cx="549.49" cy="-162" rx="42.49" ry="18"/>
<text text-anchor="middle" x="549.49" y="-158.3" font-family="FreeSans" font-size="14.00" fill="#000000">Capture</text>
</a>
</g>
</g>
<!-- Capture&#45;&gt;Any -->
<g id="edge12" class="edge">
<title>Capture&#45;&gt;Any</title>
<path fill="none" stroke="#000000" d="M569.45,-178.19C583.15,-188.61 601.43,-202.52 616.16,-213.72"/>
<polygon fill="#000000" stroke="#000000" points="614.27,-216.69 624.35,-219.96 618.51,-211.12 614.27,-216.69"/>
</g>
<!-- Match -->
<g id="node21" class="node">
<title>Match</title>
<g id="a_node21"><a xlink:href="/type/Match" xlink:title="Match">
<ellipse fill="none" stroke="#000000" cx="495.49" cy="-90" rx="35.19" ry="18"/>
<text text-anchor="middle" x="495.49" y="-86.3" font-family="FreeSans" font-size="14.00" fill="#000000">Match</text>
</a>
</g>
</g>
<!-- Match&#45;&gt;Cool -->
<g id="edge14" class="edge">
<title>Match&#45;&gt;Cool</title>
<path fill="none" stroke="#000000" d="M522.61,-101.48C531.66,-104.97 539.49,-108 539.49,-108 539.49,-108 695.49,-144 695.49,-144 695.49,-144 697.92,-145.09 701.55,-146.71"/>
<polygon fill="#000000" stroke="#000000" points="700.39,-150.03 710.95,-150.91 703.25,-143.64 700.39,-150.03"/>
</g>
<!-- Match&#45;&gt;Capture -->
<g id="edge13" class="edge">
<title>Match&#45;&gt;Capture</title>
<path fill="none" stroke="#000000" d="M507.74,-106.88C514.55,-115.71 523.16,-126.87 530.79,-136.76"/>
<polygon fill="#000000" stroke="#000000" points="528.03,-138.91 536.91,-144.69 533.57,-134.64 528.03,-138.91"/>
</g>
<!-- StrDistance -->
<g id="node22" class="node">
<title>StrDistance</title>
<g id="a_node22"><a xlink:href="/type/StrDistance" xlink:title="StrDistance">
<ellipse fill="none" stroke="#000000" cx="714.49" cy="-90" rx="55.79" ry="18"/>
<text text-anchor="middle" x="714.49" y="-86.3" font-family="FreeSans" font-size="14.00" fill="#000000">StrDistance</text>
</a>
</g>
</g>
<!-- StrDistance&#45;&gt;Cool -->
<g id="edge15" class="edge">
<title>StrDistance&#45;&gt;Cool</title>
<path fill="none" stroke="#000000" d="M719.09,-107.95C721.24,-115.86 723.84,-125.46 726.25,-134.31"/>
<polygon fill="#000000" stroke="#000000" points="722.94,-135.48 728.93,-144.21 729.69,-133.64 722.94,-135.48"/>
</g>
<!-- Range -->
<g id="node23" class="node">
<title>Range</title>
<g id="a_node23"><a xlink:href="/type/Range" xlink:title="Range">
<ellipse fill="none" stroke="#000000" cx="330.49" cy="-90" rx="36.29" ry="18"/>
<text text-anchor="middle" x="330.49" y="-86.3" font-family="FreeSans" font-size="14.00" fill="#000000">Range</text>
</a>
</g>
</g>
<!-- Range&#45;&gt;Cool -->
<g id="edge16" class="edge">
<title>Range&#45;&gt;Cool</title>
<path fill="none" stroke="#000000" d="M358.48,-101.57C367.63,-105.03 375.49,-108 375.49,-108 375.49,-108 695.49,-144 695.49,-144 695.49,-144 697.92,-145.09 701.55,-146.71"/>
<polygon fill="#000000" stroke="#000000" points="700.39,-150.03 710.95,-150.91 703.25,-143.64 700.39,-150.03"/>
</g>
<!-- Range&#45;&gt;Positional -->
<g id="edge32" class="edge">
<title>Range&#45;&gt;Positional</title>
<path fill="none" stroke="#6666ff" d="M326.13,-107.95C324.13,-115.74 321.7,-125.18 319.45,-133.92"/>
<polygon fill="#6666ff" stroke="#6666ff" points="316.03,-133.17 316.93,-143.72 322.81,-134.91 316.03,-133.17"/>
</g>
<!-- Range&#45;&gt;Iterable -->
<g id="edge33" class="edge">
<title>Range&#45;&gt;Iterable</title>
<path fill="none" stroke="#6666ff" d="M307.27,-104C288,-114.8 260.34,-130.28 238.72,-142.39"/>
<polygon fill="#6666ff" stroke="#6666ff" points="236.88,-139.41 229.87,-147.35 240.3,-145.52 236.88,-139.41"/>
</g>
<!-- PositionalBindFailover -->
<g id="node24" class="node">
<title>PositionalBindFailover</title>
<g id="a_node24"><a xlink:href="/type/PositionalBindFailover" xlink:title="PositionalBindFailover">
<ellipse fill="none" stroke="#6666ff" cx="97.49" cy="-234" rx="97.48" ry="18"/>
<text text-anchor="middle" x="97.49" y="-230.3" font-family="FreeSans" font-size="14.00" fill="#6666ff">PositionalBindFailover</text>
</a>
</g>
</g>
<!-- Sequence -->
<g id="node25" class="node">
<title>Sequence</title>
<g id="a_node25"><a xlink:href="/type/Sequence" xlink:title="Sequence">
<ellipse fill="none" stroke="#6666ff" cx="97.49" cy="-162" rx="50.09" ry="18"/>
<text text-anchor="middle" x="97.49" y="-158.3" font-family="FreeSans" font-size="14.00" fill="#6666ff">Sequence</text>
</a>
</g>
</g>
<!-- Sequence&#45;&gt;PositionalBindFailover -->
<g id="edge34" class="edge">
<title>Sequence&#45;&gt;PositionalBindFailover</title>
<path fill="none" stroke="#6666ff" d="M97.49,-180.3C97.49,-188.02 97.49,-197.29 97.49,-205.89"/>
<polygon fill="#6666ff" stroke="#6666ff" points="93.99,-205.9 97.49,-215.9 100.99,-205.9 93.99,-205.9"/>
</g>
<!-- Seq -->
<g id="node26" class="node">
<title>Seq</title>
<g id="a_node26"><a xlink:href="/type/Seq" xlink:title="Seq">
<ellipse fill="none" stroke="#000000" cx="177.49" cy="-90" rx="27" ry="18"/>
<text text-anchor="middle" x="177.49" y="-86.3" font-family="FreeSans" font-size="14.00" fill="#000000">Seq</text>
</a>
</g>
</g>
<!-- Seq&#45;&gt;Cool -->
<g id="edge17" class="edge">
<title>Seq&#45;&gt;Cool</title>
<path fill="none" stroke="#000000" d="M198.85,-101.09C206.6,-104.75 213.49,-108 213.49,-108 213.49,-108 695.49,-144 695.49,-144 695.49,-144 697.92,-145.09 701.55,-146.71"/>
<polygon fill="#000000" stroke="#000000" points="700.39,-150.03 710.95,-150.91 703.25,-143.64 700.39,-150.03"/>
</g>
<!-- Seq&#45;&gt;Iterable -->
<g id="edge35" class="edge">
<title>Seq&#45;&gt;Iterable</title>
<path fill="none" stroke="#6666ff" d="M184.13,-107.59C187.36,-115.66 191.32,-125.57 194.95,-134.65"/>
<polygon fill="#6666ff" stroke="#6666ff" points="191.75,-136.06 198.71,-144.04 198.24,-133.46 191.75,-136.06"/>
</g>
<!-- Seq&#45;&gt;Sequence -->
<g id="edge36" class="edge">
<title>Seq&#45;&gt;Sequence</title>
<path fill="none" stroke="#6666ff" d="M161.69,-104.83C150.75,-114.4 135.95,-127.35 123.32,-138.4"/>
<polygon fill="#6666ff" stroke="#6666ff" points="121,-135.77 115.78,-144.99 125.61,-141.04 121,-135.77"/>
</g>
<!-- Associative -->
<g id="node27" class="node">
<title>Associative</title>
<g id="a_node27"><a xlink:href="/type/Associative" xlink:title="Associative">
<ellipse fill="none" stroke="#6666ff" cx="434.49" cy="-162" rx="55.49" ry="18"/>
<text text-anchor="middle" x="434.49" y="-158.3" font-family="FreeSans" font-size="14.00" fill="#6666ff">Associative</text>
</a>
</g>
</g>
<!-- Map -->
<g id="node28" class="node">
<title>Map</title>
<g id="a_node28"><a xlink:href="/type/Map" xlink:title="Map">
<ellipse fill="none" stroke="#000000" cx="413.49" cy="-90" rx="28.7" ry="18"/>
<text text-anchor="middle" x="413.49" y="-86.3" font-family="FreeSans" font-size="14.00" fill="#000000">Map</text>
</a>
</g>
</g>
<!-- Map&#45;&gt;Cool -->
<g id="edge18" class="edge">
<title>Map&#45;&gt;Cool</title>
<path fill="none" stroke="#000000" d="M436.04,-101.09C444.22,-104.75 451.49,-108 451.49,-108 451.49,-108 695.49,-144 695.49,-144 695.49,-144 697.92,-145.09 701.55,-146.71"/>
<polygon fill="#000000" stroke="#000000" points="700.39,-150.03 710.95,-150.91 703.25,-143.64 700.39,-150.03"/>
</g>
<!-- Map&#45;&gt;Iterable -->
<g id="edge37" class="edge">
<title>Map&#45;&gt;Iterable</title>
<path fill="none" stroke="#6666ff" d="M390.95,-101.09C382.76,-104.75 375.49,-108 375.49,-108 375.49,-108 254.49,-144 254.49,-144 254.49,-144 251.04,-145.2 245.98,-146.95"/>
<polygon fill="#6666ff" stroke="#6666ff" points="244.55,-143.75 236.25,-150.33 246.84,-150.36 244.55,-143.75"/>
</g>
<!-- Map&#45;&gt;Associative -->
<g id="edge38" class="edge">
<title>Map&#45;&gt;Associative</title>
<path fill="none" stroke="#6666ff" d="M418.57,-107.95C420.91,-115.74 423.74,-125.18 426.37,-133.92"/>
<polygon fill="#6666ff" stroke="#6666ff" points="423.08,-135.15 429.31,-143.72 429.79,-133.14 423.08,-135.15"/>
</g>
<!-- Int -->
<g id="node29" class="node">
<title>Int</title>
<g id="a_node29"><a xlink:href="/type/Int" xlink:title="Int">
<ellipse fill="none" stroke="#000000" cx="1306.49" cy="-90" rx="27" ry="18"/>
<text text-anchor="middle" x="1306.49" y="-86.3" font-family="FreeSans" font-size="14.00" fill="#000000">Int</text>
</a>
</g>
</g>
<!-- Int&#45;&gt;Cool -->
<g id="edge19" class="edge">
<title>Int&#45;&gt;Cool</title>
<path fill="none" stroke="#000000" d="M1285.13,-101.09C1277.38,-104.75 1270.49,-108 1270.49,-108 1270.49,-108 894.34,-145.12 771.67,-157.23"/>
<polygon fill="#000000" stroke="#000000" points="771.21,-153.76 761.61,-158.23 771.9,-160.73 771.21,-153.76"/>
</g>
<!-- Int&#45;&gt;Real -->
<g id="edge39" class="edge">
<title>Int&#45;&gt;Real</title>
<path fill="none" stroke="#6666ff" d="M1296.98,-107.24C1291.96,-115.81 1285.69,-126.51 1280.08,-136.1"/>
<polygon fill="#6666ff" stroke="#6666ff" points="1276.98,-134.45 1274.95,-144.85 1283.02,-137.99 1276.98,-134.45"/>
</g>
<!-- Num -->
<g id="node30" class="node">
<title>Num</title>
<g id="a_node30"><a xlink:href="/type/Num" xlink:title="Num">
<ellipse fill="none" stroke="#000000" cx="1033.49" cy="-90" rx="29.8" ry="18"/>
<text text-anchor="middle" x="1033.49" y="-86.3" font-family="FreeSans" font-size="14.00" fill="#000000">Num</text>
</a>
</g>
</g>
<!-- Num&#45;&gt;Cool -->
<g id="edge20" class="edge">
<title>Num&#45;&gt;Cool</title>
<path fill="none" stroke="#000000" d="M1010.07,-101.48C1002.25,-104.97 995.49,-108 995.49,-108 995.49,-108 842.87,-138.87 770.6,-153.49"/>
<polygon fill="#000000" stroke="#000000" points="769.65,-150.11 760.54,-155.53 771.04,-156.98 769.65,-150.11"/>
</g>
<!-- Num&#45;&gt;Real -->
<g id="edge40" class="edge">
<title>Num&#45;&gt;Real</title>
<path fill="none" stroke="#6666ff" d="M1057.08,-101.28C1065.29,-104.86 1072.49,-108 1072.49,-108 1072.49,-108 1174.3,-135.96 1230.03,-151.26"/>
<polygon fill="#6666ff" stroke="#6666ff" points="1229.29,-154.69 1239.86,-153.96 1231.15,-147.94 1229.29,-154.69"/>
</g>
</g>
</svg>
