<?xml version="1.0" encoding="UTF-8" standalone="no"?>
<!DOCTYPE svg PUBLIC "-//W3C//DTD SVG 1.1//EN"
 "http://www.w3.org/Graphics/SVG/1.1/DTD/svg11.dtd">
<!-- Generated by graphviz version 2.43.0 (0)
 -->
<!-- Title: perl6&#45;type&#45;graph Pages: 1 -->
<svg width="286pt" height="404pt"
 viewBox="0.00 0.00 285.94 404.00" xmlns="http://www.w3.org/2000/svg" xmlns:xlink="http://www.w3.org/1999/xlink">
<g id="graph0" class="graph" transform="scale(1 1) rotate(0) translate(4 400)">
<title>perl6&#45;type&#45;graph</title>
<polygon fill="#ffffff" stroke="transparent" points="-4,4 -4,-400 281.94,-400 281.94,4 -4,4"/>
<!-- X::Syntax::Variable::Twigil -->
<g id="node1" class="node">
<title>X::Syntax::Variable::Twigil</title>
<g id="a_node1"><a xlink:href="/type/X::Syntax::Variable::Twigil" xlink:title="X::Syntax::Variable::Twigil">
<ellipse fill="none" stroke="#000000" cx="113.09" cy="-18" rx="113.18" ry="18"/>
<text text-anchor="middle" x="113.09" y="-14.3" font-family="FreeSans" font-size="14.00" fill="#000000">X::Syntax::Variable::Twigil</text>
</a>
</g>
</g>
<!-- Exception -->
<g id="node4" class="node">
<title>Exception</title>
<g id="a_node4"><a xlink:href="/type/Exception" xlink:title="Exception">
<ellipse fill="none" stroke="#000000" cx="136.09" cy="-234" rx="49.29" ry="18"/>
<text text-anchor="middle" x="136.09" y="-230.3" font-family="FreeSans" font-size="14.00" fill="#000000">Exception</text>
</a>
</g>
</g>
<!-- X::Syntax::Variable::Twigil&#45;&gt;Exception -->
<g id="edge1" class="edge">
<title>X::Syntax::Variable::Twigil&#45;&gt;Exception</title>
<path fill="none" stroke="#000000" d="M111.06,-36.15C111.5,-73.34 120.73,-161.63 128.56,-206.23"/>
<polygon fill="#000000" stroke="#000000" points="125.12,-206.88 130.41,-216.06 132,-205.59 125.12,-206.88"/>
</g>
<!-- X::Syntax::Variable::Twigil&#45;&gt;Exception -->
<g id="edge2" class="edge">
<title>X::Syntax::Variable::Twigil&#45;&gt;Exception</title>
<path fill="none" stroke="#000000" d="M118.81,-36.15C126.33,-73.17 136.02,-160.82 137.84,-205.61"/>
<polygon fill="#000000" stroke="#000000" points="134.34,-205.87 138.12,-215.77 141.34,-205.67 134.34,-205.87"/>
</g>
<!-- X::Syntax -->
<g id="node6" class="node">
<title>X::Syntax</title>
<g id="a_node6"><a xlink:href="/type/X::Syntax" xlink:title="X::Syntax">
<ellipse fill="none" stroke="#6666ff" cx="198.09" cy="-90" rx="48.19" ry="18"/>
<text text-anchor="middle" x="198.09" y="-86.3" font-family="FreeSans" font-size="14.00" fill="#6666ff">X::Syntax</text>
</a>
</g>
</g>
<!-- X::Syntax::Variable::Twigil&#45;&gt;X::Syntax -->
<g id="edge7" class="edge">
<title>X::Syntax::Variable::Twigil&#45;&gt;X::Syntax</title>
<path fill="none" stroke="#6666ff" d="M133.67,-35.95C144.92,-45.22 159.01,-56.81 171.13,-66.8"/>
<polygon fill="#6666ff" stroke="#6666ff" points="169.21,-69.75 179.16,-73.41 173.66,-64.35 169.21,-69.75"/>
</g>
<!-- Mu -->
<g id="node2" class="node">
<title>Mu</title>
<g id="a_node2"><a xlink:href="/type/Mu" xlink:title="Mu">
<ellipse fill="none" stroke="#000000" cx="136.09" cy="-378" rx="27" ry="18"/>
<text text-anchor="middle" x="136.09" y="-374.3" font-family="FreeSans" font-size="14.00" fill="#000000">Mu</text>
</a>
</g>
</g>
<!-- Any -->
<g id="node3" class="node">
<title>Any</title>
<g id="a_node3"><a xlink:href="/type/Any" xlink:title="Any">
<ellipse fill="none" stroke="#000000" cx="136.09" cy="-306" rx="27" ry="18"/>
<text text-anchor="middle" x="136.09" y="-302.3" font-family="FreeSans" font-size="14.00" fill="#000000">Any</text>
</a>
</g>
</g>
<!-- Any&#45;&gt;Mu -->
<g id="edge3" class="edge">
<title>Any&#45;&gt;Mu</title>
<path fill="none" stroke="#000000" d="M136.09,-324.3C136.09,-332.02 136.09,-341.29 136.09,-349.89"/>
<polygon fill="#000000" stroke="#000000" points="132.59,-349.9 136.09,-359.9 139.59,-349.9 132.59,-349.9"/>
</g>
<!-- Exception&#45;&gt;Any -->
<g id="edge4" class="edge">
<title>Exception&#45;&gt;Any</title>
<path fill="none" stroke="#000000" d="M136.09,-252.3C136.09,-260.02 136.09,-269.29 136.09,-277.89"/>
<polygon fill="#000000" stroke="#000000" points="132.59,-277.9 136.09,-287.9 139.59,-277.9 132.59,-277.9"/>
</g>
<!-- X::Comp -->
<g id="node5" class="node">
<title>X::Comp</title>
<g id="a_node5"><a xlink:href="/type/X::Comp" xlink:title="X::Comp">
<ellipse fill="none" stroke="#6666ff" cx="233.09" cy="-162" rx="44.69" ry="18"/>
<text text-anchor="middle" x="233.09" y="-158.3" font-family="FreeSans" font-size="14.00" fill="#6666ff">X::Comp</text>
</a>
</g>
</g>
<!-- X::Comp&#45;&gt;Exception -->
<g id="edge5" class="edge">
<title>X::Comp&#45;&gt;Exception</title>
<path fill="none" stroke="#000000" d="M212.04,-178.19C198.53,-187.94 180.79,-200.74 165.85,-211.52"/>
<polygon fill="#000000" stroke="#000000" points="163.49,-208.91 157.43,-217.6 167.59,-214.59 163.49,-208.91"/>
</g>
<!-- X::Syntax&#45;&gt;Exception -->
<g id="edge6" class="edge">
<title>X::Syntax&#45;&gt;Exception</title>
<path fill="none" stroke="#000000" d="M190.73,-107.85C180.06,-132.29 160.18,-177.83 147.57,-206.71"/>
<polygon fill="#000000" stroke="#000000" points="144.23,-205.61 143.44,-216.18 150.65,-208.41 144.23,-205.61"/>
</g>
<!-- X::Syntax&#45;&gt;X::Comp -->
<g id="edge8" class="edge">
<title>X::Syntax&#45;&gt;X::Comp</title>
<path fill="none" stroke="#6666ff" d="M206.56,-107.95C210.65,-116.11 215.63,-126.09 220.18,-135.18"/>
<polygon fill="#6666ff" stroke="#6666ff" points="217.09,-136.83 224.7,-144.21 223.35,-133.7 217.09,-136.83"/>
</g>
</g>
</svg>
